<?xml version="1.0" encoding="UTF-8"?>
<svg id="Layer_1" data-name="Layer 1" xmlns="http://www.w3.org/2000/svg" xmlns:xlink="http://www.w3.org/1999/xlink" viewBox="0 0 500 500">
  <defs>
    <linearGradient id="linear-gradient" x1="-674.49762" y1="-6858.40355" x2="-661.11189" y2="-6812.43021" gradientTransform="translate(896.75 -6531.5) scale(1 -1)" gradientUnits="userSpaceOnUse">
      <stop offset=".02353" stop-color="#f5895c"/>
      <stop offset=".96863" stop-color="#f8a678"/>
    </linearGradient>
    <radialGradient id="radial-gradient" cx="-805.69334" cy="-6304.15362" fx="-805.69334" fy="-6304.15362" r="20.81586" gradientTransform="translate(1259.4342 -7180.828) scale(1.1773 -1.1773)" gradientUnits="userSpaceOnUse">
      <stop offset=".02353" stop-color="#f5895c"/>
      <stop offset=".96863" stop-color="#f8a678"/>
    </radialGradient>
    <radialGradient id="radial-gradient-2" cx="-636.16001" cy="-6880.00245" fx="-636.16001" fy="-6880.00245" r="31.14043" gradientTransform="translate(864.3 -6633.5) scale(1 -1)" xlink:href="#radial-gradient"/>
    <mask id="mask" x="-395.69154" y="62.27549" width="734.81299" height="481.90518" maskUnits="userSpaceOnUse">
      <g id="Mask_Mask_3" data-name="Mask Mask 3">
        <g id="Mask_Symbol_9_0_3_MASK_0_FILL" data-name="Mask Symbol 9 0 3 MASK 0 FILL">
          <path d="M13.69142,206.84202c-27.76518-9.18687-56.53825-15.3988-86.31922-18.63551-25.56877-2.73825-47.93127-2.9369-67.08749-.59623-38.66522,4.79997-75.28985,14.58984-109.87446,29.3693-35.07517,15.08857-67.22725,34.96641-96.45707,59.63351-6.61937,5.60443-12.73184,11.6673-18.33711,18.18805h0c-7.80901,9.37397-15.56138,20.75415-23.25712,34.13997,9.74478,5.94904,16.10576,23.59074,19.08268,52.92489,3.47875,13.61632,8.10008,25.24473,13.86484,34.88554.89434-1.78925,1.88843-3.57821,2.9817-5.36718,7.15586-13.21874,12.72169-20.87164,16.6972-22.95872-.29811.59623-.54664,1.19274-.74529,1.78897-.2984.39758-.54664.84475-.74557,1.34172-.89434,1.78904-1.6895,3.578-2.38519,5.36697-5.26771,11.23112-9.6904,21.6668-13.26861,31.30761-10.13757,27.23263-13.86456,48.40239-11.18125,63.50955,3.37928,18.28752,13.51713,31.0588,30.41298,38.31441,16.79695,7.0564,35.13406,6.95721,55.0119-.2984,10.83326-3.97558,21.21963-10.23703,31.15827-18.78428,9.35171-7.87015,17.30273-16.81498,23.85335-26.83505.52466-.74275,1.0217-1.48803,1.49085-2.23649l1.19274.74563,2.53453-1.49085c.55199.90301,1.09863,1.79742,1.63991,2.68359l.14906-.59651c.80671.27832,1.60187.5765,2.38519.89462,7.43341,2.44655,16.4777,3.34124,27.13317,2.68359h0c2.9817-.09947,8.24942-1.39167,15.80286-3.87633,7.15615-2.48466,10.88313-3.77693,11.18125-3.87605,9.14376,6.16206,20.37488,11.62842,33.6928,16.39909,26.6364,9.44187,50.29082,10.53515,70.96382,3.27982,7.75237-2.68359,15.85245-8.44807,24.30052-17.29371l-.14906-.29811,4.02538-3.87605h.29811c.79121-.49085,1.58637-.68949,2.38519-.59651l6.70897.59651-.89462,1.63991c14.32779,5.41226,27.99398,9.6363,40.998,12.6721,16.2258,3.77771,31.38284,5.61655,45.47028,5.51595,14.31201-.09947,30.46286-2.78277,48.45226-8.05049,17.79048-5.26771,30.86015-11.18125,39.20876-17.74088,9.6408-7.55372,17.84035-17.14465,24.59891-28.77314,8.05049-14.01383,12.22465-28.32583,12.52304-42.93596.49676-22.56143-7.75237-48.2534-24.74797-77.07635-31.24195-53.32042-82.8247-91.88336-154.74851-115.68853M-71.73346,179.26168h0c-26.31265-2.82757-49.32125-3.02651-69.02551-.59651-39.55449,4.94001-77.02415,14.9784-112.40899,30.11487-35.88864,15.4236-68.78629,35.7486-98.69293,60.97502-6.99779,5.92452-13.45796,12.3351-19.38107,19.23174v.14906c-8.20264,9.80001-16.3526,21.72682-24.44958,35.78016l7.75237,4.47256c.08848-.15385.18794-.3029.29811-.44745,7.69574-13.38583,15.44811-24.76601,23.25712-34.13997h0c5.60528-6.52075,11.71774-12.58362,18.33711-18.18805,29.22983-24.6671,61.3819-44.54494,96.45707-59.63351,34.58461-14.77947,71.20924-24.56933,109.87446-29.3693,19.15622-2.34067,41.51872-2.14203,67.08749.59623,29.78097,3.23671,58.55404,9.44864,86.31922,18.63551,71.92381,23.80516,123.50655,62.3681,154.74851,115.68853,16.9956,28.82295,25.24473,54.51492,24.74797,77.07635-.2984,14.61012-4.47256,28.92213-12.52304,42.93596-6.75857,11.62849-14.95811,21.21942-24.59891,28.77314-8.3486,6.55964-21.41828,12.47317-39.20876,17.74088-17.98941,5.26771-34.14025,7.95102-48.45226,8.05049-14.08744.10059-29.24448-1.73825-45.47028-5.51595-13.00403-3.0358-26.67022-7.25984-40.998-12.6721l.89462-1.63991-6.70897-.59651c-.79882-.09298-1.59398.10566-2.38519.59651h-.29811l-4.02538,3.87605.14906.29811c-8.44807,8.84565-16.54815,14.61012-24.30052,17.29371-20.673,7.25533-44.32741,6.16206-70.96382-3.27982-13.31792-4.77067-24.54904-10.23703-33.6928-16.39909-.29811.09912-4.0251,1.39139-11.18125,3.87605-7.55344,2.48466-12.82116,3.77686-15.80286,3.87633h0c-10.65546.65765-19.69976-.23704-27.13317-2.68359-.78332-.31812-1.57848-.6163-2.38519-.89462l-.14906.59651c-.54128-.88617-1.08792-1.78058-1.63991-2.68359l-2.53453,1.49085-1.19274-.74563c-.46915.74845-.96619,1.49374-1.49085,2.23649-6.55062,10.02007-14.50164,18.9649-23.85335,26.83505-9.93864,8.54725-20.32501,14.8087-31.15827,18.78428-19.87784,7.25561-38.21495,7.35479-55.0119.2984-16.89585-7.25561-27.0337-20.02689-30.41298-38.31441-2.68331-15.10717,1.04368-36.27692,11.18125-63.50955,3.57821-9.6408,8.0009-20.07649,13.26861-31.30761.69569-1.78897,1.49085-3.57793,2.38519-5.36697.19893-.49697.44717-.94415.74557-1.34172.19865-.59623.44717-1.19274.74529-1.78897-3.97551,2.08708-9.54134,9.73999-16.6972,22.95872-1.09327,1.78897-2.08736,3.57793-2.9817,5.36718-15.90233,28.92213-21.71668,54.46498-17.44277,76.62883,3.87605,21.36841,15.75299,36.32652,35.63082,44.87405h.14906c18.6851,7.95102,39.15916,7.90136,61.42248-.14906h.14906c11.72788-4.27391,23.0086-10.9826,33.84186-20.12636,6.55964-5.46636,14.41147-14.70959,23.55523-27.72946l.74529.29818h.2984l.14906.14906c11.92653,3.87605,22.01451,5.56576,30.26393,5.06878,4.47227-.19865,10.23703-1.73937,17.29371-4.62161l9.24294-4.32322c10.43596,6.85775,22.76008,12.77128,36.9729,17.74088,28.32562,10.13757,52.07979,10.93273,71.26165,2.38519,7.65291-3.27982,17.09506-10.93273,28.3259-22.95872,5.16825,1.98761,12.62251,4.91973,22.3625,8.79577,8.44807,3.27982,15.55434,5.56583,21.31882,6.85803,18.58592,4.37309,34.43837,6.50976,47.55764,6.41058,14.61012-.09947,31.50626-3.03158,50.6884-8.79605,18.38698-5.56583,32.20195-11.62842,41.44517-18.18805,10.83354-7.75237,20.72259-19.43067,29.6677-35.03459,9.24294-16.20044,14.01361-30.91003,14.31201-44.12876.79488-26.03989-7.45426-53.81923-24.74797-83.33759-15.90233-27.3321-37.86724-51.18544-65.89475-71.56004-27.23263-19.77837-59.63351-35.87935-97.20236-48.30321-23.25712-7.75209-52.72589-13.56644-88.40658-17.44249Z" style="fill: #fff;"/>
        </g>
      </g>
    </mask>
    <filter id="luminosity-noclip" x="144.71441" y="222.61193" width="34.73609" height="27.6993" color-interpolation-filters="sRGB" filterUnits="userSpaceOnUse">
      <feFlood flood-color="#fff" result="bg"/>
      <feBlend in="SourceGraphic" in2="bg"/>
    </filter>
    <filter id="luminosity-noclip-2" x="144.71441" y="-4592" width="34.73609" height="32766" color-interpolation-filters="sRGB" filterUnits="userSpaceOnUse">
      <feFlood flood-color="#fff" result="bg"/>
      <feBlend in="SourceGraphic" in2="bg"/>
    </filter>
    <mask id="mask-2" x="144.71441" y="-4592" width="34.73609" height="32766" maskUnits="userSpaceOnUse"/>
    <radialGradient id="radial-gradient-3" cx="-914.47808" cy="-5657.99971" fx="-914.47808" fy="-5657.99971" r="14.59669" gradientTransform="translate(1354.5047 -8079.1006) scale(1.304 -1.4697)" gradientUnits="userSpaceOnUse">
      <stop offset=".02353" stop-color="#fff"/>
      <stop offset="1" stop-color="#000"/>
    </radialGradient>
    <mask id="mask-1" x="144.71441" y="222.61193" width="34.73609" height="27.6993" maskUnits="userSpaceOnUse">
      <g style="filter: url(#luminosity-noclip);">
        <g style="mask: url(#mask-2);">
          <path d="M176.10587,242.51489c2.80638-3.32656,3.84675-6.78946,3.12091-10.38879-.77413-3.65382-3.07252-6.35322-6.89507-8.09839-3.91933-1.63598-8.22578-1.85416-12.91935-.65441-4.74185,1.25434-8.5644,3.57206-11.46766,6.95314-2.75799,3.43575-3.74997,6.95314-2.97574,10.55247.67735,3.65382,2.92735,6.32597,6.7499,8.01655,3.91933,1.63598,8.24998,1.85416,12.99193.65441,4.69346-1.25434,8.49182-3.59933,11.39508-7.03498Z" style="fill: url(#radial-gradient-3); mix-blend-mode: multiply;"/>
        </g>
      </g>
    </mask>
    <radialGradient id="radial-gradient-4" cx="-914.47808" cy="-5657.99971" fx="-914.47808" fy="-5657.99971" r="14.59669" gradientTransform="translate(1354.5047 -8079.1006) scale(1.304 -1.4697)" gradientUnits="userSpaceOnUse">
      <stop offset=".02353" stop-color="#f5895c"/>
      <stop offset="1" stop-color="#f8a678"/>
    </radialGradient>
    <radialGradient id="radial-gradient-5" cx="-635.51508" cy="-6879.47632" fx="-635.51508" fy="-6879.47632" r="21.65086" gradientTransform="translate(870 -6638.15) scale(1 -1)" xlink:href="#radial-gradient"/>
    <mask id="mask-3" x="-58.01768" y="219.57165" width="369.02407" height="480.86129" maskUnits="userSpaceOnUse"/>
    <filter id="luminosity-noclip-3" x="282.53411" y="219.57165" width="28.47228" height="20.14499" color-interpolation-filters="sRGB" filterUnits="userSpaceOnUse">
      <feFlood flood-color="#fff" result="bg"/>
      <feBlend in="SourceGraphic" in2="bg"/>
    </filter>
    <filter id="luminosity-noclip-4" x="282.53411" y="-4592" width="28.47228" height="32766" color-interpolation-filters="sRGB" filterUnits="userSpaceOnUse">
      <feFlood flood-color="#fff" result="bg"/>
      <feBlend in="SourceGraphic" in2="bg"/>
    </filter>
    <mask id="mask-5" x="282.53411" y="-4592" width="28.47228" height="32766" maskUnits="userSpaceOnUse"/>
    <radialGradient id="radial-gradient-6" cx="-705.28207" cy="-6632.15571" fx="-705.28207" fy="-6632.15571" r="14.59617" gradientTransform="translate(1050.59939 -6859.4671) scale(1.0689 -1.0689)" xlink:href="#radial-gradient-3"/>
    <mask id="mask-4" x="282.53411" y="219.57165" width="28.47228" height="20.14499" maskUnits="userSpaceOnUse">
      <g style="filter: url(#luminosity-noclip-3);">
        <g style="mask: url(#mask-5);">
          <path d="M310.823,226.49104c-.63453-2.65734-2.51846-4.62056-5.65168-5.88973-3.21264-1.18985-6.74244-1.34849-10.58961-.4759-3.88683.91214-7.02015,2.59778-9.39975,5.0568-2.26073,2.49868-3.07378,5.05678-2.43925,7.67446.55532,2.65732,2.39959,4.60076,5.53281,5.8303,3.21253,1.18985,6.76232,1.34849,10.64904.4759,3.84717-.91227,6.96061-2.61766,9.34032-5.11634,2.30039-2.41937,3.1531-4.93783,2.55812-7.55548Z" style="fill: url(#radial-gradient-6); mix-blend-mode: multiply;"/>
        </g>
      </g>
    </mask>
    <radialGradient id="radial-gradient-7" cx="-705.28207" cy="-6632.15571" fx="-705.28207" fy="-6632.15571" r="14.59617" gradientTransform="translate(1050.59939 -6859.4671) scale(1.0689 -1.0689)" xlink:href="#radial-gradient-4"/>
  </defs>
  <g>
    <g>
      <g id="Layer2_31_FILL" data-name="Layer2 31 FILL">
        <path d="M255.5792,129.89964c-20.29653-6.82733-42.42975-14.5082-66.39966-23.04234l-29.77686-10.74193c-.56363.79706-1.12022,1.59475-1.66975,2.39328-6.0897,9.05293-11.28442,20.33295-15.58413,33.83991-2.93124,9.0908-6.23361,21.55802-9.907,37.40198-2.22623,9.46171-5.89972,25.52826-11.02027,48.19945-12.87548-9.49887-24.61928-11.68805-35.23129-6.5675-9.27636,4.45256-15.63978,12.98678-19.09058,25.60253-3.45069,12.46722-2.67162,23.71019,2.33763,33.72849,5.64,11.31713,15.34292,17.2725,29.10898,17.86611-5.67703,4.63813-10.14832,9.14644-13.41345,13.52485-3.4509,4.60099-4.39702,7.58799-2.83867,8.96088,1.52132,1.33586,4.35989.83493,8.5157-1.5027,3.48783-1.89234,8.21873-5.26898,14.19273-10.1297-9.42468,14.3968-15.50997,29.72121-18.25575,45.97322-2.52319,15.17598-1.94799,29.75824,1.7254,43.74699,3.59912,13.69179,9.72154,25.19438,18.36705,34.50777,8.90534,9.61025,19.4616,15.67691,31.6692,18.2-4.15571,5.19471-6.25223,10.38942-6.28926,15.58413-.07427,4.56396,1.28001,7.90345,4.06292,10.0184,2.78281,2.15217,5.65851,2.05939,8.62689-.27826,3.41377-2.6715,5.82556-7.75493,7.23559-15.25023,11.13146,17.88473,26.62281,30.01807,46.47416,36.40011,18.66391,6.01102,42.1514,7.21697,70.46269,3.61774,41.59482-7.45807,69.34942-21.29831,83.26391-41.52055,1.74391,3.52496,3.02402,5.86248,3.84033,7.01279,2.33763,3.37664,4.89785,5.36165,7.68077,5.95537,1.78094.37102,3.58061-.18556,5.39879-1.66975,1.85531-1.55835,3.11681-3.65487,3.78468-6.28926,1.78105-6.82733-1.07603-13.56198-8.57124-20.20376,11.35416-2.18918,21.37256-8.05177,30.0551-17.58786,8.46005-9.35042,14.47096-20.87162,18.03316-34.56341,3.71052-14.2854,4.21146-28.96055,1.5027-44.02512-2.96827-16.47471-9.55449-31.81773-19.75846-46.02897,6.53047,5.15758,11.81807,8.66402,15.86248,10.51934,3.71052,1.70676,5.89972,1.85521,6.5676.44529.63075-1.41003-.35251-4.04454-2.94986-7.90347-2.74589-4.15583-6.88298-8.9794-12.41168-14.47096,4.267-.59372,8.66402-2.02226,13.19085-4.28562,4.86082-2.44903,9.01663-5.49157,12.46733-9.12795,8.49708-8.9794,10.51934-19.07193,6.06667-30.27777-4.26711-10.68628-13.59901-17.97741-27.99581-21.87341-8.20022-2.18918-18.83085-3.26532-31.89179-3.22818l-6.34501-26.04782-6.73455-27.82879c.14349-.1301.2733-.25991.38953-.38961-4.78656,2.81995-39.70248-6.73465-104.74776-28.66369M198.14042,182.32917v-.05567.05567h0Z" style="fill: #281410;"/>
      </g>
      <g id="Layer2_31_1_STROKES" data-name="Layer2 31 1 STROKES">
        <path d="M239.18549,495.6258c-15.68312,0-29.48989-1.90454-41.27913-5.70164-18.88229-6.0713-34.07079-17.41914-45.2012-33.76099-1.55014,5.83861-3.84496,9.89448-6.96808,12.3371-3.57756,2.81879-7.2703,2.91767-10.67713.28371-3.2058-2.43506-4.79403-6.26254-4.71029-11.36636.03482-4.83305,1.7436-9.70524,5.08531-14.50252-11.44684-2.87635-21.53582-8.96395-30.02038-18.11911-8.79436-9.47276-15.10476-21.32282-18.75732-35.21877-3.71662-14.15138-4.30803-29.10498-1.7578-44.44453,2.28503-13.52642,6.91706-26.55812,13.80035-38.85503-2.83289,2.06549-5.27234,3.65582-7.29313,4.75268-4.86682,2.73724-8.28017,3.16446-10.41414,1.28926-3.135-2.76219-.0141-7.72464,2.60461-11.21743,2.70897-3.63182,6.26591-7.38873,10.60002-11.19782-12.23706-1.55888-21.12493-7.75085-26.45482-18.44637-5.17546-10.35103-6.00061-22.10008-2.45135-34.91876,3.56556-13.03927,10.28801-22.01088,19.97589-26.66237,10.58698-5.10708,22.30984-3.33624,34.87847,5.26025,4.79718-21.22813,8.31825-36.61881,10.47168-45.76967,3.6634-15.80273,7.00942-28.43218,9.94235-37.53095,4.32538-13.58828,9.63791-25.10793,15.78852-34.23387.55974-.83156,1.12726-1.64356,1.7012-2.4383l2.70676,1.95672c-.55217.76424-1.09791,1.54583-1.63819,2.34815-5.97336,8.86168-11.14672,20.09437-15.37764,33.38589-2.90673,9.01611-6.22772,21.55434-9.87155,37.27217-2.23391,9.49443-5.94085,25.70581-11.01848,48.19061l-.56311,2.49374-2.05676-1.51753c-12.44902-9.18347-23.41102-11.28265-33.51526-6.40823-8.77911,4.21451-14.90363,12.4708-18.204,24.53944-3.3232,12.00329-2.57632,22.95005,2.21981,32.54126,5.39721,10.83145,14.45361,16.37446,27.68749,16.94398l4.37872.18922-3.39378,2.772c-5.54627,4.53199-9.96402,8.98242-13.13173,13.23062-3.36454,4.48633-3.48194,6.35069-3.07315,6.71046.32179.28266,1.76537,1.00987,6.59306-1.70562,3.40357-1.8469,8.09208-5.19724,13.95783-9.9694l2.45029,2.20889c-9.25416,14.13613-15.31241,29.38985-18.00613,45.33816-2.47196,14.86776-1.90234,29.35071,1.69468,43.0445,3.51013,13.3578,9.5586,24.72858,17.97573,33.7957,8.62373,9.30634,18.98012,15.26129,30.78241,17.70075l2.66763.55111-1.70236,2.12628c-3.89598,4.87115-5.88857,9.7673-5.92224,14.55356-.06638,4.05367,1.04679,6.88655,3.40251,8.67696,2.18605,1.69037,4.2123,1.60558,6.58317-.25973,3.07315-2.40464,5.30169-7.19646,6.62788-14.24816l.79359-4.21461,2.26536,3.64057c10.86416,17.45607,26.19499,29.46496,45.56759,35.69383,18.34317,5.90593,41.80742,7.10178,69.74169,3.55031,40.86161-7.329,68.51228-21.06402,82.0994-40.81059l1.61105-2.34152,1.26097,2.54812c1.69479,3.42744,2.94166,5.71027,3.70589,6.78651,2.08716,3.0155,4.32644,4.78959,6.66691,5.2897,1.27401.26299,2.57632-.17178,3.99497-1.3306,1.57623-1.32513,2.63617-3.09924,3.22095-5.40594,1.62736-6.23542-1.01092-12.29796-8.06052-18.5443l-2.53613-2.248,3.32751-.64137c10.93906-2.10894,20.74224-7.85182,29.13654-17.07232,8.23451-9.09984,14.17421-20.49334,17.65173-33.85989,3.63299-13.97969,4.12867-28.55174,1.4763-43.30863-2.9101-16.1505-9.46182-31.40968-19.47149-45.35121l2.39149-2.28398c6.39635,5.0527,11.61967,8.52148,15.52333,10.31189,3.47752,1.59906,4.37651,1.21645,4.41343,1.20016h0c-.03261,0,.42509-1.30346-2.87633-6.20826-2.67751-4.05261-6.78115-8.83244-12.20339-14.21881l-2.39044-2.37413,3.33614-.46422c4.06787-.56637,8.33129-1.95346,12.67414-4.12541,4.66127-2.34804,8.70189-5.30485,12.00331-8.78342,8.0823-8.54105,9.95539-17.86696,5.72668-28.51263-4.04062-10.11834-13.08503-17.14406-26.88096-20.87709-7.88117-2.10454-18.24955-3.17203-30.81713-3.17203-.21091,0-.42067,0-.6338.00105l-1.3164.00326-13.39051-55.15438,3.24598-.78917,12.76976,52.60089c12.55779.03808,22.98382,1.14252,31.00847,3.28512,14.86997,4.02432,24.66441,11.7174,29.11708,22.86632,4.69283,11.81428,2.53824,22.59471-6.40497,32.04556-3.56883,3.7602-7.91819,6.94643-12.92955,9.47162-3.56672,1.78283-7.09747,3.07641-10.53806,3.86232,4.49832,4.64286,7.99109,8.83349,10.40215,12.48174,3.04275,4.52325,3.99602,7.45828,3.07967,9.50631-1.72414,3.64057-7.04087,1.19259-8.78889.38922-2.41116-1.10559-5.26582-2.78944-8.53242-5.03313,7.3594,12.12944,12.31648,25.11885,14.76993,38.73101,2.73832,15.23636,2.22307,30.28884-1.53058,44.74034-3.61553,13.89376-9.80959,25.75801-18.41155,35.26432-8.09871,8.89438-17.46375,14.73953-27.87778,17.41157,6.23866,6.38646,8.51601,12.99582,6.77136,19.68123-.74898,2.95577-2.20466,5.36472-4.32549,7.1464-2.23717,1.82628-4.52431,2.50026-6.81376,2.02625-3.2079-.68597-6.13641-2.91872-8.71273-6.64082-.65231-.91866-1.55014-2.48722-2.72201-4.75921-14.60582,19.29644-42.41186,32.73366-82.71479,39.96052-10.64231,1.35333-20.64987,2.02952-29.99093,2.02952Z"/>
      </g>
    </g>
    <g id="Layer2_31_MEMBER_0_FILL" data-name="Layer2 31 MEMBER 0 FILL">
      <path d="M349.80773,451.21144l2.78281,1.83669c2.78986-4.2998,3.5319-8.25154,2.22633-11.85508-.57973,2.81648-2.24937,6.15598-5.00915,10.01838Z"/>
    </g>
    <g id="Layer2_31_MEMBER_1_FILL" data-name="Layer2 31 MEMBER 1 FILL">
      <path d="M364.83528,437.57531l1.83669-2.78292c-3.862-2.5051-7.47974-2.98742-10.85333-1.44705l.38964.05563c2.52624.68673,5.40184,2.07824,8.62699,4.17434Z"/>
    </g>
    <g id="Layer2_31_MEMBER_2_FILL" data-name="Layer2 31 MEMBER 2 FILL">
      <path d="M149.88522,443.0854l-.27824.05565c-.64726,3.12259-.29486,6.46209,1.05752,10.0184l3.56209-.61223c-1.73224-2.73032-3.1794-5.88426-4.34137-9.46182Z"/>
    </g>
  </g>
  <g>
    <g id="Layer2_0_1_STROKES" data-name="Layer2 0 1 STROKES">
      <path d="M211.33159,196.80055c-.12066,0-.24237-.03913-.34462-.11963-.24132-.19017-.28266-.5391-.09236-.78159l7.40179-9.40635c.19135-.24026.54133-.2815.78159-.09236.24132.18914.28266.53912.09247.78159l-7.4019,9.40638c-.10972.13917-.27287.21197-.43698.21197Z"/>
    </g>
    <g>
      <g id="Layer2_30_FILL" data-name="Layer2 30 FILL">
        <path d="M236.32168,55.42964c-8.57135-11.50259-15.02765-25.12022-19.36892-40.85278-1.26149-4.52683-3.15394-5.84408-5.67703-3.95173-22.63416,19.66578-31.87338,43.95107-27.71757,72.85597l123.61575-12.13344c2.56033-8.49697.66788-18.29278-5.67713-29.38722-6.38215-11.1686-17.12397-23.39482-32.22578-36.67845-2.70865-2.3005-3.85885-.55648-3.45069,5.23184,1.70678,26.41884-.35261,41.24242-6.17807,44.47052-6.82743,2.63438-14.60077,2.78281-23.32055.44529Z" style="fill: #ed2f26;"/>
      </g>
      <g id="Layer2_30_1_STROKES" data-name="Layer2 30 1 STROKES">
        <path d="M182.13309,85.29813l-.22722-1.57949c-4.22324-29.36807,5.29075-54.38415,28.27563-74.35404l.09236-.07553c1.83827-1.37794,3.33834-1.28989,4.27436-.97189,1.77842.60497,3.09156,2.50573,4.01348,5.81147,4.20799,15.25046,10.51618,28.64791,18.7529,39.83492,8.05621,2.06707,15.3243,1.90128,21.61083-.49294,3.53727-2.08064,7.2703-11.24465,5.22879-42.84937-.32074-4.53967.26309-6.84532,1.9502-7.69971,1.23488-.62612,2.66216-.25815,4.24712,1.08813,15.19281,13.36222,26.15154,25.84553,32.59565,37.12216,6.55067,11.45494,8.51065,21.78313,5.82556,30.69762l-.32284,1.07077-126.31682,12.3979ZM212.32305,11.92733c-21.62503,18.8116-30.81292,42.26449-27.32667,69.73464l120.8728-11.86372c1.94483-7.77029-.01084-16.84952-5.82114-27.00919-6.26149-10.956-16.98648-23.1534-31.87927-36.25305-.22291-.18914-.40111-.31579-.53807-.40111-.14464.51629-.32505,1.70562-.14464,4.26132,1.79367,27.76575-.44129,42.39493-7.03551,46.04854l-.20755.0973c-7.13229,2.75189-15.32767,2.92093-24.35356.49999l-.55984-.15001-.34672-.46464c-8.65519-11.61483-15.26245-25.54552-19.64001-41.40631-.86964-3.12038-1.76979-3.50792-1.86973-3.54221-.23153-.07721-.65883.08805-1.15009.44844Z" style="fill: #9a1c20;"/>
      </g>
    </g>
    <g>
      <g id="Layer2_30_MEMBER_0_FILL" data-name="Layer2 30 MEMBER 0 FILL">
        <path d="M268.04653,50.97697c-16.62314-17.36518-28.75647-18.84937-36.40011-4.45256-3.56209,6.49334-9.77719,12.68992-18.64529,18.58964l41.18666-5.23184c9.16496-1.00187,13.78447-3.97025,13.85873-8.90523Z" style="fill: #ed2f26;"/>
      </g>
      <g id="Layer2_30_MEMBER_0_1_STROKES" data-name="Layer2 30 MEMBER 0 1 STROKES">
        <path d="M213.21226,66.77076l-1.13599-3.04706c8.59975-5.72121,14.69166-11.7783,18.10617-18.00287,3.32856-6.26959,7.60503-9.81727,12.70012-10.52386,7.33878-1.02175,15.9744,3.76344,26.37108,14.62539l.47285.49462-.00978.68534c-.09015,5.89036-5.25267,9.43636-15.34713,10.53964l-41.15732,5.22879ZM244.80992,38.40551c-.50009,0-.9903.03314-1.46967.09941-3.97214.55059-7.41053,3.51234-10.21848,8.80256-2.90789,5.30106-7.53655,10.4336-13.80456,15.32104l34.65988-4.40312c7.71927-.84355,11.86099-3.07041,12.3513-6.62567-8.50518-8.76501-15.73204-13.19422-21.51846-13.19422Z" style="fill: #9a1c20;"/>
      </g>
    </g>
    <g id="Layer2_30_MEMBER_0_MEMBER_0_FILL" data-name="Layer2 30 MEMBER 0 MEMBER 0 FILL">
      <path d="M252.79639,47.97147v-.05565c-3.3395-3.97025-6.66049-5.34314-9.96275-4.11868-2.74578.96474-5.91824,4.10016-9.51746,9.40617,3.63626-4.19284,6.93862-6.82733,9.907-7.90336,3.00551-1.07614,6.19658-.18556,9.57322,2.67152Z" style="fill: #9a1c20;"/>
      <path d="M252.79639,47.91582v.05565c0,.07427.03703.1113.11119.1113l-.11119-.16694Z"/>
    </g>
    <g id="Layer2_30_MEMBER_1_FILL" data-name="Layer2 30 MEMBER 1 FILL">
      <path d="M222.5186,54.09378c-6.70215-2.62628-13.41818-1.10496-20.1481,4.56396l-.27834.33389c7.32269-4.24659,14.1314-5.87921,20.42644-4.89785M191.12764,44.85466c4.15581-3.93322,9.53598-5.23184,16.14072-3.89609,3.63626.70501,10.35239,3.22821,20.1481,7.56947l-.22259-.22259c-8.8682-5.04639-16.01091-8.01476-21.42831-8.90523-6.71593-1.11317-11.59526.70501-14.63791,5.45444Z" style="fill: #9a1c20;"/>
    </g>
    <g id="Layer2_30_MEMBER_2_FILL" data-name="Layer2 30 MEMBER 2 FILL">
      <path d="M266.82207,44.13113l-.05565-.05575-.05565.1114c.03713,0,.07416-.01862.1113-.05565Z"/>
      <path d="M266.82207,44.13113c11.24276-4.30424,18.3114-11.0573,21.20551-20.25939l-1.00177.1113c-3.6372,6.66585-10.39026,13.36337-20.25939,20.09234l.05565.05575Z" style="fill: #9a1c20;"/>
    </g>
    <g id="Symbol_6_0_Layer1_0_FILL" data-name="Symbol 6 0 Layer1 0 FILL">
      <path d="M342.12696,147.8214l-.16705-1.50281-163.29961,6.51196-.33399,1.00187c-3.70905,10.13496-5.4901,24.56879-5.34314,43.3017.15137,18.5382,1.5613,36.1631,4.22997,52.87482l.05565.1113.05575.16694c13.17223,36.65983,28.77499,65.11955,46.80804,85.37894,7.86633,8.8681,15.71405,15.82534,23.54325,20.87162,7.38391,4.78656,13.97003,7.42094,19.75846,7.90336,11.28,1.07603,22.44859-5.47305,33.50589-19.64716,9.98127-12.87548,18.7752-30.48187,26.38181-52.81917,6.64177-19.51725,11.65102-43.63559,15.02755-72.35493,2.89421-24.60077,2.81995-48.53355-.22259-71.79845M340.12322,149.76939c2.62765,21.14008,2.44219,44.27507-.55658,69.40517-2.87791,24.50125-8.03559,47.65486-15.47284,69.46082-7.43735,21.99289-16.04573,39.26529-25.82512,51.8173-10.14842,13.0581-20.35228,19.19893-30.61179,18.4227-5.27655-.48347-11.34322-2.9324-18.2-7.34688-7.55001-4.90848-15.17514-11.68016-22.87537-20.31504-19.18336-21.55802-34.71184-48.8303-46.58545-81.81674-3.04264-18.8495-4.63813-36.2703-4.78656-52.26258-.14843-15.39867,1.79956-29.09046,5.84408-41.07537l159.06963-6.28936Z" style="fill: #be6e35;"/>
      <path d="M339.56664,219.17456c2.99878-25.1301,3.18424-48.26509.55658-69.40517l-159.06963,6.28936c-4.04451,11.9849-5.99251,25.67669-5.84408,41.07537.14843,15.99229,1.74391,33.41309,4.78656,52.26258,11.87361,32.98644,27.40209,60.25873,46.58545,81.81674,7.70023,8.63488,15.32535,15.40656,22.87537,20.31504,6.85678,4.41448,12.92345,6.86341,18.2,7.34688,10.25951.77623,20.46336-5.3646,30.61179-18.4227,9.7794-12.55201,18.38777-29.8244,25.82512-51.8173,7.43725-21.80596,12.59493-44.95957,15.47284-69.46082Z" style="fill: url(#linear-gradient);"/>
    </g>
    <g>
      <g id="Layer2_41_FILL" data-name="Layer2 41 FILL">
        <path d="M175.98869,228.58073l1.55846-54.43327-11.07581,4.56396v43.41287l9.51736,6.45644Z" style="fill: #281410;"/>
      </g>
      <g id="Layer2_41_1_STROKES" data-name="Layer2 41 1 STROKES">
        <rect x="149.53987" y="199.69471" width="54.45598" height="3.33866" transform="translate(-29.57634 372.29218) rotate(-88.35878)"/>
      </g>
    </g>
    <g id="Layer2_42_FILL" data-name="Layer2 42 FILL">
      <path d="M310.89148,264.7067c6.24665,0,11.57612-2.31522,15.98818-6.94569,4.41196-4.58677,6.61799-10.15639,6.61799-16.70895s-2.20603-12.14396-6.61799-16.77443c-4.41206-4.58677-9.74153-6.88022-15.98818-6.88022s-11.57612,2.29345-15.98818,6.88022c-4.41217,4.63047-6.6181,10.22187-6.6181,16.77443s2.20593,12.12218,6.6181,16.70895c4.41206,4.63047,9.74142,6.94569,15.98818,6.94569Z" style="fill: url(#radial-gradient);"/>
    </g>
    <g id="Layer2_47_FILL" data-name="Layer2 47 FILL">
      <path d="M249.56818,222.95925c-5.97389-6.19658-13.19085-9.29477-21.6509-9.29477s-15.67681,3.09819-21.6508,9.29477c-5.97389,6.27074-8.96099,13.84022-8.96088,22.70832-.00011,8.86818,2.987,16.40055,8.96088,22.59702,5.97399,6.27085,13.19085,9.40617,21.6508,9.40617s15.67702-3.13532,21.6509-9.40617c5.93675-6.19648,8.90523-13.72884,8.90523-22.59702s-2.96848-16.43757-8.90523-22.70832Z" style="fill: url(#radial-gradient-2);"/>
    </g>
    <g>
      <g id="Symbol_9_0_Layer4_0_FILL" data-name="Symbol 9 0 Layer4 0 FILL">
        <path d="M171.59177,84.70557c-2.47123,2.09232-4.75321,4.35579-6.84584,6.79019h0c-2.91536,3.49961-5.80957,7.7482-8.68264,12.74557,3.63804,2.22097,6.01281,8.80719,7.12419,19.75859,1.29873,5.08341,3.02402,9.42468,5.1762,13.02391.33389-.66798.70501-1.33586,1.11317-2.00374,2.67152-4.93499,4.74942-7.79207,6.23361-8.57124-.1113.22259-.20408.44529-.27824.66788-.1114.14843-.20408.31537-.27834.50091-.33389.66791-.63075,1.33578-.89047,2.00366-1.96661,4.19294-3.61774,8.08892-4.95361,11.68815-3.78468,10.16683-5.17609,18.07019-4.17432,23.71019,1.2616,6.82733,5.04639,11.59526,11.35416,14.30402,6.27085,2.63438,13.11669,2.59736,20.53774-.1114,4.04441-1.48421,7.92198-3.82182,11.6324-7.01279,3.4913-2.93819,6.45967-6.27758,8.90523-10.0184.19587-.27729.38143-.55553.55658-.83495l.44529.27837.94622-.55658c.20608.33712.41015.67104.61223,1.00187l.05565-.2227c.30117.10391.59803.21523.89047.33399,2.77513.91338,6.15166,1.2474,10.1297,1.00187h0c1.11317-.03713,3.07978-.51956,5.89972-1.44716,2.67162-.9276,4.06303-1.41005,4.17432-1.44705,3.4508,2.41179,7.68077,4.50821,12.69002,6.28926,9.94413,3.63636,18.73807,3.98887,26.38171,1.05752,2.26336-.81631,4.8422-2.44893,7.73642-4.89785,1.44705-1.22446,2.70865-2.33763,3.78468-3.3395l6.9016,2.33763c5.04628,1.66975,8.57124,2.74578,10.57498,3.22821,6.05762,1.41034,11.71624,2.09684,16.97554,2.05929,5.34314-.03713,11.37278-1.0389,18.08881-3.00551,6.64177-1.96661,11.5211-4.17432,14.63791-6.62325,3.59923-2.82005,6.66038-6.40066,9.18358-10.74195,3.00551-5.23182,4.56386-10.57496,4.67526-16.02939.18546-8.42292-2.89421-18.01457-9.23923-28.77512-11.66364-19.90626-30.92116-34.30306-57.77267-43.1903-10.36565-3.42976-21.10758-5.74887-32.22578-6.95724-9.54566-1.02228-17.89431-1.09644-25.04595-.22259-14.43499,1.79199-28.10816,5.44686-41.01972,10.96452-13.09471,5.63306-25.09813,13.0541-36.01057,22.26314Z" style="fill: #281410;"/>
        <path d="M164.74593,91.49576c2.09263-2.43441,4.37462-4.69788,6.84584-6.79019,10.91245-9.20903,22.91587-16.63008,36.01057-22.26314,12.91156-5.51766,26.58473-9.17253,41.01972-10.96452,7.15164-.87385,15.50029-.79969,25.04595.22259,11.11821,1.20837,21.86014,3.52748,32.22578,6.95724,26.85151,8.88725,46.10903,23.28405,57.77267,43.1903,6.34501,10.76055,9.42468,20.3522,9.23923,28.77512-.1114,5.45444-1.66975,10.79758-4.67526,16.02939-2.52319,4.34129-5.58435,7.9219-9.18358,10.74195-3.11681,2.44893-7.99614,4.65664-14.63791,6.62325-6.71603,1.96661-12.74567,2.96838-18.08881,3.00551-5.2593.03755-10.91792-.64894-16.97554-2.05929-2.00374-.48242-5.5287-1.55846-10.57498-3.22821l-6.9016-2.33763c-1.07603,1.00187-2.33763,2.11504-3.78468,3.3395-2.89421,2.44893-5.47306,4.08154-7.73642,4.89785-7.64364,2.93135-16.43757,2.57884-26.38171-1.05752-5.00925-1.78105-9.23923-3.87747-12.69002-6.28926-.1113.037-1.5027.51945-4.17432,1.44705-2.81995.9276-4.78656,1.41003-5.89972,1.44716h0c-3.97803.24552-7.35456-.08849-10.1297-1.00187-.29244-.11876-.5893-.23009-.89047-.33399l-.05565.2227c-.20208-.33084-.40616-.66475-.61223-1.00187l-.94622.55658-.44529-.27837c-.17515.27942-.36071.55766-.55658.83495-2.44556,3.74082-5.41394,7.08022-8.90523,10.0184-3.71042,3.19097-7.58799,5.52857-11.6324,7.01279-7.42105,2.70876-14.26689,2.74578-20.53774.1114-6.30777-2.70876-10.09256-7.47669-11.35416-14.30402-1.00177-5.64.38964-13.54336,4.17432-23.71019,1.33586-3.59923,2.987-7.49521,4.95361-11.68815.25973-.66788.55658-1.33576.89047-2.00366.07427-.18554.16694-.35248.27834-.50091.07416-.22259.16694-.44529.27824-.66788-1.48419.77918-3.56209,3.63626-6.23361,8.57124-.40815.66788-.77928,1.33576-1.11317,2.00374-5.93686,10.79758-8.10754,20.33355-6.51196,28.60804,1.44705,7.97752,5.8811,13.56187,13.30215,16.75295h.05565c6.97576,2.96838,14.61939,2.94984,22.93102-.05565h.05565c4.3784-1.59559,8.58986-4.10016,12.63427-7.51383,2.44893-2.04077,5.38027-5.49157,8.79394-10.35231l.27824.11132h.1114l.05565.05565c4.45256,1.44705,8.21873,2.07788,11.29851,1.89234,1.66965-.07416,3.82182-.64937,6.45631-1.7254l3.45069-1.614c3.89609,2.56022,8.49708,4.76794,13.80319,6.62325,10.57488,3.78468,19.44308,4.08154,26.6043.89047,2.85708-1.22446,6.38215-4.08154,10.57498-8.57124,1.92948.74204,4.71239,1.83669,8.34865,3.28375,3.15394,1.22446,5.80694,2.07791,7.95901,2.56033,6.93873,1.63262,12.85697,2.43031,17.75482,2.39328,5.45444-.03713,11.76231-1.13179,18.92363-3.28385,6.86446-2.07791,12.02204-4.34127,15.47284-6.79019,4.04451-2.89421,7.73642-7.2541,11.07592-13.07956,3.45069-6.04815,5.23174-11.53972,5.34314-16.47471.29675-9.72154-2.78292-20.09248-9.23923-31.11264-5.93686-10.20396-14.13708-19.1092-24.60066-26.7157-10.16683-7.38391-22.26314-13.39493-36.28881-18.03316-8.68264-2.89411-19.68429-5.0648-33.00506-6.51185h0c-9.82337-1.05563-18.41323-1.12989-25.76948-.2227-14.76698,1.84427-28.75563,5.59192-41.96595,11.24286-13.3984,5.75813-25.68017,13.34612-36.84529,22.76397-2.6125,2.21182-5.0243,4.6051-7.23559,7.17983v.05565c-3.06231,3.65866-6.10496,8.11133-9.12782,13.3579l2.89421,1.66975c.03303-.05744.07016-.11308.1113-.16705,2.87307-4.99737,5.76728-9.24596,8.68264-12.74557h0Z"/>
      </g>
      <g id="Symbol_9_0_Layer4_1_FILL" data-name="Symbol 9 0 Layer4 1 FILL">
        <path d="M228.25127,148.21094v.05565c-.22259-.66788-.68639-1.22446-1.39141-1.66965-.74215-.51956-1.55846-.81631-2.44893-.89058h-.1113c-2.44893-.03713-4.47118.42677-6.06667,1.39141-1.52132.89058-2.56033,2.17069-3.11691,3.84041v-.05562c-1.0572,2.47649-.31506,6.00145,2.22633,10.57498v.05565c.36124.60295.73226,1.19659,1.11317,1.78105l.83482,1.44705c5.23184-6.71603,8.14457-10.87174,8.73829-12.46733.63075-1.70678.70501-3.06116.22259-4.06303M225.69105,149.04586v.05562c.21449.58154.14033,1.37923-.22259,2.3933h0c-.78927,2.13671-2.75578,5.36492-5.89972,9.68441-.0912-.38333-.18399-.64308-.27834-.77918h0c-2.09726-3.77637-2.80227-6.67048-2.11493-8.68264h.05565c.90699-2.23791,3.2261-3.35107,6.95724-3.3394.78454.06312,1.28548.28581,1.5027.66788M252.23981,141.30945h.05565c-2.50521,1.92874-4.76857,4.37767-6.7903,7.34678-2.47459,3.71589-4.18137,7.83456-5.12044,12.35603l-.44529,2.17069,2.00364-.94622c6.49344-2.85708,11.9665-6.15945,16.41906-9.9071,3.93311-3.22813,5.82546-6.38204,5.67713-9.46182-.1114-2.48595-1.11317-3.93311-3.00551-4.34127-1.9705-.71038-4.53083-.0425-7.68077,2.00364-.36187.24921-.73289.50893-1.11317.77928M253.13028,143.31308c.2227-.22259.51945-.44529.89058-.66788,1.18733-.77918,2.11493-1.2616,2.78281-1.44705.66798-.18556,1.37289-.16705,2.11504.05565l.05565.05565h.05565c1.22446.37102,1.63262,1.70678,1.22446,4.00728-1.07603,2.04088-2.67152,4.00738-4.78656,5.89972-3.48783,3.07978-7.79207,5.91834-12.91261,8.5157,1.28379-3.69001,2.87928-6.97376,4.78656-9.85146,2.07791-3.00551,3.98887-5.19471,5.73278-6.5676h.05565M303.38922,141.2538h-.05565c-.63085.037-1.29873.20408-2.00374.50091-1.44705.48234-3.00551,1.40995-4.67526,2.78284-2.70865,2.1892-4.60099,4.58248-5.67703,7.17983v.05565c-1.33576,3.19107-1.24308,6.3265.27824,9.40617l.61223,1.33576,1.11317-1.00177c2.4119-2.04077,4.4897-3.89609,6.23372-5.56584,4.45256-4.267,6.95714-7.56937,7.51372-9.90703l-.05565.05567c.48242-1.59559.4638-2.7643-.05565-3.50645-.44529-1.03893-1.52132-1.48419-3.2281-1.33576M302.88829,143.48003l.72353.2227c.40815.33389.50094.90906.27834,1.72537v.05567c-.48242,1.66975-1.39151,3.43218-2.72727,5.28749-2.04077,2.85708-4.86082,5.54722-8.45995,8.07031-.66788-2.07791-.55658-4.15571.33389-6.23361,1.18743-2.82005,2.63449-4.93501,4.34137-6.34501,1.44705-1.22446,2.78281-2.02226,4.00728-2.39328h.05565c.44529-.18556.92771-.31537,1.44716-.38964Z"/>
      </g>
      <g style="mask: url(#mask);">
        <g id="Symbol_9_0_Layer3_0_MEMBER_0_FILL" data-name="Symbol 9 0 Layer3 0 MEMBER 0 FILL">
          <path d="M339.12145,75.41069l-17.97741-13.13521c-14.68882,4.4836-29.38259,11.40371-44.08098,20.76033-14.69534,9.38965-25.21468,13.69379-31.5579,12.91261-5.45433-.66798-11.39119-3.78479-17.81047-9.35052-7.38391-6.45631-13.33918-10.50072-17.86601-12.13344-8.49718-3.07967-17.16121-2.94986-25.99217.38964-11.48407,8.18171-21.52099,17.17972-30.11085,26.99394l22.48573-7.56937c10.87542-4.93414,19.00148-6.56676,24.37807-4.89796,5.37659,1.70594,13.78089,5.9174,25.21289,12.63438,11.79724,5.93275,21.87139,8.34455,30.22215,7.23548,8.35507-1.10118,19.72785-6.18448,34.11813-15.25025,14.38828-9.03262,30.71456-15.2291,48.97884-18.58964Z" style="fill: #49241b;"/>
        </g>
      </g>
      <g id="Symbol_9_0_Layer1_0_FILL" data-name="Symbol 9 0 Layer1 0 FILL">
        <path d="M274.0019,48.36111h0c-9.82337-1.05563-18.41323-1.12989-25.76948-.2227-14.76698,1.84427-28.75563,5.59192-41.96595,11.24286-13.3984,5.75813-25.68017,13.34612-36.84529,22.76397-2.6125,2.21182-5.0243,4.6051-7.23559,7.17983v.05565c-3.06231,3.65866-6.10496,8.11133-9.12782,13.3579l2.89421,1.66975c.03303-.05744.07016-.11308.1113-.16705,2.87307-4.99737,5.76728-9.24596,8.68264-12.74557h0c2.09263-2.43441,4.37462-4.69788,6.84584-6.79019,10.91245-9.20903,22.91587-16.63008,36.01057-22.26314,12.91156-5.51766,26.58473-9.17253,41.01972-10.96452,7.15164-.87385,15.50029-.79969,25.04595.22259,11.11821,1.20837,21.86014,3.52748,32.22578,6.95724,26.85151,8.88725,46.10903,23.28405,57.77267,43.1903,6.34501,10.76055,9.42468,20.3522,9.23923,28.77512-.1114,5.45444-1.66975,10.79758-4.67526,16.02939-2.52319,4.34129-5.58435,7.9219-9.18358,10.74195-3.11681,2.44893-7.99614,4.65664-14.63791,6.62325-6.71603,1.96661-12.74567,2.96838-18.08881,3.00551-5.2593.03755-10.91792-.64894-16.97554-2.05929-4.85483-1.13336-9.95686-2.71033-15.30589-4.73091l-2.17069-.83493c-.29823-.03471-.59508.03945-.89047.2227h-.1113l-1.50281,1.44705.05565.1113c-3.15394,3.30237-6.17796,5.45444-9.07218,6.45631-7.7179,2.70865-16.54887,2.3005-26.49311-1.22446-4.97201-1.78105-9.16496-3.82182-12.57862-6.12231-.1113.037-1.5027.51945-4.17432,1.44705-2.81995.9276-4.78656,1.41003-5.89972,1.44716h0c-3.97803.24552-7.35456-.08849-10.1297-1.00187-.29244-.11876-.5893-.23009-.89047-.33399l-.05565.2227c-.20208-.33084-.40616-.66475-.61223-1.00187l-.94622.55658-.44529-.27837c-.17515.27942-.36071.55766-.55658.83495-2.44556,3.74082-5.41394,7.08022-8.90523,10.0184-3.71042,3.19097-7.58799,5.52857-11.6324,7.01279-7.42105,2.70876-14.26689,2.74578-20.53774.1114-6.30777-2.70876-10.09256-7.47669-11.35416-14.30402-1.00177-5.64.38964-13.54336,4.17432-23.71019,1.33586-3.59923,2.987-7.49521,4.95361-11.68815.25973-.66788.55658-1.33576.89047-2.00366.07427-.18554.16694-.35248.27834-.50091.07416-.22259.16694-.44529.27824-.66788-1.48419.77918-3.56209,3.63626-6.23361,8.57124-.40815.66788-.77928,1.33576-1.11317,2.00374-5.93686,10.79758-8.10754,20.33355-6.51196,28.60804,1.44705,7.97752,5.8811,13.56187,13.30215,16.75295h.05565c6.97576,2.96838,14.61939,2.94984,22.93102-.05565h.05565c4.3784-1.59559,8.58986-4.10016,12.63427-7.51383,2.44893-2.04077,5.38027-5.49157,8.79394-10.35231l.27824.11132h.1114l.05565.05565c4.45256,1.44705,8.21873,2.07788,11.29851,1.89234,1.66965-.07416,3.82182-.64937,6.45631-1.7254l3.45069-1.614c3.89609,2.56022,8.49708,4.76794,13.80319,6.62325,10.57488,3.78468,19.44308,4.08154,26.6043.89047,2.85708-1.22446,6.38215-4.08154,10.57498-8.57124,1.92948.74204,4.71239,1.83669,8.34865,3.28375,3.15394,1.22446,5.80694,2.07791,7.95901,2.56033,6.93873,1.63262,12.85697,2.43031,17.75482,2.39328,5.45444-.03713,11.76231-1.13179,18.92363-3.28385,6.86446-2.07791,12.02204-4.34127,15.47284-6.79019,4.04451-2.89421,7.73642-7.2541,11.07592-13.07956,3.45069-6.04815,5.23174-11.53972,5.34314-16.47471.29675-9.72154-2.78292-20.09248-9.23923-31.11264-5.93686-10.20396-14.13708-19.1092-24.60066-26.7157-10.16683-7.38391-22.26314-13.39493-36.28881-18.03316-8.68264-2.89411-19.68429-5.0648-33.00506-6.51185Z"/>
      </g>
      <g id="Symbol_9_0_Layer0_0_FILL" data-name="Symbol 9 0 Layer0 0 FILL">
        <path d="M246.34008,54.70601l-5.45444,1.16882c-20.31599,12.5661-33.30276,33.1779-38.96033,61.83572h.33389c6.73549-27.66753,21.42905-48.66896,44.08088-63.00454M249.0117,52.31273l-.77928,2.05939c25.34281,9.68441,38.42237,35.13851,39.23867,76.36234h.44529c.48232-42.41115-12.48584-68.55176-38.90468-78.42173M259.64223,51.47791l-2.56022,1.22446c47.88523,2.95302,77.49515,21.32007,88.82964,55.10115l.27834-.05565c-10.29769-35.19763-39.14695-53.95422-86.54776-56.26997Z"/>
      </g>
    </g>
    <g>
      <g id="Layer2_50_MEMBER_1_FILL" data-name="Layer2 50 MEMBER 1 FILL">
        <path d="M281.84961,215.83506c-1.28243-3.63657-2.11725-7.29145-2.50457-10.96462l-7.40243.16705c-.51945,3.85895-1.46567,7.53234-2.83857,11.02025,4.45246-1.07601,8.70116-1.15028,12.74557-.22267Z"/>
      </g>
      <g id="Layer2_50_MEMBER_1_1_STROKES" data-name="Layer2 50 MEMBER 1 1 STROKES">
        <path d="M269.11015,216.08508l-.01304-.05436c4.43626-1.07298,8.72809-1.14578,12.75882-.22291l-.01304.05439c-4.02095-.92077-8.303-.84787-12.73273.22288ZM271.94409,205.06547l-.0021-.05649,7.40179-.16631.00221.05649-7.4019.16631Z"/>
      </g>
    </g>
    <g>
      <g id="Layer2_50_MEMBER_2_FILL" data-name="Layer2 50 MEMBER 2 FILL">
        <path d="M192.40775,217.78315l-4.17432-11.57688-24.15548,14.19275v6.12231l28.3298-8.73818Z"/>
      </g>
      <g id="Layer2_50_MEMBER_2_1_STROKES" data-name="Layer2 50 MEMBER 2 1 STROKES">
        <path d="M163.52146,227.27527v-7.1953l25.00787-14.69377,4.21777,11.69678.15222-.05115.35219,1.0567-1.1827.39458-.00431-.01199-28.54303,8.80414ZM164.63463,220.71703v5.04944l27.05159-8.34318-3.74829-10.39784-23.3033,13.69158Z"/>
      </g>
    </g>
    <g>
      <g id="Layer2_51_FILL" data-name="Layer2 51 FILL">
        <path d="M178.60466,272.38326c-.03713-8.05181-1.57707-13.00529-4.61961-14.8606-.51945-.44529-1.16882-.74206-1.94799-.89058,1.0389,3.00559,1.6141,7.03151,1.7254,12.07779.14832,6.04815-.72363,10.05553-2.61597,12.02204,1.00187-.03703,1.46567,1.22457,1.39141,3.78479-.03703,2.7829.07427,4.28562.33399,4.50821,3.82182-2.81995,5.73278-8.36716,5.73278-16.64165Z" style="fill: #e5252a;"/>
      </g>
      <g id="Layer2_51_1_STROKES" data-name="Layer2 51 1 STROKES">
        <path d="M173.86376,290.36846l-1.98281-2.68719c3.3536-2.47417,5.05375-7.62144,5.05375-15.29824-.02504-5.47556-.77833-9.46285-2.19804-11.74251.39574,2.33942.62833,5.02451.69576,8.03231.15979,6.57026-.84797,10.89459-3.08293,13.21654l-2.40674-2.31543c1.07509-1.11643,2.31975-3.90042,2.15017-10.82282-.10761-4.85367-.65662-8.74649-1.63388-11.57288l-.94023-2.7242,2.83068.53817c1.01534.1924,1.89476.58804,2.6165,1.17397,3.5319,2.24159,5.26793,7.54644,5.30822,16.2092,0,8.80309-2.1568,14.85366-6.41044,17.99308Z" style="fill: #9a1c20;"/>
      </g>
    </g>
    <g>
      <g id="Layer2_52_FILL" data-name="Layer2 52 FILL">
        <path d="M178.82725,259.35935c1.81808-2.67162,2.61597-7.16121,2.39328-13.46909-.25973-.48242-.70501-3.71065-1.33576-9.68451-.66788-6.01094-1.00187-9.03504-1.00187-9.07218-2.00364-4.93499-4.89785-8.7568-8.68254-11.46545-3.19107-2.26347-6.41928-3.41366-9.68451-3.4508-2.96838-.07427-5.78832.50094-8.45995,1.7254-2.89411,1.29871-5.30601,3.20959-7.23548,5.73278-3.78479,4.93488-5.45444,10.31524-5.00915,16.14072.40805,5.15758,2.37466,10.11108,5.89962,14.8606,3.3395,4.45256,7.40243,7.88472,12.18909,10.29664,4.93499,2.48606,9.51746,3.32088,13.74744,2.50457,3.37653-.63075,5.76981-2.00366,7.17983-4.11868Z" style="fill: #f8a678;"/>
      </g>
      <g id="Layer2_52_1_STROKES" data-name="Layer2 52 1 STROKES">
        <path d="M168.46434,265.44861c-3.58082,0-7.3736-.99785-11.31524-2.98392-4.99621-2.51657-9.2934-6.1463-12.77418-10.7859-3.70358-4.98958-5.79726-10.28033-6.22772-15.7309-.47622-6.22454,1.32292-12.04032,5.34829-17.2887,2.09042-2.73282,4.74069-4.83303,7.87685-6.23969,2.87854-1.31977,5.96694-1.95567,9.18463-1.87193,3.57324.04134,7.1507,1.30554,10.60865,3.75797,4.0341,2.88725,7.14964,6.99088,9.26395,12.20011l.12287.30225v.24458c.03051.29244.19135,1.77084.99251,8.96824.76203,7.22791,1.09139,8.81716,1.19038,9.16075l.14022.26088.0141.38911c.237,6.73444-.64032,11.4664-2.68183,14.46665-1.65334,2.48067-4.43405,4.10803-8.25408,4.82117-1.1381.21954-2.30239.32934-3.4894.32934ZM160.03522,213.8816c-2.55349,0-4.99505.5305-7.28335,1.57844-2.63617,1.18375-4.85483,2.94155-6.60495,5.22985-3.5602,4.6417-5.08752,9.54766-4.67011,14.99923.37944,4.81141,2.25568,9.52054,5.57446,13.99277,3.16446,4.21777,7.06812,7.51698,11.6001,9.79991,4.57438,2.30449,8.84222,3.09703,12.6795,2.35667,2.91115-.54354,4.96244-1.68921,6.10717-3.40577,1.58812-2.33384,2.29913-6.43214,2.12409-12.19898-.23374-.74793-.58814-2.74599-1.33818-9.85314-.67945-6.1159-.90225-8.12911-.97505-8.83141-1.87088-4.51345-4.56786-8.05292-8.02044-10.52384-2.88832-2.04803-5.82767-3.10565-8.73124-3.13826-.15443-.00442-.30875-.00547-.46201-.00547ZM182.69073,245.09875l.01084.01854c-.00326-.00652-.00757-.01304-.01084-.01854Z" style="fill: #be6e35;"/>
      </g>
    </g>
    <g id="Layer2_52_MEMBER_0_FILL" data-name="Layer2 52 MEMBER 0 FILL">
      <path d="M176.37833,230.91836l9.23912,1.614c-6.08466-8.01792-11.91001-13.36106-17.47647-16.02942l8.23735,14.41542Z" style="fill: #f8a678;"/>
    </g>
    <g id="Layer2_52_MEMBER_1_FILL" data-name="Layer2 52 MEMBER 1 FILL">
      <g style="mask: url(#mask-1);">
        <path d="M176.10587,242.51489c2.80638-3.32656,3.84675-6.78946,3.12091-10.38879-.77413-3.65382-3.07252-6.35322-6.89507-8.09839-3.91933-1.63598-8.22578-1.85416-12.91935-.65441-4.74185,1.25434-8.5644,3.57206-11.46766,6.95314-2.75799,3.43575-3.74997,6.95314-2.97574,10.55247.67735,3.65382,2.92735,6.32597,6.7499,8.01655,3.91933,1.63598,8.24998,1.85416,12.99193.65441,4.69346-1.25434,8.49182-3.59933,11.39508-7.03498Z" style="fill: url(#radial-gradient-4);"/>
      </g>
    </g>
    <g id="Layer2_52_MEMBER_2_FILL" data-name="Layer2 52 MEMBER 2 FILL">
      <path d="M173.31717,261.19615c3.91502-1.06932,7.25452-7.00616,10.0184-17.81047.84061-1.28064,1.52711-3.02455,2.05929-5.23187l.89058-6.40064-9.35052-1.44705-3.61774,28.3297c.08363.01168.08363.86501,0,2.56033Z" style="fill: #f8a678;"/>
    </g>
    <g id="Layer2_52_MEMBER_3_FILL" data-name="Layer2 52 MEMBER 3 FILL">
      <path d="M170.7013,245.11098c0,1.74391-.79779,3.32099-2.39338,4.73091-1.59548,1.41003-3.48783,2.22633-5.67703,2.44901-2.44893.18548-4.71239-.44526-6.7903-1.89245,2.82005,2.78294,5.95548,3.80333,9.40617,3.06116,2.85719-.63072,4.99074-2.05926,6.40066-4.28562h.05565c.89047-1.37287,1.22446-2.85708,1.00187-4.45254-.25973-2.26347-1.70688-4.24859-4.34137-5.95539.33399-.81639.44529-1.96648.33399-3.45077-.14843-2.78292-1.18733-5.47295-3.11681-8.07041-3.04264-4.19284-7.43956-5.73267-13.19085-4.61961,5.45433,0,9.53598,2.15217,12.24463,6.45631,2.15217,3.41377,2.8757,6.3265,2.17069,8.73829-2.81995-.85334-5.15758-.76066-7.01289.27834-.96463.55658-1.44716,1.26149-1.44716,2.11493,0,.48242.31548.94622.94622,1.39141.59372.44529,1.24298.72363,1.9481.8349.96463.18548,2.00364.12983,3.11681-.16692,1.44705-.37102,2.56022-1.13168,3.3394-2.28201,2.04077,1.44708,3.04264,3.15396,3.00561,5.12047M162.07431,241.3263c-1.66975-.07427-2.33763-.51947-2.00364-1.33578.29686-.85342,1.0389-1.35435,2.22633-1.50278,1.18722-.14832,2.56022.05565,4.11857.61223-1.22446,1.52132-2.67152,2.26347-4.34127,2.22633Z" style="fill: #be6e35;"/>
    </g>
    <g>
      <g id="Layer2_53_FILL" data-name="Layer2 53 FILL">
        <path d="M170.20036,258.69147l.16694-.55658c-2.3006-1.63262-4.47118-.29675-6.51196,4.00738-1.74391,4.78656-2.70865,8.96088-2.89421,12.52297-.22259,4.00728.51945,7.66226,2.22633,10.96462,2.11504,3.26513,4.50821,4.65664,7.17983,4.17432,1.66986-.25975,3.17245-1.11327,4.50832-2.56035-.85344.03716-1.48419-1.00174-1.89245-3.11678-.51934-2.48606-.89047-3.85895-1.11317-4.11868-.55658.96474-1.26149,1.28011-2.11493.94622-.92771-.44531-1.57707-1.65124-1.9481-3.61774-1.00177-6.23372-.20397-12.44881,2.39338-18.64539Z" style="fill: #e5252a;"/>
      </g>
      <g id="Layer2_53_1_STROKES" data-name="Layer2 53 1 STROKES">
        <path d="M169.29695,291.57619c-2.81111,0-5.34177-1.68816-7.51046-5.0385l-.08268-.14128c-1.83712-3.55589-2.64806-7.53447-2.41-11.82406.1924-3.70253,1.19911-8.07904,2.99268-13.00235l.05986-.14349c1.51753-3.20138,3.18182-4.99947,5.08531-5.49735.90551-.23479,2.31543-.28258,3.9025.84366l.97841.6946-.57184,1.86973c-2.46334,5.87563-3.23189,11.84245-2.28503,17.73439.27719,1.46536.65768,2.04037.86964,2.25781.0283-.04018.06196-.09131.09899-.15548l2.89158,1.66975c-.97189,1.685-2.53403,2.30565-4.16896,1.66542l-.11519-.05005c-1.448-.69565-2.38507-2.26978-2.8655-4.81243-.99356-6.17775-.30548-12.37076,2.0372-18.46372-.4414.15001-1.46757.80547-2.8068,3.6047-1.66218,4.58088-2.59378,8.60522-2.76767,11.96418-.20334,3.66234.47064,7.03772,2.00448,10.039,2.54697,3.89064,4.71786,3.50258,5.4375,3.36993,1.33818-.20871,2.49479-.87616,3.57861-2.04908l2.4524,2.26547c-1.59138,1.72403-3.43397,2.75893-5.47768,3.07746-.44897.08047-.89142.12171-1.32734.12171Z" style="fill: #9a1c20;"/>
      </g>
    </g>
    <g>
      <g>
        <g>
          <path d="M195.46901,206.86734c0,9.64727,2.96827,17.94028,8.90513,24.879.37113.48232.74215.90896,1.11317,1.28001.18556.2227.37113.44526.55658.66798.22259.22259.44529.44526.66788.66788.70501.66788,1.37289,1.29873,2.00364,1.89234,5.97389,5.12055,12.91251,7.68075,20.81598,7.68075,9.42479,0,17.45807-3.63623,24.09983-10.90895,6.6789-7.19824,10.0184-15.91802,10.0184-26.15901,0-10.31526-3.3395-19.07206-10.0184-26.27041-6.64177-7.23559-14.67504-10.85333-24.09983-10.85333-9.38755,0-17.40221,3.61774-24.04408,10.85333-6.6789,7.19835-10.0183,15.95515-10.0183,26.27041Z" style="fill: #fff;"/>
          <g>
            <path d="M229.26124,188.77853c-3.63636,0-6.75327,1.74391-9.35052,5.23184-2.48595,3.52496-3.74766,7.73642-3.78479,12.63427,0,4.93496,1.20595,9.14644,3.61774,12.63427,2.59746,3.48793,5.69575,5.23184,9.29498,5.23184s6.64187-1.74391,9.12782-5.23184c2.59736-3.48783,3.89598-7.69931,3.89598-12.63427.07427-4.89785-1.18743-9.10931-3.78468-12.63427-2.44893-3.48793-5.45433-5.23184-9.01653-5.23184Z"/>
            <path d="M230.65265,204.7523c-1.33586,0-2.48606.59372-3.45069,1.78105-.85355,1.29863-1.28022,2.78292-1.28022,4.45256,0,1.70688.42667,3.15394,1.28022,4.34137.96463,1.26149,2.11483,1.89234,3.45069,1.89234,1.37289,0,2.54171-.63085,3.50645-1.89234.89058-1.18743,1.33576-2.63449,1.33576-4.34137,0-1.66965-.44518-3.15394-1.33576-4.45256-.96474-1.18733-2.13355-1.78105-3.50645-1.78105M235.71755,197.34977c-.59361,0-1.09465.24121-1.50281.72363-.29675.59372-.44518,1.18733-.44518,1.78105,0,.70499.14843,1.35427.44518,1.94799.40815.48242.9092.72353,1.50281.72353.55658,0,1.03901-.24111,1.44705-.72353.37092-.59372.55658-1.243.55658-1.94799,0-.59372-.18567-1.18733-.55658-1.78105-.40805-.48242-.89047-.72363-1.44705-.72363Z" style="fill: #fff;"/>
          </g>
          <g>
            <path d="M229.52191,243.71274h4.49748c5.19576-.17178,5.71974-1.40855,10.17882-3.42124,4.65296-2.13558,7.93808-2.12472,10.6523-5.92928,2.21013-3.19086,3.87652-.1276,4.8847-3.53948.77549-2.72454-.07763,1.93915,0,0,0-2.23359,2.04487-3.19307,1.30809-5.37764-1.3183-1.54636-4.32328-2.83499-9.01506-3.86589-4.7692-1.15367-10.8568-1.77957-18.2627-1.87772-7.44471-.07364-14.36598.34356-20.76369,1.25181-6.39782.90814-10.93443,2.19677-13.60984,3.86589-1.24077,1.20279-2.01626,2.6509-2.32648,4.34463-.42656,1.79178,1.02344-.36965,1.56634,2.55128,1.04689,5.76823,2.26526-1.20658,5.5611,2.64711,3.02444,3.55912,6.87277,5.43497,11.83584,7.34951,4.61414,1.64461,8.29731,2.14828,13.49308,2.00101Z" style="fill: #f8a67a;"/>
            <path d="M261.88329,229.54179c-.91961,0-1.66638-.74351-1.66965-1.66312-.00221-.6338-.30654-1.2393-.92834-1.85237-3.60154-3.54716-16.5799-5.90709-31.59988-5.73751-15.29716.17168-22.48489,2.0089-29.57793,7.55938-.72616.56637-1.77526.44024-2.34478-.28592-.56752-.72721-.44034-1.77621.28581-2.34478,8.6737-6.78654,17.44744-8.10944,31.59988-8.26818,4.48307-.04999,27.21579.03692,33.97948,6.69741,1.27075,1.25223,1.91864,2.67089,1.92516,4.21893.00326.92182-.74025,1.67291-1.66323,1.67617h-.00652Z" style="fill: #aa602f;"/>
          </g>
          <path d="M259.1413,175.81035c-8.16319-8.49716-17.99592-12.74565-29.49862-12.74565-11.46535,0-21.27967,4.24849-29.44287,12.74565-8.12606,8.4971-12.18909,18.7751-12.18909,30.8344,0,2.56022.18546,5.02766.55658,7.40243.48242,3.04264,1.22457,5.93686,2.22633,8.68254,1.41003,3.67339,3.30237,7.12419,5.67703,10.35239.55658.66788,1.09455,1.33576,1.61421,2.00364.70491.77918,1.40992,1.55846,2.11493,2.33763,8.16319,8.53411,17.97752,12.80132,29.44287,12.80132,11.50269,0,21.33543-4.26721,29.49862-12.80132,2.96838-3.0797,5.38027-6.41907,7.23548-10.0184,1.37289-2.59736,2.44903-5.34314,3.22821-8.23725,1.11317-3.93322,1.66975-8.10754,1.66975-12.52297,0-12.0593-4.04441-22.3373-12.13344-30.8344M204.37414,231.74635c-5.93686-6.93873-8.90513-15.23173-8.90513-24.879,0-10.31526,3.3394-19.07206,10.0183-26.27041,6.64187-7.23559,14.65653-10.85333,24.04408-10.85333,9.42479,0,17.45807,3.61774,24.09983,10.85333,6.6789,7.19835,10.0184,15.95515,10.0184,26.27041,0,10.24099-3.3395,18.96077-10.0184,26.15901-6.64177,7.27272-14.67504,10.90895-24.09983,10.90895-7.90347,0-14.84209-2.5602-20.81598-7.68075-.63075-.59361-1.29863-1.22446-2.00364-1.89234-.22259-.22261-.44529-.44529-.66788-.66788-.18546-.22272-.37102-.44529-.55658-.66798-.37102-.37104-.74204-.79769-1.11317-1.28001Z"/>
        </g>
        <path d="M229.6432,250.78085c-11.57075,0-21.61198-4.36452-29.84534-12.973l-2.12629-2.34807c-.54249-.69458-1.07624-1.35877-1.62841-2.02087-2.41547-3.28186-4.34937-6.80934-5.76907-10.51082-1.01208-2.76977-1.76979-5.72552-2.25674-8.79438-.37397-2.39473-.56311-4.9135-.56311-7.48879,0-12.15119,4.15255-22.65549,12.34362-31.21936,8.23451-8.57148,18.27574-12.91756,29.84534-12.91756,11.60547,0,21.66521,4.34608,29.89972,12.91651,8.15404,8.56493,12.28818,19.06922,12.28818,31.22042,0,4.44617-.56858,8.71075-1.69047,12.67416-.78486,2.91336-1.88603,5.72342-3.27092,8.34539-1.86867,3.62532-4.33527,7.03982-7.32679,10.14442-8.23346,8.60743-18.2931,12.97194-29.89972,12.97194ZM229.6432,163.62118c-11.25549,0-21.02605,4.23081-29.04197,12.57515-7.98457,8.34865-12.03382,18.59311-12.03382,30.4486,0,2.51775.18472,4.97877.55006,7.31598.47506,2.99709,1.21531,5.88321,2.19909,8.57692,1.38162,3.60038,3.26776,7.03982,5.6016,10.21522.54028.64568,1.08277,1.31861,1.60569,1.99036l2.08821,2.30567c8.00508,8.36927,17.77565,12.6186,29.03113,12.6186,11.2902,0,21.08033-4.24933,29.09635-12.62943,2.91872-3.02855,5.32115-6.355,7.14312-9.88901,1.34901-2.55359,2.41979-5.28644,3.18508-8.12585,1.09571-3.8721,1.65018-8.03454,1.65018-12.37846,0-11.85654-4.03084-22.10101-11.97944-30.45081-8.01497-8.34213-17.80394-12.57294-29.0953-12.57294ZM229.53128,244.49223c-8.00298,0-15.12875-2.62965-21.17827-7.81489l-2.70244-2.58936-.5913-.70659c-.35114-.34683-.74246-.7958-1.12621-1.29578-5.97883-6.98659-9.02053-15.47875-9.02053-25.21889,0-10.41183,3.42103-19.37692,10.16736-26.64827,6.71803-7.31922,14.94602-11.03153,24.45139-11.03153,9.54324,0,17.78974,3.71231,24.50998,11.03374,6.74412,7.26914,10.16515,16.23423,10.16515,26.64606,0,10.33914-3.42103,19.2672-10.16736,26.5375-6.71698,7.35614-14.96338,11.08802-24.50777,11.08802ZM229.53128,170.30008c-9.18137,0-17.13217,3.5906-23.63392,10.67281-6.55067,7.0616-9.87165,15.77219-9.87165,25.89382,0,9.46729,2.95144,17.7159,8.77153,24.51766.37291.48379.73058.89573,1.08382,1.24687l.77939.89247.4436.4436,1.99259,1.88161c5.82335,4.99074,12.70443,7.53013,20.43465,7.53013,9.21829,0,17.18856-3.61017,23.68926-10.72825,6.55172-7.0616,9.87271-15.73519,9.87271-25.7841,0-10.12162-3.32099-18.83222-9.86945-25.89161-6.50396-7.08442-14.47423-10.67502-23.69252-10.67502Z"/>
      </g>
      <g>
        <g>
          <path d="M345.80025,180.59693c-6.64177-7.23559-14.65642-10.85333-24.04408-10.85333-9.42468,0-17.45796,3.61774-24.09983,10.85333-6.6789,7.19835-10.0183,15.95515-10.0183,26.27041,0,10.24099,3.3394,18.96077,10.0183,26.15901,6.64187,7.27272,14.67515,10.90895,24.09983,10.90895,7.90357,0,14.84209-2.5602,20.81608-7.68075.63075-.59361,1.29863-1.22446,2.00364-1.89234.22249-.22261.44529-.44529.66777-.66788.18556-.22272.37113-.44529.55658-.66798.37113-.37104.74215-.79769,1.11317-1.28001,5.93686-6.93873,8.90523-15.23173,8.90523-24.879,0-10.31526-3.3394-19.07206-10.0184-26.27041Z" style="fill: #fff;"/>
          <g>
            <path d="M313.00988,194.01037c-2.59725,3.52496-3.85895,7.73642-3.78479,12.63427,0,4.93496,1.29863,9.14644,3.89609,12.63427,2.48595,3.48793,5.5287,5.23184,9.12782,5.23184s6.69752-1.74391,9.29487-5.23184c2.41179-3.48783,3.61774-7.69931,3.61774-12.63427-.03703-4.89785-1.29873-9.10931-3.78468-12.63427-2.59725-3.48793-5.71416-5.23184-9.35052-5.23184-3.5622,0-6.5676,1.74391-9.01653,5.23184Z"/>
            <path d="M320.63501,204.7523c-1.37289,0-2.54171.59372-3.50655,1.78105-.89058,1.29863-1.33565,2.78292-1.33565,4.45256,0,1.70688.44508,3.15394,1.33565,4.34137.96484,1.26149,2.13366,1.89234,3.50655,1.89234,1.33586,0,2.48606-.63085,3.45069-1.89234.85344-1.18743,1.28022-2.63449,1.28022-4.34137,0-1.66965-.42677-3.15394-1.28022-4.45256-.96463-1.18733-2.11483-1.78105-3.45069-1.78105M314.12305,198.0734c-.37102.59372-.55658,1.18733-.55658,1.78105,0,.70499.18556,1.35427.55658,1.94799.40805.48242.89047.72353,1.44705.72353.59361,0,1.09465-.24111,1.50281-.72353.29675-.59372.44518-1.243.44518-1.94799,0-.59372-.14843-1.18733-.44518-1.78105-.40815-.48242-.9092-.72363-1.50281-.72363-.55658,0-1.03901.24121-1.44705.72363Z" style="fill: #fff;"/>
          </g>
          <path d="M321.76574,243.71274h-4.49748c-5.19576-.17178-5.71974-1.40855-10.17882-3.42124-4.65296-2.13558-7.93808-2.12472-10.6523-5.92928-2.21013-3.19086-3.87652-.1276-4.8847-3.53948-.77549-2.72454.07753,1.93915,0,0,0-2.23359-2.04487-3.19307-1.30809-5.37764,1.3183-1.54636,4.32328-2.83499,9.01506-3.86589,4.7692-1.15367,10.8568-1.77957,18.2627-1.87772,7.44471-.07364,14.36598.34356,20.76369,1.25181,6.39782.90814,10.93443,2.19677,13.60984,3.86589,1.24077,1.20279,2.01626,2.6509,2.32648,4.34463.42646,1.79178-1.02354-.36965-1.56634,2.55128-1.04689,5.76823-2.26536-1.20658-5.5611,2.64711-3.02444,3.55912-6.87277,5.43497-11.83584,7.34951-4.61425,1.64461-8.29731,2.14828-13.49308,2.00101Z" style="fill: #f8a67a;"/>
          <path d="M289.40457,229.54179h-.00652c-.92298-.00326-1.66649-.75435-1.66323-1.67617.00652-1.54804.65441-2.96669,1.92516-4.21893,6.76263-6.66154,29.50398-6.74202,33.97843-6.69741,14.15244.15874,22.92502,1.48164,31.59988,8.26818.72721.56858.85439,1.61757.28697,2.34373-.56752.72837-1.61978.85555-2.34373.28697-7.09526-5.55048-14.28298-7.3877-29.58014-7.55938-15.03407-.17073-27.99728,2.19152-31.59872,5.73751-.6218.61307-.92624,1.21857-.92834,1.85237-.00326.91961-.75119,1.66312-1.66975,1.66312Z" style="fill: #aa602f;"/>
          <path d="M292.14636,175.81035c-8.08903,8.4971-12.13344,18.7751-12.13344,30.8344,0,4.41543.55658,8.58976,1.66975,12.52297.77918,2.89411,1.85531,5.63989,3.22821,8.23725,1.85521,3.59933,4.26711,6.93871,7.23548,10.0184,8.16319,8.53411,17.99592,12.80132,29.49851,12.80132,11.46546,0,21.27967-4.26721,29.44287-12.80132.70512-.77918,1.41013-1.55846,2.11504-2.33763.51966-.66788,1.05762-1.33576,1.61421-2.00364,2.37466-3.22821,4.267-6.679,5.67703-10.35239,1.00177-2.74568,1.74391-5.63989,2.22633-8.68254.37102-2.37476.55658-4.8422.55658-7.40243,0-12.0593-4.06313-22.3373-12.18919-30.8344-8.16319-8.49716-17.97741-12.74565-29.44287-12.74565-11.50259,0-21.33532,4.24849-29.49851,12.74565M345.80025,233.02635c-.18546.2227-.37102.44526-.55658.66798-.22249.22259-.44529.44526-.66777.66788-.70501.66788-1.37289,1.29873-2.00364,1.89234-5.97399,5.12055-12.91251,7.68075-20.81608,7.68075-9.42468,0-17.45796-3.63623-24.09983-10.90895-6.6789-7.19824-10.0183-15.91802-10.0183-26.15901,0-10.31526,3.3394-19.07206,10.0183-26.27041,6.64187-7.23559,14.67515-10.85333,24.09983-10.85333,9.38765,0,17.40231,3.61774,24.04408,10.85333,6.679,7.19835,10.0184,15.95515,10.0184,26.27041,0,9.64727-2.96838,17.94028-8.90523,24.879-.37102.48232-.74204.90896-1.11317,1.28001Z"/>
        </g>
        <path d="M321.64466,250.78085c-11.60652,0-21.66626-4.36452-29.90078-12.973-2.99047-3.10355-5.45707-6.51806-7.32784-10.14779-1.38383-2.61755-2.48501-5.42761-3.26997-8.34749-1.12074-3.95689-1.68921-8.22147-1.68921-12.66764,0-12.15119,4.13404-22.65549,12.28597-31.21821l.00221-.00221c8.23451-8.57042,18.29415-12.91651,29.89962-12.91651,11.5697,0,21.61083,4.34608,29.84429,12.91651,8.19212,8.56493,12.34467,19.06922,12.34467,31.22042,0,2.57529-.18914,5.09406-.56311,7.48774-.48589,3.06444-1.24466,6.0202-2.25347,8.78681-1.42402,3.71115-3.35791,7.23874-5.75266,10.4923-.57289.68923-1.10559,1.35343-1.62199,2.01645l-2.1426,2.36879c-8.24314,8.61931-18.28437,12.98383-29.85512,12.98383ZM292.54947,176.19412c-7.9487,8.34981-11.97944,18.59427-11.97944,30.45081,0,4.34392.55437,8.50636,1.64903,12.37192.76529,2.84595,1.83606,5.5788,3.18402,8.12798,1.82407,3.53842,4.2265,6.86488,7.14417,9.89227,8.01708,8.38126,17.80721,12.63059,29.09741,12.63059,11.25549,0,21.02605-4.24933,29.04092-12.62943l2.10462-2.3264c.49673-.64019,1.03816-1.31312,1.59906-1.98607,2.31438-3.14697,4.20041-6.58651,5.5853-10.19552.98167-2.69161,1.72193-5.57772,2.19593-8.5704.36524-2.33616.55006-4.79718.55006-7.31493,0-11.85549-4.04935-22.09995-12.03498-30.44966-8.01487-8.34328-17.78543-12.5741-29.04092-12.5741-11.2902,0-21.08033,4.23081-29.09635,12.5741l.00116-.00116ZM321.75669,244.49223c-9.5445,0-17.7909-3.73188-24.51114-11.09128-6.74307-7.26704-10.16409-16.1951-10.16409-26.53424,0-10.41183,3.42103-19.37692,10.16736-26.64827,6.71803-7.31922,14.96454-11.03153,24.50788-11.03153,9.50526,0,17.73325,3.71231,24.45349,11.03374,6.74517,7.2703,10.16515,16.23634,10.16515,26.64606,0,9.739-3.04159,18.23124-9.03894,25.24172-.36197.4718-.75225.92066-1.14252,1.31093l-.52292.63159-.70112.70449c-.71637.67935-1.38488,1.31093-2.01647,1.90454-6.06803,5.2026-13.19369,7.83225-21.19668,7.83225ZM321.75669,170.30008c-9.21829,0-17.18866,3.5906-23.69041,10.67281-6.55067,7.0616-9.87165,15.77219-9.87165,25.89382,0,10.04891,3.32099,18.7225,9.86945,25.78084,6.50396,7.12135,14.47433,10.73151,23.69262,10.73151,7.73011,0,14.61119-2.53939,20.45306-7.54749.61202-.57615,1.27843-1.20553,1.98397-1.87404l1.17944-1.28821c.39027-.39353.74793-.80547,1.09897-1.26212,5.83861-6.82564,8.79005-15.07425,8.79005-24.54049,0-10.12162-3.32099-18.83222-9.86945-25.89161l-.00221-.00221c-6.50175-7.08221-14.45245-10.67281-23.63382-10.67281Z"/>
      </g>
    </g>
    <g>
      <g id="Symbol_15_0_Layer3_0_FILL" data-name="Symbol 15 0 Layer3 0 FILL">
        <path d="M281.51573,225.74216v-.22259l-1.50281,13.13521c7.01289,2.04077,12.54159,2.05929,16.586.05565,3.22821-1.78107,5.02777-4.35989,5.39879-7.73642.29686-2.78292-.89047-4.50834-3.56209-5.1762-3.37653-.81631-9.01653-.83482-16.91989-.05565Z" style="fill: url(#radial-gradient-5);"/>
        <path d="M281.51573,225.51957v.22259c7.90336-.77918,13.54336-.76066,16.91989.05565,2.67162.66786,3.85895,2.39328,3.56209,5.1762-.37102,3.37653-2.17058,5.95535-5.39879,7.73642-4.04441,2.00364-9.57311,1.98512-16.586-.05565-.07416,0-.14843-.01862-.22259-.05565l-.66788-.05575v.05575c8.16309,4.45254,14.5081,5.47293,19.03493,3.06116,4.30413-2.33763,6.69752-5.76991,7.17983-10.29677v-.05562c.51945-4.67526-1.50281-7.58799-6.06667-8.73818-3.71052-.96474-9.70303-.03713-17.97741,2.78281l.22259.16705Z" style="fill: #be6e35;"/>
      </g>
      <g style="mask: url(#mask-3);">
        <g id="Symbol_15_0_Layer2_0_FILL" data-name="Symbol 15 0 Layer2 0 FILL">
          <g style="mask: url(#mask-4);">
            <path d="M310.823,226.49104c-.63453-2.65734-2.51846-4.62056-5.65168-5.88973-3.21264-1.18985-6.74244-1.34849-10.58961-.4759-3.88683.91214-7.02015,2.59778-9.39975,5.0568-2.26073,2.49868-3.07378,5.05678-2.43925,7.67446.55532,2.65732,2.39959,4.60076,5.53281,5.8303,3.21253,1.18985,6.76232,1.34849,10.64904.4759,3.84717-.91227,6.96061-2.61766,9.34032-5.11634,2.30039-2.41937,3.1531-4.93783,2.55812-7.55548Z" style="fill: url(#radial-gradient-7);"/>
          </g>
        </g>
      </g>
      <g id="Symbol_15_0_Layer0_0_FILL" data-name="Symbol 15 0 Layer0 0 FILL">
        <path d="M305.33721,231.3079c.51945-4.67526-1.50281-7.58799-6.06667-8.73818-3.71052-.96474-9.70303-.03713-17.97741,2.78281l.22259.16705v.22259c7.90336-.77918,13.54336-.76066,16.91989.05565,2.67162.66786,3.85895,2.39328,3.56209,5.1762-.37102,3.37653-2.17058,5.95535-5.39879,7.73642-4.04441,2.00364-9.57311,1.98512-16.586-.05565-.07416,0-.14843-.01862-.22259-.05565l-.66788-.05575v.05575c8.16309,4.45254,14.5081,5.47293,19.03493,3.06116,4.30413-2.33763,6.69752-5.76991,7.17983-10.29677v-.05562Z" style="fill: #be6e35;"/>
      </g>
    </g>
  </g>
  <g>
    <path d="M278.57586,271.9588c-2.83878-2.70531-11.6911-3.76228-16.81417-3.7282-6.84321.0466-11.19942,2.73019-16.59274,4.6093-.37333.13002-.3037.52439.20955.39921,5.18061-1.26223,9.05429-2.99036,15.01945-2.86097,5.49336.11874,10.77044,2.19194,16.07118,2.88454,1.05784.1398,2.82584-.61749,2.10673-1.30388Z" style="fill: #c5763f;"/>
    <path d="M272.90451,280.77544c-2.94471-.14041-5.46759.35127-8.14741,1.01746-1.94652.48537-4.3722,1.35753-4.92741,2.62881-.09226.2106.02903.31009.21986.33652-.00715.00631-.01599.01115-.02209.01599,1.49881.40479,3.86747-.58488,5.25625-.87069,2.70139-.55427,5.17956-.9214,7.63375-1.8185.73489-.26846,1.28832-1.24624-.01294-1.30959Z" style="fill: #c5763f;"/>
  </g>
</svg>