<?xml version="1.0" encoding="UTF-8"?>
<svg id="Layer_2" data-name="Layer 2" xmlns="http://www.w3.org/2000/svg" xmlns:xlink="http://www.w3.org/1999/xlink" viewBox="0 0 229 225.45">
  <defs>
    <style>
      .cls-1 {
        mask: url(#mask);
      }

      .cls-2 {
        filter: url(#luminosity-noclip);
      }

      .cls-3 {
        fill: #2b1010;
      }

      .cls-4 {
        fill: #e26236;
      }

      .cls-5 {
        filter: url(#luminosity-noclip-3);
      }

      .cls-6 {
        filter: url(#luminosity-noclip-7);
      }

      .cls-7 {
        filter: url(#luminosity-noclip-5);
      }

      .cls-8 {
        fill: url(#radial-gradient-7);
      }

      .cls-9 {
        fill: url(#radial-gradient-6);
      }

      .cls-10 {
        fill: url(#radial-gradient-4);
      }

      .cls-11 {
        fill: url(#radial-gradient-9);
      }

      .cls-12 {
        fill: url(#radial-gradient-2);
      }

      .cls-13 {
        fill: url(#radial-gradient);
      }

      .cls-13, .cls-14, .cls-15, .cls-16 {
        mix-blend-mode: multiply;
      }

      .cls-17 {
        fill: url(#linear-gradient);
      }

      .cls-18 {
        mask: url(#mask-2);
      }

      .cls-19 {
        mask: url(#mask-3);
      }

      .cls-20 {
        mask: url(#mask-4);
      }

      .cls-21 {
        mask: url(#mask-5);
      }

      .cls-22 {
        mask: url(#mask-7);
      }

      .cls-23 {
        mask: url(#mask-6);
      }

      .cls-24 {
        mask: url(#mask-1);
      }

      .cls-25 {
        mask: url(#mask-8);
      }

      .cls-26 {
        fill: #251114;
      }

      .cls-27 {
        fill: #a4a3a3;
      }

      .cls-28 {
        fill: #fff;
      }

      .cls-29 {
        fill: #1a1011;
      }

      .cls-14 {
        fill: url(#radial-gradient-8);
      }

      .cls-15 {
        fill: url(#radial-gradient-3);
      }

      .cls-16 {
        fill: url(#radial-gradient-5);
      }

      .cls-30 {
        fill: #fac0a2;
      }
    </style>
    <filter id="luminosity-noclip" x="60.03" y="164.7" width="30.98" height="28.88" color-interpolation-filters="sRGB" filterUnits="userSpaceOnUse">
      <feFlood flood-color="#fff" result="bg"/>
      <feBlend in="SourceGraphic" in2="bg"/>
    </filter>
    <filter id="luminosity-noclip-2" x="60.03" y="-8246.66" width="30.98" height="32766" color-interpolation-filters="sRGB" filterUnits="userSpaceOnUse">
      <feFlood flood-color="#fff" result="bg"/>
      <feBlend in="SourceGraphic" in2="bg"/>
    </filter>
    <mask id="mask-1" x="60.03" y="-8246.66" width="30.98" height="32766" maskUnits="userSpaceOnUse"/>
    <radialGradient id="radial-gradient" cx="-2135.15" cy="114.38" fx="-2135.15" fy="114.38" r="62.42" gradientTransform="translate(-594.51 1162.01) rotate(128.13) scale(.56 .7)" gradientUnits="userSpaceOnUse">
      <stop offset=".07" stop-color="#c2c2c2"/>
      <stop offset=".36" stop-color="#000"/>
    </radialGradient>
    <mask id="mask" x="60.03" y="164.7" width="30.98" height="28.88" maskUnits="userSpaceOnUse">
      <g class="cls-2">
        <g class="cls-24">
          <path class="cls-13" d="M67.72,189.1c-3.7-2.91-6.08-6.35-7.15-10.32-1.08-3.99-.53-7.36,1.63-10.11,2.15-2.73,5.28-4.05,9.41-3.95,4.12.09,8.03,1.59,11.73,4.49s6.06,6.33,7.13,10.31c1.08,3.99.54,7.35-1.61,10.08s-5.31,4.08-9.43,3.98c-4.13-.1-8.03-1.59-11.71-4.48Z"/>
        </g>
      </g>
    </mask>
    <radialGradient id="radial-gradient-2" cx="-2135.15" cy="114.38" fx="-2135.15" fy="114.38" r="62.42" gradientTransform="translate(-594.51 1162.01) rotate(128.13) scale(.56 .7)" gradientUnits="userSpaceOnUse">
      <stop offset=".07" stop-color="#f59276"/>
      <stop offset=".36" stop-color="#fac0a0"/>
    </radialGradient>
    <linearGradient id="linear-gradient" x1="-768.79" y1="-200.35" x2="-768.45" y2="-234.17" gradientTransform="translate(-479.28 635.83) rotate(128.13)" gradientUnits="userSpaceOnUse">
      <stop offset="0" stop-color="#fac0a2"/>
      <stop offset="1" stop-color="#f69a7e"/>
    </linearGradient>
    <filter id="luminosity-noclip-3" x="109.07" y="99.84" width="56" height="53.81" color-interpolation-filters="sRGB" filterUnits="userSpaceOnUse">
      <feFlood flood-color="#fff" result="bg"/>
      <feBlend in="SourceGraphic" in2="bg"/>
    </filter>
    <filter id="luminosity-noclip-4" x="109.07" y="-8246.66" width="56" height="32766" color-interpolation-filters="sRGB" filterUnits="userSpaceOnUse">
      <feFlood flood-color="#fff" result="bg"/>
      <feBlend in="SourceGraphic" in2="bg"/>
    </filter>
    <mask id="mask-3" x="109.07" y="-8246.66" width="56" height="32766" maskUnits="userSpaceOnUse"/>
    <radialGradient id="radial-gradient-3" cx="-1401.74" cy="296.33" fx="-1401.74" fy="296.33" r="68.94" gradientTransform="translate(-469.09 1430.02) rotate(128.13) scale(1 1.11)" xlink:href="#radial-gradient"/>
    <mask id="mask-2" x="109.07" y="99.84" width="56" height="53.81" maskUnits="userSpaceOnUse">
      <g class="cls-5">
        <g class="cls-19">
          <path class="cls-15" d="M131.57,99.86c7.56-.31,14.56,2.07,21.01,7.13,6.43,5.05,10.4,11.29,11.92,18.72,1.5,7.42.11,13.84-4.15,19.27s-10.2,8.33-17.76,8.64c-7.58.29-14.58-2.08-21.01-7.13-6.45-5.06-10.42-11.3-11.92-18.72-1.5-7.42-.1-13.85,4.18-19.3,4.26-5.43,10.18-8.3,17.74-8.61Z"/>
        </g>
      </g>
    </mask>
    <radialGradient id="radial-gradient-4" cx="-1401.74" cy="296.33" fx="-1401.74" fy="296.33" r="68.94" gradientTransform="translate(-469.09 1430.02) rotate(128.13) scale(1 1.11)" xlink:href="#radial-gradient-2"/>
    <filter id="luminosity-noclip-5" x="70.59" y="149.99" width="55.67" height="51.91" color-interpolation-filters="sRGB" filterUnits="userSpaceOnUse">
      <feFlood flood-color="#fff" result="bg"/>
      <feBlend in="SourceGraphic" in2="bg"/>
    </filter>
    <filter id="luminosity-noclip-6" x="70.59" y="-8246.66" width="55.67" height="32766" color-interpolation-filters="sRGB" filterUnits="userSpaceOnUse">
      <feFlood flood-color="#fff" result="bg"/>
      <feBlend in="SourceGraphic" in2="bg"/>
    </filter>
    <mask id="mask-5" x="70.59" y="-8246.66" width="55.67" height="32766" maskUnits="userSpaceOnUse"/>
    <radialGradient id="radial-gradient-5" cx="-1428.04" cy="332.92" fx="-1428.04" fy="332.92" r="62.42" gradientTransform="translate(-452.2 1556.56) rotate(128.13) scale(1 1.26)" xlink:href="#radial-gradient"/>
    <mask id="mask-4" x="70.59" y="149.99" width="55.67" height="51.91" maskUnits="userSpaceOnUse">
      <g class="cls-7">
        <g class="cls-21">
          <path class="cls-16" d="M84.41,193.83c-6.65-5.22-10.94-11.41-12.85-18.56-1.93-7.16-.96-13.22,2.93-18.17,3.86-4.92,9.5-7.28,16.91-7.11,7.4.16,14.42,2.86,21.08,8.08,6.62,5.19,10.89,11.37,12.82,18.53,1.93,7.16.97,13.2-2.89,18.12s-9.54,7.34-16.96,7.16c-7.42-.18-14.43-2.86-21.05-8.06Z"/>
        </g>
      </g>
    </mask>
    <radialGradient id="radial-gradient-6" cx="-1428.04" cy="332.92" fx="-1428.04" fy="332.92" r="62.42" gradientTransform="translate(-452.2 1556.56) rotate(128.13) scale(1 1.26)" xlink:href="#radial-gradient-2"/>
    <radialGradient id="radial-gradient-7" cx="-1928.44" cy="41.41" fx="-1928.44" fy="41.41" r="21.91" gradientTransform="translate(-499.48 987.59) rotate(128.13) scale(.59)" gradientUnits="userSpaceOnUse">
      <stop offset="0" stop-color="#f59276"/>
      <stop offset="1" stop-color="#fac0a2"/>
    </radialGradient>
    <mask id="mask-6" x="78.02" y="132.41" width="728.47" height="215.91" maskUnits="userSpaceOnUse"/>
    <filter id="luminosity-noclip-7" x="78.02" y="132.41" width="40.87" height="40.27" color-interpolation-filters="sRGB" filterUnits="userSpaceOnUse">
      <feFlood flood-color="#fff" result="bg"/>
      <feBlend in="SourceGraphic" in2="bg"/>
    </filter>
    <filter id="luminosity-noclip-8" x="78.02" y="-8246.66" width="40.87" height="32766" color-interpolation-filters="sRGB" filterUnits="userSpaceOnUse">
      <feFlood flood-color="#fff" result="bg"/>
      <feBlend in="SourceGraphic" in2="bg"/>
    </filter>
    <mask id="mask-8" x="78.02" y="-8246.66" width="40.87" height="32766" maskUnits="userSpaceOnUse"/>
    <radialGradient id="radial-gradient-8" cx="-1659.78" cy="164.78" fx="-1659.78" fy="164.78" r="68.95" gradientTransform="translate(-601.4 1252.01) rotate(128.13) scale(.78)" xlink:href="#radial-gradient"/>
    <mask id="mask-7" x="78.02" y="132.41" width="40.87" height="40.27" maskUnits="userSpaceOnUse">
      <g class="cls-6">
        <g class="cls-25">
          <path class="cls-14" d="M86.33,168.01c-4.55-3.58-7.24-8.13-8.07-13.66-.82-5.53.44-10.43,3.79-14.7s7.79-6.63,13.36-7.15c5.57-.51,10.63,1.02,15.18,4.59s7.21,8.1,8.05,13.64c.82,5.53-.43,10.42-3.77,14.67s-7.81,6.66-13.38,7.17c-5.58.5-10.64-1.02-15.16-4.58Z"/>
        </g>
      </g>
    </mask>
    <radialGradient id="radial-gradient-9" cx="-1659.78" cy="164.78" fx="-1659.78" fy="164.78" r="68.95" gradientTransform="translate(-601.4 1252.01) rotate(128.13) scale(.78)" xlink:href="#radial-gradient-2"/>
  </defs>
  <g id="Layer_1-2" data-name="Layer 1">
    <g>
      <g id="Layer4_63_FILL" data-name="Layer4 63 FILL">
        <path d="M.76,113.2c-5.55,28.78,19.36,51.03,74.75,66.74l.18.05.2-.02c45.45-2.54,88.9-17.69,130.35-45.46l.37-.25,3.62-22.25,3.06,11.9,15.71-25.03-.13-.46c-13.53-44.61-32.49-73.83-56.89-87.67-24.46-13.96-54.34-12.47-89.66,4.47l-.07.03-.07.03c-9.77,6.17-17.5,11.4-23.19,15.67C25.4,51.96,5.99,79.37.79,113.23l-.03-.02M21.89,67.34c9.03-12.8,21.8-24.34,38.3-34.63l.04-.06h.05c5.64-4.24,13.32-9.41,23.03-15.53,16.94-8.11,32.65-12.33,47.12-12.65,13.9-.32,26.95,2.98,39.14,9.89,12.29,7.02,23.13,17.31,32.53,30.87,9.92,14.3,18.13,32.08,24.62,53.33l-12.6,20.04-3.84-14.97-.83.02-4.77,29.36c-40.95,27.33-83.86,42.27-128.72,44.81-26.43-7.49-45.7-17-57.8-28.53-11.67-11.16-16.22-23.75-13.66-37.78l-.03-.02c2.59-16.69,8.4-31.41,17.42-44.16Z"/>
        <path class="cls-26" d="M4.5,111.52l-.03-.02c2.59-16.69,8.4-31.41,17.42-44.16,9.03-12.8,21.8-24.34,38.3-34.63l.04-.06h.05c5.64-4.24,13.32-9.41,23.03-15.53,16.94-8.11,32.65-12.33,47.12-12.65,13.9-.32,26.95,2.98,39.14,9.89,12.29,7.02,23.13,17.31,32.53,30.87,9.92,14.3,18.13,32.08,24.62,53.33l-12.6,20.04-3.84-14.97-.83.02-4.77,29.36c-40.95,27.33-83.86,42.27-128.72,44.81-26.43-7.49-45.7-17-57.8-28.53-11.67-11.16-16.22-23.75-13.66-37.78Z"/>
      </g>
      <g id="Layer4_63_MEMBER_0_FILL" data-name="Layer4 63 MEMBER 0 FILL">
        <path class="cls-26" d="M69.19,25.13l.34-.09.2-.25c3.5-4.16,2.13-10.01-4.1-17.55,2.9-.09,6.93,2.51,12.11,7.8l1.32,1.35.46-1.84c1.15-4.9,2.78-8.33,4.89-10.28-1.94,5.41-2.17,9.94-.67,13.58l.15-.24s.06.05.08.07c-.02.04-.04.06-.07.08-.81,1.57-4.8,4.43-11.97,8.57-3.58,2.09-6.96,4.08-10.15,5.97l-.46-.05c-2.62-1.5-5.05-3.3-7.3-5.42,4.33.64,9.39.08,15.18-1.7Z"/>
        <path d="M48.11,24.98l-2.36-1.9.64-1.11,2.86,1.21c4.88,2.34,11.21,2.35,18.98.02,2.55-3.67.77-8.98-5.33-15.92l-.93-1.09,1.27-.53c3.4-1.81,8.3.38,14.67,6.59,1.84-6.56,4.61-10.39,8.3-11.49l2.22-.77-.92,2.19c-2.61,6.02-3.82,11.16-3.64,15.42l-.15.24c-1.5-3.64-1.27-8.17.67-13.58-2.1,1.95-3.73,5.37-4.89,10.28l-.46,1.84-1.32-1.35c-5.18-5.29-9.21-7.89-12.11-7.8,6.23,7.54,7.59,13.39,4.1,17.55l-.2.25-.34.09c-5.79,1.78-10.85,2.35-15.18,1.7,2.25,2.12,4.69,3.92,7.3,5.42l.02.2c-4.19-1.26-8.59-3.75-13.22-7.47Z"/>
      </g>
      <g>
        <g id="Layer4_64_FILL" data-name="Layer4 64 FILL">
          <path class="cls-30" d="M59.2,179.6c-.69-3.88.13-7.29,2.43-10.23,2.31-2.94,5.43-4.54,9.38-4.82,3.93-.26,7.53.89,10.78,3.45,3.25,2.55,5.22,5.77,5.91,9.65.67,3.9-.15,7.32-2.45,10.26-2.31,2.94-5.43,4.54-9.36,4.79-3.95.27-7.55-.86-10.8-3.42-3.25-2.55-5.21-5.78-5.88-9.68Z"/>
        </g>
        <g id="Layer4_64_1_STROKES" data-name="Layer4 64 1 STROKES">
          <path class="cls-4" d="M75.96,193.76c-4.2.29-8.08-.93-11.53-3.64s-5.56-6.18-6.27-10.33c-.74-4.17.15-7.9,2.64-11.07,2.49-3.17,5.9-4.93,10.15-5.22,4.18-.27,8.05.96,11.5,3.67,3.45,2.71,5.57,6.17,6.29,10.31.72,4.19-.18,7.92-2.66,11.09s-5.9,4.92-10.12,5.19ZM60.24,179.42h0c.63,3.67,2.43,6.63,5.5,9.03s6.36,3.45,10.08,3.19c3.65-.24,6.47-1.67,8.6-4.39s2.87-5.8,2.24-9.42c-.64-3.65-2.45-6.6-5.52-9.01s-6.36-3.46-10.05-3.22c-3.67.26-6.49,1.7-8.63,4.42s-2.86,5.79-2.22,9.39Z"/>
        </g>
      </g>
      <g id="Layer4_64_MEMBER_0_FILL" data-name="Layer4 64 MEMBER 0 FILL">
        <g class="cls-1">
          <path class="cls-12" d="M67.72,189.1c-3.7-2.91-6.08-6.35-7.15-10.32-1.08-3.99-.53-7.36,1.63-10.11,2.15-2.73,5.28-4.05,9.41-3.95,4.12.09,8.03,1.59,11.73,4.49s6.06,6.33,7.13,10.31c1.08,3.99.54,7.35-1.61,10.08s-5.31,4.08-9.43,3.98c-4.13-.1-8.03-1.59-11.71-4.48Z"/>
        </g>
      </g>
      <g id="Layer4_64_MEMBER_1_FILL" data-name="Layer4 64 MEMBER 1 FILL">
        <path class="cls-4" d="M67.31,182.11c.87.41,1.84.4,2.91-.05.9-.34,1.61-.84,2.15-1.49,1.98,1.97,2.71,3.71,2.21,5.23-.23.71-.87,1.38-1.92,1.99-1.26.77-2.58,1.01-3.96.7,1.57.81,3.15.76,4.75-.17,1.14-.69,1.85-1.43,2.14-2.22.67-2.04-.15-4.21-2.46-6.5.83-1.56,1.12-2.87.86-3.94-.17-.73-.63-1.4-1.37-2.02-.58-.52-1.46-.69-2.62-.54-1.57.17-3.31.93-5.22,2.26,2.23-.79,3.82-1.21,4.77-1.28.92-.11,1.73.09,2.43.61,1.12.79,1.19,2.19.23,4.21-1.11-1.02-2.42-1.51-3.92-1.46-1.25.07-2.18.62-2.79,1.67-.71,1.17-.11,2.17,1.82,2.99M66.59,179.67c.04-.36.27-.65.7-.89.45-.15.99-.21,1.61-.17.8.09,1.75.51,2.86,1.26-1.33.86-2.36,1.25-3.07,1.17-.61-.03-1.12-.18-1.53-.44-.38-.27-.57-.58-.56-.94Z"/>
      </g>
      <g id="Layer4_65_FILL" data-name="Layer4 65 FILL">
        <path class="cls-4" d="M73.95,178.73c.27.54,2.34,4.85,6.23,12.95,3.73,7.77,5.87,12.09,6.43,12.98,3.98,6.53,8.49,11.29,13.52,14.28,10.42,6.24,22.41,7.99,35.97,5.26,6.13-1.22,12.45-3.47,18.96-6.75,6.28-3.17,12.4-7.11,18.38-11.83,6.99-5.48,13.38-13,19.19-22.56,3.28-5.4,5.98-10.42,8.1-15.06,2.45-5.36,4.29-10.62,5.53-15.77,1.57-6.56,2.55-12.42,2.95-17.57.46-5.91.19-11.33-.8-16.27-1.13-5.67-3.39-11.23-6.75-16.68-3.06-4.97-6.86-9.61-11.42-13.93-16.7-24.1-37.12-40.62-61.26-49.57l-.03-.02c-47.18-15.99-80.3-1.53-99.36,43.36-14.2,29.44-1.55,59.52,37.94,90.22,2.54,1.97,4.69,4.31,6.44,7.03l-.03-.07M128.27,40.2l-.03-.02c23.79,8.83,43.91,25.14,60.38,48.92l.06.09.06.09c8.26,7.84,13.54,17.46,15.82,28.86,2.07,10.17,1.68,21.14-1.16,32.92-2.57,10.71-6.83,20.95-12.77,30.7-5.67,9.33-11.91,16.69-18.7,22.05-11.41,9-23.2,14.72-35.38,17.16-13.03,2.64-24.52.98-34.48-4.98h0c-4.76-2.84-9.03-7.36-12.83-13.56-1.42-2.37-3.68-6.63-6.78-12.76-2.74-5.41-4.96-9.39-6.66-11.95l-.06-.04.02-.03c-1.89-2.92-4.2-5.43-6.93-7.55-38.44-29.88-50.88-59.09-37.33-87.64h0l.02-.03c18.55-43.74,50.8-57.82,96.73-42.24Z"/>
        <path class="cls-17" d="M31.52,82.47l.02-.03c18.55-43.74,50.8-57.82,96.73-42.24l-.03-.02c23.79,8.83,43.91,25.14,60.38,48.92l.06.09.06.09c8.26,7.84,13.54,17.46,15.82,28.86,2.07,10.17,1.68,21.14-1.16,32.92-2.57,10.71-6.83,20.95-12.77,30.7-5.67,9.33-11.91,16.69-18.7,22.05-11.41,9-23.2,14.72-35.38,17.16-13.03,2.64-24.52.98-34.48-4.98h0c-4.76-2.84-9.03-7.36-12.83-13.56-1.42-2.37-3.68-6.63-6.78-12.76-2.74-5.41-4.96-9.39-6.66-11.95l-.06-.04.02-.03c-1.89-2.92-4.2-5.43-6.93-7.55-38.44-29.88-50.88-59.09-37.33-87.64h0Z"/>
      </g>
      <g id="Layer4_66_FILL" data-name="Layer4 66 FILL">
        <g class="cls-18">
          <path class="cls-10" d="M131.57,99.86c7.56-.31,14.56,2.07,21.01,7.13,6.43,5.05,10.4,11.29,11.92,18.72,1.5,7.42.11,13.84-4.15,19.27s-10.2,8.33-17.76,8.64c-7.58.29-14.58-2.08-21.01-7.13-6.45-5.06-10.42-11.3-11.92-18.72-1.5-7.42-.1-13.85,4.18-19.3,4.26-5.43,10.18-8.3,17.74-8.61Z"/>
        </g>
      </g>
      <g>
        <g id="Layer4_67_FILL" data-name="Layer4 67 FILL">
          <path class="cls-29" d="M70.91,86.16c-3.47-1.29-5.77-3.69-6.89-7.2,11.8.15,21.57-1.78,29.32-5.79-1.37,2.21-2.08,3.32-2.13,3.34-4.93,5.6-11.7,8.81-20.3,9.65Z"/>
        </g>
        <g id="Layer4_67_1_STROKES" data-name="Layer4 67 1 STROKES">
          <path d="M71.01,87.21l-.24.02-.23-.08c-3.77-1.4-6.3-4.05-7.53-7.87l-.45-1.4,1.47.02c11.57.15,21.26-1.76,28.82-5.67l1.38,1.5c-1.46,2.35-1.97,3.15-2.24,3.48h0c-5.09,5.78-12.15,9.15-20.99,10ZM65.57,80.02c1.11,2.38,2.91,4.05,5.49,5.06,8.17-.84,14.68-3.96,19.36-9.27.02-.03.06-.08.12-.17-6.94,2.88-15.31,4.36-24.97,4.38Z"/>
        </g>
      </g>
      <g id="Layer4_68_FILL" data-name="Layer4 68 FILL">
        <g class="cls-20">
          <path class="cls-9" d="M84.41,193.83c-6.65-5.22-10.94-11.41-12.85-18.56-1.93-7.16-.96-13.22,2.93-18.17,3.86-4.92,9.5-7.28,16.91-7.11,7.4.16,14.42,2.86,21.08,8.08,6.62,5.19,10.89,11.37,12.82,18.53,1.93,7.16.97,13.2-2.89,18.12s-9.54,7.34-16.96,7.16c-7.42-.18-14.43-2.86-21.05-8.06Z"/>
        </g>
      </g>
      <g>
        <g id="Layer4_69_FILL" data-name="Layer4 69 FILL">
          <path class="cls-4" d="M106.37,126.99c3.64.23,7.43-1.14,11.38-4.11,3.34-2.54,6.38-5.91,9.13-10.08,2.57-3.96,4.32-7.71,5.25-11.25,1.04-4.14.69-6.93-1.06-8.36l-.14-.11c-7.72-4.74-14.67-8.04-20.87-9.89-7.24-2.19-13.34-2.38-18.29-.56-.03,0-.06.02-.07.03-4.51,2.02-7.1,5.05-7.76,9.09-.7,3.6.19,8.15,2.67,13.66,1.43,3.16,3.67,6.62,6.72,10.38l.02-.03c4.02,5,8.21,8.7,12.58,11.08.14.05.29.09.44.12M86.54,92.74c.59-3.3,2.75-5.8,6.47-7.51,4.56-1.62,10.21-1.42,16.96.59,6.6,1.98,13.38,5.13,20.36,9.44.75,2.32.39,5.25-1.08,8.79-.88,2.15-2.26,4.67-4.16,7.58-2.58,3.98-5.46,7.17-8.64,9.57-3.8,2.87-7.07,4.26-9.79,4.19-3.52-1.99-7.42-5.63-11.71-10.94-2.53-3.12-4.51-6.23-5.91-9.3-2.27-4.98-3.11-9.12-2.52-12.42Z"/>
          <path class="cls-28" d="M94.98,114.46c-2.53-3.12-4.51-6.23-5.91-9.3-2.27-4.98-3.11-9.12-2.52-12.42.59-3.3,2.75-5.8,6.47-7.51,4.56-1.62,10.21-1.42,16.96.59,6.6,1.98,13.38,5.13,20.36,9.44.75,2.32.39,5.25-1.08,8.79-.88,2.15-2.26,4.67-4.16,7.58-2.58,3.98-5.46,7.17-8.64,9.57-3.8,2.87-7.07,4.26-9.79,4.19-3.52-1.99-7.42-5.63-11.71-10.94Z"/>
        </g>
        <g>
          <g id="Layer4_69_MEMBER_0_MEMBER_0_FILL" data-name="Layer4 69 MEMBER 0 MEMBER 0 FILL">
            <path d="M102.96,102.93c-.54-2.58-.07-4.88,1.43-6.9,1.48-2.04,3.56-3.2,6.23-3.49,2.65-.22,5.11.51,7.39,2.17,2.28,1.67,3.68,3.8,4.21,6.4.53,2.63.06,4.96-1.42,7-1.5,2.02-3.58,3.15-6.24,3.39-2.66.27-5.13-.43-7.41-2.09-2.28-1.67-3.67-3.82-4.19-6.47Z"/>
          </g>
          <g id="Layer4_69_MEMBER_0_MEMBER_1_FILL" data-name="Layer4 69 MEMBER 0 MEMBER 1 FILL">
            <path class="cls-28" d="M114.32,106.32c-1.04.06-2.02-.24-2.94-.92-.92-.68-1.5-1.52-1.75-2.53-.27-.98-.14-1.83.4-2.56.54-.73,1.32-1.12,2.36-1.18,1.02-.03,1.98.29,2.9.97.92.68,1.51,1.51,1.79,2.49.25,1.01.1,1.88-.43,2.61-.54.73-1.31,1.1-2.33,1.14Z"/>
          </g>
          <g id="Layer4_69_MEMBER_0_MEMBER_2_FILL" data-name="Layer4 69 MEMBER 0 MEMBER 2 FILL">
            <path class="cls-28" d="M111.23,98.96c-.51.03-1-.12-1.45-.46-.45-.34-.74-.75-.87-1.25-.13-.48-.07-.91.2-1.27.27-.36.65-.55,1.17-.59.5-.02.98.14,1.44.48.45.34.75.75.88,1.23.12.5.05.93-.21,1.29-.26.36-.65.55-1.15.56Z"/>
          </g>
        </g>
      </g>
      <g id="Layer4_70_FILL" data-name="Layer4 70 FILL">
        <path d="M16.17,108.19l.49.92c-.07-.35-.17-.73-.31-1.14l-.17.22M50.3,83.42l.65-.03.3-.61c9.98-23.54,22.47-32.91,37.47-28.1h0c15.06,4.82,32.66,23.94,52.78,57.34l.31.51,16.67.45-22.44-38.41c9.35,4.68,17.36,7.98,24.03,9.91,6.57,1.87,11.65,2.37,15.26,1.5l1.32-.26-.63-1.25c-1.99-3.86-3.15-7.28-3.5-10.27-.35-3.05.13-5.76,1.46-8.13l-.89-.52-.92-.54c-1.46,2.5-2.07,5.34-1.84,8.5.22,3.1,1.91,6.96,5.06,11.59-4.86-.23-10.34-1.29-16.42-3.17-6.24-1.94-13.57-5.02-21.99-9.25l-.03-.02-3.36-1.6-1.33,1.29,22.44,38.41-11.71-.32c-10.55-17.42-19.97-30.85-28.27-40.29-8.86-10.06-17.02-16.25-24.5-18.56-7.97-2.67-15.43-1.44-22.39,3.7-6.88,5.08-12.98,13.76-18.3,26.05-10.54.3-17.41,3.43-20.63,9.39-1.27,2.11-2.12,5.49-2.54,10.14l.02-.03c-.56,6.16.03,12.54,1.78,19.14,2.32,8.69,6.64,17.26,12.96,25.72,6.16,8.24,14.09,16.17,23.8,23.79-12.19-4.79-22.23-11.6-30.12-20.42-8.66-9.66-15.36-22.68-20.09-39.07l-.09.11c2.13,15.46,8.33,28.92,18.62,40.37,9.42,10.55,21.85,18.31,37.29,23.27l.33.26.11-.14s.1,0,.15-.02c.02,0,.06,0,.1-.01.1,0,.21-.04.31-.11.15-.06.28-.16.37-.3l.04-.06c.09-.14.14-.28.17-.45,0-.06-.01-.13-.02-.2,0-.03,0-.06-.01-.1,0-.05,0-.09-.02-.15l.11-.14-.42-.33s-.04-.03-.06-.04l-.06-.04c-21.95-15.9-35.45-33.24-40.49-51.99-1.71-6.37-2.28-12.5-1.74-18.39l.02-.03c.36-4.2,1.1-7.29,2.22-9.28l.02-.03c3.24-5.74,9.43-8.67,18.59-8.79Z"/>
        <path class="cls-26" d="M26.4,100.86l.02-.03c-.56,6.16.03,12.54,1.78,19.14,2.32,8.69,6.64,17.26,12.96,25.72,6.16,8.24,14.09,16.17,23.8,23.79-12.19-4.79-22.23-11.6-30.12-20.42-8.66-9.66-15.36-22.68-20.09-39.07l1.41-1.8.49.92c-.07-.35-.17-.73-.31-1.14l4.35-5.54-4.63-3.63c7.03-34.54,27.65-58.92,61.87-73.15,31.59-12.2,66.61-4.52,105.05,23.06-4.7,10.4-7.99,16.02-9.87,16.85l-.92-.54c-1.46,2.5-2.07,5.34-1.84,8.5.22,3.1,1.91,6.96,5.06,11.59-4.86-.23-10.34-1.29-16.42-3.17-6.24-1.94-13.57-5.02-21.99-9.25l-.03-.02-3.36-1.6-1.33,1.29,22.44,38.41-11.71-.32c-10.55-17.42-19.97-30.85-28.27-40.29-8.86-10.06-17.02-16.25-24.5-18.56-7.97-2.67-15.43-1.44-22.39,3.7-6.88,5.08-12.98,13.76-18.3,26.05-10.54.3-17.41,3.43-20.63,9.39-1.27,2.11-2.12,5.49-2.54,10.14Z"/>
      </g>
      <g id="Layer4_70_MEMBER_0_FILL" data-name="Layer4 70 MEMBER 0 FILL">
        <path d="M67.74,42.95l.02-.03c11.08-3.69,21.91-3.64,32.49.15,12.71,4.54,24.37,14.48,34.96,29.82l-1.33,1.69c-10.39-15.11-21.89-24.95-34.5-29.5-5.56-2.01-11.03-3-16.39-2.97-5.03.02-9.83.94-14.4,2.76h-.05c-6.89,3.2-11.27,9.41-13.11,18.65.7-10.32,4.8-17.18,12.3-20.58Z"/>
      </g>
      <g>
        <g id="Layer4_71_FILL" data-name="Layer4 71 FILL">
          <path class="cls-30" d="M177.22,86.96c-4.91-5.38-7.73-10.95-8.44-16.7-.74-5.72.6-10.76,4.03-15.12s7.92-6.76,13.49-7.2c5.54-.4,10.53,1.28,14.96,5.02,4.45,3.76,7.05,8.5,7.79,14.22.67,5.31-.68,10.35-4.05,15.14-1.98,2.83-4.17,4.87-6.54,6.11-3.75,1.92-7.83,1.8-12.24-.38-.14-.08-1.8-.47-4.96-1.16-3.08-.68-4.42-.66-4.03.06Z"/>
        </g>
        <g id="Layer4_71_1_STROKES" data-name="Layer4 71 1 STROKES">
          <path class="cls-4" d="M204.96,84.16c.31-.39.61-.79.9-1.22,3.51-4.99,4.94-10.33,4.23-15.88-.77-5.96-3.51-10.97-8.15-14.9-4.63-3.92-9.92-5.69-15.72-5.27-5.86.46-10.65,3.01-14.24,7.6-3.59,4.57-5.02,9.92-4.24,15.9.73,5.94,3.66,11.76,8.7,17.28l1.56-1.43c-4.74-5.19-7.49-10.61-8.17-16.12-.7-5.41.58-10.23,3.81-14.33,3.26-4.16,7.43-6.38,12.74-6.79,5.22-.38,10,1.23,14.2,4.78,4.22,3.57,6.72,8.13,7.42,13.55.63,5.01-.67,9.86-3.87,14.4-1.88,2.68-3.95,4.62-6.17,5.78-3.46,1.77-7.15,1.65-11.29-.39l-.94,1.9c4.71,2.33,9.15,2.45,13.19.38,2.16-1.13,4.19-2.88,6.03-5.23Z"/>
        </g>
      </g>
      <g id="Layer4_71_MEMBER_0_FILL" data-name="Layer4 71 MEMBER 0 FILL">
        <path class="cls-8" d="M180.42,81.78c-3.14-2.46-4.99-5.6-5.56-9.42-.57-3.82.3-7.19,2.61-10.13,2.3-2.93,5.37-4.57,9.21-4.92,3.84-.35,7.33.7,10.47,3.17s4.98,5.59,5.56,9.42c.57,3.82-.3,7.19-2.6,10.12-2.31,2.94-5.38,4.59-9.23,4.94-3.85.34-7.34-.71-10.47-3.17Z"/>
      </g>
      <g id="Layer4_71_MEMBER_1_FILL" data-name="Layer4 71 MEMBER 1 FILL">
        <path class="cls-4" d="M189.7,64.05c-.54-.3-1.03-.46-1.46-.48-1.34,0-2.66,1.01-3.95,3.04-1.31,2.04-1.51,4.17-.59,6.39-1.18-.36-2.19-1.05-3.04-2.07-.76-.93-1.22-1.9-1.38-2.92-.14-1.19.11-2.71.76-4.56.42-1.26,1.25-3.19,2.49-5.8-3.52,4.22-5.07,7.76-4.65,10.6.39,3.12,2.43,5.3,6.11,6.54.03,0,.05.01.08.02l.03.02c1.88,3.27,3.92,4.92,6.12,4.94,1.13.11,2.39-.26,3.75-1.13,1.32-.85,2.5-1.98,3.53-3.41,1.55-2.13,2.24-4.56,2.06-7.3-.17-3.21-1.59-5.74-4.25-7.59,3.69,4.39,4.37,8.68,2.05,12.85-.87,1.56-2.02,2.84-3.45,3.83-1.35.91-2.49,1.3-3.42,1.17-1.55-.2-3.18-1.41-4.9-3.63,3.42-2.72,5.33-4.94,5.72-6.66.26-1.17.11-2.11-.47-2.83-.25-.37-.62-.71-1.13-1.02M188.58,69.76c-1.39,1.96-2.62,3.08-3.68,3.38-.86-2.02-.76-3.98.32-5.89,1.05-1.8,2.22-2.43,3.49-1.88,1.45.78,1.41,2.24-.12,4.38Z"/>
      </g>
      <g id="Layer4_71_MEMBER_2_FILL" data-name="Layer4 71 MEMBER 2 FILL">
        <path class="cls-30" d="M180.11,88.47l2.03-5.04,1.49-.53,12.37,4.74c-3.17,1.57-8.47,1.85-15.89.83Z"/>
      </g>
      <g id="Layer4_71_MEMBER_3_FILL" data-name="Layer4 71 MEMBER 3 FILL">
        <path class="cls-30" d="M171.09,72.92l6.66,11.55,1.11.87-1.93,3.32c-2.88-5.54-4.82-10.79-5.84-15.74Z"/>
      </g>
      <g>
        <g id="Layer4_72_FILL" data-name="Layer4 72 FILL">
          <path class="cls-29" d="M45.68,121.1c-2.33,3.13-4.52,5.25-6.56,6.36,2.43-6.93,4.11-14.61,5.03-23.02,2.38,1.54,4.39,3.54,6.04,6-.37,2.79-1.87,6.34-4.51,10.66Z"/>
        </g>
        <g id="Layer4_72_1_STROKES" data-name="Layer4 72 1 STROKES">
          <path d="M39.62,128.39l-2.41,1.32.91-2.6c2.39-6.83,4.07-14.49,4.98-22.78l.19-1.7,1.44.93c2.49,1.61,4.62,3.73,6.35,6.3l.22.33-.05.4c-.39,2.96-1.91,6.59-4.66,11.07l-.05.08c-.23.31-.45.6-.68.89-2.19,2.79-4.23,4.68-6.22,5.77ZM49.09,110.69c-1.17-1.68-2.55-3.14-4.09-4.36-.81,6.53-2.1,12.67-3.84,18.31,1.17-1.07,2.39-2.46,3.65-4.15,2.41-3.95,3.85-7.24,4.28-9.81Z"/>
        </g>
      </g>
      <g>
        <g id="Layer4_73_FILL" data-name="Layer4 73 FILL">
          <path class="cls-4" d="M60.87,157.22l.02-.03c3.67,4.46,7.45,7.79,11.34,9.98.12.04.25.06.39.08,3.22.32,6.52-.77,9.9-3.25,2.88-2.1,5.47-4.93,7.79-8.49,2.14-3.37,3.58-6.57,4.31-9.6.79-3.56.41-5.98-1.15-7.27l-.14-.11c-6.93-4.3-13.12-7.35-18.59-9.13-6.44-2.07-11.81-2.38-16.12-.92h-.05c-3.9,1.63-6.11,4.19-6.61,7.68-.53,3.11.37,7.07,2.71,11.9,1.34,2.78,3.41,5.84,6.2,9.17M54.3,137.05c.41-2.84,2.23-4.95,5.46-6.33,3.98-1.3,8.97-.98,14.97.96,6.9,2.25,13.03,5.05,18.4,8.4.71,2.02.43,4.61-.85,7.76-.75,1.86-1.94,4.06-3.57,6.6-2.17,3.37-4.63,6.07-7.38,8.09-3.26,2.37-6.08,3.48-8.46,3.35-3.16-1.79-6.69-5.06-10.59-9.79-2.31-2.77-4.13-5.5-5.48-8.2-2.12-4.38-2.95-7.99-2.51-10.84Z"/>
          <path class="cls-28" d="M62.29,156.09c-2.31-2.77-4.13-5.5-5.48-8.2-2.12-4.38-2.95-7.99-2.51-10.84.41-2.84,2.23-4.95,5.46-6.33,3.98-1.3,8.97-.98,14.97.96,6.9,2.25,13.03,5.05,18.4,8.4.71,2.02.43,4.61-.85,7.76-.75,1.86-1.94,4.06-3.57,6.6-2.17,3.37-4.63,6.07-7.38,8.09-3.26,2.37-6.08,3.48-8.46,3.35-3.16-1.79-6.69-5.06-10.59-9.79Z"/>
        </g>
        <g>
          <g id="Layer4_73_MEMBER_0_MEMBER_0_FILL" data-name="Layer4 73 MEMBER 0 MEMBER 0 FILL">
            <path d="M81.47,139.54c2.04,1.51,3.33,3.39,3.87,5.63.53,2.3.17,4.31-1.08,6.05-1.26,1.73-3.07,2.65-5.41,2.78-2.32.15-4.51-.53-6.57-2.02-2.04-1.51-3.32-3.41-3.85-5.71-.56-2.26-.2-4.23,1.07-5.93,1.26-1.76,3.06-2.72,5.4-2.88,2.33-.11,4.52.58,6.57,2.07Z"/>
          </g>
          <g id="Layer4_73_MEMBER_0_MEMBER_1_FILL" data-name="Layer4 73 MEMBER 0 MEMBER 1 FILL">
            <path class="cls-28" d="M78.6,149.42c-.91.03-1.78-.27-2.61-.88-.83-.61-1.36-1.36-1.61-2.24-.26-.86-.17-1.59.28-2.21.45-.62,1.13-.94,2.05-.96.89,0,1.75.31,2.58.92.83.61,1.37,1.34,1.64,2.2.24.88.14,1.63-.31,2.25-.45.62-1.12.92-2.02.92Z"/>
          </g>
          <g id="Layer4_73_MEMBER_0_MEMBER_2_FILL" data-name="Layer4 73 MEMBER 0 MEMBER 2 FILL">
            <path class="cls-28" d="M75.6,143.02c-.45.01-.88-.13-1.29-.43-.41-.3-.67-.67-.79-1.11-.13-.42-.08-.79.14-1.09.22-.3.56-.46,1.01-.48.44,0,.87.15,1.28.45.41.3.68.67.81,1.09.12.44.07.81-.15,1.11-.22.3-.56.46-1,.46Z"/>
          </g>
        </g>
      </g>
      <g id="Layer4_119_MEMBER_0_FILL" data-name="Layer4 119 MEMBER 0 FILL">
        <path d="M169.22,21.77l1.88,1.2c-16.35-9.58-31.11-14.34-44.29-14.29-6.11.02-12.48,1-19.12,2.95-5.62,1.65-12.21,4.24-19.77,7.78,7.16-4.29,13.39-7.45,18.69-9.48,6.35-2.42,12.48-3.72,18.38-3.89,12.84-.37,27.58,4.87,44.23,15.73Z"/>
      </g>
      <g id="Layer4_119_MEMBER_1_FILL" data-name="Layer4 119 MEMBER 1 FILL">
        <path d="M108.37,17.27c-2.81.3-6.27,1.18-10.4,2.63-5.15,1.84-8.91,3.04-11.29,3.59,6.13-2.83,10.51-4.77,13.13-5.82,4.31-1.76,8.14-2.75,11.51-2.97,4.12-.26,8.65.47,13.59,2.2,5.26,1.86,11.66,5.06,19.2,9.61-15.52-7.02-27.43-10.1-35.75-9.25Z"/>
      </g>
      <g>
        <g id="Symbol_16_0_Layer3_0_FILL" data-name="Symbol 16 0 Layer3 0 FILL">
          <path class="cls-30" d="M119.61,143.11h.1s-.1-.05-.1-.05v.05M108.63,159.09l.03.02c3.07-2.19,5.51-4.98,7.33-8.36,1.22-2.27,2.31-4.86,3.28-7.77l-18.62-6.47-.04-.52-.5.46c-.11.03-.22.07-.31.11-3.79,2.82-6.91,5.94-9.34,9.38l-.02.03c-3.02,4.23-3.64,7.83-1.86,10.82,1.66,2.64,4.5,4.29,8.53,4.95l.02-.03c4.27.69,8.1-.18,11.51-2.62Z"/>
          <path class="cls-4" d="M96.63,163.83c-4.63-.76-7.9-2.7-9.81-5.82-2.36-3.61-1.73-7.94,1.9-12.98,2.52-3.52,6.21-6.34,11.08-8.46-3.79,2.82-6.91,5.94-9.34,9.38l-.02.03c-3.02,4.23-3.64,7.83-1.86,10.82,1.66,2.64,4.5,4.29,8.53,4.95l.02-.03c4.27.69,8.1-.18,11.51-2.62l.03.02c3.07-2.19,5.51-4.98,7.33-8.36,1.22-2.27,2.31-4.86,3.28-7.77.12-.38.24-.75.37-1.1l-.03,1.18v.05c-.03,3.35-.66,6.2-1.9,8.54-2.05,3.79-4.75,6.87-8.1,9.23-3.82,2.74-8.14,3.72-12.97,2.94Z"/>
        </g>
        <g class="cls-23">
          <g id="Symbol_16_0_Layer2_0_FILL" data-name="Symbol 16 0 Layer2 0 FILL">
            <g class="cls-22">
              <path class="cls-11" d="M86.33,168.01c-4.55-3.58-7.24-8.13-8.07-13.66-.82-5.53.44-10.43,3.79-14.7s7.79-6.63,13.36-7.15c5.57-.51,10.63,1.02,15.18,4.59s7.21,8.1,8.05,13.64c.82,5.53-.43,10.42-3.77,14.67s-7.81,6.66-13.38,7.17c-5.58.5-10.64-1.02-15.16-4.58Z"/>
            </g>
          </g>
        </g>
        <g id="Symbol_16_0_Layer0_0_FILL" data-name="Symbol 16 0 Layer0 0 FILL">
          <path class="cls-30" d="M119.61,143.11v-.05s.1.04.1.04h-.1Z"/>
          <path class="cls-4" d="M86.82,158.01c-2.36-3.61-1.73-7.94,1.9-12.98,2.52-3.52,6.21-6.34,11.08-8.46-3.79,2.82-6.91,5.94-9.34,9.38l-.02.03c-3.02,4.23-3.64,7.83-1.86,10.82,1.66,2.64,4.5,4.29,8.53,4.95l.02-.03c4.27.69,8.1-.18,11.51-2.62l.03.02c3.07-2.19,5.51-4.98,7.33-8.36,1.22-2.27,2.31-4.86,3.28-7.77.12-.38.24-.75.37-1.1l-.03,1.18v.05c-.03,3.35-.66,6.2-1.9,8.54-2.05,3.79-4.75,6.87-8.1,9.23-3.82,2.74-8.14,3.72-12.97,2.94-4.63-.76-7.9-2.7-9.81-5.82Z"/>
        </g>
      </g>
      <g>
        <path class="cls-3" d="M155.65,178.83c-7.04,10.03-19.13,18.25-27.23,19.5-8.1,1.25-9.72-4.53-5.38-8.32,5.37-4.69,8.96-10.67,12.82-19.97,3.77-9.08,2.17-21.26,6.11-26.28,3.94-5.02,10.81-5.98,15.82-1.81,10.51,8.75,4.9,26.85-2.14,36.88Z"/>
        <g>
          <path class="cls-28" d="M149.93,143.05c1.97,2.72-16.36,44.87-21.38,45.35-.87.08-2.01,0-3.4-1.1,6.67-5.64,11.38-19.07,11.38-19.07,0,0,2.09-27.42,9.87-27.58,1.47.49,2.88,1.49,3.53,2.39Z"/>
          <path class="cls-27" d="M150.25,142.82c1.46,2.01-5.47,18.91-10.81,29.82-3.55,7.24-8.31,15.93-10.85,16.17-.86.08-2.48-.36-3.88-1.35-.07-.38,1.41-.46,1.36-.85,1.37,1.26,1.67,1.48,2.45,1.41,1.27-.12,4.63-4.32,10.21-15.73,6.81-13.9,11.75-27.79,10.88-29-.63-.88-2.13-1.92-3.64-2.35.29-.19.58-.37.88-.55,1.46.57,2.78,1.57,3.41,2.43Z"/>
        </g>
        <path class="cls-28" d="M135.63,192.45c-1.63-2.81,20.17-41.65,25.05-41.62.84,0,2,1.22,3.22,2.42.64,11.28-7.5,24.3-7.5,24.3,0,0-8.31,12.22-18.16,17.11-1.37-.62-2.07-1.28-2.62-2.22Z"/>
        <path class="cls-27" d="M135.29,192.64c-1.21-2.08,7.12-17.69,13.34-27.68,4.13-6.63,9.57-14.54,12.04-14.52.84,0,1.36.71,2.62,1.8.03.38.06.76.07,1.14-1.2-1.35-1.93-2.17-2.69-2.17-1.24,0-4.88,3.71-11.38,14.16-7.92,12.73-14.05,25.64-13.33,26.88.53.91,1.87,2.06,3.27,2.62-.3.16-.6.3-.9.44-1.35-.69-2.53-1.79-3.04-2.67Z"/>
        <path class="cls-4" d="M154.8,134.8c-.05-.06-.23-1.58-2.52-2.43-4.64-1.67-6.76,2.16-6.83,2.21.41-.14,1.68-.72,3.04-.88,3.79-.79,6.22,1.08,6.3,1.1Z"/>
        <path class="cls-4" d="M128.54,199.1c-3.85.6-6.78-.29-8.04-2.44-1.12-1.91-.73-4.85,2.02-7.24,1.63-1.42,3.08-2.95,4.44-4.68,2.86-3.64,5.38-8.26,8.18-15,3.75-9.02,2.06-21.17,6.21-26.46s11.66-6.32,16.94-1.93c11.33,9.43,4.78,28.27-2,37.93-.46.66-.96,1.33-1.48,1.99-7.02,8.94-18.31,16.61-26.27,17.84ZM136.59,170.34c-4.24,10.18-7.8,15.69-13.03,20.26-.37.32-.69.66-.97,1.02-2.52,3.21-.81,6.96,5.72,5.95,7.61-1.18,18.48-8.6,25.28-17.26.5-.63.98-1.28,1.43-1.92,6.94-9.89,12.24-27.54,2.28-35.83-4.61-3.84-10.99-3.04-14.71,1.69-3.72,4.73-2.21,16.99-6,26.1Z"/>
        <path class="cls-4" d="M115.57,194.94c-.65.82-1.17,1.84-.42,3.65.9,2.22,2.66,2.43,2.73,2.46-1.42-3.38-1.27-3.04-1.29-3.06-1.09-2.58-.98-2.91-1.03-3.06Z"/>
        <path class="cls-4" d="M162.68,177.56c-2.61,4.25-3.86,6.12-9.4,11.86,1.76-.82,2.81-1.03,5.34-3.53,2.46-2.56,3.72-5.31,4.06-8.33Z"/>
      </g>
    </g>
  </g>
</svg>