<?xml version="1.0" encoding="UTF-8"?>
<svg id="Layer_2" data-name="Layer 2" xmlns="http://www.w3.org/2000/svg" xmlns:xlink="http://www.w3.org/1999/xlink" viewBox="0 0 315.27 501.97">
  <defs>
    <style>
      .cls-1 {
        fill: none;
      }

      .cls-2 {
        mask: url(#mask);
      }

      .cls-3 {
        filter: url(#luminosity-noclip);
      }

      .cls-4 {
        fill: #2b1010;
      }

      .cls-5 {
        filter: url(#luminosity-noclip-3);
      }

      .cls-6 {
        filter: url(#luminosity-noclip-7);
      }

      .cls-7 {
        filter: url(#luminosity-noclip-5);
      }

      .cls-8 {
        fill: url(#radial-gradient-6);
      }

      .cls-9 {
        fill: url(#radial-gradient-4);
      }

      .cls-10 {
        fill: url(#radial-gradient-8);
      }

      .cls-11 {
        fill: url(#radial-gradient-2);
      }

      .cls-12 {
        fill: url(#radial-gradient);
      }

      .cls-12, .cls-13, .cls-14, .cls-15 {
        mix-blend-mode: multiply;
      }

      .cls-16 {
        fill: #2b725e;
      }

      .cls-17 {
        fill: #1a0b0c;
      }

      .cls-18 {
        fill: url(#linear-gradient);
      }

      .cls-19 {
        fill: #40151e;
      }

      .cls-20 {
        mask: url(#mask-2);
      }

      .cls-21 {
        mask: url(#mask-3);
      }

      .cls-22 {
        mask: url(#mask-4);
      }

      .cls-23 {
        mask: url(#mask-5);
      }

      .cls-24 {
        mask: url(#mask-7);
      }

      .cls-25 {
        mask: url(#mask-6);
      }

      .cls-26 {
        mask: url(#mask-1);
      }

      .cls-27 {
        fill: #301215;
      }

      .cls-28 {
        clip-path: url(#clippath-1);
      }

      .cls-29 {
        clip-path: url(#clippath-3);
      }

      .cls-30 {
        clip-path: url(#clippath-2);
      }

      .cls-31 {
        fill: #a4a3a3;
      }

      .cls-32 {
        fill: #fff;
      }

      .cls-33 {
        fill: #c5763f;
      }

      .cls-34 {
        fill: #0c0506;
      }

      .cls-13 {
        fill: url(#radial-gradient-3);
      }

      .cls-14 {
        fill: url(#radial-gradient-7);
      }

      .cls-15 {
        fill: url(#radial-gradient-5);
      }

      .cls-35 {
        fill: #f8a66f;
      }

      .cls-36 {
        fill: #1d0d10;
      }

      .cls-37 {
        fill: #aa602f;
      }

      .cls-38 {
        clip-path: url(#clippath);
      }
    </style>
    <linearGradient id="linear-gradient" x1="-11434.89" y1="2536.09" x2="-11434.43" y2="2571.61" gradientTransform="translate(-11511.78 771.18) rotate(164.62) scale(1 -1)" gradientUnits="userSpaceOnUse">
      <stop offset="0" stop-color="#f8a66f"/>
      <stop offset="1" stop-color="#f4875d"/>
    </linearGradient>
    <clipPath id="clippath">
      <path class="cls-1" d="M258.01,139.87c1.52,7.17,2.34,12.87,2.33,16.98l.02.08c.25,9.32-1.4,18.2-5.02,26.68-2,4.72-5.03,9.33-9.1,13.85-3.63,4.04-8.38,8.26-14.28,12.83-26.29,16.33-51.77,20.75-76.4,13.1-8.81-2.76-16.63-6.41-23.31-10.99-7.28-4.9-13.52-10.79-18.67-17.77-21.14-34.63-26.21-69.64-15.21-105.02,37.45-43.46,82.73-53.35,135.6-29.58l17.77,55.19c2.97,10.83,5.05,19,6.27,24.66Z"/>
    </clipPath>
    <filter id="luminosity-noclip" x="130.11" y="129.31" width="60.89" height="60.95" color-interpolation-filters="sRGB" filterUnits="userSpaceOnUse">
      <feFlood flood-color="#fff" result="bg"/>
      <feBlend in="SourceGraphic" in2="bg"/>
    </filter>
    <filter id="luminosity-noclip-2" x="130.11" y="-8349.24" width="60.89" height="32766" color-interpolation-filters="sRGB" filterUnits="userSpaceOnUse">
      <feFlood flood-color="#fff" result="bg"/>
      <feBlend in="SourceGraphic" in2="bg"/>
    </filter>
    <mask id="mask-1" x="130.11" y="-8349.24" width="60.89" height="32766" maskUnits="userSpaceOnUse"/>
    <radialGradient id="radial-gradient" cx="-11710.39" cy="2480.33" fx="-11710.39" fy="2480.33" r="77.01" gradientTransform="translate(-11789.75 877.03) rotate(164.62) scale(1 -1)" gradientUnits="userSpaceOnUse">
      <stop offset=".07" stop-color="#fff"/>
      <stop offset=".45" stop-color="#000"/>
    </radialGradient>
    <mask id="mask" x="130.11" y="129.31" width="60.89" height="60.95" maskUnits="userSpaceOnUse">
      <g class="cls-3">
        <g class="cls-26">
          <path class="cls-12" d="M131.28,167.83c-2.23-8.12-1.26-15.79,2.86-23.16,4.09-7.2,10.19-11.95,18.3-14.18,8.12-2.23,15.86-1.29,23.21,2.76,7.22,4.17,11.91,10.36,14.15,18.48,2.23,8.12,1.34,15.76-2.73,23.04-4.25,7.24-10.4,12.09-18.51,14.32-8.12,2.23-15.71,1.24-23-2.9-7.29-4.15-12.05-10.24-14.28-18.36Z"/>
        </g>
      </g>
    </mask>
    <radialGradient id="radial-gradient-2" cx="-11710.39" cy="2480.33" fx="-11710.39" fy="2480.33" r="77.01" gradientTransform="translate(-11789.75 877.03) rotate(164.62) scale(1 -1)" gradientUnits="userSpaceOnUse">
      <stop offset=".07" stop-color="#f37e58"/>
      <stop offset=".45" stop-color="#f8a66f"/>
    </radialGradient>
    <filter id="luminosity-noclip-3" x="210.05" y="106.4" width="60.89" height="61.02" color-interpolation-filters="sRGB" filterUnits="userSpaceOnUse">
      <feFlood flood-color="#fff" result="bg"/>
      <feBlend in="SourceGraphic" in2="bg"/>
    </filter>
    <filter id="luminosity-noclip-4" x="210.05" y="-8349.24" width="60.89" height="32766" color-interpolation-filters="sRGB" filterUnits="userSpaceOnUse">
      <feFlood flood-color="#fff" result="bg"/>
      <feBlend in="SourceGraphic" in2="bg"/>
    </filter>
    <mask id="mask-3" x="210.05" y="-8349.24" width="60.89" height="32766" maskUnits="userSpaceOnUse"/>
    <radialGradient id="radial-gradient-3" cx="-11689.83" cy="2480.53" fx="-11689.83" fy="2480.53" r="77.01" gradientTransform="translate(-11689.99 848.51) rotate(164.62) scale(1 -1)" xlink:href="#radial-gradient"/>
    <mask id="mask-2" x="210.05" y="106.4" width="60.89" height="61.02" maskUnits="userSpaceOnUse">
      <g class="cls-5">
        <g class="cls-21">
          <path class="cls-13" d="M211.22,144.92c-2.23-8.12-1.26-15.79,2.86-23.16,4.09-7.2,10.19-11.95,18.3-14.18,8.12-2.23,15.86-1.29,23.21,2.76,7.22,4.17,11.91,10.36,14.15,18.48,2.23,8.12,1.34,15.76-2.73,23.04-4.23,7.32-10.38,12.17-18.49,14.4-8.12,2.23-15.71,1.24-23.02-2.98-7.22-4.17-12.05-10.24-14.28-18.36Z"/>
        </g>
      </g>
    </mask>
    <radialGradient id="radial-gradient-4" cx="-11689.83" cy="2480.53" fx="-11689.83" fy="2480.53" r="77.01" gradientTransform="translate(-11689.99 848.51) rotate(164.62) scale(1 -1)" xlink:href="#radial-gradient-2"/>
    <filter id="luminosity-noclip-5" x="73" y="163.97" width="50.46" height="37.26" color-interpolation-filters="sRGB" filterUnits="userSpaceOnUse">
      <feFlood flood-color="#fff" result="bg"/>
      <feBlend in="SourceGraphic" in2="bg"/>
    </filter>
    <filter id="luminosity-noclip-6" x="73" y="-8349.24" width="50.46" height="32766" color-interpolation-filters="sRGB" filterUnits="userSpaceOnUse">
      <feFlood flood-color="#fff" result="bg"/>
      <feBlend in="SourceGraphic" in2="bg"/>
    </filter>
    <mask id="mask-5" x="73" y="-8349.24" width="50.46" height="32766" maskUnits="userSpaceOnUse"/>
    <radialGradient id="radial-gradient-5" cx="-10385.61" cy="3137.13" fx="-10385.61" fy="3137.13" r="51.05" gradientTransform="translate(-11980.7 901.42) rotate(164.22) scale(1.11 -.83) skewX(-5.58)" gradientUnits="userSpaceOnUse">
      <stop offset=".1" stop-color="#fff"/>
      <stop offset=".45" stop-color="#000"/>
    </radialGradient>
    <mask id="mask-4" x="73" y="163.97" width="50.46" height="37.26" maskUnits="userSpaceOnUse">
      <g class="cls-7">
        <g class="cls-23">
          <path class="cls-15" d="M75.71,175.62c3.01-4.73,7.82-8.06,14.42-10.07,6.59-2.01,13.04-2.12,19.29-.22,6.2,1.99,10.37,5.33,12.61,10,2.26,4.74,1.84,9.48-1.17,14.2-3.06,4.82-7.95,8.18-14.54,10.19-6.59,2.01-12.91,2-19.09.08-6.25-1.9-10.5-5.22-12.76-9.95-2.31-4.64-1.89-9.38,1.24-14.23Z"/>
        </g>
      </g>
    </mask>
    <radialGradient id="radial-gradient-6" cx="-10385.61" cy="3137.13" fx="-10385.61" fy="3137.13" r="51.05" gradientTransform="translate(-11980.7 901.42) rotate(164.22) scale(1.11 -.83) skewX(-5.58)" gradientUnits="userSpaceOnUse">
      <stop offset=".1" stop-color="#f39269"/>
      <stop offset=".45" stop-color="#f8a780"/>
    </radialGradient>
    <clipPath id="clippath-1">
      <path class="cls-1" d="M225.02,87.99c3.26,1.27,6.13,3.55,8.6,6.78,1.26,1.57,2.21,2.89,2.87,3.78.95,1.32,1.74,2.68,2.32,4.19,2.54,5.29,3.95,10.14,4.41,14.51-.18,1.46-1.44,3.22-3.81,5.21-2.31,1.88-5.44,3.49-9.46,4.93-4.03,1.36-7.96,2.19-11.71,2.47-3.92.25-6.79-.21-8.69-1.35-1.79-1.67-3.3-5.66-4.42-11.84l-.02-.08c-.51-2.77-.81-5.35-.88-7.74-.01-2.16.13-4.36.58-6.65.57-3.98,1.97-7.36,4.2-10.14l-.08.02c2.01-2.38,4.48-3.98,7.34-4.76h0c2.88-.71,5.77-.5,8.75.67Z"/>
    </clipPath>
    <clipPath id="clippath-2">
      <path class="cls-1" d="M140.35,120.01c.87-4.4,2.54-8.02,5.03-11.03,2.35-2.64,5.19-4.42,8.46-5.24l-.02-.08c3.27-.82,6.56-.64,9.97.58,3.53,1.36,6.68,3.73,9.37,7.15,2.31,2.94,4.25,6.07,5.84,9.45,1.25,2.73,2.22,5.04,2.79,7.13.64,2.32,1.07,4.78,1.24,7.23-.38,1.93-1.86,3.84-4.45,5.88-2.65,2.14-6.23,3.96-10.78,5.54-4.55,1.59-8.97,2.47-13.18,2.88-4.23.33-7.36-.14-9.53-1.37-1.11-1.02-1.98-2.37-2.7-4.08-.74-1.79-1.42-4.27-1.89-7.46-1.03-6.45-1.12-11.92-.16-16.59Z"/>
    </clipPath>
    <clipPath id="clippath-3">
      <path class="cls-1" d="M216.51,129.8c1.48.72,2.49,1.84,2.98,3.45.49,1.61.35,3.08-.49,4.43-1.24,1.97-2.97,3.17-5.32,3.72-2.68.57-5.81.18-9.45-1.31-.08.02-15.54,4.28-15.54,4.28l14.26-27.38c.04-.07.64,10.56,6.52,13.94-.6.6-1.61,2.32-1.53,2.27,3.27-2.78,6.64-3.98,8.58-3.4Z"/>
    </clipPath>
    <filter id="luminosity-noclip-7" x="198.32" y="125.62" width="26.74" height="21.14" color-interpolation-filters="sRGB" filterUnits="userSpaceOnUse">
      <feFlood flood-color="#fff" result="bg"/>
      <feBlend in="SourceGraphic" in2="bg"/>
    </filter>
    <filter id="luminosity-noclip-8" x="198.32" y="-8349.24" width="26.74" height="32766" color-interpolation-filters="sRGB" filterUnits="userSpaceOnUse">
      <feFlood flood-color="#fff" result="bg"/>
      <feBlend in="SourceGraphic" in2="bg"/>
    </filter>
    <mask id="mask-7" x="198.32" y="-8349.24" width="26.74" height="32766" maskUnits="userSpaceOnUse"/>
    <radialGradient id="radial-gradient-7" cx="-11589.25" cy="3720.34" fx="-11589.25" fy="3720.34" r="29.25" gradientTransform="translate(-11686.09 870.15) rotate(162.9) scale(1 -.75)" xlink:href="#radial-gradient-5"/>
    <mask id="mask-6" x="198.32" y="125.62" width="26.74" height="21.14" maskUnits="userSpaceOnUse">
      <g class="cls-6">
        <g class="cls-24">
          <path class="cls-14" d="M198.68,140.15c-.82-2.68-.24-5.42,1.68-8.11,1.94-2.61,4.66-4.53,8.27-5.6,3.61-1.08,6.94-1.08,10.13-.04,3.06,1.15,5.09,3.09,5.91,5.78.82,2.68.32,5.4-1.62,8.01-2,2.71-4.72,4.62-8.31,5.78-3.61,1.08-6.94,1.08-10-.08-3.22-1.11-5.22-2.97-6.07-5.73Z"/>
        </g>
      </g>
    </mask>
    <radialGradient id="radial-gradient-8" cx="-11589.25" cy="3720.34" fx="-11589.25" fy="3720.34" r="29.25" gradientTransform="translate(-11686.09 870.15) rotate(162.9) scale(1 -.75)" xlink:href="#radial-gradient-6"/>
  </defs>
  <g id="Layer_1-2" data-name="Layer 1">
    <path class="cls-16" d="M315.27,120.93c-97.53-40-210.3-42.85-315.27.94l158.56,380.1L315.27,120.93Z"/>
    <g>
      <g id="Layer_13" data-name="Layer 13">
        <g id="Layer_1-3" data-name="Layer 1">
          <g>
            <g>
              <path d="M126.51,215.49l-.43.84-.28.48-.24.63c-7.11-1.67-13.62-5.37-19.51-11.08h.33c6.61,4.38,13.36,7.44,20.14,9.12Z"/>
              <path class="cls-27" d="M83.03,202.54c-8.39-7.53-14.05-14.2-16.9-20.02,4.64-10.63,10.89-17.26,18.61-19.71,7.63-2.5,16.59-.77,26.76,5.06,36.47,17.7,55.96,30.81,58.46,39.31,2.46,8.35-12.16,11.41-43.81,9.15l.43-.84c-6.86-1.66-13.61-4.72-20.22-9.11h-.33c5.9,5.73,12.4,9.42,19.51,11.09l.38-.75c4.29,6.24-1.02,6.89-15.93,1.96-9.6-3.16-18.64-8.5-26.97-16.12Z"/>
            </g>
            <path d="M109.56,219.9c-9.67-3.23-18.86-8.75-27.32-16.39-8.66-7.83-14.28-14.49-17.17-20.38l-.25-.5.22-.51c4.84-11.04,11.34-17.92,19.32-20.45,7.85-2.57,17.14-.84,27.61,5.16,37.15,17.98,56.5,31.07,59.13,40.01.65,2.19.31,4.12-1,5.75-1.5,1.86-6.01,7.47-42.32,5.06.64,1.25,1.15,2.91.18,4.2-.56.75-1.53,1.38-3.74,1.4-2.64.02-7.05-.81-14.67-3.33ZM126.24,215.12c30.28,2.16,39.55-1.01,42-4.05.81-1,.99-2.13.57-3.56-2.4-8.15-21.88-21.12-57.91-38.55l-.07-.04c-9.87-5.66-18.52-7.33-25.72-4.98-7.18,2.27-13.1,8.53-17.63,18.61,2.81,5.43,8.31,11.88,16.38,19.16,8.21,7.42,17.12,12.77,26.47,15.9,13.87,4.59,15.58,2.97,15.73,2.77.15-.2.1-1.07-1.17-2.91l1.25-.86.11-1.5Z"/>
          </g>
        </g>
      </g>
      <g id="Layer_18" data-name="Layer 18">
        <g id="Layer_1-4" data-name="Layer 1">
          <g>
            <path class="cls-37" d="M95.69,88.56c-11.2,35.53-5.84,71.21,15.98,106.97l.02.08c11.36,15.23,25.68,25.61,43.09,31.03,25.22,7.9,51.35,3.44,78.42-13.38q-.02-.08.05-.1c11.9-9.08,19.9-18.57,24.03-28.38,3.64-8.66,5.3-18.05,5.08-28.13h0c.03-4.29-.81-10.07-2.4-17.46-.4-2.14-1.3-5.64-2.65-10.34-2.09-7.41-3.47-12.19-4.03-14.28l-17.5-55.94c-.12-.13-.17-.28-.29-.41-.05-.15-.15-.21-.35-.31-54.29-24.59-100.69-14.53-139.24,30.27-.05.1-.18.22-.21.4M260.03,156.68c.35,9.37-1.38,18.28-5.07,26.78-2,4.72-5.03,9.33-9.1,13.85-3.55,4.02-8.38,8.26-14.28,12.83-26.29,16.33-51.77,20.75-76.4,13.1-8.81-2.76-16.55-6.43-23.31-10.99-7.28-4.9-13.45-10.82-18.67-17.77-21.06-34.65-26.21-69.64-15.21-105.02,37.61-43.51,82.81-53.37,135.75-29.63l17.77,55.19c2.89,10.85,4.97,19.02,6.2,24.69,1.52,7.17,2.31,12.79,2.33,16.98h0Z"/>
            <path class="cls-18" d="M257.69,139.7c1.52,7.17,2.34,12.87,2.33,16.98l.02.08c.25,9.32-1.4,18.2-5.02,26.68-2,4.72-5.03,9.33-9.1,13.85-3.63,4.04-8.38,8.26-14.28,12.83-26.29,16.33-51.77,20.75-76.4,13.1-8.81-2.76-16.63-6.41-23.31-10.99-7.28-4.9-13.52-10.79-18.67-17.77-21.14-34.63-26.21-69.64-15.21-105.02,37.45-43.46,82.73-53.35,135.6-29.58l17.77,55.19c2.97,10.83,5.05,19,6.27,24.66Z"/>
          </g>
        </g>
        <g class="cls-38">
          <g id="Layer_2-2" data-name="Layer 2">
            <g class="cls-2">
              <path class="cls-11" d="M131.28,167.83c-2.23-8.12-1.26-15.79,2.86-23.16,4.09-7.2,10.19-11.95,18.3-14.18,8.12-2.23,15.86-1.29,23.21,2.76,7.22,4.17,11.91,10.36,14.15,18.48,2.23,8.12,1.34,15.76-2.73,23.04-4.25,7.24-10.4,12.09-18.51,14.32-8.12,2.23-15.71,1.24-23-2.9-7.29-4.15-12.05-10.24-14.28-18.36Z"/>
            </g>
            <g class="cls-20">
              <path class="cls-9" d="M211.22,144.92c-2.23-8.12-1.26-15.79,2.86-23.16,4.09-7.2,10.19-11.95,18.3-14.18,8.12-2.23,15.86-1.29,23.21,2.76,7.22,4.17,11.91,10.36,14.15,18.48,2.23,8.12,1.34,15.76-2.73,23.04-4.23,7.32-10.38,12.17-18.49,14.4-8.12,2.23-15.71,1.24-23.02-2.98-7.22-4.17-12.05-10.24-14.28-18.36Z"/>
            </g>
          </g>
        </g>
      </g>
      <g id="Layer_11" data-name="Layer 11">
        <g id="Layer_4" data-name="Layer 4">
          <g>
            <g>
              <path d="M117.92,150.48c.07.23.22.44.31.74l-.33.02-.99.05c-.38-6.17-1.16-12.05-2.21-17.69,2.59,4.91,4.12,10.73,4.53,17.57l-.99.05c-.07-.23-.22-.44-.31-.74Z"/>
              <path class="cls-27" d="M122.8,87.11c-11.86,6.47-19.79,10.15-23.69,11.09,13.41,10.16,21.64,21.73,24.79,34.52,1.33,5.46,1.11,11.06-.58,16.78-1.63,5.36-3.32,5.88-5.04,1.62l.99-.05c-.46-6.73-1.99-12.56-4.58-17.47,1.05,5.63,1.76,11.54,2.21,17.69l.99-.05c3.91,9.79.44,18.48-10.38,26.14-6.41.7-9.99-.05-10.72-2.43l-.19-.61-4.42,1.18.09.31c-8.85,2.03-17.05,5.12-24.63,9.11-4.3-5.56-8.2-13.68-11.63-24.37l-.38-.97.38.97c3.14,10.28,4.52,16.73,4.2,19.26-.41,3.06-1.19,3.8-2.49,2.27-1.95-2.26-4.01-5.99-6.13-11.29-2.62-6.66-4.64-14.09-6.02-22.47-1.78-12.96-.68-25.28,3.17-36.85,3.66-11.09,9.6-20.45,17.66-28.11,1.51-1.38,5.24-5.37,11.36-11.94,6.31-6.79,10.82-11.52,13.63-14.14,14-18.69,29.29-32.84,45.72-42.47C154.76,4.5,172.68.03,190.81,1.46c19.49,1.51,35.63,9.33,48.51,23.5,13.65,15.03,21.68,35.3,24.2,60.86-19.66-7.83-38.2-12.82-55.75-15.09-18.94-2.43-37.09-1.75-54.64,2.01-7.12,2.51-17.23,7.27-30.32,14.37Z"/>
            </g>
            <path class="cls-17" d="M66.71,185.68l1.9-1.47c-4.19-5.43-8.07-13.49-11.51-23.97,0-.02-.01-.04-.02-.06l-.28-.92-2.3.7.28.92c3.1,10.15,4.52,16.45,4.24,18.73-.11.85-.24,1.37-.34,1.69-.01-.01-.03-.03-.04-.05-1.91-2.22-3.91-5.9-5.93-10.96-2.65-6.72-4.59-14-5.95-22.22-1.73-12.62-.68-24.83,3.12-36.28,3.55-10.76,9.38-20.05,17.35-27.62,1.49-1.27,4.95-4.96,11.44-11.91,6.98-7.51,11.03-11.72,13.57-14.08l.14-.16c13.77-18.4,29.04-32.58,45.37-42.15,17.35-10.17,35.17-14.61,52.98-13.21,19.07,1.48,35.12,9.25,47.71,23.11,13.02,14.34,20.98,33.92,23.69,58.2-18.87-7.36-37.09-12.22-54.19-14.43-18.92-2.43-37.44-1.75-55.04,2.03l-.15.04c-7.08,2.5-17.05,7.25-30.47,14.53-14.48,7.9-20.72,10.33-23.4,10.98l-2.47.6,2.03,1.53c13.06,9.89,21.25,21.28,24.35,33.85,1.26,5.18,1.07,10.62-.56,16.15-.81,2.65-1.42,3.37-1.64,3.56-.17-.14-.61-.61-1.22-2.04l-.29.12s-.02-.05-.03-.08l-.22.09.46-.28c-.09-.16-.13-.28-.19-.47l-2.3.7c.06.21.14.46.28.75l-.27.11c3.67,9.19.5,17.21-9.7,24.53-5.4.56-8.64-.02-9.13-1.62l-2.3.7c1.21,3.98,7.43,3.77,12,3.27l.31-.03.25-.18c9.64-6.83,13.7-14.59,12.11-23.13.11.01.23.02.35,0,1.57-.08,2.71-1.67,3.82-5.31,1.76-5.95,1.96-11.81.6-17.41-3.08-12.51-10.95-23.86-23.39-33.76,4.51-1.58,11.79-5.1,21.7-10.51,13.26-7.19,23.09-11.88,30.05-14.35,17.32-3.71,35.54-4.37,54.16-1.98,17.46,2.26,36.12,7.31,55.46,15.01l1.84.73-.19-1.97c-2.54-25.72-10.78-46.43-24.51-61.55C227.19,9.82,210.6,1.79,190.9.26c-18.31-1.44-36.6,3.11-54.39,13.53-16.58,9.72-32.06,24.08-46.01,42.7-2.58,2.42-6.66,6.65-13.61,14.12-5.68,6.08-9.78,10.48-11.29,11.77-8.3,7.89-14.35,17.51-18.02,28.65-3.92,11.79-5,24.37-3.22,37.39,1.39,8.43,3.39,15.86,6.1,22.75,2.12,5.31,4.26,9.22,6.34,11.64.85.99,1.71,1.37,2.56,1.11,1.37-.4,1.79-2.17,2.04-4.01.07-.6.1-1.46-.09-2.94,1.73,3.38,3.53,6.29,5.4,8.71Z"/>
          </g>
        </g>
        <g id="Layer_2-3" data-name="Layer 2">
          <path class="cls-19" d="M171.8,40c-3.86-1.93-11.77-6.82-23.8-14.58-7.78-5.01-13.6-7.4-17.37-7.2l12.38-7.9c4.64.55,10.34,3.14,17.06,7.62,10.22,6.92,16.4,10.96,18.63,12.09,17.71,9.35,38.77,9.13,63.11-.64l7.68,8.87c-27.65,13.18-53.53,13.72-77.7,1.74Z"/>
          <path class="cls-19" d="M170.38,54.78c-3.66-1.82-13.07-7.3-28.19-16.61-9.81-6.03-17.69-9.27-23.65-9.8l7.05-6.43c4.49.6,11.82,3.65,22,9.25,14.38,7.85,24.17,12.9,29.46,15.18,27.89,12.21,53.54,12.64,77.03,1.27l4.3,10.21c-16.9,5.98-33.44,8.45-49.8,7.29-12.96-.84-25.64-4.34-38.2-10.37Z"/>
          <path class="cls-19" d="M114.36,117.1c1.39.74,3.26,3.22,5.41,7.59,2.1,4.18,3.06,6.81,2.88,7.9-11.62-8.2-24.67-9.13-39.21-2.98-3.71,1.58-8.72,4.06-14.91,7.4-4.9,2.44-8.44,3.36-10.73,2.77-2.95-.82-5.99-3.68-8.87-8.57l-3.38-7.13,2.95-10.82,3.44,9.92c2.9,6.65,5.79,10.29,8.75,10.69,1.37.23,3.54-.91,6.55-3.33,5.16-4.08,8.47-6.69,10.18-7.8,10.88-6.97,23.27-8.86,36.96-5.62Z"/>
          <path class="cls-19" d="M99.02,129.46c6.33-.58,14.18.76,23.6,4.16,1.47.51,2.43,3.08,2.77,7.64.19,3.11.17,5.77-.12,8.02-7.71-6.28-14.52-9.56-20.35-9.87-4.38-.21-9.27,1.38-14.58,4.76-.08.02-2.37,1.65-6.85,4.71-2.93,2.05-5.5,3.59-7.69,4.69-6.48,3.36-13.31,4.82-20.58,4.41-3.29-.18-6.43-2.81-9.46-7.79-.32-.58-.65-1.15-.97-1.73l.87-16.79,1.1,3.11c.93,2.49,1.9,4.8,2.96,6.84,3.38,6.55,6.6,9.49,9.7,8.97,5.41-.9,10.37-3.1,15-6.54,4.82-4.24,8.41-7.22,10.9-9.07,4.21-3.15,8.85-5.01,13.7-5.52Z"/>
        </g>
        <g id="Layer_10" data-name="Layer 10">
          <path class="cls-17" d="M66.71,185.68l1.9-1.47c-4.19-5.43-8.07-13.49-11.51-23.97,0-.02-.01-.04-.02-.06l-.3-1-2.3.7.3,1c3.1,10.15,4.52,16.45,4.24,18.73-.11.85-.24,1.37-.34,1.69-.01-.01-.03-.03-.04-.05-1.91-2.22-3.91-5.9-5.93-10.96-2.65-6.72-4.59-14-5.95-22.22-1.73-12.62-.68-24.83,3.12-36.28,3.55-10.76,9.38-20.05,17.35-27.62,1.49-1.27,4.95-4.96,11.44-11.91,6.98-7.51,11.03-11.72,13.57-14.08l.14-.16c13.77-18.4,29.04-32.58,45.37-42.15,17.35-10.17,35.17-14.61,52.98-13.21,19.07,1.48,35.12,9.25,47.71,23.11,13.02,14.34,20.98,33.92,23.69,58.2-18.87-7.36-37.09-12.22-54.19-14.43-18.92-2.43-37.44-1.75-55.04,2.03l-.15.04c-7.08,2.5-17.05,7.25-30.47,14.53-14.48,7.9-20.72,10.33-23.4,10.98l-2.47.6,2.03,1.53c13.06,9.89,21.25,21.28,24.35,33.85,1.26,5.18,1.07,10.62-.56,16.15-.81,2.65-1.42,3.37-1.64,3.56-.17-.14-.6-.6-1.2-2-.05-.14-.11-.27-.18-.41-.04-.08-.08-.16-.11-.26l-2.3.7c.07.23.16.42.24.6.02.05.05.09.06.14l-.29.12c3.67,9.19.5,17.21-9.7,24.53-5.4.56-8.64-.02-9.13-1.62l-2.3.7c1.21,3.98,7.43,3.77,12,3.27l.31-.03.25-.18c9.64-6.83,13.7-14.59,12.11-23.13.11.01.23.02.35,0,1.57-.08,2.71-1.67,3.82-5.31,1.76-5.95,1.96-11.81.6-17.41-3.08-12.51-10.95-23.86-23.39-33.76,4.51-1.58,11.79-5.1,21.7-10.51,13.26-7.19,23.09-11.88,30.05-14.35,17.32-3.71,35.54-4.37,54.16-1.98,17.46,2.26,36.12,7.31,55.46,15.01l1.84.73-.19-1.97c-2.54-25.72-10.78-46.43-24.51-61.55C227.19,9.82,210.6,1.79,190.9.26c-18.31-1.44-36.6,3.11-54.39,13.53-16.58,9.72-32.06,24.08-46.01,42.7-2.58,2.42-6.66,6.65-13.61,14.12-5.68,6.08-9.78,10.48-11.29,11.77-8.3,7.89-14.35,17.51-18.02,28.65-3.92,11.79-5,24.37-3.22,37.39,1.39,8.43,3.39,15.86,6.1,22.75,2.12,5.31,4.26,9.22,6.34,11.64.85.99,1.71,1.37,2.56,1.11,1.37-.4,1.79-2.17,2.04-4.01.07-.6.1-1.46-.09-2.94,1.73,3.38,3.53,6.29,5.4,8.71Z"/>
        </g>
        <g id="Layer_3" data-name="Layer 3">
          <path class="cls-17" d="M59.91,136.5c-.44-8.58.09-16.46,1.51-23.6,1.35-7.12,5.71-17.26,12.9-30.52-8.8,13.75-13.64,24.54-14.57,32.2-1.01,7.69-.94,15.04.15,21.92M77.64,79.52c18.29-7.93,32.2-12.35,41.76-13.42,9.59-1,20.06-.76,31.41.72-8.95-2.13-18.62-3.04-28.92-2.74-10.23.27-25,5.45-44.25,15.44M138.48,41.25c-7.42,1.51-14.94,4.06-22.54,7.72-11.56,5.54-22.22,13.16-32.19,22.82l.15.21c10.7-8.89,21.69-16.01,33.01-21.48l.08-.02c7.01-3.4,14.19-6.51,21.49-9.25Z"/>
        </g>
        <g id="Layer_5" data-name="Layer 5">
          <g>
            <path class="cls-27" d="M96.65,97.28l.94-10.1c14.88-7.56,32.81-12.53,53.85-15.02l-.36-.9c.18.03.25,0,.43.04,8.85,1.24,16.02,2.49,21.39,3.61,5.73,1.19,10.14,2.44,13.32,3.81,2.51,1.08,3.95,2.23,4.3,3.38-.03.18-.37.45-.93.79-1.1.5-2.89.97-5.21,1.34-9.22,1.39-18.73,2.36-28.51,3l-.1-.05-.08.02c-24.52,3.46-44.21,6.79-59.05,10.07Z"/>
            <path class="cls-17" d="M99.1,99.8l-4.1-2.18c.94-.2,1.5-.29,1.66-.34,14.85-3.28,34.54-6.61,59.13-10.09l.08-.02h0c9.78-.64,19.27-1.69,28.51-3,2.39-.4,4.11-.83,5.21-1.34.57-.34.83-.59.93-.79-.35-1.15-1.79-2.3-4.3-3.38-3.19-1.37-7.59-2.63-13.22-3.76-5.47-1.18-12.55-2.37-21.39-3.61l.08-.28c17.73.96,29.98,2.92,36.66,5.83,3.49,1.53,5.35,3.23,5.65,5.06l.02.08c.4,1.3-.34,2.45-2.16,3.34-1.31.65-3.25,1.16-5.92,1.47-5.04.78-15.01,1.65-29.77,2.72-24.75,3.53-43.73,6.98-57.06,10.29Z"/>
          </g>
        </g>
        <g id="Layer_6" data-name="Layer 6">
          <g>
            <path class="cls-27" d="M93.75,57.59l.14,1.3-16.84,17.05c-1.01,2.99-2.32,3.39-3.96,1.04,2.58-11.6,8.54-23.65,17.79-36.2,1.6-2.17,3.01-3.86,4.19-5.22,1.2-1.29,2.53-2.7,4.17-4.21h0c2.57-2.29,4.3-3.49,5.29-3.54.2.11.27.34.31.74-.08,1.11-.5,2.75-1.34,4.94-1.42,3.87-2.67,7.19-3.65,9.75-1.92,4.69-3.89,9.49-6.1,14.35Z"/>
            <path class="cls-17" d="M93.9,58.88l-.14-1.3c2.2-4.86,4.2-9.58,5.97-14.23.98-2.56,2.23-5.88,3.65-9.75.84-2.19,1.26-3.82,1.34-4.94-.02-.33-.11-.64-.31-.74-.99.05-2.72,1.25-5.29,3.54h0c-1.56,1.48-2.99,2.84-4.17,4.21-1.18,1.37-2.59,3.05-4.19,5.22-9.19,12.45-15.06,24.55-17.63,36.15l-1.46.44c2.23-12.75,8-25.42,17.3-38.07,3.33-4.46,6.63-8.23,9.85-11.14h0c3.27-3.01,5.62-4.4,7.03-4.16,1.67,0,2.51,1.08,2.46,3.11,0,1.34-.44,3.24-1.42,5.8-2.09,5.5-6.39,13.94-12.92,25.24l-.07.61Z"/>
          </g>
        </g>
        <g id="Layer_7" data-name="Layer 7">
          <g>
            <path class="cls-27" d="M57.98,71.69h0c5.21,1.43,10.96,3.78,17.12,6.93l-.18-.03c.27.34-1.96,2.11-6.71,5.49-9.29-2.7-16-5.18-20.03-7.38-1.63-.93-2.77-1.67-3.41-2.39-.25-.26-.34-.57-.31-.74,2.31-3.14,6.74-3.74,13.52-1.86Z"/>
            <path class="cls-17" d="M42.89,75.8c-1.16-1.32-1.28-2.54-.44-3.64,2.69-4.09,8.02-5.05,16.1-2.74h0c5.77,1.59,11.27,4.52,16.29,8.86l.27.34c-6.16-3.15-11.91-5.5-17.12-6.93h0c-6.7-1.9-11.2-1.27-13.44,1.84-.03.18.06.48.31.74.64.73,1.79,1.47,3.41,2.4,4.13,2.26,10.74,4.69,20.03,7.38l.08-.02-.34.27c-9.83-1.44-16.86-3.32-20.99-5.58-2.08-1.04-3.45-1.96-4.16-2.92Z"/>
          </g>
        </g>
        <path class="cls-17" d="M119.3,151.16l-2.37.15c-.38-6.22-1.16-12.07-2.2-17.69,2.58,4.86,4.12,10.76,4.57,17.54Z"/>
      </g>
      <g id="Layer_10-2" data-name="Layer 10">
        <g>
          <path class="cls-36" d="M229.98,78.56c-5.96-5.35-11.43-8.58-16.51-9.52-5.63-1.11-9.94.74-12.89,5.46-.73-5.37-1.12-8.92-1.06-10.52.06-3.43,1.06-6.11,2.94-8.04,2.49-2.43,6.1-2.01,10.95,1.4,5.56,3.88,11.09,11,16.57,21.22Z"/>
          <path class="cls-34" d="M213.22,70.14c-5.13-1.02-8.94.59-11.63,4.91l-1.76,2.83-.45-3.3c-.79-5.83-1.11-9.03-1.07-10.7.06-3.71,1.17-6.69,3.31-8.89,2.96-2.89,7.16-2.46,12.48,1.28,5.69,4.04,11.4,11.34,16.95,21.72l-1.86,1.46c-5.92-5.31-11.14-8.35-15.96-9.31ZM203.31,56.7c-1.68,1.72-2.55,4.15-2.6,7.23-.03,1.22.19,3.61.67,7.43,3.11-3.37,7.24-4.58,12.31-3.57,3.8.75,7.78,2.65,12.05,5.76-4.34-7.11-8.71-12.24-13.04-15.31-3.02-2.12-5.12-2.74-6.57-2.73-1.62.01-2.43.81-2.82,1.19Z"/>
        </g>
      </g>
      <g id="Layer_9" data-name="Layer 9">
        <g>
          <path class="cls-36" d="M134.11,81.97c1.19-3.82,2.43-6.57,3.7-8.33,2.56-3.7,5.69-5.31,9.15-4.84,4.31.56,7.77,4.68,10.23,12.41-4.97-.54-9.85.46-14.64,3.03-4.92,2.68-8.45,6.48-10.48,11.2-.11-4.04.48-8.53,2.04-13.45Z"/>
          <path class="cls-34" d="M130.97,95.54c-.23-4.35.44-9.03,1.99-13.93,1.22-4.04,2.51-6.89,3.96-8.72,2.8-4.03,6.25-5.82,10.27-5.32,4.83.63,8.5,4.95,11.22,13.22l.59,1.8-1.88-.23c-4.69-.58-9.23.39-13.91,2.98-4.68,2.47-8.01,6.03-9.93,10.6l-2.31-.4ZM155.51,79.82c-2.28-6.1-5.19-9.41-8.63-9.86-3.1-.39-5.72,1.03-8.01,4.34l-.05.07c-1.26,1.58-2.43,4.18-3.56,7.95v.02c-.91,2.85-1.49,5.61-1.76,8.26,2.14-3.02,5-5.49,8.56-7.37,4.04-2.24,8.16-3.39,12.28-3.42.39,0,.78,0,1.17.02Z"/>
        </g>
      </g>
      <g id="Layer_8" data-name="Layer 8">
        <g id="Layer_1-5" data-name="Layer 1">
          <g>
            <path class="cls-35" d="M82.86,184.69c-1.2-3.18-1.34-6.15-.52-9.02.83-3.11,2.78-5.79,5.92-7.9l-.07.02c4.65-2.96,9.73-3.74,15.41-2.31,1.99.47,4,1.48,5.99,2.95,2.59,1.91,5.35,5.39,8.18,10.38h0l.76,14.11.07-.02c-.29.32-.58.64-.86.96l-.05.09-.07.02-.07.02h0c-1.59,1.87-3.52,3.39-5.72,4.52-3.31,1.78-7.75,1.9-13.2.48-3.74-1.4-7.05-3.4-9.95-6.06h0c-2.72-2.33-4.65-5.13-5.83-8.24Z"/>
            <path class="cls-37" d="M85.46,165.69c2.58-1.64,5.53-2.61,8.8-3,3.21-.36,6.42-.19,9.69.67,3.08.76,5.57,2.08,7.58,3.86.73.63,1.57,1.6,2.47,2.79,1.83,2.45,3.04,5.16,3.66,8.21l.03.61c-2.93-5.04-5.69-8.52-8.18-10.38-1.99-1.47-4-2.48-5.99-2.95-5.68-1.43-10.76-.65-15.41,2.31l.07-.02c-3.13,2.11-5.09,4.79-5.92,7.9-.82,2.87-.59,5.89.52,9.02,1.16,3.04,3.12,5.91,5.85,8.55h0c2.9,2.66,6.2,4.66,9.95,6.06,5.45,1.42,9.86,1.23,13.2-.48,2.18-1.2,4.11-2.72,5.71-4.52l.05-.09.07-.02.05-.09c.29-.32.58-.64.86-.96l-.07.02c.07-.02.05-.09.12-.11l.88,1.12c-1.3,2.32-3.45,4.37-6.38,5.88-4.73,2.45-9.76,2.9-14.94,1.32l-.07.02-.09-.05c-5.13-1.9-9.16-4.22-12.07-6.96-3.03-2.85-5.24-6.04-6.5-9.43-1.35-3.67-1.55-7.09-.6-10.31.93-3.52,3.18-6.52,6.67-8.98h0Z"/>
          </g>
        </g>
        <g id="Layer_2-4" data-name="Layer 2">
          <g class="cls-22">
            <path class="cls-8" d="M75.71,175.62c3.01-4.73,7.82-8.06,14.42-10.07,6.59-2.01,13.04-2.12,19.29-.22,6.2,1.99,10.37,5.33,12.61,10,2.26,4.74,1.84,9.48-1.17,14.2-3.06,4.82-7.95,8.18-14.54,10.19-6.59,2.01-12.91,2-19.09.08-6.25-1.9-10.5-5.22-12.76-9.95-2.31-4.64-1.89-9.38,1.24-14.23Z"/>
          </g>
        </g>
        <g id="Layer_3-2" data-name="Layer 3">
          <path class="cls-37" d="M102.79,176.5c3.1,2.46,4.49,4.38,4.16,5.94-3.06-3.92-5.96-5.47-8.78-4.61-.67.2-1,.71-.9,1.57.11.62.31,1.28.71,2.05.89,1.59,2.23,2.8,3.73,3.48,1.5.68,3.31.77,5.31.4,2.51,2.64,2.82,4.73.72,6.34-1.77,1.35-4.14,1.83-7.17,1.46,2.16.72,4.19.99,5.96.69,1.48-.21,2.62-.72,3.4-1.6.83-.98,1.09-2.28.69-3.85-.33-1.36-1.03-2.84-2.12-4.29,1.02-1.44.53-3.32-1.57-5.67-2.48-2.81-6.39-5.01-11.64-6.57,2.76,1.34,5.27,2.93,7.5,4.67M99.84,178.78c1.52-.06,3.68,1.71,6.51,5.14-1.04.32-2.19.26-3.55-.21-1.34-.4-2.35-1.06-3.04-1.99-.45-.67-.78-1.22-.86-1.76-.23-.74.05-1.15.94-1.18Z"/>
        </g>
      </g>
      <g id="Layer_4-2" data-name="Layer 4">
        <g>
          <path class="cls-37" d="M215.21,83.53c-3.42.86-6.24,2.71-8.62,5.53-2.23,2.78-3.73,6.68-4.57,11.82-.62,4.08-.32,9.4.86,16.15,1.23,6.9,3.1,11.29,5.56,13.27l.2.11c2.25,1.54,5.5,2.15,9.75,1.89,4-.27,8.11-1.07,12.35-2.57,4.32-1.52,7.74-3.29,10.16-5.37,2.5-2.1,3.94-4.41,4.25-6.91v-.33c-.55-5.59-1.87-10.71-4.08-15.43-1.6-3.39-3.56-6.59-5.74-9.4l.02.08c-3.11-4.05-6.42-6.72-9.86-8.02-3.48-1.46-6.87-1.69-10.29-.83M236.48,98.56c.85,1.26,1.66,2.7,2.32,4.19,2.54,5.29,4.03,10.12,4.41,14.51-.16,1.54-1.44,3.22-3.81,5.21-2.31,1.88-5.44,3.49-9.46,4.93-4.03,1.36-7.96,2.19-11.71,2.47-3.85.23-6.79-.21-8.69-1.35-1.79-1.67-3.3-5.66-4.42-11.84l.02.08c-.51-2.77-.81-5.35-.88-7.74-.01-2.16.21-4.38.58-6.65.57-3.98,1.97-7.36,4.2-10.14l-.08.02c2.01-2.38,4.48-3.98,7.34-4.76h0c2.78-.77,5.74-.58,8.73.59,3.24,1.19,6.11,3.48,8.6,6.78,1.26,1.57,2.19,2.81,2.85,3.71Z"/>
          <path class="cls-32" d="M225,87.99c3.26,1.27,6.13,3.55,8.6,6.78,1.26,1.57,2.21,2.89,2.87,3.78.95,1.32,1.74,2.68,2.32,4.19,2.54,5.29,3.95,10.14,4.41,14.51-.18,1.46-1.44,3.22-3.81,5.21-2.31,1.88-5.44,3.49-9.46,4.93-4.03,1.36-7.96,2.19-11.71,2.47-3.92.25-6.79-.21-8.69-1.35-1.79-1.67-3.3-5.66-4.42-11.84l-.02-.08c-.51-2.77-.81-5.35-.88-7.74-.01-2.16.13-4.36.58-6.65.57-3.98,1.97-7.36,4.2-10.14l-.08.02c2.01-2.38,4.48-3.98,7.34-4.76h0c2.88-.71,5.77-.5,8.75.67Z"/>
        </g>
        <g>
          <path class="cls-37" d="M137.44,118.56c-.85,4.47-.7,10.17.38,17.11,1.18,7.33,3.24,12.08,5.9,14.18l.12.13c2.51,1.56,6.16,2.13,10.9,1.83,4.39-.38,9.03-1.32,13.82-2.97,4.86-1.67,8.75-3.57,11.54-5.83,2.86-2.28,4.5-4.81,4.92-7.51v-.25c-.36-5.89-1.69-11.34-4.09-16.42-1.66-3.62-3.74-6.95-6.15-9.95-3.33-4.24-6.91-7-10.7-8.37-3.73-1.47-7.55-1.75-11.34-.71-3.81.96-7.07,3.03-9.72,6.08-2.73,3.08-4.56,7.32-5.58,12.68M153.78,103.59l-.02-.08c3.35-.84,6.64-.66,9.97.58,3.46,1.38,6.6,3.76,9.37,7.15,2.31,2.94,4.25,6.07,5.84,9.45,1.25,2.73,2.16,5.14,2.79,7.13.66,2.4,1.07,4.78,1.24,7.23-.38,1.93-1.86,3.84-4.45,5.88-2.65,2.14-6.23,3.96-10.78,5.54-4.55,1.59-8.95,2.54-13.18,2.88-4.23.33-7.36-.14-9.53-1.37-1.11-1.02-1.98-2.37-2.7-4.08-.74-1.79-1.35-4.29-1.89-7.46-1.06-6.28-1.15-11.74-.19-16.41.87-4.4,2.51-8.09,5.03-11.03,2.35-2.64,5.19-4.42,8.49-5.41Z"/>
          <path class="cls-32" d="M140.26,120.03c.87-4.4,2.54-8.02,5.03-11.03,2.35-2.64,5.19-4.42,8.46-5.24l-.02-.08c3.27-.82,6.56-.64,9.97.58,3.53,1.36,6.68,3.73,9.37,7.15,2.31,2.94,4.25,6.07,5.84,9.45,1.25,2.73,2.22,5.04,2.79,7.13.64,2.32,1.07,4.78,1.24,7.23-.38,1.93-1.86,3.84-4.45,5.88-2.65,2.14-6.23,3.96-10.78,5.54-4.55,1.59-8.97,2.47-13.18,2.88-4.23.33-7.36-.14-9.53-1.37-1.11-1.02-1.98-2.37-2.7-4.08-.74-1.79-1.42-4.27-1.89-7.46-1.03-6.45-1.12-11.92-.16-16.59Z"/>
        </g>
        <g class="cls-28">
          <g>
            <path d="M222.5,94.49c.34-2.76,1.53-4.69,3.51-5.76,2.05-1.1,4.34-.98,6.78.32,2.5,1.27,4.54,3.39,6.07,6.3,1.53,2.91,2.16,5.82,1.75,8.61-.34,2.76-1.46,4.66-3.58,5.79-1.98,1.07-4.27.95-6.78-.32-2.54-1.34-4.57-3.46-6.1-6.38-1.39-2.8-2.02-5.71-1.65-8.58Z"/>
            <path class="cls-32" d="M235.88,102.73c-.72.36-1.54.32-2.47-.12-.93-.43-1.64-1.16-2.18-2.23-.6-1.04-.85-2.08-.74-3.12.15-.97.62-1.65,1.3-2.07.72-.36,1.51-.39,2.44.05.89.54,1.64,1.33,2.25,2.38.53,1.08.74,2.05.63,3.09-.04,1-.51,1.68-1.23,2.04Z"/>
            <path class="cls-32" d="M229.23,97.79c-.07.57-.33.97-.83,1.22-.43.21-.86.25-1.51.03-.5-.29-.93-.79-1.32-1.4-.39-.61-.46-1.29-.39-1.87.15-.61.36-1.07.79-1.29.43-.21.97-.21,1.47.08.5.29,1,.76,1.32,1.4.39.61.5,1.19.46,1.83Z"/>
          </g>
        </g>
        <g class="cls-30">
          <g>
            <path d="M161.92,104.52c2.44-1.22,5.2-.99,8.16.65,2.96,1.63,5.32,4.26,7.01,7.72,1.79,3.5,2.4,6.93,1.98,10.21-.5,3.32-2,5.61-4.45,6.82-2.44,1.22-5.09,1.03-8.13-.58-2.96-1.63-5.32-4.26-7.11-7.76-1.72-3.53-2.33-6.96-1.83-10.28.5-3.32,1.93-5.57,4.37-6.79Z"/>
            <path class="cls-32" d="M174.11,115.05c.61,1.31.85,2.61.71,3.82-.18,1.14-.78,1.95-1.65,2.35-.87.4-1.84.41-2.9-.16-1.06-.57-1.89-1.6-2.57-2.88-.68-1.28-.89-2.5-.75-3.72.15-1.22.74-2.02,1.62-2.43.87-.4,1.88-.34,2.93.23,1.17.61,1.96,1.57,2.6,2.77Z"/>
            <path class="cls-32" d="M161.6,111.11c.51-.24,1.12-.25,1.72.09.67.31,1.23.94,1.6,1.74s.53,1.52.4,2.2c-.13.68-.43,1.17-.91,1.48-.51.24-1.12.25-1.75-.16-.67-.31-1.19-.86-1.56-1.66-.37-.8-.53-1.52-.4-2.2.1-.75.4-1.24.91-1.48Z"/>
          </g>
        </g>
      </g>
      <g id="Layer_19" data-name="Layer 19">
        <g id="Layer_2-5" data-name="Layer 2">
          <g>
            <path class="cls-35" d="M216.41,129.83c1.48.72,2.49,1.84,2.98,3.45.49,1.61.35,3.08-.49,4.43-1.24,1.97-2.97,3.17-5.32,3.72-2.68.57-5.81.18-9.45-1.31l-.08.02,4.04-7.1c.05-.1.21-.15.49-.32,3.26-2.5,5.9-3.48,7.84-2.9Z"/>
            <path class="cls-37" d="M217.64,127.52c2.13.94,3.56,2.6,4.29,4.98.68,2.22.4,4.32-.82,6.37-1.28,2.4-3.68,3.89-7.06,4.34-3.54.49-6.81-.35-9.88-2.43-.12-.13-.25-.26-.27-.34-.22-.18-.17-.28.16-.3l.08-.02c3.64,1.49,6.8,1.95,9.45,1.31,2.35-.55,4.15-1.77,5.32-3.72.77-1.32.98-2.82.49-4.43-.49-1.61-1.53-2.8-2.98-3.45-1.94-.58-4.58.39-7.84,2.9-.28.17-.44.22-.49.32-.08.02-.23.07-.34.27l.53-.75c.03-.18.16-.3.34-.52,1.42-1.94,2.93-3.32,4.37-4.1,1.65-.92,3.12-1.04,4.65-.41h0Z"/>
          </g>
        </g>
        <g class="cls-29">
          <g id="Layer_3-3" data-name="Layer 3">
            <g class="cls-25">
              <path class="cls-10" d="M198.68,140.15c-.82-2.68-.24-5.42,1.68-8.11,1.94-2.61,4.66-4.53,8.27-5.6,3.61-1.08,6.94-1.08,10.13-.04,3.06,1.15,5.09,3.09,5.91,5.78.82,2.68.32,5.4-1.62,8.01-2,2.71-4.72,4.62-8.31,5.78-3.61,1.08-6.94,1.08-10-.08-3.22-1.11-5.22-2.97-6.07-5.73Z"/>
            </g>
          </g>
        </g>
      </g>
      <g>
        <path class="cls-4" d="M236.01,164.29s-3.07,23.12-12.62,32c-6.83,6.35-16.97,8.93-29.07,9.49-13.85-.38-20.13-2.76-27.06-9-9.69-8.73-13.14-31.79-13.14-31.79,0,0,14.43,12.18,41.06,11.93,25.93-.24,40.84-12.64,40.84-12.64Z"/>
        <g>
          <path class="cls-32" d="M195.28,189.52c-15.86.19-27.37-5.8-31.99-8.7-1.36-.85-2.07-2.45-1.79-4.03l1.18-6.63c6.89,3.29,17.85,6.91,32.49,6.77,14.73-.13,25.9-4.19,32.8-7.68.01,2.19.11,5.08.19,7.05.05,1.42-.65,2.75-1.86,3.5-4.6,2.87-16.8,9.55-31.02,9.72Z"/>
          <path class="cls-31" d="M162.87,181.5c-1.65-1.03-2.5-2.94-2.16-4.85l1.36-7.66.95.45c6.56,3.13,17.46,6.83,32.14,6.69,14.65-.13,25.73-4.2,32.45-7.59l1.16-.58v1.29c.02,2.17.11,5.02.19,7.02.06,1.7-.79,3.31-2.23,4.21-4.65,2.9-17.02,9.67-31.43,9.84h-.17c-16.16.15-27.93-6.12-32.25-8.82ZM195.27,188.72c14.01-.17,26.07-6.77,30.6-9.6.96-.6,1.52-1.67,1.48-2.79-.06-1.64-.14-3.85-.17-5.8-6.95,3.34-17.86,7.07-32.01,7.2-14.29.13-25.1-3.31-31.89-6.41l-.99,5.6c-.22,1.27.34,2.53,1.43,3.21,4.2,2.63,15.65,8.72,31.38,8.58h.17Z"/>
        </g>
        <g>
          <path class="cls-32" d="M195.04,199.73c18.72.25,33.6-10.65,33.98-11.38h0c-1.55,3.1-3.41,5.9-5.61,7.94-6.83,6.35-16.97,8.93-29.07,9.49-13.85-.38-20.13-2.76-27.06-9-2.02-1.81-3.76-4.25-5.26-6.97-.11-.21,11.12,9.62,33.02,9.91Z"/>
          <path class="cls-31" d="M166.74,197.39c-1.93-1.74-3.76-4.15-5.43-7.18l-.31-.57.49-.42c.49-.43.99-.06,1.2.1,2.93,2.19,13.91,9.37,32.36,9.61h0c19.17.26,33.22-10.92,33.32-11.04l.63.44.74.38c-1.74,3.48-3.69,6.23-5.78,8.17-6.35,5.9-16.02,9.08-29.64,9.71-13.55-.37-20.25-2.61-27.58-9.2ZM195.03,200.53c-14.96-.2-25.02-4.71-30.36-7.95,1.01,1.43,2.06,2.64,3.14,3.62,7.08,6.38,13.29,8.43,26.49,8.79,13.16-.61,22.51-3.65,28.56-9.28,1.25-1.16,2.46-2.65,3.59-4.45-5.59,3.58-17.62,9.44-31.43,9.27Z"/>
        </g>
        <path class="cls-33" d="M240.92,164.39c.21-1.34-.14-2.74-.91-3.85-.79-1.14-2.03-1.88-3.39-2.13-.77-.14-1.56-.1-2.31.11-.61.17-.87-.77-.27-.94,1.59-.44,3.33-.22,4.77.59,1.42.79,2.45,2.16,2.9,3.72.26.9.3,1.83.15,2.76-.04.26-.36.41-.6.35-.28-.07-.39-.34-.35-.6h0Z"/>
        <path class="cls-33" d="M157.03,159.52c-1.44-1.02-3.33-1.15-4.95-.49-1.61.66-2.72,2.15-3.14,3.81-.24.95-.27,1.95-.06,2.9.13.61-.8.88-.94.27-.43-1.97-.05-4.13,1.15-5.77,1.21-1.66,3.15-2.63,5.22-2.58,1.14.03,2.28.36,3.21,1.03.21.15.32.42.18.67-.12.21-.45.34-.67.18h0Z"/>
        <path class="cls-33" d="M194.21,206.86c-13.66-.37-20.42-2.63-27.83-9.31-9.9-8.91-13.38-31.55-13.53-32.51l-.47-3.14,2.43,2.04c.14.12,14.45,11.89,40.28,11.65,25.16-.23,39.93-12.24,40.08-12.36l2.37-1.96-.4,3.04c-.13.96-3.24,23.65-13,32.73-6.42,5.97-16.18,9.18-29.84,9.81h-.04s-.04,0-.04,0ZM195.11,178.01c-20.75.19-34.12-6.95-39.36-10.41,1.28,6.4,4.97,21.64,12.23,28.17,6.99,6.29,13.13,8.33,26.25,8.69,13.04-.61,22.29-3.61,28.27-9.17,7.17-6.67,10.62-22.05,11.78-28.43-5.25,3.5-18.81,10.96-39.17,11.15Z"/>
      </g>
    </g>
  </g>
</svg>