<?xml version="1.0" encoding="UTF-8"?>
<svg id="Layer_2" data-name="Layer 2" xmlns="http://www.w3.org/2000/svg" xmlns:xlink="http://www.w3.org/1999/xlink" viewBox="0 0 255.3 261.86">
  <defs>
    <style>
      .cls-1 {
        mask: url(#mask);
      }

      .cls-2 {
        fill: #f8a67a;
      }

      .cls-3 {
        filter: url(#luminosity-noclip);
      }

      .cls-4 {
        fill: #ed2f26;
      }

      .cls-5 {
        fill: #f8a678;
      }

      .cls-6 {
        fill: #281410;
      }

      .cls-7 {
        filter: url(#luminosity-noclip-3);
      }

      .cls-8 {
        fill: url(#radial-gradient-7);
      }

      .cls-9 {
        fill: url(#radial-gradient-5);
      }

      .cls-10 {
        fill: url(#radial-gradient-4);
      }

      .cls-11 {
        fill: url(#radial-gradient-2);
      }

      .cls-12 {
        fill: url(#radial-gradient);
      }

      .cls-13 {
        fill: url(#linear-gradient);
      }

      .cls-14 {
        mask: url(#mask-2);
      }

      .cls-15 {
        mask: url(#mask-3);
      }

      .cls-16 {
        mask: url(#mask-4);
      }

      .cls-17 {
        mask: url(#mask-5);
      }

      .cls-18 {
        mask: url(#mask-1);
      }

      .cls-19 {
        fill: #fff;
      }

      .cls-20 {
        fill: #c5763f;
      }

      .cls-21 {
        fill: url(#radial-gradient-3);
      }

      .cls-21, .cls-22 {
        mix-blend-mode: multiply;
      }

      .cls-22 {
        fill: url(#radial-gradient-6);
      }

      .cls-23 {
        fill: #9a1c20;
      }

      .cls-24 {
        fill: #49241b;
      }

      .cls-25 {
        fill: #aa602f;
      }

      .cls-26 {
        fill: #e5252a;
      }

      .cls-27 {
        fill: #be6e35;
      }
    </style>
    <linearGradient id="linear-gradient" x1="-690.88" y1="1141.86" x2="-682.87" y2="1169.37" gradientTransform="translate(-200.59 1442.82) rotate(44.04) scale(1 -1)" gradientUnits="userSpaceOnUse">
      <stop offset=".02" stop-color="#f5895c"/>
      <stop offset=".97" stop-color="#f8a678"/>
    </linearGradient>
    <radialGradient id="radial-gradient" cx="-745.57" cy="1014.83" fx="-745.57" fy="1014.83" r="12.46" gradientTransform="translate(-29.17 1610.71) rotate(44.04) scale(1.18 -1.18)" gradientUnits="userSpaceOnUse">
      <stop offset=".02" stop-color="#f5895c"/>
      <stop offset=".97" stop-color="#f8a678"/>
    </radialGradient>
    <radialGradient id="radial-gradient-2" cx="-654.9" cy="1087.98" fx="-654.9" fy="1087.98" r="18.64" gradientTransform="translate(-153 1346.94) rotate(44.04) scale(1 -1)" xlink:href="#radial-gradient"/>
    <mask id="mask" x="76.67" y="-365.6" width="321.24" height="447.77" maskUnits="userSpaceOnUse"/>
    <filter id="luminosity-noclip" x="98.14" y="69.21" width="20.43" height="17.08" color-interpolation-filters="sRGB" filterUnits="userSpaceOnUse">
      <feFlood flood-color="#fff" result="bg"/>
      <feBlend in="SourceGraphic" in2="bg"/>
    </filter>
    <filter id="luminosity-noclip-2" x="98.14" y="-8262.87" width="20.43" height="32766" color-interpolation-filters="sRGB" filterUnits="userSpaceOnUse">
      <feFlood flood-color="#fff" result="bg"/>
      <feBlend in="SourceGraphic" in2="bg"/>
    </filter>
    <mask id="mask-2" x="98.14" y="-8262.87" width="20.43" height="32766" maskUnits="userSpaceOnUse"/>
    <radialGradient id="radial-gradient-3" cx="-747.1" cy="933.93" fx="-747.1" fy="933.93" r="8.74" gradientTransform="translate(-145.61 1741.68) rotate(44.04) scale(1.3 -1.47)" gradientUnits="userSpaceOnUse">
      <stop offset=".02" stop-color="#fff"/>
      <stop offset="1" stop-color="#000"/>
    </radialGradient>
    <mask id="mask-1" x="98.14" y="69.21" width="20.43" height="17.08" maskUnits="userSpaceOnUse">
      <g class="cls-3">
        <g class="cls-14">
          <path class="cls-21" d="M111.9,86.23c2.59-.26,4.48-1.32,5.67-3.17,1.19-1.89,1.32-4.01.4-6.35-1.01-2.33-2.77-4.22-5.29-5.66-2.56-1.43-5.17-2.03-7.83-1.78-2.62.33-4.51,1.43-5.67,3.3-1.23,1.85-1.37,3.94-.43,6.26,1.01,2.33,2.78,4.23,5.32,5.69,2.54,1.41,5.15,1.99,7.83,1.72Z"/>
        </g>
      </g>
    </mask>
    <radialGradient id="radial-gradient-4" cx="-747.1" cy="933.93" fx="-747.1" fy="933.93" r="8.74" gradientTransform="translate(-145.61 1741.68) rotate(44.04) scale(1.3 -1.47)" gradientUnits="userSpaceOnUse">
      <stop offset=".02" stop-color="#f5895c"/>
      <stop offset="1" stop-color="#f8a678"/>
    </radialGradient>
    <radialGradient id="radial-gradient-5" cx="-656.81" cy="1086.43" fx="-656.81" fy="1086.43" r="12.96" gradientTransform="translate(-145.67 1347.56) rotate(44.04) scale(1 -1)" xlink:href="#radial-gradient"/>
    <mask id="mask-3" x="136.9" y="-75.63" width="43.51" height="213.22" maskUnits="userSpaceOnUse"/>
    <filter id="luminosity-noclip-3" x="161.14" y="124.15" width="16.02" height="13.43" color-interpolation-filters="sRGB" filterUnits="userSpaceOnUse">
      <feFlood flood-color="#fff" result="bg"/>
      <feBlend in="SourceGraphic" in2="bg"/>
    </filter>
    <filter id="luminosity-noclip-4" x="161.14" y="-8262.87" width="16.02" height="32766" color-interpolation-filters="sRGB" filterUnits="userSpaceOnUse">
      <feFlood flood-color="#fff" result="bg"/>
      <feBlend in="SourceGraphic" in2="bg"/>
    </filter>
    <mask id="mask-5" x="161.14" y="-8262.87" width="16.02" height="32766" maskUnits="userSpaceOnUse"/>
    <radialGradient id="radial-gradient-6" cx="-703.95" cy="1052.51" fx="-703.95" fy="1052.51" r="8.74" gradientTransform="translate(-72.11 1462.67) rotate(44.04) scale(1.07 -1.07)" xlink:href="#radial-gradient-3"/>
    <mask id="mask-4" x="161.14" y="124.15" width="16.02" height="13.43" maskUnits="userSpaceOnUse">
      <g class="cls-7">
        <g class="cls-17">
          <path class="cls-22" d="M176.53,135.39c.83-1.41.84-3.04.02-4.89-.89-1.85-2.34-3.39-4.36-4.61-2.05-1.22-4.1-1.8-6.15-1.74-2.01.13-3.43.9-4.24,2.29-.87,1.37-.88,2.98-.05,4.81.89,1.85,2.35,3.39,4.38,4.64,2.03,1.21,4.08,1.77,6.15,1.69,2-.08,3.41-.81,4.24-2.19Z"/>
        </g>
      </g>
    </mask>
    <radialGradient id="radial-gradient-7" cx="-703.95" cy="1052.51" fx="-703.95" fy="1052.51" r="8.74" gradientTransform="translate(-72.11 1462.67) rotate(44.04) scale(1.07 -1.07)" xlink:href="#radial-gradient-4"/>
  </defs>
  <g id="Layer_1-2" data-name="Layer 1">
    <g>
      <g>
        <g>
          <g id="Layer2_31_FILL" data-name="Layer2 31 FILL">
            <path class="cls-6" d="M192.95,70.84c-5.89-11.38-12.22-23.9-18.98-37.55l-8.34-17.01c-.57.11-1.15.22-1.71.33-6.39,1.36-13.32,4.05-20.79,8.07-5.04,2.69-11.65,6.68-19.83,11.97-4.9,3.14-13.16,8.53-24.8,16.15-1.59-9.44-5.73-15.27-12.43-17.49-5.84-1.94-12.13-.92-18.87,3.07-6.67,3.93-11.02,9.09-13.03,15.48-2.28,7.22-.59,13.82,5.09,19.8-4.37-.37-8.17-.29-11.4.24-3.4.54-5.05,1.44-4.95,2.67.1,1.21,1.53,2.17,4.29,2.9,2.29.64,5.73,1.15,10.32,1.55-10.05,2.27-19.04,6.33-26.99,12.18-7.4,5.48-13.22,11.99-17.46,19.54-4.15,7.39-6.3,14.89-6.46,22.49-.17,7.84,1.85,14.84,6.05,21.01-3.95.51-7.01,1.87-9.19,4.09-1.93,1.93-2.74,3.93-2.42,6,.3,2.08,1.58,3.24,3.83,3.47,2.58.27,5.73-.91,9.46-3.55-2.65,12.33-1.04,23.99,4.85,35,5.53,10.35,15.13,20.65,28.81,30.88,21,14.1,38.7,19.69,53.1,16.78-.72,2.24-1.14,3.78-1.27,4.62-.4,2.43-.12,4.35.83,5.76.61.9,1.62,1.41,3.02,1.53,1.45.1,2.86-.28,4.25-1.13,3.61-2.2,5.18-6.28,4.72-12.26,5.8,3.78,12.55,5.43,20.25,4.94,7.53-.5,14.91-2.96,22.14-7.37,7.54-4.6,13.86-10.71,18.97-18.32,5.58-8.32,9.13-17.67,10.65-28.03.66,4.94,1.48,8.65,2.45,11.13.89,2.28,1.77,3.25,2.64,2.92.86-.34,1.53-1.89,2.02-4.63.55-2.93.78-6.73.68-11.39,2.08,1.52,4.57,2.74,7.46,3.65,3.11.97,6.16,1.39,9.16,1.26,7.39-.33,12.46-3.83,15.21-10.5,2.61-6.37,1.63-13.39-2.94-21.06-2.62-4.35-6.74-9.24-12.38-14.66l8.11-13.85,8.68-14.78c.12,0,.23,0,.33,0-3.23-.78-14.28-19.42-33.14-55.92M146.42,69.5l.02-.02-.02.02h0Z"/>
          </g>
          <g id="Layer2_31_1_STROKES" data-name="Layer2 31 1 STROKES">
            <path d="M33.71,221.38c-6.75-6.53-11.9-13.09-15.39-19.63-5.6-10.47-7.41-21.67-5.4-33.34-3.1,1.87-5.77,2.66-8.13,2.41-2.71-.28-4.34-1.77-4.71-4.32-.37-2.38.54-4.69,2.7-6.85,2.03-2.07,4.79-3.45,8.22-4.12-3.73-6-5.54-12.82-5.38-20.29.16-7.74,2.37-15.46,6.59-22.96,4.29-7.64,10.26-14.32,17.74-19.85,6.61-4.87,14.03-8.55,22.11-10.97-2.08-.29-3.79-.62-5.12-.99-3.23-.85-4.88-2.08-5.02-3.78-.2-2.49,3.21-3.33,5.79-3.74,2.68-.44,5.77-.57,9.22-.41-4.62-5.76-5.86-12.13-3.71-18.95,2.08-6.61,6.61-12.01,13.48-16.04,6.96-4.13,13.59-5.19,19.69-3.16,6.68,2.21,10.99,7.85,12.82,16.78,10.9-7.14,18.82-12.29,23.55-15.34,8.15-5.27,14.85-9.32,19.9-12.01,7.52-4.05,14.6-6.79,21.04-8.16.59-.12,1.17-.24,1.75-.34l.35,1.97c-.56.1-1.12.21-1.68.33-6.26,1.33-13.16,4.01-20.51,7.97-5,2.67-11.65,6.68-19.76,11.93-4.91,3.16-13.25,8.59-24.79,16.15l-1.28.84-.25-1.51c-1.53-9.13-5.38-14.6-11.75-16.7-5.53-1.84-11.6-.84-18.04,2.98-6.42,3.78-10.66,8.8-12.59,14.92-2.19,6.91-.6,13.06,4.86,18.81l1.81,1.9-2.61-.22c-4.27-.36-8.02-.28-11.16.23-3.31.53-4.14,1.28-4.11,1.61.02.26.34,1.17,3.55,2.01,2.23.62,5.64,1.13,10.15,1.52l.14,1.97c-9.86,2.23-18.82,6.27-26.61,12.01-7.25,5.37-13.03,11.84-17.18,19.23-4.05,7.21-6.18,14.62-6.33,22.02-.16,7.59,1.82,14.46,5.88,20.43l.92,1.35-1.62.21c-3.7.47-6.6,1.75-8.6,3.8-1.72,1.72-2.42,3.4-2.15,5.15.24,1.64,1.14,2.44,2.94,2.63,2.32.24,5.28-.89,8.78-3.37l2.1-1.48-.54,2.51c-2.59,12.03-.99,23.58,4.75,34.32,5.43,10.17,15.03,20.45,28.53,30.55,20.63,13.85,38.24,19.45,52.31,16.61l1.67-.34-.52,1.62c-.7,2.18-1.11,3.68-1.23,4.46-.36,2.17-.13,3.86.67,5.05.44.64,1.18,1,2.27,1.09,1.23.09,2.42-.24,3.64-.99,3.29-2.01,4.68-5.71,4.25-11.33l-.16-2.02,1.7,1.11c5.58,3.64,12.19,5.25,19.64,4.78,7.33-.49,14.63-2.92,21.69-7.22,7.38-4.5,13.66-10.57,18.66-18.02,5.47-8.16,9-17.45,10.49-27.62h1.98c.65,4.85,1.45,8.51,2.39,10.91.83,2.14,1.38,2.34,1.4,2.35h0s.73-.38,1.35-3.87c.53-2.86.76-6.62.67-11.2l-.04-2.02,1.63,1.19c1.99,1.45,4.4,2.63,7.17,3.5,2.98.93,5.95,1.34,8.82,1.22,7.03-.31,11.72-3.54,14.33-9.88,2.47-6.03,1.5-12.82-2.88-20.17-2.52-4.19-6.53-8.96-11.94-14.19-.09-.09-.18-.18-.27-.26l-.57-.55,17.19-29.3,1.73,1.01-16.39,27.95c5.39,5.24,9.41,10.06,11.97,14.32,4.72,7.92,5.74,15.31,3.01,21.96-2.9,7.04-8.31,10.78-16.09,11.12-3.1.13-6.3-.31-9.5-1.31-2.28-.72-4.33-1.63-6.14-2.72,0,3.87-.24,7.13-.72,9.7-.57,3.21-1.38,4.87-2.63,5.37-2.26.85-3.53-2.42-3.94-3.49-.58-1.48-1.1-3.39-1.58-5.72-1.88,8.28-5.15,15.93-9.76,22.81-5.16,7.7-11.65,13.96-19.28,18.61-7.34,4.47-14.94,7-22.6,7.51-7.19.46-13.65-.93-19.24-4.11.03,5.34-1.74,9.14-5.28,11.29-1.55.96-3.18,1.39-4.83,1.27-1.72-.15-2.99-.81-3.77-1.96-1.09-1.63-1.43-3.81-.99-6.48.1-.67.37-1.72.81-3.18-14.31,2.22-31.87-3.57-52.22-17.23-5.14-3.85-9.73-7.72-13.75-11.61Z"/>
          </g>
        </g>
        <g id="Layer2_31_MEMBER_0_FILL" data-name="Layer2 31 MEMBER 0 FILL">
          <path d="M99.79,248.3l.43,1.95c2.99-.69,4.95-2.08,5.89-4.17-1.42.97-3.53,1.71-6.32,2.23Z"/>
        </g>
        <g id="Layer2_31_MEMBER_1_FILL" data-name="Layer2 31 MEMBER 1 FILL">
          <path d="M111.93,248.69l1.95-.43c-.62-2.68-1.98-4.4-4.07-5.14l.14.19c.8,1.35,1.46,3.14,1.97,5.39Z"/>
        </g>
        <g id="Layer2_31_MEMBER_2_FILL" data-name="Layer2 31 MEMBER 2 FILL">
          <path d="M17.15,161.61l-.14-.09c-1.58,1.07-2.82,2.66-3.71,4.75l1.79,1.22c.39-1.9,1.08-3.85,2.07-5.88Z"/>
        </g>
      </g>
      <g>
        <g id="Layer2_0_1_STROKES" data-name="Layer2 0 1 STROKES">
          <path d="M146.08,81.22c-.05-.05-.09-.12-.1-.19-.02-.18.1-.35.29-.37l7.1-.97c.18-.02.35.1.37.29.03.18-.1.35-.29.37l-7.1.97c-.11.01-.21-.02-.28-.09Z"/>
        </g>
        <g>
          <g id="Layer2_30_FILL" data-name="Layer2 30 FILL">
            <path class="cls-4" d="M215.66,30.79c1.1-8.52,3.99-17.06,8.67-25.64,1.34-2.47,1.07-3.83-.8-4.06-17.92-.96-32,5.65-42.24,19.81l58.24,46.22c4.64-2.59,7.9-7.59,9.79-15.01,1.9-7.46,2.37-17.19,1.4-29.19-.21-2.12-1.43-1.85-3.66.82-10.26,12.08-17.31,17.6-21.16,16.56-4.03-1.71-7.44-4.88-10.22-9.51Z"/>
          </g>
          <g id="Layer2_30_1_STROKES" data-name="Layer2 30 1 STROKES">
            <path class="cls-23" d="M179.91,21.09l.56-.77C190.88,5.92,205.38-.88,223.58.09h.07c1.36.18,1.97.84,2.24,1.37.51,1,.29,2.36-.69,4.17-4.54,8.31-7.4,16.7-8.51,24.94,2.61,4.24,5.8,7.2,9.5,8.78,2.39.58,7.81-1.81,20.08-16.26,1.75-2.09,2.96-2.84,4.04-2.5.79.24,1.25,1,1.37,2.24.98,12.07.5,22-1.42,29.54-1.95,7.65-5.4,12.91-10.27,15.63l-.58.33-59.51-47.23ZM223.44,2.09c-17.13-.91-30.85,5.36-40.78,18.63l56.94,45.19c4.07-2.53,7.01-7.25,8.73-14.04,1.87-7.32,2.33-17.03,1.37-28.86-.02-.17-.04-.3-.06-.4-.28.16-.85.6-1.84,1.77-10.78,12.69-17.83,18.06-22.19,16.89l-.13-.04c-4.21-1.78-7.81-5.12-10.69-9.92l-.18-.3.04-.34c1.11-8.6,4.06-17.34,8.78-25.99.92-1.7.7-2.25.67-2.3-.07-.13-.32-.24-.68-.29Z"/>
          </g>
        </g>
        <g>
          <g id="Layer2_30_MEMBER_0_FILL" data-name="Layer2 30 MEMBER 0 FILL">
            <path class="cls-4" d="M231.16,42.08c.07-14.39-4.53-20.08-13.81-17.06-4.23,1.31-9.49,1.39-15.76.24l19.9,14.89c4.36,3.38,7.58,4.03,9.67,1.94Z"/>
          </g>
          <g id="Layer2_30_MEMBER_0_1_STROKES" data-name="Layer2 30 MEMBER 0 1 STROKES">
            <path class="cls-23" d="M201,26.05l.78-1.78c6.08,1.12,11.22,1.05,15.28-.21,4.04-1.31,7.36-1.06,9.84.76,3.58,2.61,5.31,8.27,5.26,17.27v.41s-.29.29-.29.29c-2.49,2.5-6.19,1.87-10.99-1.85l-19.88-14.88ZM226.4,27c-.22-.21-.44-.4-.67-.57-1.94-1.42-4.65-1.57-8.06-.46-3.46,1.07-7.58,1.35-12.32.85l16.75,12.53c3.67,2.85,6.38,3.61,8.07,2.29-.01-7.31-1.28-12.22-3.77-14.63Z"/>
          </g>
        </g>
        <g id="Layer2_30_MEMBER_0_MEMBER_0_FILL" data-name="Layer2 30 MEMBER 0 MEMBER 0 FILL">
          <path class="cls-23" d="M225.85,34.44l.02-.02c.22-3.1-.64-5.07-2.57-5.92-1.58-.73-4.25-.7-8.01.09,3.31-.29,5.83-.05,7.55.72,1.74.79,2.74,2.5,3.01,5.13Z"/>
          <path d="M225.87,34.41l-.02.02s-.03.06,0,.09l.02-.12Z"/>
        </g>
        <g id="Layer2_30_MEMBER_1_FILL" data-name="Layer2 30 MEMBER 1 FILL">
          <path class="cls-23" d="M210.28,24.47c-1.79-3.92-5.31-6.06-10.57-6.42l-.26.03c4.92,1.22,8.53,3.35,10.83,6.39M200.61,7.43c3.42.04,6.28,1.72,8.57,5.04,1.27,1.82,3.11,5.7,5.52,11.64v-.19c-1.72-5.86-3.56-10.11-5.52-12.75-2.43-3.27-5.28-4.52-8.57-3.74Z"/>
        </g>
        <g id="Layer2_30_MEMBER_2_FILL" data-name="Layer2 30 MEMBER 2 FILL">
          <path d="M233.48,38.62v-.05s-.07.02-.07.02c.02.02.04.02.07.02Z"/>
          <path class="cls-23" d="M233.48,38.62c6.63,2.83,12.48,2.86,17.55.11l-.48-.37c-4.34,1.35-10.03,1.43-17.08.21v.05Z"/>
        </g>
        <g id="Symbol_6_0_Layer1_0_FILL" data-name="Symbol 6 0 Layer1 0 FILL">
          <path class="cls-27" d="M222.74,114.57l.55-.72-72.97-65.15-.56.29c-5.81,2.82-12.59,8.29-20.32,16.41-7.65,8.04-14.38,16.21-20.18,24.51l-.02.07-.05.1c-9.59,21.25-14.72,39.99-15.39,56.21-.31,7.09.18,13.35,1.44,18.78,1.19,5.13,2.92,9.01,5.21,11.62,4.41,5.16,11.94,6.99,22.59,5.49,9.65-1.39,20.76-5.3,33.33-11.75,10.98-5.63,23.17-13.93,36.58-24.88,11.48-9.38,21.41-19.71,29.78-30.98M221.06,114.58c-7.67,10.19-17.37,20.07-29.12,29.63-11.43,9.34-23.29,17.16-35.56,23.45-12.35,6.37-23.24,10.22-32.67,11.55-9.8,1.4-16.75-.21-20.84-4.81-2.07-2.4-3.66-5.98-4.77-10.73-1.21-5.25-1.67-11.34-1.39-18.26.72-17.26,5.38-35.45,14-54.59,6.53-9.38,13.1-17.54,19.69-24.48,6.34-6.69,12.88-11.77,19.61-15.24l71.06,63.49Z"/>
          <path class="cls-13" d="M191.94,144.21c11.75-9.56,21.45-19.44,29.12-29.63l-71.06-63.49c-6.73,3.47-13.26,8.55-19.61,15.24-6.59,6.94-13.15,15.1-19.69,24.48-8.62,19.13-13.29,37.33-14,54.59-.28,6.92.18,13.01,1.39,18.26,1.11,4.75,2.7,8.33,4.77,10.73,4.09,4.6,11.04,6.21,20.84,4.81,9.43-1.33,20.32-5.18,32.67-11.55,12.27-6.29,24.13-14.1,35.56-23.45Z"/>
        </g>
        <g>
          <g id="Layer2_41_FILL" data-name="Layer2 41 FILL">
            <path class="cls-6" d="M117.65,80.18l23.32-22.77-6.66-2.65-18.07,18.68,1.41,6.74Z"/>
          </g>
          <g id="Layer2_41_1_STROKES" data-name="Layer2 41 1 STROKES">
            <rect x="113.01" y="67.8" width="32.6" height="2" transform="translate(-11.28 109.9) rotate(-44.31)"/>
          </g>
        </g>
        <g id="Layer2_42_FILL" data-name="Layer2 42 FILL">
          <path class="cls-12" d="M160.66,151.86c2.69,2.6,5.94,3.82,9.77,3.66,3.81-.14,7.07-1.62,9.8-4.44s4.1-6.14,4.13-9.97c.01-3.81-1.33-7.01-4.02-9.61-2.69-2.6-5.94-3.83-9.74-3.69-3.83.16-7.1,1.64-9.83,4.46-2.73,2.82-4.1,6.13-4.11,9.94-.03,3.83,1.3,7.04,3.99,9.64Z"/>
        </g>
        <g id="Layer2_47_FILL" data-name="Layer2 47 FILL">
          <path class="cls-11" d="M151.64,108.38c0-5.15-1.81-9.49-5.45-13.01s-8.03-5.19-13.18-5.01c-5.18.21-9.61,2.23-13.31,6.04-3.69,3.82-5.54,8.3-5.55,13.45-.04,5.18,1.76,9.54,5.4,13.06s8.05,5.17,13.23,4.96c5.13-.2,9.54-2.2,13.23-6.02s5.56-8.31,5.62-13.48Z"/>
        </g>
        <g>
          <g id="Symbol_9_0_Layer4_0_FILL" data-name="Symbol 9 0 Layer4 0 FILL">
            <path class="cls-6" d="M175.63,16.45c-1.93-.13-3.86-.1-5.77.07h0c-2.71.29-5.72.92-9.04,1.87.64,2.47-1.08,6.29-5.16,11.47-1.56,2.73-2.62,5.31-3.19,7.76.42-.15.86-.28,1.31-.4,3.2-1.01,5.29-1.38,6.25-1.09-.14.05-.27.11-.4.17-.11.02-.22.05-.33.1-.42.15-.83.31-1.22.49-2.59.99-4.92,1.97-7,2.97-5.86,2.8-9.75,5.62-11.66,8.46-2.3,3.46-2.65,7.09-1.07,10.88,1.6,3.74,4.56,6.58,8.88,8.5,2.36,1.04,5,1.65,7.92,1.82,2.72.19,5.39-.01,8-.6.2-.04.4-.08.59-.13l.08.31.64.15c-.05.23-.1.46-.15.69l.12-.07c.09.17.17.34.24.51.81,1.55,2.13,3.1,3.94,4.65h0c.49.45,1.54,1.06,3.14,1.83,1.54.71,2.33,1.08,2.4,1.11.48,2.47,1.43,5.14,2.84,7.99,2.77,5.7,6.4,9.51,10.91,11.43,1.31.59,3.1.96,5.37,1.11,1.13.08,2.14.12,3.02.14l2,3.88c1.48,2.82,2.55,4.75,3.21,5.79,2.02,3.13,4.17,5.78,6.45,7.95,2.31,2.21,5.33,4.29,9.03,6.23,3.68,1.92,6.69,3,9.05,3.24,2.72.28,5.53.02,8.42-.8,3.47-1,6.36-2.65,8.68-4.95,3.58-3.55,6.25-8.96,8-16.23,3.27-13.42.97-27.63-6.88-42.62-3.03-5.79-6.69-11.26-10.97-16.4-3.68-4.41-7.24-7.92-10.68-10.52-6.96-5.24-14.36-9.35-22.21-12.35-7.98-3.03-16.23-4.83-24.76-5.41Z"/>
            <path d="M169.85,16.52c1.91-.18,3.84-.2,5.77-.07,8.53.58,16.78,2.38,24.76,5.41,7.85,3,15.26,7.12,22.21,12.35,3.44,2.6,7,6.11,10.68,10.52,4.28,5.15,7.94,10.61,10.97,16.4,7.85,15,10.15,29.21,6.88,42.62-1.75,7.27-4.41,12.68-8,16.23-2.32,2.3-5.21,3.95-8.68,4.95-2.89.82-5.7,1.08-8.42.8-2.36-.24-5.38-1.32-9.05-3.24-3.71-1.95-6.72-4.03-9.03-6.23-2.28-2.17-4.43-4.82-6.45-7.95-.66-1.04-1.73-2.97-3.21-5.79l-2-3.88c-.88-.02-1.89-.06-3.02-.14-2.26-.15-4.05-.52-5.37-1.11-4.51-1.92-8.15-5.73-10.91-11.43-1.41-2.85-2.36-5.51-2.84-7.99-.06-.03-.86-.4-2.4-1.11-1.6-.77-2.65-1.39-3.14-1.83h0c-1.81-1.55-3.13-3.1-3.94-4.65-.08-.17-.16-.34-.24-.51l-.12.07c.05-.23.1-.46.15-.69l-.64-.15-.08-.31c-.19.05-.39.09-.59.13-2.61.59-5.28.79-8,.6-2.92-.17-5.57-.78-7.92-1.82-4.32-1.92-7.28-4.76-8.88-8.5-1.59-3.79-1.23-7.42,1.07-10.88,1.92-2.84,5.8-5.66,11.66-8.46,2.07-.99,4.4-1.98,7-2.97.39-.18.8-.34,1.22-.49.11-.05.22-.08.33-.1.12-.06.26-.12.4-.17-.96-.28-3.05.08-6.25,1.09-.45.12-.89.25-1.31.4-7.05,2.18-11.95,5.37-14.71,9.6-2.7,4.03-3.11,8.28-1.25,12.74l.02.02c1.77,4.18,5.06,7.35,9.89,9.52l.02.02c2.55,1.14,5.4,1.81,8.56,2.02,1.9.14,4.6-.12,8.09-.79l.07.16.05.05v.05c1.31,2.48,2.67,4.31,4.07,5.52.75.66,1.91,1.31,3.5,1.94l2.16.74c.61,2.72,1.67,5.59,3.18,8.59,2.98,6.03,6.67,9.85,11.08,11.45,1.74.66,4.44.9,8.12.71.52,1.12,1.26,2.75,2.23,4.89.85,1.84,1.63,3.31,2.36,4.41,2.31,3.59,4.52,6.4,6.64,8.42,2.36,2.25,5.53,4.41,9.51,6.46,3.82,1.96,6.98,3.13,9.48,3.52,2.94.44,6.35.1,10.21-1.02,4-1.17,7.05-2.79,9.15-4.86,4.17-4.06,7.16-9.8,8.97-17.23,1.69-6.86,1.87-14.1.53-21.73-1.3-7.41-4-15.03-8.11-22.86-2.53-4.86-6.36-10.37-11.49-16.54h0c-3.79-4.54-7.45-8.15-10.99-10.82-7.12-5.35-14.7-9.56-22.73-12.63-8.16-3.1-16.6-4.94-25.33-5.54-2.04-.14-4.08-.11-6.1.08l-.02.02c-2.84.3-6,.95-9.49,1.95l.55,1.92s.08-.02.12-.03c3.32-.95,6.33-1.58,9.04-1.87h0Z"/>
          </g>
          <g id="Symbol_9_0_Layer4_1_FILL" data-name="Symbol 9 0 Layer4 1 FILL">
            <path d="M173.58,67.35l-.02.02c.18-.38.21-.81.1-1.3-.1-.53-.33-1-.68-1.4l-.05-.05c-1.04-1.04-2.1-1.68-3.19-1.93-1.03-.25-2-.13-2.94.36l.02-.02c-1.49.63-2.63,2.45-3.44,5.48l-.02.02c-.1.41-.18.82-.26,1.23l-.24.97c5.05-.71,8.03-1.29,8.95-1.73.98-.47,1.58-1.02,1.79-1.66M172.13,66.64l-.02.02c-.15.34-.51.65-1.09.94h0c-1.23.59-3.42,1.16-6.57,1.71.12-.2.19-.35.2-.45h0c.67-2.5,1.57-4.04,2.7-4.62h0l.02.02c1.32-.59,2.78-.1,4.38,1.46.31.35.43.66.37.91M186.77,74.36l.02.02c-1.88-.21-3.87-.1-5.98.34-2.61.57-5.06,1.63-7.34,3.19l-1.09.75,1.26.43c3.98,1.47,7.71,2.33,11.19,2.57,3.04.25,5.16-.32,6.38-1.71.99-1.12,1.16-2.16.51-3.12-.55-1.13-1.93-1.9-4.14-2.33-.26-.04-.53-.09-.8-.13M186.32,75.6c.19,0,.41.02.66.08.84.16,1.43.34,1.8.54.36.2.66.5.89.9v.05s.02.02.02.02c.37.67,0,1.41-1.14,2.23-1.31.43-2.82.61-4.51.55-2.78-.13-5.82-.7-9.1-1.71,2.09-1.05,4.14-1.8,6.16-2.25,2.14-.43,3.88-.58,5.2-.44l.02.02M208.8,95.62l-.02-.02c-.29-.25-.64-.45-1.07-.62-.82-.39-1.88-.64-3.17-.75-2.08-.19-3.89.06-5.43.73l-.02.02c-1.9.82-3.17,2.2-3.79,4.16l-.29.83.9.03c1.89.13,3.55.19,5,.2,3.69.02,6.14-.36,7.36-1.14h-.05c.87-.48,1.35-1,1.44-1.53.24-.63-.04-1.27-.83-1.92M207.66,96.37l.22.4c.04.31-.16.6-.6.86l-.02.02c-.9.52-2.03.9-3.37,1.14-2.07.38-4.4.36-7-.05.58-1.17,1.49-2.02,2.74-2.54,1.68-.72,3.19-1.03,4.51-.92,1.13.08,2.04.29,2.72.64l.02.02c.27.11.53.25.78.43Z"/>
          </g>
          <g class="cls-1">
            <g id="Symbol_9_0_Layer3_0_MEMBER_0_FILL" data-name="Symbol 9 0 Layer3 0 MEMBER 0 FILL">
              <path class="cls-24" d="M251.57,82.16l-2.27-13.13c-8.19-4.18-17.39-7.32-27.61-9.41-10.23-2.08-16.55-4.6-18.95-7.58-2.07-2.56-3.33-6.37-3.77-11.43-.49-5.85-1.37-10.07-2.64-12.66-2.37-4.86-6.16-8.41-11.35-10.65-8.35-1.26-16.41-1.56-24.19-.92l12.82,6.1c6.73,2.4,10.91,5.08,12.53,8.04,1.6,2.97,3.47,8.28,5.59,15.93,2.61,7.46,5.94,12.69,9.99,15.69,4.05,3,11.06,5.55,21.03,7.64,9.95,2.1,19.55,6.23,28.81,12.38Z"/>
            </g>
          </g>
          <g id="Symbol_9_0_Layer1_0_FILL" data-name="Symbol 9 0 Layer1 0 FILL">
            <path d="M234.81,43.43h0c-3.79-4.54-7.45-8.15-10.99-10.82-7.12-5.35-14.7-9.56-22.73-12.63-8.16-3.1-16.6-4.94-25.33-5.54-2.04-.14-4.08-.11-6.1.08l-.02.02c-2.84.3-6,.95-9.49,1.95l.55,1.92s.08-.02.12-.03c3.32-.95,6.33-1.58,9.04-1.87h0c1.91-.18,3.84-.2,5.77-.07,8.53.58,16.78,2.38,24.76,5.41,7.85,3,15.26,7.12,22.21,12.35,3.44,2.6,7,6.11,10.68,10.52,4.28,5.15,7.94,10.61,10.97,16.4,7.85,15,10.15,29.21,6.88,42.62-1.75,7.27-4.41,12.68-8,16.23-2.32,2.3-5.21,3.95-8.68,4.95-2.89.82-5.7,1.08-8.42.8-2.36-.24-5.38-1.32-9.05-3.24-3.71-1.95-6.72-4.03-9.03-6.23-2.28-2.17-4.43-4.82-6.45-7.95-1.62-2.51-3.16-5.31-4.62-8.4l-.59-1.26c-.11-.14-.27-.23-.48-.27l-.05-.05h-1.25s-.02.07-.02.07c-2.73.11-4.93-.22-6.59-1-4.45-2.05-8.08-5.9-10.89-11.55-1.4-2.84-2.35-5.46-2.86-7.87-.06-.03-.86-.4-2.4-1.11-1.6-.77-2.65-1.39-3.14-1.83h0c-1.81-1.55-3.13-3.1-3.94-4.65-.08-.17-.16-.34-.24-.51l-.12.07c.05-.23.1-.46.15-.69l-.64-.15-.08-.31c-.19.05-.39.09-.59.13-2.61.59-5.28.79-8,.6-2.92-.17-5.57-.78-7.92-1.82-4.32-1.92-7.28-4.76-8.88-8.5-1.59-3.79-1.23-7.42,1.07-10.88,1.92-2.84,5.8-5.66,11.66-8.46,2.07-.99,4.4-1.98,7-2.97.39-.18.8-.34,1.22-.49.11-.05.22-.08.33-.1.12-.06.26-.12.4-.17-.96-.28-3.05.08-6.25,1.09-.45.12-.89.25-1.31.4-7.05,2.18-11.95,5.37-14.71,9.6-2.7,4.03-3.11,8.28-1.25,12.74l.02.02c1.77,4.18,5.06,7.35,9.89,9.52l.02.02c2.55,1.14,5.4,1.81,8.56,2.02,1.9.14,4.6-.12,8.09-.79l.07.16.05.05v.05c1.31,2.48,2.67,4.31,4.07,5.52.75.66,1.91,1.31,3.5,1.94l2.16.74c.61,2.72,1.67,5.59,3.18,8.59,2.98,6.03,6.67,9.85,11.08,11.45,1.74.66,4.44.9,8.12.71.52,1.12,1.26,2.75,2.23,4.89.85,1.84,1.63,3.31,2.36,4.41,2.31,3.59,4.52,6.4,6.64,8.42,2.36,2.25,5.53,4.41,9.51,6.46,3.82,1.96,6.98,3.13,9.48,3.52,2.94.44,6.35.1,10.21-1.02,4-1.17,7.05-2.79,9.15-4.86,4.17-4.06,7.16-9.8,8.97-17.23,1.69-6.86,1.87-14.1.53-21.73-1.3-7.41-4-15.03-8.11-22.86-2.53-4.86-6.36-10.37-11.49-16.54Z"/>
          </g>
          <g id="Symbol_9_0_Layer0_0_FILL" data-name="Symbol 9 0 Layer0 0 FILL">
            <path d="M220.27,34.65l-2.83-1.77c-13.97-3.05-28.14.42-42.5,10.39l.14.14c14.41-9.1,29.47-12.02,45.18-8.76M222.42,34.73l-1.19.56c6.87,14.71,1.91,31.11-14.89,49.18l.19.19c17.86-18.05,23.15-34.69,15.89-49.93M227.34,38.79l-1.61-.54c19.37,21.2,24.47,41.42,15.29,60.67l.14.09c10.22-19.43,5.61-39.5-13.82-60.23Z"/>
          </g>
        </g>
        <g>
          <g id="Layer2_50_MEMBER_1_FILL" data-name="Layer2 50 MEMBER 1 FILL">
            <path d="M168.5,118.75c.96-2.1,2.12-4.02,3.49-5.76l-3.25-3.01c-1.83,1.44-3.77,2.63-5.81,3.56,2.36,1.39,4.22,3.13,5.58,5.21Z"/>
          </g>
          <g id="Layer2_50_MEMBER_1_1_STROKES" data-name="Layer2 50 MEMBER 1 1 STROKES">
            <path d="M162.91,113.56l.02-.03c2.36,1.38,4.23,3.14,5.58,5.21l-.03.02c-1.35-2.07-3.22-3.82-5.57-5.2ZM168.72,109.99l.02-.03,3.25,3.01-.02.03-3.25-3.01Z"/>
          </g>
        </g>
        <g>
          <g id="Layer2_50_MEMBER_2_FILL" data-name="Layer2 50 MEMBER 2 FILL">
            <path d="M129.2,82.37l3.02-6.72-16.3-3.95-2.55,2.63,15.83,8.03Z"/>
          </g>
          <g id="Layer2_50_MEMBER_2_1_STROKES" data-name="Layer2 50 MEMBER 2 1 STROKES">
            <path d="M112.82,74.43l2.99-3.1,16.87,4.08-3.05,6.79.09.04-.29.6-.67-.32h0s-15.94-8.1-15.94-8.1ZM116.03,72.07l-2.1,2.17,15.11,7.67,2.71-6.03-15.72-3.81Z"/>
          </g>
        </g>
        <g>
          <g id="Layer2_51_FILL" data-name="Layer2 51 FILL">
            <path class="cls-26" d="M100.54,100.12c3.33-3.48,4.73-6.25,4.2-8.32-.04-.41-.19-.81-.47-1.19-.8,1.73-2.23,3.7-4.28,5.91-2.45,2.66-4.5,4.03-6.13,4.08.45.4.12,1.14-.98,2.21-1.17,1.18-1.75,1.87-1.73,2.08,2.82.38,5.95-1.21,9.39-4.77Z"/>
          </g>
          <g id="Layer2_51_1_STROKES" data-name="Layer2 51 1 STROKES">
            <path class="cls-23" d="M91.02,105.88l.27-1.98c2.47.33,5.35-1.18,8.54-4.48,2.27-2.37,3.6-4.4,3.94-5.97-.8,1.17-1.82,2.42-3.04,3.75-2.67,2.89-4.9,4.33-6.83,4.4l-.07-2c.93-.03,2.62-.71,5.43-3.76,1.97-2.13,3.36-4.04,4.11-5.66l.73-1.56.99,1.41c.36.51.57,1.04.64,1.59.59,2.43-.87,5.44-4.46,9.18-3.66,3.79-7.11,5.49-10.25,5.07Z"/>
          </g>
        </g>
        <g>
          <g id="Layer2_52_FILL" data-name="Layer2 52 FILL">
            <path class="cls-5" d="M106.06,94.61c1.89-.39,4.11-1.99,6.63-4.8.09-.32,1.24-1.89,3.46-4.72,2.21-2.86,3.33-4.3,3.34-4.32,1.19-2.96,1.54-5.81,1.04-8.55-.43-2.3-1.34-4.14-2.73-5.51-1.25-1.27-2.7-2.19-4.36-2.78-1.79-.65-3.62-.83-5.5-.54-3.68.55-6.64,2.17-8.87,4.86-1.97,2.39-3.19,5.34-3.65,8.85-.42,3.31-.1,6.47.96,9.5,1.09,3.12,2.71,5.39,4.87,6.8,1.72,1.13,3.32,1.54,4.8,1.22Z"/>
          </g>
          <g id="Layer2_52_1_STROKES" data-name="Layer2 52 1 STROKES">
            <path class="cls-27" d="M99.07,92.91c-1.54-1.49-2.76-3.5-3.63-5.99-1.1-3.16-1.44-6.51-1.01-9.96.48-3.69,1.78-6.84,3.87-9.36,2.39-2.88,5.58-4.63,9.5-5.21,2.04-.31,4.05-.11,5.99.59,1.79.63,3.38,1.64,4.73,3.02,1.52,1.5,2.53,3.54,3,6.03.53,2.92.17,5.98-1.09,9.1l-.07.18-.1.11c-.11.14-.65.84-3.3,4.27-2.68,3.43-3.2,4.25-3.3,4.44l-.05.17-.16.17c-2.7,3-5.05,4.67-7.17,5.11-1.74.38-3.62-.08-5.56-1.36-.58-.38-1.13-.82-1.64-1.31ZM116.9,67.22c-1.1-1.06-2.37-1.85-3.79-2.35-1.63-.59-3.31-.75-5.02-.5-3.46.52-6.16,1.99-8.25,4.51-1.84,2.23-2.99,5.03-3.42,8.34-.39,3.13-.09,6.18.91,9.04,1.01,2.9,2.52,5.01,4.47,6.29,1.48.98,2.84,1.34,4.04,1.08,1.65-.34,3.67-1.81,5.99-4.36.21-.42.89-1.43,3.52-4.8,2.25-2.91,2.99-3.87,3.26-4.21,1.07-2.72,1.39-5.37.93-7.87-.39-2.08-1.22-3.76-2.45-4.98-.06-.07-.13-.13-.2-.19ZM113.66,90.08h0s0,0,0,0Z"/>
          </g>
        </g>
        <g id="Layer2_52_MEMBER_0_FILL" data-name="Layer2 52 MEMBER 0 FILL">
          <path class="cls-5" d="M116.84,81.35l3.3,4.54c.72-5.98.44-10.7-.85-14.17l-2.45,9.63Z"/>
        </g>
        <g id="Layer2_52_MEMBER_1_FILL" data-name="Layer2 52 MEMBER 1 FILL">
          <g class="cls-18">
            <path class="cls-10" d="M111.9,86.23c2.59-.26,4.48-1.32,5.67-3.17,1.19-1.89,1.32-4.01.4-6.35-1.01-2.33-2.77-4.22-5.29-5.66-2.56-1.43-5.17-2.03-7.83-1.78-2.62.33-4.51,1.43-5.67,3.3-1.23,1.85-1.37,3.94-.43,6.26,1.01,2.33,2.78,4.23,5.32,5.69,2.54,1.41,5.15,1.99,7.83,1.72Z"/>
          </g>
        </g>
        <g id="Layer2_52_MEMBER_2_FILL" data-name="Layer2 52 MEMBER 2 FILL">
          <path class="cls-5" d="M102.92,93.1c2.13,1.17,6.04,0,11.72-3.49.89-.2,1.92-.67,3.06-1.39l3.05-2.38-3.42-4.51-13.35,10.68s-.32.41-1.07,1.1Z"/>
        </g>
        <g id="Layer2_52_MEMBER_3_FILL" data-name="Layer2 52 MEMBER 3 FILL">
          <path class="cls-27" d="M108.49,85.09c-.73.75-1.73,1.1-3,1.04-1.27-.06-2.43-.49-3.46-1.31-1.13-.94-1.84-2.15-2.13-3.64.06,2.37.98,4.11,2.77,5.23,1.49.92,3,1.19,4.54.82l.02.02c.95-.22,1.72-.72,2.28-1.5.83-1.08,1.03-2.54.61-4.37.48-.21,1.01-.66,1.58-1.35,1.09-1.26,1.77-2.85,2.02-4.77.44-3.07-.82-5.56-3.75-7.48,2.35,2.27,3.21,4.89,2.58,7.87-.49,2.36-1.4,3.92-2.7,4.66-.86-1.54-1.9-2.47-3.13-2.8-.65-.16-1.15-.06-1.5.31-.2.21-.26.54-.17.99.07.44.23.83.49,1.17.34.48.81.89,1.41,1.23.78.44,1.57.58,2.39.41.28,1.47,0,2.62-.84,3.45M106.36,79.88c-.69-.73-.79-1.2-.31-1.41.48-.24,1.01-.15,1.58.28.57.43,1.08,1.09,1.52,1.98-1.16.15-2.09-.14-2.79-.85Z"/>
        </g>
        <g>
          <g id="Layer2_53_FILL" data-name="Layer2 53 FILL">
            <path class="cls-26" d="M102.63,90.73l.3-.17c-.31-1.66-1.8-1.99-4.47-.99-2.74,1.33-4.89,2.73-6.46,4.18-1.76,1.63-2.97,3.51-3.6,5.64-.45,2.29,0,3.88,1.35,4.78.83.58,1.83.84,3.01.77-.38-.34-.22-1.05.48-2.13.81-1.29,1.22-2.03,1.23-2.24-.64.18-1.08.03-1.3-.47-.21-.58,0-1.37.67-2.37,2.16-3.1,5.09-5.44,8.79-7.03Z"/>
          </g>
          <g id="Layer2_53_1_STROKES" data-name="Layer2 53 1 STROKES">
            <path class="cls-23" d="M88.55,104.5c-1.21-1.17-1.6-2.95-1.13-5.29l.02-.1c.69-2.29,2-4.34,3.88-6.09,1.62-1.51,3.88-2.98,6.7-4.35l.09-.04c1.99-.75,3.45-.83,4.48-.25.49.28,1.11.84,1.33,1.99l.13.71-1.02.57c-3.5,1.5-6.32,3.75-8.36,6.68-.49.75-.57,1.15-.57,1.33.03,0,.06-.01.11-.03l.55,1.92c-1.12.32-2.05-.06-2.49-1.02l-.03-.07c-.33-.9-.08-1.97.77-3.26,2.14-3.07,5.02-5.45,8.56-7.1-.25-.12-.97-.26-2.71.38-2.62,1.28-4.7,2.62-6.17,4-1.61,1.49-2.73,3.22-3.32,5.15-.52,2.73.57,3.47.94,3.71.66.47,1.44.66,2.39.61l.11,2c-1.4.08-2.63-.24-3.64-.96-.23-.15-.43-.32-.62-.5Z"/>
          </g>
        </g>
        <g>
          <g>
            <g>
              <path class="cls-19" d="M135.06,78.95c-4.01,4.15-6.19,8.95-6.52,14.41-.04.36-.06.7-.05,1.01-.01.17-.03.35-.04.52v.57c.03.58.06,1.13.08,1.65.44,4.69,2.36,8.68,5.76,11.97,4.06,3.92,9.02,5.7,14.91,5.34,5.87-.32,10.93-2.68,15.2-7.09,4.29-4.44,6.5-9.6,6.62-15.47.15-5.88-1.8-10.78-5.85-14.7-4.04-3.91-8.99-5.69-14.86-5.34-5.87.32-10.95,2.7-15.24,7.13Z"/>
              <g>
                <path d="M157.13,85.23c-1.56-1.51-3.63-2.06-6.2-1.64-2.54.48-4.83,1.77-6.89,3.86-2.05,2.12-3.29,4.44-3.7,6.94-.33,2.58.27,4.62,1.82,6.12,1.55,1.5,3.58,2.01,6.1,1.55,2.57-.42,4.88-1.69,6.93-3.81,2.07-2.08,3.28-4.41,3.63-7.01.4-2.52-.17-4.52-1.7-6Z"/>
                <path class="cls-19" d="M151.08,92.68c-.57-.56-1.32-.78-2.23-.67-.91.2-1.71.66-2.4,1.38s-1.13,1.53-1.26,2.4c-.11.94.12,1.69.7,2.25s1.36.79,2.3.64c.88-.14,1.67-.58,2.38-1.31s1.12-1.54,1.28-2.47c.08-.91-.18-1.65-.77-2.23M156.34,91.6c-.26-.25-.57-.35-.95-.31-.37.13-.69.33-.93.58-.29.3-.5.64-.62,1.02-.03.38.09.69.35.94.24.23.55.33.92.29.41-.1.76-.3,1.05-.61.25-.26.41-.59.5-1,.03-.38-.08-.68-.32-.91Z"/>
              </g>
              <g>
                <path class="cls-2" d="M134.38,108.97l1.94,1.87c2.31,2.09,3.05,1.77,5.8,2.76,2.89,1.02,4.3,2.39,7.05,1.88,2.28-.45,1.72,1.56,3.57.51,1.47-.85-.84.8,0,0,.93-.96,2.21-.52,2.8-1.77.08-1.21-.68-3.02-2.27-5.41-1.57-2.48-3.93-5.28-7.08-8.41-3.17-3.13-6.32-5.83-9.45-8.1-3.13-2.27-5.62-3.6-7.46-4-1.03,0-1.97.3-2.81.9-.93.59.59.27-.39,1.75-1.95,2.92,1.48.42,1.29,3.45-.18,2.79.7,5.2,2.03,8.09,1.3,2.63,2.68,4.38,4.97,6.48Z"/>
                <path class="cls-25" d="M154.2,116.34c-.4-.38-.41-1.01-.03-1.41.26-.27.38-.66.37-1.18-.07-3.02-4.68-9.44-11.21-15.62-6.65-6.29-10.51-8.49-15.87-9.06-.55-.06-.95-.55-.89-1.1.06-.55.55-.95,1.1-.89,6.56.69,10.88,3.77,17.04,9.59,1.95,1.84,11.69,11.34,11.83,17.02.03,1.07-.29,1.95-.93,2.62-.38.4-1.01.41-1.41.03h0Z"/>
              </g>
              <path d="M175.38,92.08c.02-7.05-2.44-12.97-7.39-17.76s-10.92-7.03-17.97-6.77c-7.03.27-13.06,3.01-18.08,8.19-1.07,1.1-2.01,2.24-2.84,3.42-1.06,1.51-1.94,3.06-2.66,4.66-.92,2.17-1.54,4.44-1.87,6.82-.04.52-.08,1.03-.14,1.53-.02.63-.04,1.26-.06,1.89-.04,7.07,2.41,12.99,7.34,17.76,4.95,4.79,10.96,7.04,18.02,6.77,2.56-.09,4.99-.52,7.28-1.3,1.67-.55,3.28-1.28,4.82-2.2,2.12-1.23,4.09-2.79,5.93-4.69,5.02-5.19,7.56-11.29,7.61-18.32M128.54,93.36c.33-5.46,2.51-10.26,6.52-14.41,4.29-4.44,9.37-6.82,15.24-7.13,5.87-.35,10.82,1.43,14.86,5.34,4.06,3.92,6.01,8.82,5.85,14.7-.12,5.88-2.33,11.03-6.62,15.47-4.26,4.41-9.33,6.77-15.2,7.09-5.88.37-10.85-1.41-14.91-5.34-3.4-3.29-5.32-7.28-5.76-11.97-.02-.52-.05-1.07-.07-1.65v-.57c0-.17.02-.35.03-.52,0-.31.01-.65.05-1.01Z"/>
            </g>
            <path d="M131.49,112.06c-4.98-4.81-7.48-10.87-7.44-18l.06-1.9c.06-.52.1-1.03.14-1.55.33-2.42.96-4.74,1.89-6.92.72-1.61,1.62-3.2,2.69-4.72.84-1.19,1.8-2.35,2.87-3.46,5.06-5.23,11.21-8.02,18.3-8.3,7.11-.26,13.24,2.05,18.22,6.86,4.99,4.83,7.51,10.89,7.49,18-.06,7.08-2.65,13.32-7.7,18.55-1.85,1.91-3.87,3.51-6,4.75-1.55.93-3.19,1.68-4.88,2.23-2.31.78-4.79,1.22-7.37,1.32-7.12.28-13.27-2.03-18.26-6.86ZM167.76,74.56c-4.84-4.68-10.81-6.93-17.73-6.67-6.91.27-12.91,2.99-17.85,8.09-1.05,1.08-1.99,2.22-2.81,3.38-1.04,1.49-1.93,3.04-2.62,4.61-.9,2.12-1.52,4.39-1.84,6.73-.04.5-.08,1.02-.14,1.52l-.06,1.86c-.04,6.93,2.4,12.83,7.24,17.51s10.84,6.94,17.77,6.67c2.52-.09,4.93-.52,7.19-1.28,1.64-.54,3.24-1.27,4.75-2.17,2.08-1.21,4.05-2.77,5.86-4.64,4.93-5.1,7.46-11.19,7.52-18.09.02-6.92-2.43-12.82-7.29-17.52ZM134.06,109.31c-3.44-3.33-5.41-7.43-5.86-12.18l-.09-2.24.04-.55c0-.3.01-.65.05-1.03.33-5.49,2.56-10.41,6.61-14.6,4.33-4.48,9.54-6.91,15.46-7.23,5.94-.35,11.02,1.47,15.11,5.43,4.11,3.97,6.11,9,5.95,14.95-.12,5.93-2.38,11.21-6.71,15.69-4.3,4.45-9.49,6.87-15.42,7.19-5.95.37-11.05-1.46-15.16-5.43ZM164.94,77.39c-3.95-3.82-8.87-5.58-14.61-5.24-5.76.31-10.81,2.68-15.02,7.03-3.94,4.07-6.1,8.85-6.43,14.2-.04.36-.06.69-.05.99l-.04.71v.38s.08,1.64.08,1.64c.43,4.57,2.33,8.53,5.66,11.74,3.97,3.84,8.9,5.6,14.66,5.24,5.76-.31,10.8-2.66,14.98-6.99,4.21-4.35,6.41-9.48,6.53-15.25.15-5.75-1.79-10.62-5.75-14.45Z"/>
          </g>
          <g>
            <g>
              <path class="cls-19" d="M210.68,130.2c.15-5.88-1.79-10.77-5.83-14.68-4.06-3.92-9.02-5.71-14.89-5.36-5.87.32-10.95,2.7-15.24,7.13-4.26,4.41-6.45,9.55-6.58,15.42-.17,5.89,1.77,10.8,5.83,14.72,3.4,3.29,7.45,5.07,12.15,5.36.52,0,1.07.01,1.65.02h.57c.17-.03.34-.05.52-.07.31,0,.65-.03,1.01-.09,5.44-.51,10.17-2.85,14.18-7,4.29-4.44,6.5-9.6,6.62-15.47Z"/>
              <g>
                <path d="M190.99,122.33c-2.58.44-4.88,1.72-6.89,3.86-2.05,2.12-3.25,4.48-3.58,7.06-.38,2.54.2,4.55,1.75,6.05s3.61,2.04,6.18,1.62c2.49-.5,4.76-1.81,6.81-3.93,2.02-2.12,3.23-4.46,3.63-7.01.33-2.58-.28-4.63-1.85-6.14-1.53-1.48-3.55-1.98-6.06-1.5Z"/>
                <path class="cls-19" d="M189.8,130.12c-.59-.57-1.34-.8-2.25-.69-.92.19-1.73.64-2.43,1.36s-1.12,1.54-1.23,2.42c-.11.94.13,1.7.72,2.27s1.33.76,2.27.62c.86-.16,1.65-.6,2.36-1.34.69-.72,1.13-1.53,1.3-2.45.08-.91-.17-1.65-.74-2.2M189.77,124.54c-.41.1-.73.28-.98.53-.29.3-.48.66-.57,1.07-.03.38.08.68.32.91.26.25.57.35.95.31.37-.13.71-.35,1-.65.25-.26.43-.57.55-.95.03-.38-.09-.69-.35-.94-.24-.23-.55-.33-.92-.29Z"/>
              </g>
              <path class="cls-2" d="M174.07,147.36l-1.94-1.87c-2.16-2.24-1.87-2.99-2.96-5.71-1.11-2.86-2.53-4.22-2.12-6.98.38-2.29-1.61-1.67-.63-3.56.8-1.49-.77.87,0,0,.93-.96.45-2.22,1.68-2.86,1.21-.12,3.04.58,5.49,2.09,2.53,1.49,5.41,3.75,8.64,6.79,3.23,3.07,6.04,6.13,8.41,9.18,2.37,3.05,3.79,5.5,4.25,7.33.03,1.03-.24,1.98-.81,2.84-.56.95-.29-.58-1.74.45-2.85,2.05-.47-1.46-3.49-1.18-2.78.27-5.22-.52-8.15-1.76-2.67-1.21-4.46-2.53-6.64-4.75Z"/>
              <path class="cls-25" d="M166.04,127.79h0c-.4-.39-.4-1.02-.02-1.42.65-.66,1.52-1,2.58-1.01,5.68-.05,15.5,9.38,17.41,11.26,6.02,5.96,9.25,10.18,10.16,16.71.08.55-.31,1.05-.85,1.13-.55.08-1.05-.31-1.13-.85-.74-5.34-3.07-9.12-9.58-15.56-6.4-6.33-12.96-10.71-15.98-10.68-.52,0-.91.14-1.17.41-.38.39-1.02.4-1.41.02Z"/>
              <path d="M189.58,105.81c-7.02.29-13.03,3.03-18.05,8.22-1.84,1.9-3.34,3.93-4.49,6.08-.87,1.57-1.55,3.2-2.04,4.89-.7,2.32-1.05,4.76-1.06,7.32-.04,7.07,2.42,13,7.36,17.78,4.93,4.77,10.93,7.02,18,6.74.63-.04,1.26-.08,1.88-.13.5-.07,1.01-.13,1.53-.19,2.37-.4,4.62-1.1,6.75-2.09,1.57-.76,3.1-1.7,4.57-2.81,1.15-.87,2.25-1.85,3.32-2.95,5.02-5.19,7.55-11.3,7.59-18.34.02-7.05-2.43-12.97-7.36-17.74-4.95-4.79-10.95-7.05-18-6.79M188.86,152.76c-.17.02-.34.04-.52.06h-.57c-.58,0-1.13,0-1.65-.01-4.7-.28-8.75-2.07-12.15-5.36-4.06-3.92-6-8.83-5.83-14.72.12-5.88,2.31-11.02,6.58-15.42,4.29-4.44,9.37-6.82,15.24-7.13,5.87-.35,10.83,1.44,14.89,5.36,4.04,3.91,5.98,8.8,5.83,14.68-.12,5.88-2.33,11.03-6.62,15.47-4.01,4.15-8.74,6.48-14.18,7-.36.05-.7.08-1.01.09Z"/>
            </g>
            <path d="M171.08,150.35c-4.99-4.83-7.51-10.89-7.47-18.02,0-2.58.36-5.08,1.07-7.42.49-1.7,1.19-3.37,2.07-4.95,1.16-2.17,2.69-4.24,4.54-6.15,5.06-5.23,11.21-8.03,18.28-8.32h0c7.11-.26,13.25,2.06,18.24,6.88,4.98,4.81,7.49,10.86,7.47,17.98-.04,7.09-2.62,13.34-7.68,18.57-1.07,1.11-2.2,2.11-3.36,2.99-1.48,1.12-3.04,2.07-4.63,2.84-2.16,1-4.46,1.72-6.84,2.12-.53.06-1.04.12-1.54.19l-1.91.13c-7.13.28-13.27-2.02-18.25-6.84ZM189.6,106.15c-6.89.28-12.89,3.02-17.83,8.12-1.81,1.87-3.3,3.89-4.44,6.01-.86,1.54-1.53,3.16-2.01,4.82-.69,2.28-1.04,4.71-1.04,7.23-.04,6.94,2.41,12.84,7.26,17.54,4.84,4.68,10.81,6.92,17.75,6.65l1.87-.13c.48-.07.99-.13,1.51-.19,2.31-.39,4.55-1.09,6.65-2.06,1.54-.75,3.06-1.68,4.51-2.77,1.13-.85,2.23-1.84,3.28-2.92,4.93-5.1,7.45-11.19,7.49-18.11.02-6.93-2.42-12.81-7.26-17.5-4.86-4.7-10.83-6.95-17.75-6.7h0ZM173.74,147.69c-4.11-3.97-6.1-9.01-5.93-14.97.12-5.93,2.37-11.2,6.67-15.65,4.33-4.48,9.54-6.91,15.46-7.23,5.94-.35,11.03,1.48,15.14,5.45,4.09,3.96,6.09,8.98,5.93,14.92-.12,5.94-2.38,11.22-6.71,15.69-4.05,4.19-8.9,6.58-14.39,7.1-.35.05-.71.08-1.04.09l-.49.05h-.59c-.59,0-1.14,0-1.66,0-4.78-.29-8.94-2.12-12.38-5.45ZM204.62,115.77c-3.97-3.84-8.89-5.61-14.63-5.27-5.76.31-10.81,2.68-15.02,7.03-4.18,4.32-6.36,9.44-6.48,15.2-.17,5.77,1.76,10.64,5.73,14.48,3.33,3.22,7.34,4.99,11.94,5.26.5,0,1.05.01,1.63.02l1.04-.06c.33,0,.66-.04,1-.09,5.35-.51,10.05-2.83,13.99-6.9,4.21-4.35,6.41-9.48,6.53-15.25h0c.15-5.75-1.78-10.61-5.73-14.43Z"/>
          </g>
        </g>
        <g>
          <g id="Symbol_15_0_Layer3_0_FILL" data-name="Symbol 15 0 Layer3 0 FILL">
            <path class="cls-9" d="M164.23,122.87l.09-.1-6.11,5.03c2.17,3.8,4.54,6.11,7.11,6.93,2.13.58,3.98.22,5.54-1.08,1.29-1.07,1.49-2.31.62-3.71-1.11-1.76-3.53-4.11-7.26-7.06Z"/>
            <path class="cls-27" d="M164.32,122.78l-.09.1c3.72,2.95,6.14,5.31,7.26,7.06.87,1.4.66,2.64-.62,3.71-1.56,1.3-3.41,1.66-5.54,1.08-2.57-.82-4.95-3.13-7.11-6.93-.03-.03-.06-.07-.07-.12l-.26-.3-.02.02c1.66,5.31,3.96,8.39,6.92,9.24,2.82.79,5.28.3,7.37-1.44l.02-.02c2.17-1.8,2.51-3.89,1.03-6.28-1.2-1.96-4.16-4.05-8.89-6.28l.03.16Z"/>
          </g>
          <g class="cls-15">
            <g id="Symbol_15_0_Layer2_0_FILL" data-name="Symbol 15 0 Layer2 0 FILL">
              <g class="cls-16">
                <path class="cls-8" d="M176.53,135.39c.83-1.41.84-3.04.02-4.89-.89-1.85-2.34-3.39-4.36-4.61-2.05-1.22-4.1-1.8-6.15-1.74-2.01.13-3.43.9-4.24,2.29-.87,1.37-.88,2.98-.05,4.81.89,1.85,2.35,3.39,4.38,4.64,2.03,1.21,4.08,1.77,6.15,1.69,2-.08,3.41-.81,4.24-2.19Z"/>
              </g>
            </g>
          </g>
          <g id="Symbol_15_0_Layer0_0_FILL" data-name="Symbol 15 0 Layer0 0 FILL">
            <path class="cls-27" d="M172.16,135.18c2.17-1.8,2.51-3.89,1.03-6.28-1.2-1.96-4.16-4.05-8.89-6.28l.03.16-.09.1c3.72,2.95,6.14,5.31,7.26,7.06.87,1.4.66,2.64-.62,3.71-1.56,1.3-3.41,1.66-5.54,1.08-2.57-.82-4.95-3.13-7.11-6.93-.03-.03-.06-.07-.07-.12l-.26-.3-.02.02c1.66,5.31,3.96,8.39,6.92,9.24,2.82.79,5.28.3,7.37-1.44l.02-.02Z"/>
          </g>
        </g>
      </g>
      <g>
        <path class="cls-20" d="M143.73,141.54c-.1-2.35-3.46-6.48-5.68-8.6-2.96-2.83-5.95-3.49-9.06-4.92-.21-.1-.35.1-.08.26,2.75,1.61,5.14,2.48,7.65,5.02,2.31,2.34,3.72,5.43,5.71,7.93.4.5,1.47.91,1.45.32Z"/>
        <path class="cls-20" d="M137.62,142.97c-1.21-1.29-2.5-2.12-3.93-2.95-1.04-.6-2.45-1.24-3.21-.92-.13.05-.12.15-.05.24,0,0-.01,0-.02,0,.48.8,1.91,1.36,2.62,1.81,1.39.89,2.61,1.76,4.04,2.39.43.19,1.07,0,.54-.57Z"/>
      </g>
    </g>
  </g>
</svg>