<?xml version="1.0" encoding="UTF-8"?>
<svg id="Layer_2" data-name="Layer 2" xmlns="http://www.w3.org/2000/svg" xmlns:xlink="http://www.w3.org/1999/xlink" viewBox="0 0 245.76 263.03">
  <defs>
    <style>
      .cls-1 {
        fill: none;
      }

      .cls-2 {
        mask: url(#mask);
      }

      .cls-3 {
        filter: url(#luminosity-noclip);
      }

      .cls-4 {
        fill: #2b1010;
      }

      .cls-5 {
        fill: #e26236;
      }

      .cls-6 {
        filter: url(#luminosity-noclip-3);
      }

      .cls-7 {
        filter: url(#luminosity-noclip-7);
      }

      .cls-8 {
        filter: url(#luminosity-noclip-5);
      }

      .cls-9 {
        fill: url(#radial-gradient-6);
      }

      .cls-10 {
        fill: url(#radial-gradient-4);
      }

      .cls-11 {
        fill: url(#radial-gradient-8);
      }

      .cls-12 {
        fill: url(#radial-gradient-2);
      }

      .cls-13 {
        fill: url(#radial-gradient);
      }

      .cls-13, .cls-14, .cls-15, .cls-16 {
        mix-blend-mode: multiply;
      }

      .cls-17 {
        fill: #ee4237;
      }

      .cls-18 {
        fill: #3f130e;
      }

      .cls-19 {
        fill: url(#linear-gradient);
      }

      .cls-20 {
        fill: #7a221a;
      }

      .cls-21 {
        mask: url(#mask-2);
      }

      .cls-22 {
        mask: url(#mask-3);
      }

      .cls-23 {
        mask: url(#mask-4);
      }

      .cls-24 {
        mask: url(#mask-5);
      }

      .cls-25 {
        mask: url(#mask-7);
      }

      .cls-26 {
        mask: url(#mask-6);
      }

      .cls-27 {
        mask: url(#mask-1);
      }

      .cls-28 {
        mask: url(#mask-9);
      }

      .cls-29 {
        mask: url(#mask-8);
      }

      .cls-30 {
        fill: #a4a3a3;
      }

      .cls-31 {
        fill: #fff;
      }

      .cls-32 {
        fill: #d72f27;
      }

      .cls-33 {
        fill: #fac0a0;
      }

      .cls-14 {
        fill: url(#radial-gradient-3);
      }

      .cls-15 {
        fill: url(#radial-gradient-7);
      }

      .cls-16 {
        fill: url(#radial-gradient-5);
      }

      .cls-34 {
        fill: #701612;
      }

      .cls-35 {
        mask: url(#mask-10);
      }

      .cls-36 {
        clip-path: url(#clippath);
      }

      .cls-37 {
        fill: #e16134;
      }
    </style>
    <linearGradient id="linear-gradient" x1="-2934.45" y1="-1123.82" x2="-2939.03" y2="-1192.61" gradientTransform="translate(1419.37 3032.69) rotate(46.18) scale(1.02)" gradientUnits="userSpaceOnUse">
      <stop offset=".52" stop-color="#fac0a0"/>
      <stop offset=".87" stop-color="#f58d6a"/>
    </linearGradient>
    <mask id="mask" x="-204.09" y="3.38" width="465.72" height="567" maskUnits="userSpaceOnUse">
      <g id="Mask_Mask_1" data-name="Mask Mask 1">
        <path class="cls-31" d="M73.55,570.37c-41.63-4.55-78.58-12.2-110.86-22.94-45.15-15.08-81.16-36.26-108.03-63.55-45.55-46.58-64.61-110.98-57.2-193.19.06-.19.09-.4.1-.65,9.62-11.67,18.96-22.82,28.02-33.43,33.55-39.67,62.91-72.08,88.08-97.21.56-.56.94-1.24,1.13-2.05,5.51-29.93,20.79-51.14,45.86-63.63,13.09-6.56,29.01-10.77,47.75-12.64,16.64-1.69,35.47-1.53,56.49.46,4.85.76,9.64,1.65,14.37,2.66,2.55.57,5.1,1.2,7.65,1.89,12.69,3.28,25.03,7.83,37.03,13.65,17.96,8.71,35.6,21.09,52.92,37.14,34.01,31.98,58.05,69.4,72.11,112.28.86,2.74,1.73,5.55,2.59,8.41.43,1.56.86,3.12,1.29,4.67,15.2,55.64,10.65,108.07-13.65,157.3-2.13,4.1-4.32,8.2-6.57,12.31-24.85,43.56-64.22,82.06-118.11,115.51-12.85,7.93-26.51,15.6-40.97,23.03Z"/>
      </g>
    </mask>
    <filter id="luminosity-noclip" x="126.08" y="45.67" width="75.33" height="75.54" color-interpolation-filters="sRGB" filterUnits="userSpaceOnUse">
      <feFlood flood-color="#fff" result="bg"/>
      <feBlend in="SourceGraphic" in2="bg"/>
    </filter>
    <filter id="luminosity-noclip-2" x="126.08" y="-7689.81" width="75.33" height="32766" color-interpolation-filters="sRGB" filterUnits="userSpaceOnUse">
      <feFlood flood-color="#fff" result="bg"/>
      <feBlend in="SourceGraphic" in2="bg"/>
    </filter>
    <mask id="mask-2" x="126.08" y="-7689.81" width="75.33" height="32766" maskUnits="userSpaceOnUse"/>
    <radialGradient id="radial-gradient" cx="-6169.88" cy="-15942.2" fx="-6169.88" fy="-15942.2" r="226.1" gradientTransform="translate(-840.38 4332.55) rotate(45.18) scale(.37 .23)" gradientUnits="userSpaceOnUse">
      <stop offset=".07" stop-color="#c2c2c2"/>
      <stop offset=".36" stop-color="#000"/>
    </radialGradient>
    <mask id="mask-1" x="126.08" y="45.67" width="75.33" height="75.54" maskUnits="userSpaceOnUse">
      <g class="cls-3">
        <g class="cls-21">
          <path class="cls-13" d="M143.95,103.33c-8.85-8.91-14.49-18.4-16.92-28.5-2.2-10.09-.55-17.87,4.95-23.34,5.55-5.51,13.33-7.1,23.34-4.77,10.2,2.38,19.72,8.02,28.57,16.93,8.76,8.81,14.25,18.28,16.47,28.39,2.36,10.12.77,17.93-4.78,23.45-5.5,5.47-13.34,7.02-23.51,4.67-9.99-2.4-19.36-8.01-28.11-16.82Z"/>
        </g>
      </g>
    </mask>
    <radialGradient id="radial-gradient-2" cx="-6169.88" cy="-15942.2" fx="-6169.88" fy="-15942.2" r="226.1" gradientTransform="translate(-840.38 4332.55) rotate(45.18) scale(.37 .23)" gradientUnits="userSpaceOnUse">
      <stop offset=".07" stop-color="#f37e58"/>
      <stop offset=".36" stop-color="#fac0a0"/>
    </radialGradient>
    <filter id="luminosity-noclip-3" x="77.3" y="3.38" width="75.33" height="75.54" color-interpolation-filters="sRGB" filterUnits="userSpaceOnUse">
      <feFlood flood-color="#fff" result="bg"/>
      <feBlend in="SourceGraphic" in2="bg"/>
    </filter>
    <filter id="luminosity-noclip-4" x="77.3" y="-7689.81" width="75.33" height="32766" color-interpolation-filters="sRGB" filterUnits="userSpaceOnUse">
      <feFlood flood-color="#fff" result="bg"/>
      <feBlend in="SourceGraphic" in2="bg"/>
    </filter>
    <mask id="mask-4" x="77.3" y="-7689.81" width="75.33" height="32766" maskUnits="userSpaceOnUse"/>
    <radialGradient id="radial-gradient-3" cx="-6277.04" cy="-15929.43" fx="-6277.04" fy="-15929.43" r="226.1" gradientTransform="translate(-858.85 4316.53) rotate(45.18) scale(.37 .23)" xlink:href="#radial-gradient"/>
    <mask id="mask-3" x="77.3" y="3.38" width="75.33" height="75.54" maskUnits="userSpaceOnUse">
      <g class="cls-6">
        <g class="cls-23">
          <path class="cls-14" d="M123.29,77.85c-9.99-2.4-19.36-8.01-28.11-16.82-8.85-8.91-14.49-18.4-16.92-28.5-2.2-10.09-.55-17.87,4.95-23.34,5.55-5.51,13.33-7.1,23.34-4.77,10.2,2.38,19.72,8.02,28.57,16.93,8.76,8.81,14.25,18.28,16.47,28.39,2.36,10.12.77,17.93-4.78,23.45-5.5,5.47-13.34,7.02-23.51,4.67Z"/>
        </g>
      </g>
    </mask>
    <radialGradient id="radial-gradient-4" cx="-6277.04" cy="-15929.43" fx="-6277.04" fy="-15929.43" r="226.1" gradientTransform="translate(-858.85 4316.53) rotate(45.18) scale(.37 .23)" xlink:href="#radial-gradient-2"/>
    <mask id="mask-5" x="-40.76" y="43.06" width="188.91" height="215.52" maskUnits="userSpaceOnUse">
      <g id="Mask_Mask_4" data-name="Mask Mask 4">
        <path class="cls-31" d="M13,227.95c-3.97-3.12-9.26-5.88-15.85-8.27-8.39-3.08-15.71-2.51-21.95,1.71-5.61,3.72-8.06,8.63-7.33,14.73l.09-.09c.98,5.73,4.45,11.65,10.4,17.77l47.18-9.28c-3.22-6.86-7.4-12.38-12.55-16.57M-32.03,236.03l-.09.09c-.73-6.1,1.72-11.01,7.33-14.73,6.24-4.21,13.55-4.78,21.95-1.71,6.59,2.39,11.87,5.14,15.85,8.27,5.15,4.19,9.34,9.71,12.55,16.57.25.62.46,1.15.65,1.59l.84.1c-.06-.56-.12-1.12-.18-1.68-1.34-9.09-4.62-16.39-9.83-21.88-4.16-4.68-9.87-8.25-17.15-10.7-11.07-4.02-21.03-3.36-29.89,1.96v.19c-8.85,4.7-12.24,12.41-10.16,23.13,1.15,9.78,8.72,16.9,22.72,21.36l.28-.47c-1.61-1.5-3.1-2.94-4.47-4.31-5.96-6.12-9.42-12.04-10.4-17.77Z"/>
      </g>
    </mask>
    <filter id="luminosity-noclip-5" x="115.99" y="43.06" width="32.16" height="32.19" color-interpolation-filters="sRGB" filterUnits="userSpaceOnUse">
      <feFlood flood-color="#fff" result="bg"/>
      <feBlend in="SourceGraphic" in2="bg"/>
    </filter>
    <filter id="luminosity-noclip-6" x="115.99" y="-7689.81" width="32.16" height="32766" color-interpolation-filters="sRGB" filterUnits="userSpaceOnUse">
      <feFlood flood-color="#fff" result="bg"/>
      <feBlend in="SourceGraphic" in2="bg"/>
    </filter>
    <mask id="mask-7" x="115.99" y="-7689.81" width="32.16" height="32766" maskUnits="userSpaceOnUse"/>
    <radialGradient id="radial-gradient-5" cx="-15495.61" cy="-30586.01" fx="-15495.61" fy="-30586.01" r="226.09" gradientTransform="translate(-935.98 4252.44) rotate(45.18) scale(.14 .12)" xlink:href="#radial-gradient"/>
    <mask id="mask-6" x="115.99" y="43.06" width="32.16" height="32.19" maskUnits="userSpaceOnUse">
      <g class="cls-8">
        <g class="cls-25">
          <path class="cls-16" d="M121.74,69.52c-3.4-3.42-5.3-7.33-5.7-11.73-.3-4.42.99-8.05,3.86-10.9,2.9-2.88,6.53-4.14,10.91-3.77,4.46.37,8.38,2.27,11.78,5.69,3.36,3.38,5.2,7.29,5.51,11.71.37,4.41-.89,8.06-3.79,10.94-2.87,2.85-6.53,4.1-10.98,3.74-4.36-.4-8.22-2.29-11.58-5.67Z"/>
        </g>
      </g>
    </mask>
    <radialGradient id="radial-gradient-6" cx="-15495.61" cy="-30586.01" fx="-15495.61" fy="-30586.01" r="226.09" gradientTransform="translate(-935.98 4252.44) rotate(45.18) scale(.14 .12)" xlink:href="#radial-gradient-2"/>
    <clipPath id="clippath">
      <path class="cls-1" d="M229.33,186.94l-14.74-50.44-10.65,16.45s-4.86-5.34-17.11-1.34c-12.25,3.99-14.68,21.53-14.68,21.53,0,0-6.78-9.17-12.4-7.85-5.62,1.32-8.15,8.8-8.15,8.8,0,0-5.13-19.14-15.93-20.95-10.81-1.82-26.03,10.05-26.03,10.05,0,0,5.28-10.03-1.54-16.05-4.02-3.55-14.84.95-14.84.95,0,0,14.06-11.48,4.34-28.4-9.72-16.92-19.53-10.84-19.53-10.84,0,0,6.64-10.59-.05-19.92-6.7-9.33-14.7-2.73-14.7-2.73l14.37-19-15.65-37.62,1.41,33.29-21.75-11.58,13.51,19.78L1.48,85.26l47.86,43.75-26.31,9.28,34.04,19.6-10.56,54.9,54-14.16,5.52,48.7,31.31-39.45,6.36,53.67,32-46.44,50.05,16.27-22.69-44.4,26.69.68"/>
    </clipPath>
    <mask id="mask-8" x="167.86" y="111.33" width="98.71" height="401.21" maskUnits="userSpaceOnUse"/>
    <filter id="luminosity-noclip-7" x="198.82" y="111.33" width="43.7" height="64.25" color-interpolation-filters="sRGB" filterUnits="userSpaceOnUse">
      <feFlood flood-color="#fff" result="bg"/>
      <feBlend in="SourceGraphic" in2="bg"/>
    </filter>
    <filter id="luminosity-noclip-8" x="198.82" y="-7689.81" width="43.7" height="32766" color-interpolation-filters="sRGB" filterUnits="userSpaceOnUse">
      <feFlood flood-color="#fff" result="bg"/>
      <feBlend in="SourceGraphic" in2="bg"/>
    </filter>
    <mask id="mask-10" x="198.82" y="-7689.81" width="43.7" height="32766" maskUnits="userSpaceOnUse"/>
    <radialGradient id="radial-gradient-7" cx="-13567.26" cy="-13506.33" fx="-13567.26" fy="-13506.33" r="226.09" gradientTransform="translate(-930.76 4333.87) rotate(73.58) scale(.27 .17)" xlink:href="#radial-gradient"/>
    <mask id="mask-9" x="198.82" y="111.33" width="43.7" height="64.25" maskUnits="userSpaceOnUse">
      <g class="cls-7">
        <g class="cls-35">
          <path class="cls-15" d="M201.04,149.32c-2.59-8.78-2.91-16.83-.97-24.14,2.09-7.23,5.84-11.65,11.27-13.25,5.47-1.61,11.01.06,16.62,5.03,5.71,5.06,9.86,11.98,12.45,20.76,2.56,8.69,2.8,16.66.72,23.92-1.99,7.31-5.72,11.77-11.19,13.38-5.42,1.6-10.99-.12-16.69-5.16-5.57-5-9.64-11.85-12.2-20.53Z"/>
        </g>
      </g>
    </mask>
    <radialGradient id="radial-gradient-8" cx="-13567.26" cy="-13506.33" fx="-13567.26" fy="-13506.33" r="226.09" gradientTransform="translate(-930.76 4333.87) rotate(73.58) scale(.27 .17)" xlink:href="#radial-gradient-2"/>
  </defs>
  <g id="Layer_1-2" data-name="Layer 1">
    <g>
      <g id="Layer_1-3" data-name="Layer 1">
        <g>
          <path class="cls-37" d="M169.66,194.07c5.99-2.91,11.63-5.98,16.94-9.22,1.61-.99,3.19-2,4.76-3.03,16.15-10.57,28.78-22.69,37.88-36.35.93-1.4,1.82-2.82,2.68-4.25,1.08-1.83,2.1-3.67,3.07-5.52,9.7-18.7,12.85-37.49,9.45-56.39-.17-.95-.36-1.9-.58-2.86-.24-1.07-.49-2.13-.75-3.18-4.85-19.04-14.49-35.6-28.92-49.67-6.7-6.44-13.58-11.46-20.64-15.04-6.92-3.49-14.22-5.94-21.9-7.35-.45-.08-.9-.16-1.35-.24h-.07c-.36-.03-.71-.06-1.07-.09-6.58-.7-12.61-.98-18.09-.83-24.41.61-38.58,11.31-42.52,32.09-11.3,10.93-22.7,22.85-34.2,35.75-3.81,4.26-7.61,8.63-11.4,13.1-.17.26-.28.53-.34.81-.14,1.16-.26,2.32-.36,3.48-2.79,30.93,4.4,55.46,21.57,73.6,11.32,12.04,27.11,21.21,47.38,27.51,11.19,3.48,23.73,6.08,37.61,7.82.26.08.54.03.86-.12M85.65,156.42c-17.03-18.04-23.86-42.68-20.49-73.93.03-.07.04-.15.04-.25,3.74-4.38,7.37-8.56,10.89-12.54,13.04-14.88,24.43-27.02,34.18-36.43.22-.21.37-.47.44-.77,2.3-11.36,8.26-19.33,17.88-23.92,5.03-2.41,11.12-3.91,18.27-4.5,6.35-.53,13.51-.35,21.51.55,1.84.32,3.66.69,5.45,1.11.97.23,1.93.49,2.9.77,4.81,1.33,9.48,3.15,14.01,5.44,6.78,3.44,13.42,8.27,19.9,14.49,12.74,12.4,21.64,26.81,26.71,43.23.31,1.05.62,2.12.93,3.22.15.6.31,1.19.46,1.79,5.42,21.28,3.34,41.22-6.24,59.8-.84,1.55-1.7,3.09-2.59,4.64-9.75,16.42-25,30.82-45.74,43.2-4.94,2.93-10.2,5.77-15.75,8.5-15.82-2.01-29.84-5.17-42.06-9.47-17.09-6.04-30.66-14.35-40.71-24.91Z"/>
          <path class="cls-19" d="M168.41,190.81c-15.82-2.01-29.84-5.17-42.06-9.47-17.09-6.04-30.66-14.35-40.71-24.91-17.03-18.04-23.86-42.68-20.49-73.93.03-.07.04-.15.04-.25,3.74-4.38,7.37-8.56,10.89-12.54,13.04-14.88,24.43-27.02,34.18-36.43.22-.21.37-.47.44-.77,2.3-11.36,8.26-19.33,17.88-23.92,5.03-2.41,11.12-3.91,18.27-4.5,6.35-.53,13.51-.35,21.51.55,1.84.32,3.66.69,5.45,1.11.97.23,1.93.49,2.9.77,4.81,1.33,9.48,3.15,14.01,5.44,6.78,3.44,13.42,8.27,19.9,14.49,12.74,12.4,21.64,26.81,26.71,43.23.31,1.05.62,2.12.93,3.22.15.6.31,1.19.46,1.79,5.42,21.28,3.34,41.22-6.24,59.8-.84,1.55-1.7,3.09-2.59,4.64-9.75,16.42-25,30.82-45.74,43.2-4.94,2.93-10.2,5.77-15.75,8.5Z"/>
        </g>
      </g>
      <g class="cls-2">
        <g id="Layer_2-2" data-name="Layer 2">
          <g class="cls-27">
            <path class="cls-12" d="M143.95,103.33c-8.85-8.91-14.49-18.4-16.92-28.5-2.2-10.09-.55-17.87,4.95-23.34,5.55-5.51,13.33-7.1,23.34-4.77,10.2,2.38,19.72,8.02,28.57,16.93,8.76,8.81,14.25,18.28,16.47,28.39,2.36,10.12.77,17.93-4.78,23.45-5.5,5.47-13.34,7.02-23.51,4.67-9.99-2.4-19.36-8.01-28.11-16.82Z"/>
          </g>
          <g class="cls-22">
            <path class="cls-10" d="M123.29,77.85c-9.99-2.4-19.36-8.01-28.11-16.82-8.85-8.91-14.49-18.4-16.92-28.5-2.2-10.09-.55-17.87,4.95-23.34,5.55-5.51,13.33-7.1,23.34-4.77,10.2,2.38,19.72,8.02,28.57,16.93,8.76,8.81,14.25,18.28,16.47,28.39,2.36,10.12.77,17.93-4.78,23.45-5.5,5.47-13.34,7.02-23.51,4.67Z"/>
          </g>
        </g>
      </g>
      <g>
        <g>
          <path class="cls-31" d="M130.64,120.24c-3.03-3.7-4.39-7.68-4.08-11.93.1-.88.23-1.78.39-2.68.66-3.58,2.11-7.22,4.36-10.93,1.71-2.9,3.06-5.08,4.06-6.54,1.56-2.2,3.09-4,4.58-5.39,2.74-.08,5.81.46,9.2,1.63,4.02,1.38,7.61,3.88,10.78,7.49,5.33,6.11,8.11,10.73,8.36,13.87-8.05,10.22-15.7,16.11-22.96,17.67-6.81,1.4-11.71.34-14.7-3.18Z"/>
          <g>
            <path d="M132.45,92.78c-.07-3.01.91-5.63,2.96-7.85,2.04-2.35,4.51-3.62,7.41-3.8,2.87-.22,5.36.71,7.49,2.77,2.08,1.97,3.15,4.48,3.2,7.51.13,3.02-.84,5.68-2.89,7.98-2.01,2.26-4.52,3.49-7.51,3.7-2.9.18-5.41-.73-7.52-2.73-2.06-1.99-3.11-4.52-3.14-7.57Z"/>
            <path class="cls-31" d="M141.24,93.67c1.11-.07,2.02-.53,2.75-1.39.75-.75,1.19-1.66,1.3-2.73.09-1.05-.23-1.92-.96-2.61-.63-.59-1.43-.83-2.4-.7-1.15.11-2.12.56-2.91,1.35-.69.81-1.1,1.73-1.22,2.75-.03,1.12.27,1.98.88,2.6.73.69,1.58.94,2.56.74M143.24,97.27c.32-.25.49-.61.51-1.08,0-.45-.19-.87-.58-1.26-.36-.41-.8-.65-1.32-.71-.45,0-.83.12-1.15.37-.27.26-.42.61-.48,1.05.07.44.29.87.66,1.27.39.39.8.62,1.24.7.48.04.85-.08,1.12-.34Z"/>
          </g>
          <path class="cls-5" d="M170.73,106.04l.04-.45c.15-3.95-2.62-9.23-8.32-15.85-3.33-3.82-7.45-6.57-12.35-8.23-2.9-.96-6.33-1.31-10.28-1.04h-.49s-.38.31-.38.31c-4.26,3.87-7.68,7.98-10.25,12.34l.03.03c-2.8,4.78-4.54,8.91-5.2,12.39-.12.63-.26,1.6-.43,2.93-.48,5.58.96,10.4,4.31,14.48l.03.03c3.4,4.36,9.42,5.63,18.05,3.82,7.21-1.47,15.52-8.24,24.92-20.32l.32-.45M126.95,105.62c.66-3.58,2.11-7.22,4.36-10.93,1.71-2.9,3.06-5.08,4.06-6.54,1.56-2.2,3.09-4,4.58-5.39,2.74-.08,5.81.46,9.2,1.63,4.02,1.38,7.61,3.88,10.78,7.49,5.33,6.11,8.11,10.73,8.36,13.87-8.05,10.22-15.7,16.11-22.96,17.67-6.81,1.4-11.71.34-14.7-3.18-3.03-3.7-4.39-7.68-4.08-11.93.1-.88.23-1.78.39-2.68Z"/>
        </g>
        <path class="cls-31" d="M97.74,83.71c-1.46-.21-2.69-.96-3.69-2.24-1.16-1.68-1.93-3.11-2.32-4.3-.58-1.61-.68-3.34-.3-5.2.83-4.76,2.6-9.11,5.3-13.06,2.17-3.18,3.54-5.14,4.1-5.88,1.45-2.04,2.82-3.66,4.13-4.87,2.18-.04,4.46.57,6.83,1.83,2.2,1.19,4.33,2.84,6.36,4.94,4.08,4.24,6.31,8.03,6.69,11.35-6.95,7.88-13.87,13.27-20.76,16.18-2.61,1.06-4.72,1.47-6.35,1.24Z"/>
        <g>
          <g>
            <path d="M93.28,75.51c0-2.79.95-5.25,2.83-7.38,1.9-2.15,4.2-3.33,6.89-3.55,2.64-.23,4.9.57,6.79,2.38,1.92,1.85,2.87,4.16,2.87,6.95.09,2.76-.82,5.21-2.72,7.36-1.9,2.15-4.22,3.32-6.94,3.5-2.69.22-4.96-.57-6.82-2.35-1.89-1.81-2.85-4.12-2.9-6.92Z"/>
            <path class="cls-31" d="M101.4,76.18c1.04-.06,1.88-.48,2.54-1.26.71-.77,1.12-1.63,1.23-2.58.1-1-.17-1.8-.81-2.4-.55-.55-1.31-.77-2.28-.64-1.02.11-1.89.55-2.6,1.32-.66.78-1.07,1.61-1.24,2.5-.01,1.05.27,1.86.86,2.45.6.56,1.37.77,2.31.61M102.15,79.8c.45.07.8-.02,1.06-.27.31-.24.46-.59.47-1.05-.07-.45-.28-.85-.64-1.21-.3-.35-.66-.54-1.08-.58-.41.02-.76.14-1.07.38-.25.25-.41.57-.46.94.06.4.24.77.54,1.11.36.36.75.58,1.18.68Z"/>
          </g>
          <path class="cls-5" d="M90.73,83.93c2.43,3.84,7.27,4.26,14.53,1.27,6.49-2.65,13.63-8.48,21.42-17.47l.38-.45v-.56c.02-4.65-2.21-9.29-6.68-13.93-4.7-4.87-9.92-7.12-15.67-6.74l-.45-.04-.17.17c-3.31,2.96-6.52,6.68-9.62,11.16-3.15,4.61-5.14,9.3-5.97,14.06-.9,4.97-.16,9.14,2.23,12.52M91.8,77.1c-.58-1.61-.68-3.34-.3-5.2.83-4.76,2.6-9.11,5.3-13.06,2.17-3.18,3.54-5.14,4.1-5.88,1.47-2.02,2.86-3.63,4.16-4.83,2.16-.06,4.41.55,6.76,1.83,2.23,1.17,4.36,2.8,6.4,4.9,4.05,4.27,6.28,8.05,6.69,11.35-6.93,7.9-13.85,13.3-20.76,16.18-2.61,1.06-4.72,1.47-6.35,1.24-1.46-.21-2.7-.95-3.72-2.21-1.13-1.7-1.9-3.14-2.29-4.33Z"/>
        </g>
      </g>
      <g id="Layer_1-4" data-name="Layer 1">
        <g>
          <path class="cls-33" d="M127.97,59.36l-.03.03c-.27-2.28.64-4.11,2.74-5.5,2.33-1.57,5.06-1.79,8.19-.64,2.46.89,4.43,1.92,5.92,3.09,1.92,1.56,3.49,3.62,4.69,6.18l-17.62,3.47c-2.22-2.28-3.52-4.5-3.88-6.64Z"/>
          <path class="cls-5" d="M131.85,66c.51.51,1.07,1.05,1.67,1.61l-.11.17c-5.22-1.67-8.05-4.32-8.48-7.97-.78-4,.49-6.88,3.79-8.63v-.07c3.31-1.99,7.03-2.23,11.16-.73,2.72.91,4.85,2.25,6.4,3.99,1.95,2.05,3.17,4.77,3.67,8.17.02.21.05.42.07.63l-.31-.04c-.07-.16-.15-.36-.24-.59-1.2-2.56-2.76-4.62-4.69-6.18-1.48-1.17-3.46-2.2-5.92-3.09-3.13-1.15-5.87-.94-8.19.64-2.1,1.39-3.01,3.22-2.74,5.5l.03-.03c.37,2.14,1.66,4.35,3.88,6.64Z"/>
        </g>
      </g>
      <g class="cls-24">
        <g id="Layer_2-3" data-name="Layer 2">
          <g class="cls-26">
            <path class="cls-9" d="M121.74,69.52c-3.4-3.42-5.3-7.33-5.7-11.73-.3-4.42.99-8.05,3.86-10.9,2.9-2.88,6.53-4.14,10.91-3.77,4.46.37,8.38,2.27,11.78,5.69,3.36,3.38,5.2,7.29,5.51,11.71.37,4.41-.89,8.06-3.79,10.94-2.87,2.85-6.53,4.1-10.98,3.74-4.36-.4-8.22-2.29-11.58-5.67Z"/>
          </g>
        </g>
      </g>
      <g id="Layer_4" data-name="Layer 4">
        <path class="cls-5" d="M131.85,66c.51.51,1.07,1.05,1.67,1.61l-.11.17c-5.22-1.67-8.05-4.32-8.48-7.97-.78-4,.49-6.88,3.79-8.63v-.07c3.31-1.99,7.03-2.23,11.16-.73,2.72.91,4.85,2.25,6.4,3.99,1.95,2.05,3.17,4.77,3.67,8.17.02.21.05.42.07.63l-.31-.04c-.07-.16-.15-.36-.24-.59-1.2-2.56-2.76-4.62-4.69-6.18-1.48-1.17-3.46-2.2-5.92-3.09-3.13-1.15-5.87-.94-8.19.64-2.1,1.39-3.01,3.22-2.74,5.5l.03-.03c.37,2.14,1.66,4.35,3.88,6.64Z"/>
      </g>
      <g>
        <path class="cls-34" d="M229.33,186.94l-14.74-50.44-10.65,16.45s-4.86-5.34-17.11-1.34c-12.25,3.99-14.68,21.53-14.68,21.53,0,0-6.78-9.17-12.4-7.85-5.62,1.32-8.15,8.8-8.15,8.8,0,0-5.13-19.14-15.93-20.95-10.81-1.82-26.03,10.05-26.03,10.05,0,0,5.28-10.03-1.54-16.05-4.02-3.55-14.84.95-14.84.95,0,0,14.06-11.48,4.34-28.4-9.72-16.92-19.53-10.84-19.53-10.84,0,0,6.64-10.59-.05-19.92-6.7-9.33-16.05-3.09-16.05-3.09l15.72-18.63-15.65-37.62,1.41,33.29-21.75-11.58,13.51,19.78L1.48,85.26l47.86,43.75-26.31,9.28,34.04,19.6-10.56,54.9,54-14.16,5.52,48.7,31.31-39.45,6.36,53.67,32-46.44,50.05,16.27-22.69-44.4,26.69.68"/>
        <g class="cls-36">
          <path class="cls-20" d="M201.42,237.53c5.23-13.1,5.76-23.08,1.59-29.94-2.19-3.77-6.72-7.23-13.6-10.4-20.96-5.53-31.22-17.44-30.78-35.72l-9.86-3.13c-4.11,14.91-.22,26.87,11.67,35.87,7.58,4.13,16.31,7.74,26.18,10.82,3.02,1.4,5.38,2.86,7.06,4.38,3.53,3.5,5.28,8.3,5.25,14.38.33,3.8-.77,9.74-3.3,17.8l5.76-4.06M179.93,219.82c5.47,2.3,9.29,4.18,11.45,5.65,2.29,2.53.5,9.43-5.36,20.69l5.23-1.87,1.13-4.04c5.69-12.55,3.16-21.64-7.58-27.28-34.28-5.39-42.18-43.44-43.48-60.07l-9.86-3.13c-1.09,12.32,6.5,43.3,16.1,53.57,8.17,6.5,18.96,12,32.37,16.48Z"/>
        </g>
        <path class="cls-18" d="M216.01,136.08l14.74,50.45s.01.04.02.07c.29.28.46.67.45,1.1-.02.82-.7,1.46-1.52,1.44l-24.2-.62,21.56,42.19c.27.53.2,1.18-.19,1.63-.39.46-1.01.63-1.58.45l-49-15.92-31.37,45.53c-.35.51-.98.74-1.57.6-.6-.15-1.04-.65-1.11-1.26l-5.94-50.14-29.1,36.66c-.37.47-.99.67-1.57.5-.58-.16-.99-.66-1.06-1.26l-5.33-47.01-52.35,13.73c-.49.13-1.01,0-1.39-.35-.37-.35-.54-.86-.44-1.36l10.36-53.86-33.13-19.07c-.5-.29-.79-.84-.73-1.42.05-.58.44-1.07.98-1.26l23.99-8.46L.48,86.36c-.4-.37-.57-.92-.44-1.44.13-.53.53-.94,1.06-1.08l51.7-13.67-12.32-18.05c-.38-.56-.33-1.31.12-1.82.45-.51,1.2-.64,1.8-.32l19.47,10.36-1.3-30.71c-.03-.72.46-1.35,1.16-1.51.7-.15,1.41.22,1.69.88l15.16,36.77c.21.5.13,1.06-.2,1.47l-11.92,15.26c3.98-.72,8.91.16,12.78,5.55,4.94,6.88,3.29,14.25,1.67,18.36,1.28-.18,2.85-.18,4.61.27,4.92,1.24,9.42,5.37,13.38,12.26,6.7,11.67,2.66,21-.95,26.08,3.72-.9,8.46-1.37,11.14,1,4.24,3.75,4.45,9.09,3.51,13.28,5.37-3.5,15.33-8.97,23.33-7.63,8.67,1.46,13.82,12.57,15.96,18.44,1.46-2.44,3.92-5.41,7.55-6.27,4.53-1.06,9.26,3.1,11.9,5.98,1.35-5.45,5.22-16.41,15.06-19.62,9.38-3.05,14.81-.92,17.21.6l9.77-15.1c.31-.49.88-.74,1.46-.66.57.08,1.03.49,1.2,1.03h0ZM150.17,174.46c-.05-.18-5.01-18.24-14.75-19.88-10.04-1.69-24.73,9.64-24.88,9.76-.55.43-1.32.41-1.86-.03-.53-.45-.69-1.21-.36-1.82.05-.09,4.67-9.06-1.21-14.25-2.42-2.13-9.44-.39-13.29,1.21-.68.28-1.46.02-1.83-.6-.38-.63-.24-1.44.33-1.9.53-.44,12.96-10.92,4-26.52-3.47-6.05-7.44-9.8-11.46-10.85-3.52-.92-5.92.48-6.01.53-.58.36-1.34.27-1.83-.21-.49-.49-.57-1.25-.2-1.83.06-.1,6.05-9.84,0-18.28-5.76-8.03-13.69-2.94-14.03-2.72-.6.4-1.41.31-1.91-.22-.49-.53-.53-1.35-.08-1.92l14.69-18.81-11.63-28.21,1.05,24.9c.02.53-.24,1.03-.69,1.31-.45.28-1.01.3-1.48.05l-16.44-8.75,10.12,14.82c.27.4.33.9.16,1.35-.17.45-.54.79-1.01.91l-51.1,13.51,45.86,41.92c.38.35.55.88.45,1.39-.1.51-.47.93-.96,1.1l-23.28,8.21,31.25,17.99c.55.31.83.94.71,1.56l-10.12,52.59,51.73-13.56c.41-.11.86-.03,1.21.21.35.24.58.62.63,1.05l5.12,45.15,29.08-36.64c.37-.47.99-.67,1.56-.5.57.16,1,.66,1.06,1.25l5.89,49.77,29.78-43.21c.37-.54,1.05-.77,1.67-.57l46.64,15.16-21.06-41.22c-.24-.46-.21-1.02.07-1.46.28-.44.77-.7,1.29-.69l24.46.62-13.47-46.11-8.89,13.74c-.25.38-.66.62-1.11.66-.45.04-.9-.13-1.21-.46-.18-.19-4.52-4.55-15.58-.95-11.22,3.66-13.65,20.16-13.67,20.32-.08.59-.52,1.08-1.1,1.23-.58.15-1.2-.07-1.55-.55-1.73-2.33-7.05-8.19-10.87-7.29-4.74,1.11-7.07,7.77-7.09,7.84-.21.62-.8,1.02-1.45,1-.63-.02-1.18-.44-1.37-1.05,0-.02,0-.03-.01-.05Z"/>
      </g>
      <g>
        <g id="Layer_1-5" data-name="Layer 1">
          <g>
            <path class="cls-33" d="M208.6,161.61c-2.38-3.01-3.8-6.46-4.27-10.33-.58-5.16,1-11.32,4.76-18.5.02.02.06.04.11.04,1.04.31,2.74-.44,5.1-2.24,2.41-1.8,4.22-3.1,5.45-3.91l7.45.72-.18-.11c2.33,1.07,4.4,2.35,6.22,3.86,2.84,2.48,4.87,5.76,6.09,9.83,1.06,3.96,1.21,8.02.46,12.17-.77,4.13-2.32,7.5-4.65,10.11-2.84,3.14-6.43,5.06-10.79,5.75-5.97.85-11.22-1.62-15.75-7.4Z"/>
            <path class="cls-37" d="M204.33,151.28c.47,3.87,1.89,7.32,4.27,10.33,4.53,5.78,9.78,8.25,15.75,7.4,4.35-.69,7.95-2.61,10.79-5.75,2.33-2.61,3.88-5.98,4.65-10.11.75-4.16.6-8.22-.46-12.17-1.22-4.08-3.25-7.36-6.09-9.83-1.82-1.51-3.89-2.79-6.22-3.86l1.67-1.6c2.36.57,4.49,1.66,6.41,3.26,3.28,2.84,5.61,6.6,6.99,11.28l.03.04c1.54,5.82,1.99,10.59,1.34,14.32-.88,4.65-2.65,8.47-5.32,11.45l-.04.03c-3.28,3.61-7.43,5.81-12.48,6.61-3.5.57-6.94.01-10.31-1.67-3.31-1.61-6.3-4.15-8.98-7.62-2.68-3.42-4.29-7.36-4.84-11.8-.76-5.82,1.68-12.09,7.32-18.81l.29-.21c.05.1.08.18.1.25-.05,0-.08-.01-.11-.04-3.75,7.18-5.34,13.35-4.76,18.5Z"/>
          </g>
        </g>
        <g class="cls-29">
          <g id="Layer_2-4" data-name="Layer 2">
            <g class="cls-28">
              <path class="cls-11" d="M201.04,149.32c-2.59-8.78-2.91-16.83-.97-24.14,2.09-7.23,5.84-11.65,11.27-13.25,5.47-1.61,11.01.06,16.62,5.03,5.71,5.06,9.86,11.98,12.45,20.76,2.56,8.69,2.8,16.66.72,23.92-1.99,7.31-5.72,11.77-11.19,13.38-5.42,1.6-10.99-.12-16.69-5.16-5.57-5-9.64-11.85-12.2-20.53Z"/>
            </g>
          </g>
        </g>
        <g id="Layer_3" data-name="Layer 3">
          <path class="cls-5" d="M218.06,147.86c.44,1.76,1.21,3.07,2.3,3.92,1.09.95,2.08.96,2.95.03,1.19-1.18,1.77-2.88,1.74-5.09.1-2.32-1.15-5.05-3.74-8.19,1.62-1.6,3.02-2.62,4.19-3.04,1.22-.52,2.44-.34,3.65.54,1.19.85,2.14,2.04,2.84,3.54.8,1.56,1.24,3.23,1.32,5.01h.07c.29-3.57-.49-6.49-2.34-8.76-1.5-1.86-3-2.79-4.49-2.8-1.9-.09-4.02,1.33-6.38,4.24-3.45-1.56-5.98-.51-7.57,3.15-1.44,3.29-1.76,8.14-.94,14.56.53-5.94,1.4-10.38,2.62-13.32.37-.92.9-1.61,1.57-2.07.89-.62,1.78-.69,2.67-.19-.55,1.51-.87,2.9-.94,4.18-.1,1.25.06,2.68.48,4.28M220.31,140.12c2.05,1.84,2.95,4.07,2.71,6.67-.17,2.58-.89,3.53-2.16,2.84-.7-.39-1.13-1.54-1.28-3.44-.17-2.02.07-4.04.73-6.07Z"/>
        </g>
      </g>
      <path d="M108.1,151.28c-1.36-.32-1.84-.89-1.44-1.7,6.4-6.25,12.39-8.12,17.98-5.59,5.6,2.57,9.02,8.4,10.28,17.49.35,1.62.05,2.12-.88,1.5-7.84-6.2-16.49-10.09-25.94-11.7Z"/>
      <path d="M67.05,113.74c1.03-8.62-.16-17.09-3.58-25.4-.28-.94.23-1.07,1.54-.38,7.56,3.4,11.74,7.83,12.52,13.31.77,5.44-2.35,10.15-9.36,14.11-.83.14-1.2-.4-1.12-1.63Z"/>
      <g>
        <path class="cls-4" d="M222.6,68.25c1.07,11.97-10.59,39.42-31.3,36.3-19.08-2.87-1.12-25.05-1.48-35.12-.36-10.07-19.87-30.9-1.05-35.14,20.42-4.6,34.03,21.94,33.82,33.96Z"/>
        <g>
          <path class="cls-31" d="M207.54,94.82c1.84-21.85,5.91-29.96-3.51-53.39-.36-.89,3.45-1.71,5.36-1.36,10,12.66,13.86,27.84,13.86,27.84,0,0-2.42,16.34-10.25,28.15-1.68.29-5.56,0-5.46-1.23Z"/>
          <path class="cls-30" d="M208.15,95.96c-2.45-1.19,1.69-21.35,1.21-34.68-.32-8.85-7.17-19.47-4.83-21.02.79-.53,2.58-.93,4.46-.7.27.33.53.68.79,1.03-1.98-.51-4.04-.07-4.76.4-1.17.78,4.72,6.32,5.22,20.26.61,16.98-3.17,33.21-1.7,33.92,1.07.52,3.06.76,4.73.39-.18.33-.37.66-.56.99-1.71.21-3.51-.08-4.55-.59Z"/>
        </g>
        <g>
          <path class="cls-31" d="M188.03,42.11c3.21,1.56,7.17,50.29,2.71,53.25-.77.51-5.74.22-7.59-.12.8-13.45,7.54-18.19,6.91-24.53-1.4-13.94-8.62-13.6-8.85-28.99,1.62-.28,5.76-.13,6.83.39Z"/>
          <path class="cls-30" d="M188.21,41.73c2.37,1.16,4.36,20.47,4.82,33.38.31,8.57.2,19.1-2.06,20.61-.77.51-5.62.24-7.44.02-.26-.32-.52-.66-.76-1,1.92.49,7.04.73,7.73.27,1.13-.75,2.17-6.37,1.69-19.87-.59-16.45-2.92-31.96-4.35-32.65-1.04-.5-5.29-.65-6.91-.29.18-.32.36-.64.55-.95,1.65-.2,5.72,0,6.73.49Z"/>
        </g>
        <path class="cls-37" d="M192.23,110.52c-3.86-.93-4.31-.95-6.22-1.82-3.74-1.85-4.47-3.2-5.13-3.78.16.28-.07,3.02,4.42,5.33,3.06,1.27,4.31.95,6.94.26Z"/>
        <path class="cls-37" d="M189.52,27.12c-.09,0-2.48-.51-5.42.79-4.15,1.96-3.18,4.2-3.26,4.38.44-.41-.01-.97,3.96-2.82,4.93-2.21,4.16-2.07,4.72-2.35Z"/>
        <path class="cls-37" d="M188.59,33.46c6.65-1.5,12.99.03,18.84,4.54,10.48,8.08,15.76,22.81,16.02,30.23.27,7.41-3.94,22.49-13.81,31.3-5.51,4.92-11.72,6.89-18.47,5.88-6.13-.92-9.33-3.97-9.52-9.06-.3-8.4,7.54-20.45,7.31-26.88-.23-6.44-8.92-17.88-9.22-26.29-.18-5.09,2.79-8.35,8.84-9.72ZM183.37,96.28c.15,4.26,2.71,6.62,8.06,7.42,6.22.94,11.96-.9,17.07-5.46,9.05-8.08,13.51-22.59,13.24-29.96-.26-7.37-5.75-21.52-15.36-28.93-5.42-4.18-11.28-5.6-17.42-4.22-5.27,1.19-7.66,3.72-7.5,7.98.29,7.93,8.97,19.36,9.22,26.29.25,6.93-7.59,18.95-7.31,26.88Z"/>
        <g>
          <path class="cls-17" d="M199.63,94.13c-1.17-4.63-.79-7.47-.3-12.18.62-5.87,5.75-15.3,9.42-21.93,2.73,7.07-.61,20.82,9.94,21.61,7.7.57,10.48,5.86,11.6,9.43,1.09,3.45,1.82,9.22-3.81,13.97-11.89,10.03-25.28-4.68-26.86-10.9Z"/>
          <path class="cls-32" d="M211.57,97.26c-1.77-1.49-3.22-3.19-4.01-5.17-.81-1.97-1.09-4.11-1.08-6.29-.02-2.19.24-4.42.39-6.7.09-1.14.14-2.3.11-3.47-.08-1.15-.19-2.44-.94-3.37.34,1.11.15,2.21-.02,3.31-.19,1.1-.45,2.2-.66,3.32-.47,2.23-.83,4.54-.84,6.91.03,2.36.44,4.84,1.68,6.97.6,1.06,1.4,2.01,2.32,2.76.94.74,1.97,1.33,3.06,1.72Z"/>
          <path class="cls-32" d="M226.98,106.29c-4.14,3.49-8.95,4.49-13.91,2.89-7.36-2.37-13.42-9.92-14.53-14.31h0c-1.17-4.6-.85-7.52-.38-11.93l.06-.59c.62-5.81,5.25-14.56,9.54-22.3.19-.34.55-.53.93-.51.38.03.71.27.85.63.89,2.3,1.16,5.12,1.44,8.1.6,6.38,1.18,12.4,7.66,12.88,6.22.46,10.53,3.96,12.47,10.12.02.06.04.13.06.19,1.79,5.89.35,11.02-4.18,14.83ZM209.01,68.45c-.18-1.91-.35-3.74-.69-5.36-3.13,5.7-7.6,14.26-8.15,19.46l-.06.6c-.46,4.35-.74,6.98.34,11.23h0c.98,3.84,6.61,10.79,13.23,12.92,4.34,1.4,8.39.55,12.04-2.53,3.97-3.35,5.12-7.69,3.51-12.92-1.7-5.4-5.31-8.34-10.73-8.74-4.92-.37-7.12-3.24-8.24-6.9-.73-2.4-.99-5.15-1.24-7.76ZM199.49,94.64h0s0,0,0,0Z"/>
        </g>
      </g>
    </g>
  </g>
</svg>