<?xml version="1.0" encoding="UTF-8"?>
<svg id="Layer_2" data-name="Layer 2" xmlns="http://www.w3.org/2000/svg" xmlns:xlink="http://www.w3.org/1999/xlink" viewBox="0 0 256.44 233.82">
  <defs>
    <style>
      .cls-1 {
        mask: url(#mask);
      }

      .cls-2 {
        fill: #bb6c32;
      }

      .cls-3 {
        fill: #2b1010;
      }

      .cls-4 {
        fill: #251214;
      }

      .cls-5 {
        fill: url(#radial-gradient-3);
      }

      .cls-6 {
        fill: url(#radial-gradient-2);
      }

      .cls-7 {
        fill: #ee4237;
      }

      .cls-8 {
        fill: url(#radial-gradient);
      }

      .cls-9 {
        fill: url(#linear-gradient);
      }

      .cls-10 {
        fill: #f9a971;
      }

      .cls-11 {
        fill: #be2227;
      }

      .cls-12 {
        mask: url(#mask-2);
      }

      .cls-13 {
        mask: url(#mask-1);
      }

      .cls-14 {
        fill: #a4a3a3;
      }

      .cls-15 {
        fill: #fff;
      }

      .cls-16 {
        fill: #c5763f;
      }

      .cls-17 {
        fill: #44252a;
      }

      .cls-18 {
        fill: #120b0b;
      }

      .cls-19 {
        fill: #be6e35;
      }
    </style>
    <linearGradient id="linear-gradient" x1="4334.56" y1="3001.07" x2="4334.56" y2="3046.93" gradientTransform="translate(-4137.49 -3104.03) rotate(1.4)" gradientUnits="userSpaceOnUse">
      <stop offset="0" stop-color="#f26e4b"/>
      <stop offset=".99" stop-color="#f9a971"/>
    </linearGradient>
    <radialGradient id="radial-gradient" cx="3631.06" cy="2642.4" fx="3631.06" fy="2642.4" r="23.29" gradientTransform="translate(-3984.22 -3090.59) rotate(1.4) scale(1.16)" gradientUnits="userSpaceOnUse">
      <stop offset="0" stop-color="#f26e4b"/>
      <stop offset=".99" stop-color="#f9a971"/>
    </radialGradient>
    <mask id="mask" x="-1244.3" y="47.79" width="1320.3" height="1448.16" maskUnits="userSpaceOnUse"/>
    <radialGradient id="radial-gradient-2" cx="3582.02" cy="2644.71" fx="3582.02" fy="2644.71" r="23.29" gradientTransform="translate(-4038.62 -3089.37) rotate(1.4) scale(1.16)" xlink:href="#radial-gradient"/>
    <mask id="mask-1" x="-1249.12" y="117.92" width="1292.72" height="1488.39" maskUnits="userSpaceOnUse"/>
    <mask id="mask-2" x="-1121.36" y="58.88" width="1236.61" height="1268.74" maskUnits="userSpaceOnUse"/>
    <radialGradient id="radial-gradient-3" cx="3599.44" cy="2649.17" fx="3599.44" fy="2649.17" r="23.29" gradientTransform="translate(-4019.45 -3083.95) rotate(1.4) scale(1.16)" xlink:href="#radial-gradient"/>
  </defs>
  <g id="Layer_1-2" data-name="Layer 1">
    <g>
      <g>
        <g id="robert_5_0_Layer8_0_FILL" data-name="robert 5 0 Layer8 0 FILL">
          <path class="cls-18" d="M153.14,225.02c-.58-2.18-2.32-4.92-5.23-8.22h0c-4.63-5.4-9.98-10.01-16.05-13.8l-.71-.43-5.22-.13-.83.49c-3.46,2.14-6.41,5.58-8.85,10.33h0c-2.83,5.3-3.46,8.9-1.9,10.81,1.12,1.77,2.64,2.56,4.55,2.36,1.12-.04,2.43-.66,3.94-1.85,1.37-1.06,3.22-3.98,5.54-8.77,1.4,5.77,3.79,10.09,7.16,12.97,6.14,5.04,11.13,6.29,14.96,3.74h0c2.9-1.49,3.78-3.99,2.64-7.51M128.67,212.35c-3.44,4.01-5.48,6.32-6.11,6.92-1.53,1.33-2.63,1.47-3.29.43-.46-.76.28-2.96,2.21-6.6,2.15-4.04,4.6-6.78,7.37-8.22,1.16-.18,4.98,2.89,11.45,9.19,6.74,6.51,9.12,10.87,7.16,13.08-2.17,2.4-5.3,1.85-9.38-1.66-3.88-3.37-7.01-7.75-9.41-13.13Z"/>
          <path class="cls-4" d="M147.46,227.14c-2.17,2.4-5.3,1.85-9.38-1.66-3.88-3.37-7.01-7.75-9.41-13.13-3.44,4.01-5.48,6.32-6.11,6.92-1.53,1.33-2.63,1.47-3.29.43-.46-.76.28-2.96,2.21-6.6,2.15-4.04,4.6-6.78,7.37-8.22,1.16-.18,4.98,2.89,11.45,9.19,6.74,6.51,9.12,10.87,7.16,13.08Z"/>
        </g>
        <g>
          <g>
            <g>
              <g id="f6y7dxe_0_Layer0_0_MEMBER_0_FILL" data-name="f6y7dxe 0 Layer0 0 MEMBER 0 FILL">
                <path class="cls-10" d="M38.55,116.26c-4.28,4.74-9.39,7.04-15.32,6.9-5.94-.14-10.96-2.69-15.07-7.64-4.04-4.95-5.98-10.9-5.81-17.86.17-6.89,2.39-12.71,6.67-17.45,4.35-4.74,9.49-7.04,15.42-6.89,5.94.14,10.92,2.69,14.97,7.63,4.04,4.95,5.98,10.86,5.81,17.75-.17,6.96-2.39,12.81-6.67,17.55Z"/>
              </g>
              <g id="f6y7dxe_0_Layer0_0_MEMBER_0_1_STROKES" data-name="f6y7dxe 0 Layer0 0 MEMBER 0 1 STROKES">
                <path class="cls-19" d="M41.21,79.47c4.39,5.37,6.52,11.86,6.34,19.29-.18,7.5-2.63,13.91-7.27,19.06-4.74,5.25-10.49,7.83-17.11,7.66-6.61-.16-12.27-3.01-16.81-8.48h-.01C1.96,111.63-.17,105.1.01,97.6c.18-7.43,2.63-13.81,7.28-18.97,4.8-5.24,10.59-7.81,17.2-7.65,6.62.16,12.24,3.02,16.72,8.49ZM23.28,120.82c5.27.13,9.7-1.88,13.53-6.13,3.93-4.35,5.92-9.6,6.07-16.05.16-6.37-1.57-11.68-5.29-16.22-3.62-4.43-7.95-6.65-13.22-6.78-5.28-.13-9.74,1.88-13.64,6.13-3.93,4.35-5.92,9.57-6.07,15.94-.16,6.44,1.57,11.78,5.28,16.32,3.69,4.44,8.05,6.66,13.33,6.79Z"/>
              </g>
            </g>
            <g id="f6y7dxe_0_Layer0_0_MEMBER_1_FILL" data-name="f6y7dxe 0 Layer0 0 MEMBER 1 FILL">
              <path class="cls-2" d="M19.5,103.61c.75.09,1.81-.23,3.2-.95.97-.52,1.7-1.02,2.19-1.48.34.21.57.56.69,1.04.03,1.43-.23,2.62-.8,3.56-1.06,1.68-2.98,1.98-5.76.88,1.12,1.53,2.3,2.31,3.53,2.34,1.36.03,2.54-.76,3.54-2.37.92-1.48,1.3-2.97,1.13-4.48v-.1c-.04-1.09-.36-2.02-.95-2.79,1.14-1.82,1.63-3.92,1.48-6.31v-.1c-.07-2.53-.91-4.56-2.51-6.1-1.13-1.12-2.39-1.56-3.76-1.32-1.51.3-2.8,1.33-3.86,3.08-.93,1.5-1.51,3.06-1.75,4.67,2.84-4.5,5.37-6.12,7.59-4.83,1.61.99,2.5,2.52,2.65,4.57.02,1.98-.5,3.67-1.56,5.08-2.57-1.15-4.58-1.03-6.05.36-.91.87-1.27,1.85-1.1,2.94.04,1.23.74,2,2.09,2.3M22.04,100.09c-1.17.59-2,.84-2.48.76h-.1c.77-.6,1.62-.85,2.58-.76Z"/>
            </g>
          </g>
          <g>
            <g>
              <g id="Symbol_4_0_Layer4_0_FILL" data-name="Symbol 4 0 Layer4 0 FILL">
                <path class="cls-9" d="M191.87,148.45c-20.73,16.02-45.43,23.67-74.08,22.98-28.72-.7-53.05-9.55-72.98-26.56-18.86-16.09-27.99-36.25-27.4-60.47.3-12.21,2.57-22.94,6.82-32.19,4.68-10.06,12-18.92,21.95-26.6,10.37-8.01,21.98-13.97,34.84-17.89,12.86-3.92,26.49-5.7,40.88-5.35,28.65.7,52.94,9.55,72.87,26.55,19.93,17,29.61,37.17,29.04,60.51-.57,23.33-11.22,43.01-31.95,59.02Z"/>
              </g>
              <g id="Symbol_4_0_Layer4_0_1_STROKES" data-name="Symbol 4 0 Layer4 0 1 STROKES">
                <path class="cls-19" d="M196.29,27.15c20.4,17.4,30.44,38.38,29.86,62.34-.58,23.96-11.64,44.42-32.86,60.81h0c-21.07,16.28-46.49,24.17-75.56,23.46-29.14-.71-54.18-9.83-74.43-27.11-19.33-16.5-28.83-37.45-28.22-62.3.3-12.47,2.67-23.61,7.04-33.12,4.82-10.35,12.43-19.59,22.63-27.46,10.54-8.14,22.51-14.29,35.59-18.28C93.38,1.52,107.38-.31,121.96.04c29.07.71,54.08,9.83,74.33,27.11ZM190.44,146.61h0c20.05-15.49,30.5-34.75,31.05-57.23.55-22.49-8.95-42.23-28.22-58.68-19.42-16.57-43.44-25.32-71.42-26-14.08-.34-27.59,1.42-40.15,5.25-12.53,3.82-24,9.71-34.1,17.51-9.6,7.41-16.76,16.07-21.25,25.73-4.1,8.91-6.33,19.44-6.61,31.27-.57,23.37,8.38,43.1,26.59,58.64,19.42,16.57,43.48,25.32,71.52,26,27.97.68,52.4-6.89,72.6-22.49Z"/>
              </g>
            </g>
            <g id="Symbol_3_0_Layer0_0_FILL" data-name="Symbol 3 0 Layer0 0 FILL">
              <path class="cls-8" d="M177.97,55.97c6.48,7.05,9.61,15.33,9.38,24.83-.24,9.66-3.76,17.78-10.58,24.34-6.74,6.65-14.78,9.86-24.12,9.63-9.34-.23-17.26-3.83-23.74-10.8-6.33-6.89-9.38-15.16-9.14-24.82.23-9.5,3.68-17.62,10.34-24.35,6.82-6.57,14.9-9.74,24.24-9.51s17.22,3.79,23.63,10.68Z"/>
            </g>
            <g class="cls-1">
              <g id="Symbol_3_0_Layer0_0_FILL-2" data-name="Symbol 3 0 Layer0 0 FILL">
                <path class="cls-6" d="M66.6,58.48c6.48,7.05,9.61,15.33,9.38,24.83-.24,9.66-3.76,17.78-10.58,24.34-6.74,6.65-14.78,9.86-24.12,9.63-9.34-.23-17.26-3.83-23.74-10.8-6.33-6.89-9.38-15.16-9.14-24.82.23-9.5,3.68-17.62,10.34-24.35,6.82-6.57,14.9-9.74,24.24-9.51,9.34.23,17.22,3.79,23.63,10.68Z"/>
              </g>
            </g>
            <g id="Symbol_4_0_Layer0_0_1_STROKES" data-name="Symbol 4 0 Layer0 0 1 STROKES">
              <path class="cls-19" d="M196.29,27.15c20.4,17.4,30.44,38.38,29.86,62.34-.58,23.96-11.64,44.42-32.86,60.81h0c-21.07,16.28-46.49,24.17-75.56,23.46-29.14-.71-54.18-9.83-74.43-27.11-19.33-16.5-28.83-37.45-28.22-62.3.3-12.47,2.67-23.61,7.04-33.12,4.82-10.35,12.43-19.59,22.63-27.46,10.54-8.14,22.51-14.29,35.59-18.28C93.38,1.52,107.38-.31,121.96.04c29.07.71,54.08,9.83,74.33,27.11ZM190.44,146.61h0c20.05-15.49,30.5-34.75,31.05-57.23.55-22.49-8.95-42.23-28.22-58.68-19.42-16.57-43.44-25.32-71.42-26-14.08-.34-27.59,1.42-40.15,5.25-12.53,3.82-24,9.71-34.1,17.51-9.6,7.41-16.76,16.07-21.25,25.73-4.1,8.91-6.33,19.44-6.61,31.27-.57,23.37,8.38,43.1,26.59,58.64,19.42,16.57,43.48,25.32,71.52,26,27.97.68,52.4-6.89,72.6-22.49Z"/>
            </g>
          </g>
          <g>
            <g>
              <g id="hyjcfx_0_Layer2_0_FILL" data-name="hyjcfx 0 Layer2 0 FILL">
                <path class="cls-10" d="M247.42,116.63c-4.35,4.74-9.49,7.04-15.42,6.89-5.94-.14-10.92-2.69-14.97-7.63-4.04-4.95-5.98-10.9-5.81-17.86.17-6.89,2.39-12.71,6.67-17.45,4.28-4.74,9.39-7.04,15.32-6.9,5.94.14,10.96,2.69,15.07,7.64,4.04,4.95,5.98,10.86,5.81,17.75-.17,6.96-2.39,12.81-6.67,17.55Z"/>
              </g>
              <g id="hyjcfx_0_Layer2_0_1_STROKES" data-name="hyjcfx 0 Layer2 0 1 STROKES">
                <path class="cls-19" d="M250.09,79.85c4.39,5.37,6.52,11.85,6.34,19.29-.18,7.5-2.63,13.91-7.29,19.07-4.8,5.24-10.59,7.81-17.2,7.65-6.62-.16-12.24-3.02-16.72-8.49-4.39-5.37-6.52-11.89-6.34-19.39.18-7.43,2.63-13.81,7.27-18.96,4.73-5.25,10.49-7.83,17.11-7.67,6.61.16,12.26,3.01,16.82,8.49ZM245.69,115.07c3.93-4.36,5.92-9.6,6.07-16.05.16-6.37-1.57-11.68-5.28-16.21-3.69-4.44-8.06-6.67-13.33-6.8-5.27-.13-9.7,1.88-13.53,6.13-3.93,4.35-5.92,9.57-6.07,15.94-.16,6.44,1.57,11.78,5.29,16.32,3.63,4.43,7.95,6.65,13.22,6.78,5.28.13,9.74-1.88,13.64-6.12Z"/>
              </g>
            </g>
            <g id="hyjcfx_0_Layer2_0_MEMBER_0_FILL" data-name="hyjcfx 0 Layer2 0 MEMBER 0 FILL">
              <path class="cls-10" d="M235.05,120.12c-11.66,2.11-21.42-3.56-29.28-16.99l-5.49-18.26c19.05-8.68,32.68-10.57,40.89-5.66l-6.12,40.91Z"/>
            </g>
            <g id="hyjcfx_0_Layer1_0_FILL" data-name="hyjcfx 0 Layer1 0 FILL">
              <path class="cls-19" d="M225.27,101.24c-.25,1.7.5,3.39,2.23,5.07,1.73,1.82,3.96,2.83,6.68,3.03,2.45.2,4.58-.33,6.39-1.59-4.74,1.11-8.37.34-10.9-2.31-2.46-2.59-2.62-4.57-.47-5.95,1.95,1.14,3.81,2,5.57,2.59,3.32,1.1,5.27.74,5.86-1.09.59-1.83-.47-3.05-3.19-3.66-2.31-.47-4.87-.39-7.69.22-2.07-1.76-3.08-3.93-3.02-6.52.19-2.32,1.57-4.06,4.12-5.22h-.1c1.59-.65,3.29-.64,5.12.02,1.76.59,3.44,1.69,5.04,3.3,1.6,1.61,2.62,3.2,3.06,4.78.51,1.58.56,3.56.16,5.94,2.9-4.09,2.25-8.27-1.95-12.54-2-2.03-4.22-3.31-6.66-3.85-2.1-.46-4.09-.3-5.95.47-2.34.9-3.96,2.63-4.84,5.21-1.03,3.12-.15,6.11,2.65,8.97-1.39.99-2.1,2-2.12,3.02v.1M235.62,100.88c-1.76-.45-3.42-1.18-4.96-2.17,1.78-.3,3.52-.36,5.23-.18,2.25.26,3.39.94,3.43,2.03h0c-.36.88-1.59.99-3.69.32Z"/>
            </g>
          </g>
          <g>
            <g id="hjbfhb_0_Layer4_0_FILL" data-name="hjbfhb 0 Layer4 0 FILL">
              <path class="cls-18" d="M184.87,187.81c2.16-1.89,4.26-3.85,6.29-5.89h-.1c13.67-13.58,25.53-32.34,35.57-56.27l.44-1.12-.48-1.24c-3.57-8.57-6.39-14.75-8.46-18.53-4.04-7.37-8.92-11.69-14.63-12.95-6.97-1.84-15.17-1.56-24.6.83-6.55,1.64-13.14,4.82-19.79,9.55-.61-5.63-3.06-8.69-7.35-9.19-4.51-.94-9.67.78-15.48,5.15-8.96,6.67-17.44,20.01-25.45,40.03.78-12.34,1.93-21.69,3.45-28.07l.92-4.07-4.1.21c-2.28.1-5.62,1.49-10.03,4.16-4.01-4.95-8.66-6.23-13.94-3.82-.03-.02-.07-.02-.1,0-8.36,3.35-13.06,12.79-14.1,28.33-3.42-12.54-5.05-25.31-4.9-38.31l-.1-4.41-4.03,1.44c-6.24,2.12-12.79,7.63-19.65,16.52,2.31-6.75,5.79-13.42,10.42-20.02l-7.01,1.98c-9.16,2.34-15.62,12.49-19.38,30.45-.83-7.43-2.19-16.17-4.07-26.21l-3.03,6.79c-4.6,10.06-6.35,20.22-5.25,30.49,1.08,9.68,4.65,18.85,10.7,27.5,14.14,20.02,32.22,34.38,54.24,43.1,15.17,5.94,28.28,8.75,39.32,8.43,18.98-.61,36.03-5.62,51.15-15.04v.1c2.93-1.8,5.77-3.74,8.54-5.83l.1-.1h0c.98-.78,1.95-1.58,2.93-2.39.75-.57,1.45-1.17,2.09-1.79l-.11.2M186.75,177.62c-1.89,1.9-3.85,3.73-5.87,5.49h-.1s0,.1,0,.1c-.48.44-1,.87-1.57,1.29l-.1.1c-1.01.81-2.02,1.61-3.03,2.38h.1c-2.59,1.95-5.26,3.76-8.02,5.44h-.1c-14.2,8.84-30.22,13.54-48.06,14.08-10.34.25-22.63-2.4-36.87-7.96-20.91-8.3-38.09-21.96-51.53-40.98-5.43-7.74-8.64-15.94-9.64-24.6-.9-8.01-.38-16.8,1.56-26.38.06,6.08.93,12.21,2.62,18.39,1.66,4.89,2.45,7.36,2.38,7.43l.21-.1,1.95-8.45c3.57-12.91,8.5-21.84,14.78-26.77-3.62,6.66-5.01,14.95-4.19,24.88,1.28-4.75,4.15-9.15,8.62-13.2,3.42-3.13,7.41-5.69,11.96-7.7.52,13.61,5.18,29.66,13.98,48.16-1.5-20.05,3.04-32.36,13.6-36.94h0l.1-.1c3.44-1.42,6.66-.56,9.66,2.59l1.6,1.68,1.97-.98c1.66-.85,3.15-1.5,4.45-1.94-1.42,7.8-.89,21.03,1.59,39.67l2.62-6.49c.58-1.5,1.16-2.92,1.74-4.26,7.91-18.7,16.83-31.83,26.76-39.39,4.13-3.1,7.74-4.45,10.85-4.04,1.99.44,3.22,1.86,3.68,4.29-7,4.62-12.41,11.18-16.25,19.67-1.82,4.12-2.65,7.37-2.49,9.77v.1c.23,2.94,1.39,4.43,3.47,4.49,1.2.48,2.82-.02,4.85-1.52l.1-.1c3.8-2.97,7.24-6.84,10.32-11.63,3.18-4.93,5.2-10.72,6.05-17.36,6.32-3.67,12.94-6.38,19.86-8.12,8.29-2.09,15.5-2.36,21.62-.8,4.13,1.09,7.84,4.25,11.13,9.49,3.35,5.18,6.76,11.27,10.2,18.27-11.5,21.79-23.7,39.14-36.59,52.05h0M142.37,129.13c.37-1.09.85-2.31,1.42-3.65,2.43-5.36,5.58-9.82,9.44-13.39-.92,3.17-2.22,6.07-3.9,8.71-2.1,3.26-4.42,6.04-6.96,8.33Z"/>
              <path class="cls-4" d="M153.23,112.08c-3.86,3.57-7.01,8.03-9.44,13.39-.57,1.35-1.05,2.56-1.42,3.65,2.55-2.29,4.87-5.07,6.96-8.33,1.68-2.64,2.98-5.55,3.9-8.71M223.35,125.57c-3.45-7-6.85-13.09-10.2-18.27-3.29-5.24-7.01-8.4-11.13-9.49-6.12-1.55-13.33-1.29-21.62.8-6.92,1.74-13.54,4.45-19.86,8.12-.85,6.64-2.87,12.43-6.05,17.36-3.08,4.78-6.51,8.66-10.32,11.63l-.1.1c-2.03,1.5-3.65,2-4.85,1.52-2.08-.05-3.24-1.55-3.47-4.49v-.1c-.15-2.4.68-5.65,2.49-9.77,3.83-8.49,9.25-15.05,16.25-19.67-.46-2.42-1.69-3.85-3.68-4.29-3.1-.41-6.72.94-10.85,4.04-9.93,7.56-18.85,20.68-26.76,39.39-.58,1.34-1.16,2.76-1.74,4.26l-2.62,6.49c-2.48-18.64-3.02-31.86-1.59-39.67-1.3.44-2.79,1.09-4.45,1.94l-1.97.98-1.6-1.68c-3-3.15-6.22-4.01-9.66-2.59l-.1.1h0c-10.56,4.58-15.09,16.9-13.6,36.94-8.8-18.5-13.46-34.55-13.98-48.16-4.55,2.01-8.54,4.57-11.96,7.7-4.47,4.06-7.34,8.46-8.62,13.2-.82-9.93.57-18.22,4.19-24.88-6.28,4.94-11.21,13.86-14.78,26.77l-1.95,8.45-.21.1c.07-.07-.72-2.54-2.38-7.43-1.69-6.18-2.57-12.32-2.62-18.39-1.94,9.58-2.46,18.37-1.56,26.38,1,8.66,4.21,16.86,9.64,24.6,13.44,19.02,30.62,32.68,51.53,40.98,14.24,5.56,26.53,8.22,36.87,7.96,17.84-.55,33.86-5.24,48.06-14.09h.1c2.75-1.68,5.42-3.49,8.02-5.43h-.1c1.01-.78,2.02-1.57,3.03-2.39l.1-.1c.57-.42,1.09-.85,1.57-1.29v-.1s.1,0,.1,0c2.02-1.76,3.98-3.59,5.87-5.49h0c12.9-12.91,25.09-30.26,36.59-52.05Z"/>
            </g>
            <g id="hjbfhb_0_Layer4_1_FILL" data-name="hjbfhb 0 Layer4 1 FILL">
              <path class="cls-18" d="M102.36,115.35c-5.74,3.21-12.43,10.11-20.06,20.71,4.43-13.68,10.14-22.38,17.12-26.1l2.94,5.4Z"/>
            </g>
            <g id="hjbfhb_0_Layer3_0_FILL" data-name="hjbfhb 0 Layer3 0 FILL">
              <path class="cls-17" d="M188.96,179.72c-12.1-13.4-21.98-23.95-29.64-31.64-8.2-8.05-17.43-11.65-27.69-10.81-5.4.41-12.5,1.74-21.29,3.99-.58,1.35-1.16,2.77-1.74,4.26l.3-3.88c-7.49,1.93-16.18,4.45-26.09,7.56-22.15,7.11-40.05,10.49-53.7,10.16,2.69,4.3,5.97,8.47,9.83,12.53,11.96-.53,27.89-4.58,47.81-12.15,20.95-7.95,35.63-12.55,44.06-13.77,8.42-1.16,16.48,1.8,24.15,8.88,7.41,6.87,16.72,17.06,27.93,30.58,2.09-1.79,4.12-3.69,6.08-5.69M48.5,174.45c-1.28.32-2.58.66-3.92,1.03-.5.16-1.01.32-1.55.47.13.14.27.28.4.42l-.5-.42c1,.98,1.73,1.68,2.2,2.1,1.05.96,2.12,1.91,3.21,2.84,2.72,2.3,5.57,4.49,8.54,6.56l-.9-.74c30.29-10.59,53.62-15.49,69.99-14.68,17.46.83,32.05,8.49,43.78,22.98,2.84-1.71,5.62-3.58,8.33-5.63-6.77-8.02-13.11-14.01-19.02-17.97-7.39-5.03-15.74-8.2-25.06-9.52-18.08-2.53-46.58,1.66-85.5,12.56Z"/>
            </g>
            <g class="cls-13">
              <g>
                <g id="hjbfhb_0_Layer2_0_FILL" data-name="hjbfhb 0 Layer2 0 FILL">
                  <path class="cls-18" d="M43.61,118.73c-1.39,6.85-2.25,14-2.57,21.44-2.52-7.13-2.99-14.55-1.4-22.25l3.97.81Z"/>
                </g>
                <g id="hjbfhb_0_Layer2_1_FILL" data-name="hjbfhb 0 Layer2 1 FILL">
                  <path class="cls-18" d="M30.15,124.55c-.25,5.68.17,11.22,1.23,16.62h-.51c-2.84-5.39-4.45-10.82-4.83-16.31l4.1-.31Z"/>
                </g>
              </g>
            </g>
            <g id="hjbfhb_0_Layer0_0_FILL" data-name="hjbfhb 0 Layer0 0 FILL">
              <path class="cls-18" d="M184.87,187.81c2.16-1.89,4.26-3.85,6.29-5.89h-.1c13.67-13.58,25.53-32.34,35.57-56.27l.44-1.12-.48-1.24c-3.57-8.57-6.39-14.75-8.46-18.53-4.04-7.37-8.92-11.69-14.63-12.95-6.97-1.84-15.17-1.56-24.6.83-6.55,1.64-13.14,4.82-19.79,9.55-.61-5.63-3.06-8.69-7.35-9.19-4.51-.94-9.67.78-15.48,5.15-8.96,6.67-17.44,20.01-25.45,40.03.78-12.34,1.93-21.69,3.45-28.07l.92-4.07-4.1.21c-2.28.1-5.62,1.49-10.03,4.16-4.01-4.95-8.66-6.23-13.94-3.82-.03-.02-.07-.02-.1,0-8.36,3.35-13.06,12.79-14.1,28.33-3.42-12.54-5.05-25.31-4.9-38.31l-.1-4.41-4.03,1.44c-6.24,2.12-12.79,7.63-19.65,16.52,2.31-6.75,5.79-13.42,10.42-20.02l-7.01,1.98c-9.16,2.34-15.62,12.49-19.38,30.45-.83-7.43-2.19-16.17-4.07-26.21l-3.03,6.79c-4.6,10.06-6.35,20.22-5.25,30.49,1.08,9.68,4.65,18.85,10.7,27.5,14.14,20.02,32.22,34.38,54.24,43.1,15.17,5.94,28.28,8.75,39.32,8.43,18.98-.61,36.03-5.62,51.15-15.04v.1c2.93-1.8,5.77-3.74,8.54-5.83l.1-.1h0c.98-.78,1.95-1.58,2.93-2.39.75-.57,1.45-1.17,2.09-1.79l-.11.2M186.75,177.62c-1.89,1.9-3.85,3.73-5.87,5.49h-.1s0,.1,0,.1c-.48.44-1,.87-1.57,1.29l-.1.1c-1.01.81-2.02,1.61-3.03,2.38h.1c-2.59,1.95-5.26,3.76-8.02,5.44h-.1c-14.2,8.84-30.22,13.54-48.06,14.08-10.34.25-22.63-2.4-36.87-7.96-20.91-8.3-38.09-21.96-51.53-40.98-5.43-7.74-8.64-15.94-9.64-24.6-.9-8.01-.38-16.8,1.56-26.38.06,6.08.93,12.21,2.62,18.39,1.66,4.89,2.45,7.36,2.38,7.43l.21-.1,1.95-8.45c3.57-12.91,8.5-21.84,14.78-26.77-3.62,6.66-5.01,14.95-4.19,24.88,1.28-4.75,4.15-9.15,8.62-13.2,3.42-3.13,7.41-5.69,11.96-7.7.52,13.61,5.18,29.66,13.98,48.16-1.5-20.05,3.04-32.36,13.6-36.94h0l.1-.1c3.44-1.42,6.66-.56,9.66,2.59l1.6,1.68,1.97-.98c1.66-.85,3.15-1.5,4.45-1.94-1.42,7.8-.89,21.03,1.59,39.67l2.62-6.49c.58-1.5,1.16-2.92,1.74-4.26,7.91-18.7,16.83-31.83,26.76-39.39,4.13-3.1,7.74-4.45,10.85-4.04,1.99.44,3.22,1.86,3.68,4.29-7,4.62-12.41,11.18-16.25,19.67-1.82,4.12-2.65,7.37-2.49,9.77v.1c.23,2.94,1.39,4.43,3.47,4.49,1.2.48,2.82-.02,4.85-1.52l.1-.1c3.8-2.97,7.24-6.84,10.32-11.63,3.18-4.93,5.2-10.72,6.05-17.36,6.32-3.67,12.94-6.38,19.86-8.12,8.29-2.09,15.5-2.36,21.62-.8,4.13,1.09,7.84,4.25,11.13,9.49,3.35,5.18,6.76,11.27,10.2,18.27-11.5,21.79-23.7,39.14-36.59,52.05h0M142.37,129.13c.37-1.09.85-2.31,1.42-3.65,2.43-5.36,5.58-9.82,9.44-13.39-.92,3.17-2.22,6.07-3.9,8.71-2.1,3.26-4.42,6.04-6.96,8.33Z"/>
              <path class="cls-4" d="M153.23,112.08c-.92,3.17-2.22,6.07-3.9,8.71-2.1,3.26-4.42,6.04-6.96,8.33.37-1.09.85-2.31,1.42-3.65,2.43-5.36,5.58-9.82,9.44-13.39Z"/>
            </g>
            <g id="hjbfhb_0_Layer0_1_FILL" data-name="hjbfhb 0 Layer0 1 FILL">
              <path class="cls-18" d="M82.3,136.06c4.43-13.68,10.14-22.38,17.12-26.1l2.94,5.4c-5.74,3.21-12.43,10.11-20.06,20.71Z"/>
            </g>
          </g>
          <g>
            <g id="FL_7yuj_0_Layer2_0_FILL" data-name="FL 7yuj 0 Layer2 0 FILL">
              <path class="cls-10" d="M65.21,101.96h.1c-2.05-3.15-2.55-6.5-1.5-10.07h0c1.2-4.08,4.13-8.2,8.8-12.38,9.4-8.32,19.27-11.16,29.59-8.5,10.41,2.77,19.37,7.69,26.88,14.78l-4.2,4.3-14.76,9.16c-2.49,1.54-4.2,2.97-5.12,4.28l-.82-.02.67,2.06c-11.25,2.71-20.39,3.61-27.41,2.71h0c-5.68-.7-9.76-2.82-12.24-6.34Z"/>
              <path class="cls-19" d="M65.31,101.96h-.1c2.47,3.52,6.55,5.63,12.24,6.34h0c7.02.9,16.15,0,27.41-2.71l.4.42c-11.43,6.66-20.95,9.46-28.57,8.42h-.1c-7.73-1-13.22-4.04-16.47-9.11h0c-3.08-4.76-3.81-9.83-2.19-15.21,1.36-5.03,4.9-10.09,10.61-15.2,11.18-9.88,22.93-13.14,35.26-9.79,12.14,3.22,20.92,9.99,26.33,20.3l-.03,1.43c-.5-.57-.83-.92-1-1.05-7.51-7.09-16.47-12.02-26.88-14.78-10.33-2.66-20.19.17-29.59,8.5-4.67,4.18-7.6,8.3-8.8,12.38h0c-1.06,3.56-.56,6.92,1.5,10.07Z"/>
            </g>
            <g class="cls-12">
              <g id="Symbol_3_0_Layer0_0_FILL-3" data-name="Symbol 3 0 Layer0 0 FILL">
                <path class="cls-5" d="M105.86,69.57c6.48,7.05,9.61,15.33,9.38,24.83-.24,9.66-3.76,17.78-10.58,24.34-6.74,6.65-14.78,9.86-24.12,9.63-9.34-.23-17.26-3.83-23.74-10.8-6.33-6.89-9.38-15.16-9.14-24.82.23-9.5,3.68-17.62,10.34-24.35,6.82-6.57,14.9-9.74,24.24-9.51,9.34.23,17.22,3.79,23.63,10.68Z"/>
              </g>
            </g>
          </g>
        </g>
      </g>
      <g>
        <path class="cls-3" d="M164.38,77.29c-8.18,8.11-18.89-7.22-45.79-18.87-20.51-8.88-34.88-6.36-35.85-16.02-1.41-14.14,25.55-30.84,58.35-14.82,27,13.19,31.62,41.45,23.29,49.71Z"/>
        <g>
          <g>
            <path class="cls-7" d="M158.34,45.3c-.18,2-1.57,3.54-4.04,4.44-2.68.98-10.69.31-16.61-2-3.57-1.39-5.79-3.14-6.42-5.05-.08-.25-.36-.41-.64-.31-1.27.45-3.04.26-5.11-.55-5.6-2.18-12.45-8.53-14.08-13.06-.46-1.29-.49-2.33-.06-3.1,2.38-4.29,10.95-3.93,23.52.97,4.61,1.8,9.52,4.15,13.47,6.45,6.48,3.78,10.31,8.46,9.97,12.22Z"/>
            <path class="cls-11" d="M148.59,32.7c6.64,3.87,10.54,8.71,10.19,12.65-.2,2.19-1.69,3.86-4.33,4.82-2.76,1.01-10.92.34-16.93-2.01-3.7-1.44-6.01-3.29-6.75-5.36-1.37.49-3.25.3-5.42-.55-5.7-2.22-12.67-8.7-14.34-13.33-.51-1.42-.52-2.58-.03-3.47,2.5-4.5,11.27-4.22,24.07.77,4.63,1.8,9.56,4.17,13.54,6.48ZM130.48,41.95c.24-.09.5-.07.73.04.23.11.4.31.48.55.59,1.78,2.72,3.43,6.16,4.78,5.83,2.27,13.69,2.95,16.3,2,2.29-.84,3.58-2.24,3.75-4.06.32-3.59-3.42-8.11-9.75-11.79l.23-.39-.23.39c-3.93-2.29-8.82-4.63-13.41-6.42-12.34-4.81-20.71-5.24-22.96-1.17-.36.65-.33,1.57.09,2.73,1.6,4.43,8.32,10.65,13.82,12.8,1.97.77,3.63.96,4.8.54Z"/>
          </g>
          <g>
            <path class="cls-7" d="M154.47,50.21c-4.35,1.59-21.57-.95-23.68-7.37-6.8,2.41-22.83-12.04-19.85-17.42,4.49-8.11,26.6.78,37.68,7.23,11.07,6.45,13.39,14.8,5.85,17.56Z"/>
            <path class="cls-11" d="M148.84,32.27c6.8,3.96,10.81,8.99,10.44,13.12-.21,2.36-1.86,4.22-4.66,5.24h0c-3.34,1.22-12.98.16-19.03-2.77-2.65-1.28-4.36-2.79-5.08-4.47-4.46,1.11-12.18-3.78-16.84-9.28-3.1-3.66-4.24-6.91-3.13-8.9.82-1.48,2.21-2.5,4.15-3.03,4.97-1.37,13.03.67,20.6,3.62,5.11,1.99,10,4.41,13.54,6.47ZM130.64,42.42l.43-.15.14.43c.52,1.59,2.17,3.09,4.77,4.35,6.13,2.96,15.47,3.78,18.33,2.73h0c2.48-.91,3.89-2.46,4.07-4.48.33-3.78-3.5-8.48-10-12.27-8.66-5.04-25.4-12.22-33.46-10-1.69.47-2.9,1.34-3.6,2.6-.9,1.63.23,4.58,3.03,7.89,2.98,3.51,7.37,6.86,11.16,8.34,1.96.77,3.76,1.03,5.12.55Z"/>
          </g>
          <g>
            <path class="cls-7" d="M132.42,40.55c-.32.9-.64,1.79-.91,2.56-.23-.24-.47-.49-.67-.74-.21.02-.43.03-.66.03.41-.69.88-1.49,1.36-2.29.47-.76,1.97-3.21,2.66-3.92.19-.21.3-.34.3-.34,0,0-.08.14-.23.38-.53.81-1.53,3.49-1.84,4.31Z"/>
            <path class="cls-11" d="M134.82,35.02c-.34-.13-.74-.05-.99.24l-.3.34c-.62.64-1.77,2.45-2.7,3.96l-1.42,2.39c-.16.28-.17.62,0,.9.16.28.45.45.77.45.09,0,.19,0,.28,0,.11.12.22.23.33.35l.08.09c.21.22.53.32.83.26.3-.06.55-.28.66-.57l.94-2.64c.83-2.22,1.41-3.58,1.72-4.04l.25-.42c.24-.4.13-.91-.24-1.18-.06-.05-.13-.08-.2-.11Z"/>
          </g>
        </g>
        <path class="cls-15" d="M161.81,50.36c-3.36,2.4-55.14-20.48-55.7-26.66-.1-1.07-.43-.65.94-2.35,14.2-2.18,33.07,5.36,33.07,5.36,0,0,16.3,9.95,23.69,21.82-.61,1.81-.88,1.03-2,1.83Z"/>
        <path class="cls-14" d="M162.09,50.76c-2.49,1.78-23.24-6.87-36.64-13.53-8.89-4.42-19.55-10.35-19.83-13.48-.1-1.06-.52-.54.72-2.27.47-.09.95-.16,1.44-.22-1.56,1.68-1.26,1.44-1.17,2.4.14,1.57,5.28,5.73,19.29,12.69,17.06,8.48,34.14,14.68,35.63,13.61,1.08-.78.9-1.27,1.43-3.12.23.36.45.72.67,1.08-.71,1.8-.47,2.07-1.53,2.83Z"/>
        <path class="cls-15" d="M94.76,44.39c3.65-2.99,55.64,19.48,55.77,26.51.02,1.22-.47,2.82-2.01,4.85-12.17-8.36-28.83-16.57-28.83-16.57,0,0-15.51-5.33-28.32-9.62.76-2.11,2.17-4.17,3.39-5.17Z"/>
        <path class="cls-14" d="M94.43,44.09c2.72-2.25,23.61,6.14,37.01,12.79,8.89,4.42,19.5,10.45,19.55,14.05.02,1.22-.39,2.73-1.81,4.82-.5.14-.68-.57-1.18-.46,1.75-2.07,1.98-3.07,1.97-4.18-.02-1.81-5.04-6.22-19.05-13.18-17.06-8.48-34.32-14.32-35.95-12.97-1.19.98-2.68,3.21-3.38,5.39-.21-.4-.42-.8-.61-1.2.87-2.13,2.3-4.11,3.46-5.07Z"/>
        <path class="cls-16" d="M76.19,36.66c-.06.09-2.89,2.79-1.77,7.33,1.06,5.24,4.89,5.59,4.97,5.64-.16-.23-2.34-2.14-3.04-6.06-.93-3.33-.17-6.8-.17-6.91Z"/>
        <path class="cls-16" d="M158.21,87.54c2.07,1.45,4.41,1.15,6.56-.12,4.33-2.34,3.28-5.53,3.31-5.62-.08.08-1,2.27-4.31,3.9-3.28,2.07-5.4,1.8-5.57,1.84Z"/>
        <path class="cls-16" d="M132.49,17.31c7.29,1.66,9.02,2.97,15.55,6.59-.34-.38-1.51-3.17-6.69-5.85-4.52-2.14-8.25-.82-8.86-.74Z"/>
        <path class="cls-16" d="M141.52,26.7c14.68,7.17,24.83,19.88,27.16,34,1.22,7.39-.13,13.86-3.6,17.3-2.83,2.8-6.06,3.28-10.49,1.56-7.74-3.02-18.46-12.46-36.39-20.23-12.81-5.55-23.21-6.6-29.57-9.08-2.95-1.15-6.4-3.07-6.87-7.75-.52-5.21,2.43-10.66,8.09-14.96,8.95-6.79,25.79-11.22,46.22-3.25,1.82.71,3.66,1.52,5.46,2.4ZM118.98,57.51c17.94,7.77,28.99,17.34,36.32,20.2,3.69,1.44,6.12,1.12,8.37-1.12,2.97-2.95,4.14-8.91,3.04-15.57-.83-5.05-5.18-22.33-26.07-32.54-1.76-.86-3.54-1.64-5.31-2.33-19.67-7.67-35.78-3.49-44.3,2.98-5.1,3.87-7.76,8.67-7.31,13.18.29,2.89,1.92,4.66,5.61,6.1,6.12,2.39,16.67,3.49,29.64,9.11Z"/>
      </g>
    </g>
  </g>
</svg>