<?xml version="1.0" encoding="UTF-8"?>
<svg id="Layer_2" data-name="Layer 2" xmlns="http://www.w3.org/2000/svg" xmlns:xlink="http://www.w3.org/1999/xlink" viewBox="0 0 248.96 226.81">
  <defs>
    <style>
      .cls-1 {
        fill: #2b1010;
      }

      .cls-2 {
        fill: #e26236;
      }

      .cls-3 {
        fill: #110f0e;
      }

      .cls-4 {
        fill: url(#radial-gradient-2);
      }

      .cls-5 {
        fill: #090b0c;
      }

      .cls-6 {
        fill: url(#radial-gradient);
      }

      .cls-7 {
        fill: url(#linear-gradient);
      }

      .cls-8 {
        fill: #fabfa0;
      }

      .cls-9 {
        fill: #a4a3a3;
      }

      .cls-10 {
        fill: #251b1b;
      }

      .cls-11 {
        fill: #fff;
      }

      .cls-12 {
        fill: #dd5d30;
      }

      .cls-13 {
        fill: #de5f32;
      }
    </style>
    <radialGradient id="radial-gradient" cx="-1425.33" cy="-648.96" fx="-1425.33" fy="-648.96" r="25.67" gradientTransform="translate(1114 -321.12) rotate(-45.52) scale(.76 .67)" gradientUnits="userSpaceOnUse">
      <stop offset="0" stop-color="#f29477"/>
      <stop offset=".97" stop-color="#fabfa0"/>
    </radialGradient>
    <linearGradient id="linear-gradient" x1="-704.49" y1="-1015.89" x2="-706.36" y2="-990.42" gradientTransform="translate(1256.39 238.6) rotate(-45.52)" gradientUnits="userSpaceOnUse">
      <stop offset="0" stop-color="#f29477"/>
      <stop offset=".97" stop-color="#fabfa0"/>
    </linearGradient>
    <radialGradient id="radial-gradient-2" cx="-1398.33" cy="-649.4" fx="-1398.33" fy="-649.4" r="25.67" gradientTransform="translate(1221.62 -433.86) rotate(-45.52) scale(.76 .67)" xlink:href="#radial-gradient"/>
  </defs>
  <g id="Layer_1-2" data-name="Layer 1">
    <g>
      <g>
        <g>
          <g id="Layer3_40_FILL" data-name="Layer3 40 FILL">
            <path class="cls-8" d="M63.35,152.75c.61,2.93.56,5.68-.16,8.25-.7,2.65-2.05,5-4.06,7.04-4.15,4.23-9,6.26-14.56,6.1-5.93-.21-11.14-2.53-15.64-6.94-4.44-4.36-6.8-9.48-7.07-15.35-.32-5.98,1.5-10.98,5.47-15.02,2.43-2.48,5.15-4.25,8.16-5.32,3.78-1.42,7.78-1.62,12-.59,1.1.28,2.24,1.22,3.43,2.81,2.03,2.62,3.56,4.45,4.61,5.48,2.29,2.25,4,4.33,5.14,6.24,1.19,2.07,2.08,4.5,2.67,7.3Z"/>
          </g>
          <g id="Layer3_40_1_STROKES" data-name="Layer3 40 1 STROKES">
            <path class="cls-12" d="M26.75,136.25c2.51-2.56,5.36-4.41,8.47-5.52,3.9-1.47,8.1-1.68,12.47-.61,1.31.34,2.58,1.36,3.89,3.12,1.99,2.57,3.51,4.39,4.53,5.39,2.33,2.29,4.1,4.44,5.27,6.4,1.24,2.15,2.17,4.68,2.77,7.55.64,3.05.58,5.95-.18,8.64-.73,2.76-2.16,5.25-4.26,7.4-4.3,4.38-9.4,6.51-15.17,6.34-6.12-.22-11.56-2.63-16.19-7.18-4.58-4.49-7.04-9.84-7.31-15.9-.33-6.18,1.59-11.44,5.7-15.64ZM58.54,167.46c1.9-1.93,3.19-4.18,3.85-6.68.69-2.44.74-5.08.16-7.87-.57-2.7-1.43-5.07-2.58-7.06-1.09-1.83-2.78-3.87-5-6.06-1.09-1.07-2.62-2.89-4.69-5.57-1.08-1.44-2.08-2.28-2.98-2.52-4.03-.98-7.91-.79-11.51.56-2.89,1.03-5.53,2.75-7.86,5.13-3.78,3.85-5.54,8.69-5.23,14.4.26,5.63,2.55,10.61,6.82,14.8s9.4,6.5,15.09,6.71c5.28.16,9.97-1.81,13.94-5.85Z"/>
          </g>
        </g>
        <g id="Layer3_40_MEMBER_0_FILL" data-name="Layer3 40 MEMBER 0 FILL">
          <path class="cls-8" d="M50.82,130.55l6.73,8.79c3.68,7.39,5,13.37,3.95,17.93l-29.67-18.58c.59-5.64,6.92-8.36,18.99-8.14Z"/>
        </g>
        <g id="Layer3_40_MEMBER_1_FILL" data-name="Layer3 40 MEMBER 1 FILL">
          <path class="cls-6" d="M42.25,134.18c4.95.18,9.27,2.07,12.95,5.69,3.68,3.61,5.67,7.91,5.98,12.9.27,4.91-1.25,9.05-4.56,12.42-3.29,3.35-7.41,4.96-12.36,4.82-4.97-.24-9.3-2.17-12.98-5.78s-5.66-7.88-5.95-12.81c-.27-4.99,1.24-9.16,4.53-12.51s7.44-4.95,12.39-4.73Z"/>
        </g>
        <g id="Layer3_40_MEMBER_2_FILL" data-name="Layer3 40 MEMBER 2 FILL">
          <path class="cls-12" d="M36.55,160c.77-.25,1.45-.8,2.03-1.66.95-1.34,1.32-3.17,1.11-5.49.53-.27,1.35-.11,2.45.5,1.21.71,2.11,1.73,2.71,3.06,1.74,3.61.4,7.78-4.01,12.49,4.05-3.21,5.93-6.55,5.63-10.02-.18-2.35-1.19-4.37-3.02-6.06-1.45-1.32-2.83-1.88-4.14-1.68-.95-1.89-2.12-3.25-3.52-4.09-1.15-.71-2.32-1.01-3.49-.89-1.95.2-3.73,1.92-5.36,5.13,1.84-2.79,3.87-4.13,6.09-4.02,2.08.14,3.79,1.53,5.12,4.16-.85.17-1.66.54-2.43,1.1-1.19.84-2,1.95-2.41,3.34-.47,1.5-.31,2.66.47,3.48.73.82,1.65,1.04,2.77.66M34.56,156.29c.71-1.53,2.06-2.71,4.05-3.56.42,2.05.03,3.71-1.16,4.97-.98,1.1-1.88,1.49-2.71,1.15-.8-.31-.86-1.17-.18-2.56Z"/>
        </g>
        <g id="Layer3_41_FILL" data-name="Layer3 41 FILL">
          <path d="M248.91,171.51c.38-13.39-1.58-26.66-5.89-39.82-4.35-13.5-11.54-26.27-21.57-38.31,4.46,1.06,8.44,2.33,11.96,3.81,5.54,2.31,8.4,3.47,8.56,3.48l1.93.46.06-2c.26-4.03-.64-9.31-2.71-15.83-2.94-9.48-7.57-17.09-13.9-22.85l-.08-.08c-8.42-6.85-17.19-11.33-26.3-13.45l.04-.04c-3.72-.9-8.82-1.31-15.3-1.22-4.19.12-10.36.51-18.52,1.17-13.36,1.11-24.15,2.29-32.35,3.54-10.18,1.53-19.38,3.55-27.61,6.06l.04-.04c-4.02,1.04-9.19,5.12-15.5,12.23-6.37,7.2-11.87,15.36-16.51,24.49-5.47,10.6-8.7,20.54-9.7,29.83-1.15,10.55.66,19.47,5.45,26.77l-8.99,10.53.29.92c4.57,15.6,12.65,28.95,24.23,40.05,12.74,12.23,23.75,18.36,33.03,18.39l.04-.04c1.06,0,1.73-.38,1.99-1.14.33-.44.36-1.1.1-1.96-.2-.75-.81-1.86-1.83-3.31-.12-.2-2.5-3.11-7.13-8.74,8.89,6.46,17.4,11.29,25.51,14.5,7.96,3.16,15.24,4.65,21.86,4.48,2.56-.08,4.73-.35,6.52-.82h.08c1.94-.47,3.23-1.14,3.86-2,1.11-.92.63-2.42-1.44-4.51-1.05-1.08-3.01-2.59-5.89-4.51-4.4-2.79-7.42-4.99-9.07-6.6,14.93,7.61,27.74,11.07,38.45,10.38,4.99-.34,9.29-1.24,12.91-2.72,3.83-1.54,5.77-3.06,5.84-4.58.71-2.11-4.32-6.36-15.09-12.75h0c-1.78-1.03-7.31-3.48-16.6-7.33,14.4,4.72,25.58,9.68,33.52,14.91,7.95,5.23,11.8,12.13,11.56,20.71l.07,3.24,2.59-1.74c6.11-3.95,11.13-10.76,15.07-20.43,4-9.78,6.14-20.82,6.42-33.13M239.31,203.34c-3.04,7.49-6.78,13.13-11.21,16.92-.77-8.3-5.74-15.43-14.93-21.4-7.51-4.9-22.18-9.87-44.01-14.89l.73.79c11.5,6.11,19.73,10.6,24.7,13.47,8.87,5.26,13.36,8.32,13.45,9.16-.29.49-1.56,1.18-3.78,2.08-3.33,1.34-7.28,2.16-11.87,2.47-12.27.76-26.94-2.99-44.02-11.25,4.33,5.88,8.38,10.31,12.17,13.3,2.49,1.92,4.3,3.46,5.41,4.59.22.2.41.33.56.4-.35.15-.82.3-1.4.45l-.04.04-.04-.04c-1.61.43-3.52.68-5.72.73-16.28.36-33.92-7.24-52.93-22.77,6.63,11.04,10.18,16.93,10.65,17.68l.04.04c.25.34.47.65.65.95-8.19-.92-17.81-6.69-28.86-17.31-12.27-11.74-20.39-23.99-24.36-36.77l10.78-11.95-.73-1.11c-4.86-6.91-6.74-15.44-5.64-25.61.97-8.93,4.09-18.48,9.35-28.67,4.51-8.86,9.85-16.78,16.04-23.77,5.7-6.42,10.33-10.16,13.87-11.22l.04.04c17.44-5.31,38.01-8.94,61.71-10.89,12.18-1.05,22.27-.58,30.28,1.4h0c8.64,2.04,16.95,6.31,24.94,12.82,5.85,5.38,10.15,12.48,12.88,21.3,1.53,4.79,2.38,8.85,2.55,12.19-1.3-.57-3.24-1.39-5.83-2.47-5.4-2.26-10.44-3.4-15.12-3.42l-3.6-.13,2.27,2.86c9.71,11.92,16.87,25.04,21.5,39.35,4.18,12.79,6.09,25.69,5.72,38.7-.27,11.85-2.34,22.5-6.19,31.92M147.33,200.22l.08.08s.1,0,.16,0c-.07-.03-.15-.05-.24-.08Z"/>
          <path class="cls-10" d="M245.51,171.42c.37-13.01-1.54-25.91-5.72-38.7-4.62-14.31-11.79-27.43-21.5-39.35l-2.27-2.86,3.6.13c4.68.03,9.73,1.17,15.12,3.42,2.58,1.08,4.53,1.9,5.83,2.47-.17-3.34-1.02-7.4-2.55-12.19-2.74-8.82-7.03-15.92-12.88-21.3-7.98-6.51-16.3-10.78-24.94-12.82h0c-8-1.98-18.1-2.45-30.28-1.4-23.7,1.95-44.27,5.58-61.71,10.89l-.04-.04c-3.54,1.05-8.16,4.79-13.87,11.22-6.18,6.98-11.53,14.9-16.04,23.77-5.26,10.18-8.37,19.74-9.35,28.67-1.1,10.17.78,18.7,5.64,25.61l.73,1.11-10.78,11.95c3.97,12.77,12.09,25.03,24.36,36.77,11.05,10.62,20.67,16.39,28.86,17.31-.18-.3-.39-.62-.65-.95l-.04-.04c-.47-.74-4.02-6.64-10.65-17.68,19.01,15.54,36.65,23.13,52.93,22.77,2.2-.06,4.11-.3,5.72-.73l.04.04.04-.04c.58-.15,1.04-.31,1.4-.45-.15-.06-.34-.19-.56-.4-1.11-1.14-2.91-2.67-5.41-4.59-3.79-2.99-7.85-7.42-12.17-13.3,17.08,8.26,31.75,12.01,44.02,11.25,4.58-.31,8.54-1.13,11.87-2.47,2.23-.9,3.49-1.59,3.78-2.08-.09-.85-4.58-3.9-13.45-9.16-4.97-2.87-13.2-7.36-24.7-13.47l-.73-.79c21.83,5.02,36.5,9.99,44.01,14.89,9.18,5.97,14.16,13.1,14.93,21.4,4.43-3.78,8.17-9.42,11.21-16.92,3.85-9.43,5.92-20.07,6.19-31.92M147.33,200.22c.09.02.17.05.24.08-.06,0-.11,0-.16,0l-.08-.08Z"/>
        </g>
        <g id="Layer3_41_MEMBER_0_FILL" data-name="Layer3 41 MEMBER 0 FILL">
          <path d="M219.07,90.58l1.35,3.69c-2.5-.71-6.58-1.72-12.22-3.01,3.67-.93,7.3-1.16,10.87-.67Z"/>
        </g>
        <g id="Layer3_42_FILL" data-name="Layer3 42 FILL">
          <path class="cls-7" d="M81.27,6.43c18.43-4.5,33.98-1.45,46.64,9.14,38.11,32.17,62.7,68.18,73.77,108.05l-80.29,79.84c-27.99-16.9-45.67-27.85-53.02-32.86-20.05-13.67-36.87-27.91-50.47-42.73-11.93-12.96-15.86-28.56-11.8-46.81,3.68-16.61,12.9-32.2,27.67-46.77,14.66-14.45,30.5-23.74,47.5-27.86Z"/>
          <path class="cls-12" d="M205.2,123.67c-5.28-19.51-14.27-38.31-26.98-56.4-11.3-16.07-26.9-33.34-46.79-51.81-7.62-7.06-15.43-11.68-23.43-13.88-8.05-2.19-16.98-2.1-26.78.28-8.92,2.14-17.71,5.67-26.36,10.61-8.89,5.07-17.07,11.3-24.53,18.68C14.99,46.29,5.43,62.44,1.63,79.61c-4.31,19.47-.1,36.08,12.63,49.84,6.17,6.75,14.77,14.32,25.79,22.7,7.44,5.72,17.64,12.98,30.58,21.78,6.71,4.58,24.2,15.4,52.46,32.47l1.09.67,81.27-82.45-.25-.96M201.67,123.62l-80.29,79.84c-27.99-16.9-45.67-27.85-53.02-32.86-20.05-13.67-36.87-27.91-50.47-42.73-11.93-12.96-15.86-28.56-11.8-46.81,3.68-16.61,12.9-32.2,27.67-46.77,14.66-14.45,30.5-23.74,47.5-27.86,18.43-4.5,33.98-1.45,46.64,9.14,38.11,32.17,62.7,68.18,73.77,108.05Z"/>
        </g>
        <g id="Layer3_43_FILL" data-name="Layer3 43 FILL">
          <path class="cls-8" d="M106.48,127.65c-2.05-2.01-5.93-6.03-11.64-12.06-8.3-8.46-17.94-12.51-28.93-12.15,2.7-2.32,6.09-4.21,10.16-5.66,6.28-2.25,9.58-3.42,9.9-3.53l5.77,9.31,5.53,9.08,9.22,15.01Z"/>
        </g>
        <g id="Layer3_45_FILL" data-name="Layer3 45 FILL">
          <path class="cls-12" d="M68.84,105.62c4.33.76,9.22,2.84,14.67,6.23,6.04,3.76,10.53,8.4,13.46,13.93-3.83-4.72-9.33-8.9-16.49-12.54-6.25-3.17-12.79-5.13-19.63-5.87,6.99-6.15,14.7-9.42,23.13-9.82-3.43,1.13-8.48,3.81-15.14,8.06Z"/>
        </g>
        <g>
          <g id="Layer3_46_FILL" data-name="Layer3 46 FILL">
            <path class="cls-8" d="M177.56,47.26c-2.93.88-6.02,1.02-9.28.41-3.18-.64-5.94-1.6-8.27-2.89-2.2-1.21-4.59-3.08-7.18-5.62-1.18-1.16-3.27-2.87-6.25-5.11-1.8-1.29-2.87-2.58-3.2-3.85-1.3-4.71-1.17-9.21.4-13.49,1.17-3.4,3.1-6.47,5.8-9.22,4.5-4.58,10.09-6.75,16.79-6.52,6.65.23,12.48,2.81,17.48,7.73,5.04,4.94,7.73,10.74,8.09,17.38.3,6.22-1.91,11.72-6.61,16.51-2.25,2.29-4.84,3.85-7.76,4.67Z"/>
          </g>
          <g id="Layer3_46_1_STROKES" data-name="Layer3 46 1 STROKES">
            <path class="cls-12" d="M148.99,6.91c4.64-4.73,10.5-7,17.41-6.76,6.83.24,12.9,2.92,18.03,7.96,5.16,5.07,7.97,11.1,8.33,17.92.31,6.43-2,12.19-6.85,17.13-2.34,2.38-5.07,4.03-8.13,4.89-3.03.91-6.28,1.05-9.66.42-3.26-.65-6.12-1.65-8.52-2.97-2.25-1.24-4.73-3.17-7.36-5.75-1.15-1.13-3.23-2.83-6.17-5.04-1.96-1.41-3.11-2.82-3.5-4.3-1.33-4.85-1.19-9.56.42-13.98,1.2-3.49,3.22-6.69,5.99-9.51ZM184.73,42.01c4.52-4.6,6.66-9.95,6.38-15.9-.34-6.39-2.98-12.06-7.84-16.83-4.83-4.75-10.53-7.27-16.94-7.49-6.43-.22-11.87,1.89-16.18,6.27-2.6,2.65-4.49,5.64-5.61,8.91-1.5,4.11-1.63,8.49-.38,13.01.28,1.09,1.25,2.23,2.88,3.4,3.01,2.26,5.14,4.01,6.35,5.19,2.52,2.47,4.87,4.32,7,5.48,2.25,1.24,4.95,2.18,8.04,2.8,3.11.58,6.1.45,8.88-.39,2.79-.79,5.28-2.29,7.41-4.46Z"/>
          </g>
        </g>
        <g id="Layer3_46_MEMBER_0_FILL" data-name="Layer3 46 MEMBER 0 FILL">
          <path class="cls-8" d="M153.18,41.15l-12.52-5.92c1.75-14.38,7.05-24.31,15.89-29.78l17.14,39.61c-5.27,1.4-12.11.1-20.51-3.91Z"/>
        </g>
        <g id="Layer3_46_MEMBER_1_FILL" data-name="Layer3 46 MEMBER 1 FILL">
          <path class="cls-4" d="M164.1,6.52c4.95.18,9.27,2.07,12.95,5.69,3.68,3.61,5.67,7.91,5.98,12.9.27,4.91-1.25,9.05-4.56,12.42-3.29,3.35-7.41,4.96-12.36,4.82-4.97-.24-9.3-2.17-12.98-5.78s-5.66-7.88-5.95-12.81c-.27-4.99,1.24-9.16,4.53-12.51,3.31-3.37,7.44-4.95,12.39-4.73Z"/>
        </g>
        <g id="Layer3_46_MEMBER_2_FILL" data-name="Layer3 46 MEMBER 2 FILL">
          <path class="cls-12" d="M162.03,26.3c3.07.21,5.49-.32,7.27-1.59,1.17-.81,1.91-1.73,2.22-2.74.44-1.47.12-2.71-.95-3.71-1.13-1-2.71-1.18-4.73-.52-1.84.63-3.28,1.72-4.33,3.28-.68,1.07-1.15,2.17-1.41,3.3-3.54-1.73-5.41-3.99-5.63-6.79-.24-2.88,1.5-5.56,5.21-8.05-4.28,2.2-6.52,4.6-6.74,7.19-.15,1.55.27,3.09,1.24,4.63,1.16,1.83,3.02,3.39,5.57,4.67-.22,1.68.54,3.49,2.29,5.42,2.29,2.35,5,3.64,8.12,3.85,4.65.22,9.08-2.38,13.3-7.81-6.22,6.01-11.75,7.9-16.6,5.68-1.77-.78-3.13-1.96-4.08-3.53-.87-1.43-1.12-2.53-.75-3.28M169.9,19.59c.49,1.12,0,2.32-1.49,3.62-1.67,1.59-3.82,2.14-6.47,1.66,1.02-2.65,2.53-4.47,4.55-5.45,1.83-.9,2.97-.84,3.4.17Z"/>
        </g>
        <g>
          <g id="Layer3_47_FILL" data-name="Layer3 47 FILL">
            <path class="cls-10" d="M154.2,132.62c-1.17-5.43-1.23-10.22-.17-14.37.93-3.9,2.6-6.34,5.02-7.29,2.53-.96,5.2.03,8.03,2.97-3.34-12.06-5.24-22.38-5.69-30.97-.49-9.9.86-18.76,4.04-26.58-5.51-4.41-9.59-8.41-12.24-12.02-2.7-3.6-3.51-5.72-2.42-6.34,1.12-.6,3.56.61,7.32,3.62,3.79,3.03,10.79,6.95,21,11.74l9.55,11.44,8.63,10.77,28.27,35.61c-25.02,33.56-54.84,65.93-89.46,97.09-9.79.22-20.43-3.19-31.92-10.24l-23.7-12.95c12.4-7.13,23.72-10.93,33.96-11.4,5.15-.23,8.99.1,11.54,1.02-6.12-9.55-9.62-18.54-10.49-26.97-.61-5.52.03-11.53,1.92-18.03,6.02,7.87,13.25,13.54,21.69,17.02,6.7,2.77,14.38,4.18,23.06,4.23-3.92-6.02-6.57-12.14-7.93-18.34Z"/>
          </g>
          <g id="Layer3_47_1_STROKES" data-name="Layer3 47 1 STROKES">
            <path d="M149.98,37.6c.11-.11.24-.21.38-.29,1.51-.81,4.04.33,8.24,3.69,3.72,2.98,10.73,6.89,20.84,11.64l-.7,1.49c-10.22-4.8-17.35-8.78-21.17-11.84-4.97-3.97-6.22-3.64-6.42-3.53,0,0-.01,0-.02.06-.06.27-.02,1.41,2.71,5.06,2.6,3.54,6.67,7.53,12.1,11.87l.48.38-.23.57c-3.12,7.67-4.46,16.5-3.98,26.23.45,8.49,2.35,18.85,5.66,30.79l-1.39.79c-2.6-2.7-4.94-3.61-7.15-2.77-2.13.84-3.65,3.1-4.51,6.71-1.02,4.02-.96,8.72.18,14.01,1.34,6.08,3.97,12.16,7.82,18.07l.84,1.28h-1.53c-8.74-.06-16.6-1.51-23.37-4.3-8.07-3.32-15.13-8.69-21.02-15.99-1.52,5.78-2.01,11.21-1.46,16.15.86,8.26,4.35,17.21,10.37,26.61l-.97,1.22c-2.43-.87-6.21-1.2-11.22-.97-10.06.46-21.36,4.26-33.59,11.29l-.82-1.43c12.46-7.17,24.01-11.04,34.34-11.51,4.06-.18,7.28-.02,9.76.49-5.47-8.97-8.67-17.55-9.5-25.53-.62-5.6.03-11.77,1.94-18.35l.45-1.56.99,1.29c5.91,7.72,13.09,13.35,21.35,16.75,6.18,2.55,13.31,3.95,21.23,4.15-3.51-5.67-5.94-11.49-7.22-17.32-1.19-5.54-1.25-10.5-.17-14.75.98-4.15,2.84-6.8,5.51-7.85,2.2-.83,4.49-.39,6.82,1.31-2.9-10.95-4.58-20.53-5-28.5-.48-9.73.82-18.6,3.87-26.36-5.3-4.28-9.31-8.25-11.91-11.79-3-4.01-3.18-5.51-3-6.38.07-.34.23-.64.46-.87Z"/>
          </g>
        </g>
        <g id="Layer3_47_MEMBER_0_FILL" data-name="Layer3 47 MEMBER 0 FILL">
          <path class="cls-10" d="M190.16,50.51l-3.54,15.24-28.37-20.08c9.17,4.67,19.81,6.28,31.91,4.83Z"/>
        </g>
        <g id="Layer3_47_MEMBER_1_1_STROKES" data-name="Layer3 47 MEMBER 1 1 STROKES">
          <path d="M166.15,112.29l1.38,1.02c3.41,2.53,6.29,6.64,8.55,12.2,2.3,5.62,2.72,8.77,1.34,10.17-.01.01-.03.03-.04.04-.4.39-.92.55-1.45.46-.95-.16-2.42-1.08-5.32-6.84-2.73-5.48-4.21-10.64-4.39-15.35l-.07-1.71ZM176.21,134.56c.32-.33,1.05-1.81-1.66-8.43h0c-1.81-4.46-4-7.9-6.55-10.28.45,3.96,1.81,8.24,4.07,12.76,2.98,5.92,4.09,5.96,4.13,5.96h0Z"/>
        </g>
        <g id="Layer3_47_MEMBER_2_1_STROKES" data-name="Layer3 47 MEMBER 2 1 STROKES">
          <path d="M124.84,173.63l1.29.27c2.51.53,4.5,1.33,5.9,2.37,1.68,1.19,2.87,2.71,3.52,4.51,1.05,2.55.21,3.56-.68,3.95-1.7.82-3.79-.83-5.21-2.15-2.24-2.08-3.75-4.67-4.51-7.69l-.32-1.28ZM134.29,183.19c.31-.31-.12-1.44-.26-1.8-.55-1.51-1.54-2.77-2.96-3.78-.97-.72-2.28-1.31-3.91-1.76.75,2.14,1.97,4,3.63,5.55,2.31,2.14,3.17,1.97,3.37,1.87l.04-.02s.06-.03.08-.06Z"/>
        </g>
        <g>
          <g id="Layer3_87_FILL" data-name="Layer3 87 FILL">
            <path class="cls-3" d="M134.33,116.47c4.25-1.48,8.68-.98,13.28,1.52,5.06,2.76,8.33,6.75,9.81,11.98-6.53-.98-12.98-.25-19.35,2.21-6.25,2.46-10.52,4.87-12.81,7.22-1.39-5.76-.74-11.03,1.94-15.8,2.04-3.81,4.42-6.19,7.14-7.13Z"/>
          </g>
          <g id="Layer3_87_1_STROKES" data-name="Layer3 87 1 STROKES">
            <path class="cls-5" d="M143.64,115.75c1.4.4,2.81.99,4.23,1.75,5.18,2.82,8.57,6.96,10.08,12.31l.23.82-.84-.13c-6.41-.96-12.82-.23-19.08,2.18-6.15,2.42-10.39,4.81-12.61,7.09l-.69.71-.23-.97c-1.42-5.87-.75-11.32,1.99-16.19,2.1-3.92,4.61-6.4,7.44-7.38,3.06-1.07,6.24-1.13,9.49-.2ZM156.64,129.3c-1.53-4.67-4.66-8.31-9.3-10.84-4.44-2.4-8.75-2.9-12.83-1.48-2.57.89-4.87,3.2-6.84,6.87h0c-2.45,4.37-3.15,9.23-2.09,14.47,2.46-2.18,6.59-4.42,12.28-6.67,6.16-2.37,12.47-3.17,18.78-2.36Z"/>
          </g>
        </g>
        <g>
          <g id="Layer3_88_FILL" data-name="Layer3 88 FILL">
            <path class="cls-3" d="M100.51,154.1c.98-4.2,3.67-7.49,8.07-9.88,4.83-2.7,9.74-3.27,14.72-1.7-4.2,4.71-6.95,10.25-8.24,16.62-1.18,6.38-1.42,11.1-.73,14.16-5.39-1.9-9.3-5.13-11.74-9.69-2.08-3.7-2.77-6.87-2.08-9.51Z"/>
          </g>
          <g id="Layer3_88_1_STROKES" data-name="Layer3 88 1 STROKES">
            <path class="cls-5" d="M101.57,162.87c-1.72-3.39-2.25-6.38-1.59-8.9,1.01-4.32,3.82-7.77,8.34-10.23,4.94-2.76,10.04-3.35,15.15-1.74l.81.25-.56.63c-4.11,4.62-6.84,10.12-8.11,16.37-1.16,6.27-1.41,10.96-.73,13.93l.22.97-.94-.33c-5.5-1.94-9.55-5.28-12.04-9.94-.19-.34-.37-.68-.54-1.01ZM122.33,142.81c-4.54-1.21-9.07-.57-13.48,1.89-4.24,2.3-6.86,5.51-7.8,9.53-.66,2.5.03,5.56,2.03,9.12h0c2.22,4.17,5.77,7.22,10.54,9.1-.47-3.11-.16-7.61.91-13.41,1.25-6.15,3.87-11.61,7.8-16.23Z"/>
          </g>
        </g>
        <g>
          <g id="Symbol_5_0_Layer0_0_FILL" data-name="Symbol 5 0 Layer0 0 FILL">
            <path class="cls-13" d="M142.14,118.4c4.72-3.62,6.59-9.37,5.61-17.26-1.02-9.95-7.33-19.95-18.93-30.01l-.04-.04c-2.93-2.67-7.24-2.51-12.93.48-5.07,2.69-9.93,7.02-14.57,12.98-3.27,4.19-5.21,7.71-5.83,10.54-.72,3.32,0,6.37,2.13,9.15,6.56,8.51,14.46,14.07,23.69,16.68,8.83,2.48,15.79,1.64,20.87-2.51M108.82,112.58c-3.7-2.31-7.04-5.41-10.01-9.28-1.75-2.2-2.32-4.61-1.71-7.23.51-2.41,2.5-5.77,5.95-10.1l.04-.04c2.11-2.74,4.57-5.3,7.38-7.67,2.6-2.21,5.15-3.98,7.68-5.31,2.31-1.22,4.19-1.89,5.63-2.01,1.44-.12,2.74.28,3.89,1.21,5.33,4.65,9.36,9.38,12.1,14.18,2.52,4.38,4.06,9.04,4.61,13.97.81,6.93-.78,12-4.78,15.22-4.58,3.64-10.86,4.36-18.84,2.13-4.68-1.32-8.66-3-11.94-5.06Z"/>
            <path class="cls-11" d="M139.59,115.5c-4.58,3.64-10.86,4.36-18.84,2.13-4.68-1.32-8.66-3-11.94-5.06-3.7-2.31-7.04-5.41-10.01-9.28-1.75-2.2-2.32-4.61-1.71-7.23.51-2.41,2.5-5.77,5.95-10.1l.04-.04c2.11-2.74,4.57-5.3,7.38-7.67,2.6-2.21,5.15-3.98,7.68-5.31,2.31-1.22,4.19-1.89,5.63-2.01,1.44-.12,2.74.28,3.89,1.21,5.33,4.65,9.36,9.38,12.1,14.18,2.52,4.38,4.06,9.04,4.61,13.97.81,6.93-.78,12-4.78,15.22Z"/>
          </g>
          <g id="Symbol_5_0_Layer0_1_MEMBER_0_FILL" data-name="Symbol 5 0 Layer0 1 MEMBER 0 FILL">
            <path d="M138.81,95.29c2.56,2.46,4.11,5.33,4.64,8.6.46,3.2-.24,5.82-2.09,7.87-1.93,2.13-4.5,3.1-7.7,2.91-3.23-.32-6.13-1.71-8.68-4.16-2.72-2.3-4.32-5-4.8-8.12-.62-3.25.01-5.91,1.89-7.98,1.96-2.15,4.59-3.08,7.9-2.79,3.18.16,6.12,1.39,8.84,3.68Z"/>
          </g>
          <g id="Symbol_5_0_Layer0_1_MEMBER_1_FILL" data-name="Symbol 5 0 Layer0 1 MEMBER 1 FILL">
            <path class="cls-11" d="M133.54,102.1c.09,1.15-.22,2.11-.93,2.89-.69.75-1.58,1.12-2.67,1.11-1.17.01-2.22-.35-3.13-1.09-.86-.74-1.31-1.68-1.35-2.83-.22-1.01.02-1.91.74-2.69.69-.75,1.63-1.18,2.83-1.27,1.01.04,1.99.42,2.93,1.13.86.79,1.39,1.71,1.59,2.75Z"/>
          </g>
          <g id="Symbol_5_0_Layer0_1_MEMBER_2_FILL" data-name="Symbol 5 0 Layer0 1 MEMBER 2 FILL">
            <path class="cls-11" d="M136.71,102.28c.38.37.61.86.69,1.47.03.51-.14,1.03-.51,1.57-.4.51-.86.8-1.39.85-.59.06-1.07-.1-1.45-.47-.35-.29-.54-.69-.57-1.2-.11-.53.03-1.08.43-1.65.37-.54.86-.8,1.47-.77.53-.11.97-.05,1.32.19Z"/>
          </g>
        </g>
        <g>
          <g id="Symbol_6_0_Layer0_0_FILL" data-name="Symbol 6 0 Layer0 0 FILL">
            <path class="cls-13" d="M102.53,147.1c-1.29-9.62-7.64-19.4-19.04-29.33-2.88-2.67-7-2.67-12.37,0-4.81,2.47-9.35,6.48-13.62,12.01-3.06,3.92-4.82,7.25-5.27,9.98-.64,3.13.11,6.06,2.24,8.79,6.59,8.37,14.31,13.95,23.17,16.72,8.56,2.64,15.23,2.05,20-1.78,4.4-3.35,6.03-8.81,4.89-16.38M65.79,157.05c-3.7-2.37-7.06-5.45-10.05-9.24-1.68-2.23-2.27-4.53-1.78-6.91l-.04-.04.04-.04c.46-2.41,2.06-5.38,4.8-8.93l.04-.04c4.8-6.24,9.33-10.47,13.57-12.69,4.28-2.09,7.56-2.2,9.84-.33,10.03,8.74,15.75,18,17.15,27.79.94,6.58-.42,11.33-4.07,14.25-4.27,3.32-10.23,3.79-17.88,1.4-4.52-1.43-8.4-3.17-11.62-5.22Z"/>
            <path class="cls-11" d="M95.29,160.86c-4.27,3.32-10.23,3.79-17.88,1.4-4.52-1.43-8.4-3.17-11.62-5.22-3.7-2.37-7.06-5.45-10.05-9.24-1.68-2.23-2.27-4.53-1.78-6.91l-.04-.04.04-.04c.46-2.41,2.06-5.38,4.8-8.93l.04-.04c4.8-6.24,9.33-10.47,13.57-12.69,4.28-2.09,7.56-2.2,9.84-.33,10.03,8.74,15.75,18,17.15,27.79.94,6.58-.42,11.33-4.07,14.25Z"/>
          </g>
          <g>
            <g id="Symbol_6_0_Layer0_1_MEMBER_0_FILL" data-name="Symbol 6 0 Layer0 1 MEMBER 0 FILL">
              <path d="M89.55,159.75c-3.05-.35-5.78-1.68-8.2-4.01-2.53-2.17-4.03-4.73-4.51-7.68-.61-3.04-.05-5.52,1.69-7.46,1.8-1.99,4.23-2.83,7.3-2.51,2.99.19,5.76,1.38,8.32,3.57,2.42,2.33,3.9,5.05,4.44,8.17.51,2.98-.08,5.42-1.77,7.3-1.77,1.96-4.19,2.84-7.26,2.63Z"/>
            </g>
            <g id="Symbol_6_0_Layer0_1_MEMBER_1_FILL" data-name="Symbol 6 0 Layer0 1 MEMBER 1 FILL">
              <path class="cls-11" d="M82.39,147.17c-.12-.91.14-1.74.78-2.49.63-.7,1.5-1.09,2.59-1.18.96.04,1.89.42,2.77,1.14.83.71,1.35,1.59,1.55,2.63.06,1.07-.21,1.96-.82,2.69-.66.73-1.51,1.05-2.55.98-1.07-.04-2.02-.4-2.85-1.05-.86-.79-1.35-1.7-1.47-2.71Z"/>
            </g>
            <g id="Symbol_6_0_Layer0_1_MEMBER_2_FILL" data-name="Symbol 6 0 Layer0 1 MEMBER 2 FILL">
              <path class="cls-11" d="M93.66,148.79c.06.48-.08.97-.43,1.49-.37.48-.79.75-1.27.81-.53,0-.96-.15-1.29-.47-.38-.26-.59-.64-.65-1.11-.11-.53.03-1.05.43-1.57.32-.48.74-.73,1.27-.73.56-.03.99.04,1.28.23.38.37.59.82.65,1.36Z"/>
            </g>
          </g>
        </g>
      </g>
      <g>
        <path class="cls-1" d="M34.03,79.13c-3.55,3.06-12.83,9.59-4.81,16.39,9.53,8.09,26.59-7.97,34.97-17.63,12.41-14.31,13.26-31.12,6.2-30.42-6.21.62-2.01,9.11-14.56,20.3-6.56,5.85-17.57,7.71-21.8,11.36Z"/>
        <g>
          <path class="cls-11" d="M40.75,88c12.46-9.29,19.23-10.52,25.41-27.95.23-.66,5.07,3.41,6.09,4.83-4.33,11.43-11.69,16.53-11.69,16.53,0,0-4.74,7.79-15,12.73-1.21-.96-5.51-5.62-4.81-6.14Z"/>
          <path class="cls-9" d="M40.55,88.95c-.93-2.18,12.11-9.15,18.71-15.87,4.38-4.46,5.55-14.04,7.83-13.26.77.27,4.12,3.21,5.18,4.55,0,.34-.02.67-.04,1.01-.99-1.54-4.52-4.65-5.22-4.89-1.14-.39-.3,6.13-7.19,13.15-8.4,8.55-19.18,13.88-18.62,15.18.4.95,3.55,4.34,4.79,5.26-.29.04-.58.08-.87.1-1.18-1.02-4.18-4.31-4.57-5.23Z"/>
        </g>
        <path class="cls-2" d="M33.58,78.49c5.24-3.72,15.28-5.55,21.74-11.31,10.15-9.05,9.04-16.16,11.98-19.14.76-.78,1.75-1.22,3.02-1.35,1.99-.2,3.62.68,4.58,2.48,2.67,4.96.03,16.72-9.01,27.82-1.63,2-3.54,4.13-5.54,6.16-6.41,6.53-22.32,20.86-31.63,12.96-5.03-4.27-4.35-9.13.2-13.77,1.57-1.6,3.32-2.9,4.66-3.86ZM64.68,76.01c8.51-10.45,11.22-21.68,8.85-26.09-.67-1.24-1.7-1.8-3.06-1.67-.92.09-1.55.37-2.07.89-2.44,2.48-1.72,10.01-12.05,19.22-6.69,5.96-16.85,7.85-21.87,11.41-1.29.92-2.97,2.17-4.45,3.68-2.25,2.29-3.34,4.46-3.25,6.47.08,1.74,1.07,3.43,2.94,5.02,8.54,7.25,24.75-8.02,29.51-12.87,1.96-2,3.85-4.09,5.44-6.05Z"/>
        <path class="cls-2" d="M69.61,47.55c.04.43.42.74.85.7,1.36-.14,2.39.42,3.06,1.67,2.37,4.42-.33,15.65-8.85,26.09-7.53,9.24-25.89,26.61-34.96,18.92-.33-.28-.82-.23-1.1.09-.28.33-.24.82.09,1.1,10.07,8.54,28.84-8.9,37.17-19.12,9.04-11.09,11.68-22.85,9.01-27.82-.97-1.8-2.59-2.68-4.58-2.48-.43.04-.74.43-.7.85Z"/>
        <path class="cls-2" d="M42.15,71c4.88-1.56,4.93-1.62,7.9-2.76-.1-.01-1.48-1-4.43,0-3.12,1.11-3.41,2.71-3.47,2.77Z"/>
        <path class="cls-2" d="M58.66,60.44c.05-.06,1.78-1.09,2.79-4.25,1.1-3.53.37-4.85.36-5.08-1.43,3.31-1.96,4.45-3.15,9.33Z"/>
        <path class="cls-2" d="M27.39,99.38c-.84-.56-2.83-1.64-3.76-3.57-.88-1.31-.98-4.03-1.07-5.13-.02.09-2.07,2.99-.3,5.88,1.37,2.61,3.55,2.77,5.13,2.83Z"/>
        <path class="cls-2" d="M76.81,46.5c-.08-.28-.16-3.09-3.18-4.02-3.38-1.19-4.86,1.3-4.93,1.34.1-.01,2.43-.71,4.42.13,1.56.42,2.86,1.73,3.69,2.55Z"/>
      </g>
    </g>
  </g>
</svg>