<?xml version="1.0" encoding="UTF-8"?>
<svg id="Layer_2" data-name="Layer 2" xmlns="http://www.w3.org/2000/svg" xmlns:xlink="http://www.w3.org/1999/xlink" viewBox="0 0 191.54 240.8">
  <defs>
    <style>
      .cls-1 {
        mask: url(#mask);
      }

      .cls-2 {
        filter: url(#luminosity-noclip);
      }

      .cls-3 {
        fill: #2b1010;
      }

      .cls-4 {
        filter: url(#luminosity-noclip-3);
      }

      .cls-5 {
        filter: url(#luminosity-noclip-5);
      }

      .cls-6 {
        fill: url(#radial-gradient-6);
      }

      .cls-7 {
        fill: url(#radial-gradient-4);
      }

      .cls-8 {
        fill: url(#radial-gradient-8);
      }

      .cls-9 {
        fill: url(#radial-gradient-2);
      }

      .cls-10 {
        fill: #522515;
      }

      .cls-11 {
        fill: #281513;
      }

      .cls-12 {
        fill: #c62037;
      }

      .cls-13 {
        fill: url(#radial-gradient);
      }

      .cls-14 {
        fill: url(#linear-gradient);
      }

      .cls-15 {
        mask: url(#mask-2);
      }

      .cls-16 {
        mask: url(#mask-3);
      }

      .cls-17 {
        mask: url(#mask-4);
      }

      .cls-18 {
        mask: url(#mask-5);
      }

      .cls-19 {
        mask: url(#mask-6);
      }

      .cls-20 {
        mask: url(#mask-1);
      }

      .cls-21 {
        fill: #fff;
      }

      .cls-22 {
        fill: #251b1a;
      }

      .cls-23 {
        fill: #e67638;
      }

      .cls-24 {
        fill: #532516;
      }

      .cls-25 {
        fill: #ab2967;
      }

      .cls-26 {
        fill: #ee5fa2;
      }

      .cls-27 {
        fill: #991b28;
      }

      .cls-28 {
        fill: url(#radial-gradient-3);
      }

      .cls-28, .cls-29, .cls-30 {
        mix-blend-mode: multiply;
      }

      .cls-29 {
        fill: url(#radial-gradient-7);
      }

      .cls-30 {
        fill: url(#radial-gradient-5);
      }

      .cls-31 {
        fill: #be6e35;
      }

      .cls-32 {
        fill: #0e0e0e;
      }
    </style>
    <radialGradient id="radial-gradient" cx="-342.9" cy="2575.06" fx="-342.9" fy="2575.06" r="21.83" gradientTransform="translate(-1262.6 -208.77) rotate(-87.94) scale(.52)" gradientUnits="userSpaceOnUse">
      <stop offset="0" stop-color="#dd4c29"/>
      <stop offset="1" stop-color="#e67639"/>
    </radialGradient>
    <radialGradient id="radial-gradient-2" cx="-774.24" cy="2574.12" fx="-774.24" fy="2574.12" r="21.83" gradientTransform="translate(-1291.32 577.79) rotate(92.06) scale(.52 -.52)" xlink:href="#radial-gradient"/>
    <linearGradient id="linear-gradient" x1="111.01" y1="938.42" x2="111.74" y2="897.71" gradientTransform="translate(-884.93 -23.89) rotate(92.06) scale(1 -1)" gradientUnits="userSpaceOnUse">
      <stop offset=".01" stop-color="#e67638"/>
      <stop offset="1" stop-color="#dd512a"/>
    </linearGradient>
    <filter id="luminosity-noclip" x="29.18" y="120.5" width="74.64" height="74.64" color-interpolation-filters="sRGB" filterUnits="userSpaceOnUse">
      <feFlood flood-color="#fff" result="bg"/>
      <feBlend in="SourceGraphic" in2="bg"/>
    </filter>
    <filter id="luminosity-noclip-2" x="29.18" y="-7972.73" width="74.64" height="32766" color-interpolation-filters="sRGB" filterUnits="userSpaceOnUse">
      <feFlood flood-color="#fff" result="bg"/>
      <feBlend in="SourceGraphic" in2="bg"/>
    </filter>
    <mask id="mask-1" x="29.18" y="-7972.73" width="74.64" height="32766" maskUnits="userSpaceOnUse"/>
    <radialGradient id="radial-gradient-3" cx="-672.28" cy="1357.95" fx="-672.28" fy="1357.95" r="67.32" gradientTransform="translate(-1321.71 781.3) rotate(92.06) scale(1 -1)" gradientUnits="userSpaceOnUse">
      <stop offset=".07" stop-color="#fff"/>
      <stop offset=".45" stop-color="#000"/>
    </radialGradient>
    <mask id="mask" x="29.18" y="120.5" width="74.64" height="74.64" maskUnits="userSpaceOnUse">
      <g class="cls-2">
        <g class="cls-20">
          <path class="cls-28" d="M91.93,185.15c7.54-7.01,11.49-15.7,11.87-26.06.37-10.26-2.95-19.16-9.97-26.7-7.08-7.54-15.75-11.5-26.01-11.87-10.29-.37-19.21,2.95-26.75,9.96-7.54,7.01-11.49,15.65-11.86,25.91-.37,10.36,2.95,19.31,9.96,26.85,7.01,7.54,15.67,11.49,25.96,11.86,10.26.37,19.19-2.95,26.8-9.96Z"/>
        </g>
      </g>
    </mask>
    <radialGradient id="radial-gradient-4" cx="-672.28" cy="1357.95" fx="-672.28" fy="1357.95" r="67.32" gradientTransform="translate(-1321.71 781.3) rotate(92.06) scale(1 -1)" gradientUnits="userSpaceOnUse">
      <stop offset=".07" stop-color="#dd4d29"/>
      <stop offset=".45" stop-color="#e67638"/>
    </radialGradient>
    <filter id="luminosity-noclip-3" x="30.75" y="40.29" width="74.64" height="74.64" color-interpolation-filters="sRGB" filterUnits="userSpaceOnUse">
      <feFlood flood-color="#fff" result="bg"/>
      <feBlend in="SourceGraphic" in2="bg"/>
    </filter>
    <filter id="luminosity-noclip-4" x="30.75" y="-7972.73" width="74.64" height="32766" color-interpolation-filters="sRGB" filterUnits="userSpaceOnUse">
      <feFlood flood-color="#fff" result="bg"/>
      <feBlend in="SourceGraphic" in2="bg"/>
    </filter>
    <mask id="mask-3" x="30.75" y="-7972.73" width="74.64" height="32766" maskUnits="userSpaceOnUse"/>
    <radialGradient id="radial-gradient-5" cx="-648.1" cy="1076.38" fx="-648.1" fy="1076.38" r="53.02" gradientTransform="translate(-1334.16 851.3) rotate(92.06) scale(1.27 -1.27)" xlink:href="#radial-gradient-3"/>
    <mask id="mask-2" x="30.75" y="40.29" width="74.64" height="74.64" maskUnits="userSpaceOnUse">
      <g class="cls-4">
        <g class="cls-16">
          <path class="cls-30" d="M105.36,78.89c.37-10.26-2.95-19.16-9.97-26.7-7.06-7.54-15.72-11.5-25.98-11.87-10.3-.37-19.22,2.95-26.77,9.97-7.54,7.02-11.5,15.66-11.87,25.92-.37,10.35,2.95,19.29,9.97,26.83,7.02,7.54,15.68,11.5,25.98,11.87,10.26.37,19.18-2.95,26.77-9.97,7.54-7.02,11.5-15.7,11.87-26.04Z"/>
        </g>
      </g>
    </mask>
    <radialGradient id="radial-gradient-6" cx="-648.1" cy="1076.38" fx="-648.1" fy="1076.38" r="53.02" gradientTransform="translate(-1334.16 851.3) rotate(92.06) scale(1.27 -1.27)" xlink:href="#radial-gradient-4"/>
    <mask id="mask-4" x="40.99" y="99.45" width="46.47" height="218.81" maskUnits="userSpaceOnUse"/>
    <filter id="luminosity-noclip-5" x="61.95" y="99.45" width="25.52" height="25.52" color-interpolation-filters="sRGB" filterUnits="userSpaceOnUse">
      <feFlood flood-color="#fff" result="bg"/>
      <feBlend in="SourceGraphic" in2="bg"/>
    </filter>
    <filter id="luminosity-noclip-6" x="61.95" y="-7972.73" width="25.52" height="32766" color-interpolation-filters="sRGB" filterUnits="userSpaceOnUse">
      <feFlood flood-color="#fff" result="bg"/>
      <feBlend in="SourceGraphic" in2="bg"/>
    </filter>
    <mask id="mask-6" x="61.95" y="-7972.73" width="25.52" height="32766" maskUnits="userSpaceOnUse"/>
    <radialGradient id="radial-gradient-7" cx="-379.01" cy="2158.45" fx="-379.01" fy="2158.45" r="36.9" gradientTransform="translate(-1264.43 -172.81) rotate(-87.94) scale(.62)" xlink:href="#radial-gradient-3"/>
    <mask id="mask-5" x="61.95" y="99.45" width="25.52" height="25.52" maskUnits="userSpaceOnUse">
      <g class="cls-5">
        <g class="cls-19">
          <path class="cls-29" d="M75.15,99.46c3.51.13,6.48,1.48,8.9,4.06,2.4,2.58,3.53,5.63,3.41,9.17-.13,3.51-1.48,6.47-4.06,8.87-2.6,2.4-5.65,3.53-9.17,3.41s-6.47-1.48-8.87-4.06c-2.4-2.58-3.53-5.62-3.41-9.14.13-3.53,1.48-6.5,4.06-8.9,2.58-2.4,5.62-3.53,9.14-3.41Z"/>
        </g>
      </g>
    </mask>
    <radialGradient id="radial-gradient-8" cx="-379.01" cy="2158.45" fx="-379.01" fy="2158.45" r="36.9" gradientTransform="translate(-1264.43 -172.81) rotate(-87.94) scale(.62)" xlink:href="#radial-gradient-4"/>
  </defs>
  <g id="Layer_1-2" data-name="Layer 1">
    <g>
      <g>
        <g>
          <g>
            <g id="Symbol_21_0_Layer0_0_FILL" data-name="Symbol 21 0 Layer0 0 FILL">
              <path class="cls-22" d="M171.69,66.4c-13.03-16.69-29.18-25.44-48.46-26.27-19.24-.79-35.96,6.58-50.15,22.11-14.19,15.57-21.7,34.76-22.52,57.56-.82,22.8,5.28,42.54,18.31,59.23,13.03,16.72,29.16,25.48,48.41,26.27,19.27.83,36.01-6.54,50.2-22.11,14.16-15.57,21.65-34.76,22.47-57.56.82-22.8-5.27-42.54-18.26-59.23Z"/>
            </g>
            <g id="Symbol_21_0_Layer0_0_1_STROKES" data-name="Symbol 21 0 Layer0 0 1 STROKES">
              <path class="cls-32" d="M49.06,119.75c.83-23.06,8.54-42.75,22.91-58.52,14.44-15.81,31.71-23.41,51.33-22.61,19.65.85,36.33,9.88,49.58,26.85h0c13.16,16.89,19.41,37.15,18.58,60.21-.83,23.06-8.52,42.75-22.86,58.52-14.44,15.84-31.73,23.45-51.38,22.6-19.61-.81-36.28-9.84-49.53-26.85-13.19-16.89-19.46-37.15-18.63-60.21ZM170.5,67.33c-12.68-16.24-28.61-24.89-47.33-25.69-18.68-.77-35.16,6.5-48.97,21.62-13.88,15.23-21.32,34.27-22.13,56.59-.8,22.33,5.25,41.92,17.99,58.24,12.68,16.28,28.59,24.92,47.28,25.69,18.72.8,35.21-6.47,49.02-21.62,13.84-15.23,21.27-34.27,22.08-56.59.8-22.33-5.23-41.92-17.94-58.24h0Z"/>
            </g>
          </g>
          <g>
            <g id="Symbol_21_0_Layer0_1_FILL" data-name="Symbol 21 0 Layer0 1 FILL">
              <path class="cls-23" d="M90.97,17.47c.15-4.22-1.34-7.9-4.49-11.04-3.18-3.1-7.08-4.74-11.71-4.9-4.59-.17-8.59,1.18-11.98,4.05-3.36,2.9-5.12,6.46-5.27,10.69-.15,4.26,1.34,7.95,4.49,11.09,3.18,3.14,7.06,4.79,11.66,4.95,4.63.17,8.64-1.2,12.03-4.1,3.36-2.9,5.12-6.48,5.27-10.74Z"/>
            </g>
            <g id="Symbol_21_0_Layer0_1_1_STROKES" data-name="Symbol 21 0 Layer0 1 1 STROKES">
              <path class="cls-10" d="M56.01,16.21c.17-4.64,2.12-8.6,5.79-11.78C65.49,1.32,69.87-.16,74.83.01c4.99.18,9.27,1.97,12.71,5.33,0,0,0,0,.01.01,3.44,3.43,5.1,7.52,4.93,12.16-.17,4.67-2.12,8.65-5.79,11.83-3.68,3.14-8.08,4.64-13.07,4.46-4.96-.18-9.22-1.99-12.66-5.39-3.44-3.43-5.1-7.54-4.93-12.22ZM85.42,7.5c-2.93-2.85-6.43-4.32-10.7-4.47-4.24-.15-7.83,1.06-10.95,3.7-3.04,2.63-4.6,5.77-4.74,9.59-.14,3.86,1.18,7.11,4.04,9.97,2.92,2.88,6.4,4.36,10.64,4.51,4.28.15,7.87-1.07,11-3.74,3.05-2.63,4.61-5.79,4.74-9.64.14-3.82-1.18-7.06-4.04-9.91Z"/>
            </g>
          </g>
          <g id="Symbol_21_0_Layer0_1_MEMBER_0_FILL" data-name="Symbol 21 0 Layer0 1 MEMBER 0 FILL">
            <path class="cls-13" d="M81.39,10.56c2.12,2.28,3.13,4.98,3.02,8.09-.11,3.1-1.31,5.7-3.59,7.83-2.28,2.12-4.97,3.13-8.07,3.02-3.11-.11-5.73-1.31-7.85-3.59s-3.13-4.97-3.02-8.07c.11-3.11,1.31-5.73,3.59-7.85,2.28-2.12,4.98-3.13,8.09-3.02,3.1.11,5.7,1.31,7.83,3.59Z"/>
          </g>
          <g id="Symbol_21_0_Layer0_1_MEMBER_1_FILL" data-name="Symbol 21 0 Layer0 1 MEMBER 1 FILL">
            <path class="cls-10" d="M82.23,19.42c-1.7,1.62-3.47,2.61-5.29,2.98h.05c-1.25.26-2.18.34-2.78.25-.94-.1-1.76-.53-2.47-1.3,1.58-.98,2.67-2.29,3.26-3.91.37-.89.43-1.65.18-2.26-.06-.34-.25-.65-.57-.93-.36-.28-.74-.45-1.14-.49h-.05c-.57-.06-1.13.11-1.68.49-.52.38-.94.92-1.27,1.62-.47.99-.65,2.61-.53,4.87-1.84.67-3.14.98-3.91.92-.97-.1-1.61-.53-1.92-1.28-.61-1.7-.05-3.41,1.7-5.13-2.82,1.78-3.79,3.67-2.92,5.69.46,1.16,1.38,1.8,2.75,1.91,1.2.11,2.79-.2,4.77-.94.63,1.2,1.61,1.94,2.94,2.22.93.17,2.16.11,3.68-.17,2.13-.43,4.19-1.59,6.17-3.5,1.39-1.39,2.19-3.14,2.41-5.25.2-1.71-.71-2.68-2.72-2.92,1.29.52,1.86,1.46,1.71,2.83-.15,1.44-.96,2.87-2.42,4.29h.05M70.91,20.52c-.07-1.78.15-3.18.66-4.21.43-.89,1.02-1.31,1.76-1.25.4.05.65.19.74.43.09.37-.02.89-.31,1.55-.52,1.42-1.47,2.58-2.84,3.47Z"/>
          </g>
          <g id="Symbol_21_0_Layer0_2_FILL" data-name="Symbol 21 0 Layer0 2 FILL">
            <path class="cls-32" d="M114.63,33.12l-1.35-.15c-34.23-4.75-68.12-1.89-101.68,8.57l-1.02.32-.46,12.88,10.59-1.73-9.99,4.78-4.44,123.27,8.6,4.44-9.06-1.59-1.95,10.86,1.09.44c35.36,16.21,69.46,20.36,102.28,12.45l1.12-.26,6.28-174.27M111.51,35.78l-6.1,169.19c-31.53,7.31-64.65,3.65-99.37-10.98l2.27-7.22,9.14-.68-8.13-6.44,4.33-120.25,10.07-7.04-.04-.15-10.46-.38-.79-8.79c33.06-9.21,66.09-11.63,99.07-7.26Z"/>
            <path class="cls-11" d="M105.41,204.97l6.1-169.19c-32.98-4.37-66-1.95-99.07,7.26l.79,8.79,10.46.38.04.15-10.07,7.04-4.33,120.25,8.13,6.44-9.14.68-2.27,7.22c34.72,14.63,67.84,18.29,99.37,10.98Z"/>
          </g>
          <g>
            <g id="Symbol_21_0_Layer0_3_FILL" data-name="Symbol 21 0 Layer0 3 FILL">
              <path class="cls-23" d="M82.6,224.54c.15-4.26-1.34-7.95-4.49-11.09-3.18-3.14-7.08-4.79-11.71-4.95-4.59-.17-8.59,1.2-11.98,4.1-3.36,2.9-5.12,6.48-5.27,10.74-.15,4.22,1.34,7.9,4.49,11.04,3.18,3.1,7.06,4.74,11.66,4.9,4.63.17,8.64-1.18,12.03-4.05,3.36-2.9,5.12-6.46,5.27-10.69Z"/>
            </g>
            <g id="Symbol_21_0_Layer0_3_1_STROKES" data-name="Symbol 21 0 Layer0 3 1 STROKES">
              <path class="cls-10" d="M47.64,223.28c.17-4.67,2.12-8.65,5.79-11.83,3.68-3.14,8.06-4.65,13.02-4.47,5,.18,9.27,1.99,12.71,5.39,3.44,3.43,5.1,7.54,4.93,12.22-.17,4.64-2.12,8.6-5.79,11.78-3.69,3.11-8.08,4.59-13.07,4.41-4.96-.18-9.22-1.97-12.66-5.33-3.45-3.44-5.11-7.53-4.94-12.17ZM81.09,224.49c.14-3.85-1.18-7.11-4.04-9.97-2.92-2.88-6.42-4.36-10.7-4.51-4.24-.15-7.82,1.07-10.95,3.74-3.05,2.63-4.6,5.79-4.74,9.64-.14,3.82,1.19,7.06,4.04,9.92,2.92,2.85,6.4,4.31,10.65,4.46,4.28.15,7.88-1.05,11-3.69,3.04-2.63,4.6-5.77,4.73-9.59Z"/>
            </g>
          </g>
          <g id="Symbol_21_0_Layer0_3_MEMBER_0_FILL" data-name="Symbol 21 0 Layer0 3 MEMBER 0 FILL">
            <path class="cls-9" d="M72.55,230.75c2.28-2.12,3.48-4.74,3.59-7.85.11-3.1-.89-5.78-3.02-8.07-2.12-2.28-4.73-3.48-7.83-3.59-3.11-.11-5.81.89-8.09,3.02-2.28,2.12-3.48,4.73-3.59,7.83-.11,3.11.89,5.81,3.02,8.09,2.12,2.28,4.74,3.48,7.85,3.59,3.1.11,5.78-.89,8.07-3.02Z"/>
          </g>
          <g id="Symbol_21_0_Layer0_3_MEMBER_1_FILL" data-name="Symbol 21 0 Layer0 3 MEMBER 1 FILL">
            <path class="cls-10" d="M76.09,226.43c.05,1.38-.59,2.28-1.91,2.7,2.02-.1,2.99-1,2.92-2.72-.06-2.12-.73-3.92-2.02-5.41-1.84-2.05-3.81-3.36-5.9-3.94-1.5-.39-2.72-.53-3.66-.43-1.35.19-2.38.85-3.09,2-1.92-.87-3.48-1.3-4.69-1.28-1.38.02-2.34.59-2.88,1.71-1.01,1.94-.17,3.9,2.51,5.88-1.61-1.84-2.05-3.58-1.32-5.23.36-.73,1.03-1.1,2-1.14.77,0,2.05.39,3.83,1.2-.28,2.24-.22,3.87.18,4.89.28.72.66,1.28,1.15,1.7.52.42,1.07.63,1.64.61h.05c.4-.02.79-.15,1.17-.41.34-.26.56-.55.64-.88.29-.59.28-1.35-.02-2.27-.48-1.66-1.47-3.04-2.97-4.14.76-.71,1.62-1.08,2.56-1.12.61-.05,1.52.11,2.75.45h-.05c1.79.5,3.48,1.62,5.07,3.35h-.05c1.36,1.52,2.06,3.01,2.11,4.46M65.6,225.29c-.11.23-.37.36-.77.38-.74,0-1.29-.45-1.66-1.37-.43-1.06-.55-2.47-.35-4.24,1.31.99,2.17,2.21,2.59,3.67.24.68.31,1.2.2,1.57Z"/>
          </g>
          <g id="Symbol_21_0_Layer0_4_FILL" data-name="Symbol 21 0 Layer0 4 FILL">
            <path class="cls-10" d="M185.68,129.55c.94-12.66-.78-25.26-5.13-37.8-4.47-12.91-11.49-25-21.05-36.26-7.97-9.43-18.44-16.74-31.39-21.93-12.7-5.13-26.01-7.53-39.93-7.18-14.56.4-27.82,3.77-39.8,10.1-13.97,7.42-24.61,17.38-31.95,29.87C4.52,86.7-.91,107.15.12,127.7c.48,10.06,2.61,19.9,6.39,29.54,3.78,9.6,8.97,18.47,15.56,26.6,7.78,9.55,16.64,17,26.59,22.36,9.39,5.07,19.96,8.39,31.72,9.96,24.29,3.22,47.55-3.87,69.76-21.26,10.69-8.41,19.1-18.32,25.24-29.71h0c5.97-11.12,9.4-23,10.3-35.64M177.69,92.76c4.22,12.14,5.88,24.34,4.98,36.59-.87,12.21-4.19,23.69-9.95,34.44v-.05c-5.95,11.04-14.1,20.63-24.45,28.78-21.49,16.83-43.98,23.71-67.47,20.63-22.11-2.96-40.86-13.9-56.28-32.85h0c-12.76-15.67-19.61-33.26-20.56-52.76-.99-19.95,4.32-39.84,15.95-59.66,7.28-12.44,17.24-22.02,29.89-28.74,11.57-6.12,24.4-9.36,38.47-9.74,13.5-.35,26.41,1.97,38.73,6.93,12.46,4.99,22.53,12.02,30.21,21.08,9.31,10.97,16.13,22.75,20.48,35.33Z"/>
            <path class="cls-14" d="M182.67,129.35c.9-12.25-.76-24.45-4.98-36.59-4.35-12.58-11.18-24.36-20.48-35.33-7.68-9.06-17.75-16.09-30.21-21.08-12.32-4.97-25.23-7.28-38.73-6.93-14.07.38-26.9,3.63-38.47,9.74-12.65,6.72-22.61,16.29-29.89,28.74C8.28,87.7,2.97,107.59,3.96,127.54c.95,19.5,7.8,37.09,20.56,52.76h0c15.41,18.94,34.17,29.89,56.28,32.85,23.49,3.07,45.98-3.81,67.47-20.63,10.35-8.15,18.5-17.75,24.45-28.78v.05c5.76-10.75,9.08-22.23,9.95-34.44Z"/>
          </g>
          <g>
            <g id="Symbol_21_0_Layer0_6_FILL" data-name="Symbol 21 0 Layer0 6 FILL">
              <path class="cls-11" d="M161.36,58.28c-1.82-2.52-4.95-5.55-9.39-9.1-5.64-4.53-11.75-8.46-18.31-11.79-18.6-9.43-37.03-12.28-55.29-8.54.68,1.7,1.99,3.41,3.94,5.13,1.82,1.61,4.36,3.36,7.62,5.26,6.22,3.61,14.34,6.51,24.36,8.68,9.79,2.1,20.96,3.39,33.5,3.88l5.91,12.15c4.3,10.26,7.39,20.96,9.27,32.11,3.03,18.37,3.04,35.48.01,51.32-3.26,16.87-10,32.59-20.23,47.16l-9.73.2c-7.83.32-15.19.95-22.07,1.87-22,3-35.02,8.44-39.06,16.32,16.19,4.34,32.43,3.65,48.72-2.07,12.28-4.33,22.95-10.67,32.01-19.04,8.93-8.27,15.95-17.91,21.08-28.9,4.98-10.7,7.9-22.08,8.73-34.13,1.72-25.35-5.31-48.86-21.08-70.51Z"/>
            </g>
            <g id="Symbol_21_0_Layer0_6_1_STROKES" data-name="Symbol 21 0 Layer0 6 1 STROKES">
              <path class="cls-32" d="M76.3,27.73l1.77-.36c18.52-3.79,37.45-.88,56.28,8.67,6.62,3.36,12.87,7.38,18.57,11.96,4.58,3.67,7.75,6.74,9.67,9.39,15.91,21.84,23.1,45.9,21.36,71.5-.85,12.19-3.83,23.85-8.87,34.67-5.19,11.12-12.4,21-21.43,29.37-9.17,8.47-20.12,14.98-32.53,19.36-16.51,5.8-33.2,6.51-49.61,2.11l-1.81-.48.85-1.66c4.32-8.42,17.47-14.02,40.2-17.13,6.91-.93,14.38-1.56,22.22-1.89l8.99-.19c9.82-14.16,16.39-29.62,19.55-45.96,2.97-15.58,2.97-32.67-.02-50.78-1.85-10.96-4.93-21.64-9.15-31.73l-5.49-11.3c-12.21-.51-23.25-1.82-32.85-3.87-10.14-2.2-18.48-5.18-24.81-8.85-3.33-1.94-5.97-3.77-7.86-5.43-2.12-1.86-3.59-3.78-4.35-5.7l-.67-1.68ZM181.11,125.27c.85-23.6-6.2-45.82-20.97-66.1-1.74-2.4-4.8-5.36-9.12-8.81-5.54-4.45-11.61-8.36-18.05-11.62-17.52-8.89-35.11-11.84-52.31-8.79.65.95,1.53,1.92,2.64,2.9,1.74,1.54,4.22,3.25,7.38,5.09,6.05,3.52,14.1,6.38,23.92,8.51,9.66,2.07,20.85,3.36,33.24,3.84l.9.03,6.34,13.04c4.32,10.32,7.47,21.23,9.36,32.44,3.05,18.47,3.05,35.91,0,51.85-3.29,17-10.17,33.07-20.48,47.75l-.44.63-10.49.22c-7.71.32-15.09.94-21.9,1.86-19.75,2.69-32.14,7.35-36.9,13.87,15.18,3.67,30.6,2.82,45.86-2.54,12.02-4.24,22.62-10.54,31.49-18.73,8.74-8.1,15.72-17.66,20.74-28.43,4.88-10.48,7.77-21.78,8.6-33.6.08-1.14.14-2.28.18-3.41Z"/>
            </g>
          </g>
          <g id="Symbol_21_0_Layer0_9_FILL" data-name="Symbol 21 0 Layer0 9 FILL">
            <g class="cls-1">
              <path class="cls-7" d="M91.93,185.15c7.54-7.01,11.49-15.7,11.87-26.06.37-10.26-2.95-19.16-9.97-26.7-7.08-7.54-15.75-11.5-26.01-11.87-10.29-.37-19.21,2.95-26.75,9.96-7.54,7.01-11.49,15.65-11.86,25.91-.37,10.36,2.95,19.31,9.96,26.85,7.01,7.54,15.67,11.49,25.96,11.86,10.26.37,19.19-2.95,26.8-9.96Z"/>
            </g>
          </g>
          <g id="Symbol_21_0_Layer0_10_FILL" data-name="Symbol 21 0 Layer0 10 FILL">
            <g class="cls-15">
              <path class="cls-6" d="M105.36,78.89c.37-10.26-2.95-19.16-9.97-26.7-7.06-7.54-15.72-11.5-25.98-11.87-10.3-.37-19.22,2.95-26.77,9.97-7.54,7.02-11.5,15.66-11.87,25.92-.37,10.35,2.95,19.29,9.97,26.83,7.02,7.54,15.68,11.5,25.98,11.87,10.26.37,19.18-2.95,26.77-9.97,7.54-7.02,11.5-15.7,11.87-26.04Z"/>
            </g>
          </g>
          <g>
            <g id="Symbol_21_0_Layer0_11_MEMBER_0_FILL" data-name="Symbol 21 0 Layer0 11 MEMBER 0 FILL">
              <path class="cls-11" d="M170.85,123.23l.64-2.29c-21.12-11-40.93-16.1-59.43-15.29l-.17,4.63c20.97-.45,40.62,3.86,58.96,12.95Z"/>
            </g>
            <g id="Symbol_21_0_Layer0_11_MEMBER_0_1_STROKES" data-name="Symbol 21 0 Layer0 11 MEMBER 0 1 STROKES">
              <path class="cls-32" d="M110.39,110.22l.17-4.63c.03-.79.66-1.42,1.44-1.45,18.68-.82,38.93,4.38,60.19,15.45.63.33.95,1.06.76,1.74l-.64,2.29c-.12.43-.43.79-.84.98-.41.18-.88.17-1.29-.03-18.03-8.94-37.63-13.24-58.25-12.8-.42,0-.82-.15-1.11-.45-.29-.3-.45-.7-.43-1.11ZM113.52,107.11l-.06,1.63c14.5-.14,28.51,2.02,41.83,6.45-14.61-5.73-28.6-8.44-41.77-8.08Z"/>
            </g>
          </g>
          <g>
            <g id="Symbol_21_0_Layer0_11_MEMBER_1_FILL" data-name="Symbol 21 0 Layer0 11 MEMBER 1 FILL">
              <path class="cls-11" d="M170.26,124.27c-17.13-5.28-32.31-8.4-45.54-9.35-19.56-1.38-35.48,1.68-47.77,9.16l4,5.13c13.05-6.28,28.04-9.4,44.96-9.36,12.66-.01,27.42,2.16,44.28,6.53l.08-2.11Z"/>
            </g>
            <g id="Symbol_21_0_Layer0_11_MEMBER_1_1_STROKES" data-name="Symbol 21 0 Layer0 11 MEMBER 1 1 STROKES">
              <path class="cls-32" d="M75.44,124.02c0-.07.01-.15.02-.22.08-.42.33-.79.7-1.02,12.51-7.61,28.88-10.77,48.66-9.37,13.28.95,28.72,4.12,45.88,9.41.65.2,1.09.82,1.06,1.5l-.08,2.11c-.02.46-.24.88-.61,1.16-.37.27-.84.37-1.28.25-16.66-4.32-31.43-6.5-43.9-6.48,0,0,0,0,0,0-16.61-.04-31.52,3.06-44.3,9.21-.64.31-1.41.13-1.85-.43l-4-5.13c-.22-.28-.33-.63-.32-.98ZM152.11,120.86c-9.97-2.35-19.17-3.84-27.5-4.44-18.37-1.29-33.64,1.42-45.41,8.08l2.2,2.82c12.94-6,27.91-9.02,44.51-8.99,7.89,0,16.66.84,26.21,2.53Z"/>
            </g>
          </g>
          <g>
            <g id="Symbol_21_0_Layer0_12_FILL" data-name="Symbol 21 0 Layer0 12 FILL">
              <path class="cls-26" d="M157.71,53.31c-5.54-5.47-11.66-10.06-18.34-13.75l-8.32-3.88c8.96,6.74,16.6,15.35,22.94,25.86,6.11,10.12,10.58,21.3,13.4,33.52,2.82,12.19,3.75,24.43,2.81,36.71-.96,12.76-3.87,24.6-8.73,35.54-3.83,8.56-10.35,17.39-19.54,26.49-8.08,8-15.94,14.11-23.57,18.34,14.28-3.92,26.74-10.59,37.38-20.01,19.18-16.93,28.76-40.07,28.74-69.42-.04-28.77-8.96-51.91-26.76-69.4Z"/>
            </g>
            <g id="Symbol_21_0_Layer0_12_1_STROKES" data-name="Symbol 21 0 Layer0 12 1 STROKES">
              <path class="cls-25" d="M116.84,212.08c.02-.52.3-1,.78-1.27,7.48-4.14,15.3-10.22,23.24-18.09,9.02-8.93,15.48-17.69,19.22-26.03,4.76-10.72,7.66-22.51,8.61-35.04.94-12.08,0-24.28-2.77-36.26-2.77-12.01-7.21-23.14-13.22-33.08-6.21-10.29-13.8-18.84-22.55-25.43-.62-.46-.79-1.32-.39-1.98.4-.66,1.23-.92,1.93-.59l8.32,3.88s.06.03.09.05c6.77,3.75,13.05,8.46,18.67,14h0c18.02,17.71,27.17,41.42,27.21,70.48.01,29.67-9.82,53.4-29.25,70.55-10.77,9.53-23.55,16.37-37.98,20.33-.74.2-1.51-.18-1.8-.89-.08-.2-.12-.42-.11-.62ZM171.98,126.95c-.06,1.65-.15,3.29-.28,4.94-.97,12.87-3.95,24.99-8.86,36.04-3.89,8.69-10.57,17.76-19.85,26.95-4.63,4.58-9.22,8.58-13.74,11.96,9.43-3.88,17.97-9.18,25.49-15.83,18.75-16.56,28.25-39.53,28.23-68.29-.04-28.22-8.89-51.21-26.31-68.33,0,0,0,0,0,0-4.84-4.77-10.19-8.91-15.92-12.31,5.44,5.4,10.31,11.65,14.55,18.68,6.17,10.21,10.74,21.64,13.57,33.96,2.46,10.65,3.51,21.47,3.12,32.23Z"/>
            </g>
          </g>
          <g>
            <g id="Symbol_21_0_Layer0_13_FILL" data-name="Symbol 21 0 Layer0 13 FILL">
              <path class="cls-12" d="M166.94,78.22c4.73,12.16,7.25,25.17,7.56,39.05.35,16.43-1.72,30.89-6.2,43.39-5.93,16.47-16.3,30.7-31.1,42.69,14.49-9.85,24.77-20.76,30.84-32.73,6.54-12.86,10.09-30.29,10.65-52.29.34-14.19-2.43-27.99-8.33-41.39-6.05-13.85-14.58-25.32-25.6-34.41,9.87,11.27,17.26,23.17,22.18,35.7Z"/>
            </g>
            <g id="Symbol_21_0_Layer0_13_1_STROKES" data-name="Symbol 21 0 Layer0 13 1 STROKES">
              <path class="cls-27" d="M136.19,203.31c.01-.28.14-.56.37-.75,14.59-11.82,24.95-26.03,30.79-42.25,4.41-12.32,6.48-26.8,6.14-43.02-.3-13.69-2.82-26.71-7.49-38.7h0c-4.85-12.36-12.26-24.28-22-35.4-.34-.4-.33-.99.04-1.36.37-.38.96-.41,1.36-.08,11.09,9.15,19.8,20.85,25.88,34.79,5.93,13.48,8.76,27.55,8.41,41.82-.54,22.06-4.18,39.79-10.75,52.72-6.12,12.07-16.61,23.2-31.17,33.11-.45.3-1.05.2-1.37-.23-.14-.19-.21-.42-.2-.64ZM177.6,120.69c.03-.79.05-1.59.07-2.39.34-13.97-2.43-27.75-8.24-40.96-3.75-8.59-8.52-16.31-14.24-23.09,5.26,7.61,9.51,15.51,12.68,23.6,0,0,0,0,0,0,4.75,12.21,7.32,25.46,7.63,39.39.35,16.47-1.76,31.2-6.26,43.75-3.62,10.06-8.95,19.37-15.9,27.82,5.88-5.92,10.5-12.15,13.8-18.66,6.2-12.2,9.72-28.83,10.46-49.47Z"/>
            </g>
          </g>
          <g>
            <g id="Duplicate_Items_Folder_Symbol_15_0_Layer3_0_FILL" data-name="Duplicate Items Folder Symbol 15 0 Layer3 0 FILL">
              <path class="cls-23" d="M72.57,108.26c1.72-.13,2.76.64,3.12,2.31.43,2.11.31,5.6-.35,10.48h.16s-8.19.65-8.19.65c-1.1-4.39-.98-7.82.34-10.29,1.18-1.95,2.82-3,4.92-3.15Z"/>
              <path class="cls-31" d="M72.43,106.18c2.92-.23,4.68,1.08,5.29,3.93.5,2.32-.21,6.02-2.13,11.1l-.09-.16h-.16c.66-4.88.77-8.37.35-10.48-.36-1.67-1.4-2.44-3.12-2.31-2.1.15-3.74,1.21-4.92,3.15-1.32,2.46-1.44,5.89-.34,10.29,0,.04,0,.08.03.13l.02.44h-.03c-2.58-5.16-3.06-9.13-1.46-11.89,1.54-2.6,3.71-4,6.53-4.19h.03Z"/>
            </g>
            <g class="cls-17">
              <g id="Duplicate_Items_Folder_Symbol_15_0_Layer2_0_FILL" data-name="Duplicate Items Folder Symbol 15 0 Layer2 0 FILL">
                <g class="cls-18">
                  <path class="cls-8" d="M75.15,99.46c3.51.13,6.48,1.48,8.9,4.06,2.4,2.58,3.53,5.63,3.41,9.17-.13,3.51-1.48,6.47-4.06,8.87-2.6,2.4-5.65,3.53-9.17,3.41s-6.47-1.48-8.87-4.06c-2.4-2.58-3.53-5.62-3.41-9.14.13-3.53,1.48-6.5,4.06-8.9,2.58-2.4,5.62-3.53,9.14-3.41Z"/>
                </g>
              </g>
            </g>
            <g id="Duplicate_Items_Folder_Symbol_15_0_Layer0_0_FILL" data-name="Duplicate Items Folder Symbol 15 0 Layer0 0 FILL">
              <path class="cls-10" d="M72.43,106.18c2.92-.23,4.68,1.08,5.29,3.93.5,2.32-.21,6.02-2.13,11.1l-.09-.16h-.16c.66-4.88.77-8.37.35-10.48-.36-1.67-1.4-2.44-3.12-2.31-2.1.15-3.74,1.21-4.92,3.15-1.32,2.46-1.44,5.89-.34,10.29,0,.04,0,.08.03.13l.02.44h-.03c-2.58-5.16-3.06-9.13-1.46-11.89,1.54-2.6,3.71-4,6.53-4.19h.03Z"/>
            </g>
          </g>
        </g>
        <g>
          <g id="Symbol_21_0_Layer0_5_FILL" data-name="Symbol 21 0 Layer0 5 FILL">
            <path class="cls-22" d="M136.8,179.92c4.45-.96,7.79-2.67,10-5.14,2.28-2.55,2.81-5.37,1.58-8.44-1.39-3.43-4.88-6.69-10.48-9.79,3.16,11.3-2.1,19.08-15.78,23.35,5.12,1.07,10.01,1.08,14.68.02Z"/>
          </g>
          <g id="Symbol_21_0_Layer0_5_1_STROKES" data-name="Symbol 21 0 Layer0 5 1 STROKES">
            <path class="cls-32" d="M150.53,169.85c-.1,2.11-.97,4.12-2.6,5.94,0,0,0,0,0,0-2.42,2.7-6.06,4.59-10.81,5.61-4.85,1.09-10,1.09-15.31-.02-.68-.14-1.17-.72-1.2-1.41-.03-.68.4-1.32,1.06-1.52,12.86-4.01,17.69-11.04,14.77-21.49-.17-.59.04-1.22.52-1.6.48-.38,1.14-.43,1.68-.14,5.97,3.3,9.62,6.75,11.15,10.54.56,1.39.8,2.76.74,4.09ZM145.68,173.77c1.91-2.13,2.32-4.32,1.3-6.87-1-2.46-3.3-4.89-6.87-7.25,1.23,8.68-2.74,15.21-11.83,19.5,2.81.12,5.55-.12,8.19-.71,4.13-.89,7.22-2.46,9.21-4.67h0Z"/>
          </g>
        </g>
        <g>
          <g id="Symbol_21_0_Layer0_7_FILL" data-name="Symbol 21 0 Layer0 7 FILL">
            <path class="cls-22" d="M123.39,64.68c13.69,4.22,18.98,11.98,15.86,23.29,5.59-3.12,9.07-6.39,10.45-9.82,1.22-3.08.69-5.9-1.61-8.44-2.23-2.46-5.57-4.16-10.02-5.1-4.67-1.04-9.57-1.01-14.68.08Z"/>
          </g>
          <g id="Symbol_21_0_Layer0_7_1_STROKES" data-name="Symbol 21 0 Layer0 7 1 STROKES">
            <path class="cls-32" d="M151.83,75.44c-.05,1.07-.29,2.16-.73,3.26-1.53,3.8-5.16,7.27-11.12,10.59-.53.3-1.19.25-1.68-.13-.48-.38-.69-1.01-.53-1.6,2.89-10.46-1.97-17.47-14.85-21.44-.66-.2-1.1-.83-1.07-1.52,0,0,0,0,0,0,.03-.69.52-1.27,1.2-1.42,5.3-1.13,10.46-1.15,15.32-.07,4.74,1,8.38,2.88,10.82,5.57,1.85,2.05,2.73,4.34,2.62,6.75ZM141.44,84.86c3.56-2.38,5.85-4.82,6.84-7.28,1.01-2.55.59-4.73-1.32-6.86-2-2.21-5.09-3.77-9.21-4.64-2.65-.59-5.39-.82-8.21-.69,9.1,4.26,13.1,10.78,11.9,19.46Z"/>
          </g>
        </g>
        <g id="Symbol_21_0_Layer0_14_FILL" data-name="Symbol 21 0 Layer0 14 FILL">
          <path class="cls-24" d="M106.79,135.27c-3.96-2.68-8.81-4.46-14.54-5.36-4.43-.64-8.71-.22-12.86,1.24l-.2.04-.16.09c-3.5,2.07-6.13,5.36-7.89,9.87-1.76,4.61-2.47,10.15-2.12,16.61.28,4.3,1.21,8.71,2.79,13.24,1.66,4.46,3.57,7.18,5.76,8.16,2.11,1.07,5.59,1.47,10.43,1.18,2.98-.14,5.47-.33,7.47-.57,2.55-.39,4.87-.98,6.96-1.76,13-4.61,18.9-12.39,17.71-23.35-.68-7.46-5.13-13.92-13.35-19.38M91.87,132.67c5.03.83,9.45,2.52,13.29,5.05,6.91,4.63,10.72,10.31,11.43,17.02.88,9.62-4.25,16.43-15.4,20.42h-.05c-4.6,1.61-9.08,2.56-13.44,2.83-4.19.22-7.22-.09-9.07-.92-1.51-.88-2.9-3.05-4.16-6.52-1.41-3.88-2.23-8.17-2.46-12.87-.68-11.81,2.05-19.96,8.19-24.44,3.25-1.07,7.14-1.26,11.67-.59Z"/>
          <path class="cls-21" d="M105.16,137.73c-3.83-2.54-8.26-4.22-13.29-5.05-4.53-.68-8.42-.48-11.67.59-6.14,4.48-8.87,12.63-8.19,24.44.23,4.7,1.05,8.99,2.46,12.87,1.26,3.47,2.65,5.64,4.16,6.52,1.85.83,4.88,1.13,9.07.92,4.37-.28,8.85-1.22,13.44-2.84h.05c11.15-3.98,16.28-10.79,15.4-20.41-.71-6.71-4.52-12.39-11.43-17.02Z"/>
        </g>
        <g id="Symbol_21_0_Layer0_15_FILL" data-name="Symbol 21 0 Layer0 15 FILL">
          <path d="M87.65,135.9c-3.81-.17-7.12.71-9.94,2.64-2.89,2-4.41,4.56-4.55,7.69-.14,3,1.15,5.6,3.85,7.82,2.63,2.28,5.85,3.5,9.66,3.68,3.84.17,7.19-.76,10.05-2.79,2.76-1.97,4.2-4.45,4.34-7.45.14-3.13-1.07-5.82-3.64-8.06-2.67-2.18-5.92-3.36-9.76-3.53Z"/>
        </g>
        <g id="Symbol_21_0_Layer0_15_MEMBER_0_FILL" data-name="Symbol 21 0 Layer0 15 MEMBER 0 FILL">
          <path class="cls-21" d="M89.09,144.27c-.84-.85-1.92-1.3-3.23-1.36-1.21-.05-2.29.3-3.24,1.07-.98.77-1.5,1.72-1.55,2.87s.38,2.14,1.28,2.99c.88.78,1.92,1.2,3.13,1.26,1.31.06,2.42-.26,3.33-.96.98-.77,1.5-1.72,1.55-2.87.05-1.15-.38-2.14-1.28-2.99M91.74,152.94c.38.59.89.9,1.53.93.61.03,1.14-.24,1.6-.79.46-.42.7-1.01.74-1.79.03-.67-.16-1.31-.57-1.9-.42-.49-.93-.75-1.53-.78-.64-.03-1.17.18-1.6.64-.43.55-.66,1.17-.69,1.84-.03.77.14,1.39.52,1.85Z"/>
        </g>
        <g id="Symbol_21_0_Layer0_16_FILL" data-name="Symbol 21 0 Layer0 16 FILL">
          <path class="cls-24" d="M105.88,62.28c-2.01-.97-4.27-1.76-6.78-2.38-1.97-.43-4.43-.84-7.39-1.24-4.79-.72-8.29-.64-10.49.24-2.26.78-4.42,3.31-6.47,7.61-1.99,4.37-3.31,8.68-3.98,12.93-.93,6.4-.73,11.98.61,16.73,1.34,4.65,3.66,8.16,6.97,10.54l.15.11.2.06c4,1.83,8.23,2.63,12.7,2.4,5.79-.38,10.78-1.72,14.96-4.03,8.68-4.7,13.7-10.74,15.04-18.1,2.17-10.8-3-19.09-15.53-24.85M104.34,64.99h.05c10.74,4.98,15.24,12.22,13.5,21.72-1.31,6.62-5.62,11.93-12.92,15.92-4.05,2.18-8.61,3.46-13.69,3.84-4.57.27-8.42-.28-11.57-1.64-5.71-5.02-7.7-13.37-5.96-25.08.65-4.66,1.85-8.86,3.61-12.59,1.57-3.34,3.14-5.38,4.73-6.11,1.92-.66,4.96-.69,9.12-.09,4.32.67,8.7,2.01,13.13,4.04Z"/>
          <path class="cls-21" d="M104.39,65h-.05c-4.43-2.02-8.81-3.37-13.13-4.04-4.16-.59-7.2-.56-9.12.09-1.59.74-3.16,2.78-4.73,6.11-1.75,3.73-2.96,7.93-3.61,12.59-1.74,11.7.24,20.06,5.96,25.08,3.15,1.36,7,1.9,11.57,1.64,5.08-.38,9.64-1.66,13.69-3.84,7.3-3.99,11.61-9.3,12.92-15.92,1.75-9.51-2.75-16.75-13.5-21.72Z"/>
        </g>
        <g>
          <g id="Symbol_21_0_Layer0_17_FILL" data-name="Symbol 21 0 Layer0 17 FILL">
            <path d="M98.78,73.45c-2.63-2.21-5.89-3.4-9.76-3.58-3.81-.17-7.1.73-9.89,2.69-2.92,1.96-4.46,4.51-4.6,7.64-.14,3,1.16,5.6,3.9,7.82,2.6,2.28,5.8,3.5,9.6,3.67,3.87.17,7.22-.75,10.05-2.79,2.75-1.97,4.2-4.45,4.34-7.45.14-3.13-1.07-5.8-3.64-8.01Z"/>
          </g>
          <g id="Symbol_21_0_Layer0_17_MEMBER_0_FILL" data-name="Symbol 21 0 Layer0 17 MEMBER 0 FILL">
            <path class="cls-21" d="M96.46,83.37c-.42-.49-.95-.75-1.58-.78-.64-.03-1.17.18-1.6.64-.43.55-.66,1.17-.69,1.84-.03.77.14,1.39.52,1.85.38.62.89.95,1.53.98.64.03,1.19-.25,1.66-.84.42-.42.65-1.02.69-1.79.03-.67-.14-1.31-.52-1.9M91.74,81.23c.05-1.15-.36-2.14-1.23-2.99-.87-.82-1.95-1.25-3.23-1.31-1.21-.05-2.31.28-3.29,1.02-.95.77-1.44,1.72-1.5,2.87-.05,1.15.36,2.14,1.23,2.99.91.78,1.97,1.2,3.18,1.26,1.28.06,2.39-.26,3.33-.96.95-.77,1.44-1.72,1.5-2.87Z"/>
          </g>
        </g>
      </g>
      <g>
        <path class="cls-3" d="M24.34,118.18c-1.07-8.11-2.01-17.34,2.74-17.8,4.75-.46,16.77,6.1,17.41,15.15.65,9.05-7.58,20.03-13.13,19.01-5.56-1.13-6.44-11.94-7.02-16.35Z"/>
        <path class="cls-10" d="M17.81,111.38c1.45,3.09,2.11,6.5,1.85,9.92-.09,1-.18,1.94-.44,2.9-.03.17.1.37.26.35.17.03.32-.1.35-.26.75-3.43.61-7.02-.44-10.38-.29-.95-.63-1.88-1.07-2.76-.11-.42-.67-.13-.52.23h0Z"/>
        <path class="cls-24" d="M23.91,120.77c-.07-.52-.13-1.01-.19-1.46-.05-.37-.09-.72-.13-1.03-.93-7.07-1.64-14.22.75-17.24.69-.87,1.61-1.37,2.71-1.48,3.05-.3,8.25,1.93,12.1,5.18,2.64,2.23,5.85,5.9,6.2,10.71.47,6.54-3.37,13.61-7.4,17.22-2.31,2.07-4.69,3.01-6.69,2.64-5.2-1.02-6.65-9.17-7.36-14.55ZM43.68,115c-.41-3.13-2.37-6.31-5.57-9.01-3.9-3.29-8.6-5.03-10.89-4.81-.66.06-1.18.35-1.6.87-2.17,2.73-1.07,11.05-.42,16.02.04.32.09.67.13,1.05.56,4.46,1.71,13.73,6.24,14.61,1.48.27,3.37-.53,5.3-2.26,3.65-3.26,7.29-9.94,6.87-15.89-.01-.19-.03-.38-.06-.57Z"/>
      </g>
    </g>
  </g>
</svg>