<?xml version="1.0" encoding="UTF-8"?>
<svg id="Layer_2" data-name="Layer 2" xmlns="http://www.w3.org/2000/svg" xmlns:xlink="http://www.w3.org/1999/xlink" viewBox="0 0 271.32 185.94">
  <defs>
    <style>
      .cls-1 {
        fill: none;
      }

      .cls-2 {
        mask: url(#mask);
      }

      .cls-3 {
        filter: url(#luminosity-noclip);
      }

      .cls-4 {
        fill: #2b1010;
      }

      .cls-5 {
        filter: url(#luminosity-noclip-3);
      }

      .cls-6 {
        filter: url(#luminosity-noclip-9);
      }

      .cls-7 {
        filter: url(#luminosity-noclip-7);
      }

      .cls-8 {
        filter: url(#luminosity-noclip-5);
      }

      .cls-9 {
        fill: url(#radial-gradient-6);
      }

      .cls-10 {
        fill: url(#radial-gradient-4);
      }

      .cls-11 {
        fill: url(#radial-gradient-8);
      }

      .cls-12 {
        fill: url(#radial-gradient-2);
      }

      .cls-13 {
        fill: #522515;
      }

      .cls-14 {
        fill: url(#radial-gradient);
      }

      .cls-14, .cls-15, .cls-16, .cls-17, .cls-18 {
        mix-blend-mode: multiply;
      }

      .cls-19 {
        fill: url(#linear-gradient);
      }

      .cls-20 {
        fill: #6f311e;
      }

      .cls-21 {
        fill: #6c2d15;
      }

      .cls-22 {
        mask: url(#mask-2);
      }

      .cls-23 {
        mask: url(#mask-3);
      }

      .cls-24 {
        mask: url(#mask-4);
      }

      .cls-25 {
        mask: url(#mask-5);
      }

      .cls-26 {
        mask: url(#mask-7);
      }

      .cls-27 {
        mask: url(#mask-6);
      }

      .cls-28 {
        mask: url(#mask-1);
      }

      .cls-29 {
        mask: url(#mask-9);
      }

      .cls-30 {
        mask: url(#mask-8);
      }

      .cls-31 {
        clip-path: url(#clippath-1);
      }

      .cls-32 {
        clip-path: url(#clippath-2);
      }

      .cls-33 {
        fill: #a4a3a3;
      }

      .cls-34 {
        fill: url(#radial-gradient-10);
      }

      .cls-35 {
        fill: #fff;
      }

      .cls-15 {
        fill: url(#radial-gradient-9);
      }

      .cls-16 {
        fill: url(#radial-gradient-3);
      }

      .cls-17 {
        fill: url(#radial-gradient-7);
      }

      .cls-18 {
        fill: url(#radial-gradient-5);
      }

      .cls-36 {
        fill: #e67639;
      }

      .cls-37 {
        clip-path: url(#clippath);
      }

      .cls-38 {
        fill: #161616;
      }
    </style>
    <linearGradient id="linear-gradient" x1="2027.6" y1="211.85" x2="2010.81" y2="51.05" gradientTransform="translate(73.4 -1918.86) rotate(90.15) scale(1 -1)" gradientUnits="userSpaceOnUse">
      <stop offset=".07" stop-color="#e94c32"/>
      <stop offset=".36" stop-color="#e67639"/>
    </linearGradient>
    <filter id="luminosity-noclip" x="158.27" y="84.13" width="38.42" height="75.47" color-interpolation-filters="sRGB" filterUnits="userSpaceOnUse">
      <feFlood flood-color="#fff" result="bg"/>
      <feBlend in="SourceGraphic" in2="bg"/>
    </filter>
    <filter id="luminosity-noclip-2" x="158.27" y="-7956.21" width="38.42" height="32766" color-interpolation-filters="sRGB" filterUnits="userSpaceOnUse">
      <feFlood flood-color="#fff" result="bg"/>
      <feBlend in="SourceGraphic" in2="bg"/>
    </filter>
    <mask id="mask-1" x="158.27" y="-7956.21" width="38.42" height="32766" maskUnits="userSpaceOnUse"/>
    <radialGradient id="radial-gradient" cx="2031.38" cy="963.89" fx="2031.38" fy="963.89" r="81.94" gradientTransform="translate(-141.99 -1812.97) rotate(94.49) scale(.99 -.49) skewX(-6.46)" gradientUnits="userSpaceOnUse">
      <stop offset=".07" stop-color="#fff"/>
      <stop offset=".36" stop-color="#000"/>
    </radialGradient>
    <mask id="mask" x="158.27" y="84.13" width="38.42" height="75.47" maskUnits="userSpaceOnUse">
      <g class="cls-3">
        <g class="cls-28">
          <path class="cls-14" d="M171.7,159.48c-5.03-.76-8.83-5.13-11.26-13-2.35-7.86-2.83-16.95-1.25-27.33,1.59-10.47,4.68-19.18,9.33-25.98,4.72-6.7,9.56-9.68,14.59-8.92,5.11.77,8.84,5.05,11.29,12.84,2.5,7.97,2.97,17.14,1.38,27.61-1.57,10.38-4.72,18.92-9.46,25.71-4.65,6.8-9.5,9.86-14.61,9.08Z"/>
        </g>
      </g>
    </mask>
    <radialGradient id="radial-gradient-2" cx="2031.38" cy="963.89" fx="2031.38" fy="963.89" r="81.94" gradientTransform="translate(-141.99 -1812.97) rotate(94.49) scale(.99 -.49) skewX(-6.46)" gradientUnits="userSpaceOnUse">
      <stop offset=".07" stop-color="#e94c32"/>
      <stop offset=".36" stop-color="#e67639"/>
    </radialGradient>
    <filter id="luminosity-noclip-3" x="156.61" y="22.76" width="38.75" height="75.32" color-interpolation-filters="sRGB" filterUnits="userSpaceOnUse">
      <feFlood flood-color="#fff" result="bg"/>
      <feBlend in="SourceGraphic" in2="bg"/>
    </filter>
    <filter id="luminosity-noclip-4" x="156.61" y="-7956.21" width="38.75" height="32766" color-interpolation-filters="sRGB" filterUnits="userSpaceOnUse">
      <feFlood flood-color="#fff" result="bg"/>
      <feBlend in="SourceGraphic" in2="bg"/>
    </filter>
    <mask id="mask-3" x="156.61" y="-7956.21" width="38.75" height="32766" maskUnits="userSpaceOnUse"/>
    <radialGradient id="radial-gradient-3" cx="2223.58" cy="68.35" fx="2223.58" fy="68.35" r="81.93" gradientTransform="translate(-40.66 -2135.18) rotate(85.19) scale(.99 -.49) skewX(7.41)" xlink:href="#radial-gradient"/>
    <mask id="mask-2" x="156.61" y="22.76" width="38.75" height="75.32" maskUnits="userSpaceOnUse">
      <g class="cls-5">
        <g class="cls-23">
          <path class="cls-16" d="M194.26,57.38c1.74,10.36,1.42,19.45-.97,27.38-2.29,7.99-5.95,12.33-11.05,13.19-5.01.84-9.99-2.12-14.76-8.84-4.68-6.73-7.97-15.22-9.72-25.58-1.76-10.44-1.53-19.6.76-27.6,2.4-7.84,6.06-12.18,11.08-13.02,5.1-.86,9.98,2.04,14.73,8.68,4.86,6.79,8.16,15.36,9.92,25.8Z"/>
        </g>
      </g>
    </mask>
    <radialGradient id="radial-gradient-4" cx="2223.58" cy="68.35" fx="2223.58" fy="68.35" r="81.93" gradientTransform="translate(-40.66 -2135.18) rotate(85.19) scale(.99 -.49) skewX(7.41)" xlink:href="#radial-gradient-2"/>
    <filter id="luminosity-noclip-5" x="147.05" y="0" width="41.84" height="61.67" color-interpolation-filters="sRGB" filterUnits="userSpaceOnUse">
      <feFlood flood-color="#fff" result="bg"/>
      <feBlend in="SourceGraphic" in2="bg"/>
    </filter>
    <filter id="luminosity-noclip-6" x="147.05" y="-7956.21" width="41.84" height="32766" color-interpolation-filters="sRGB" filterUnits="userSpaceOnUse">
      <feFlood flood-color="#fff" result="bg"/>
      <feBlend in="SourceGraphic" in2="bg"/>
    </filter>
    <mask id="mask-5" x="147.05" y="-7956.21" width="41.84" height="32766" maskUnits="userSpaceOnUse"/>
    <radialGradient id="radial-gradient-5" cx="2282.28" cy="305.57" fx="2282.28" fy="305.57" r="66.4" gradientTransform="translate(-31.19 -2253.79) rotate(90.15) scale(1 -.68)" xlink:href="#radial-gradient"/>
    <mask id="mask-4" x="147.05" y="0" width="41.84" height="61.67" maskUnits="userSpaceOnUse">
      <g class="cls-8">
        <g class="cls-25">
          <path class="cls-18" d="M147.05,30.78c-.02,8.58,1.96,15.92,5.94,21.94,4.15,5.93,9.06,8.94,14.81,8.96s10.76-2.97,14.78-8.88c4.18-6.07,6.29-13.32,6.31-21.9s-2.04-15.76-6.19-21.77C178.63,3.03,173.72.02,167.97,0s-10.76,2.97-14.86,9.04c-4.02,5.99-6.04,13.24-6.06,21.74Z"/>
        </g>
      </g>
    </mask>
    <radialGradient id="radial-gradient-6" cx="2282.28" cy="305.57" fx="2282.28" fy="305.57" r="66.4" gradientTransform="translate(-31.19 -2253.79) rotate(90.15) scale(1 -.68)" xlink:href="#radial-gradient-2"/>
    <clipPath id="clippath">
      <path class="cls-1" d="M171.67,93.73l-.17.5v-.42c.59-3.67.78-9,.54-16.08-.08-2.08.09-3.25.59-3.5.67-.08,1.75.67,3.33,2.26,2.24,2.34,3.74,5.09,4.31,8.26.66,3.25.32,6.42-1.03,9.33l-.25.25-7.33-.6Z"/>
    </clipPath>
    <filter id="luminosity-noclip-7" x="162.78" y="58.2" width="21.58" height="39.27" color-interpolation-filters="sRGB" filterUnits="userSpaceOnUse">
      <feFlood flood-color="#fff" result="bg"/>
      <feBlend in="SourceGraphic" in2="bg"/>
    </filter>
    <filter id="luminosity-noclip-8" x="162.78" y="-7956.21" width="21.58" height="32766" color-interpolation-filters="sRGB" filterUnits="userSpaceOnUse">
      <feFlood flood-color="#fff" result="bg"/>
      <feBlend in="SourceGraphic" in2="bg"/>
    </filter>
    <mask id="mask-7" x="162.78" y="-7956.21" width="21.58" height="32766" maskUnits="userSpaceOnUse"/>
    <radialGradient id="radial-gradient-7" cx="8657.08" cy="4714.15" fx="8657.08" fy="4714.15" r="81.93" gradientTransform="translate(-160.72 -2339.53) rotate(99.27) scale(.27 -.15) skewX(-.71)" xlink:href="#radial-gradient"/>
    <mask id="mask-6" x="162.78" y="58.2" width="21.58" height="39.27" maskUnits="userSpaceOnUse">
      <g class="cls-7">
        <g class="cls-26">
          <path class="cls-17" d="M164,90.63c-1.35-4.08-1.57-8.81-.71-14.19.9-5.46,2.65-9.97,5.23-13.52,2.63-3.51,5.4-5.06,8.21-4.66,2.86.4,4.96,2.62,6.35,6.7,1.39,4.12,1.66,8.9.76,14.36-.9,5.42-2.65,9.84-5.28,13.35-2.63,3.55-5.35,5.15-8.21,4.75-2.86-.4-4.96-2.66-6.35-6.78Z"/>
        </g>
      </g>
    </mask>
    <radialGradient id="radial-gradient-8" cx="8657.08" cy="4714.15" fx="8657.08" fy="4714.15" r="81.93" gradientTransform="translate(-160.72 -2339.53) rotate(99.27) scale(.27 -.15) skewX(-.71)" xlink:href="#radial-gradient-2"/>
    <filter id="luminosity-noclip-9" x="147.22" y="124.27" width="41.84" height="61.67" color-interpolation-filters="sRGB" filterUnits="userSpaceOnUse">
      <feFlood flood-color="#fff" result="bg"/>
      <feBlend in="SourceGraphic" in2="bg"/>
    </filter>
    <filter id="luminosity-noclip-10" x="147.22" y="-7956.21" width="41.84" height="32766" color-interpolation-filters="sRGB" filterUnits="userSpaceOnUse">
      <feFlood flood-color="#fff" result="bg"/>
      <feBlend in="SourceGraphic" in2="bg"/>
    </filter>
    <mask id="mask-9" x="147.22" y="-7956.21" width="41.84" height="32766" maskUnits="userSpaceOnUse"/>
    <radialGradient id="radial-gradient-9" cx="1880.45" cy="305.91" fx="1880.45" fy="305.91" r="66.4" gradientTransform="translate(-32.39 -1724.09) rotate(90.15) scale(1 -.68)" xlink:href="#radial-gradient"/>
    <mask id="mask-8" x="147.22" y="124.27" width="41.84" height="61.67" maskUnits="userSpaceOnUse">
      <g class="cls-6">
        <g class="cls-29">
          <path class="cls-15" d="M147.22,155.05c.02-8.58,2.04-15.91,6.06-21.9,4.18-5.91,9.11-8.89,14.86-8.88,5.83.02,10.74,3.03,14.73,8.96,4.15,6.1,6.21,13.35,6.19,21.94-.02,8.5-2.13,15.75-6.31,21.74-4.1,6.07-9.03,9.06-14.78,9.04s-10.74-3.03-14.81-9.12c-3.98-6.01-5.97-13.27-5.94-21.77Z"/>
        </g>
      </g>
    </mask>
    <radialGradient id="radial-gradient-10" cx="1880.45" cy="305.91" fx="1880.45" fy="305.91" r="66.4" gradientTransform="translate(-32.39 -1724.09) rotate(90.15) scale(1 -.68)" xlink:href="#radial-gradient-2"/>
    <clipPath id="clippath-1">
      <path class="cls-1" d="M131.06,116.81h0c.07-2.54.89-4.92,2.37-7.08,1.6-2.28,3.83-4.12,6.74-5.46,2.41-1.11,4.93-1.94,7.58-2.43,2.08-.43,3.88-.62,5.35-.7,1.69-.03,3.39.12,5.08.43,1.19.6.67,3.09.18,4.4-.43,1.19-.98,2.16-1.19,3.23-.31,1.75-.63,3.39-.65,5.65,0,3.61,1.35,7.31,2.58,10.05.76,1.68,1.21,5.28-.01,6.6-.89.63-2.02.99-3.31,1.18-1.35.25-3.15.22-5.41-.03-4.41-.44-8.14-1.46-11.1-2.99-2.73-1.43-4.9-3.31-6.4-5.71-1.27-2.24-1.87-4.6-1.8-7.13Z"/>
    </clipPath>
    <clipPath id="clippath-2">
      <path class="cls-1" d="M132.49,62.2c1.43-2.45,3.49-4.39,6.23-5.9,2.91-1.62,6.61-2.75,11-3.32,2.25-.32,4.05-.34,5.41-.19,1.3.15,2.43.47,3.34,1.08,1.32,1.28.92,4.89.21,6.59-1.14,2.72-2.38,6.46-2.27,10.13.09,2.31.4,3.88.82,5.63.24,1.01.76,1.96,1.29,3.2.53,1.23,1.07,3.71-.05,4.4-1.69.36-3.37.61-5.07.64-1.47-.03-3.27-.18-5.37-.54-2.6-.47-5.15-1.16-7.65-2.2-2.95-1.25-5.23-3.02-6.9-5.25-1.55-2.12-2.44-4.47-2.59-7.01h0c-.21-2.59.32-4.97,1.58-7.24Z"/>
    </clipPath>
  </defs>
  <g id="Layer_1-2" data-name="Layer 1">
    <g>
      <g>
        <g>
          <g>
            <g id="Symbol_10_0_Layer0_0_FILL" data-name="Symbol 10 0 Layer0 0 FILL">
              <path class="cls-38" d="M59.81,146.94c-1.76,2.66-3.43,5.82-4.86,9.74-.76,2.25-1.6,5-2.52,8.24-.76,2.16-1.84,3.08-3.17,2.83-.92-.17-1.75-1.25-2.33-3.17-.66-2.17-.74-4.59-.15-7.25,1.6-7.41,7.54-13.56,17.8-18.37-6.84.65-12.5.55-16.92-.46-4.5-1.01-8.24-2.94-11.32-5.86-3.33-2.76-5.9-6.43-7.89-10.94-1.91-4.42-2.56-8.17-1.97-11.26.25-1.25,1-1.16,2.33.26.75.84,2.33,2.84,4.73,6.18,5.31,7.35,9.14,11.28,11.64,11.78-3.49-3.34-6.56-7.69-9.22-13.11-5.22-10.6-7.19-22.61-5.74-36.02.6-5.17,1.53-9.5,2.95-12.91,1.43-3.33,2.76-4.91,4.1-4.66,1,.17,1.66,2.25,2.15,6.09.49,4.42.47,10.09-.13,16.83,1.51-5.08,2.78-11.08,3.8-18.16,1.02-7,1.37-12.25,1.21-15.75-.4-5.92-1.89-10.67-4.3-14.35-2.41-3.59-5.65-5.85-9.57-6.78-4.08-.93-8.58-.27-13.51,1.8-5.26,2.24-10.6,5.97-16.03,11.29,10.46-13.89,22.48-21.86,36.07-23.82,6.09-.9,11.92-.38,17.41,1.46,5.5,1.85,10.32,4.86,14.31,9.12,1.59-2.91,1.1-5.75-1.39-8.34-2.49-2.67-6.07-4.02-10.66-4.11-2.75-.09-4.83-.43-6.16-1.18-1.33-.67-1.66-1.5-1.24-2.42,1.09-2.33,5.59-3.65,13.35-4.13,5.75-.23,10,1.86,12.82,6.29,2.66,4.09,3.31,9.01,2.13,14.59,18.15-22.54,33.23-23.66,45.27-3.55,3.48,6.26,6.57,5.1,9.26-3.64,2.28-12.91,8.7-12.89,19.17-.03l32.69,24.42c3.25.09,7.25-.15,12.09-.63,2.42-.24,4.5-.49,6.25-.82,6.75-.07,11.42-1.39,14.01-4.05,2.26-2.33,2.6-5.24.94-8.58-1.57-3.34-4.57-6.1-8.9-8.19-4.74-2.35-9.99-3.28-15.66-2.79,6.93-2.82,13.68-4.05,20.35-3.86,6.17.18,10.5,1.53,13.24,4.04,1.33,1.25,3.16,3.43,5.48,6.68,1.33,1.92,2.33,2.42,3,1.76.25-.33.17-1.33-.33-3-.25-.75-1.07-3.34-2.56-7.84,8.82,5.36,14.47,11.21,16.95,17.63,2.57,6.51,1.14,11.75-4.21,15.82,5.96,13.77,9.01,27.03,9.06,39.7.05,13-3.07,26.16-9.27,39.56,4.99,5.1,6.39,10.52,4.21,16.43-2.18,5.91-7.78,11.56-16.88,16.96,1.51-3.83,2.6-6.66,3.19-8.58,1.01-3,1.35-4.83,1.1-5.58-2.86,8.66-8.96,13.89-18.13,15.7-3.42.66-7,.81-10.75.39-3.17-.34-5.75-1.02-7.75-1.94,4.58.51,9.42-.97,14.6-4.38,4.59-3.07,7.18-5.81,7.77-8.4.34-1.42-.08-2.83-1.32-4.34-1.33-1.59-3.33-3.01-5.99-4.18-6.58-2.85-15.41-3.79-26.5-2.65l-32.55,17.25c-2.75.99-4.51,1.74-5.42,2.15-1.84.91-3.17,2.08-4.01,3.49-2.77,5.58-5.36,8.15-7.77,7.73-2-.34-4.08-2.93-6.15-7.77-1.74-4.76-2.9-7.51-3.39-8.26-.33-.58-.75-.75-1.17-.42-.42.25-.92,1-1.67,2.16-2.26,3.66-4.94,6.99-8.03,9.81-5.93,5.57-12.19,8.89-18.61,10.12-5.75,1.07-11.5.39-17.25-2.13-5.74-2.52-10.15-6.03-13.14-10.54-1.33-2-2.4-6.09-3.22-12.09-.65-4.92-.89-8.92-.72-12-.17.08-.25.17-.42.25-1.5.83-3.01,2.49-4.6,4.74Z"/>
            </g>
            <g id="Symbol_10_0_Layer0_0_1_STROKES" data-name="Symbol 10 0 Layer0 0 1 STROKES">
              <path d="M245.94,132.43c4.85,5.29,6.16,11.04,3.89,17.12-2.37,6.17-8.22,12.09-17.41,17.58l-1.8-1.53c.65-1.66,1.21-3.12,1.7-4.43-3.45,3.92-8.17,6.49-14.14,7.66-3.62.7-7.36.83-11.12.4-3.21-.35-5.95-1.03-8.14-2.05l.66-2.38c4.26.48,8.77-.89,13.76-4.17,5.35-3.58,6.89-6.13,7.25-7.65.16-.65.21-1.7-1.06-3.25-1.23-1.47-3.1-2.77-5.53-3.84-6.25-2.71-14.87-3.58-25.63-2.58l-32.33,17.13-1.01.39c-2.13.79-3.67,1.36-4.41,1.76-1.61.87-2.79,1.88-3.52,3.01-3.06,6.15-6.03,8.88-9.06,8.35-2.53-.41-4.79-3.12-7.12-8.57-1.82-4.99-2.69-6.92-3.06-7.63-.22.27-.52.7-.93,1.33-2.27,3.77-5.05,7.16-8.25,10.08-6.09,5.64-12.56,9.15-19.23,10.43-6.02,1.12-12.07.37-17.98-2.21-5.98-2.62-10.58-6.32-13.68-10.99-1.44-2.17-2.55-6.29-3.42-12.62-.49-3.65-.75-6.84-.78-9.53-.96.94-1.88,2.07-2.76,3.37-1.67,2.54-3.24,5.62-4.65,9.15-.73,1.97-1.42,4.37-2.21,7.15l-.31,1.07c-1.29,3.68-3.43,3.86-4.58,3.64-1.49-.28-2.6-1.64-3.29-4.04-.74-2.42-.8-5.07-.17-7.88,1.4-6.53,5.76-11.96,13.28-16.48-4.53.14-8.3-.15-11.45-.87-4.75-1.07-8.64-3.08-11.88-6.15-3.45-2.87-6.13-6.59-8.21-11.38-2-4.64-2.69-8.67-2.06-11.92.18-1.31.92-1.74,1.35-1.87,1.23-.39,2.38.64,3.15,1.47.94,1.05,2.69,3.34,4.81,6.28.33.45.65.88.96,1.3-.23-.44-.45-.88-.67-1.33-5.37-10.72-7.34-23.07-5.86-36.72.64-5.56,1.64-9.89,3.04-13.26,1.19-2.77,2.88-5.89,5.45-5.4,1.74.29,2.69,2.45,3.18,7.18.14,1.29.24,2.68.3,4.15.33-1.8.62-3.64.89-5.51,1.03-7.1,1.43-12.17,1.2-15.48-.39-5.69-1.76-10.31-4.09-13.74-2.25-3.36-5.13-5.4-8.81-6.25-3.84-.87-8.12-.29-12.73,1.73-5.06,2.19-10.33,5.9-15.66,11.04l-1.87-1.65c10.56-14.03,22.97-22.21,36.88-24.31,6.24-.92,12.13-.43,17.99,1.51,5.02,1.66,9.53,4.37,13.43,8.06.39-1.83-.21-3.56-1.82-5.23-2.22-2.38-5.5-3.63-9.78-3.72-3.16-.1-5.3-.53-6.69-1.32-1.09-.55-1.77-1.25-2.03-2.07-.15-.47-.22-1.21.21-1.99,1.3-2.78,5.88-4.32,14.43-4.85,6.17-.25,10.86,2.06,13.92,6.85,2.13,3.29,3.1,7.02,2.91,11.16,9.19-10.43,17.76-15.43,25.53-14.88,7.01.49,13.4,5.48,19,14.84,1.76,3.16,2.85,3.31,3.15,3.28.42-.04,1.94-.65,3.8-6.61,1.12-6.25,3.18-9.68,6.31-10.49,3.82-.99,8.71,2.23,14.94,9.85l32.25,24.09c3,.06,6.78-.15,11.53-.64,1.9-.19,3.59-.44,5.08-.65l1.12-.16h.16c6.4-.07,10.82-1.31,13.13-3.68,1.9-1.96,2.13-4.24.71-7.18-1.45-3.08-4.25-5.63-8.32-7.6-4.52-2.23-9.56-3.13-15-2.67l-.58-2.4c6.93-2.82,13.94-4.15,20.85-3.95,6.45.19,11.18,1.66,14.03,4.35,1.36,1.2,3.22,3.45,5.69,6.91.29.43.54.73.74.96-.06-.29-.15-.65-.28-1.1l-.38-1.16c-.42-1.3-1.14-3.52-2.19-6.68l-1.06-3.22,2.9,1.76c9.16,5.56,14.88,11.53,17.47,18.24,2.64,6.71,1.35,12.31-3.85,16.67,5.78,13.61,8.74,26.83,8.79,39.32-.03,12.96-3.07,26.18-9.04,39.31ZM243.91,52.43c4.9-3.73,6.15-8.43,3.8-14.38-2.07-5.37-6.61-10.45-13.5-15.13.48,1.45.84,2.57,1.09,3.35l.38,1.18c.65,2.18.68,3.37.12,4.11l-.07.08c-.46.51-1.06.77-1.7.73-1.05-.07-2.05-.87-3.24-2.59-2.34-3.28-4.07-5.4-5.32-6.5-2.42-2.28-6.6-3.52-12.42-3.7-4.42-.12-8.76.38-13.14,1.53,3.18.43,6.2,1.35,9.03,2.75,4.59,2.22,7.78,5.18,9.48,8.77,1.88,3.89,1.49,7.25-1.17,10-2.82,2.9-7.67,4.34-14.81,4.42l-1.03.15c-1.52.22-3.24.47-5.19.66-5.07.52-9.08.73-12.25.64h-.4s-33.01-24.67-33.01-24.67l-.22-.21c-6.87-8.43-10.58-9.62-12.47-9.12-2.04.53-3.6,3.5-4.5,8.58l-.04.15c-1.71,5.51-3.6,8.18-5.96,8.43-1.95.2-3.77-1.29-5.57-4.51-5.14-8.59-10.86-13.16-17.01-13.6-7.68-.54-16.5,5.27-26.21,17.29l-2.19-1.06c1.18-5.22.53-9.81-1.96-13.64-2.59-4.06-6.42-5.92-11.69-5.71-9.58.59-11.81,2.39-12.33,3.49-.04.08-.05.12-.05.12.02.06.2.3.82.61,1.06.6,2.89.93,5.57,1.02,4.97.1,8.85,1.62,11.53,4.5,2.84,2.95,3.39,6.33,1.6,9.78l-.81,1.56-1.21-1.27c-3.92-4.1-8.56-7.06-13.8-8.8-5.48-1.82-10.99-2.28-16.84-1.41-9.24,1.39-17.81,5.64-25.6,12.66,1.64-.98,3.26-1.82,4.87-2.51,5.11-2.23,9.92-2.86,14.29-1.87,4.27.99,7.74,3.44,10.32,7.29,2.57,3.79,4.09,8.82,4.51,14.96.24,3.49-.16,8.73-1.22,16.01-.95,6.58-2.24,12.74-3.83,18.32l-2.45-.45c.58-6.56.62-12.15.13-16.6-.4-3.82-1.02-4.78-1.2-4.99-.23.04-1.16.42-2.65,3.91-1.31,3.14-2.25,7.25-2.86,12.56-1.43,13.15.46,25.04,5.62,35.34,2.62,5.36,5.63,9.65,8.95,12.74l-1.1,2.14c-2.78-.56-6.6-4.35-12.4-12.28-3.03-4.2-4.33-5.71-4.63-6.06-.11-.11-.2-.21-.29-.29-.35,2.71.31,6.06,1.98,9.94,1.92,4.43,4.39,7.86,7.54,10.47l.06.06c2.91,2.76,6.42,4.58,10.74,5.55,4.16.95,9.56,1.1,16.52.44l.65,2.38c-9.99,4.68-15.59,10.4-17.11,17.51-.53,2.39-.49,4.61.13,6.63.49,1.7,1.08,2.24,1.36,2.29.66.13,1.25-.55,1.74-1.94l.29-1c.8-2.83,1.5-5.28,2.28-7.36,1.48-3.71,3.13-6.95,4.89-9.63h0c1.52-2.27,3.19-4.08,4.98-5.39l.18-.11s.05-.03.07-.05c.1-.07.21-.13.34-.2l1.93-.96-.12,2.15c-.17,2.99.07,6.95.71,11.76.99,7.3,2.19,10.32,3.02,11.57,2.83,4.27,7.07,7.66,12.6,10.08,5.44,2.38,11,3.07,16.51,2.05,6.29-1.21,12.17-4.42,18.01-9.81,3.07-2.8,5.62-5.92,7.82-9.57,1.27-1.96,1.8-2.36,1.98-2.49l.11-.07c.55-.33,1.64-.67,2.77.7l.08.11c.76,1.15,2.34,5.27,3.5,8.46,2.35,5.49,4.12,6.85,5.21,7.03,1.74.31,4.03-2.2,6.44-7.05l.06-.11c.95-1.51,2.45-2.83,4.47-3.92.89-.48,2.42-1.05,4.73-1.91l.78-.29,32.7-17.33.25-.02c11.46-1.09,20.33-.19,27.12,2.75,2.79,1.23,4.96,2.75,6.45,4.53,1.48,1.78,2.01,3.61,1.58,5.42-.68,2.88-3.39,5.87-8.3,9.15-2.85,1.88-5.58,3.18-8.23,3.93.27.04.55.07.83.1,3.52.4,7.01.27,10.37-.37,8.71-1.72,14.5-6.72,17.18-14.87h2.37c.24.73.33,2.11-1.11,6.39-.5,1.43-1.09,3.09-1.84,5.09,6.87-4.6,11.3-9.41,13.19-14.32,2.02-5.4.74-10.35-3.93-15.12l-.6-.62.36-.78c6.04-13.05,9.12-26.19,9.16-39.03-.05-12.4-3.06-25.59-8.96-39.2l-.39-.9.78-.59Z"/>
            </g>
          </g>
          <g id="Symbol_10_0_Layer0_1_FILL" data-name="Symbol 10 0 Layer0 1 FILL">
            <path d="M43.3,104.89l-.17-.42c-3.48-6.59-5.05-13.27-4.7-19.85l1.92.09c-.18,6.25.72,12.92,2.95,20.18Z"/>
          </g>
        </g>
        <g>
          <g id="cvb_0_Layer2_0_FILL" data-name="cvb 0 Layer2 0 FILL">
            <path class="cls-21" d="M92.6,147.9h.25c28.51-.76,49.93-1.37,64.26-1.74,14.25-.38,22.59-.61,25-.52h.08c9.75-.64,17.01-1.2,21.59-1.69,7.42-.81,12.76-1.38,16.17-1.87,5.42-.74,10.09-1.47,13.84-2.38h.08c6.42-1.82,12.18-4.47,17.27-7.87,5.18-3.49,9.36-7.64,12.53-12.38,5.94-8.82,8.38-18.65,7.41-29.48-.49-5.5-1.72-10.59-3.54-15.18-1.99-4.76-4.73-9.18-8.22-13.11-3.82-4.26-8.56-7.86-14.31-10.79-5.58-2.85-11.49-4.86-17.74-5.88-20.41-3.31-42.74-4.95-67-4.93-22.92.02-45.09,1.96-66.44,5.82-10.17,1.89-18.27,7.79-24.3,17.85-5.44,9.15-8.3,19.81-8.5,32.15-.2,12.33,2.27,23.18,7.41,32.61h0c5.72,10.43,13.71,16.96,24.03,19.48h.08M62.99,95.9c.2-11.92,2.89-22.33,8.17-31.15,5.69-9.49,13.38-15.13,22.97-16.94,21.26-3.86,43.27-5.8,66.11-5.82,22-.02,44.25,1.79,66.66,5.35,11.91,2.03,21.57,7.23,29.05,15.58,6.56,7.35,10.29,16.45,11.26,27.2.89,10.42-1.47,19.83-7.08,28.23-3.1,4.66-6.86,8.57-11.2,11.64-4.43,3.24-9.68,5.64-15.69,7.38h.08c-8.34,1.89-18.26,3.45-29.77,4.67-4.59.49-11.75,1.05-21.51,1.69-2.5,0-10.92.14-25.09.52-14.25.38-35.67.9-64.18,1.74-9.66-2.44-17.23-8.63-22.62-18.48-4.98-9.1-7.37-19.61-7.17-31.61Z"/>
            <path class="cls-19" d="M92.77,146.07c-9.66-2.44-17.23-8.63-22.62-18.48-4.98-9.1-7.36-19.69-7.17-31.61.2-11.92,2.98-22.33,8.17-31.15,5.69-9.49,13.38-15.13,22.97-16.94,21.26-3.86,43.27-5.8,66.11-5.82,22-.02,44.25,1.79,66.66,5.35,11.91,2.03,21.57,7.23,29.05,15.58,6.56,7.35,10.29,16.36,11.26,27.2.89,10.42-1.47,19.83-7.08,28.23-3.1,4.66-6.86,8.57-11.2,11.64-4.51,3.16-9.68,5.64-15.69,7.38h.08c-8.34,1.89-18.26,3.54-29.77,4.67-4.59.49-11.75,1.05-21.51,1.69-2.5,0-10.84.14-25.09.52-14.25.3-35.67.9-64.18,1.74Z"/>
          </g>
          <g>
            <g id="cvb_0_Layer1_0_FILL" data-name="cvb 0 Layer1 0 FILL">
              <g class="cls-2">
                <path class="cls-12" d="M171.7,159.48c-5.03-.76-8.83-5.13-11.26-13-2.35-7.86-2.83-16.95-1.25-27.33,1.59-10.47,4.68-19.18,9.33-25.98,4.72-6.7,9.56-9.68,14.59-8.92,5.11.77,8.84,5.05,11.29,12.84,2.5,7.97,2.97,17.14,1.38,27.61-1.57,10.38-4.72,18.92-9.46,25.71-4.65,6.8-9.5,9.86-14.61,9.08Z"/>
              </g>
            </g>
            <g id="cvb_0_Layer1_1_FILL" data-name="cvb 0 Layer1 1 FILL">
              <g class="cls-22">
                <path class="cls-10" d="M194.26,57.38c1.74,10.36,1.42,19.45-.97,27.38-2.29,7.99-5.95,12.33-11.05,13.19-5.01.84-9.99-2.12-14.76-8.84-4.68-6.73-7.97-15.22-9.72-25.58-1.76-10.44-1.53-19.6.76-27.6,2.4-7.84,6.06-12.18,11.08-13.02,5.1-.86,9.98,2.04,14.73,8.68,4.86,6.79,8.16,15.36,9.92,25.8Z"/>
              </g>
            </g>
          </g>
        </g>
        <g>
          <g id="vnn_copy_0_Layer3_0_FILL" data-name="vnn copy 0 Layer3 0 FILL">
            <path class="cls-36" d="M148.67,15.45c-4.26,2.99-6.1,6.4-5.61,10.32.57,4.09,3.14,8.68,7.63,13.61l.66.75.25.33,1.08,1.34s.08.17.25.42c7.08,2.1,14.66,3.71,22.91,4.81v-1.08s1.25,0,1.25,0v-3s5.84.02,5.84.02c1.84-2.58,2.6-5.99,2.36-10.25h0c-.97-10.25-4.87-16.85-11.78-19.78-7.66-2.6-16-1.71-24.84,2.52Z"/>
            <path class="cls-21" d="M147.59,13.86c-5.01,3.49-7.19,7.57-6.45,12.15.57,4.34,3.48,8.84,8.8,13.61,2.16,2.09,3.16,3.01,3.08,2.59-.17-.25-.25-.42-.25-.42l-1.08-1.34c-.17-.25-.42-.5-.66-.75l.42.42-.66-.75c-4.49-5.01-7.06-9.52-7.63-13.61-.49-3.92,1.35-7.33,5.61-10.32,8.93-4.31,17.18-5.12,24.84-2.52,6.83,2.94,10.81,9.53,11.78,19.78h0c.32,4.25-.52,7.67-2.36,10.25h1.75c.25-.24.42-.41.59-.66,1.84-2.33,2.6-5.58,2.28-9.75-.57-5.67-1.89-10.42-4.05-14.1-2.24-3.84-5.23-6.51-8.9-8.11h0c-7.74-2.69-16.75-1.55-26.93,3.43l-.17.08h0Z"/>
          </g>
          <g id="vnn_copy_0_Layer2_0_FILL" data-name="vnn copy 0 Layer2 0 FILL">
            <g class="cls-24">
              <path class="cls-9" d="M147.05,30.78c-.02,8.58,1.96,15.92,5.94,21.94,4.15,5.93,9.06,8.94,14.81,8.96s10.76-2.97,14.78-8.88c4.18-6.07,6.29-13.32,6.31-21.9s-2.04-15.76-6.19-21.77C178.63,3.03,173.72.02,167.97,0s-10.76,2.97-14.86,9.04c-4.02,5.99-6.04,13.24-6.06,21.74Z"/>
            </g>
          </g>
          <g id="vnn_copy_0_Layer0_0_FILL" data-name="vnn copy 0 Layer0 0 FILL">
            <path class="cls-20" d="M161.65,24.49c.17-.42.67-.5,1.5-.33l.08.17c.75.17,1.5,1.17,2.24,3.09.75,1.84.66,3.59-.1,5.08,1.99,2.09,3.83,3.26,5.49,3.52,1.5.17,2.75-.41,3.59-1.74.92-1.33.93-3.5.02-6.58-.82-3.17-3.57-5.09-8.24-5.86,2.17-.99,4.42-.74,6.67.77,2.25,1.51,3.49,3.59,3.65,6.26.16,2.67-.26,4.83-1.35,6.5-1.09,1.75-2.59,2.49-4.51,2.24-1.92-.17-3.91-1.51-5.99-3.93h0l-.08-.17c-1.34,1.5-2.84,2.16-4.42,1.91-1.25-.17-2.5-.84-3.75-2.01-2.16-1.84-3.49-5.51-3.97-11.01,1.15,4.67,2.65,7.92,4.47,9.6,1.08,1,2.16,1.59,3.16,1.76,1.42.25,2.58-.08,3.5-1.16-1.33-2.75-2.07-4.84-2.23-6.26h0c-.08-.83,0-1.5.25-1.83M162.56,26.24c.16,1.25.66,3,1.65,5.26.42-.75.42-1.83-.07-3.17-.58-1.33-1.08-2.09-1.58-2.42q-.08-.08-.08-.17c-.08.08,0,.25.08.5Z"/>
          </g>
        </g>
        <g>
          <g id="Symbol_15_0_Layer2_0_FILL" data-name="Symbol 15 0 Layer2 0 FILL">
            <path class="cls-20" d="M179.34,94.08c1.34-2.91,1.68-6.08,1.03-9.33-.66-3.17-2.07-5.92-4.31-8.26-1.58-1.59-2.66-2.34-3.33-2.26-.5.33-.67,1.5-.59,3.5.23,7.08.05,12.42-.54,16.08l-1.37-16.01c-.16-3.25.51-5.08,1.85-5.41,1.25-.58,3,.34,5.33,2.76,2.58,2.67,4.07,5.68,4.48,9.1.41,3.5-.43,6.75-2.53,9.83Z"/>
            <path class="cls-36" d="M171.76,93.73l-.17.5v-.42c.59-3.67.78-9,.54-16.08-.08-2.08.09-3.25.59-3.5.67-.08,1.75.67,3.33,2.26,2.24,2.34,3.74,5.09,4.31,8.26.66,3.25.32,6.42-1.03,9.33l-.25.25-7.33-.6Z"/>
          </g>
          <g class="cls-37">
            <g id="Symbol_15_0_Layer1_0_FILL" data-name="Symbol 15 0 Layer1 0 FILL">
              <g class="cls-27">
                <path class="cls-11" d="M164,90.63c-1.35-4.08-1.57-8.81-.71-14.19.9-5.46,2.65-9.97,5.23-13.52,2.63-3.51,5.4-5.06,8.21-4.66,2.86.4,4.96,2.62,6.35,6.7,1.39,4.12,1.66,8.9.76,14.36-.9,5.42-2.65,9.84-5.28,13.35-2.63,3.55-5.35,5.15-8.21,4.75-2.86-.4-4.96-2.66-6.35-6.78Z"/>
              </g>
            </g>
          </g>
        </g>
        <g>
          <g id="vnn_copy_0_Layer3_0_FILL-2" data-name="vnn copy 0 Layer3 0 FILL">
            <path class="cls-36" d="M148.67,170.39c-4.24-3.01-6.07-6.43-5.56-10.35.59-4.08,3.19-8.66,7.7-13.56l.67-.75.25-.33,1.09-1.33s.08-.17.25-.42c7.09-2.06,14.68-3.63,22.93-4.69v1.08s1.25,0,1.25,0v3s5.83.02,5.83.02c1.83,2.59,2.57,6.01,2.31,10.26h0c-1.03,10.25-4.96,16.82-11.89,19.72-7.67,2.56-15.92,1.62-24.83-2.65Z"/>
            <path class="cls-21" d="M147.59,171.97c-4.99-3.51-7.15-7.6-6.38-12.19.6-4.33,3.52-8.83,8.87-13.56,2.17-2.08,3.18-2.99,3.09-2.58-.17.25-.25.42-.25.42l-1.09,1.33c-.17.25-.42.5-.67.75l.42-.42-.67.75c-4.51,4.99-7.11,9.48-7.7,13.56-.51,3.92,1.31,7.34,5.56,10.35,8.91,4.36,17.15,5.21,24.83,2.65,6.84-2.9,10.86-9.47,11.89-19.72h0c.34-4.25-.48-7.67-2.31-10.26h1.75c.25.26.42.42.58.67,1.83,2.34,2.57,5.59,2.22,9.76-.6,5.67-1.94,10.41-4.12,14.07-2.26,3.83-5.27,6.49-8.94,8.06h0c-7.76,2.65-16.76,1.46-26.91-3.57l-.17-.08h0Z"/>
          </g>
          <g id="vnn_copy_0_Layer2_0_FILL-2" data-name="vnn copy 0 Layer2 0 FILL">
            <g class="cls-30">
              <path class="cls-34" d="M147.22,155.05c.02-8.58,2.04-15.91,6.06-21.9,4.18-5.91,9.11-8.89,14.86-8.88,5.83.02,10.74,3.03,14.73,8.96,4.15,6.1,6.21,13.35,6.19,21.94-.02,8.5-2.13,15.75-6.31,21.74-4.1,6.07-9.03,9.06-14.78,9.04s-10.74-3.03-14.81-9.12c-3.98-6.01-5.97-13.27-5.94-21.77Z"/>
            </g>
          </g>
          <g id="vnn_copy_0_Layer0_0_FILL-2" data-name="vnn copy 0 Layer0 0 FILL">
            <path class="cls-20" d="M161.7,161.42c.25.42.67.5,1.5.34l.08-.17c.75-.16,1.5-1.25,2.26-3.08.76-1.83.68-3.58-.07-5.08,2.01-2.08,3.84-3.24,5.51-3.49,1.5-.16,2.75.42,3.58,1.76.91,1.34.91,3.5-.02,6.58-.84,3.16-3.6,5.07-8.27,5.81,2.16,1.01,4.42.76,6.67-.73,2.25-1.49,3.51-3.57,3.68-6.24.17-2.67-.24-4.83-1.32-6.5-1.08-1.75-2.58-2.51-4.49-2.26-1.92.16-3.92,1.49-6.01,3.9h0l-.08.17c-1.33-1.5-2.83-2.17-4.41-1.93-1.25.16-2.5.83-3.76,1.99-2.17,1.83-3.52,5.49-4.03,10.99,1.18-4.66,2.69-7.91,4.53-9.57,1.09-1,2.17-1.58,3.17-1.74,1.42-.25,2.58.09,3.5,1.18-1.34,2.75-2.1,4.83-2.27,6.24h0c-.09.83,0,1.5.25,1.83M162.62,159.67c.17-1.25.67-3,1.68-5.25.41.75.41,1.83-.09,3.17-.59,1.33-1.09,2.08-1.59,2.41q-.08.08-.08.17c0-.08,0-.25.08-.5Z"/>
          </g>
        </g>
        <g>
          <g id="cvvxgbb_0_Layer6_0_FILL" data-name="cvvxgbb 0 Layer6 0 FILL">
            <path class="cls-38" d="M68.26,133.54c-4.48-8.43-7.96-16.94-10.27-25.53-3.05-11.26-4.02-21.93-3-32.18,3.05-18.16,12.33-29.55,27.85-34.26,28.43-2.67,48.18-3.95,59.27-3.92,3.41,2.09,4.66,3.18,3.74,3.43,9.67-2.31,17.93-2.95,24.93-2.02,2.67.34,4.58.93,5.91,1.6,1.25.75,1.5,1.34.74,1.92-2.92,1.41-7.67,1.9-14.42,1.46-1.75-.09-4.33-.26-7.67-.6-2.75-.17-4.83-.18-6.25-.02-2.33.24-9.76,1.97-22.18,5.19-14.68,3.79-24.77,6.27-30.19,7.42,1.41,2.92,2.89,8.26,4.54,16.1,1.48,8.01,2.38,12.67,2.71,14.01.91,4.09,2.33,2.92,4.26-3.57l3.87-13.57c1.15,4.5,1.56,8.92,1.3,13.34-.26,4.75-1.36,9.66-3.29,14.66-1.84,3.75-3.76,4.49-5.67,2.15-1.99-2.42-3.73-7.76-5.04-16.1-1.07-6.34-3.73-7.01-8-2.02-4.26,4.99-9.12,14.31-14.49,27.96,1.93-4.66,5.03-9.32,9.29-14.06,4.35-4.74,7.19-6.65,8.6-5.56.75.59.91,2.5.48,5.75-.43,3.42-1.44,7.41-2.95,12.16-3.87,11.91-9.31,22.81-16.34,32.88,11.6-7.05,21.78-11.36,30.71-12.84,3.34-.57,6.09-.65,8.17-.23,1.92.34,2.83.92,2.91,1.76.08.75-.42,1.5-1.51,2.33-1.09.91-2.59,1.74-4.59,2.57,6.75-1.48,13.51-1.63,20.17-.28,7.66,1.52,13.07,4.54,16.39,9.21,17.92-.95,27.75-.43,29.42,1.5-.42,2.42-3.34,3.66-8.59,3.64-4.08.07-12-.7-23.66-2.06.82,3.25-2.43,4.33-9.76,3.06-8.59,2.31-16.6,3.79-24.18,4.44-24.34,2.1-38.66-4.44-43.2-19.7Z"/>
          </g>
          <g id="cvvxgbb_0_Layer6_0_1_STROKES" data-name="cvvxgbb 0 Layer6 0 1 STROKES">
            <path d="M178.92,143.72l-.39-.45c-1.35-1.56-5.97-3.19-29.75-1.96-3.53-4.62-9.02-7.62-16.76-9.15-4.65-.94-9.44-1.18-14.3-.72.63-.61,1.36-1.59,1.22-2.81-.21-2.2-3.02-2.69-3.94-2.85-2.21-.45-5.11-.37-8.6.23-7.81,1.29-16.5,4.66-26.45,10.25,5.67-8.92,10.2-18.55,13.48-28.67,1.63-5.12,2.59-9.06,3-12.39.51-3.9.23-5.97-.95-6.89-2.62-2.01-6.67,1.75-10.29,5.7-.38.42-.74.84-1.1,1.25,2.92-6.03,5.66-10.55,8.18-13.5,2.52-2.95,3.66-2.91,3.95-2.83.28.08,1.25.61,1.86,4.25,1.32,8.39,3.11,14.01,5.31,16.69,1.08,1.32,2.25,1.91,3.5,1.77,1.58-.18,2.97-1.54,4.27-4.17l.04-.1c1.97-5.09,3.1-10.15,3.37-15.04.28-4.65-.16-9.14-1.34-13.72l-2.41-.03-3.87,13.57c-.73,2.46-1.28,3.75-1.64,4.43-.06-.21-.13-.46-.2-.78-.33-1.33-1.24-6.02-2.7-13.97-1.45-6.92-2.77-11.84-4.02-14.97,5.81-1.29,15.46-3.67,28.75-7.11,15.31-3.96,20.41-4.99,22-5.16,1.35-.16,3.38-.15,6.04.02,3.42.35,6.07.52,7.68.6,6.97.45,11.89-.07,15.03-1.58l.22-.14c.8-.62.93-1.29.91-1.76-.06-1.06-.98-1.74-1.77-2.22l-.08-.05c-1.62-.81-3.74-1.39-6.32-1.72-7.25-.97-15.55-.3-25.37,2.04l.58,2.43c9.39-2.24,17.62-2.91,24.47-1.99,2.27.29,4.11.78,5.47,1.46.01,0,.03.02.04.03-2.78,1.05-7.15,1.39-13.03,1.01-1.6-.08-4.21-.25-7.62-.6-2.9-.18-5.02-.19-6.52-.01-2.42.25-9.94,2.01-22.35,5.22-14.46,3.74-24.6,6.23-30.14,7.41l-1.56.33.69,1.43c1.34,2.77,2.79,7.95,4.44,15.81,1.49,8.08,2.39,12.69,2.72,14.05.21.96.72,3.27,2.44,3.33,1.6.06,2.71-1.73,4.23-6.84l2.44-8.57c.35,2.61.44,5.23.28,7.91-.26,4.62-1.33,9.4-3.19,14.23-1.21,2.43-2.05,2.71-2.28,2.74-.45.05-.99-.52-1.28-.87-1.32-1.6-3.22-5.59-4.77-15.5-.62-3.71-1.82-5.75-3.66-6.26-1.87-.52-4,.67-6.52,3.62-4.39,5.13-9.33,14.66-14.71,28.32l2.32.94c1.87-4.52,4.84-9,9.06-13.7,5.61-6.11,6.9-5.41,6.91-5.41,0,0,.23.29.23,1.75,0,.68-.06,1.6-.22,2.84-.4,3.19-1.32,6.98-2.9,11.94-3.77,11.63-9.22,22.58-16.17,32.54l1.67,1.78c11.66-7.09,21.56-11.23,30.26-12.67,3.19-.55,5.78-.63,7.72-.24,1.67.3,1.92.68,1.93.68,0,.18-.25.58-1.03,1.19-1,.84-2.4,1.62-4.31,2.41l.75,2.38c6.7-1.47,13.31-1.56,19.65-.28,7.39,1.47,12.5,4.32,15.62,8.71l.4.56.69-.04c20.46-1.09,26.23,0,27.85.71-1.07,1.68-4.8,1.94-7.09,1.93-3.68.06-10.49-.53-23.52-2.06l-.29,2.48c13.15,1.54,20.06,2.14,23.83,2.07,5.95.02,9.26-1.56,9.8-4.68l.1-.58Z"/>
          </g>
        </g>
        <g id="cvvxgbb_0_Layer6_0_MEMBER_0_FILL" data-name="cvvxgbb 0 Layer6 0 MEMBER 0 FILL">
          <path d="M97.68,55.94l-1.75.91c-.5-.92-1.41-1.25-2.66-.92h0c-1.67.5-3.59,1.91-5.85,4.15-5.18,5.24-10.79,13.06-16.9,23.37,4.95-11.07,10.14-19.31,15.49-24.79,2.51-2.58,4.76-4.15,6.68-4.65h0c2.42-.58,4.08.01,5,1.93Z"/>
        </g>
        <g id="cvvxgbb_0_Layer6_0_MEMBER_1_FILL" data-name="cvvxgbb 0 Layer6 0 MEMBER 1 FILL">
          <path d="M104.01,150.64l1.34-.66c14.77-8.04,28.03-9.09,39.76-3.06l-.84,1.75c-11.15-5.7-24.57-4.98-40.26,1.98Z"/>
        </g>
        <g id="cvvxgbb_0_Layer6_0_MEMBER_2_FILL" data-name="cvvxgbb 0 Layer6 0 MEMBER 2 FILL">
          <path d="M94.38,138.03l.33-.17,16.77-5.04.41,1.92-17.51,3.29Z"/>
        </g>
        <g id="cvvxgbb_0_Layer5_0_FILL" data-name="cvvxgbb 0 Layer5 0 FILL">
          <path d="M141.4,23.22l.08-.17c-4.38,16.66-17.73,24.54-40.23,23.56,21.5-.19,34.94-7.99,40.15-23.4Z"/>
        </g>
        <g id="cvvxgbb_0_Layer4_0_FILL" data-name="cvvxgbb 0 Layer4 0 FILL">
          <path d="M66.68,134.95c-9.24-2.61-16.23-8.96-20.87-19.14,3.8,11.26,10.54,17.7,20.37,19.22l.5-.08M54.73,82.25v.08c9.31-20.39,8.76-35.81-1.63-46.18l-.83-.42c9.3,11.19,9.51,26.45.71,45.84h0c-7.89,21.31-5.85,37.24,6.29,47.94l.33-.33c-10.81-10.86-12.43-26.45-4.87-46.94Z"/>
        </g>
        <g>
          <g id="cvvxgbb_0_Layer3_0_FILL" data-name="cvvxgbb 0 Layer3 0 FILL">
            <path class="cls-38" d="M113.52,131.75c-3.91-1.43-7.74-4.02-11.31-7.78-5.32-5.68-6.22-10.35-2.55-13.93,2.17-2.49,5.18-4.24,8.93-5.14-3.28,10.74-1.64,19.75,4.93,26.85Z"/>
          </g>
          <g id="cvvxgbb_0_Layer3_0_1_STROKES" data-name="cvvxgbb 0 Layer3 0 1 STROKES">
            <path d="M113.1,132.92c-4.16-1.52-8.13-4.24-11.8-8.1-7.3-7.8-5.43-12.81-2.54-15.64,2.36-2.69,5.57-4.54,9.55-5.5l2.13-.51-.64,2.09c-3.14,10.28-1.57,18.9,4.65,25.64l-1.35,2.02ZM106.79,106.74c-2.52.91-4.59,2.29-6.18,4.12l-.07.08c-1.14,1.11-4.61,4.48,2.58,12.17,1.99,2.09,4.07,3.82,6.21,5.18-2.43-3.98-3.64-8.42-3.62-13.3,0-2.62.37-5.37,1.08-8.24Z"/>
          </g>
        </g>
        <g>
          <g id="cvvxgbb_0_Layer2_0_FILL" data-name="cvvxgbb 0 Layer2 0 FILL">
            <path class="cls-38" d="M108.66,80.73c-3.75-.93-6.74-2.69-8.9-5.19-3.66-3.59-3.23-7.68,1.2-12.16,4.43-4.49,8.86-7.73,13.19-9.55-6.85,7.07-8.71,15.98-5.49,26.91Z"/>
          </g>
          <g id="cvvxgbb_0_Layer2_0_1_STROKES" data-name="cvvxgbb 0 Layer2 0 1 STROKES">
            <path d="M109.86,80.37l.62,2.09-2.12-.52c-3.98-.98-7.18-2.85-9.52-5.55-4.11-4.16-3.73-8.85,1.14-13.98,4.58-4.64,9.02-7.85,13.59-9.82l1.4,2.01c-6.45,6.81-8.17,15.48-5.12,25.77ZM100.64,74.65l.06.07c1.58,1.83,3.65,3.23,6.16,4.15-1.93-8.04-1.05-15.14,2.62-21.22-2.55,1.69-5.11,3.85-7.71,6.49-2.39,2.52-3.24,4.54-3.24,6.2,0,1.82,1.01,3.2,2.11,4.31Z"/>
          </g>
        </g>
      </g>
      <g>
        <g id="Layer_4" data-name="Layer 4">
          <g>
            <path class="cls-13" d="M130.33,124.99c1.56,2.57,4.02,4.68,7.37,6.43,2.79,1.48,6.69,2.44,11.66,2.93,5.2.49,8.74-.07,10.75-1.63l.11-.06c3.4-2.53,2.33-6.29,1.18-8.02-1.56-2.23-3.1-7.23-3.14-9.93-.03-2.25.97-6.56,2.36-8.32,1-1.26,2.64-4.33-1.78-6.18l-.17-.05c-4.02-.84-8.02-.89-11.9-.1-2.81.55-5.45,1.44-7.97,2.6-3.53,1.58-6.09,3.59-7.8,6.09-1.77,2.45-2.69,5.17-2.76,8.05-.12,2.99.59,5.69,2.1,8.2M139.26,129.54c-2.78-1.42-4.9-3.31-6.4-5.71-1.27-2.18-1.87-4.54-1.8-7.08v-.06c.07-2.48.88-4.86,2.37-7.03,1.6-2.28,3.83-4.12,6.74-5.46,2.46-1.11,4.99-1.88,7.58-2.43,2.08-.43,3.88-.62,5.35-.7,1.69-.03,3.39.12,5.08.43,1.19.66.95,3.26.18,4.4-1.32,1.94-1.9,4.77-1.84,8.88.05,3.38,1.19,7.76,2.58,10.05.98,1.56,1.26,5.28-.01,6.6-.89.63-2.02.99-3.31,1.18-1.35.19-3.15.22-5.41-.03-4.4-.44-8.08-1.4-11.1-3.05Z"/>
            <path class="cls-35" d="M131.06,116.81h0c.07-2.54.89-4.92,2.37-7.08,1.6-2.28,3.83-4.12,6.74-5.46,2.41-1.11,4.93-1.94,7.58-2.43,2.08-.43,3.88-.62,5.35-.7,1.69-.03,3.39.12,5.08.43,1.19.6.95,3.26.18,4.4-1.32,1.94-1.82,6.51-1.84,8.88-.01,2.93,1.07,7.48,2.58,10.05.93,1.57,1.21,5.28-.01,6.6-.89.63-2.02.99-3.31,1.18-1.35.25-3.15.22-5.41-.03-4.41-.44-8.14-1.46-11.1-2.99-2.73-1.43-4.9-3.31-6.4-5.71-1.27-2.24-1.87-4.6-1.8-7.13Z"/>
          </g>
          <g class="cls-31">
            <g>
              <path d="M133.69,114.48c1.9,1.43,4.21,2.18,6.97,2.26,2.76.14,5.14-.46,7.12-1.68,1.99-1.28,3.02-2.9,3.09-4.82.07-1.92-.87-3.56-2.77-4.99-1.9-1.43-4.21-2.18-7.03-2.32-2.76-.08-5.14.46-7.12,1.74-1.99,1.28-3.07,2.85-3.09,4.76.04,1.92.93,3.62,2.83,5.04Z"/>
              <path class="cls-35" d="M144.93,111.82c0-.68-.27-1.3-.94-1.81-.67-.51-1.57-.75-2.53-.76-1.01-.07-1.86.15-2.6.6-.74.44-1.08,1.06-1.14,1.74,0,.68.33,1.3,1,1.81.67.51,1.51.8,2.53.81,1.01,0,1.92-.21,2.6-.65.74-.44,1.08-1.06,1.09-1.74Z"/>
              <path class="cls-35" d="M138.7,108.6c.45-.28.68-.61.69-1.06,0-.39-.22-.79-.61-1.13-.39-.29-.9-.46-1.52-.46-.62,0-1.13.1-1.53.38-.45.28-.68.61-.69,1.06,0,.39.16.79.61,1.13.39.29.9.46,1.52.46.62-.05,1.13-.16,1.53-.38Z"/>
            </g>
          </g>
        </g>
        <g id="Layer_4-2" data-name="Layer 4">
          <g>
            <path class="cls-13" d="M129.88,61.17c-1.43,2.56-2.06,5.33-1.79,8.26.16,2.87,1.15,5.51,3,7.96,1.79,2.45,4.41,4.44,7.98,5.91,2.55,1.09,5.22,1.9,8.04,2.36,3.9.67,7.9.5,11.89-.46l.17-.06c4.31-1.98,2.63-5,1.6-6.23-1.44-1.73-2.57-6-2.61-8.25-.04-2.71,1.35-7.75,2.84-10.02,1.1-1.76,2.06-5.56-1.42-7.99l-.11-.05c-2.05-1.49-5.61-1.95-10.79-1.3-4.95.64-8.83,1.71-11.57,3.27-3.36,1.8-5.75,4.03-7.23,6.59M149.67,52.86c2.25-.32,4.05-.4,5.41-.19,1.3.15,2.43.47,3.34,1.08,1.26,1.28,1.09,5,.21,6.59-1.32,2.39-2.32,6.8-2.27,10.13.12,4.11.72,6.92,2.11,8.82.81,1.12,1.13,3.76-.05,4.4-1.69.42-3.37.61-5.07.64-1.47-.03-3.27-.18-5.36-.54-2.66-.41-5.21-1.16-7.65-2.2-2.95-1.25-5.23-3.02-6.9-5.25-1.55-2.18-2.44-4.47-2.59-7.01h0c-.15-2.48.38-4.86,1.58-7.13,1.43-2.45,3.54-4.39,6.23-5.9,2.91-1.62,6.61-2.75,11-3.44Z"/>
            <path class="cls-35" d="M132.49,62.2c1.43-2.45,3.49-4.39,6.23-5.9,2.91-1.62,6.61-2.75,11-3.32,2.25-.32,4.05-.34,5.41-.19,1.3.15,2.43.47,3.34,1.08,1.32,1.28,1.15,5,.21,6.59-1.43,2.62-2.37,7.2-2.27,10.13.09,2.37.72,6.93,2.11,8.82.81,1.12,1.07,3.71-.05,4.4-1.69.36-3.37.61-5.07.64-1.47-.03-3.27-.18-5.37-.54-2.6-.47-5.15-1.16-7.65-2.2-2.95-1.25-5.23-3.02-6.9-5.25-1.55-2.12-2.44-4.47-2.59-7.01h0c-.21-2.59.32-4.97,1.58-7.24Z"/>
          </g>
          <g class="cls-32">
            <g>
              <path d="M129.87,61.76c.03-1.92,1.02-3.51,2.97-4.89,1.95-1.33,4.37-1.93,7.08-1.91,2.76.07,5.14.77,7.08,2.09,1.94,1.38,2.87,3.06,2.89,4.98-.03,1.92-1.02,3.57-2.97,4.89-1.95,1.33-4.37,1.93-7.08,1.85-2.76-.02-5.09-.71-7.02-2.09-1.99-1.32-2.98-3-2.95-4.92Z"/>
              <path class="cls-35" d="M142.96,65.57c-.73.46-1.62.7-2.58.71-1.02-.04-1.86-.25-2.55-.75-.68-.5-1.03-1.11-1.04-1.79-.01-.68.38-1.3,1.1-1.76.73-.46,1.57-.7,2.58-.66,1.01-.02,1.86.25,2.55.75.68.5.98,1.11.99,1.79-.05.62-.38,1.25-1.05,1.71Z"/>
              <path class="cls-35" d="M136.12,61.1c-.62,0-1.13-.15-1.53-.43-.4-.33-.63-.67-.64-1.06,0-.39.21-.79.66-1.08.39-.29.9-.41,1.52-.42.62,0,1.13.15,1.53.48.4.33.63.67.64,1.12,0,.39-.21.74-.66,1.08-.39.18-.9.3-1.52.3Z"/>
            </g>
          </g>
        </g>
        <g>
          <g>
            <path class="cls-13" d="M206.77,129.95c-2.77-.83-5.36-1.61-7.89-3.14-4.94-3.02-8.52-8.27-8.27-14.16.06-1.65.42-3.3,1.01-4.89,0-.06,3.56-8.18,9.46-13.47,2.13-1.88,9.8-8.34,11.63-8.22.18,0,.18.53.12.71-.36.77-4.02,5.53-4.85,7.71-1.42,3.83-2.14,7.95-2.09,12.02.05,4.01.69,8.19,1.74,12.08.53,1.95,1.11,3.83,1.87,5.72.82,1.89,3.34,5.49,3.05,5.72-1.3,1.23-4.18.4-5.77-.07Z"/>
            <path class="cls-35" d="M195.82,102.52c-1.36,2.18-2.43,4.53-3.02,7.06-.95,3.77.1,7.31,2.21,10.26.24-.82.59-1.59.83-2.41.65-2,1.07-4.12,1.43-6.18.3-1.83.54-3.65.72-5.48.24-2.12.66-4.3.31-6.36-.89,1-1.71,2.06-2.48,3.12Z"/>
            <path class="cls-4" d="M206.5,119.28c-1.05-4.01-1.57-8.25-1.73-12.38-.17-3.65.49-7.66,1.74-11.13.59-1.71,1.31-3.41,2.13-5,.59-1.12,1.54-1.88,2.36-2.82-.12.06-.24.12-.35.18-.71.53-1.48,1-2.18,1.47-.59.47-1.18.94-1.77,1.41-1.77,1.59-3.43,3.29-5.08,4.94-.95.94-1.83,1.88-2.72,2.82,2,2.72.69,7.43.27,10.49-.54,3.59-1.2,8.48-3.21,11.72.59.71,1.29,1.42,2,2.01,3.47,2.43,7.95,3.5,12.07,4.63-.47-.59-.88-1.18-1.23-1.83-1.11-2.07-1.7-4.31-2.28-6.49Z"/>
            <path class="cls-13" d="M213.12,111.87c-.7-1.36-.17-3.24.07-4.66.3-1.88,1.25-3.24,2.37-4.71.12-.18.59-.29.53.06-.3,1.53-.54,3.06-.42,4.6.11,1.47.29,2.83-.37,4.18-.36.71-1.65,1.59-2.18.52Z"/>
          </g>
          <path class="cls-35" d="M195.82,102.52c-1.36,2.18-2.43,4.53-3.02,7.06-.95,3.77.51,9.08,3.09,11.38,1.12-1.12,1.48-2.12,1.72-2.94.71-2.24,1.19-4.53,1.55-6.83.24-1.53.42-3.12.6-4.71.24-2.18.96-5.65-.92-7.78-.89,1.06-2.25,2.76-3.02,3.82Z"/>
          <g>
            <path class="cls-35" d="M195.89,120.96c1.12-1.12,1.48-2.12,1.72-2.94.71-2.24,1.19-4.53,1.55-6.83.24-1.53.42-3.12.6-4.71.24-2.18.96-5.65-.92-7.78"/>
            <path class="cls-33" d="M195.89,120.96c.77-.59,1.42-1.41,1.83-2.35.42-.94.71-1.83,1.01-2.77.54-1.88.95-3.77,1.19-5.71l.36-2.89c.06-.47.06-.94.12-1.41.06-.47.06-.94.12-1.47.06-1,0-2-.17-3.01-.23-1-.7-1.95-1.41-2.6.53.83.76,1.77.82,2.65.06.94,0,1.89-.13,2.83l-.42,2.89-.42,2.83c-.12.94-.24,1.89-.42,2.83-.18.94-.36,1.88-.54,2.83-.18.94-.42,1.88-.66,2.83-.3.94-.71,1.77-1.3,2.53Z"/>
          </g>
        </g>
      </g>
    </g>
  </g>
</svg>