<?xml version="1.0" encoding="UTF-8"?>
<svg id="BACKGROUND" xmlns="http://www.w3.org/2000/svg" viewBox="0 0 1080 1920">
  <path d="M453.46384,67.45797c49.19497,27.37529,108.79673,21.55447,147.61725-23.13605,17.64484-20.31327,28.68388-45.77271,34.59494-72.0222-1.67995,7.46084-209.6601,3.61902-250.07717,9.00294,8.80797,31.63902,28.95697,59.99317,55.93826,78.71837,3.89358,2.7024,7.87487,5.18257,11.92672,7.43694Z" style="fill: #6f3e4f;"/>
  <path d="M939.65297,657.58884c-15.11046,15.94323-23.49562,39.0491-18.63863,60.47157,5.14639,22.70034,23.657,39.96877,43.2647,52.5116,17.41455,11.14004,36.4331,19.76805,56.28546,25.5341,7.90386,2.29582,18.72501,2.87618,22.01059-4.67,1.93167-4.43671-.11819-9.78846-3.59024-13.15913-3.47205-3.37067-8.09989-5.22009-12.56222-7.09203-12.09799-5.07527-23.88356-10.89512-35.26774-17.41585-3.62386-2.07573-7.67497-5.02819-7.52342-9.20164.18207-5.0119,6.06529-7.466,10.92098-8.72008,9.07155-2.34289,18.14284-4.68552,27.21439-7.0284,5.34191-1.37952,10.95952-2.91265,14.84485-6.82954,3.88533-3.91714,5.1001-11.04538,1.03321-14.77346-3.14799-2.88576-7.94472-2.68118-12.20687-2.41868-11.91359.7332-24.08296.52037-35.47619-3.03756-10.03053-3.13247-20.51522-11.28228-19.1864-21.70619.98252-7.70885,7.98481-13.01068,14.40053-17.39593,6.39943-4.37388,12.7986-8.74775,19.19778-13.12163,6.26391-4.28154,18.01146-14.70881,10.1389-23.16845-5.16941-5.55476-13.5556-.48337-19.39511,1.48477-20.56642,6.93168-40.08386,13.50801-55.46458,29.73651Z" style="fill: #00c396;"/>
  <path d="M369.92606,152.88425c16.50604-1.16218,30.90394-14.67959,34.77635-30.5101,2.35083-9.61089-2.43611-35.57701,17.70984-28.80233,10.41631,3.50277,12.58496,17.18124,11.91987,28.15099-1.18751,19.58517-7.44983,41.41174-24.90823,50.36695-8.88577,4.55785-19.26513,4.96409-29.2518,4.89954-9.98642-.06429-20.21902-.46958-29.68772,2.70484-23.79117,7.97567-18.58832,32.02727-22.43683,51.95964-1.95817,10.14187-7.32914,20.69745-17.04696,24.19791-12.89411,4.64484-26.36952-4.89852-40.0254-6.06251-13.33569-1.13686-26.98164,6.74491-32.6606,18.86457-2.8038,5.98372-3.7467,12.65524-5.91627,18.89667-4.85386,13.96455-16.18109,25.52771-30.04251,30.66827-4.11026,1.52431-8.50152,2.51462-12.86804,2.12724-10.07041-.8928-18.11831-8.74778-27.79466-11.67595-11.46814-3.47042-24.8878.94695-32.05235,10.55083-5.02227,6.73245-7.08683,15.50233-12.95683,21.51041-5.86973,6.00783-18.53684,6.45205-20.64458-1.67871-.49971-1.92834-.27481-3.96635.06312-5.92944,2.5854-15.01849,11.9402-28.73764,24.97631-36.63015,13.03635-7.89225,29.52895-9.82144,44.03462-5.15052,4.32239,1.39198,8.47893,3.33784,12.91975,4.28658,12.13896,2.59284,25.61976-3.3381,31.90993-14.03916,3.57069-6.07455,4.86769-13.17217,7.14607-19.83985,7.36759-21.56329,29.52285-39.84079,51.75557-34.84508,6.84401,1.53801,13.55596,5.13776,20.47408,3.97795,7.90947-1.32577,13.57399-8.64852,16.10725-16.2577,2.53325-7.60917,2.73295-15.77902,4.37441-23.62915,3.92446-18.76772,18.43676-36.5578,37.51238-38.49613,7.50833-.76288,15.08469.91443,22.61324.38439Z" style="fill: #ff965d;"/>
  <path d="M958.33919,380.62667c-15.30737-13.99708-4.93038-30.50127,17.55554-35.0117,11.01654-2.2097,22.67123-1.38727,34.02705-.54829,58.23968,4.30198,116.47936,8.60421,174.71869,12.90619,2.87971-9.68346,3.96827-19.65968,3.22457-29.56116-82.79542.85709-165.82283-8.72448-248.5667-11.4897-3.90208,12.10445-9.75381,23.86157-17.39112,34.94109-5.44835,7.90386-11.96437,15.88194-12.31479,24.75719-.7329,18.56337,24.38471,31.12688,46.40315,39.93851,45.649,18.26828,91.298,36.53681,136.947,54.80508,4.52212,1.80986,9.91161,3.65309,14.57063,2.04547,3.12494-1.07847,5.00631-3.44463,6.69541-5.67476,5.60337-7.39799,11.20638-14.79571,16.80975-22.1937-43.28135-16.8029-87.5053-32.26768-132.51858-46.34053-14.6929-4.59371-30.11138-9.38475-40.16059-18.57371Z" style="fill: #21725f;"/>
  <path d="M1072.17179,549.27523c-19.08605-11.57788-41.66406-21.15737-63.26214-15.51443-30.43299,7.95118-46.4939,42.27468-74.809,55.97278-20.15521,9.7507-45.70147,8.62749-62.17695,23.7889-14.16208,13.0324-17.07472,34.8198-12.80972,53.58722,4.26499,18.76768,14.49053,35.52222,23.44234,52.5597,13.69526,26.06454,24.92375,55.28794,20.32099,84.36935-3.06445,19.36174-12.94809,37.09984-16.35729,56.40391-3.4092,19.30381,2.51669,42.99935,20.81315,50.03551,19.08527,7.33929,38.87634-6.91306,58.35084-13.1462,11.5947-3.71076,24.0933-4.56086,36.0837-2.45436,17.78309,3.12446,34.62091,12.61886,52.64815,11.60763,19.36252-1.08649,36.47888-14.67959,45.88457-31.63896,9.40595-16.95937,12.10963-36.85078,12.30799-56.24277.19837-19.39202-1.93038-38.76411-1.41985-58.15042.5876-22.32042,4.72768-44.54412,12.15954-65.59727,5.99546-16.98472,20.13892-34.95272,18.24862-53.65032-4.04102-39.97291-37.13993-72.34611-69.42493-91.93027Z" style="fill: none; stroke: #ffdf77; stroke-miterlimit: 10; stroke-width: 6px;"/>
  <path d="M1167.05104,170.51527c-.49443,2.99893-1.23072,6.15697-3.38693,8.29943-4.74923,4.71912-13.00683,1.69474-17.89353-2.88217-6.77708-6.34782-11.01752-14.97405-17.49495-21.62762-6.47717-6.65358-17.00471-11.13488-24.99988-6.41261-7.82534,4.62207-9.14237,15.67679-6.68125,24.4255,2.46113,8.74897,7.68851,16.5457,9.95007,25.34811,2.26182,8.80241.38437,19.89541-7.73769,23.97368-6.55555,3.29155-14.74601.66188-20.39375-4.0197-5.64742-4.68134-9.51187-11.1047-14.08793-16.83799-4.94197-6.19162-11.16356-11.85932-18.86089-13.73297-7.69732-1.87391-16.99253,1.14983-20.22376,8.38293-2.66395,5.96312-.71392,12.96964,2.1724,18.82819,3.52942,7.16397,8.39438,13.62745,11.65805,20.91651,3.26369,7.2888,4.78241,15.95842,1.3446,23.16682-3.46543,7.2664-11.73682,11.68555-19.77953,11.33661-8.04285-.3492-15.58144-5.07667-20.13858-11.71318-3.76554-5.48351-5.59965-12.03093-8.48788-18.02321-5.70785-11.84199-15.36253-21.22088-23.36177-31.6526-4.71663-6.15133-8.97634-12.93484-10.40062-20.55417-1.42429-7.61934.48094-16.24275,6.40591-21.24059,15.0566-12.70117,42.35358,5.09832,56.43422-8.67683,13.21227-12.92535-.62072-39.36582,12.6605-52.22004,5.39921-5.22566,14.00972-6.13946,21.08759-3.61706,7.07788,2.52241,12.77223,7.97244,17.18697,14.05251,3.97507,5.47445,8.00191,12.17862,14.70814,13.07307,7.08604.94488,13.28412-5.65358,14.94792-12.6059,1.66406-6.95259.15201-14.20726-.48836-21.32733-.64061-7.11955-.14769-14.98465,4.61622-20.3141,17.35285-19.41268,37.19474,9.49537,44.16077,22.9148,12.15576,23.4165,21.54829,45.66724,17.08394,72.73992Z" style="fill: #fba64a;"/>
  <path d="M1029.06872,23.22274c-2.1797,13.20646-10.51623,26.23757-23.32053,30.13738-15.21779,4.63535-34.55496-3.62981-46.0801,7.3354-4.01335,3.81835-6.0058,9.22052-8.49973,14.16699-14.31389,28.38907-50.41363,43.68393-80.76567,34.21901,6.15451-29.62711,15.44512-59.37138,33.83728-83.40028,26.53033-34.66152,79.58659-62.4961,123.89355-60.78477,2.06306,8.68516-.9145,16.72945-.87571,25.35695.05069,11.24892,3.70559,21.49049,1.8109,32.96933Z" style="fill: #2b2b2b;"/>
  <path d="M748.85014,59.8436c7.59471-5.24668,15.56978-11.18015,18.47441-19.94194,1.27923-3.85822,1.45798-7.97876,2.0608-11.99855,1.5562-10.37717,5.94138-20.08602,10.27976-29.64047,4.05574-8.93207,8.96316-18.69201,18.14301-22.15063-.17343,7.87707-6.66731,13.88914-11.26428,20.28803-5.04611,7.02454-10.6848,19.21043-8.85964,28.17553,1.78121,8.7504,8.48294,15.15392,16.53293,18.58103,6.48287,2.75998,13.85209,3.45852,19.78687,7.2564,13.88901,8.88807,14.82172,31.04573,29.33184,38.87901-11.55912,3.77898-24.27982,5.32147-35.84038,1.54639-11.56053-3.7749-21.59031-13.70762-22.94526-25.7931-.64245-5.73006.61771-11.6207-.63171-17.24969-1.24783-5.62106-5.09088-10.61031-10.20722-13.25145-1.79472,7.37185-4.57673,13.64836-9.17964,19.56633-8.3928,10.79051-11.52644,21.40913-15.61261,34.46682-1.71482,5.48049-3.45008,11.20257-2.54863,16.8738.68711,4.32359,2.86112,8.26237,4.0021,12.489,1.03291,3.82679,1.20342,7.82745,1.29203,11.79024.23784,10.65828-.39183,22.22683-7.19117,30.43812-2.30998,2.78943-5.21056,5.01871-8.08442,7.22277-8.65499,6.63704-17.30998,13.27408-25.96493,19.9113-8.25223-14.35325-13.55071-30.87324-12.16502-47.37153,1.38568-16.49829,10.21606-32.83317,24.7826-40.70305,5.61837-3.03552,12.01875-4.84788,16.77443-9.11007,6.3511-5.69208,8.53654-14.57795,10.40247-22.8999-14.22141,6.31807-29.59564,10.02988-45.1332,10.89652-5.58498.31153-11.21438.2568-16.73506-.64286-26.22158-4.27296-46.13357-27.19485-55.37011-52.10508,12.8191,8.47339,29.86926,4.0017,45.06616,6.27734,12.33019,1.84651,23.87097,8.52866,31.61074,18.30309,4.16773,5.26311,7.37961,11.48158,12.81379,15.42351,9.23764,6.70099,18.53898-.11054,26.37936-5.52693Z" style="fill: #00c396;"/>
  <path d="M-52.82674,359.82626c17.57438-.22268,35.17385,5.28346,52.52686,2.49496,8.82715-1.41856,17.22938-4.94699,26.0917-6.12606,18.70639-2.48875,37.23226,5.72597,53.01333,16.07358,15.78133,10.34761,30.10997,23.05621,47.05123,31.36921,17.95094,8.80827,38.09555,12.30799,56.25262,20.6828,18.15733,8.37455,35.26593,23.93942,36.48121,43.89806.31113,5.10734-.69001,10.72624-4.5319,14.1057-7.55885,6.6485-19.51977.2519-25.86954-7.55937s-12.00255-17.82887-21.87972-19.77141c-7.55833-1.48632-15.13244,2.43393-22.83483,2.53194-27.06517.34397-38.58952-42.88011-65.6565-42.99805-6.65547-.02922-13.14827,2.77505-19.7846,2.27151-14.65786-1.11209-24.03666-17.33671-38.37357-20.58453-15.69495-3.55507-30.70144,9.49647-46.79338,9.34569-6.9697-.06543-13.67095-2.62195-20.5928-3.44127-6.92186-.81958-14.93589.67217-18.71932,6.5259-5.65924,8.75577,2.76807,21.05678,12.96956,23.2044,10.20149,2.14737,20.49427-2.39125,29.9297-6.82513,9.43518-4.43388,19.71529-8.98905,29.92376-6.87427,18.9257,3.92051,30.5129,29.22702,49.71172,26.99948,5.55502-.64449,10.64193-3.69007,16.21531-4.14887,10.40218-.85631,19.28545,7.31341,25.471,15.72055,6.18555,8.40688,11.65315,18.0831,20.94945,22.82888,17.90568,9.14113,43.31616-3.39187,58.12532,10.20459,4.15482,3.81473,6.62625,9.14112,10.55011,13.19327,7.83248,8.08877,19.90874,9.83139,30.4229,13.86,10.51416,4.02861,21.23549,13.62517,18.69501,24.59452-2.94859,12.7311-21.14419,15.02538-32.69364,8.9112-11.54918-6.11417-19.84615-17.22136-31.41344-23.30165-14.54277-7.64471-31.9025-6.2952-48.31747-6.99789-16.41471-.70243-34.77402-4.98837-43.21582-19.08372-6.61694-11.04823-8.84137-28.72037-21.69765-29.46883-5.64606-.32872-10.78857,3.36368-16.4204,3.88119-17.93439,1.64823-25.52272-26.723-43.38548-29.02166-13.35103-1.71805-24.32348,12.25031-37.78287,12.46963-10.82839.17638-22.56534-8.42654-31.48896-2.29013-9.45509,6.50159-2.86273,23.07406,8.13869,26.33584,11.00116,3.26204,22.53482-1.80443,33.09838-6.28538,10.56356-4.48095,22.90621-8.42861,33.13149-3.22221,13.95337,7.10444,18.04327,28.49484,33.37408,31.67749,7.65014,1.58822,16.10255-2.15202,23.1907,1.13537,9.64467,4.47293,9.88027,17.9468,15.39572,27.03569,7.87386,12.97525,25.61945,15.45985,40.75215,14.29604,15.1327-1.16407,31.13128-4.44086,44.92585,1.88875,12.58007,5.77226,21.44963,18.87811,34.9817,21.78662,10.59744,2.27745,26.20653.75207,27.77742,11.47702,1.13925,7.77739-7.8992,13.07559-15.67607,14.21768-12.70809,1.86572-26.07463-1.18813-36.71138-8.388-7.99877-5.41433-14.66666-13.14671-23.80235-16.28229-23.1144-7.93386-50.91458,16.6348-71.22859,3.0492-12.76084-8.53413-15.04787-28.5789-29.06253-34.84462-12.35299-5.52269-28.62002,2.45617-39.52833-5.55062-7.02324-5.15492-9.11216-15.35357-16.47109-20.01684-12.49446-7.91782-29.02374,5.45649-43.29496,1.56701-7.34445-2.0015-12.62739-8.18938-18.63811-12.86016-10.81934-8.4074-27.1125-11.81479-38.04951-3.56102-10.93702,8.25404-8.95155,29.71608,4.52207,32.20716,10.04424,1.8572,19.69175-6.89548,29.79625-5.39933,12.8555,1.90374,21.19411,19.51433,33.91357,16.84946,4.71035-.98692,8.46378-4.73104,13.15344-5.81054,18.5238-4.26448,24.28184,31.5668,43.2828,32.09104,5.12958.14173,10.03933-2.56945,15.16399-2.30539,15.00908.77381,17.31084,22.51646,28.33166,32.73527,8.07946,7.49135,20.48599,7.98325,31.27119,5.72856,10.78495-2.25469,21.09066-6.79461,32.0525-7.90774,24.69409-2.50737,47.40115,12.45049,67.70068,26.73413,5.15337,3.62619,10.97866,9.56423,8.17774,15.20899-1.52977,3.08309-5.16915,4.5094-8.58327,4.94519-17.79292,2.27176-32.47691-14.43597-50.17621-17.38198-24.8234-4.12818-46.71244,16.82411-71.56713,9.14862-23.88976-7.37755-34.15409-39.76523-62.5098-35.94094-9.92165,1.33814-19.60046,7.74972-29.22598,4.9969-13.56258-3.8786-19.01234-23.94252-33.0989-24.684-5.49269-.28914-10.7627,2.69488-16.25617,2.42358-8.99008-.44406-15.23615-9.09043-23.55277-12.533-5.79968-2.40082-12.33618-2.14866-18.4188-3.6986-22.8219-5.8152-31.65241-33.6115-32.45467-57.14952-1.97228-57.86282,22.29456-149.48817,93.24564-150.38767Z" style="fill: none; stroke: #00c396; stroke-miterlimit: 10; stroke-width: 5px;"/>
  <g>
    <path d="M1118.77507,974.33968c-13.29258-13.44543-32.92536-21.71213-51.39459-17.6662-4.68086,1.02519-9.33173,2.8943-12.68972,6.31305-6.0296,6.13822-6.57995,16.1147-3.59464,24.18436,2.98532,8.06962,8.87474,14.67362,14.67235,21.03115,11.10487,12.17739,22.80845,24.55598,37.93675,31.09352,10.08976,4.36017,23.27501,5.26148,30.7842-2.76497,17.90827-19.14189-.3357-46.63536-15.71435-62.19092Z" style="fill: #21725f;"/>
    <path d="M955.54793,968.12829c-8.79146,2.04467-18.07172,6.15061-21.80964,14.36637-3.74619,8.23438-.67191,18.07198,4.31982,25.61686,15.92306,24.06744,57.57652,34.95402,74.30003,5.54804,20.20176-35.52222-30.0629-51.75227-56.81021-45.53127Z" style="fill: #21725f;"/>
    <path d="M1086.21462,1071.14246c-9.13491-7.19962-20.26409-12.39049-31.89448-12.53377-11.63013-.14354-23.66346,5.42183-29.40728,15.5359-7.94368,13.98776-2.31703,31.61568,4.78638,46.04828,6.60711,13.42448,14.91571,26.80706,27.79915,34.41481,18.82639,11.11726,51.64753,7.11632,58.41343-16.44189,6.61176-23.02026-12.7099-53.63481-29.6972-67.02333Z" style="fill: #21725f;"/>
  </g>
  <g>
    <path d="M1128.01457,1287.53639c-50.40779-6.74766-156.09243-8.88988-157.33652-7.5182-1.27528,1.40611,2.67432,41.43412,4.49637,59.43432-.37167-3.67111,176.83096,33.80518,189.56263,32.58502-2.23057-10.27532-28.73899-66.4676-36.72248-84.50115Z" style="fill: #ffa740;"/>
    <path d="M1013.49832,1347.95361c-14.03175-27.22508-42.78169-42.55093-73.83287-34.0084-14.114,3.88256-26.78641,12.08708-37.37457,22.19484,3.00914-2.87268,96.05209,61.54674,115.98077,71.28877,5.5457-16.985,4.96475-35.8998-1.61264-52.51244-.94908-2.39713-2.00488-4.72032-3.16069-6.96277Z" style="fill: #6f3e4f;"/>
  </g>
  <path d="M949.97651,1209.08651c11.81463-12.46576,18.37085-30.53187,14.57325-47.28175-4.02408-17.74902-18.49723-31.25092-33.82818-41.05798-13.61596-8.71022-28.48646-15.45612-44.0085-19.96471-6.1799-1.79506-14.64099-2.24884-17.20973,3.6514-1.51055,3.469.09221,7.65344,2.80695,10.28893,2.71474,2.63545,6.33338,4.08149,9.8224,5.54513,9.45922,3.96827,18.67397,8.51872,27.57508,13.61717,2.83364,1.62298,6.00114,3.93147,5.88264,7.19482-.14236,3.91854-4.74235,5.83735-8.53914,6.81789-7.0927,1.83187-14.1856,3.66353-21.2783,5.4954-4.17675,1.07862-8.56907,2.27735-11.60695,5.3401-3.03788,3.06255-3.98789,8.636-.80785,11.55094,2.46116,2.25632,6.21165,2.09636,9.54436,1.89112,9.31484-.57308,18.82987-.40686,27.73826,2.37502,7.84271,2.44923,16.04052,8.82144,15.00154,16.97174-.76842,6.02741-6.24339,10.17282-11.25975,13.60158-5.00341,3.41986-10.00682,6.83973-15.01023,10.25959-4.89785,3.34767-14.08308,11.50058-7.92744,18.11504,4.04188,4.3432,10.59871.37794,15.16472-1.16092,16.08056-5.41977,31.34073-10.5617,43.36687-23.2505Z" style="fill: #00c396;"/>
  <path d="M188.01725,1205.28857c15.11046-15.94323,23.49562-39.0491,18.63863-60.47157-5.14665-22.70032-23.65726-39.96875-43.26496-52.5116-17.41429-11.14004-36.4331-19.76779-56.2852-25.5341-7.90386-2.29582-18.72527-2.87618-22.01059,4.67-1.93193,4.43672.11793,9.78846,3.58998,13.15915,3.47205,3.37064,8.10015,5.22008,12.56248,7.09201,12.09799,5.07527,23.8833,10.89512,35.26748,17.41585,3.62412,2.07573,7.67523,5.0282,7.52368,9.2019-.18207,5.01167-6.06529,7.46574-10.92124,8.71982-9.07129,2.34289-18.14284,4.68552-27.21414,7.02841-5.34191,1.37951-10.95952,2.91264-14.84485,6.82978-3.88533,3.91688-5.10036,11.04512-1.03321,14.77321,3.14773,2.88574,7.94446,2.68117,12.20687,2.41867,11.91333-.73294,24.0827-.52035,35.47619,3.03756,10.03053,3.13247,20.51522,11.28228,19.1864,21.70621-.98278,7.70883-7.98506,13.01065-14.40079,17.39591-6.39917,4.37388-12.79835,8.74775-19.19752,13.12163-6.26417,4.28155-18.01172,14.70881-10.1389,23.16845,5.16941,5.55479,13.55534.48337,19.39511-1.48477,20.56642-6.93168,40.0836-13.50801,55.46458-29.73651Z" style="fill: #00c396;"/>
  <path d="M145.4196,1980.19642c1.74598,16.45453,15.76478,30.36497,31.7225,33.67408,9.68811,2.009,35.46843-3.69421,29.41142,16.67876-3.13196,10.53412-16.72506,13.18577-27.71121,12.90955-19.61494-.4932-41.64958-5.97865-51.21743-23.10897-4.86992-8.71874-5.64321-19.07752-5.93235-29.05995-.2894-9.98243-.24673-20.22297-3.75447-29.57353-8.81318-23.49355-32.66545-17.44227-52.7216-20.5825-10.20485-1.59779-20.94402-6.59185-24.78668-16.17936-5.09854-12.72179,3.96189-26.52671,4.64155-40.21498.66389-13.36758-7.69644-26.72585-20.00934-31.97207-6.07925-2.59014-12.77998-3.29618-19.09433-5.24337-14.12768-4.35629-26.08472-15.26693-31.71293-28.93787-1.66891-4.05366-2.8141-8.40688-2.5816-12.78464.53561-10.09545,8.10067-18.41647,10.68434-28.19041,3.06213-11.58384-1.82771-24.8387-11.67927-31.65866-6.90608-4.78069-15.74357-6.53366-21.95576-12.18695-6.21193-5.6533-7.10444-18.29672.94657-20.69108,1.90943-.56768,3.95413-.41509,5.92796-.1469,15.10063,2.05194,29.14245,10.91503,37.49166,23.66346,8.34895,12.74869,10.86098,29.16262,6.70668,43.82462-1.23804,4.36896-3.03549,8.5918-3.82637,13.06344-2.16133,12.22316,4.24327,25.48522,15.16037,31.39275,6.19719,3.35334,13.33629,4.39819,20.08047,6.439,21.81067,6.59935,40.86129,28.09325,36.65604,50.48914-1.29468,6.89418-4.65448,13.7294-3.25041,20.60211,1.60503,7.85756,9.12379,13.25922,16.8179,15.52141s15.8659,2.17245,23.76924,3.53489c18.89493,3.25739,37.18751,17.13058,39.80041,36.1256,1.0283,7.47661-.37966,15.10761.41665,22.61241Z" style="fill: #2b2b2b;"/>
  <path d="M82.63686,1597.19098c11.36478,13.99704,3.66059,30.50123-13.03421,35.01166-8.17955,2.20973-16.83265,1.38731-25.26358.54829-43.24039-4.30198-86.48077-8.60421-129.72116-12.90619-2.13806,9.68346-2.946,19.65968-2.3941,29.56116,61.47194-.85705,123.11612,8.72448,184.54978,11.48974,2.89712-12.10449,7.24177-23.86161,12.91214-34.94113,4.04516-7.90386,8.88301-15.88194,9.14319-24.75719.54415-18.56337-18.10431-31.12688-34.45203-39.93851-33.89237-18.26828-67.78473-36.53681-101.6771-54.80509-3.35774-1.80986-7.35919-3.65309-10.81805-2.04547-2.32039,1.07847-3.71697,3.44463-4.9713,5.67476-4.15999,7.39798-8.32024,14.79571-12.48024,22.19369,32.13449,16.8029,64.96856,32.26768,98.38893,46.34053,10.90883,4.59371,22.35663,9.38478,29.81772,18.57375Z" style="fill: #21725f;"/>
  <path d="M-139.20768,1396.88506c19.08605,11.57789,41.66406,21.15738,63.26214,15.51443,30.43299-7.95118,46.4939-42.27468,74.809-55.97278,20.15521-9.7507,45.70147-8.62749,62.17695-23.7889,14.16208-13.0324,17.07472-34.8198,12.80972-53.58722-4.26499-18.76768-14.49053-35.52222-23.44234-52.55944-13.69526-26.0648-24.92375-55.28794-20.32099-84.36959,3.06445-19.36177,12.94809-37.09984,16.35729-56.40365,3.4092-19.30409-2.51669-42.99963-20.81315-50.03554-19.08527-7.33954-38.87634,6.9128-58.35084,13.14594-11.5947,3.71102-24.0933,4.56112-36.0837,2.45436-17.78309-3.12446-34.62091-12.61886-52.64815-11.60737-19.36252,1.08623-36.47888,14.67933-45.88457,31.6387-9.40595,16.95937-12.10963,36.85078-12.30799,56.24279s1.93038,38.76409,1.41985,58.15041c-.5876,22.32042-4.72768,44.54412-12.15954,65.59727-5.99546,16.98472-20.13892,34.95273-18.24862,53.65035,4.04102,39.97288,37.13993,72.34608,69.42493,91.93024Z" style="fill: none; stroke: #ffdf77; stroke-miterlimit: 10; stroke-width: 6px;"/>
  <path d="M653.54167,1327.57744c.17449-1.16085.4415-2.38447,1.26244-3.22369,1.80818-1.8485,5.01372-.72585,6.926,1.01487,2.65202,2.41414,4.33696,5.72228,6.87483,8.25624,2.53798,2.53386,6.62813,4.2068,9.68983,2.33927,2.99666-1.8279,3.44462-6.10428,2.44616-9.46949-.99845-3.3651-3.05996-6.34739-3.98172-9.73432-.92168-3.38694-.25751-7.68117,2.85672-9.3007,2.51359-1.30711,5.69103-.33652,7.89769,1.44045,2.20675,1.77686,3.73437,4.23626,5.53295,6.42525,1.94251,2.36398,4.37625,4.51862,7.35918,5.19996,2.98281.68144,6.5559-.53728,7.76409-3.34842.99605-2.31737.20454-5.01248-.94232-7.25921-1.4023-2.74724-3.31654-5.21654-4.61693-8.01355-1.30028-2.79691-1.93442-6.13674-.64636-8.93927,1.29847-2.82518,4.46847-4.57717,7.57638-4.48654,3.10793.09073,6.04515,1.87503,7.84146,4.41294,1.48429,2.09698,2.2285,4.61542,3.37677,6.91369,2.26925,4.54186,6.04919,8.11086,9.1956,12.09553,1.85524,2.34966,3.53748,4.94597,4.12933,7.88062s-.09661,6.27532-2.35731,8.23792c-5.74492,4.9876-16.38423-1.7365-21.74646,3.6605-5.03133,5.06404.4558,15.19892-4.60265,20.23598-2.05648,2.04769-5.37669,2.44783-8.12388,1.51256s-4.97612-3.00875-6.71437-5.33255c-1.56516-2.09243-3.15704-4.65938-5.75178-4.9679-2.7417-.32601-5.09909,2.25621-5.70357,4.95022-.60439,2.694.01925,5.48744.30572,8.23358.28647,2.74594.13926,5.78602-1.67125,7.8703-6.59487,7.59207-14.41608-3.46287-17.17999-8.60701-4.82274-8.97648-8.57207-17.51771-6.99655-27.99723Z" style="fill: #ff965d;"/>
  <path d="M233.82834,1946.88022c-14.91261-6.51452-27.77975-20.23435-28.55149-36.4928-.91709-19.323,14.59864-39.64812,5.11846-56.50947-3.3011-5.87132-9.07259-9.83398-14.15691-14.2513-29.18124-25.35358-36.42405-72.4762-16.20393-105.42716,33.07718,16.10539,65.35572,35.94275,88.1802,64.80097,32.92459,41.62811,49.8806,112.48428,34.63022,164.20138-10.85167-.16268-19.44218-6.07559-29.62142-8.60732-13.27189-3.30058-26.43309-2.05168-39.39514-7.71428Z" style="fill: #fba64a;"/>
  <path d="M3.25674,816.25384c-12.8749.16526-26.72456.82993-36.90458,8.71387-4.48276,3.47179-7.89584,8.10326-11.72143,12.28808-9.87562,10.80357-22.50637,18.63216-34.96307,26.31851-11.64488,7.18565-24.92039,14.66691-38.23934,11.52901,6.32934-8.98465,18.52561-10.89279,28.82615-14.72459,11.30763-4.20653,27.31707-13.92776,32.17949-25.7273,4.74578-11.5166,1.96918-24.14451-4.68423-34.37574-5.35846-8.23929-13.34637-14.78149-17.26248-23.79614-9.16491-21.09633,6.99479-47.47538-3.70973-67.83387,16.32315,4.61828,32.25061,12.73007,42.69779,26.09506,10.44718,13.36499,14.33096,32.66829,6.49667,47.71461-3.71438,7.13393-9.75639,12.97345-12.68946,20.46246-2.92893,7.47868-2.36151,16.24506,1.50701,23.28354,7.8136-7.13832,15.91789-12.24049,25.85144-15.51081,18.11207-5.96287,30.00212-15.81857,44.89223-27.75725,6.24943-5.01061,12.71041-10.28528,16.07953-17.5524,2.56841-5.54054,3.11592-11.79203,5.08354-17.57309,1.78141-5.23406,4.6969-9.99872,7.67756-14.65554,8.01713-12.52498,17.74689-25.42833,32.00776-29.64496,4.84483-1.43227,9.93717-1.75658,14.97959-2.07211,15.18417-.95019,30.36859-1.90038,45.55276-2.85083-1.61331,23.03811-8.3324,46.28699-22.77302,64.30984-14.44088,18.02284-37.37372,30.06419-60.36114,27.84208-8.86646-.85709-17.68689-3.73843-26.50886-2.50401-11.78169,1.64874-21.22566,10.23614-29.86065,18.41905,21.38058,3.75007,42.0683,11.4147,60.73123,22.50017,6.70823,3.98464,13.18318,8.42783,18.87475,13.76483,27.03387,25.34867,32.25268,67.37894,23.56493,103.40523-8.2486-19.78382-31.46801-27.87232-47.2915-42.33106-12.83895-11.73126-21.00091-28.44649-22.35689-45.785-.7301-9.33587.38949-19.03432-2.83479-27.8263-5.48131-14.94545-21.54972-14.29605-34.84126-14.12535Z" style="fill: #6f3e4f;"/>
  <g>
    <path d="M1036.87223,1821.29144c1.20226-1.1052,2.40451-2.2104,3.60677-3.3156.31083-.28871.53052-.63066.65907-1.02582.19957-.37986.29108-.78922.27452-1.22808.01656-.43885-.07495-.84821-.27452-1.22808-.12855-.39517-.34824-.73711-.65907-1.02582-.60746-.55763-1.40498-.97162-2.2539-.9336l-.84736.11386c-.53998.15144-1.00882.42469-1.40654.81974-1.21331,1.09415-2.42661,2.1883-3.63992,3.28246-.31312.29084-.53443.63529-.66392,1.03337-.20104.38266-.29322.79503-.27654,1.23711-.01668.44208.0755.85445.27654,1.23711.12949.39807.3508.74253.66392,1.03337.61192.56173,1.41531.97876,2.27048.94046l.85359-.1147c.54395-.15256,1.01624-.42781,1.41688-.82576h0Z" style="fill: #ff5cc6;"/>
    <path d="M1067.50046,1763.93033c1.23544-1.07209,2.47089-2.14419,3.70621-3.21642.34969-.3248.59684-.70949.74146-1.15405.22452-.42735.32746-.88788.30884-1.38159.01862-.49371-.08432-.95424-.30884-1.38159-.14462-.44456-.39177-.82925-.74146-1.15405-.68339-.62734-1.5806-1.09307-2.53564-1.0503l-.95328.12809c-.60748.17037-1.13493.47778-1.58236.9222-1.18007,1.12747-2.36028,2.25481-3.54048,3.38215-.33826.31419-.57734.6863-.71723,1.11634-.21718.41338-.31676.85886-.29875,1.33644-.01802.47758.08157.92306.29875,1.33644.13989.43004.37897.80215.71723,1.11634.66106.60684,1.52895,1.05735,2.45278,1.01597l.92213-.12391c.58762-.16481,1.09784-.46216,1.53065-.89207h0Z" style="fill: #ff5cc6;"/>
    <path d="M1026.16384,1779.69531c3.46861,0,3.47436-5.39062,0-5.39062-3.46861,0-3.47436,5.39062,0,5.39062h0Z" style="fill: #ff5cc6;"/>
    <path d="M1049.11654,1730.33511c2.36823-1.03011,4.73648-2.06018,7.1047-3.09032.6974-.30336,1.30504-1.24931,1.49716-1.94697.21475-.77983.11779-1.81824-.32841-2.51034-.44847-.69562-1.11628-1.30796-1.94697-1.49716l-.86606-.11637c-.58806.00183-1.13615.15009-1.64428.44479-2.36822,1.03014-4.73647,2.06021-7.1047,3.09032-.6974.30335-1.30504,1.24932-1.49716,1.94697-.21475.77983-.11779,1.81824.32841,2.51034.44847.69562,1.11628,1.30796,1.94697,1.49716l.86606.11637c.58806-.00183,1.13615-.15009,1.64428-.44479h0Z" style="fill: #ff5cc6;"/>
    <path d="M1063.6661,1681.51285c2.08117,0,2.08461-3.23438,0-3.23438-2.08117,0-2.08461,3.23438,0,3.23438h0Z" style="fill: #ff5cc6;"/>
    <path d="M1031.81041,1623.25397c1.99832,0,3.91272-1.75717,3.82031-3.82031-.09271-2.06985-1.67858-3.82031-3.82031-3.82031-1.99832,0-3.91272,1.75717-3.82031,3.82031.09271,2.06985,1.67858,3.82031,3.82031,3.82031h0Z" style="fill: #ff5cc6;"/>
    <path d="M1085.0303,1582.98651c.30548-.27138.61097-.54275.91646-.81412.14825-.1317.2965-.26339.44475-.39509.15628-.13883.29216-.30327.43389-.45687.38626-.35877.65925-.78368.819-1.27474.248-.47204.36171-.98073.34114-1.52607l-.14149-1.05297c-.12255-.51545-.35887-.96445-.70897-1.34701-.17607-.2976-.4129-.53443-.7105-.7105-.38256-.3501-.83156-.58642-1.34701-.70897l-1.05297-.14149c-.71498.00222-1.38137.18248-1.99916.54078-.07997.06107-.15993.12213-.2399.1832-.04234.03233-.08469.06463-.12701.09699-.01881.01438-.0376.0288-.05638.04321l-.81113.62668-.02632.02458c-.15473.14206-.3072.28667-.46077.42997-.30279.28255-.60559.5651-.90838.84765-.38854.36089-.66316.78832-.82384,1.28228-.24946.47483-.36385.98653-.34315,1.5351-.02069.54857.09369,1.06027.34315,1.5351.16069.49396.4353.92139.82384,1.28228l.80639.62301c.62145.36042,1.29178.54175,2.01099.54398l1.0592-.14233c.67497-.18931,1.26103-.53086,1.75817-1.02467h0Z" style="fill: #ff5cc6;"/>
    <path d="M1003.01375,1683.66375c2.30746.10811,4.61491.21625,6.92237.32432.67119.02532,1.29727-.11463,1.87824-.41986.60438-.1966,1.12734-.5326,1.56891-1.00799.47539-.44156.81139-.96453,1.00799-1.56891.30523-.58097.44518-1.20705.41986-1.87824-.05647-1.26079-.47062-2.56842-1.42785-3.44715-.97878-.8985-2.10726-1.3651-3.44715-1.42785-2.30746-.10807-4.61491-.21621-6.92237-.32432-.67119-.02532-1.29727.11463-1.87824.41986-.60438.1966-1.12734.5326-1.56891,1.00799-.47539.44156-.81139.96453-1.00799,1.56891-.30523.58097-.44518,1.20705-.41986,1.87824.05647,1.26079.47062,2.56842,1.42785,3.44715.97879.89851,2.10726,1.36508,3.44715,1.42785h0Z" style="fill: #ff5cc6;"/>
    <path d="M1063.82826,1680.81729c2.29255,0,4.48883-2.01589,4.38281-4.38281-.10636-2.37462-1.92574-4.38281-4.38281-4.38281-2.29255,0-4.48883,2.01589-4.38281,4.38281.10636,2.37462,1.92574,4.38281,4.38281,4.38281h0Z" style="fill: #ff5cc6;"/>
    <path d="M1043.62495,1555.76703c4.40363,0,4.41092-6.84375,0-6.84375-4.40363,0-4.41092,6.84375,0,6.84375h0Z" style="fill: #ff5cc6;"/>
    <path d="M1061.87564,1498.96478c3.86071,0,3.86711-6,0-6-3.86071,0-3.86711,6,0,6h0Z" style="fill: #ff5cc6;"/>
  </g>
  <path d="M408.20225,1987.54754c-1.33373-17.52499,3.04842-35.43765-.832-52.57961-1.97383-8.71982-6.02649-16.88204-7.76368-25.65204-3.66679-18.51138,3.3598-37.51959,12.68869-53.92369,9.32888-16.40406,21.10592-31.5078,28.33088-48.94127,7.65558-18.47207,9.87432-38.79772,17.08403-57.44824,7.20945-18.65052,21.66119-36.70931,41.5032-39.18462,5.07734-.63337,10.74848.01035,14.36406,3.63084,7.11324,7.12307,1.4858,19.46468-5.9083,26.29576s-17.03412,13.10611-18.34819,23.08647c-1.00528,7.63695,3.38618,14.9483,3.97094,22.62896,2.05504,26.98913-40.35387,41.2244-38.75996,68.24482.39208,6.64383,3.6011,12.94628,3.51834,19.60097-.18285,14.69924-15.78211,25.08539-18.11646,39.59894-2.55548,15.88845,11.4191,30.03936,12.28627,46.10854.37552,6.96013-1.75219,13.80957-2.13237,20.76944-.37992,6.95961,1.61563,14.86321,7.69696,18.26905,9.09612,5.09389,20.83953-4.09456,22.33749-14.41139,1.49822-10.31683-3.68257-20.30211-8.70404-29.43806-5.02173-9.13595-10.21778-19.10752-8.75292-29.429,2.71583-19.13596,27.23896-32.30052,23.80157-51.32011-.99442-5.50303-4.35551-10.38714-5.16605-15.92047-1.51244-10.32718,6.07925-19.70908,14.07828-26.41421,7.99903-6.70487,17.31007-12.77378,21.45842-22.3512,7.9905-18.44828-6.12425-43.01512,6.50831-58.65473,3.5442-4.38784,8.70379-7.19105,12.49963-11.36323,7.57721-8.32852,8.55275-20.4909,11.90841-31.23883,3.35567-10.748,12.25497-22.05485,23.36294-20.21318,12.89197,2.13754,16.33246,20.15185,10.96081,32.06466-5.37139,11.91281-15.93159,20.89569-21.26833,32.82424-6.70952,14.99744-4.26499,32.23716-3.92801,48.66351.33699,16.42634-2.77945,35.01997-16.31281,44.33618-10.60753,7.30255-28.10355,10.64037-28.0376,23.51838.02897,5.65562,4.03921,10.55399,4.91182,16.14186,2.77919,17.79447-25.05539,27.16189-26.21972,45.1343-.87028,13.43301,13.76379,23.50001,14.83399,36.91859.86096,10.79551-6.98263,23.05306-.29406,31.5709,7.0866,9.02474,23.2088,1.39735,25.76842-9.7882,2.55962-11.18556-3.22584-22.37551-8.36602-32.63463-5.13992-10.25894-9.86036-22.32715-5.31088-32.86153,6.20779-14.37467,27.29664-19.80917,29.50349-35.31067,1.10097-7.73549-3.16635-15.93444-.33363-23.21604,3.8543-9.9082,17.28602-10.99572,26.00791-17.07498,12.45127-8.67866,13.8088-26.5461,11.69013-41.57484s-6.40072-30.78808-.95614-44.95529c4.96535-12.9202,17.48387-22.60081,19.53089-36.28986,1.60296-10.72003-.90674-26.20136,9.69742-28.44778,7.68971-1.62882,13.54914,7.0566,15.18055,14.7458,2.66591,12.56429.4632,26.09765-6.04951,37.16812-4.89759,8.32542-12.1929,15.46891-14.7445,24.78486-6.45607,23.56984,19.82132,49.76034,7.54773,70.89289-7.71015,13.27525-27.57026,16.82544-32.937,31.20835-4.73052,12.67757,4.26112,28.40743-3.03963,39.80041-4.70052,7.33514-14.74657,10.06493-18.93527,17.70426-7.11169,12.97007,7.28134,28.62024,4.30198,43.10896-1.53313,7.45618-7.37445,13.12008-11.65574,19.41425-7.70627,11.32935-10.07657,27.80561-1.14752,38.19852,8.92905,10.39308,30.22273,7.05397,31.85672-6.55,1.21813-10.1417-8.12705-19.2164-7.27281-29.39512,1.08674-12.95016,18.13483-22.38611,14.67079-34.91161-1.28252-4.63819-5.25656-8.14748-6.63064-12.75951-5.42726-18.21685,29.96824-26.22981,29.28961-45.22586-.18311-5.12833-3.1992-9.85678-3.25972-14.98765-.1769-15.02821,21.3767-18.70044,30.87808-30.34557,6.9653-8.53697,6.67176-20.94992,3.73947-31.57094-2.93204-10.62072-8.11489-20.61867-9.91907-31.48818-4.06404-24.48589,9.42794-48.09375,22.39904-69.25605,3.29334-5.37243,8.85094-11.5616,14.66174-9.12324,3.17359,1.33163,4.82725,4.8735,5.47795,8.25296,3.39239,17.61395-12.35325,33.3252-14.17397,51.17528-2.55005,25.03496,19.74477,45.55483,13.65647,70.8453-5.85192,24.30873-37.52605,36.60069-31.91595,64.65795,1.96297,9.81721,8.97353,19.07105,6.83522,28.85149-3.01325,13.78061-22.69233,20.48858-22.54155,34.59376.05897,5.50019,3.37041,10.5708,3.44696,16.07048.12543,9.00017-8.10869,15.78056-11.01874,24.29813-2.02918,5.94011-1.36399,12.44739-2.526,18.61587-4.36043,23.14414-31.54275,33.71495-54.98302,36.00456-57.6223,5.62821-150.59923-12.79524-155.98381-83.54718Z" style="fill: #ff965d;"/>
  <path d="M1005.83871,1882.61833c-3.21601-13.05262-10.18002-27.13788-23.17673-30.59002-12.55782-3.33549-25.24677,4.64211-38.22021,5.37502-12.42256.70217-24.98892-5.90283-31.45042-16.53057-5.7914-9.52518-6.66168-21.24454-11.28332-31.38857-4.62164-10.14411-16.23626-19.13109-26.33481-14.40057-7.68583,3.60037-11.12038,13.71724-19.22726,16.23057-8.41516,2.60876-16.70747-4.44655-21.58955-11.77703s-8.99189-16.06142-17.02817-19.67003c-10.83796-4.86656-24.12692,2.70522-29.23167,13.43094-5.10475,10.72598-3.9712,23.32311-1.5996,34.96101,9.73699,47.78392,39.28574,91.21362,80.16462,117.82339,29.44969,19.17006,81.30955,39.52932,117.10851,28.70869,31.92888-9.65113,28.0901-66.92118,21.8686-92.17282Z" style="fill: #a33639;"/>
  <path d="M132.17298-208.7745c-30.39035,2.78323-64.37132,13.62816-76.53582,41.62726-11.75389,27.0526,1.84012,58.24415-.92284,87.6126C52.06918-51.41313,32.97417-25.45174,6.92426-14.55974-16.42326-4.79709-43.02362-6.82586-67.3627.10035c-24.33988,6.92654-48.45758,29.94256-41.27122,54.2163,5.46979,18.47467,27.0106,29.62112,29.8967,48.67153,2.99662,19.77498-15.65706,35.99-33.76963,44.45711-18.11257,8.46712-39.10626,14.72469-49.93619,31.53666-14.60598,22.67235-2.12667,55.07277,20.21366,70.17523,22.34032,15.10246,51.00044,16.83878,77.92755,15.46992,110.56208-5.61848,218.082-57.18442,291.69908-139.89701,53.03477-59.5871,116.35432-169.07103,104.23048-253.10014-10.81299-74.94512-140.6624-85.78845-199.45474-80.40444Z" style="fill: #21725f;"/>
  <g>
    <path d="M807.7518,1732.76902c5.37662,5.43846,13.31775,8.78208,20.78824,7.14569,1.89333-.41479,3.77453-1.1707,5.13278-2.55352,2.43887-2.48282,2.66148-6.51814,1.45397-9.78217-1.20751-3.26413-3.58968-5.93524-5.93471-8.50674-4.49173-4.92566-9.22563-9.93249-15.34477-12.57681-4.08114-1.76361-9.41434-2.12817-12.45169,1.11838-7.24359,7.74247.13578,18.86321,6.35619,25.15517Z" style="fill: #a33639;"/>
    <path d="M873.77429,1735.28143c3.556-.82704,7.30981-2.48783,8.82163-5.81107,1.51538-3.33056.27188-7.30981-1.74719-10.36158-6.44061-9.73476-23.28872-14.1382-30.05309-2.24398-8.17127,14.36813,12.15993,20.93291,22.97866,18.41663Z" style="fill: #a33639;"/>
    <path d="M820.92194,1693.61395c3.69502,2.91212,8.19648,5.01174,12.90077,5.0697,4.70419.05806,9.57147-2.19304,11.89474-6.28401,3.21309-5.65792.9372-12.78801-1.93601-18.62585-2.67246-5.42986-6.03315-10.84289-11.24428-13.92009-7.61495-4.49675-20.89055-2.87844-23.62724,6.65045-2.67424,9.3113,5.14094,21.69437,12.01201,27.1098Z" style="fill: #a33639;"/>
  </g>
  <g>
    <path d="M229.9918,1673.48096c-4.19903,1.84355-8.44946,4.7622-9.54737,9.21482-1.1006,4.46248,1.355,9.08775,4.55364,12.38856,10.20327,10.52914,32.02283,12.06896,37.6233-4.18045,6.76527-19.62917-19.85449-23.03184-32.62957-17.42293Z" style="fill: #a33639;"/>
    <path d="M304.88181,1712.70053c-5.23551-2.74076-11.27873-4.29187-17.10018-3.27537-5.82134,1.01634-11.30995,4.92135-13.23213,10.5095-2.65834,7.72855,1.80063,16.00515,6.69819,22.54816,4.55535,6.08573,9.95651,11.99151,17.10202,14.58542,10.44166,3.79055,26.45773-1.27795,27.6326-13.67552,1.14809-12.11449-11.36478-25.59536-21.1005-30.69219Z" style="fill: #a33639;"/>
  </g>
  <path d="M-1.90629,41.11627l.06102,2.55163.0171.71507c-.01177.31193.05328.6029.19513.8729.09137.28088.24752.52393.46846.72914.20521.22094.44826.37709.72914.46846.27.14185.56097.20689.8729.19513l.60229-.08093c.38381-.10764.71706-.30186.99975-.58266l.35426-.45853c.20495-.35337.30805-.73454.30932-1.1435l.06102-2.55163.0171-.71507c.01217-.32269-.05511-.62369-.20186-.903-.09452-.29057-.25606-.54199-.48461-.75428-.21229-.22855-.46372-.39009-.75428-.48461-.27931-.14674-.58031-.21403-.903-.20186l-.62306.08372c-.39704.11136-.74178.31227-1.03422.60275l-.36648.47435c-.21201.36556-.31868.75987-.31999,1.18294h0Z" style="fill: #383634;"/>
</svg>