<?xml version="1.0" encoding="UTF-8"?>
<svg id="Layer_1" data-name="Layer 1" xmlns="http://www.w3.org/2000/svg" xmlns:xlink="http://www.w3.org/1999/xlink" viewBox="0 0 500 500">
  <defs>
    <filter id="luminosity-noclip" x="42.27063" y="240.46271" width="52.0733" height="69.81922" color-interpolation-filters="sRGB" filterUnits="userSpaceOnUse">
      <feFlood flood-color="#fff" result="bg"/>
      <feBlend in="SourceGraphic" in2="bg"/>
    </filter>
    <filter id="luminosity-noclip-2" x="42.27063" y="-4592" width="52.0733" height="32766" color-interpolation-filters="sRGB" filterUnits="userSpaceOnUse">
      <feFlood flood-color="#fff" result="bg"/>
      <feBlend in="SourceGraphic" in2="bg"/>
    </filter>
    <mask id="mask-1" x="42.27063" y="-4592" width="52.0733" height="32766" maskUnits="userSpaceOnUse"/>
    <radialGradient id="radial-gradient" cx="-19835.28692" cy="-27040.69617" fx="-19835.28692" fy="-27040.69617" r="344.33927" gradientTransform="translate(-4048.07822 -6814.32745) rotate(-180) scale(.20765 .26215)" gradientUnits="userSpaceOnUse">
      <stop offset=".07451" stop-color="#c2c2c2"/>
      <stop offset=".36471" stop-color="#000"/>
    </radialGradient>
    <mask id="mask" x="42.27063" y="240.46271" width="52.0733" height="69.81922" maskUnits="userSpaceOnUse">
      <g style="filter: url(#luminosity-noclip);">
        <g style="mask: url(#mask-1);">
          <path d="M42.27063,275.39259c0-9.69164,2.54337-17.92941,7.6294-24.71331,5.08638-6.81116,11.23552-10.21657,18.44778-10.21657,7.15845,0,13.2807,3.40541,18.36673,10.21657,5.08638,6.7839,7.6294,15.02167,7.6294,24.71331,0,9.63747-2.54302,17.86196-7.6294,24.67277-5.08603,6.81081-11.20827,10.21657-18.36673,10.21657-7.21226,0-13.3614-3.40576-18.44778-10.21657-5.08603-6.81081-7.6294-15.0353-7.6294-24.67277Z" style="fill: url(#radial-gradient); mix-blend-mode: multiply;"/>
        </g>
      </g>
    </mask>
    <radialGradient id="radial-gradient-2" cx="-19835.28692" cy="-27040.69617" fx="-19835.28692" fy="-27040.69617" r="344.33927" gradientTransform="translate(-4048.07822 -6814.32745) rotate(-180) scale(.20765 .26215)" gradientUnits="userSpaceOnUse">
      <stop offset=".07451" stop-color="#f59276"/>
      <stop offset=".36471" stop-color="#fac0a0"/>
    </radialGradient>
    <linearGradient id="linear-gradient" x1="-2297.56262" y1="-7568.02577" x2="-2296.87311" y2="-7637.69885" gradientTransform="translate(-2091.34039 -7198) rotate(-180)" gradientUnits="userSpaceOnUse">
      <stop offset="0" stop-color="#fac0a2"/>
      <stop offset=".95906" stop-color="#f69c7f"/>
      <stop offset="1" stop-color="#f69a7e"/>
    </linearGradient>
    <filter id="luminosity-noclip-3" x="179.73322" y="247.565" width="103.3843" height="121.78277" color-interpolation-filters="sRGB" filterUnits="userSpaceOnUse">
      <feFlood flood-color="#fff" result="bg"/>
      <feBlend in="SourceGraphic" in2="bg"/>
    </filter>
    <filter id="luminosity-noclip-4" x="179.73322" y="-4592" width="103.3843" height="32766" color-interpolation-filters="sRGB" filterUnits="userSpaceOnUse">
      <feFlood flood-color="#fff" result="bg"/>
      <feBlend in="SourceGraphic" in2="bg"/>
    </filter>
    <mask id="mask-3" x="179.73322" y="-4592" width="103.3843" height="32766" maskUnits="userSpaceOnUse"/>
    <radialGradient id="radial-gradient-3" cx="-12656.14093" cy="-18298.47772" fx="-12656.14093" fy="-18298.47772" r="380.33635" gradientTransform="translate(-4487.09447 -7271.16086) rotate(-180) scale(.3732 .41414)" xlink:href="#radial-gradient"/>
    <mask id="mask-2" x="179.73322" y="247.565" width="103.3843" height="121.78277" maskUnits="userSpaceOnUse">
      <g style="filter: url(#luminosity-noclip-3);">
        <g style="mask: url(#mask-3);">
          <path d="M267.95445,265.34622c10.10883,11.85427,15.16307,26.22414,15.16307,43.11033,0,16.83761-5.05424,31.20784-15.16307,43.11033-10.10883,11.85392-22.27296,17.78088-36.4931,17.78088-14.268,0-26.45659-5.92696-36.56507-17.78088-10.10883-11.9025-15.16307-26.27272-15.16307-43.11033,0-16.88619,5.05424-31.25607,15.16307-43.11033,10.10848-11.85427,22.29707-17.78123,36.56507-17.78123,14.22014,0,26.38427,5.92696,36.4931,17.78123Z" style="fill: url(#radial-gradient-3); mix-blend-mode: multiply;"/>
        </g>
      </g>
    </mask>
    <radialGradient id="radial-gradient-4" cx="-12656.14093" cy="-18298.47772" fx="-12656.14093" fy="-18298.47772" r="380.33635" gradientTransform="translate(-4487.09447 -7271.16086) rotate(-180) scale(.3732 .41414)" xlink:href="#radial-gradient-2"/>
    <filter id="luminosity-noclip-5" x="55.81684" y="245.67811" width="93.59025" height="125.48419" color-interpolation-filters="sRGB" filterUnits="userSpaceOnUse">
      <feFlood flood-color="#fff" result="bg"/>
      <feBlend in="SourceGraphic" in2="bg"/>
    </filter>
    <filter id="luminosity-noclip-6" x="55.81684" y="-4592" width="93.59025" height="32766" color-interpolation-filters="sRGB" filterUnits="userSpaceOnUse">
      <feFlood flood-color="#fff" result="bg"/>
      <feBlend in="SourceGraphic" in2="bg"/>
    </filter>
    <mask id="mask-5" x="55.81684" y="-4592" width="93.59025" height="32766" maskUnits="userSpaceOnUse"/>
    <radialGradient id="radial-gradient-5" cx="-12398.81857" cy="-16452.99101" fx="-12398.81857" fy="-16452.99101" r="344.33324" gradientTransform="translate(-4520.34659 -7445.51195) rotate(-180) scale(.3732 .47118)" xlink:href="#radial-gradient"/>
    <mask id="mask-4" x="55.81684" y="245.67811" width="93.59025" height="125.48419" maskUnits="userSpaceOnUse">
      <g style="filter: url(#luminosity-noclip-5);">
        <g style="mask: url(#mask-5);">
          <path d="M55.81684,308.45655c0-17.41846,4.57072-32.2238,13.71216-44.41672,9.14144-12.24115,20.1932-18.36172,33.15563-18.36172,12.8653,0,23.86885,6.12057,33.01029,18.36172,9.14144,12.19292,13.71216,26.99826,13.71216,44.41672,0,17.3213-4.57072,32.10287-13.71216,44.34402-9.14144,12.24115-20.14499,18.36172-33.01029,18.36172-12.96243,0-24.01419-6.12057-33.15563-18.36172-9.14144-12.24115-13.71216-27.02272-13.71216-44.34402Z" style="fill: url(#radial-gradient-5); mix-blend-mode: multiply;"/>
        </g>
      </g>
    </mask>
    <radialGradient id="radial-gradient-6" cx="-12398.81857" cy="-16452.99101" fx="-12398.81857" fy="-16452.99101" r="344.33324" gradientTransform="translate(-4520.34659 -7445.51195) rotate(-180) scale(.3732 .47118)" xlink:href="#radial-gradient-2"/>
    <radialGradient id="radial-gradient-7" cx="-19825.53131" cy="-31576.96476" fx="-19825.53131" fy="-31576.96476" r="120.85833" gradientTransform="translate(-4007.79457 -6678.72792) rotate(-180) scale(.22161)" gradientUnits="userSpaceOnUse">
      <stop offset="0" stop-color="#f59276"/>
      <stop offset="1" stop-color="#fac0a2"/>
    </radialGradient>
    <mask id="mask-6" x="-362.87968" y="235.74079" width="543.87235" height="3210.8317" maskUnits="userSpaceOnUse"/>
    <filter id="luminosity-noclip-7" x="100.08956" y="235.74079" width="80.90312" height="85.92989" color-interpolation-filters="sRGB" filterUnits="userSpaceOnUse">
      <feFlood flood-color="#fff" result="bg"/>
      <feBlend in="SourceGraphic" in2="bg"/>
    </filter>
    <filter id="luminosity-noclip-8" x="100.08956" y="-4592" width="80.90312" height="32766" color-interpolation-filters="sRGB" filterUnits="userSpaceOnUse">
      <feFlood flood-color="#fff" result="bg"/>
      <feBlend in="SourceGraphic" in2="bg"/>
    </filter>
    <mask id="mask-8" x="100.08956" y="-4592" width="80.90312" height="32766" maskUnits="userSpaceOnUse"/>
    <radialGradient id="radial-gradient-8" cx="-15131.17609" cy="-24587.51809" fx="-15131.17609" fy="-24587.51809" r="380.36918" gradientTransform="translate(-4274.48239 -6905.16525) rotate(-180) scale(.29203)" xlink:href="#radial-gradient"/>
    <mask id="mask-7" x="100.08956" y="235.74079" width="80.90312" height="85.92989" maskUnits="userSpaceOnUse">
      <g style="filter: url(#luminosity-noclip-7);">
        <g style="mask: url(#mask-8);">
          <path d="M100.08956,278.73439c0-11.92696,3.95514-22.07433,11.86578-30.44176,7.91063-8.36778,17.4486-12.55184,28.61425-12.55184,11.12757,0,20.64667,4.18406,28.55731,12.55184,7.91063,8.36743,11.86578,18.5148,11.86578,30.44176,0,11.85077-3.95514,21.97927-11.86578,30.38479-7.91063,8.36778-17.42974,12.55149-28.55731,12.55149-11.16565,0-20.70362-4.18371-28.61425-12.55149-7.91063-8.40552-11.86578-18.53402-11.86578-30.38479Z" style="fill: url(#radial-gradient-8); mix-blend-mode: multiply;"/>
        </g>
      </g>
    </mask>
    <radialGradient id="radial-gradient-9" cx="-15131.17609" cy="-24587.51809" fx="-15131.17609" fy="-24587.51809" r="380.36918" gradientTransform="translate(-4274.48239 -6905.16525) rotate(-180) scale(.29203)" xlink:href="#radial-gradient-2"/>
  </defs>
  <g id="Layer4_63_FILL" data-name="Layer4 63 FILL">
    <path d="M80.04868,70.40628c-53.6692,27.60846-58.02226,96.26563-13.05885,205.97151l.14499.36277.29032.29042c61.88273,70.39587,141.66404,121.51366,239.34393,153.35337l.87026.29042,40.62851-22.42591-15.38072,20.10357,60.50693-6.38688.58064-.79823c55.03835-78.64447,78.25459-146.52753,69.64838-203.64882-8.48359-57.37571-48.89445-103.89704-121.23187-139.56434l-.14499-.07234-.14534-.07269c-22.4183-7.97845-40.70083-13.85718-54.84795-17.63584-76.69294-27.74756-145.76102-24.31245-207.20425,10.30569v-.07269M181.18413,46.31122c32.21235-1.64504,67.13331,4.35426,104.76288,17.99896h.14499l.07267.07234c14.02589,3.76223,32.16344,9.6165,54.41264,17.56349,34.6792,17.12803,61.47467,37.20749,80.38606,60.23837,18.18576,22.11138,29.43107,47.44048,33.73592,75.98732,4.25629,28.83691,1.37859,59.48837-8.63347,91.95401-10.54413,34.25607-28.89934,70.15717-55.06595,107.70296l-48.46368,5.0805,19.37115-25.25641-1.08827-1.30638-53.61469,29.61103c-96.32611-31.5755-175.06771-82.08832-236.22446-151.53918-21.47501-52.35183-30.56789-95.65543-27.27899-129.9115,3.24069-33.09472,17.84758-56.48836,43.82064-70.18128v-.07234c30.32613-17.03123,61.54699-26.34542,93.66256-27.94188Z"/>
    <path d="M87.52156,74.32544v-.07234c30.32613-17.03123,61.54699-26.34542,93.66256-27.94188,32.21235-1.64504,67.13331,4.35426,104.76288,17.99896h.14499l.07267.07234c14.02589,3.76223,32.16344,9.6165,54.41264,17.56349,34.6792,17.12803,61.47467,37.20749,80.38606,60.23837,18.18576,22.11138,29.43107,47.44048,33.73592,75.98732,4.25629,28.83691,1.37859,59.48837-8.63347,91.95401-10.54413,34.25607-28.89934,70.15717-55.06595,107.70296l-48.46368,5.0805,19.37115-25.25641-1.08827-1.30638-53.61469,29.61103c-96.32611-31.5755-175.06771-82.08832-236.22446-151.53918-21.47501-52.35183-30.56789-95.65543-27.27899-129.9115,3.24069-33.09472,17.84758-56.48836,43.82064-70.18128Z" style="fill: #251114;"/>
  </g>
  <g id="Layer4_63_MEMBER_0_FILL" data-name="Layer4 63 MEMBER 0 FILL">
    <path d="M309.67088,69.24529l.58064.43546h.65261c11.18522.36871,18.92396-9.28414,23.21624-28.95819,3.82902,4.57479,4.74785,14.42125,2.75683,29.53868l-.50762,3.84646,3.55477-1.59646c9.40626-4.36335,17.02378-6.08108,22.8536-5.15319-11.23518,3.73323-18.85304,9.12826-22.8536,16.18477l.58064-.07269c-.01502.08737-.01502.15972,0,.21773-.08594.01223-.15861.01223-.21765,0-3.57923.67731-13.27685-2.15319-29.09288-8.4915-7.93229-3.14504-15.45339-6.09646-22.56328-8.85427l-.50762-.79823c-.90345-6.14679-1.07255-12.38828-.50797-18.72484,4.46801,7.83866,11.82001,15.31419,22.05531,22.42626Z" style="fill: #251114;"/>
    <path d="M283.11752,34.91653l.07267-6.2415,2.61149-.36277,1.66891,6.1688c2.41585,10.89318,10.44492,21.15063,24.08651,30.77237,9.18022-.54066,15.51662-10.16904,19.00851-28.88514l.58029-2.90319,2.46685,1.37908c7.26501,3.20795,9.92506,13.92498,7.98051,32.1511,12.96103-5.36603,22.68276-5.75291,29.1652-1.16135l4.06275,2.61277-4.71571,1.30638c-13.05955,3.42603-22.92627,7.99837-29.60051,13.71704l-.58064.07269c4.00056-7.0565,11.61843-12.45154,22.8536-16.18477-5.82983-.92789-13.44734.78984-22.8536,5.15319l-3.55477,1.59646.50762-3.84646c1.99102-15.11743,1.0722-24.96389-2.75683-29.53868-4.29228,19.67405-12.03103,29.32689-23.21624,28.95819h-.65261s-.58064-.43546-.58064-.43546c-10.2353-7.11207-17.5873-14.58761-22.05531-22.42626-.56457,6.33656-.39548,12.57806.50797,18.72484l-.29032.29007c-3.28611-8.38386-4.8579-18.68954-4.71571-30.91741Z"/>
  </g>
  <g>
    <g id="Layer4_64_FILL" data-name="Layer4 64 FILL">
      <path d="M46.82073,249.52457c5.41688-6.04788,11.97093-9.072,19.66112-9.072,7.69019,0,14.26835,3.02412,19.73379,9.072,5.41688,6.04788,8.12549,13.3298,8.12549,21.84542,0,8.51561-2.70861,15.79753-8.12549,21.84542-5.46544,6.04788-12.0436,9.072-19.73379,9.072s-14.24424-3.02412-19.66112-9.072c-5.46544-6.04788-8.19816-13.3298-8.19816-21.84542,0-8.51561,2.73272-15.79753,8.19816-21.84542Z" style="fill: #fac0a2;"/>
    </g>
    <g id="Layer4_64_1_STROKES" data-name="Layer4 64 1 STROKES">
      <path d="M45.20633,294.67521c-5.81236-6.43127-8.75994-14.27167-8.75994-23.30522s2.94618-16.86976,8.75574-23.30103c5.82109-6.49802,12.98129-9.79369,21.27902-9.79369,8.29668,0,15.47959,3.29427,21.35588,9.79648,5.75995,6.43127,8.68028,14.26992,8.68028,23.29824s-2.92033,16.86836-8.68762,23.30522c-5.86895,6.49488-13.05186,9.78915-21.34855,9.78915-8.29913,0-15.45933-3.29567-21.27483-9.78915ZM48.44143,250.97774l-.00699.00699c-5.13669,5.68546-7.63499,12.35368-7.63499,20.38526s2.4983,14.70084,7.64197,20.39225c5.03048,5.61731,10.93228,8.34751,18.03973,8.34751,7.11339,0,13.04069-2.73299,18.11379-8.34751,5.09407-5.68581,7.56931-12.35648,7.56931-20.39225,0-8.03437-2.47524-14.70539-7.56232-20.38526-5.08009-5.62186-11.00739-8.35485-18.12078-8.35485-7.10745,0-13.00924,2.7302-18.03973,8.34786Z" style="fill: #e26236;"/>
    </g>
  </g>
  <g id="Layer4_64_MEMBER_0_FILL" data-name="Layer4 64 MEMBER 0 FILL">
    <g style="mask: url(#mask);">
      <path d="M42.27063,275.39259c0-9.69164,2.54337-17.92941,7.6294-24.71331,5.08638-6.81116,11.23552-10.21657,18.44778-10.21657,7.15845,0,13.2807,3.40541,18.36673,10.21657,5.08638,6.7839,7.6294,15.02167,7.6294,24.71331,0,9.63747-2.54302,17.86196-7.6294,24.67277-5.08603,6.81081-11.20827,10.21657-18.36673,10.21657-7.21226,0-13.3614-3.40576-18.44778-10.21657-5.08603-6.81081-7.6294-15.0353-7.6294-24.67277Z" style="fill: url(#radial-gradient-2);"/>
    </g>
  </g>
  <g id="Layer4_64_MEMBER_1_FILL" data-name="Layer4 64 MEMBER 1 FILL">
    <path d="M53.06001,265.85438c.43531,1.93511,1.69267,3.48334,3.77277,4.64469,1.69267,1.01596,3.40979,1.54823,5.15101,1.59681-.67742,5.70923-2.56363,9.12023-5.65899,10.23299-1.45091.53227-3.33747.33865-5.65899-.5805-2.8536-1.06454-4.90925-2.90319-6.16661-5.51561.67707,3.58015,2.78093,6.072,6.3116,7.47519,2.56363.96773,4.66749,1.18546,6.31195.65319,4.15952-1.5,6.62637-5.58831,7.40021-12.26526,3.57923-.62908,6.07019-1.83865,7.47288-3.62908.96704-1.20958,1.47501-2.80604,1.52322-4.78973.09677-1.59681-.72528-3.24185-2.46651-4.93546-2.27331-2.32234-5.7072-4.18511-10.30238-5.58831,4.11131,2.61277,6.81992,4.64504,8.12584,6.09646,1.35413,1.35461,2.0553,2.92731,2.10387,4.71738.14534,2.80638-2.0312,4.71738-6.5296,5.73369.24211-3.09681-.6285-5.8305-2.61184-8.20107-1.69267-1.93546-3.77243-2.73404-6.23928-2.39504-2.80539.33865-3.65155,2.5883-2.53917,6.74965M56.10716,261.57211c.62885-.38688,1.40269-.38688,2.32152,0,.8224.53227,1.59624,1.3305,2.32152,2.39504.87061,1.40319,1.40269,3.48369,1.59624,6.2415-3.09536-1.06419-5.03013-2.22554-5.80397-3.48369-.72563-1.01596-1.13683-2.03192-1.23325-3.04788-.04856-.96773.21765-1.6695.79795-2.10496Z" style="fill: #e26236;"/>
  </g>
  <g id="Layer4_65_FILL" data-name="Layer4 65 FILL">
    <path d="M66.98983,272.3136c-.53208,1.11277-4.88515,9.96703-13.0592,26.5628-7.83552,15.91846-12.11592,24.89365-12.84155,26.92592-5.51365,14.75711-7.49664,28.11103-5.94896,40.0621,3.14357,24.82095,15.54981,46.47275,37.21837,64.9554,9.76995,8.37058,21.45056,15.7493,35.04184,22.13584,13.10741,6.14469,27.27899,11.05569,42.51472,14.733,17.75045,4.35461,38.06453,5.15284,60.94224,2.39504,12.91387-1.54823,24.4736-3.55604,34.67885-6.02377,11.80184-2.85461,22.66006-6.55604,32.57534-11.10427,12.62389-5.80604,23.36123-11.66065,32.21235-17.56349,10.15704-6.77377,18.59731-14.10392,25.32011-21.99045,7.73875-9.04788,13.88125-19.76492,18.42787-32.15145,4.15952-11.27342,6.84403-23.34507,8.05317-36.21529,17.79517-57.69864,18.59312-111.79197,2.39419-162.28068v-.07234c-34.08703-96.75771-99.59999-132.02974-196.53924-105.81643-65.7369,14.44257-98.36045,73.18094-97.87064,176.21509.04227,6.62244-1.02189,13.08167-3.19213,19.37803l.07267-.14504M360.38376,184.13336v-.07269c15.93551,49.76842,15.11346,103.11209-2.46685,160.03068l-.07232.21773-.07267.21773c-2.18667,23.35555-11.06224,44.13643-26.62603,62.34298-13.83758,16.28472-32.09601,29.61452-54.77563,39.98941-20.61803,9.46342-42.60102,15.584-65.94827,18.36172-22.32502,2.68371-42.15558,1.93371-59.49134-2.24965-29.08939-7.03344-53.34534-18.86324-72.76819-35.48976-20.84406-17.74488-32.76644-38.47718-35.76747-62.19794h0c-1.45091-11.322.43531-23.99861,5.65899-38.02983,2.03155-5.32235,6.04608-14.39434,12.04325-27.21599,5.27224-11.322,8.89968-19.983,10.88267-25.9823v-.14539h.07267c2.32781-6.76748,3.46464-13.71074,3.40979-20.82946-.47723-100.27565,31.00949-157.58671,94.46086-171.93282h.07232c94.41335-25.56955,158.20954,8.75921,191.38822,102.98558Z" style="fill: #e26236;"/>
    <path d="M168.92322,81.14778h.07232c94.41335-25.56955,158.20954,8.75921,191.38822,102.98558v-.07269c15.93551,49.76842,15.11346,103.11209-2.46685,160.03068l-.07232.21773-.07267.21773c-2.18667,23.35555-11.06224,44.13643-26.62603,62.34298-13.83758,16.28472-32.09601,29.61452-54.77563,39.98941-20.61803,9.46342-42.60102,15.584-65.94827,18.36172-22.32502,2.68371-42.15558,1.93371-59.49134-2.24965-29.08939-7.03344-53.34534-18.86324-72.76819-35.48976-20.84406-17.74488-32.76644-38.47718-35.76747-62.19794h0c-1.45091-11.322.43531-23.99861,5.65899-38.02983,2.03155-5.32235,6.04608-14.39434,12.04325-27.21599,5.27224-11.322,8.89968-19.983,10.88267-25.9823v-.14539h.07267c2.32781-6.76748,3.46464-13.71074,3.40979-20.82946-.47723-100.27565,31.00949-157.58671,94.46086-171.93282h0Z" style="fill: url(#linear-gradient);"/>
  </g>
  <g id="Layer4_66_FILL" data-name="Layer4 66 FILL">
    <g style="mask: url(#mask-2);">
      <path d="M267.95445,265.34622c10.10883,11.85427,15.16307,26.22414,15.16307,43.11033,0,16.83761-5.05424,31.20784-15.16307,43.11033-10.10883,11.85392-22.27296,17.78088-36.4931,17.78088-14.268,0-26.45659-5.92696-36.56507-17.78088-10.10883-11.9025-15.16307-26.27272-15.16307-43.11033,0-16.88619,5.05424-31.25607,15.16307-43.11033,10.10848-11.85427,22.29707-17.78123,36.56507-17.78123,14.22014,0,26.38427,5.92696,36.4931,17.78123Z" style="fill: url(#radial-gradient-4);"/>
    </g>
  </g>
  <g>
    <g id="Layer4_67_FILL" data-name="Layer4 67 FILL">
      <path d="M213.03383,149.65957c-2.32187-7.25746-1.35448-14.03122,2.90181-20.3213,14.75222,19.30534,30.30203,32.68337,46.65014,40.1348-5.32045.5805-8.02907.84646-8.12584.79823-15.33216-.87092-29.14109-7.7415-41.42611-20.61172Z" style="fill: #1a1011;"/>
    </g>
    <g id="Layer4_67_1_STROKES" data-name="Layer4 67 1 STROKES">
      <path d="M211.45891,151.16411l-.34587-.36277-.15302-.47775c-2.52345-7.89283-1.4565-15.36312,3.17292-22.20539l1.69441-2.50478,1.8366,2.40273c14.46469,18.92789,29.88174,32.21017,45.82424,39.47461l-.66589,4.14632c-5.65934.61789-7.60075.8178-8.48499.79963v.00839c-15.8293-.89888-30.25591-8.05848-42.87841-21.28099ZM216.17601,133.19731c-2.45707,4.82363-2.8522,9.86848-1.21718,15.32608,11.74979,12.16356,25.078,18.74791,39.62514,19.5727.07791-.0028.20962-.01258.43216-.0311-13.49276-7.57095-26.52052-19.26375-38.84012-34.86767Z"/>
    </g>
  </g>
  <g id="Layer4_68_FILL" data-name="Layer4 68 FILL">
    <g style="mask: url(#mask-4);">
      <path d="M55.81684,308.45655c0-17.41846,4.57072-32.2238,13.71216-44.41672,9.14144-12.24115,20.1932-18.36172,33.15563-18.36172,12.8653,0,23.86885,6.12057,33.01029,18.36172,9.14144,12.19292,13.71216,26.99826,13.71216,44.41672,0,17.3213-4.57072,32.10287-13.71216,44.34402-9.14144,12.24115-20.14499,18.36172-33.01029,18.36172-12.96243,0-24.01419-6.12057-33.15563-18.36172-9.14144-12.24115-13.71216-27.02272-13.71216-44.34402Z" style="fill: url(#radial-gradient-6);"/>
    </g>
  </g>
  <g id="Layer4_69_FILL" data-name="Layer4 69 FILL">
    <path d="M191.99413,259.03203c4.25629,6.19327,11.29387,10.59611,21.11203,13.20888,8.3676,2.17731,17.67813,2.8305,27.93195,1.95958,9.67352-.87092,17.96846-2.80638,24.8848-5.80604,8.02907-3.5805,12.09181-7.69327,12.18859-12.33796v-.36312c-2.12832-18.53088-5.63488-33.98976-10.51968-46.37594-5.65899-14.51526-13.10741-24.62769-22.34563-30.33691-.04856-.04858-.09677-.07269-.14499-.07269-8.99646-4.7415-17.19462-5.08015-24.59483-1.01596-6.7228,3.43511-12.96243,10.66846-18.71784,21.70038-3.28891,6.33831-6.04608,14.36988-8.27083,24.09507h.07267c-2.99893,12.87023-3.65189,24.36138-1.95888,34.4738.09677.29042.21765.5805.36264.87092M222.24759,183.33513c6.09429-3.24185,12.88976-2.92731,20.38675.94327,8.41581,5.32235,15.28395,14.733,20.6044,28.2323,5.17512,13.20888,8.70613,28.20784,10.59235,44.99722-2.80539,4.161-8.00461,7.30604-15.59837,9.43511-4.59483,1.30603-10.44736,2.27377-17.55725,2.90284-9.72173.87092-18.54875.26596-26.48104-1.81454-9.47962-2.51596-15.88835-6.02377-19.22581-10.52342-1.25736-8.22519-.31443-19.18442,2.82949-32.87699,1.838-8.08015,4.35307-15.21704,7.5452-21.40995,5.17547-10.01561,10.81-16.64434,16.90429-19.88584Z" style="fill: #e26236;"/>
    <path d="M197.7981,224.63093c1.838-8.08015,4.35307-15.21704,7.5452-21.40995,5.17547-10.01561,10.81-16.64434,16.90429-19.88584,6.09429-3.24185,12.88976-2.92731,20.38675.94327,8.41581,5.32235,15.28395,14.733,20.6044,28.2323,5.17512,13.20888,8.70613,28.20784,10.59235,44.99722-2.80539,4.161-8.00461,7.30604-15.59837,9.43511-4.59483,1.30603-10.44736,2.27377-17.55725,2.90284-9.72173.87092-18.54875.26596-26.48104-1.81454-9.47962-2.51596-15.88835-6.02377-19.22581-10.52342-1.25736-8.22519-.31443-19.18442,2.82949-32.87699Z" style="fill: #fff;"/>
  </g>
  <g id="Layer4_69_MEMBER_0_MEMBER_0_FILL" data-name="Layer4 69 MEMBER 0 MEMBER 0 FILL">
    <path d="M219.96835,222.02803c3.48245-4.161,7.81141-6.31419,12.98653-6.45923,5.17547-.19362,9.69763,1.69327,13.56718,5.661,3.72421,4.01596,5.68309,8.92661,5.87629,14.733.19355,5.80604-1.47501,10.78938-5.00603,14.95073-3.57888,4.20923-7.95605,6.41065-13.13152,6.60427-5.17512.14504-9.64907-1.79008-13.42184-5.80604-3.82099-3.96738-5.82808-8.85427-6.02163-14.6603-.19355-5.80639,1.52357-10.81419,5.15101-15.02342Z"/>
  </g>
  <g id="Layer4_69_MEMBER_0_MEMBER_1_FILL" data-name="Layer4 69 MEMBER 0 MEMBER 1 FILL">
    <path d="M228.93266,244.75171c-1.42226-1.60415-2.16885-3.5812-2.24047-5.93185-.07127-2.351.55444-4.36964,1.87678-6.05662,1.24164-1.68453,2.79106-2.5551,4.64758-2.61137,1.85652-.05592,3.49608.71785,4.91834,2.32165,1.34156,1.60624,2.04797,3.58469,2.11924,5.93535.07127,2.351-.51391,4.36859-1.75555,6.05312-1.32234,1.68698-2.91194,2.5586-4.76846,2.61487-1.85687.05592-3.4559-.7189-4.79746-2.32514Z" style="fill: #fff;"/>
  </g>
  <g id="Layer4_69_MEMBER_0_MEMBER_2_FILL" data-name="Layer4 69 MEMBER 0 MEMBER 2 FILL">
    <path d="M236.91876,230.37973c-.70362-.79369-1.07289-1.77225-1.10818-2.93535-.03529-1.16344.2746-2.16228.92896-2.99686.61453-.83353,1.38103-1.2641,2.29986-1.29171.91848-.02761,1.7297.35543,2.43332,1.14946.66379.79508,1.01315,1.774,1.04844,2.93744.03529,1.16309-.25434,2.16158-.86887,2.99511-.65471.83458-1.44112,1.26549-2.35995,1.2931-.91848.02761-1.70978-.35613-2.37357-1.15121Z" style="fill: #fff;"/>
  </g>
  <g id="Layer4_70_FILL" data-name="Layer4 70 FILL">
    <path d="M107.76298,88.98609l-.87061,1.95923c.48387-.56372.96739-1.21692,1.45126-1.95923h-.58064M191.2685,112.79108l.87061,1.01596,1.37859-.29042c50.81595-13.7719,81.86771-5.44991,93.15494,24.96634h0c11.33824,30.53612,2.75298,83.34718-25.75541,158.43387l-.43566,1.16135,20.45942,27.57876,33.66325-85.20435c4.30486,21.09542,9.14144,38.27168,14.51011,51.52914,5.32045,13.01526,10.97944,21.89364,16.97696,26.63549l2.10387,1.81419,1.2336-2.61277c3.72421-8.12838,7.78696-14.36988,12.18824-18.72449,4.49805-4.45142,9.50408-7.11242,15.01808-7.98334l-.29032-2.10461-.29032-2.17731c-5.90075.82234-11.26941,3.43511-16.106,7.83796-4.73981,4.30639-8.85112,11.95107-12.33357,22.93407-5.80397-8.17661-11.05176-18.38584-15.74336-30.62699-4.78837-12.5798-9.11733-28.37734-12.98688-47.39225v-.07269s-1.66856-7.47519-1.66856-7.47519l-3.77243-.50815-33.6636,85.20435-14.36477-19.37768c14.80008-39.23941,24.57037-71.58448,29.31019-97.03451,5.03013-27.1433,4.66749-48.23906-1.08827-63.28625-5.80397-16.30569-17.29104-26.82911-34.4612-31.57095-16.97696-4.69327-38.79051-3.53192-65.44064,3.48369-13.88125-16.69257-27.69019-23.85322-41.42646-21.48265-5.03013.62908-11.58384,3.55638-19.66112,8.78192h.07267c-10.68912,6.9188-20.26587,15.9908-28.72989,27.21599-11.12443,14.80569-19.51613,32.70784-25.17512,53.70644-5.51365,20.46669-8.27083,43.40076-8.27083,68.80221-7.7363-25.84984-9.47753-50.7676-5.22368-74.75328,4.62871-26.30837,17.2044-53.71798,37.72635-82.22882h-.29032c-22.32362,23.10811-36.22933,50.27587-41.71643,81.50293-5.10804,28.68209-1.8677,58.68,9.72173,89.99443v.87092s.36264,0,.36264,0c.06219.07654.1345.14888.21765.21773.01956.04788.06778.09611.14534.14539.1394.16041.33294.28134.58029.36277.29975.1674.61418.2401.94328.21773h.14499c.32875-.03425.64318-.13106.94328-.29042.09293-.08038.1897-.17719.28997-.29007.05206-.02411.10062-.07234.14534-.14539.07616-.05347.14883-.12582.21765-.21773h.36264v-1.08865c.00175-.04788.00175-.09611,0-.14504v-.14504c-2.14754-55.7817,8.75924-99.69026,32.72032-131.72603,8.14855-10.86557,17.3382-19.59891,27.56931-26.20003h.07232c7.26082-4.75652,13.20978-7.49022,17.84758-8.20107h.07232c13.40996-2.05603,26.03386,4.25816,37.87133,18.94257Z"/>
    <path d="M132.64778,96.24355h.07267c-10.68912,6.9188-20.26587,15.9908-28.72989,27.21599-11.12443,14.80569-19.51613,32.70784-25.17512,53.70644-5.51365,20.46669-8.27083,43.40076-8.27083,68.80221-7.7363-25.84984-9.47753-50.7676-5.22368-74.75328,4.62871-26.30837,17.2044-53.71798,37.72635-82.22882h4.71571s-.87061,1.95923-.87061,1.95923c.48387-.56372.96739-1.21692,1.45126-1.95923h14.50976s0-12.12058,0-12.12058c64.87328-32.53694,130.57979-30.1419,197.11953,7.18511,59.92664,35.65926,91.994,102.16324,96.20209,199.51228-22.82915,5.61242-36.106,7.42696-39.83022,5.44327l-.29032-2.17731c-5.90075.82234-11.26941,3.43511-16.106,7.83796-4.73981,4.30639-8.85112,11.95107-12.33357,22.93407-5.80397-8.17661-11.05176-18.38584-15.74336-30.62699-4.78837-12.5798-9.11733-28.37734-12.98688-47.39225v-.07269s-1.66856-7.47519-1.66856-7.47519l-3.77243-.50815-33.6636,85.20435-14.36477-19.37768c14.80008-39.23941,24.57037-71.58448,29.31019-97.03451,5.03013-27.1433,4.66749-48.23906-1.08827-63.28625-5.80397-16.30569-17.29104-26.82911-34.4612-31.57095-16.97696-4.69327-38.79051-3.53192-65.44064,3.48369-13.88125-16.69257-27.69019-23.85322-41.42646-21.48265-5.03013.62908-11.58384,3.55638-19.66112,8.78192Z" style="fill: #251114;"/>
  </g>
  <g id="Layer4_70_MEMBER_0_FILL" data-name="Layer4 70 MEMBER 0 FILL">
    <path d="M278.9821,89.56659h.07267c20.07232,13.25711,33.76003,30.86918,41.06347,52.83552,8.80291,26.36918,7.52109,57.89156-3.84509,94.56678h-4.42573c11.26941-36.04614,12.57533-67.18128,3.91776-93.40578-3.82099-11.56384-9.16555-21.67591-16.03368-30.33691-6.43283-8.12838-14.02624-14.73265-22.78093-19.81315l-.07232-.07269c-13.92981-7.11242-29.5523-6.28973-46.86779,2.46773,17.60582-11.9993,33.92947-14.0798,48.97166-6.2415Z"/>
  </g>
  <g>
    <g id="Layer4_71_FILL" data-name="Layer4 71 FILL">
      <path d="M346.88925,322.89912c2.46685-14.80569,7.90819-26.44188,16.324-34.90926,8.31904-8.46703,18.18576-12.70073,29.60051-12.70073,11.41475,0,21.01525,4.23369,28.80256,12.70073,7.69019,8.46738,11.31797,18.67626,10.88267,30.62734-.43531,11.9993-4.81248,22.23265-13.13187,30.69968-7.73875,7.83831-17.62957,12.072-29.67317,12.70073-7.10989.38723-13.17973-.55638-18.21021-2.8305-7.88373-3.62873-12.8653-10.4025-14.94506-20.3213-.04856-.33865-1.52357-3.50781-4.42573-9.50746-2.80539-5.85461-4.54661-8.00746-5.22368-6.45923Z" style="fill: #fac0a2;"/>
    </g>
    <g id="Layer4_71_1_STROKES" data-name="Layer4 71 1 STROKES">
      <path d="M386.69641,364.27879c1.01909,0,2.05635-.02971,3.11457-.08632,12.54214-.65634,23.00802-5.14585,31.10487-13.34588,8.67609-8.8298,13.30411-19.64679,13.75758-32.1504.45627-12.48404-3.39511-23.30662-11.44654-32.17032-8.18873-8.90494-18.41809-13.41403-30.41313-13.41403-11.96674,0-22.44799,4.49231-31.15273,13.35147-8.69321,8.74627-14.38818,20.88712-16.91897,36.0769l4.29333.7175c2.38056-14.28286,7.66887-25.63141,15.7203-33.73253,7.86592-8.00466,17.30292-12.05872,28.05807-12.05872,10.87813,0,19.77571,3.92509,27.20073,11.99791,7.24929,7.98195,10.72091,17.7669,10.30866,29.07282-.41225,11.38421-4.62068,21.22577-12.50791,29.25315-7.30589,7.39935-16.80682,11.4562-28.2352,12.05313-6.72769.37151-12.5121-.52318-17.2009-2.64073-7.272-3.34669-11.76236-9.49453-13.71076-18.78356l-4.25979.89329c2.21916,10.58563,7.65909,17.9371,16.16539,21.85206,4.5812,2.07106,9.99109,3.11428,16.12242,3.11428Z" style="fill: #e26236;"/>
    </g>
  </g>
  <g id="Layer4_71_MEMBER_0_FILL" data-name="Layer4 71 MEMBER 0 FILL">
    <path d="M359.34545,321.49523c0-8.2161,2.72818-15.21144,8.18453-20.98603,5.45636-5.77423,12.03277-8.66135,19.72925-8.66135,7.66748,0,14.22957,2.88712,19.68593,8.66135,5.45636,5.77458,8.18453,12.76992,8.18453,20.98603,0,8.18744-2.72818,15.18279-8.18453,20.98568-5.45636,5.77458-12.01845,8.6617-19.68593,8.6617-7.69647,0-14.27289-2.88712-19.72925-8.6617-5.45636-5.80289-8.18453-12.79823-8.18453-20.98568Z" style="fill: url(#radial-gradient-7);"/>
  </g>
  <g id="Layer4_71_MEMBER_1_FILL" data-name="Layer4 71 MEMBER 1 FILL">
    <path d="M399.85099,313.97217c-.1932-1.25781-.55619-2.25-1.08827-2.97554-1.69651-2.17276-5.00987-3.01957-9.93939-2.54008-4.96969.46936-8.66945,2.8644-11.09997,7.18476-.91917-2.37057-1.08827-4.88653-.50797-7.54788.53208-2.41915,1.52357-4.40284,2.97448-5.95107,1.74123-1.74185,4.52251-3.26596,8.3435-4.57235,2.56328-.91915,6.74725-2.03227,12.55123-3.33865-11.31797-.33865-19.00851,1.64504-23.07126,5.95142-4.55744,4.6052-5.50038,10.67719-2.82914,18.21669.02446.04963.04891.09786.07232.14504v.07269c-2.90181,7.20923-2.97448,12.60392-.21765,16.18442,1.25771,1.98369,3.45835,3.53192,6.60227,4.64504,3.04715,1.06419,6.38427,1.52377,10.01171,1.37873,5.41723-.19362,10.22971-2.17731,14.43779-5.95107,4.98157-4.35461,7.27899-9.87058,6.89224-16.54753-2.41829,11.56384-8.48848,18.11988-18.21021,19.66811-3.62744.58085-7.15845.33865-10.59235-.72554-3.19248-1.01631-5.27224-2.37092-6.23928-4.06454-1.64445-2.75781-1.76568-6.94292-.36299-12.55569,8.7547,2.0805,14.77632,2.34681,18.06523.79858,2.22475-1.06454,3.55477-2.51596,3.99008-4.35461.29032-.87092.36299-1.91135.21765-3.12092M389.18632,319.41543c-4.93371.24185-8.31939-.31454-10.15704-1.66915,2.17653-3.96773,5.48955-6.29008,9.93939-6.96738,4.25629-.5805,6.7469.50815,7.47253,3.26596.58029,3.3383-1.838,5.12873-7.25488,5.37057Z" style="fill: #e26236;"/>
  </g>
  <g id="Layer4_71_MEMBER_2_FILL" data-name="Layer4 71 MEMBER 2 FILL">
    <path d="M348.12251,329.50339l10.73768-3.12057,2.75683,1.74185,8.05317,26.05464c-6.57781-3.14469-13.76037-11.37023-21.54768-24.67591Z" style="fill: #fac0a2;"/>
  </g>
  <g id="Layer4_71_MEMBER_3_FILL" data-name="Layer4 71 MEMBER 3 FILL">
    <path d="M361.83467,295.10229l-10.22936,25.47449v2.90284s-7.83552,1.08865-7.83552,1.08865c5.3201-11.70888,11.34173-21.53088,18.06488-29.46599Z" style="fill: #fac0a2;"/>
  </g>
  <g>
    <g id="Layer4_72_FILL" data-name="Layer4 72 FILL">
      <path d="M124.37695,153.21595c-8.02872.19327-14.24389-.65319-18.64517-2.54008,14.31656-4.88688,28.87488-11.92696,43.67531-21.11988.53208,5.80604-.14534,11.61207-2.03155,17.41846-4.98192,2.95142-12.648,5.03192-22.99859,6.2415Z" style="fill: #1a1011;"/>
    </g>
    <g id="Layer4_72_1_STROKES" data-name="Layer4 72 1 STROKES">
      <path d="M104.87479,152.67669l-5.20447-2.23288,5.35888-1.82992c14.09506-4.81104,28.63906-11.84448,43.22987-20.90809l2.99439-1.85962.32141,3.51095c.55549,6.07829-.16001,12.23171-2.12972,18.29008l-.25504.7811-.70571.41939c-5.2967,3.137-13.09868,5.27342-23.85523,6.53052l-.19984.01433c-.78502.01852-1.55013.02831-2.29951.02831-7.30065,0-12.96138-.90308-17.25506-2.74418ZM145.5557,145.50381c1.23255-4.04112,1.85058-8.11929,1.84778-12.17195-11.60969,6.98695-23.18515,12.70806-34.53247,17.06827,3.21519.52563,7.01417.73847,11.35291.64061,9.45727-1.11137,16.62865-2.97379,21.33178-5.53693Z"/>
    </g>
  </g>
  <g id="Layer4_73_FILL" data-name="Layer4 73 FILL">
    <path d="M85.19969,223.76h.07267c-2.56328,11.61207-3.14392,21.96634-1.74123,31.06245.09677.24219.21765.48404.36299.72589,3.57888,5.61277,9.52819,9.58015,17.84723,11.9025,7.06168,1.98369,14.94541,2.58865,23.65155,1.81454,8.1737-.82269,15.18717-2.56454,21.03936-5.22554,6.77171-3.24185,10.2056-6.94327,10.30238-11.10427v-.36277c-1.838-16.69257-4.78837-30.60322-8.85112-41.73125-4.83659-13.06384-11.17299-22.15995-19.00816-27.28868l-.07267-.07269c-7.59341-4.25781-14.53421-4.57235-20.82205-.94362-5.7072,3.09681-10.97944,9.60427-15.81603,19.52307-2.80504,5.70958-5.12691,12.94292-6.96491,21.70038M109.5042,187.47202c5.12691-2.95177,10.85856-2.68546,17.19462.79823,7.15811,4.79008,12.98653,13.28122,17.48459,25.47414,5.12691,14.03157,8.39171,27.53053,9.7944,40.49756-2.37008,3.72554-6.9167,6.55604-13.63949,8.4915-3.96632,1.16135-9.04467,2.03192-15.23574,2.61277-8.22227.77411-15.71925.21773-22.49061-1.66915-7.98051-2.27412-13.37363-5.41915-16.17867-9.43511-1.11272-7.40284-.31443-17.27307,2.39419-29.61103,1.54768-7.25781,3.65155-13.69292,6.31195-19.30534,4.40128-8.9993,9.18965-14.95073,14.36477-17.85357Z" style="fill: #e26236;"/>
    <path d="M88.82748,224.63093c1.54768-7.25781,3.65155-13.69292,6.31195-19.30534,4.40128-8.9993,9.18965-14.95073,14.36477-17.85357,5.12691-2.95177,10.85856-2.68546,17.19462.79823,7.15811,4.79008,12.98653,13.28122,17.48459,25.47414,5.12691,14.03157,8.39171,27.53053,9.7944,40.49756-2.37008,3.72554-6.9167,6.55604-13.63949,8.4915-3.96632,1.16135-9.04467,2.03192-15.23574,2.61277-8.22227.77411-15.71925.21773-22.49061-1.66915-7.98051-2.27412-13.37363-5.41915-16.17867-9.43511-1.11272-7.40284-.31443-17.27307,2.39419-29.61103Z" style="fill: #fff;"/>
  </g>
  <g id="Layer4_73_MEMBER_0_MEMBER_0_FILL" data-name="Layer4 73 MEMBER 0 MEMBER 0 FILL">
    <path d="M145.5316,232.11599c.14499,5.22554-1.25736,9.70107-4.20773,13.42661-3.04715,3.77412-6.77136,5.75781-11.17299,5.95142-4.40128.14504-8.19816-1.59681-11.39029-5.22554-3.19248-3.5805-4.88515-7.98334-5.07869-13.20888-.14499-5.22554,1.30592-9.72519,4.35307-13.4993,2.95037-3.77377,6.60227-5.70923,10.95534-5.80604,4.44949-.19362,8.29493,1.5,11.53528,5.0805,3.14392,3.62873,4.81248,8.05569,5.00603,13.28122Z"/>
  </g>
  <g id="Layer4_73_MEMBER_0_MEMBER_1_FILL" data-name="Layer4 73 MEMBER 0 MEMBER 1 FILL">
    <path d="M125.88411,240.0186c-1.20356-1.44338-1.83521-3.22297-1.89565-5.33877-.06044-2.11545.46885-3.93243,1.58786-5.45061,1.05054-1.51643,2.36135-2.29963,3.93208-2.3503,1.57109-.05033,2.95806.64585,4.16127,2.08959,1.13508,1.44548,1.73284,3.22612,1.79328,5.34192.06009,2.11545-.43496,3.93138-1.48549,5.44746-1.11901,1.51852-2.46371,2.30277-4.03445,2.35345-1.57109.05033-2.92382-.6469-4.0589-2.09273Z" style="fill: #fff;"/>
  </g>
  <g id="Layer4_73_MEMBER_0_MEMBER_2_FILL" data-name="Layer4 73 MEMBER 0 MEMBER 2 FILL">
    <path d="M132.44131,227.03059c-.59532-.71435-.908-1.59506-.93769-2.64213-.0297-1.04672.23233-1.94595.78607-2.697.51985-.75035,1.16862-1.13758,1.94595-1.1624.77733-.02481,1.46348.31978,2.0588,1.03448.56178.7154.85734,1.59681.88703,2.64352.0297,1.04706-.21556,1.9456-.73541,2.6956-.55374.7514-1.21928,1.13933-1.99661,1.16414-.77733.02481-1.44671-.32048-2.00814-1.03623Z" style="fill: #fff;"/>
  </g>
  <g id="Layer4_119_MEMBER_0_FILL" data-name="Layer4 119 MEMBER 0 FILL">
    <path d="M442.29304,227.02596l.43531,4.57235c-5.27189-38.65891-16.32365-68.63306-33.15528-89.92209-7.78731-9.87023-17.48494-18.94222-29.09288-27.21599-9.81851-7.01596-22.39384-14.39434-37.72635-22.13584,16.05814,6.14469,29.09288,12.21703,39.10494,18.21669,11.99504,7.20923,21.88587,15.483,29.67317,24.82095,16.9284,20.3213,27.18221,50.87594,30.76109,91.66393Z"/>
  </g>
  <g id="Layer4_119_MEMBER_1_FILL" data-name="Layer4 119 MEMBER 1 FILL">
    <path d="M372.20936,122.734c-4.06275-4.16135-9.89117-8.661-17.48459-13.4993-9.52819-5.99965-16.25133-10.572-20.16909-13.71704,12.38214,6.33831,21.08792,10.95923,26.1184,13.86207,8.31904,4.74185,14.80008,9.70107,19.44347,14.87838,5.65864,6.33831,10.22936,14.61172,13.71181,24.82095,3.676,10.88654,6.62637,25.32911,8.85112,43.32806-8.36725-34.06245-18.52429-57.28694-30.47112-69.67313Z"/>
  </g>
  <g>
    <g id="Symbol_16_0_Layer3_0_FILL" data-name="Symbol 16 0 Layer3 0 FILL">
      <path d="M182.7077,300.98102l.14499.14539-.07267-.21773-.07232.07234M142.87748,303.52109v.07269c7.44843,2.17731,15.06629,2.58865,22.85325,1.23369,5.22368-.91915,10.81-2.44327,16.75931-4.572l-13.20419-38.39295.79795-.72589-1.37859-.21773c-.1932-.14504-.38675-.26596-.58029-.36277-9.3832-2.56454-18.40341-3.62873-27.06133-3.19327h-.07232c-10.68912.48369-17.31549,4.06419-19.87912,10.74115-2.17618,6.04788-1.23325,12.7493,2.82949,20.10357h.07267c4.30486,7.79008,10.59235,12.89434,18.86317,15.31349Z" style="fill: #fac0a2;"/>
      <path d="M119.95156,290.09448c-4.64339-8.46703-5.65899-16.23265-3.04715-23.29684,2.8536-8.4188,10.66501-12.89434,23.4339-13.42661,8.89933-.38688,18.16165,2.00781,27.78661,7.18511-9.3832-2.56454-18.40341-3.62873-27.06133-3.19327h-.07232c-10.68912.48369-17.31549,4.06419-19.87912,10.74115-2.17618,6.04788-1.23325,12.7493,2.82949,20.10357h.07267c4.30486,7.79008,10.59235,12.89434,18.86317,15.31349v.07269c7.44843,2.17731,15.06629,2.58865,22.85325,1.23369,5.22368-.91915,10.81-2.44327,16.75931-4.572.77384-.29042,1.52357-.55638,2.2492-.79858l-1.95923,1.45177-.07232.07234c-5.46544,4.20958-10.88267,6.79823-16.25133,7.76561-8.75435,1.5-17.17016,1.04042-25.24744-1.37873-9.28643-2.70958-16.37221-8.46738-21.25736-17.27342Z" style="fill: #e26236;"/>
    </g>
    <g style="mask: url(#mask-6);">
      <g id="Symbol_16_0_Layer2_0_FILL" data-name="Symbol 16 0 Layer2 0 FILL">
        <g style="mask: url(#mask-7);">
          <path d="M100.08956,278.73439c0-11.92696,3.95514-22.07433,11.86578-30.44176,7.91063-8.36778,17.4486-12.55184,28.61425-12.55184,11.12757,0,20.64667,4.18406,28.55731,12.55184,7.91063,8.36743,11.86578,18.5148,11.86578,30.44176,0,11.85077-3.95514,21.97927-11.86578,30.38479-7.91063,8.36778-17.42974,12.55149-28.55731,12.55149-11.16565,0-20.70362-4.18371-28.61425-12.55149-7.91063-8.40552-11.86578-18.53402-11.86578-30.38479Z" style="fill: url(#radial-gradient-9);"/>
        </g>
      </g>
    </g>
    <g id="Symbol_16_0_Layer0_0_FILL" data-name="Symbol 16 0 Layer0 0 FILL">
      <path d="M182.7077,300.98102l.07232-.07234.07267.21773-.14499-.14539Z" style="fill: #fac0a2;"/>
      <path d="M116.90442,266.79764c2.8536-8.4188,10.66501-12.89434,23.4339-13.42661,8.89933-.38688,18.16165,2.00816,27.78661,7.18511-9.3832-2.56419-18.40341-3.62873-27.06133-3.19327h-.07232c-10.68912.48369-17.31549,4.06419-19.87912,10.74115-2.17618,6.04823-1.23325,12.7493,2.82949,20.10357h.07267c4.30451,7.79008,10.59235,12.89434,18.86317,15.31384v.07234c7.44843,2.17731,15.06629,2.58865,22.85325,1.23404,5.22368-.9195,10.81-2.44362,16.75931-4.57235.77384-.29042,1.52357-.55638,2.24885-.79858l-1.95888,1.45177-.07232.07234c-5.46544,4.20958-10.88267,6.79823-16.25133,7.76561-8.75435,1.5-17.17016,1.04042-25.24744-1.37873-9.28678-2.70958-16.37221-8.46738-21.25736-17.27307-4.64339-8.46738-5.65899-16.233-3.04715-23.29719Z" style="fill: #e26236;"/>
    </g>
  </g>
  <g>
    <path d="M170.69729,404.78684c-25.19154,1.34063-53.86938-7.7754-66.19841-19.30359-12.32868-11.52819-5.02524-21.51515,6.63336-19.30324,14.41438,2.73509,28.66701.93767,48.64325-4.62477,19.49762-5.42894,37.18623-23.5261,50.3188-23.5261,13.13292,0,23.43145,9.91426,23.0482,23.3248-.80389,28.15122-37.25366,42.09193-62.4452,43.43291Z" style="fill: #2b1010;"/>
    <g>
      <path d="M221.36021,350.0246c-1.90089,6.63886-93.476,30.55989-100.62922,23.04521-1.23779-1.29939-2.56537-3.25338-2.53743-6.89888,17.61734,3.63816,45.34387-5.82211,45.34387-5.82211,0,0,47.06518-31.47729,57.2086-19.08936,1.07744,3.00594,1.24862,6.55079.61418,8.76515Z" style="fill: #fff;"/>
      <path d="M222.15012,350.25072c-1.40724,4.91519-37.57193,15.18523-62.03226,20.40448-16.23666,3.46482-36.353,6.79509-39.98184,2.98183-1.23255-1.2938-2.56642-4.46785-2.74879-8.00851.53033-.60741,2.52939,1.69956,3.09955,1.11626-.29207,3.82689-.2746,4.58877.83917,5.75781,1.81669,1.9089,12.87089,2.00291,38.44918-3.45538,31.15797-6.64865,59.95145-16.30324,60.79516-19.24872.61383-2.14376.40247-5.90459-.82031-8.87524.67742.22612,1.3433.46866,2.00395.72134.94223,3.08597.99638,6.5092.39618,8.60613Z" style="fill: #a4a3a3;"/>
    </g>
    <path d="M123.17759,389.67221c2.48223-6.21249,93.08646-20.29264,99.24469-12.34844,1.06591,1.37349.56108,4.78623.17678,8.29683-17.45419,15.39108-48.8913,18.75839-48.8913,18.75839,0,0-30.35513,2.07561-50.79673-7.65063-.74414-3.00245-.56178-4.98404.26656-7.05615Z" style="fill: #fff;"/>
    <path d="M122.43833,389.37654c1.838-4.59926,37.6998-10.95294,61.7863-13.58633,15.98791-1.74779,35.70249-2.98602,38.82684,1.04497,1.06102,1.36789.58483,3.10624.414,6.53681-.57051.53332-1.15744,1.05405-1.76394,1.56046.6561-3.65948,1.05054-5.88432.09188-7.12046-1.56375-2.01759-12.2092-3.19187-37.39585-.43826-30.68214,3.35438-59.37919,9.83737-60.48108,12.59343-.80109,2.00606-.96599,5.65156-.07861,8.63479-.6306-.28448-1.24862-.58364-1.86036-.89189-.6058-3.0664-.32316-6.37116.46081-8.33353Z" style="fill: #a4a3a3;"/>
    <path d="M240.91408,347.41323c.04192-.16111,2.26213-2.3891.7382-7.16764-3.19633-9.63991-12.1002-8.19828-12.26126-8.2486.74554.4781,3.29415,1.80371,5.29355,3.80382,6.10058,5.13467,6.16591,11.45131,6.2295,11.61242Z" style="fill: #e26236;"/>
    <path d="M103.40152,386.65858c-5.86406-5.48346-8.1503-11.35869-6.27212-16.12011,1.67205-4.24173,6.92333-7.33819,14.30259-5.93884,4.36739.82863,8.69356,1.23159,13.22725,1.23159,9.5198,0,20.21661-1.79706,34.68444-5.82561,19.38582-5.39853,36.91198-23.58516,50.75061-23.58516,14.23516,0,25.05843,10.84949,24.65632,24.97997-.86677,30.3432-39.69711,43.70062-63.96843,44.99267-1.66297.08877-3.37764.1335-5.09581.1335-23.39512,0-50.17312-8.54113-62.28484-19.86802ZM160.2073,363.10487c-21.87818,6.09122-35.33286,7.31827-49.37517,4.65552-.98276-.18628-1.95015-.28134-2.87806-.28134-8.40533,0-12.29759,7.5332-2.3575,16.82922,11.58454,10.83237,37.41856,19.00094,60.08979,19.00094,1.66157,0,3.31965-.04299,4.92602-.12861,24.83869-1.32211,60.16072-15.18698,60.92198-41.8728.3546-12.34914-9.052-21.66997-21.44008-21.66997-12.38703,0-30.32718,18.01958-49.88699,23.46704Z" style="fill: #e26236;"/>
    <path d="M93.64451,360.34881c-2.15662-.01048-4.47814.4442-6.44436,3.97437-2.45323,4.27318-.55199,7.39341-.523,7.55452,3.66762-6.59168,3.29624-5.92661,3.32279-5.97414,2.79491-5.05569,3.46359-5.29509,3.64456-5.55475Z" style="fill: #e26236;"/>
    <path d="M181.68511,414.57284c-10.20036,1.16973-14.82349,1.52377-31.15587-.1342,3.56875,1.81768,5.23346,3.24814,12.51105,4.15506,7.27479.72973,13.32018-.73043,18.64482-4.02085Z" style="fill: #e26236;"/>
  </g>
</svg>