<?xml version="1.0" encoding="UTF-8"?>
<svg id="Layer_1" xmlns="http://www.w3.org/2000/svg" version="1.1" viewBox="0 0 125 125">
  <!-- Generator: Adobe Illustrator 29.3.1, SVG Export Plug-In . SVG Version: 2.1.0 Build 151)  -->
  <g>
    <g>
      <path d="M93.65,94.44l-.02,7.83c0,.89-.59,1.78-1.77,2.47l-11.22,6.49-13.39,7.75c-1.36.79-3.21,1.12-4.99,1-1.32-.09-2.59-.42-3.6-1l-15.78-9.08-8.98-5.16c-1.2-.69-1.79-1.59-1.79-2.5l.02-7.82c0-.9.59-1.79,1.77-2.47l24.6-14.24c2.37-1.37,6.21-1.37,8.6,0l24.76,14.24c1.24.71,1.83,1.65,1.79,2.58,0-.03,0-.06,0-.09Z" fill="#ffc239"/>
      <g>
        <path d="M91.86,91.95c2.38,1.37,2.39,3.59.03,4.96l-24.6,14.24c-2.37,1.37-6.22,1.37-8.6,0l-24.76-14.24c-2.38-1.37-2.39-3.59-.03-4.96l24.6-14.24c2.37-1.37,6.22-1.37,8.6,0l24.76,14.24Z" fill="#ffc239"/>
        <g>
          <path d="M33.93,96.91c-1.2-.69-1.79-1.59-1.79-2.49l-.02,7.82c0,.9.59,1.81,1.79,2.5l8.98,5.16.02-7.83-8.98-5.16Z" fill="#efa003"/>
          <path d="M58.69,111.15l-15.78-9.08-.02,7.83,15.78,9.08c1.01.58,2.29.91,3.61,1l.02-7.83c-1.32-.09-2.59-.42-3.61-1Z" fill="#f9ac00"/>
          <path d="M67.29,111.15c-1.36.79-3.21,1.12-4.99,1l-.02,7.83c1.78.12,3.63-.21,4.99-1l13.39-7.75.02-7.83-13.38,7.75Z" fill="#efa003"/>
          <path d="M91.89,96.91l-11.22,6.49-.02,7.83,11.22-6.49c1.17-.68,1.76-1.57,1.77-2.47l.02-7.83c0,.89-.59,1.78-1.77,2.47Z" fill="#f9ac00"/>
        </g>
      </g>
    </g>
    <path d="M93.65,84.93l-.02,7.83c0,.89-.59,1.78-1.77,2.47l-11.22,6.49-13.39,7.75c-1.36.79-3.21,1.12-4.99,1-1.32-.09-2.59-.42-3.6-1l-15.78-9.08-8.98-5.16c-1.2-.69-1.79-1.59-1.79-2.5l.02-7.82c0-.9.59-1.79,1.77-2.47l24.6-14.24c2.37-1.37,6.21-1.37,8.6,0l24.76,14.24c1.24.71,1.83,1.65,1.79,2.58,0-.03,0-.06,0-.09Z" fill="#a45848"/>
    <path d="M91.86,82.43c2.38,1.37,2.39,3.59.03,4.96l-24.6,14.24c-2.37,1.37-6.22,1.37-8.6,0l-24.76-14.24c-2.38-1.37-2.39-3.59-.03-4.96l24.6-14.24c2.37-1.37,6.22-1.37,8.6,0l24.76,14.24Z" fill="#a45848"/>
    <g>
      <path d="M33.93,87.39c-1.2-.69-1.79-1.59-1.79-2.49l-.02,7.82c0,.9.59,1.81,1.79,2.5l8.98,5.16.02-7.83-8.98-5.16Z" fill="#8e443a"/>
      <path d="M58.69,101.63l-15.78-9.08-.02,7.83,15.78,9.08c1.01.58,2.29.91,3.61,1l.02-7.83c-1.32-.09-2.59-.42-3.61-1Z" fill="#7f3a33"/>
      <path d="M67.29,101.63c-1.36.79-3.21,1.12-4.99,1l-.02,7.83c1.78.12,3.63-.21,4.99-1l13.39-7.75.02-7.83-13.38,7.75Z" fill="#8e443a"/>
      <path d="M91.89,87.39l-11.22,6.49-.02,7.83,11.22-6.49c1.17-.68,1.76-1.57,1.77-2.47l.02-7.83c0,.89-.59,1.78-1.77,2.47Z" fill="#7f3a33"/>
    </g>
    <g opacity=".13">
      <path d="M52.64,71.59v26.56l-2.61-1.5v-23.55l2.61-1.51Z" fill="#fff"/>
      <path d="M74.73,72.58v24.74l-7.45,4.31c-2.37,1.37-6.21,1.37-8.6,0l-1.64-.94v-31.66l1.45-.84c2.37-1.37,6.21-1.37,8.6,0l7.63,4.39Z" fill="#fff"/>
    </g>
    <g>
      <g>
        <path d="M79.05,81.22l-.02,4.05c0,2.37-1.57,4.73-4.69,6.54-6.29,3.64-16.5,3.64-22.82,0-3.18-1.83-4.77-4.24-4.77-6.63l.02-4.05s0,.01,0,.02c0-2.38,1.56-4.75,4.69-6.56,6.28-3.64,16.5-3.64,22.82,0,3.27,1.88,4.86,4.37,4.76,6.84,0-.07,0-.14,0-.21Z" fill="#f0f0f7"/>
        <g isolation="isolate">
          <path d="M79.05,81.22l-.02,4.05c0,2.37-1.57,4.73-4.69,6.54-6.28,3.64-16.5,3.64-22.82,0-3.18-1.83-4.77-4.23-4.77-6.63l.02-4.05c0,2.4,1.58,4.8,4.77,6.63,6.32,3.64,16.54,3.64,22.82,0,3.12-1.81,4.68-4.17,4.69-6.54Z" fill="#eaeaef"/>
          <path d="M62.5,90.48c-3.98-.07-7.92-.97-10.97-2.72-3.18-1.83-4.77-4.23-4.77-6.63l-.02,4.05c0,2.4,1.58,4.8,4.77,6.63,3.05,1.75,7.01,2.66,10.99,2.72v-4.05Z" fill="#d7d7e2"/>
          <ellipse cx="62.91" cy="81.17" rx="9.31" ry="16.14" transform="translate(-18.45 143.83) rotate(-89.83)" fill="#f0f0f7"/>
          <ellipse cx="62.91" cy="81.17" rx="6.07" ry="10.51" transform="translate(-18.45 143.83) rotate(-89.83)" fill="#d7d7e2"/>
        </g>
      </g>
      <g isolation="isolate">
        <path d="M70.04,35.86l-.13,44.25c0,1.04-.69,2.08-2.06,2.87-2.76,1.6-7.24,1.6-10.02,0-1.4-.8-2.09-1.86-2.09-2.91l.13-44.25c0,1.05.69,2.11,2.09,2.91,2.77,1.6,7.26,1.6,10.02,0,1.37-.79,2.06-1.83,2.06-2.87Z" fill="#3c4043"/>
        <path d="M70.04,35.86l-.12,44.25c0,1.04-.69,2.08-2.06,2.87-2.76,1.6-7.24,1.6-10.02,0-1.4-.8-2.1-1.85-2.09-2.91v-1.36c4.64-.99,8.11-5.1,8.11-10.01s-3.44-8.99-8.05-10.01l.07-22.86c0,1.05.7,2.1,2.09,2.9,2.78,1.6,7.26,1.6,10.02,0,1.37-.79,2.06-1.83,2.06-2.87Z" fill="#303335"/>
        <ellipse cx="62.97" cy="35.84" rx="4.09" ry="7.08" transform="translate(26.94 98.7) rotate(-89.83)" fill="#3c4043"/>
      </g>
    </g>
  </g>
  <g>
    <path d="M80.5,41.71c-.78,1.1-1.1,2.44-.8,3.33l5.96,17.36c.51,1.5-.73,3.79-2.13,4.59-.44.25-.89.36-1.31.25l-15.45-3.96c-.39-.1-.85,0-1.31.26-.46.27-.92.7-1.32,1.25l-15.39,21.71c-.42.59-.87,1-1.31,1.25-.67.39-1.31.39-1.74.05.04.03.08.07.13.09l-5.73-3.32c-.54-.31-.83-1.09-.54-2.26l3.02-12.48,2.82-11.67c.03-.11.05-.22.06-.33l-10.61-2.72c-.14-.04-.26-.09-.37-.17l-5.67-3.26c-1.34-.78-.43-4.1,1.6-5.26l10.76-6.19,8.31-4.78c.96-.55,1.82-1.77,2.13-3l2.94-12.17,2.89-11.98c.33-1.36,1.22-2.47,2.11-2.98.58-.34,1.17-.42,1.59-.18l5.73,3.31c.24.14.43.37.55.72l4.57,13.32,11.28-6.49,5.57-3.2c.65-.38,1.19-.39,1.57-.16l5.74,3.31c-.07-.04-.16-.07-.24-.09,1.1.32,1.3,2.28-.02,4.14l-15.4,21.72Z" fill="#ffc239"/>
    <g>
      <path d="M68.19,23.94l5.73,3.32c.42.23.98.19,1.58-.16l13.51-7.77-5.74-3.32-13.5,7.77c-.61.35-1.18.39-1.58.16Z" fill="#efa003"/>
      <path d="M51.14,61.48c.26-1.08.03-1.96-.56-2.29l-5.73-3.32c.58.35.8,1.21.54,2.29l-2.82,11.67,5.74,3.32,2.82-11.67Z" fill="#efa003"/>
      <path d="M48.31,73.14l-5.74-3.32-3.02,12.48c-.28,1.17,0,1.96.54,2.27l5.73,3.32c-.54-.31-.81-1.09-.53-2.28l3.02-12.47Z" fill="#f9ac00"/>
      <path d="M57.34,35.61l2.94-12.18-5.73-3.31-2.94,12.17c-.31,1.23-1.16,2.44-2.13,3l-8.31,4.78,5.74,3.32,8.3-4.78c.98-.57,1.83-1.77,2.13-3Z" fill="#efa003"/>
      <g>
        <path d="M63.18,11.62c.33-1.38,1.22-2.47,2.13-3,.57-.32,1.15-.42,1.58-.16l-5.74-3.32c-.42-.24-1-.16-1.58.18-.89.51-1.79,1.62-2.11,2.98l-2.9,11.98,5.73,3.31,2.89-11.98Z" fill="#f9ac00"/>
        <path d="M30.41,46.42c-2.03,1.16-2.94,4.48-1.6,5.26l5.74,3.31c-1.34-.77-.43-4.09,1.6-5.25l10.76-6.19-5.74-3.32-10.76,6.19Z" fill="#f9ac00"/>
      </g>
    </g>
    <path d="M65.3,8.63c.89-.51,1.79-.44,2.13.55l5.96,17.37c.3.89,1.16,1.11,2.12.55l19.07-10.97c2.16-1.24,3.07,1.41,1.33,3.87l-15.4,21.72c-.78,1.1-1.1,2.44-.8,3.33l5.96,17.36c.51,1.5-.73,3.79-2.13,4.59-.44.25-.89.36-1.3.25l-15.46-3.96c-.39-.1-.85,0-1.31.26-.46.27-.92.69-1.32,1.25l-15.39,21.71c-.42.59-.87,1-1.31,1.25-1.4.8-2.65-.05-2.14-2.13l5.84-24.15c.29-1.23-.04-2.19-.82-2.39l-15.46-3.97c-1.75-.45-.86-4.14,1.3-5.38l19.07-10.97c.97-.56,1.82-1.76,2.12-3l5.84-24.15c.33-1.37,1.22-2.47,2.12-2.99Z" fill="#ffc239"/>
    <path d="M94.57,16.12c.65-.38,1.19-.39,1.58-.18l-5.74-3.31c-.38-.23-.92-.22-1.57.16l-5.57,3.2,5.74,3.32,5.56-3.2Z" fill="#f9ac00"/>
  </g>
</svg>