<?xml version="1.0" encoding="UTF-8"?>
<svg id="Layer_1" data-name="Layer 1" xmlns="http://www.w3.org/2000/svg" xmlns:xlink="http://www.w3.org/1999/xlink" viewBox="0 0 500 500">
  <defs>
    <radialGradient id="radial-gradient" cx="-5245.3498" cy="-36212.9796" fx="-5245.3498" fy="-36212.9796" r="117.73267" gradientTransform="translate(-1006.59907 -6742.92035) rotate(179.76396) scale(.19465)" gradientUnits="userSpaceOnUse">
      <stop offset="0" stop-color="#dd4c29"/>
      <stop offset="1" stop-color="#e67639"/>
    </radialGradient>
    <radialGradient id="radial-gradient-2" cx="1471.29727" cy="-36221.6608" fx="1471.29727" fy="-36221.6608" r="117.73262" gradientTransform="translate(139.50756 -6747.48389) rotate(-.23604) scale(.19465 -.19471)" xlink:href="#radial-gradient"/>
    <linearGradient id="linear-gradient" x1="588.0038" y1="-7117.26425" x2="589.47314" y2="-7199.24526" gradientTransform="translate(-364.69475 -6770.54644) rotate(-.23573) scale(1.00002 -1.00002)" gradientUnits="userSpaceOnUse">
      <stop offset=".01176" stop-color="#e67638"/>
      <stop offset="1" stop-color="#dd512a"/>
    </linearGradient>
    <filter id="luminosity-noclip" x="250.42316" y="230.89041" width="150.2346" height="150.28489" color-interpolation-filters="sRGB" filterUnits="userSpaceOnUse">
      <feFlood flood-color="#fff" result="bg"/>
      <feBlend in="SourceGraphic" in2="bg"/>
    </filter>
    <filter id="luminosity-noclip-2" x="250.42316" y="-4592" width="150.2346" height="32766" color-interpolation-filters="sRGB" filterUnits="userSpaceOnUse">
      <feFlood flood-color="#fff" result="bg"/>
      <feBlend in="SourceGraphic" in2="bg"/>
    </filter>
    <mask id="mask-1" x="250.42316" y="-4592" width="150.2346" height="32766" maskUnits="userSpaceOnUse"/>
    <radialGradient id="radial-gradient-3" cx="-828.37327" cy="-20526.43744" fx="-828.37327" fy="-20526.43744" r="363.11717" gradientTransform="translate(604.35031 -7344.63) rotate(-.23239) scale(.37321 -.37334)" gradientUnits="userSpaceOnUse">
      <stop offset=".07451" stop-color="#fff"/>
      <stop offset=".44706" stop-color="#000"/>
    </radialGradient>
    <mask id="mask" x="250.42316" y="230.89041" width="150.2346" height="150.28489" maskUnits="userSpaceOnUse">
      <g style="filter: url(#luminosity-noclip);">
        <g style="mask: url(#mask-1);">
          <path d="M378.45197,252.66497c-14.71633-14.60068-32.50887-21.85844-53.37745-21.77383-20.66597.08399-38.29598,7.48574-52.88972,22.20546-14.59342,14.85469-21.84705,32.6185-21.76087,53.29145.08671,20.74036,7.48846,38.41071,22.20479,53.01139,14.71633,14.60068,32.40759,21.85888,53.07361,21.77514,20.86853-.08486,38.59982-7.48705,53.19356-22.20678,14.59404-14.71952,21.84783-32.44948,21.76112-53.18984-.08642-20.6729-7.48809-38.37715-22.20504-53.113Z" style="fill: url(#radial-gradient-3); mix-blend-mode: multiply;"/>
        </g>
      </g>
    </mask>
    <radialGradient id="radial-gradient-4" cx="-828.37327" cy="-20526.43744" fx="-828.37327" fy="-20526.43744" r="363.11717" gradientTransform="translate(604.35031 -7344.63) rotate(-.23239) scale(.37321 -.37334)" gradientUnits="userSpaceOnUse">
      <stop offset=".07451" stop-color="#dd4d29"/>
      <stop offset=".44706" stop-color="#e67638"/>
    </radialGradient>
    <filter id="luminosity-noclip-3" x="88.96759" y="234.20442" width="150.23536" height="150.28569" color-interpolation-filters="sRGB" filterUnits="userSpaceOnUse">
      <feFlood flood-color="#fff" result="bg"/>
      <feBlend in="SourceGraphic" in2="bg"/>
    </filter>
    <filter id="luminosity-noclip-4" x="88.96759" y="-4592" width="150.23536" height="32766" color-interpolation-filters="sRGB" filterUnits="userSpaceOnUse">
      <feFlood flood-color="#fff" result="bg"/>
      <feBlend in="SourceGraphic" in2="bg"/>
    </filter>
    <mask id="mask-3" x="88.96759" y="-4592" width="150.23536" height="32766" maskUnits="userSpaceOnUse"/>
    <radialGradient id="radial-gradient-5" cx="-1514.15871" cy="-16882.78331" fx="-1514.15871" fy="-16882.78331" r="285.97253" gradientTransform="translate(849.50509 -7682.28509) rotate(-.23428) scale(.47385 -.47401)" xlink:href="#radial-gradient-3"/>
    <mask id="mask-2" x="88.96759" y="234.20442" width="150.23536" height="150.28569" maskUnits="userSpaceOnUse">
      <g style="filter: url(#luminosity-noclip-3);">
        <g style="mask: url(#mask-3);">
          <path d="M163.64287,234.20515c-20.66547.0839-38.29943,7.4897-52.90159,22.2176-14.60159,14.81342-21.85937,32.55623-21.77294,53.22913.08669,20.75821,7.49229,38.44186,22.21697,53.05041,14.72467,14.60855,32.42002,21.87096,53.08524,21.7871,20.83754-.08468,38.55678-7.49074,53.15898-22.21839,14.60195-14.72761,21.85938-32.47087,21.77265-53.22934-.08638-20.67265-7.49194-38.35605-22.21647-53.0505-14.72467-14.60855-32.5053-21.8707-53.34284-21.78602Z" style="fill: url(#radial-gradient-5); mix-blend-mode: multiply;"/>
        </g>
      </g>
    </mask>
    <radialGradient id="radial-gradient-6" cx="-1514.15871" cy="-16882.78331" fx="-1514.15871" fy="-16882.78331" r="285.97253" gradientTransform="translate(849.50509 -7682.28509) rotate(-.23428) scale(.47385 -.47401)" xlink:href="#radial-gradient-4"/>
    <mask id="mask-4" x="8.53589" y="267.49794" width="250.29577" height="402.93144" maskUnits="userSpaceOnUse"/>
    <filter id="luminosity-noclip-5" x="207.46707" y="267.49794" width="51.36459" height="51.38208" color-interpolation-filters="sRGB" filterUnits="userSpaceOnUse">
      <feFlood flood-color="#fff" result="bg"/>
      <feBlend in="SourceGraphic" in2="bg"/>
    </filter>
    <filter id="luminosity-noclip-6" x="207.46707" y="-4592" width="51.36459" height="32766" color-interpolation-filters="sRGB" filterUnits="userSpaceOnUse">
      <feFlood flood-color="#fff" result="bg"/>
      <feBlend in="SourceGraphic" in2="bg"/>
    </filter>
    <mask id="mask-6" x="207.46707" y="-4592" width="51.36459" height="32766" maskUnits="userSpaceOnUse"/>
    <radialGradient id="radial-gradient-7" cx="-5497.7181" cy="-30813.35627" fx="-5497.7181" fy="-30813.35627" r="199.02884" gradientTransform="translate(-1077.12623 -6871.34675) rotate(179.76615) scale(.23276)" xlink:href="#radial-gradient-3"/>
    <mask id="mask-5" x="207.46707" y="267.49794" width="51.36459" height="51.38208" maskUnits="userSpaceOnUse">
      <g style="filter: url(#luminosity-noclip-5);">
        <g style="mask: url(#mask-6);">
          <path d="M207.46733,293.32512c-.02966-7.07834,2.45109-13.15593,7.44207-18.23222,4.99128-5.03418,11.04612-7.5656,18.16419-7.59472,7.07602-.02857,13.13042,2.45381,18.16351,7.44737,5.03335,5.03541,7.56489,11.09254,7.5943,18.17092.02966,7.07834-2.45113,13.13473-7.44241,18.16891-4.99128,5.03418-11.02493,7.56556-18.1009,7.59438-7.11811.02887-13.19371-2.45348-18.2268-7.44703-5.03305-4.9933-7.56455-11.02923-7.59395-18.10761Z" style="fill: url(#radial-gradient-7); mix-blend-mode: multiply;"/>
        </g>
      </g>
    </mask>
    <radialGradient id="radial-gradient-8" cx="-5497.7181" cy="-30813.35627" fx="-5497.7181" fy="-30813.35627" r="199.02884" gradientTransform="translate(-1077.12623 -6871.34675) rotate(179.76615) scale(.23276)" xlink:href="#radial-gradient-4"/>
  </defs>
  <g>
    <g>
      <g>
        <g id="Symbol_21_0_Layer0_0_FILL" data-name="Symbol 21 0 Layer0 0 FILL">
          <path d="M133.16958,101.75379c-32.50508,27.56096-48.81155,60.765-48.91941,99.61212-.04071,38.77938,16.13723,71.81791,48.53403,99.11528,32.46403,27.29739,71.65835,40.8527,117.58252,40.66627,45.92416-.18643,85.13874-14.06037,117.64382-41.62133,32.57277-27.56128,48.87961-60.73176,48.92007-99.5111.10786-38.84712-16.0702-71.91925-48.53448-99.21659-32.4637-27.22968-71.6579-40.75139-117.58202-40.56471-45.92416.18643-85.13895,14.02627-117.64453,41.52006Z" style="fill: #251b1a;"/>
        </g>
        <g id="Symbol_21_0_Layer0_0_1_STROKES" data-name="Symbol 21 0 Layer0 0 1 STROKES">
          <path d="M250.37946,344.18701c-46.44916.18873-86.67145-13.73256-119.55069-41.37822-32.96511-27.77592-49.65868-61.90812-49.61807-101.44637.1115-39.60379,16.93092-73.89387,49.99516-101.9281l.002-.0019c32.91292-27.83865,73.14996-42.04998,119.59317-42.23871,46.44715-.18838,86.6691,13.69805,119.54818,41.27545,33.03624,27.77759,49.73029,61.9454,49.62062,101.55534-.0406,39.52635-16.86233,73.78657-49.99571,101.82318-32.9126,27.90481-73.15139,42.15084-119.59465,42.33932ZM135.13494,104.07375c-31.64265,26.82886-47.74048,59.56617-47.84586,97.30143-.03873,37.65416,15.92625,70.21762,47.45163,96.78027,31.74558,26.69219,70.64412,40.13388,115.61332,39.9514,44.97306-.18263,83.89834-13.94422,115.69297-40.90049,31.70999-26.83119,47.80594-59.533,47.84437-97.19487.10353-37.72951-15.86152-70.32478-47.4501-96.88504-31.74338-26.62713-70.6436-40.03516-115.61481-39.85234-44.97515.18247-83.90055,13.91046-115.69328,40.80148l.00175-.00185Z" style="fill: #0e0e0e;"/>
        </g>
      </g>
      <g>
        <g id="Symbol_21_0_Layer0_1_FILL" data-name="Symbol 21 0 Layer0 1 FILL">
          <path d="M41.27166,268.12036c-8.50948.03455-15.78965,3.34063-21.84048,9.9185-5.98281,6.64526-8.95492,14.62923-8.91602,23.95212.03866,9.25568,3.07712,17.18163,9.11538,23.77783,6.10567,6.52843,13.41314,9.77552,21.92261,9.74097,8.57692-.03482,15.89089-3.34132,21.94172-9.91919,6.05054-6.64533,9.05661-14.59585,9.018-23.85128-.03894-9.32314-3.11137-17.28253-9.21732-23.87841-6.10542-6.52847-13.44698-9.77535-22.0239-9.74053Z" style="fill: #e67638;"/>
        </g>
        <g id="Symbol_21_0_Layer0_1_1_STROKES" data-name="Symbol 21 0 Layer0 1 1 STROKES">
          <path d="M41.56636,338.54899c-9.35076.03798-17.47622-3.56301-24.15431-10.703-6.5592-7.16416-9.89396-15.85131-9.93567-25.84259-.04196-10.05849,3.21979-18.80641,9.69738-25.99968.00795-.00784.01381-.01584.02172-.02393,6.61811-7.19557,14.71527-10.86249,24.06393-10.90063,9.41614-.03817,17.577,3.56266,24.25515,10.70445,6.62054,7.15407,9.99491,15.87887,10.03711,25.94326.04171,9.99723-3.2598,18.71556-9.81068,25.91115-6.62802,7.20556-14.75852,10.87255-24.17462,10.91097ZM21.68043,280.08652c-5.50463,6.11641-8.16168,13.2785-8.12568,21.89214.03575,8.55239,2.75634,15.66266,8.31772,21.73632,5.53133,5.91332,11.97184,8.78496,19.66843,8.7536,7.76588-.03144,14.21391-2.95518,19.71718-8.93738,5.56006-6.10686,8.25087-13.2352,8.21521-21.77959-.036-8.61365-2.78621-15.75165-8.40727-21.82508-5.54302-5.92708-12.01712-8.7986-19.78115-8.76696-7.69069.03112-14.10319,2.95104-19.60444,8.92694Z" style="fill: #522515;"/>
        </g>
      </g>
      <g id="Symbol_21_0_Layer0_1_MEMBER_0_FILL" data-name="Symbol 21 0 Layer0 1 MEMBER 0 FILL">
        <path d="M28.15075,287.94501c4.41952-4.45735,9.76405-6.69888,16.03338-6.7243,6.23419-.0253,11.5796,2.1728,16.03619,6.59403,4.45638,4.42153,6.69786,9.75052,6.72389,15.9868.02621,6.27168-2.17058,11.63622-6.58984,16.09352-4.41948,4.4576-9.7462,6.6989-15.98064,6.72424-6.26933.02542-11.63254-2.17244-16.08892-6.59397-4.45663-4.42149-6.69776-9.76786-6.72396-16.03955-.02603-6.23628,2.17044-11.58317,6.58991-16.04077Z" style="fill: url(#radial-gradient);"/>
      </g>
      <g id="Symbol_21_0_Layer0_1_MEMBER_1_FILL" data-name="Symbol 21 0 Layer0 1 MEMBER 1 FILL">
        <path d="M45.90318,285.53194c3.39079,3.29645,5.5326,6.76717,6.4256,10.41163l-.00045-.10131c.61839,2.49721.86235,4.35407.73267,5.57069-.12745,1.89209-.93066,3.58442-2.41019,5.07682-2.10654-3.09919-4.81677-5.18252-8.13067-6.24999-1.82616-.66821-3.34599-.72956-4.55952-.18429-.67455.13782-1.28093.5458-1.81819,1.22349-.53718.74545-.83784,1.52346-.90213,2.33459l.00045.10131c-.06282,1.14868.31345,2.26179,1.12835,3.33968.81453,1.00993,1.9323,1.81613,3.35301,2.41838,2.02987.86992,5.30642,1.09314,9.82961.66942,1.50098,3.64204,2.22085,6.24017,2.15987,7.79435-.12687,1.95976-.93176,3.28044-2.41468,3.96203-3.37121,1.36498-6.85355.36568-10.44698-2.99765,3.80518,5.52449,7.69599,7.33259,11.67251,5.42482,2.29219-1.02273,3.49992-2.91923,3.62344-5.68955.12474-2.43273-.63131-5.60502-2.26864-9.5168,2.35811-1.3608,3.76804-3.39339,4.22957-6.09748.26232-1.89265.04921-4.35776-.63878-7.39516-1.03117-4.2522-3.54654-8.29541-7.54726-12.1302-2.91523-2.69038-6.50098-4.16221-10.75691-4.41503-3.44543-.25636-5.32853,1.64309-5.64913,5.69781.93438-2.63865,2.78666-3.86235,5.55639-3.67075,2.90482.19075,5.84916,1.69897,8.83244,4.52425l-.00041-.10106M49.03719,308.21899c-3.57835.28496-6.41639-.04149-8.51373-.97864-1.82703-.80334-2.70965-1.94841-2.64834-3.43489.06404-.81109.33204-1.31885.80399-1.5233.74216-.2059,1.78962-.04116,3.14261.49391,2.90792.9341,5.31308,2.74841,7.21547,5.44292Z" style="fill: #522515;"/>
      </g>
      <g id="Symbol_21_0_Layer0_2_FILL" data-name="Symbol 21 0 Layer0 2 FILL">
        <path d="M70.85118,219.25606l-.19108,2.73699c-6.78402,69.24951,1.70581,137.21358,25.46896,203.89205l.71759,2.02406,25.93356-.10539-4.34316-21.16224,10.41544,19.71881,248.29465-1.00824,8.23333-17.66651-2.4559,18.35233,21.99574,3.05224.80135-2.23259c29.74471-72.45795,35.33248-141.39124,16.76307-206.79983l-.61717-2.22687-351.01638,1.42521M76.44832,225.31371l340.78475-1.38393c17.24562,62.84528,12.56124,129.78182-14.05309,200.80986l-14.70576-3.99385-2.10268-18.33374-12.2889,16.8721-242.21653.98354-14.97402-19.70022-.30364.10267.08822,21.07816-17.61745,2.30101c-21.19008-65.78037-28.72677-132.02545-22.61091-198.73561Z" style="fill: #0e0e0e;"/>
        <path d="M417.23307,223.92979l-340.78475,1.38393c-6.11586,66.71016,1.42083,132.95524,22.61091,198.73561l17.61745-2.30101-.08822-21.07816.30364-.10267,14.97402,19.70022,242.21653-.98354,12.2889-16.8721,2.10268,18.33374,14.70576,3.99385c26.61433-71.02805,31.2987-137.96459,14.05309-200.80986Z" style="fill: #281513;"/>
      </g>
      <g>
        <g id="Symbol_21_0_Layer0_3_FILL" data-name="Symbol 21 0 Layer0 3 FILL">
          <path d="M458.44681,268.25039c-8.57717.03487-15.89093,3.34107-21.94176,9.91893-6.05054,6.64533-9.05645,14.62971-9.0175,23.95285.03886,9.25539,3.11092,17.18121,9.21687,23.7771,6.10567,6.52843,13.44694,9.7751,22.0239,9.74053,8.50944-.0348,15.78936-3.34084,21.84048-9.9185,5.98306-6.6453,8.95508-14.59537,8.91642-23.85105-.0389-9.32289-3.07752-17.28269-9.11579-23.8789-6.10571-6.52868-13.41314-9.77552-21.92261-9.74097Z" style="fill: #e67638;"/>
        </g>
        <g id="Symbol_21_0_Layer0_3_1_STROKES" data-name="Symbol 21 0 Layer0 3 1 STROKES">
          <path d="M458.74035,338.67974c-9.41614.03817-17.57725-3.56262-24.25505-10.7024-6.6208-7.15403-9.99504-15.84522-10.0367-25.8422-.042-10.06469,3.25734-18.81653,9.81022-26.01401,6.62977-7.20587,14.76057-10.87265,24.17462-10.91097,9.34661-.03804,17.47417,3.56311,24.15612,10.70295,6.55725,7.16786,9.89218,15.88887,9.93408,25.94555.04172,9.99128-3.22029,18.7033-9.69579,25.89672-6.64188,7.2196-14.73879,10.88647-24.0875,10.92436ZM458.45885,271.29033c-7.76403.03164-14.21412,2.95548-19.71718,8.93738-5.56021,6.10895-8.25096,13.2691-8.21496,21.88275.03566,8.54439,2.78605,15.65054,8.40687,21.72401,5.54322,5.92523,12.01522,8.7966,19.78135,8.76512,7.6966-.03136,14.11284-2.95504,19.6182-8.93708,5.48686-6.09653,8.14804-13.2288,8.11238-21.77914-.03599-8.6196-2.75675-15.76372-8.31648-21.84129-5.53308-5.91146-11.97564-8.78301-19.67018-8.75175Z" style="fill: #522515;"/>
        </g>
      </g>
      <g id="Symbol_21_0_Layer0_3_MEMBER_0_FILL" data-name="Symbol 21 0 Layer0 3 MEMBER 0 FILL">
        <path d="M471.7331,287.96795c-4.45663-4.42149-9.81959-6.61939-16.08917-6.59393-6.23419.0253-11.56117,2.26664-15.98039,6.72419-4.41952,4.45735-6.61624,9.80428-6.59016,16.04081.02616,6.27143,2.26758,11.61802,6.72417,16.03925,4.45638,4.42153,9.80179,6.61962,16.03598,6.59433,6.26958-.02547,11.61411-2.267,16.03338-6.7243,4.41948-4.4576,6.61601-9.82209,6.5898-16.09377-.02603-6.23628-2.26722-11.56506-6.7236-15.98659Z" style="fill: url(#radial-gradient-2);"/>
      </g>
      <g id="Symbol_21_0_Layer0_3_MEMBER_1_FILL" data-name="Symbol 21 0 Layer0 3 MEMBER 1 FILL">
        <path d="M462.75578,281.20424c2.76814-.21395,4.63031.99457,5.587,3.62548-.35456-4.05206-2.2536-5.93602-5.69682-5.65166-4.25355.28736-7.82675,1.78813-10.7196,4.50231-3.96852,3.86699-6.45044,7.93065-7.44576,12.19099-.66258,3.04276-.85484,5.50966-.57692,7.39996.48442,2.70039,1.91097,4.72139,4.28045,6.06309-1.60456,3.92492-2.33421,7.10317-2.18896,9.53474.14652,2.76942,1.3701,4.65582,3.67038,5.66005,3.99267,1.87533,7.86849.03566,11.62713-5.51948-3.56523,3.39247-7.03899,4.42005-10.42156,3.08251-1.48868-.66939-2.30436-1.98356-2.44778-3.94238-.07414-1.55358.62424-4.15739,2.09487-7.81162,4.52658.38708,7.80125.13729,9.82352-.74928,1.41581-.6136,2.52655-1.42898,3.33283-2.44546.80592-1.08444,1.17249-2.20053,1.10015-3.34886l-.0002-.10136c-.07104-.81024-.3781-1.58587-.92146-2.32687-.54332-.6735-1.15284-1.07638-1.82857-1.20864-1.21812-.53563-2.73733-.46181-4.55772.22096-3.30471,1.09457-5.99749,3.19969-8.07825,6.31588-1.49182-1.48024-2.30939-3.16577-2.45223-5.05692-.14032-1.21547.08853-3.07439.68584-5.5764l.00045.10131c.86265-3.65181,2.97537-7.13951,6.33832-10.46365l.00045.10131c2.95971-2.84938,5.89118-4.38146,8.79445-4.59601M461.32466,302.38987c.4735.20085.74579.70652.81683,1.51675.07361,1.48617-.7995,2.6381-2.61949,3.45633-2.08996.95414-4.92493,1.30354-8.50544,1.04803,1.87975-2.71001,4.26983-4.54398,7.16978-5.50158,1.34841-.54582,2.39462-.71893,3.13832-.51953Z" style="fill: #522515;"/>
      </g>
      <g id="Symbol_21_0_Layer0_4_FILL" data-name="Symbol 21 0 Layer0 4 FILL">
        <path d="M259.05435,68.50995c-25.53809-.86154-50.74446,3.59827-75.61903,13.37991-25.61402,10.03312-49.35759,25.12752-71.23088,45.28374-18.32321,16.80025-32.17897,38.44198-41.56793,64.92453-9.2946,25.96496-13.03172,52.93622-11.2108,80.91418,1.98626,29.25739,9.82979,55.67505,23.53004,79.25283,16.05362,27.49898,36.9408,48.12124,62.66226,61.86639,41.89861,22.32714,83.47243,31.61664,124.72169,27.86846,20.1861-1.77099,39.81813-6.85007,58.89612-15.23724,19.01025-8.3871,36.42192-19.53753,52.23501-33.45128,18.57142-16.42492,32.84596-34.85907,42.82363-55.30245,9.44199-19.29288,15.26171-40.83423,17.4584-64.62389,4.50381-49.13612-11.62772-95.34888-48.3951-138.6382-17.78629-20.82881-38.38489-36.95953-61.79571-48.39165h0c-22.85125-11.10881-47.02027-17.05703-72.5077-17.84534M185.68769,87.55555c24.07643-9.46882,48.47309-13.79045,73.18952-12.96456,24.63136.76455,47.98924,6.51365,70.07389,17.24726l-.10128.00044c22.67595,11.0804,42.63098,26.70704,59.86451,46.87951,35.58311,41.88006,51.2355,86.57459,46.95767,134.08351-4.15596,44.71406-24.6609,83.34003-61.51456,115.87786h0c-30.48631,26.93235-65.30552,42.13945-104.45761,45.6213-40.05225,3.60539-80.47719-5.48621-121.27479-27.27455-25.61086-13.6378-45.68195-32.91208-60.21428-57.82266-13.23806-22.79327-20.80737-48.33366-22.70851-76.62158-1.78606-27.13612,1.819-53.29643,10.81581-78.48025,9.03393-25.4776,22.35309-46.30622,39.95699-62.48576,21.31956-19.60966,44.45721-34.29643,69.41264-44.0605Z" style="fill: #522515;"/>
        <path d="M258.8772,74.59099c-24.71643-.82589-49.11309,3.49574-73.18952,12.96456-24.95543,9.76407-48.09308,24.45084-69.41264,44.0605-17.6039,16.17954-30.92306,37.00816-39.95699,62.48576-8.99681,25.18382-12.60187,51.34413-10.81581,78.48025,1.90114,28.28793,9.47045,53.82831,22.70851,76.62158,14.53233,24.91058,34.60343,44.18486,60.21428,57.82266,40.7976,21.78834,81.22254,30.87994,121.27479,27.27455,39.15209-3.48185,73.9713-18.68894,104.45761-45.6213h0c36.85366-32.53783,57.3586-71.1638,61.51456-115.87786,4.27782-47.50892-11.37457-92.20345-46.95767-134.08351-17.23353-20.17247-37.18856-35.79911-59.86451-46.87951l.10128-.00044c-22.08465-10.7336-45.44253-16.4827-70.07389-17.24726Z" style="fill: url(#linear-gradient);"/>
      </g>
      <g>
        <g id="Symbol_21_0_Layer0_6_FILL" data-name="Symbol 21 0 Layer0 6 FILL">
          <path d="M117.65816,123.1991c-4.91418,3.87088-10.76231,10.41423-17.54496,19.62987-8.66334,11.72277-16.0737,24.3189-22.23059,37.78829-17.46757,38.17459-21.7015,75.48448-12.702,111.92996,3.37039-1.49985,6.70166-4.28336,9.99412-8.35032,3.09083-3.79595,6.4121-9.04528,9.96352-15.74819,6.76769-12.79592,11.93267-29.36916,15.49457-49.71886,3.42911-19.87644,5.1243-42.44806,5.08627-67.71524l23.95557-12.86602c20.28906-9.47311,41.56709-16.55188,63.83485-21.23642,36.7083-7.58062,71.11243-8.97011,103.2126-4.16876,34.19519,5.19857,66.36025,17.49896,96.4952,36.90114l1.19606,19.55354c1.28153,15.73605,3.13281,30.4903,5.5541,44.26271,7.81538,44.01689,19.80976,69.77593,35.98228,77.27677,7.42653-32.93137,4.72394-65.55157-8.10801-97.86053-9.6918-24.34965-23.32061-45.30514-40.88596-62.86682-17.36161-17.29247-37.307-30.65575-59.83619-40.09011-21.92029-9.16664-45.03837-14.10597-69.3545-14.81794-51.1313-1.41377-97.83378,14.61857-140.10692,48.09693Z" style="fill: #281513;"/>
        </g>
        <g id="Symbol_21_0_Layer0_6_1_STROKES" data-name="Symbol 21 0 Layer0 6 1 STROKES">
          <path d="M63.10138,296.80148l-.87163-3.52529c-9.12736-36.95775-4.79011-75.2883,12.88986-113.92432,6.21531-13.59511,13.80082-26.49129,22.55025-38.3293,7.00426-9.51908,12.92825-16.13218,18.10898-20.21261,42.6426-33.77166,90.45263-50.17705,142.07081-48.74683,24.5794.71974,48.27875,5.78335,70.44231,15.05149,22.79183,9.54466,43.24858,23.25304,60.80679,40.74198,17.78296,17.77495,31.76663,39.27254,41.56662,63.89653,13.00368,32.73994,15.77911,66.26756,8.24954,99.65284l-.82746,3.67289-3.41574-1.58321c-17.29103-8.0211-29.62171-34.02644-37.69652-79.50513-2.42991-13.81929-4.30899-28.80462-5.58951-44.5468l-1.10648-18.0722c-29.27401-18.60694-60.89699-30.58797-94.01438-35.62136-31.58053-4.72694-65.94915-3.33247-102.14043,4.13989-21.89796,4.60561-43.12664,11.66472-63.0877,20.97715l-22.27871,11.96623c-.04576,24.59857-1.77066,46.934-5.13002,66.41376-3.60219,20.5773-8.91891,37.60691-15.80342,50.62297-3.63002,6.851-7.09139,12.31595-10.29219,16.24602-3.57866,4.41854-7.31921,7.5193-11.11514,9.20937l-3.31583,1.47593ZM250.80518,78.05931c-47.53539.19313-91.66132,16.16104-131.26094,47.52312-4.68368,3.69058-10.39693,10.09887-16.98402,19.05025-8.50148,11.50442-15.87291,24.03562-21.91386,37.24985-16.45624,35.96312-20.97288,71.58683-13.44337,105.95003,1.86025-1.38104,3.73812-3.23743,5.61015-5.55088,2.95668-3.62817,6.19595-8.75961,9.63925-15.25786,6.58641-12.45058,11.69574-28.87762,15.18573-48.81916,3.38282-19.60875,5.07901-42.21494,5.04187-67.18535l-.00348-1.82083,25.71159-13.80304c20.40541-9.52996,42.10435-16.74951,64.49645-21.45814,36.90496-7.6216,71.98785-9.0348,104.28518-4.19977,34.46568,5.23768,67.33154,17.80334,97.69393,37.35011l1.29349.83402,1.2911,21.09187c1.25986,15.49252,3.11636,30.29191,5.51184,43.91954,7.01701,39.5214,17.39268,64.08182,30.87723,73.12775,6.16303-30.84443,3.20234-61.79437-8.8196-92.06215-9.49205-23.84928-23.02163-44.65407-40.21029-61.83754-16.99388-16.92719-36.8-30.19687-58.86056-39.43755-21.47191-8.97801-44.44235-13.8844-68.26962-14.58337-2.29747-.06374-4.59083-.09016-6.87206-.08092Z" style="fill: #0e0e0e;"/>
        </g>
      </g>
      <g id="Symbol_21_0_Layer0_9_FILL" data-name="Symbol 21 0 Layer0 9 FILL">
        <g style="mask: url(#mask);">
          <path d="M378.45197,252.66497c-14.71633-14.60068-32.50887-21.85844-53.37745-21.77383-20.66597.08399-38.29598,7.48574-52.88972,22.20546-14.59342,14.85469-21.84705,32.6185-21.76087,53.29145.08671,20.74036,7.48846,38.41071,22.20479,53.01139,14.71633,14.60068,32.40759,21.85888,53.07361,21.77514,20.86853-.08486,38.59982-7.48705,53.19356-22.20678,14.59404-14.71952,21.84783-32.44948,21.76112-53.18984-.08642-20.6729-7.48809-38.37715-22.20504-53.113Z" style="fill: url(#radial-gradient-4);"/>
        </g>
      </g>
      <g id="Symbol_21_0_Layer0_10_FILL" data-name="Symbol 21 0 Layer0 10 FILL">
        <g style="mask: url(#mask-2);">
          <path d="M163.64287,234.20515c-20.66547.0839-38.29943,7.4897-52.90159,22.2176-14.60159,14.81342-21.85937,32.55623-21.77294,53.22913.08669,20.75821,7.49229,38.44186,22.21697,53.05041,14.72467,14.60855,32.42002,21.87096,53.08524,21.7871,20.83754-.08468,38.55678-7.49074,53.15898-22.21839,14.60195-14.72761,21.85938-32.47087,21.77265-53.22934-.08638-20.67265-7.49194-38.35605-22.21647-53.0505-14.72467-14.60855-32.5053-21.8707-53.34284-21.78602Z" style="fill: url(#radial-gradient-6);"/>
        </g>
      </g>
      <g>
        <g id="Symbol_21_0_Layer0_11_MEMBER_0_FILL" data-name="Symbol 21 0 Layer0 11 MEMBER 0 FILL">
          <path d="M247.53097,98.85719l-4.6646-1.09573c-20.41748,43.38843-29.06273,83.65509-25.93602,120.80003l9.32002-.03784c-2.60731-42.14656,4.48624-82.0353,21.28061-119.66647Z" style="fill: #281513;"/>
        </g>
        <g id="Symbol_21_0_Layer0_11_MEMBER_0_1_STROKES" data-name="Symbol 21 0 Layer0 11 MEMBER 0 1 STROKES">
          <path d="M226.26215,221.56364l-9.31897.03792c-1.58488.00654-2.90777-1.20545-3.04094-2.78634-3.15834-37.51038,5.66071-78.67565,26.21409-122.34881.60993-1.2968,2.04545-1.98934,3.44378-1.66463l4.66431,1.09552c.88328.20812,1.62576.79675,2.02865,1.61066.40304.81181.42094,1.76185.05247,2.58884-16.51315,37.0024-23.58483,76.78286-21.02348,118.24029.05284.83511-.24233,1.65382-.81381,2.26371-.57113.6119-1.36893.95959-2.2061.96284ZM219.747,215.50976l3.28843-.01317c-1.46319-29.17064,1.75227-57.52318,9.58097-84.68085-10.33615,29.86368-14.65365,58.23241-12.8694,84.69402Z" style="fill: #0e0e0e;"/>
        </g>
      </g>
      <g>
        <g id="Symbol_21_0_Layer0_11_MEMBER_1_FILL" data-name="Symbol 21 0 Layer0 11 MEMBER 1 FILL">
          <path d="M249.66294,99.9632c-9.24186,34.89826-14.27962,65.69197-15.11376,92.38121-1.18565,39.45971,6.24084,71.24979,22.2804,95.37112l9.99392-8.45168c-13.68238-25.75226-21.16889-55.65053-22.45935-89.69534-1.05177-25.46569,2.1326-55.33969,9.55378-89.62263l-4.25499.01732Z" style="fill: #281513;"/>
        </g>
        <g id="Symbol_21_0_Layer0_11_MEMBER_1_1_STROKES" data-name="Symbol 21 0 Layer0 11 MEMBER 1 1 STROKES">
          <path d="M256.84195,290.75592c-.14652.0005-.29288-.0086-.43928-.02985-.85921-.12124-1.62313-.60502-2.10303-1.3275-16.32112-24.54599-23.98834-57.23052-22.78789-97.1475.83787-26.80085,5.95628-58.1121,15.21455-93.06803.35276-1.32761,1.5517-2.25497,2.92502-2.26037l4.25394-.01739c.92191-.00367,1.79426.41042,2.37495,1.1266.57885.71598.80235,1.65738.60824,2.55665-7.33165,33.87354-10.52489,63.76951-9.48821,88.85474-.0001.0039,0,.00595-.00011.00985,1.26948,33.42689,8.70674,63.16296,22.1065,88.38418.67203,1.26399.37175,2.82489-.72044,3.7475l-9.99429,8.45252c-.54816.4636-1.23964.71584-1.94994.71862ZM244.2873,136.75167c-3.92988,20.25218-6.17512,38.8883-6.70036,55.68654-1.11538,37.07235,5.5868,67.56971,19.92572,90.71842l5.49107-4.64389c-13.11817-25.56063-20.40944-55.42591-21.6768-88.8211-.6559-15.86516.33852-33.57788,2.96038-52.93997Z" style="fill: #0e0e0e;"/>
        </g>
      </g>
      <g>
        <g id="Symbol_21_0_Layer0_12_FILL" data-name="Symbol 21 0 Layer0 12 FILL">
          <path d="M107.96523,130.94047c-10.55477,11.59531-19.28154,24.26434-26.18059,38.00688l-7.1214,17.05397c12.82212-18.56328,29.53782-34.64281,50.14716-48.23835,19.86862-13.1196,41.97951-23.00544,66.33239-29.65772,24.28549-6.65176,48.82302-9.52135,73.61291-8.60858,25.73525.90867,49.79887,5.8105,72.19053,14.70503,17.52148,7.02243,35.80807,19.41285,54.86002,37.1712,16.74682,15.60577,29.67655,30.92321,38.78937,45.95177-9.03351-28.40584-23.45376-52.93877-43.26078-73.59904-35.61244-37.21587-82.92697-54.62294-141.94413-52.22139-57.8689,2.39704-103.6775,22.20896-137.42547,59.43622Z" style="fill: #ee5fa2;"/>
        </g>
        <g id="Symbol_21_0_Layer0_12_1_STROKES" data-name="Symbol 21 0 Layer0 12 1 STROKES">
          <path d="M430.61033,200.36518c-1.03894.00424-2.04431-.52419-2.614-1.46394-8.92361-14.71933-21.79705-29.96089-38.26166-45.30274-18.68954-17.42087-36.82947-29.72568-53.91783-36.57598-21.95355-8.72041-45.90131-13.59519-71.16792-14.48815-24.37642-.90666-48.828,1.9636-72.70238,8.50316-23.93387,6.53795-45.95613,16.38311-65.46112,29.26241-20.18959,13.31942-36.78273,29.27637-49.32251,47.42976-.88316,1.28222-2.59287,1.68694-3.95733.94046-1.3663-.74668-1.9472-2.40483-1.34779-3.84026l7.12307-17.05478c.0275-.06528.05685-.12881.08826-.19243,6.98769-13.92082,15.95182-26.93531,26.64472-38.68435h0c34.15767-37.67961,81.10847-58.01127,139.55066-60.43189,59.66496-2.42043,108.18992,15.45842,144.26513,53.15556,20.03576,20.89904,34.82824,46.06106,43.96281,74.78077.46514,1.46866-.23858,3.053-1.63871,3.69002-.40284.18397-.82612.27059-1.24339.27238ZM254.91554,96.29557c3.31813-.01339,6.63465.04023,9.95125.1616,25.95944.91776,50.59034,5.93621,73.20181,14.91921,17.79387,7.13234,36.5687,19.8403,55.81042,37.77355,9.59199,8.93721,18.00474,17.86128,25.17248,26.68943-8.56217-18.65747-19.91612-35.41153-33.91055-50.00924-34.81728-36.3883-81.78664-53.6489-139.62745-51.28828-56.75277,2.35022-102.27372,22.01335-135.29506,58.4394-.002.0019-.00395.00405-.00595.00594-9.21185,10.12187-17.09373,21.21397-23.47282,33.02863,10.42312-11.38166,22.60208-21.6898,36.39856-30.7911,20.03945-13.23371,42.65053-23.34466,67.20271-30.05106,21.22228-5.8144,42.89937-8.79008,64.57459-8.87809Z" style="fill: #ab2967;"/>
        </g>
      </g>
      <g>
        <g id="Symbol_21_0_Layer0_13_FILL" data-name="Symbol 21 0 Layer0 13 FILL">
          <path d="M157.31621,110.37079c24.06666-10.502,50.04282-16.62016,77.92844-18.35473,33.01685-2.02571,62.27286.96299,87.76761,8.96671,33.6101,10.60547,63.07102,30.31455,88.38252,59.12729-20.98749-28.35752-43.7626-48.16118-68.32517-59.41153-26.39009-12.12084-61.73566-17.85512-106.03713-17.20223-28.56626.4537-56.09318,7.15267-82.5811,20.09644-27.36438,13.28514-49.74467,31.38064-67.14115,54.28629,21.86269-20.76197,45.19803-36.59796,70.00599-47.50824Z" style="fill: #c62037;"/>
        </g>
        <g id="Symbol_21_0_Layer0_13_1_STROKES" data-name="Symbol 21 0 Layer0 13 1 STROKES">
          <path d="M411.40248,162.1363c-.56588.00213-1.12876-.23112-1.53052-.68854-24.94425-28.39642-54.3732-48.08956-87.46961-58.53243-25.13373-7.88817-54.42764-10.86878-87.03296-8.878-27.51547,1.713-53.50079,7.83352-77.23835,18.18862h0c-24.47623,10.76369-47.83478,26.61948-69.4248,47.1235-.76669.72357-1.96171.74031-2.74617.03892-.78646-.70544-.90022-1.89445-.2626-2.73642,17.50729-23.05439,40.34248-41.51874,67.87075-54.88188,26.62714-13.01491,54.69901-19.84456,83.43256-20.29976,44.40313-.68702,80.37312,5.19382,106.91377,17.38537,24.76227,11.34359,48.01444,31.54665,69.1087,60.04763.64473.87427.48767,2.10002-.35646,2.7824-.37264.30031-.81913.44863-1.2643.45058ZM241.87899,85.47828c-1.59473.00644-3.19941.02106-4.8159.04522-28.13211.44486-55.62673,7.13773-81.7207,19.89105-16.97582,8.23947-32.12298,18.45679-45.2858,30.52056,14.88384-11.19607,30.42529-20.37556,46.44424-27.41964.00205-.0001.00405-.00199.00405-.00199,24.17424-10.54672,50.62212-16.77799,78.61416-18.52061,33.10366-2.03658,62.88855,1.01718,88.4998,9.0561,20.53529,6.47968,39.68051,16.43491,57.24691,29.74156-12.37626-11.35615-25.29191-20.13547-38.63925-26.25052-25.03208-11.49689-58.77367-17.2304-100.34751-17.06173Z" style="fill: #991b28;"/>
        </g>
      </g>
      <g>
        <g id="Duplicate_Items_Folder_Symbol_15_0_Layer3_0_FILL" data-name="Duplicate Items Folder Symbol 15 0 Layer3 0 FILL">
          <path d="M225.36594,297.8029c-.39355-3.45352,1.07155-5.60817,4.39547-6.46447,4.2077-1.02823,11.24153-1.07796,21.10129-.1489l-.00109-.31589,1.96392,16.4243c-8.75025,2.56338-15.65775,2.61248-20.72226.14726-4.01083-2.21672-6.25647-5.43102-6.73733-9.6423Z" style="fill: #e67638;"/>
          <path d="M221.19797,298.26222c-.69838-5.85389,1.79244-9.50861,7.47246-10.96416,4.62817-1.19844,12.13015-.07023,22.50619,3.38456l-.315.19103.00109.31589c-9.85976-.92907-16.89359-.87934-21.10129.1489-3.32392.85631-4.78902,3.01095-4.39547,6.46447.48086,4.21129,2.72649,7.42558,6.73733,9.6423,5.06451,2.46522,11.97201,2.41612,20.72226-.14726.08423-.00034.16842-.02187.25235-.06432l.88437-.06676.00005.0631c-10.16941,5.60295-18.10367,6.89934-23.80232,3.88884-5.36137-2.88568-8.34857-7.14994-8.96172-12.79354l-.0003-.06306Z" style="fill: #be6e35;"/>
        </g>
        <g style="mask: url(#mask-4);">
          <g id="Duplicate_Items_Folder_Symbol_15_0_Layer2_0_FILL" data-name="Duplicate Items Folder Symbol 15 0 Layer2 0 FILL">
            <g style="mask: url(#mask-5);">
              <path d="M207.46733,293.32512c-.02966-7.07834,2.45109-13.15593,7.44207-18.23222,4.99128-5.03418,11.04612-7.5656,18.16419-7.59472,7.07602-.02857,13.13042,2.45381,18.16351,7.44737,5.03335,5.03541,7.56489,11.09254,7.5943,18.17092.02966,7.07834-2.45113,13.13473-7.44241,18.16891-4.99128,5.03418-11.02493,7.56556-18.1009,7.59438-7.11811.02887-13.19371-2.45348-18.2268-7.44703-5.03305-4.9933-7.56455-11.02923-7.59395-18.10761Z" style="fill: url(#radial-gradient-8);"/>
            </g>
          </g>
        </g>
        <g id="Duplicate_Items_Folder_Symbol_15_0_Layer0_0_FILL" data-name="Duplicate Items Folder Symbol 15 0 Layer0 0 FILL">
          <path d="M221.19797,298.26222c-.69838-5.85389,1.79244-9.50861,7.47246-10.96416,4.62817-1.19844,12.13015-.07023,22.50619,3.38456l-.315.19103.00109.31589c-9.85976-.92907-16.89359-.87934-21.10129.1489-3.32392.85631-4.78902,3.01095-4.39547,6.46447.48086,4.21129,2.72649,7.42558,6.73733,9.6423,5.06451,2.46522,11.97201,2.41612,20.72226-.14726.08423-.00034.16842-.02187.25235-.06432l.88437-.06676.00005.0631c-10.16941,5.60295-18.10367,6.89934-23.80232,3.88884-5.36137-2.88568-8.34857-7.14994-8.96172-12.79354l-.0003-.06306Z" style="fill: #522515;"/>
        </g>
      </g>
    </g>
    <g>
      <g id="Symbol_21_0_Layer0_5_FILL" data-name="Symbol 21 0 Layer0 5 FILL">
        <path d="M364.3147,162.79186c-2.28537-8.88072-6.00131-15.45189-11.14801-19.71321-5.31731-4.39116-11.02114-5.22109-17.11142-2.4893-6.77909,3.07125-13.05854,10.36372-18.83712,21.87851,22.47196-7.26784,38.55104,2.6867,48.23703,29.86236,1.73716-10.38028,1.35696-20.22666-1.14047-29.53836Z" style="fill: #251b1a;"/>
      </g>
      <g id="Symbol_21_0_Layer0_5_1_STROKES" data-name="Symbol 21 0 Layer0 5 1 STROKES">
        <path d="M342.95278,135.98063c4.25602.02156,8.36695,1.6103,12.15827,4.74232.00113.00058.0021.00171.00308.00283,5.62892,4.6606,9.71877,11.82876,12.15793,21.30444,2.59224,9.66571,2.9969,20.03938,1.19457,30.80546-.22918,1.37246-1.35682,2.41604-2.7425,2.53843-1.37244.11518-2.6788-.70807-3.1465-2.018-9.10479-25.5517-23.63661-34.7029-44.41879-27.98196-1.17211.3811-2.45565.01741-3.2585-.91746-.80155-.93484-.96331-2.25937-.41104-3.36023,6.15912-12.27196,12.80179-19.89079,20.30634-23.28998,2.74806-1.23345,5.48102-1.83939,8.15714-1.82585ZM351.22275,145.43531c-4.44381-3.67128-8.86654-4.32514-13.91703-2.05788-4.85751,2.20053-9.56132,7.03396-14.02465,14.39967,17.34987-3.16832,30.81703,4.29041,40.18217,22.23073.01252-5.6708-.68735-11.16388-2.09808-16.42413-2.11809-8.23016-5.52799-14.32633-10.1424-18.1484h0Z" style="fill: #0e0e0e;"/>
      </g>
    </g>
    <g>
      <g id="Symbol_21_0_Layer0_7_FILL" data-name="Symbol 21 0 Layer0 7 FILL">
        <path d="M133.61088,199.08571c7.3734-27.89035,22.56143-39.15453,45.56375-33.79298-6.72397-10.99038-13.59257-17.73222-20.60505-20.22563-6.29834-2.21234-11.91273-.90807-16.84298,3.91226-4.7712,4.67696-7.92308,11.53583-9.45607,20.57694-1.70762,9.48774-1.26097,19.33116,1.34035,29.52942Z" style="fill: #251b1a;"/>
      </g>
      <g id="Symbol_21_0_Layer0_7_1_STROKES" data-name="Symbol 21 0 Layer0 7 1 STROKES">
        <path d="M152.95885,140.98273c2.15251.01042,4.36654.40958,6.62221,1.20218,7.77395,2.76424,15.0318,9.79986,22.19795,21.51433.64334,1.05013.59278,2.38344-.12783,3.38252-.72158.99796-1.97178,1.46576-3.16911,1.18648-21.27867-4.96168-34.98707,5.37601-41.91859,31.59874-.35521,1.34485-1.57505,2.27996-2.96586,2.2739-.00084-.00037-.00159-.00024-.00159-.00024-1.38994-.00698-2.6002-.95186-2.94469-2.2999-2.6982-10.57621-3.16445-20.94726-1.38616-30.8264,1.6296-9.61599,5.10505-17.10087,10.32353-22.21623,3.97093-3.88292,8.51112-5.84004,13.37013-5.81538ZM172.73981,161.1258c-5.06477-6.96703-10.16035-11.39031-15.1931-13.17973-5.2132-1.83116-9.56385-.80874-13.68545,3.21818-4.27666,4.19339-7.16387,10.55361-8.57957,18.90324-.96777,5.37839-1.20585,10.91851-.71818,16.57061,7.82584-18.6581,20.62367-27.22153,38.1763-25.5123Z" style="fill: #0e0e0e;"/>
      </g>
    </g>
    <g id="Symbol_21_0_Layer0_14_FILL" data-name="Symbol 21 0 Layer0 14 FILL">
      <path d="M276.93182,226.77716c-5.06248,8.18938-8.26663,18.0856-9.61282,29.68794-.92615,8.95742.25321,17.55161,3.53866,25.78301l.09971.40773.20217.30647c4.4456,6.8793,11.27579,11.90334,20.49066,15.07261,9.41807,3.17061,20.61173,4.14299,33.58033,2.91776,8.62371-.90681,17.42348-3.13733,26.3995-6.69055,8.84093-3.68997,14.15507-7.77044,15.94119-12.2425,1.98977-4.335,2.49877-11.35904,1.52853-21.07237-.51361-5.97714-1.10009-10.96992-1.75899-14.97868-.99313-5.09707-2.36224-9.72021-4.1065-13.8706-10.32578-25.78239-26.45723-37.03149-48.39478-33.7467-14.94076,1.96191-27.57654,11.43727-37.90764,28.42588M272.91545,257.00295c1.2711-10.17763,4.30202-19.22578,9.09137-27.14498,8.75677-14.28123,19.85917-22.40671,33.30653-24.37582,19.28722-2.55088,33.39,7.22801,42.30844,29.33718l-.00076.10178c3.6204,9.11602,5.88451,18.05473,6.79175,26.81728.77347,8.42253.40423,14.53056-1.1073,18.32507-1.64426,3.11496-5.90042,6.08086-12.76898,8.8978-7.68453,3.15225-16.24573,5.14598-25.68362,5.9812-23.69767,2.32556-40.30147-2.51005-49.81263-14.50636-2.41174-6.46194-3.12012-14.27314-2.1248-23.43314Z" style="fill: #532516;"/>
      <path d="M282.00682,229.85797c-4.78935,7.91921-7.82027,16.96735-9.09137,27.14498-.99532,9.16-.28694,16.9712,2.1248,23.43314,9.51115,11.99631,26.11496,16.83192,49.81263,14.50636,9.43788-.83521,17.99909-2.82895,25.68362-5.9812,6.86856-2.81694,11.12472-5.78284,12.76898-8.8978,1.51153-3.79451,1.88077-9.90255,1.1073-18.32507-.90724-8.76255-3.17135-17.70126-6.79175-26.81728l.00076-.10178c-8.91844-22.10917-23.02122-31.88806-42.30844-29.33718-13.44735,1.96911-24.54975,10.09459-33.30653,24.37582Z" style="fill: #fff;"/>
    </g>
    <g id="Symbol_21_0_Layer0_15_FILL" data-name="Symbol 21 0 Layer0 15 FILL">
      <path d="M279.74156,265.2474c-.03718,7.67135,2.00032,14.26731,6.11339,19.78694,4.24836,5.65609,9.52809,8.50027,15.83961,8.53196,6.04009.0305,11.17803-2.76142,15.4131-8.37539,4.37041-5.47726,6.57448-12.05148,6.61182-19.72338.03815-7.73903-2.10139-14.40322-6.41748-19.99199-4.18173-5.38438-9.29245-8.09147-15.33279-8.12193-6.31127-.03173-11.61818,2.62335-15.91992,7.96536-4.16738,5.5464-6.26962,12.18915-6.30773,19.92843Z"/>
    </g>
    <g id="Symbol_21_0_Layer0_15_MEMBER_0_FILL" data-name="Symbol 21 0 Layer0 15 MEMBER 0 FILL">
      <path d="M296.45516,261.66505c-1.63755,1.7569-2.46295,3.95951-2.47584,6.60698-.01183,2.44425.79219,4.58683,2.41204,6.42775,1.61922,1.90905,3.58279,2.86958,5.89033,2.88088,2.30759.01155,4.28022-.92877,5.91828-2.82182,1.50234-1.82561,2.25933-3.96026,2.2712-6.40425.01285-2.64772-.72297-4.85796-2.20736-6.63022-1.61926-1.9093-3.58304-2.86954-5.89038-2.88113-2.30763-.0118-4.28068.92911-5.91828,2.82182M313.6891,255.64107c1.15765-.80874,1.73951-1.85807,1.7458-3.14829.00621-1.22192-.56532-2.27696-1.71488-3.16535-.87808-.88695-2.09755-1.33466-3.65851-1.34234-1.35706-.00672-2.615.42828-3.77302,1.30511-.95432.87809-1.43478,1.92773-1.44073,3.14961-.00634,1.28996.46374,2.34444,1.40985,3.16428,1.14998.82054,2.40334,1.23395,3.76069,1.24087,1.56126.00788,2.78443-.39343,3.67081-1.2039Z" style="fill: #fff;"/>
    </g>
    <g id="Symbol_21_0_Layer0_16_FILL" data-name="Symbol 21 0 Layer0 16 FILL">
      <path d="M130.19632,234.49458c-1.78488,4.13223-3.19891,8.74198-4.24172,13.82839-.69816,4.00204-1.33335,8.98901-1.90565,14.96041-1.06536,9.70312-.62459,16.73212,1.32202,21.08679,1.74289,4.48946,7.01649,8.62332,15.82081,12.40156,8.94101,3.64313,17.71837,5.96128,26.33276,6.95537,12.95638,1.35436,24.15877.49423,33.60776-2.58155,9.24537-3.07653,16.12401-8.0322,20.63656-14.86635l.20515-.30447.10391-.40698c3.36558-8.19813,4.62924-16.77962,3.79055-25.74542-1.23266-11.61562-4.34004-21.54352-9.32209-29.78346-10.16449-17.0916-22.70699-26.69328-37.62792-28.80445-21.90429-3.50439-38.14489,7.58196-48.72214,33.26016M135.78124,237.37369l.00022-.10195c9.13418-22.01864,23.33211-31.65595,42.59305-28.9118,13.42782,2.10417,24.45051,10.34037,33.067,24.70853,4.71197,7.96693,7.65387,17.04531,8.82561,27.23465.90549,9.16971.12047,16.97371-2.35423,23.41082-9.62758,11.90033-26.27817,16.56952-49.95164,14.00675-9.42942-.93001-17.9703-3.00943-25.62377-6.23887-6.84082-2.88546-11.06763-5.89383-12.68144-9.02492-1.47456-3.80929-1.78366-9.92111-.92831-18.33528.99282-8.75271,3.3443-17.66891,7.05352-26.74793Z" style="fill: #532516;"/>
      <path d="M135.78146,237.27174l-.00022.10195c-3.70922,9.07902-6.06069,17.99523-7.05352,26.74793-.85536,8.41416-.54626,14.52598.92831,18.33528,1.61381,3.13109,5.84062,6.13945,12.68144,9.02492,7.65347,3.22943,16.19435,5.30886,25.62377,6.23887,23.67347,2.56277,40.32406-2.10641,49.95164-14.00675,2.4747-6.43711,3.25972-14.24111,2.35423-23.41082-1.17174-10.18933-4.11364-19.26772-8.82561-27.23465-8.61649-14.36815-19.63918-22.60435-33.067-24.70853-19.26094-2.74415-33.45887,6.89316-42.59305,28.9118Z" style="fill: #fff;"/>
    </g>
    <g>
      <g id="Symbol_21_0_Layer0_17_FILL" data-name="Symbol 21 0 Layer0 17 FILL">
        <path d="M153.23778,247.89115c-4.23503,5.47817-6.37141,12.12087-6.40964,19.9282-.03718,7.67135,2.03425,14.23325,6.21586,19.68568,4.17986,5.72354,9.42533,8.60133,15.7371,8.63297,6.04005.03025,11.17786-2.79528,15.41362-8.47713,4.36973-5.40938,6.57422-11.94979,6.6114-19.62114.03819-7.80758-2.10126-14.47126-6.41757-19.99249-4.18194-5.38409-9.29241-8.09122-15.3325-8.12172-6.31198-.03135-11.58454,2.62348-15.81826,7.96563Z"/>
      </g>
      <g id="Symbol_21_0_Layer0_17_MEMBER_0_FILL" data-name="Symbol 21 0 Layer0 17 MEMBER 0 FILL">
        <path d="M173.37552,251.76017c-.95437.87784-1.43507,1.96193-1.4412,3.2516-.00634,1.28996.46374,2.34444,1.4101,3.16424,1.1494.82013,2.40334,1.23395,3.76069,1.24087,1.56042.00751,2.78409-.39388,3.6703-1.20381,1.22588-.8089,1.84168-1.85789,1.84806-3.1476.00604-1.29017-.59929-2.37921-1.81637-3.26782-.8783-.8194-2.09806-1.23292-3.65898-1.24035-1.3571-.00697-2.61474.39384-3.7726,1.20287M169.46,261.41518c-2.30763-.0118-4.28039.89492-5.91802,2.72012-1.57015,1.82517-2.36151,4.02733-2.37389,6.60746-.01191,2.44374.75813,4.62013,2.30978,6.52871,1.61994,1.84142,3.58326,2.76759,5.89064,2.77944,2.30804.01121,4.28034-.89517,5.91802-2.72012,1.50255-1.89315,2.25959-4.06196,2.27142-6.5062.01297-2.57972-.7231-4.78992-2.2074-6.63047-1.6196-1.84096-3.58296-2.76739-5.89055-2.77894Z" style="fill: #fff;"/>
      </g>
    </g>
  </g>
  <g>
    <path d="M249.22439,394.04472c-16.2349,2.80666-34.71278,5.44757-36.02666-4.07288-1.31368-9.52075,10.91299-34.23092,29.0541-36.25931,18.14115-2.02814,40.89213,13.64409,39.29246,24.887-1.81495,11.27936-23.50401,13.92112-32.3199,15.44519Z" style="fill: #2b1010;"/>
    <path d="M236.08763,407.72496c6.09747-3.15826,12.904-4.77855,19.81163-4.5323,2.00974.09537,3.91211.20983,5.86997.6468.34069.05181.73404-.23786.67825-.56059.0517-.34105-.21975-.62649-.56073-.6785-6.96717-1.2323-14.17486-.65072-20.8514,1.7215-1.87957.65756-3.74014,1.42203-5.45621,2.3837-.84188.25573-.20748,1.36483.50848,1.01939h0Z" style="fill: #522515;"/>
    <path d="M254.47979,394.71111c-1.03386.17873-2.01311.3413-2.92683.49254-.74764.1233-1.44038.23815-2.06828.3467-14.14359,2.44512-28.47605,4.44982-34.73473-.12649-1.81211-1.32581-2.88699-3.12075-3.19186-5.33592-.84319-6.10975,3.21687-16.75634,9.44521-24.76473,4.27104-5.49267,11.39636-12.24905,21.04837-13.3458,13.10884-1.46544,27.64748,5.68519,35.23453,13.50633,4.355,4.48872,6.43517,9.1912,5.86044,13.23864-1.63083,10.53468-17.91454,14.12988-28.66684,15.98872ZM241.26797,355.39495c-6.26941,1.08385-12.50584,5.28393-17.68101,11.93907-6.30764,8.11055-9.42077,17.71066-8.78677,22.30673.18267,1.31988.79755,2.34752,1.88131,3.13942,5.66063,4.13962,22.3025,1.26261,32.24539-.4563.63442-.10968,1.33545-.22596,2.09138-.35069,8.91658-1.47708,27.46787-4.54737,28.88924-13.73162.42833-3.00381-1.33618-6.73143-4.97047-10.47773-6.85959-7.07111-20.58873-13.86611-32.52193-12.53252-.38196.04301-.76477.09755-1.14713.16365Z" style="fill: #532516;"/>
  </g>
</svg>