<?xml version="1.0" encoding="UTF-8"?>
<svg id="Layer_1" data-name="Layer 1" xmlns="http://www.w3.org/2000/svg" xmlns:xlink="http://www.w3.org/1999/xlink" viewBox="0 0 500 500">
  <defs>
    <linearGradient id="linear-gradient" x1="-3303.5775" y1="-6485.00017" x2="-3312.29745" y2="-6615.84667" gradientTransform="translate(-5674.7162 -4025.3427) rotate(153.06064) scale(1.01998)" gradientUnits="userSpaceOnUse">
      <stop offset=".51765" stop-color="#fac0a0"/>
      <stop offset=".87451" stop-color="#f58d6a"/>
    </linearGradient>
    <mask id="mask" x="129.24298" y="129.92319" width="379.14921" height="336.68552" maskUnits="userSpaceOnUse">
      <g id="Mask_Mask_1" data-name="Mask Mask 1">
        <path d="M129.24298,278.58851c11.83777-27.72478,24.8313-51.57926,38.98049-71.56342,19.82672-27.94438,41.94673-48.31791,66.35993-61.12068,41.60761-21.63404,89.94956-21.30327,145.02577.99201.11535.08234.25863.14979.43002.20238,6.02858,9.0688,11.75217,17.83313,17.17087,26.29297,20.31249,31.40556,36.49379,58.40256,48.54423,80.99122.26719.5038.6595.90549,1.17696,1.20488,19.4609,10.05123,30.87506,25.01523,34.24259,44.89188,1.7796,10.38955,1.35447,22.23516-1.27519,35.53684-2.31754,11.81392-6.35915,24.75253-12.12492,38.81582-1.53963,3.1835-3.15181,6.29791-4.83644,9.34322-.92465,1.63796-1.8921,3.26278-2.90245,4.87455-4.90981,8.05509-10.62545,15.60506-17.14692,22.6499-9.75429,10.55238-21.97032,20.1148-36.64787,28.68734-29.13815,16.74289-59.94219,25.4748-92.41221,26.19565-2.0689.0212-4.1807.02925-6.3352.02415-1.163-.02884-2.326-.05778-3.489-.08662-41.50143-1.16066-76.665-15.25818-105.49073-42.29269-2.38021-2.32427-4.74727-4.69133-7.10119-7.10129-24.80908-26.22347-43.09965-61.39112-54.87169-105.50275-2.77457-10.50755-5.20695-21.5193-7.29705-33.03537Z" style="fill: #fff;"/>
      </g>
    </mask>
    <filter id="luminosity-noclip" x="244.2686" y="262.21378" width="160.20145" height="124.38749" color-interpolation-filters="sRGB" filterUnits="userSpaceOnUse">
      <feFlood flood-color="#fff" result="bg"/>
      <feBlend in="SourceGraphic" in2="bg"/>
    </filter>
    <filter id="luminosity-noclip-2" x="244.2686" y="-4592" width="160.20145" height="32766" color-interpolation-filters="sRGB" filterUnits="userSpaceOnUse">
      <feFlood flood-color="#fff" result="bg"/>
      <feBlend in="SourceGraphic" in2="bg"/>
    </filter>
    <mask id="mask-2" x="244.2686" y="-4592" width="160.20145" height="32766" maskUnits="userSpaceOnUse"/>
    <radialGradient id="radial-gradient" cx="5702.27625" cy="-30235.91318" fx="5702.27625" fy="-30235.91318" r="430.01488" gradientTransform="translate(-1093.31271 -6882.66182) rotate(152.06401) scale(.37334 .23271)" gradientUnits="userSpaceOnUse">
      <stop offset=".07451" stop-color="#c2c2c2"/>
      <stop offset=".36471" stop-color="#000"/>
    </radialGradient>
    <mask id="mask-1" x="244.2686" y="262.21378" width="160.20145" height="124.38749" maskUnits="userSpaceOnUse">
      <g style="filter: url(#luminosity-noclip);">
        <g style="mask: url(#mask-2);">
          <path d="M299.16311,277.43001c21.09547-11.18681,41.49971-16.20527,61.21282-15.05549,19.58344,1.57224,32.83078,8.87478,39.74193,21.90763,6.96984,13.14321,5.56827,28.17859-4.2047,45.10626-9.96134,17.23966-25.48964,31.45294-46.58512,42.63974-20.87454,11.06971-41.13113,15.83296-60.76975,14.28997-19.71642-1.28949-33.05955-8.5059-40.0293-21.64911-6.91124-13.03274-5.41388-28.15437,4.49217-45.36478,9.88676-16.84645,25.26741-30.80452,46.14195-41.87423Z" style="fill: url(#radial-gradient); mix-blend-mode: multiply;"/>
        </g>
      </g>
    </mask>
    <radialGradient id="radial-gradient-2" cx="5702.27625" cy="-30235.91318" fx="5702.27625" fy="-30235.91318" r="430.01488" gradientTransform="translate(-1093.31271 -6882.66182) rotate(152.06401) scale(.37334 .23271)" gradientUnits="userSpaceOnUse">
      <stop offset=".07451" stop-color="#f37e58"/>
      <stop offset=".36471" stop-color="#fac0a0"/>
    </radialGradient>
    <filter id="luminosity-noclip-3" x="348.19082" y="196.80973" width="160.20137" height="124.38749" color-interpolation-filters="sRGB" filterUnits="userSpaceOnUse">
      <feFlood flood-color="#fff" result="bg"/>
      <feBlend in="SourceGraphic" in2="bg"/>
    </filter>
    <filter id="luminosity-noclip-4" x="348.19082" y="-4592" width="160.20137" height="32766" color-interpolation-filters="sRGB" filterUnits="userSpaceOnUse">
      <feFlood flood-color="#fff" result="bg"/>
      <feBlend in="SourceGraphic" in2="bg"/>
    </filter>
    <mask id="mask-4" x="348.19082" y="-4592" width="160.20137" height="32766" maskUnits="userSpaceOnUse"/>
    <radialGradient id="radial-gradient-3" cx="5439.58522" cy="-30204.60521" fx="5439.58522" fy="-30204.60521" r="430.01488" gradientTransform="translate(-1072.62336 -6895.68281) rotate(152.06401) scale(.37334 .23271)" xlink:href="#radial-gradient"/>
    <mask id="mask-3" x="348.19082" y="196.80973" width="160.20137" height="124.38749" maskUnits="userSpaceOnUse">
      <g style="filter: url(#luminosity-noclip-3);">
        <g style="mask: url(#mask-4);">
          <path d="M356.94337,253.90019c9.88676-16.84645,25.26741-30.80452,46.14195-41.87423,21.09547-11.18681,41.49971-16.20527,61.21282-15.05549,19.58334,1.57224,32.83068,8.87478,39.74193,21.90763,6.96974,13.14321,5.56817,28.17859-4.2048,45.10626-9.96124,17.23966-25.48954,31.45294-46.58502,42.63974-20.87454,11.06971-41.13113,15.83296-60.76975,14.28997-19.71642-1.28949-33.05955-8.5059-40.0293-21.64911-6.91124-13.03274-5.41388-28.15437,4.49217-45.36478Z" style="fill: url(#radial-gradient-3); mix-blend-mode: multiply;"/>
        </g>
      </g>
    </mask>
    <radialGradient id="radial-gradient-4" cx="5439.58522" cy="-30204.60521" fx="5439.58522" fy="-30204.60521" r="430.01488" gradientTransform="translate(-1072.62336 -6895.68281) rotate(152.06401) scale(.37334 .23271)" xlink:href="#radial-gradient-2"/>
    <mask id="mask-5" x="-61.20493" y="-356.38536" width="479.31771" height="665.86874" maskUnits="userSpaceOnUse"/>
    <filter id="luminosity-noclip-5" x="354.0677" y="251.06661" width="64.04508" height="58.41676" color-interpolation-filters="sRGB" filterUnits="userSpaceOnUse">
      <feFlood flood-color="#fff" result="bg"/>
      <feBlend in="SourceGraphic" in2="bg"/>
    </filter>
    <filter id="luminosity-noclip-6" x="354.0677" y="-4592" width="64.04508" height="32766" color-interpolation-filters="sRGB" filterUnits="userSpaceOnUse">
      <feFlood flood-color="#fff" result="bg"/>
      <feBlend in="SourceGraphic" in2="bg"/>
    </filter>
    <mask id="mask-7" x="354.0677" y="-4592" width="64.04508" height="32766" maskUnits="userSpaceOnUse"/>
    <radialGradient id="radial-gradient-5" cx="22529.02675" cy="-55089.87637" fx="22529.02675" fy="-55089.87637" r="429.99776" gradientTransform="translate(103.12821 -7139.85908) rotate(152.06625) scale(.14329 .12145)" xlink:href="#radial-gradient"/>
    <mask id="mask-6" x="354.0677" y="251.06661" width="64.04508" height="58.41676" maskUnits="userSpaceOnUse">
      <g style="filter: url(#luminosity-noclip-5);">
        <g style="mask: url(#mask-7);">
          <path d="M372.95324,255.68673c8.09751-4.29406,16.26135-5.59481,24.49164-3.90246,8.20084,1.89278,14.10493,6.24061,17.71258,13.0436,3.6381,6.86058,3.91723,14.17287.83738,21.93688-3.13996,7.90663-8.75869,14.00703-16.8561,18.30109-8.01277,4.24913-16.13008,5.43288-24.35203,3.55136-8.23963-1.76131-14.1786-6.07225-17.81671-12.93283-3.60755-6.80299-3.852-14.15217-.73325-22.04754,3.13161-7.71756,8.70381-13.70096,16.71648-17.95009Z" style="fill: url(#radial-gradient-5); mix-blend-mode: multiply;"/>
        </g>
      </g>
    </mask>
    <radialGradient id="radial-gradient-6" cx="22529.02675" cy="-55089.87637" fx="22529.02675" fy="-55089.87637" r="429.99776" gradientTransform="translate(103.12821 -7139.85908) rotate(152.06625) scale(.14329 .12145)" xlink:href="#radial-gradient-2"/>
    <clipPath id="clippath">
      <path d="M99.82627,386.61806l99.94307,1.05007-24.04898-28.46667s12.3983-5.89726,11.90086-30.40387c-.49744-24.50652-31.06485-38.60642-31.06485-38.60642,0,0,20.43208-7.27802,21.13357-18.2258.70149-10.94768-11.51147-19.69923-11.51147-19.69923,0,0,37.65616,1.24316,46.93179-17.4245,9.27573-18.66756-3.90628-52.92896-3.90628-52.92896,0,0,15.34205,15.14635,30.0561,6.07034,8.67898-5.35338,6.46978-27.52696,6.46978-27.52696,0,0,13.12673,31.92938,49.28322,23.59234,36.15649-8.33693,30.51253-29.54971,30.51253-29.54971,0,0,15.60309,17.94205,36.28666,10.90949,20.68357-7.03256,13.08692-25.24992,13.08692-25.24992l26.63229,36.64529,77.11222-7.69415-61.36671-15.82633,33.08398-33.186-43.45773,13.65141,3.8324-105.61859-106.06357,62.92769-2.34791-53.01399-54.47205,51.12152-94.07486-49.54737-4.06177,106.09955-91.68796-16.85047,54.49376,78.76719-101.17638-18.07865,66.83628,83.89089-57.24604,82.09219,93.34453-16.7589-15.98293,48.19123" style="fill: none;"/>
    </clipPath>
    <mask id="mask-8" x="121.20748" y="355.92257" width="125.07836" height="78.06089" maskUnits="userSpaceOnUse">
      <g id="Mask_Mask_3" data-name="Mask Mask 3">
        <path d="M136.40231,402.91202c-2.56023-7.5065-2.322-15.15908.71471-22.95764,4.33357-10.60188,13.56789-17.03251,27.70292-19.29155,7.38371-1.21199,14.56954-.45859,21.5575,2.2602,9.26452,3.68218,22.81263,13.0381,31.30121,25.6808-.06326.0165,5.89929,7.98614,6.65748,13.49735.71066,5.58859-7.46934,8.65539-7.29586,11.39979l-12.4335,8.60257.35582-.19003c-4.04797,2.87216-8.22223,5.12852-12.523,6.76914-6.9254,2.45493-14.41967,2.85235-22.48286,1.19246-7.69955-1.81962-14.69528-5.21767-20.98725-10.19405-6.22871-4.99287-10.41773-10.58256-12.56715-16.76905Z" style="fill: #fff;"/>
      </g>
    </mask>
    <filter id="luminosity-noclip-7" x="121.20748" y="355.92257" width="125.07836" height="78.06089" color-interpolation-filters="sRGB" filterUnits="userSpaceOnUse">
      <feFlood flood-color="#fff" result="bg"/>
      <feBlend in="SourceGraphic" in2="bg"/>
    </filter>
    <filter id="luminosity-noclip-8" x="121.20748" y="-4592" width="125.07836" height="32766" color-interpolation-filters="sRGB" filterUnits="userSpaceOnUse">
      <feFlood flood-color="#fff" result="bg"/>
      <feBlend in="SourceGraphic" in2="bg"/>
    </filter>
    <mask id="mask-10" x="121.20748" y="-4592" width="125.07836" height="32766" maskUnits="userSpaceOnUse"/>
    <radialGradient id="radial-gradient-7" cx="-2600.41398" cy="-47530.24301" fx="-2600.41398" fy="-47530.24301" r="429.98792" gradientTransform="translate(-462.08337 -7668.9601) rotate(-179.53624) scale(.27213 .16961)" xlink:href="#radial-gradient"/>
    <mask id="mask-9" x="121.20748" y="355.92257" width="125.07836" height="78.06089" maskUnits="userSpaceOnUse">
      <g style="filter: url(#luminosity-noclip-7);">
        <g style="mask: url(#mask-10);">
          <path d="M183.92341,355.92642c17.40591.14022,32.23001,3.99634,44.47242,11.56816,12.01273,7.79777,17.97582,17.07341,17.88908,27.8268-.08735,10.84456-6.1989,20.00007-18.33466,27.46655-12.36463,7.60137-27.24995,11.33195-44.65585,11.19173-17.22368-.13881-31.86464-4.1073-43.92291-11.90548-12.19607-7.66268-18.25043-16.9162-18.16308-27.76076.08664-10.75339,6.28956-19.93092,18.60866-27.53269,12.18059-7.37501,26.88267-10.99311,44.10634-10.8543Z" style="fill: url(#radial-gradient-7); mix-blend-mode: multiply;"/>
        </g>
      </g>
    </mask>
    <radialGradient id="radial-gradient-8" cx="-2600.41398" cy="-47530.24301" fx="-2600.41398" fy="-47530.24301" r="429.98792" gradientTransform="translate(-462.08337 -7668.9601) rotate(-179.53624) scale(.27213 .16961)" xlink:href="#radial-gradient-2"/>
  </defs>
  <g id="Layer_1-2" data-name="Layer 1">
    <g>
      <path d="M119.81378,274.09476c1.99148,12.50474,4.46423,24.47878,7.41833,35.92229.90644,3.47276,1.86976,6.91667,2.88988,10.33173,10.32238,35.23337,25.39898,64.9041,45.22979,89.01238,2.04053,2.46742,4.12339,4.87764,6.24865,7.23047,2.72815,2.97632,5.51269,5.85243,8.35352,8.62842,28.66679,27.98581,61.13452,44.09961,97.40318,48.3411,1.82634.21631,3.66655.38969,5.52083.52026,2.08255.15761,4.15062.28677,6.20433.38748,37.33572,1.69698,72.79535-6.70217,106.37878-25.19725,15.42719-8.62571,28.35208-18.37567,38.77468-29.25007,10.16729-10.67308,18.65841-22.60419,25.47326-35.79323.39422-.77245.78833-1.5449,1.18255-2.31725l.04191-.12866c.25259-.62892.50508-1.25783.75767-1.88685,4.91483-11.57992,8.75115-22.39733,11.50885-32.45215,12.36996-44.76139.73033-76.46471-34.91886-95.10986-13.65945-26.60042-29.04885-53.93108-46.16799-81.99178-5.64899-9.28749-11.4978-18.6163-17.54643-27.98671-.37361-.45382-.80361-.80743-1.29-1.06093-2.03028-.8993-4.07464-1.75568-6.13286-2.56924-54.74786-22.17107-103.36708-22.63997-145.85776-1.40689-28.16683,13.95486-53.57607,37.62932-76.2277,71.02329-12.51208,18.44412-24.17824,39.81962-34.99857,64.12662-.28234.4295-.36436.97177-.24606,1.62682M234.73816,142.00048c42.23528-21.03195,90.85912-19.85011,145.87153,3.54533.11469.08473.25772.15509.42909.21108,5.9052,9.22869,11.50895,18.14569,16.81127,26.7511,19.88177,31.94928,35.68528,59.3912,47.41064,82.32588.25993.51162.64751.92252,1.16275,1.2328,19.40021,10.45295,30.61948,25.70645,33.65791,45.7605,1.60772,10.4827.97207,22.3914-1.90695,35.72609-2.53878,11.84346-6.83173,24.78806-12.87886,38.83388-1.60471,3.17544-3.28118,6.28001-5.02932,9.31383-.9589,1.63154-1.96073,3.24901-3.00537,4.85261-5.08048,8.01679-10.96276,15.51132-17.64684,22.48357-9.99772,10.44381-22.45442,19.8486-37.3699,28.21438-29.60569,16.33081-60.74643,24.57356-93.42233,24.72835-2.08164-.01498-4.20611-.04403-6.37349-.08694-1.16938-.04945-2.33876-.09891-3.50814-.14836-41.72818-1.8965-76.8534-16.69568-105.37575-44.39733-2.35364-2.37997-4.6932-4.80266-7.01879-7.26837-24.49626-26.81532-42.27789-62.51347-53.34519-107.09454-2.60663-10.6188-4.85995-21.73886-6.76027-33.36019,12.39518-27.68185,25.88507-51.4501,40.46945-71.30473,20.4356-27.76247,43.04512-47.86878,67.82855-60.31895Z" style="fill: #e16134;"/>
      <path d="M126.44017,273.62415c12.39518-27.68185,25.88507-51.4501,40.46945-71.30473,20.4356-27.76247,43.04512-47.86878,67.82855-60.31895,42.23528-21.03195,90.85912-19.85011,145.87153,3.54533.11469.08473.25772.15509.42909.21108,5.9052,9.22869,11.50895,18.14569,16.81127,26.7511,19.88177,31.94928,35.68528,59.3912,47.41064,82.32588.25993.51162.64751.92252,1.16275,1.2328,19.40021,10.45295,30.61948,25.70645,33.65791,45.7605,1.60772,10.4827.97207,22.3914-1.90695,35.72609-2.53878,11.84346-6.83173,24.78806-12.87886,38.83388-1.60471,3.17544-3.28118,6.28001-5.02932,9.31383-.9589,1.63154-1.96073,3.24901-3.00537,4.85261-5.08048,8.01679-10.96276,15.51132-17.64684,22.48357-9.99772,10.44381-22.45442,19.8486-37.3699,28.21438-29.60569,16.33081-60.74643,24.57356-93.42233,24.72835-2.08164-.01498-4.20611-.04403-6.37349-.08694-1.16938-.04945-2.33876-.09891-3.50814-.14836-41.72818-1.8965-76.8534-16.69568-105.37575-44.39733-2.35364-2.37997-4.6932-4.80266-7.01879-7.26837-24.49626-26.81532-42.27789-62.51347-53.34519-107.09454-2.60663-10.6188-4.85995-21.73886-6.76027-33.36019Z" style="fill: url(#linear-gradient);"/>
    </g>
  </g>
  <g style="mask: url(#mask);">
    <g id="Layer_2" data-name="Layer 2">
      <g style="mask: url(#mask-1);">
        <path d="M299.16311,277.43001c21.09547-11.18681,41.49971-16.20527,61.21282-15.05549,19.58344,1.57224,32.83078,8.87478,39.74193,21.90763,6.96984,13.14321,5.56827,28.17859-4.2047,45.10626-9.96134,17.23966-25.48964,31.45294-46.58512,42.63974-20.87454,11.06971-41.13113,15.83296-60.76975,14.28997-19.71642-1.28949-33.05955-8.5059-40.0293-21.64911-6.91124-13.03274-5.41388-28.15437,4.49217-45.36478,9.88676-16.84645,25.26741-30.80452,46.14195-41.87423Z" style="fill: url(#radial-gradient-2);"/>
      </g>
      <g style="mask: url(#mask-3);">
        <path d="M356.94337,253.90019c9.88676-16.84645,25.26741-30.80452,46.14195-41.87423,21.09547-11.18681,41.49971-16.20527,61.21282-15.05549,19.58334,1.57224,32.83068,8.87478,39.74193,21.90763,6.96974,13.14321,5.56817,28.17859-4.2048,45.10626-9.96124,17.23966-25.48954,31.45294-46.58502,42.63974-20.87454,11.06971-41.13113,15.83296-60.76975,14.28997-19.71642-1.28949-33.05955-8.5059-40.0293-21.64911-6.91124-13.03274-5.41388-28.15437,4.49217-45.36478Z" style="fill: url(#radial-gradient-4);"/>
      </g>
    </g>
  </g>
  <g>
    <g>
      <path d="M275.73631,243.86025c8.41744-3.47326,16.40811-3.74847,23.97198-.82572,1.55385.66178,3.1093,1.39353,4.66636,2.19513,6.14402,3.18046,11.97383,7.83637,17.48954,13.96793,4.33497,4.70566,7.55463,8.37553,9.65899,11.0096,3.14518,4.06308,5.57038,7.83587,7.2756,11.31828-1.36136,5.03796-4.04519,10.31716-8.05137,15.83789-4.73672,6.54477-11.26822,11.70646-19.5944,15.48498-14.05356,6.32052-24.00385,8.83769-29.85085,7.55162-14.15971-20.29719-20.65301-37.47845-19.47981-51.54368,1.22255-13.17166,5.86047-21.50366,13.91395-24.99602Z" style="fill: #fff;"/>
      <g>
        <path d="M324.71427,262.32849c5.51842,1.53083,9.73759,4.7721,12.65763,9.72382,3.15001,5.01545,4.09142,10.21152,2.82434,15.58831-1.19049,5.33619-4.24742,9.37162-9.1709,12.10621-4.74466,2.70182-9.88907,3.26319-15.43312,1.68401-5.56938-1.44187-9.87791-4.66666-12.9257-9.67447-2.99662-4.91101-3.86145-10.14769-2.59477-15.71004,1.26708-5.37679,4.31115-9.43635,9.1324-12.17878,4.77039-2.65347,9.94043-3.16649,15.51011-1.53907Z"/>
        <path d="M318.23071,277.8384c-.48146,2.05059-.14595,3.97744,1.00635,5.78076.94805,1.78774,2.36761,3.07784,4.25868,3.87029,1.86544.74411,3.62725.6456,5.28533-.29561,1.4285-.81939,2.29433-2.14517,2.59748-3.97744.4302-2.14718.14564-4.16299-.85367-6.04742-1.10113-1.70663-2.54612-2.9523-4.33507-3.73701-2.01842-.66299-3.7548-.60891-5.20894.16223-1.65808.94121-2.57477,2.35595-2.75016,4.2442M310.57305,279.48482c.28214.71707.84492,1.22346,1.68813,1.51917.81758.24747,1.68552.12765,2.60392-.35944.94403-.43864,1.61948-1.10636,2.02646-2.00314.2539-.81567.23973-1.58199-.04242-2.29896-.3331-.62821-.88302-1.11038-1.64974-1.4467-.84281-.11016-1.73628.05408-2.68031.49282-.9184.48699-1.56842,1.11028-1.95007,1.86976-.33039.85628-.32908,1.59837.00402,2.22649Z" style="fill: #fff;"/>
      </g>
      <path d="M279.43332,324.68104l.80451.31632c7.10533,2.45827,18.25344.3318,33.44412-6.37942,8.79729-3.95764,16.06425-9.9338,21.80078-17.92868,3.35365-4.74999,5.87926-10.7944,7.57705-18.13333l.27239-.88734-.35642-.87226c-4.68315-9.89842-10.28318-18.39074-16.80041-25.47698l-.08282.04392c-7.14805-7.74219-13.70951-13.17759-19.68456-16.30608-1.076-.56147-2.77288-1.35965-5.09053-2.39475-9.88163-3.95774-19.46001-4.008-28.73504-.15077l-.08282.04392c-9.80805,3.78616-15.4489,14.02964-16.92244,30.73054-1.31623,13.92883,6.41953,32.78606,23.20727,56.57159l.64892.82331M304.37466,245.22965c6.14402,3.18046,11.97383,7.83637,17.48954,13.96793,4.33497,4.70566,7.55463,8.37553,9.65899,11.0096,3.14518,4.06308,5.57038,7.83587,7.2756,11.31828-1.36136,5.03796-4.04519,10.31716-8.05137,15.83789-4.73672,6.54477-11.26822,11.70646-19.5944,15.48498-14.05356,6.32052-24.00385,8.83769-29.85085,7.55162-14.15971-20.29719-20.65301-37.47845-19.47981-51.54368,1.22255-13.17166,5.86047-21.50366,13.91395-24.99602,8.41744-3.47326,16.40811-3.74847,23.97198-.82572,1.55385.66178,3.1093,1.39353,4.66636,2.19513Z" style="fill: #e26236;"/>
    </g>
    <path d="M360.39291,204.16758c1.19732-2.54532,3.23685-4.36975,6.11849-5.47339,3.69077-1.17893,6.72388-1.79679,9.09933-1.85368,3.23987-.16143,6.44616.61464,9.61899,2.32821,8.20817,4.13766,15.15168,9.75961,20.83042,16.86595,4.58263,5.70638,7.39441,9.27422,8.43534,10.70333,2.9142,3.76103,5.10681,7.16192,6.57774,10.20257-1.1346,3.99784-3.50422,7.80159-7.10875,11.41115-3.38712,3.35274-7.55272,6.30464-12.4969,8.85579-9.9729,5.07626-18.09081,7.04633-24.35364,5.91002-10.5015-17.00144-16.49485-32.57277-17.97994-46.71418-.49111-5.32905-.07147-9.40771,1.25894-12.23577Z" style="fill: #fff;"/>
    <g>
      <g>
        <path d="M377.77068,200.58476c5.07153,1.55284,9.02535,4.63048,11.86115,9.23301,2.86244,4.65259,3.74646,9.48671,2.65196,14.50226-1.04394,4.92438-3.73691,8.60219-8.07901,11.03332-4.4191,2.47204-9.16456,2.93159-14.2361,1.37875-5.06892-1.36146-9.0346-4.36844-11.89714-9.02113-2.86244-4.65269-3.70786-9.50722-2.53627-14.56357,1.0945-5.01555,3.7742-8.71838,8.03911-11.10871,4.3421-2.43103,9.0741-2.91571,14.19629-1.45393Z"/>
        <path d="M372.06982,214.98489c-.46498,1.91781-.16806,3.68866.89075,5.31257,1.00826,1.71507,2.3461,2.9339,4.01362,3.6565,1.77126.73194,3.37616.6844,4.81462-.14273,1.3109-.69515,2.12165-1.96073,2.43244-3.79672.36115-1.92705.03759-3.74807-.97066-5.46304-1.05871-1.624-2.34479-2.83821-3.85803-3.64263-1.89891-.59997-3.54231-.53192-4.93031.20414-1.36136.78622-2.15884,2.07682-2.39243,3.8719M365.06903,214.35869c-.37743.77858-.40648,1.46891-.08725,2.07099.26877.69304.81939,1.1724,1.65175,1.43805.85638.12444,1.70864-.0383,2.55677-.4881.79778-.35873,1.34679-.90704,1.64712-1.64481.19661-.74702.16052-1.4671-.10825-2.16015-.31923-.60198-.80461-1.05168-1.45625-1.3489-.75265-.11509-1.52771.00673-2.32549.36547-.84814.4498-1.47434,1.03891-1.87841,1.76744Z" style="fill: #fff;"/>
      </g>
      <path d="M363.85954,191.29174c-8.33382,2.29674-11.77732,10.87984-10.33073,25.74917,1.24074,13.28041,7.89256,29.49312,19.95544,48.63822l.60992.95006,1.01419.31129c8.45081,2.59386,18.13212,1.10374,29.04372-4.47046,11.46402-5.867,18.43849-14.12915,20.9236-24.78645l.31632-.80451-.21962-.41412c-3.56694-7.66017-8.5654-15.55173-14.99558-23.67466-6.65775-8.28527-14.09065-14.49663-22.29883-18.63429-8.54962-4.3811-16.55576-5.33589-24.01842-2.86425M375.69858,197.00616c3.23987-.16143,6.44616.61464,9.61899,2.32831,8.20817,4.13756,15.15168,9.75951,20.83042,16.86585,4.58263,5.70648,7.39441,9.27422,8.43534,10.70333,2.85902,3.79038,5.02399,7.20585,6.49491,10.2465-1.07932,3.96859-3.43597,7.73003-7.06985,11.2844-3.35777,3.40793-7.5088,6.38746-12.45298,8.93861-10.00215,5.02108-18.12006,6.99105-24.35364,5.91002-10.55678-16.97209-16.55003-32.54352-17.97994-46.71418-.49111-5.32905-.07147-9.40761,1.25894-12.23577,1.19732-2.54532,3.22218-4.39729,6.07456-5.55621,3.72012-1.12365,6.76781-1.71396,9.14326-1.77086Z" style="fill: #e26236;"/>
    </g>
  </g>
  <g id="Layer_1-3" data-name="Layer 1">
    <g>
      <path d="M387.99546,272.62977l-.04392-.08282c4.29647.76401,7.12875,3.43647,8.49685,8.0175,1.57626,5.10732.45382,10.19544-3.36752,15.26426-2.98044,3.98608-5.94199,7.00703-8.88473,9.06284-3.90748,2.63819-8.52248,4.34261-13.8448,5.11315l3.4228-33.97242c5.38594-2.78544,10.12638-3.91954,14.22132-3.4025Z" style="fill: #fac0a0;"/>
      <path d="M373.77414,276.03227c-1.21491.64419-2.49807,1.36005-3.84938,2.14738l-.25852-.28737c5.91816-8.58641,12.31739-12.26291,19.19777-11.0296,7.70872.79416,12.24783,4.68405,13.61754,11.66988l.12675.0389c1.79216,7.11549.18193,14.01879-4.8309,20.71-3.16539,4.43789-6.767,7.58609-10.80505,9.4444-4.80779,2.40811-10.43898,3.13011-16.89339,2.16618-.39321-.07448-.78652-.14896-1.17973-.22344l.23842-.55092c.33471-.03598.73928-.07368,1.21371-.11298,5.32232-.77054,9.93732-2.47496,13.8448-5.11315,2.94275-2.05581,5.90429-5.07676,8.88473-9.06284,3.82134-5.06882,4.94378-10.15694,3.36752-15.26426-1.3681-4.58103-4.20038-7.25349-8.49685-8.0175l.04392.08282c-4.09494-.51704-8.83538.61706-14.22132,3.4025Z" style="fill: #e26236;"/>
    </g>
  </g>
  <g style="mask: url(#mask-5);">
    <g id="Layer_2-2" data-name="Layer 2">
      <g style="mask: url(#mask-6);">
        <path d="M372.95324,255.68673c8.09751-4.29406,16.26135-5.59481,24.49164-3.90246,8.20084,1.89278,14.10493,6.24061,17.71258,13.0436,3.6381,6.86058,3.91723,14.17287.83738,21.93688-3.13996,7.90663-8.75869,14.00703-16.8561,18.30109-8.01277,4.24913-16.13008,5.43288-24.35203,3.55136-8.23963-1.76131-14.1786-6.07225-17.81671-12.93283-3.60755-6.80299-3.852-14.15217-.73325-22.04754,3.13161-7.71756,8.70381-13.70096,16.71648-17.95009Z" style="fill: url(#radial-gradient-6);"/>
      </g>
    </g>
  </g>
  <g id="Layer_4" data-name="Layer 4">
    <path d="M373.77414,276.03227c-1.21491.64419-2.49807,1.36005-3.84938,2.14738l-.25852-.28737c5.91816-8.58641,12.31739-12.26291,19.19777-11.0296,7.70872.79416,12.24783,4.68405,13.61754,11.66988l.12675.0389c1.79216,7.11549.18193,14.01879-4.8309,20.71-3.16539,4.43799-6.767,7.58609-10.80505,9.4444-4.80779,2.40811-10.43888,3.13011-16.89339,2.16618-.39321-.07448-.78652-.14896-1.17973-.22344l.23842-.55092c.33471-.03598.73928-.07368,1.21371-.11298,5.32232-.77054,9.93732-2.47496,13.8448-5.11315,2.94275-2.05581,5.90429-5.07676,8.88473-9.06284,3.82134-5.06882,4.94378-10.15694,3.36752-15.26426-1.3681-4.58103-4.20028-7.25349-8.49685-8.0175l.04392.08282c-4.09494-.51704-8.83538.61706-14.22132,3.4025Z" style="fill: #e26236;"/>
  </g>
  <g>
    <path d="M99.82627,386.61806l99.94307,1.05007-24.04898-28.46667s12.3983-5.89726,11.90086-30.40387c-.49744-24.50652-31.06485-38.60642-31.06485-38.60642,0,0,20.43208-7.27802,21.13357-18.2258.70149-10.94768-11.51147-19.69923-11.51147-19.69923,0,0,37.65616,1.24316,46.93179-17.4245,9.27573-18.66756-3.90628-52.92896-3.90628-52.92896,0,0,15.34205,15.14635,30.0561,6.07034,8.67898-5.35338,6.46978-27.52696,6.46978-27.52696,0,0,13.12673,31.92938,49.28322,23.59234,36.15649-8.33693,30.51253-29.54971,30.51253-29.54971,0,0,15.60309,17.94205,36.28666,10.90949,20.68357-7.03256,14.49291-27.49852,14.49291-27.49852l25.2263,38.89389,77.11222-7.69415-61.36671-15.82633,33.08398-33.186-43.45773,13.65141,3.8324-105.61859-106.06357,62.92769-2.34791-53.01399-54.47205,51.12152-94.07486-49.54737-4.06177,106.09955-91.68796-16.85047,54.49376,78.76719-101.17638-18.07865,66.83628,83.89089-57.24604,82.09219,93.34453-16.7589-15.98293,48.19123" style="fill: #701612;"/>
    <g style="clip-path: url(#clippath);">
      <path d="M23.18244,307.89018c20.94862,16.74432,38.818,23.22315,53.60803,19.43649,8.06755-1.89549,16.87791-8.23029,26.43086-19.00428,21.63775-35.08692,48.97514-47.17815,82.01208-36.27379l11.1465-16.20547c-24.86988-15.71074-48.78045-15.23611-71.73151,1.42408-11.7141,11.5192-23.09771,25.40954-34.15104,41.67089-4.20912,4.72617-8.16646,8.20445-11.87181,10.43466-8.32819,4.49458-18.01824,5.03424-29.07015,1.61888-7.10192-1.50359-17.29474-6.78218-30.57867-15.83548l4.20571,12.73402M67.27602,278.56432c-7.20866,8.6836-12.74357,14.59041-16.60481,17.72032-5.87062,2.76745-17.43445-4.29587-34.6915-21.18976l.50448,10.55779,6.72971,4.28491c19.69139,17.28107,37.63947,17.70413,53.84414,1.26919,28.75012-59.41362,102.35752-52.75587,133.34297-45.95037l11.1464-16.20557c-21.80973-8.79447-82.38499-12.08078-106.38984-.28777-16.34609,11.27948-32.3066,27.87987-47.88155,49.80127Z" style="fill: #7a221a;"/>
    </g>
    <path d="M199.741,390.48102l-99.94448-1.05027c-.04403-.0009-.08614-.00181-.12826-.00452-.66289.3708-1.47414.47242-2.25795.2142-1.47424-.4889-2.27262-2.08124-1.78372-3.55538l14.49472-43.70097-88.68943,15.92302c-1.10787.195-2.25242-.293-2.86415-1.2517-.61525-.9586-.58962-2.19201.06051-3.12599l56.0466-80.37169L9.14576,191.30812c-.73064-.91568-.81668-2.18658-.21611-3.19293.59705-1.00444,1.75628-1.53364,2.90998-1.32859l94.52386,16.89007-50.648-73.20957c-.64832-.93669-.66842-2.171-.04945-3.12689.61716-.95589,1.75075-1.44579,2.87148-1.23974l88.49161,16.26276,3.93723-102.85356c.03659-.96503.5677-1.84403,1.40458-2.3275.83507-.48257,1.86423-.50277,2.7177-.05317l92.30059,48.61349,53.01038-49.7498c.8021-.75355,1.97048-.96966,2.98506-.55393,1.01821.41382,1.7012,1.38257,1.74884,2.48048l2.14075,48.32411,102.02482-60.53244c.88643-.52559,1.98515-.52468,2.87148.0009.88452.52468,1.41192,1.49163,1.37533,2.51989l-3.68635,101.64025,39.6584-12.45821c1.23612-.38457,2.57477.1181,3.2468,1.22416.67214,1.10616.50187,2.52903-.41201,3.44562l-29.61373,29.70349,56.60878,14.59815c1.32035.34155,2.20668,1.58219,2.10054,2.94285-.10624,1.36156-1.1739,2.44932-2.53275,2.5812l-75.28609,7.27299c-1.02735.0971-1.99068-.35441-2.57115-1.18215l-21.18252-30.12374c-.89186,7.63916-5.20451,16.13089-17.15925,20.19457-15.24365,5.18622-27.75503-1.89449-34.32754-7.10453-.38085,2.43103-1.24889,5.28513-3.03261,8.24818-4.97745,8.26366-14.97256,14.1769-29.71083,17.57487-24.94034,5.75292-39.69318-6.75293-46.9341-16.14194-.41934,7.25741-2.18477,16.15843-7.97528,19.73029-9.15833,5.64778-19.00147,3.08025-26.10318-.95136,3.4025,11.71571,7.86351,32.84878.998,46.66684-7.44417,14.97809-30.50017,18.20208-42.37057,18.8522,3.64243,4.00408,7.69143,10.11784,7.23731,17.19945-.56589,8.82503-10.76434,15.14022-17.45224,18.35225,9.18024,5.46183,26.98771,18.56936,27.38876,38.24376.37914,18.74877-6.50104,27.46937-10.59036,30.98273l22.07438,26.12881c.71053.8406.86623,2.01812.39743,3.01341-.46518.98705-1.45584,1.61516-2.54552,1.61516h-.02925ZM166.27044,249.45516c.36265.01106,35.96109.96051,44.32094-15.86533,8.61435-17.33494-3.88597-50.3367-4.01423-50.6681-.47433-1.23612-.02191-2.63709,1.08595-3.36229,1.11158-.72521,2.57296-.58238,3.51608.3516.1374.1365,13.90862,13.50757,26.60495,5.67884,5.21919-3.22027,5.9261-16.955,5.14782-24.8561-.1374-1.38629.7618-2.66272,2.11331-3.00235,1.3496-.34155,2.75057.36255,3.28349,1.64994.50538,1.2123,12.71462,29.61102,46.0533,21.92693,12.91977-2.98034,21.93698-8.11902,26.07202-14.86089,3.6187-5.89585,2.40088-11.03071,2.35323-11.2249-.33692-1.26447.24355-2.59396,1.39915-3.2075,1.16104-.61525,2.5821-.34788,3.441.63826.14464.16575,14.56789,16.4468,33.25988,10.0913,17.79831-6.05064,12.91977-23.29764,12.70547-24.02013-.40105-1.32216.21791-2.7387,1.45956-3.3439,1.24336-.60439,2.74142-.21892,3.53256.91106l26.11233,37.13308,57.76067-5.57993-45.90494-11.83753c-.97609-.25179-1.74331-1.00805-2.00887-1.98143-.26737-.97237.00734-2.0144.71968-2.72865l25.01361-25.0905-32.55115,10.22599c-.86995.2747-1.82031.10524-2.54733-.44689-.72702-.55393-1.13913-1.42569-1.10616-2.33856l3.64424-100.46735-101.62919,60.29714c-.85336.50358-1.90454.52368-2.77258.05579-.86985-.47061-1.43031-1.36247-1.47243-2.35042l-2.07843-46.89752-50.00712,46.93139c-.87347.8213-2.17372.9971-3.23585.43764l-90.12326-47.46612-3.8915,101.63754c-.03116.81497-.41573,1.57676-1.05298,2.08768-.63364.51001-1.45223.71787-2.26719.57042l-84.99192-15.61997,50.62045,73.17017c.64651.93398.66842,2.16547.05317,3.12136-.61535.95418-1.74342,1.44861-2.86053,1.24808l-93.83534-16.76644,62.18881,78.05695c.77647.97338.8204,2.34037.10805,3.36129l-53.35464,76.51316,86.64929-15.55776c.97247-.17389,1.97229.1768,2.62241.92664.65012.74993.85527,1.78644.54388,2.72775l-14.64841,44.16615,91.35566.96051-20.08551-23.77377c-.55675-.65746-.76371-1.54018-.59343-2.38349.17218-.84331.73626-1.56943,1.50359-1.95761.43945-.22254,10.7753-5.70819,10.32661-27.82187-.45603-22.43332-29.14132-35.97577-29.4307-36.10945-1.0365-.48066-1.6811-1.54008-1.62803-2.68.05126-1.14093.78753-2.13803,1.86242-2.5226,5.19728-1.85881,18.79461-8.31321,19.27074-15.75647.59142-9.23432-10.23695-17.15643-10.34319-17.23332-1.00715-.72159-1.42288-2.01722-1.02363-3.19011.38819-1.14365,1.46137-1.90916,2.66262-1.90916.03116,0,.06051.0009.09157.00181Z" style="fill: #3f130e;"/>
  </g>
  <g>
    <g id="Layer_1-4" data-name="Layer 1">
      <g>
        <path d="M157.38501,362.89073c6.79756-2.66734,13.85033-3.35465,21.1582-2.06184,9.70633,1.79046,20.05495,8.08193,31.04576,18.87452-.05689.02885-.09931.08614-.12725.17188-1.12938,1.71819-.70752,5.22271,1.26577,10.51346,1.94525,5.37649,3.31153,9.40238,4.09876,12.07756l-5.43208,13.16593.29772-.25862c-3.227,3.64223-6.71433,6.70157-10.4622,9.17803-6.07728,3.80325-13.16502,5.68829-21.26313,5.65532-7.78601-.26325-15.25511-2.22498-22.40738-5.8855-7.09538-3.68927-12.37227-8.37412-15.83075-14.05447-4.15073-6.90199-5.65421-14.50548-4.51046-22.81044,1.75136-11.33134,9.14044-19.51992,22.16705-24.56582Z" style="fill: #fac0a0;"/>
        <path d="M178.5432,360.82889c-7.30787-1.29281-14.36064-.6055-21.1582,2.06184-13.02661,5.0459-20.4157,13.23448-22.16705,24.56582-1.14375,8.30497.35974,15.90845,4.51046,22.81044,3.45849,5.68035,8.73537,10.3652,15.83075,14.05447,7.15227,3.66052,14.62137,5.62225,22.40738,5.8855,8.09811.03297,15.18585-1.85207,21.26313-5.65532,3.74787-2.47646,7.2352-5.53581,10.4622-9.17803l1.99289,3.92206c-2.34087,3.97854-5.49892,7.26384-9.47405,9.8559-6.98582,4.40794-15.11258,6.5706-24.38007,6.48818l-.08524.04332c-11.43678-.4106-20.37348-2.23463-26.8101-5.47198-7.98242-4.16832-13.94782-9.5045-17.89642-16.00856l-.04332-.08534c-4.75632-7.95297-6.46717-16.73849-5.13224-26.35628.89759-6.67815,3.81018-12.62787,8.73778-17.84938,4.75703-5.13476,11.03242-9.18165,18.82607-12.14058,7.70792-2.98697,15.75808-3.75199,24.1506-2.29514,11.01834,1.839,21.07788,9.74342,30.17892,23.71326l.21801.64017c-.19942.02975-.37039.04513-.51302.04604.02794-.08574.07036-.14303.12725-.17188-10.9908-10.79259-21.33942-17.08406-31.04576-18.87452Z" style="fill: #e16134;"/>
      </g>
    </g>
    <g style="mask: url(#mask-8);">
      <g id="Layer_2-3" data-name="Layer 2">
        <g style="mask: url(#mask-9);">
          <path d="M183.92341,355.92642c17.40591.14022,32.23001,3.99634,44.47242,11.56816,12.01273,7.79777,17.97582,17.07341,17.88908,27.8268-.08735,10.84456-6.1989,20.00007-18.33466,27.46655-12.36463,7.60137-27.24995,11.33195-44.65585,11.19173-17.22368-.13881-31.86464-4.1073-43.92291-11.90548-12.19607-7.66268-18.25043-16.9162-18.16308-27.76076.08664-10.75339,6.28956-19.93092,18.60866-27.53269,12.18059-7.37501,26.88267-10.99311,44.10634-10.8543Z" style="fill: url(#radial-gradient-8);"/>
        </g>
      </g>
    </g>
    <g id="Layer_3" data-name="Layer 3">
      <path d="M177.17772,387.69778c-3.45135-.17721-6.25559.49684-8.41282,2.02204-2.32861,1.46931-2.88726,3.25505-1.67607,5.35719,1.50098,2.81319,4.26551,4.80547,8.29351,5.97696,4.17244,1.45564,9.82755.69184,16.96515-2.29132,2.02083,3.83632,3.09603,6.93727,3.22539,9.30317.2729,2.50742-.72561,4.62395-2.99562,6.34947-2.21302,1.69668-4.88639,2.76906-8.02001,3.21705-3.27525.59152-6.55512.4702-9.83972-.36396l-.04191.12866c6.34625,2.49657,12.09304,2.68744,17.24036.57253,4.20902-1.70964,6.73243-3.92155,7.57021-6.63583,1.20406-3.40089-.1948-8.05388-4.19646-13.95878,4.75522-5.42002,4.23687-10.59196-1.55485-15.51574-5.18974-4.44312-13.85063-7.69455-25.98236-9.75448,10.5206,4.23747,18.11724,8.27994,22.78994,12.12752,1.46198,1.18808,2.4258,2.522,2.89159,4.00176.64007,1.96324.26586,3.61951-1.12254,4.96871-2.43566-1.8377-4.79673-3.17674-7.08322-4.01734-2.2298-.86945-4.91332-1.36538-8.05057-1.48761M190.02049,396.08316c-4.48765,2.70946-9.03289,3.12387-13.63583,1.24326-4.60203-1.73809-5.9255-3.56865-3.9705-5.49168,1.10515-1.06223,3.42813-1.20556,6.96884-.4302,3.76907.8025,7.31491,2.36208,10.6375,4.67862Z" style="fill: #e26236;"/>
    </g>
  </g>
  <path d="M231.69892,185.69863c1.34257-2.29554,2.63759-2.85379,3.88507-1.67486,7.84311,15.09258,7.92563,27.02741.24747,35.80459-7.76551,8.76351-20.26985,11.77662-37.51293,9.03963-3.13473-.26586-3.88064-1.0757-2.23764-2.42962,15.60671-10.84958,27.47942-24.42952,35.61804-40.73973Z"/>
  <path d="M322.6867,131.7385c15.11901,6.64448,31.18758,9.14728,48.20571,7.5084,1.86474.00955,1.81347,1.0172-.15389,3.02276-10.36169,11.88568-20.74006,17.03169-31.13501,15.43815-10.33415-1.60792-17.16829-9.88605-20.50244-24.83439.20304-1.58923,1.39825-1.96756,3.58564-1.1349Z"/>
  <g>
    <path d="M319.54554,439.94134c-22.38095-4.65913-65.87999-41.05233-48.77301-77.00588,15.76904-33.13926,46.21091,11.81019,64.73232,16.71266,18.52151,4.90257,67.21441-19.10037,64.52385,17.50069-2.92033,39.70855-58.72781,49.81594-80.48316,42.79253Z" style="fill: #2b1010;"/>
    <g>
      <path d="M279.51493,397.85814c38.7395,15.41965,51.25741,27.31186,99.11373,23.10093,1.81227-.15962,1.21109,7.22897-.48428,10.51236-28.55482,11.2055-58.32646,9.83439-58.32646,9.83439,0,0-28.40696-13.43792-45.56138-34.19476.40226-3.21172,3.089-10.11633,5.25839-9.25292Z" style="fill: #fff;"/>
      <path d="M277.10521,398.33759c3.52482-3.79973,37.93036,14.86572,62.44723,21.3552,16.27392,4.30763,39.3843-2.28629,40.92025,2.82474.52207,1.73477.2746,5.21617-1.18245,8.50137-.75767.30607-1.52681.59384-2.30971.8602,2.01722-3.32661,2.36771-7.3135,1.89589-8.88101-.76883-2.55858-14.11347,5.09174-39.75037-1.69416-31.2303-8.26647-58.6864-24.11049-60.799-21.83355-1.53706,1.65717-3.06899,5.15476-3.3238,8.40136-.5089-.51493-1.00011-1.03952-1.48188-1.57083.56127-3.22208,2.08014-6.34223,3.58383-7.96332Z" style="fill: #a4a3a3;"/>
    </g>
    <g>
      <path d="M386.21677,391.46284c-4.61208,4.97192-95.47714-14.72832-98.41054-24.48712-.5078-1.68763,2.76826-10.57347,4.41086-13.75444,24.04325,8.88232,28.94451,23.78071,40.83481,26.12499,26.15103,5.15576,29.51644-8.17118,57.64588-.10132-.38969,3.11131-2.94255,10.5595-4.48101,12.21788Z" style="fill: #fff;"/>
      <path d="M386.80859,392.01164c-3.41476,3.68112-39.66413-3.37807-63.41558-9.66492-15.76582-4.17314-34.87202-10.18669-36.35993-15.13821-.50569-1.68049,2.66221-10.36611,4.07373-13.54888.73415-.29652,1.47916-.57524,2.23764-.83336-1.95409,3.22278-5.222,12.3982-4.76497,13.91687.74471,2.47868,10.39023,7.46859,35.22674,14.04271,30.25531,8.00835,59.77195,12.33417,61.81862,10.12839,1.48901-1.60551,4.10258-9.26096,4.34944-12.40614.49322.49875.96906,1.00685,1.43564,1.52158-.54378,3.12166-3.14458,10.41154-4.60133,11.98197Z" style="fill: #a4a3a3;"/>
    </g>
    <path d="M259.39062,361.32864c3.82627-6.5123,4.1067-7.3142,6.74982-10.31605,5.42735-5.78307,8.28838-6.37661,9.70834-7.255-.59615.13208-5.46113-1.79809-12.14983,5.09415-4.00036,4.8686-4.11303,7.32033-4.30833,12.4769Z" style="fill: #e16134;"/>
    <path d="M412.67868,402.4648c.0391-.15841,2.30418-4.23928,1.55545-10.3067-1.28075-8.62943-5.87866-8.10977-6.17849-8.34598.49403,1.03188,1.77417.51393,2.94586,8.76864,1.30437,10.18961,1.46208,8.70612,1.67718,9.88404Z" style="fill: #e16134;"/>
    <path d="M401.65471,397.26873c-.95136,12.93806-7.23178,23.63134-18.66565,31.78293-20.49571,14.60971-50.22282,16.07581-63.86076,12.46595-13.63784-3.60986-38.74684-19.59068-49.33066-42.42706-5.90389-12.74065-6.07175-25.14076-.49775-36.85536,5.06741-10.64956,12.38051-14.79274,21.73665-12.31618,15.45383,4.09052,33.04568,25.01884,44.88553,28.15276,11.85432,3.13775,37.46337-6.3556,52.9361-2.26006,9.35514,2.47626,13.66126,9.69588,12.79654,21.45702ZM290.20218,353.07152c-7.83456-2.0738-13.54124,1.28346-17.95713,10.56422-5.13777,10.79731-4.96519,22.26465.51142,34.08329,9.70231,20.93626,33.64927,37.0575,47.2064,40.64595,13.55703,3.58845,42.34363,1.42549,61.13311-11.96921,10.60654-7.56157,16.42951-17.44189,17.3065-29.36697.75416-10.25102-2.54461-15.99168-10.37928-18.06468-14.59332-3.86275-40.19665,5.6322-52.93559,2.26026-12.75462-3.37606-30.28466-24.2881-44.88543-28.15286Z" style="fill: #e16134;"/>
    <g>
      <path d="M285.14402,383.84428c9.06837.42206,14.041,2.68352,22.32205,6.18654,10.34199,4.37477,24.66724,18.91301,34.70577,29.26455-14.3733,1.06545-37.55424-12.60878-44.81477,6.15819-5.30121,13.70247-16.45947,15.83035-23.56621,15.90001-6.88571.06734-17.79118-1.78784-23.32085-14.65725-11.68113-27.18582,22.47171-43.41983,34.67401-42.85203Z" style="fill: #ee4237;"/>
      <path d="M272.84101,403.85269c3.6963-2.39706,7.57604-4.09494,11.62273-4.44403,4.02337-.38165,8.08293.2927,12.05133,1.51424,3.99583,1.16978,7.90502,2.87118,11.9675,4.41638,2.02465.78924,4.10208,1.53033,6.2579,2.1115,2.13421.4887,4.54575.997,6.65865.14333-2.20719.00241-4.11635-.94252-6.01747-1.86966-1.90172-.94755-3.76184-2.02857-5.67673-3.04437-3.80445-2.07984-7.79928-4.01071-12.11375-5.34765-4.30542-1.25421-9.05802-1.88223-13.61633-.79788-2.26327.51413-4.42513,1.43755-6.31499,2.70131-1.87207,1.29583-3.50462,2.84967-4.81884,4.61681Z" style="fill: #d72f27;"/>
      <path d="M247.9057,426.89985c-4.06358-9.45947-3.22851-18.76888,2.41736-26.91905,8.37081-12.0846,25.4622-18.93643,34.06932-18.54543h0c9.0154.42025,14.14855,2.59587,21.91868,5.88942l1.04565.44317c10.22599,4.32642,23.59435,17.59236,35.32011,29.6862.50729.52277.6648,1.29191.40658,1.97229-.25822.68028-.88824,1.14998-1.61345,1.20315-4.66978.34517-9.94757-.7234-15.53293-1.85509-11.94006-2.42279-23.21351-4.70647-27.6708,6.81967-4.28159,11.06559-13.02963,16.97882-25.29746,17.09874-.12635.0009-.24907.00181-.37361.00181-11.7129-.0009-20.24673-5.4563-24.68945-15.79487ZM326.68233,415.0981c3.56734.7243,7.00281,1.42016,10.13251,1.70864-8.64189-8.8387-21.74841-21.70449-30.91951-25.58493l-1.04927-.44407c-7.66037-3.2469-12.28432-5.20733-20.62949-5.59551h0c-7.53393-.34336-23.28668,6.07074-30.80965,16.93389-4.94268,7.13378-5.63301,14.97447-2.05471,23.30316,3.90065,9.07682,11.16901,13.57351,21.57995,13.52315,10.7551-.10524,18.10227-5.05163,21.83626-14.70158,3.38421-8.74713,9.82484-11.17454,17.11522-11.17454,4.77602,0,9.91641,1.04203,14.79867,2.03179ZM284.28613,383.30874h.01829-.01829Z" style="fill: #d72f27;"/>
    </g>
  </g>
</svg>