<?xml version="1.0" encoding="UTF-8"?>
<svg id="Layer_1" xmlns="http://www.w3.org/2000/svg" xmlns:xlink="http://www.w3.org/1999/xlink" version="1.1" viewBox="0 0 500 500">
  <!-- Generator: Adobe Illustrator 29.5.1, SVG Export Plug-In . SVG Version: 2.1.0 Build 141)  -->
  <defs>
    <linearGradient id="linear-gradient" x1="-8309.63" y1="-454.01" x2="-8314.29" y2="-524" gradientTransform="translate(-7486.09 3613.11) rotate(153.06) scale(1.02)" gradientUnits="userSpaceOnUse">
      <stop offset=".52" stop-color="#fac0a0"/>
      <stop offset=".87" stop-color="#f58d6a"/>
    </linearGradient>
    <clipPath id="clippath">
      <path d="M172.96,147.94c6.63-14.81,13.84-27.52,21.64-38.15,10.93-14.85,23.02-25.61,36.27-32.27,22.59-11.25,48.59-10.62,78.01,1.9.06.05.14.08.23.11,3.16,4.94,6.15,9.71,8.99,14.31,10.63,17.09,19.08,31.77,25.35,44.04.14.27.35.49.62.66,10.37,5.59,16.37,13.75,18,24.48.86,5.61.52,11.98-1.02,19.11-1.36,6.34-3.65,13.26-6.89,20.77-.86,1.7-1.75,3.36-2.69,4.98-.51.87-1.05,1.74-1.61,2.6-2.72,4.29-5.86,8.3-9.44,12.03-5.35,5.59-12.01,10.62-19.98,15.09-15.83,8.74-32.49,13.15-49.96,13.23-1.11,0-2.25-.02-3.41-.05-.63-.03-1.25-.05-1.88-.08-22.32-1.01-41.1-8.93-56.35-23.75-1.26-1.27-2.51-2.57-3.75-3.89-13.1-14.35-22.61-33.44-28.53-57.29-1.39-5.68-2.6-11.63-3.62-17.85Z" fill="none"/>
    </clipPath>
    <radialGradient id="radial-gradient" cx="-1968.67" cy="-657.48" fx="-1968.67" fy="-657.48" r="63.31" gradientTransform="translate(-1777.24 537.78) rotate(151.64)" gradientUnits="userSpaceOnUse">
      <stop offset="0" stop-color="#f47e58"/>
      <stop offset=".03" stop-color="#f47f58" stop-opacity=".97"/>
      <stop offset=".09" stop-color="#f4825a" stop-opacity=".88"/>
      <stop offset=".15" stop-color="#f4885e" stop-opacity=".73"/>
      <stop offset=".23" stop-color="#f59062" stop-opacity=".53"/>
      <stop offset=".31" stop-color="#f69b68" stop-opacity=".27"/>
      <stop offset=".39" stop-color="#f7a66f" stop-opacity="0"/>
    </radialGradient>
    <radialGradient id="radial-gradient1" cx="-1933.32" cy="-657.13" fx="-1933.32" fy="-657.13" r="63.31" gradientTransform="translate(-1685.44 489.42) rotate(151.64)" xlink:href="#radial-gradient"/>
    <mask id="mask" x="-10.98" y="135.87" width="339.91" height="113.64" maskUnits="userSpaceOnUse">
      <g id="Mask_Mask_4">
        <path d="M10.94,240.33c4.22-2.95,8.46-7.27,12.73-12.99,5.48-7.26,7.08-14.55,4.83-21.87-1.96-6.56-6.02-10.39-12.18-11.49l.06.12c-5.87-.74-12.66.88-20.38,4.88l-4.9,48.68c7.63-1.1,14.24-3.55,19.84-7.33M16.39,194.1l-.06-.12c6.16,1.09,10.22,4.92,12.18,11.49,2.26,7.32.65,14.61-4.83,21.87-4.27,5.71-8.51,10.04-12.73,12.99-5.6,3.78-12.21,6.22-19.84,7.33-.68.06-1.26.11-1.74.16l-.34.79c.56.11,1.13.21,1.69.32,9.25,1.38,17.32.35,24.21-3.1,5.79-2.66,10.95-7.17,15.48-13.53,7.18-9.59,9.49-19.48,6.92-29.68l-.18-.06c-1.96-10.01-8.47-15.58-19.51-16.72-9.86-1.77-19.03,3.5-27.51,15.8l.37.41c1.94-1.13,3.78-2.15,5.52-3.08,7.72-3.99,14.51-5.62,20.38-4.88Z" fill="#fff"/>
      </g>
    </mask>
    <filter id="luminosity-noclip" x="294.69" y="135.87" width="34.25" height="31.25" color-interpolation-filters="sRGB" filterUnits="userSpaceOnUse">
      <feFlood flood-color="#fff" result="bg"/>
      <feBlend in="SourceGraphic" in2="bg"/>
    </filter>
    <filter id="luminosity-noclip1" x="294.69" y="-8992" width="34.25" height="32766" color-interpolation-filters="sRGB" filterUnits="userSpaceOnUse">
      <feFlood flood-color="#fff" result="bg"/>
      <feBlend in="SourceGraphic" in2="bg"/>
    </filter>
    <mask id="mask-2" x="294.69" y="-8992" width="34.25" height="32766" maskUnits="userSpaceOnUse"/>
    <radialGradient id="radial-gradient2" cx="-15767.94" cy="-11418.91" fx="-15767.94" fy="-11418.91" r="230.03" gradientTransform="translate(-2333.48 -13.65) rotate(152.06) scale(.14 .12) skewX(-.01)" gradientUnits="userSpaceOnUse">
      <stop offset=".07" stop-color="#c2c2c2"/>
      <stop offset=".36" stop-color="#000"/>
    </radialGradient>
    <mask id="mask-1" x="294.69" y="135.87" width="34.25" height="31.25" maskUnits="userSpaceOnUse">
      <g filter="url(#luminosity-noclip)">
        <g mask="url(#mask-2)">
          <path d="M304.79,138.35c4.33-2.3,8.7-2.99,13.1-2.09,4.39,1.01,7.54,3.34,9.47,6.98,1.95,3.67,2.09,7.58.45,11.74-1.68,4.23-4.68,7.49-9.01,9.79-4.28,2.27-8.63,2.91-13.02,1.9-4.41-.94-7.58-3.25-9.53-6.92-1.93-3.64-2.06-7.57-.39-11.79,1.67-4.13,4.65-7.33,8.94-9.6Z" fill="url(#radial-gradient2)" mix-blend-mode="multiply"/>
        </g>
      </g>
    </mask>
    <radialGradient id="radial-gradient3" cx="-15767.94" cy="-11418.91" fx="-15767.94" fy="-11418.91" r="230.03" gradientTransform="translate(-2333.48 -13.65) rotate(152.06) scale(.14 .12) skewX(-.01)" gradientUnits="userSpaceOnUse">
      <stop offset=".07" stop-color="#f37e58"/>
      <stop offset=".36" stop-color="#fac0a0"/>
    </radialGradient>
    <clipPath id="clippath-1">
      <path d="M158.73,208.39l53.45.56-12.86-15.23s6.63-3.15,6.36-16.26c-.27-13.11-16.61-20.65-16.61-20.65,0,0,10.93-3.89,11.3-9.75.38-5.86-6.16-10.54-6.16-10.54,0,0,20.14.67,25.1-9.32,4.96-9.99-2.09-28.32-2.09-28.32,0,0,8.2,8.1,16.07,3.25,4.64-2.86,3.46-14.73,3.46-14.73,0,0,7.02,17.08,26.36,12.62,19.34-4.46,16.32-15.81,16.32-15.81,0,0,8.34,9.6,19.41,5.84,11.06-3.76,7-13.51,7-13.51l14.24,19.6,41.24-4.12-32.82-8.47,17.69-17.75-23.24,7.3,2.05-56.5-56.72,33.66-1.26-28.36-29.13,27.35-50.31-26.51-2.17,56.76-49.03-9.01,29.14,42.14-54.11-9.67,35.74,44.88-30.61,43.92,49.92-8.97-8.55,25.78" fill="none"/>
    </clipPath>
    <mask id="mask-3" x="-327.04" y="191.97" width="564.09" height="231.62" maskUnits="userSpaceOnUse"/>
    <filter id="luminosity-noclip2" x="170.16" y="191.97" width="66.89" height="41.76" color-interpolation-filters="sRGB" filterUnits="userSpaceOnUse">
      <feFlood flood-color="#fff" result="bg"/>
      <feBlend in="SourceGraphic" in2="bg"/>
    </filter>
    <filter id="luminosity-noclip3" x="170.16" y="-8992" width="66.89" height="32766" color-interpolation-filters="sRGB" filterUnits="userSpaceOnUse">
      <feFlood flood-color="#fff" result="bg"/>
      <feBlend in="SourceGraphic" in2="bg"/>
    </filter>
    <mask id="mask-5" x="170.16" y="-8992" width="66.89" height="32766" maskUnits="userSpaceOnUse"/>
    <radialGradient id="radial-gradient4" cx="-11466.3" cy="-2025.24" fx="-11466.3" fy="-2025.24" r="230.03" gradientTransform="translate(-2914.79 -154.2) rotate(-179.54) scale(.27 .17)" xlink:href="#radial-gradient2"/>
    <mask id="mask-4" x="170.16" y="191.97" width="66.89" height="41.76" maskUnits="userSpaceOnUse">
      <g filter="url(#luminosity-noclip2)">
        <g mask="url(#mask-5)">
          <path d="M203.7,191.97c9.31.07,17.24,2.14,23.78,6.19,6.42,4.17,9.61,9.13,9.57,14.89-.05,5.8-3.32,10.7-9.8,14.69-6.61,4.07-14.57,6.06-23.88,5.99-9.21-.07-17.04-2.2-23.49-6.37-6.52-4.1-9.76-9.05-9.71-14.85.05-5.75,3.36-10.66,9.95-14.73,6.51-3.95,14.38-5.88,23.59-5.81Z" fill="url(#radial-gradient4)" mix-blend-mode="multiply"/>
        </g>
      </g>
    </mask>
    <radialGradient id="radial-gradient5" cx="-11466.3" cy="-2025.24" fx="-11466.3" fy="-2025.24" r="230.03" gradientTransform="translate(-2914.79 -154.2) rotate(-179.54) scale(.27 .17)" xlink:href="#radial-gradient3"/>
  </defs>
  <g id="Layer_11" data-name="Layer_1">
    <g>
      <g>
        <path d="M112.8,439.53c7.3-3,39.14-45.98,50.77-69.05l29.38,35.38-35.73,45.01" fill="#fac0a0"/>
        <path d="M157.28,462.33c.79,0,1.46-.62,1.51-1.42l.62-10.8c.05-.83-.59-1.55-1.42-1.59-.83-.04-1.55.59-1.59,1.42l-.62,10.8c-.05.83.59,1.55,1.42,1.59.03,0,.06,0,.09,0Z" fill="#e26236"/>
        <path d="M157.96,451.48c.44,0,.88-.2,1.18-.57l35.73-45.01c.44-.56.44-1.35-.02-1.9l-29.38-35.38c-.32-.39-.82-.6-1.33-.54-.51.06-.95.37-1.18.82-11.91,23.64-43.4,65.62-49.99,68.33-.77.32-1.14,1.2-.82,1.97.32.77,1.2,1.14,1.97.82,7.7-3.17,37.93-43.89,50.49-67.72l27.14,32.68-34.97,44.05c-.52.65-.41,1.6.24,2.12.28.22.61.33.94.33Z" fill="#e26236"/>
        <g>
          <g>
            <g>
              <path d="M92.72,452.48c-1.2,1.36-2.43,3.19-3.68,5.48,2.12,1.13,8.72,2.35,19.8,3.67-.64-2.67-1.65-5.18-3-7.55-1.93-3.27-4.24-5.62-6.93-7.04-2.95,2.22-5.01,4.03-6.18,5.44M132.87,457.98c.43,1.06.83,2.28,1.19,3.65,5.3-.01,9.25-.05,11.84-.1,4.62-.03,6.74-.45,10.38-.9l1.96-11.99-25.37,9.33M121.18,443.36c1.16.88,3.04,2.62,5.62,5.21l27.47.43-33.65-13.16c.66,1.73-.02,2.77-2.05,3.12-2.29.32-4.21.38-5.76.16,2.79.66,5.57,2.07,8.36,4.24Z" fill="#fac0a0"/>
              <path d="M157.56,466.81l.73-5.99c-3.64.45-7.77.69-12.39.72-2.59.05-6.54.09-11.84.1-5.96,0-10.72.06-14.3.18-3.58.13-7.22.06-10.93-.19-11.07-1.32-17.67-2.55-19.8-3.67-.63,2.31-.7,4.36-.21,6.16,8.35,1.36,15.46,2.35,21.33,2.96,8.98.93,17.47,1.33,25.47,1.19,2.91-.02,6.45-.22,10.61-.58,5.93-.49,9.71-.78,11.32-.88M160.79,448.01l-35.71.56c.66,3.11.81,6.44.44,10l32.36-1.62,1.24-9.45" fill="#e54728"/>
            </g>
            <path d="M132.55,469.79c1.05,0,2.08,0,3.11-.03,2.92-.02,6.53-.22,10.71-.58,5.9-.48,9.7-.78,11.28-.88l1.25-.08.89-7.23-.49-.06-.19-1.53c-3.01.37-7.46.58-13.21.62-2.58.05-6.55.08-11.83.1v3.02c5.3-.01,9.3-.05,11.87-.1,4.22-.03,7.78-.15,10.61-.36l-.33,2.7c-1.98.14-5.31.4-10.1.8-4.11.36-7.64.55-10.49.57-7.91.14-16.42-.26-25.3-1.18-5.57-.58-12.37-1.51-20.22-2.78-.12-.85-.1-1.78.04-2.78,2.43.76,7.38,1.79,18.51,3.12l.36-3c-13.5-1.61-17.93-2.8-19.27-3.51l-.71,1.33-1.46-.4c-.7,2.56-.77,4.9-.21,6.96l.26.93.96.16c8.34,1.36,15.55,2.36,21.42,2.97,7.85.81,15.42,1.22,22.54,1.22Z" fill="#85241a"/>
            <path d="M90.37,458.68c1.19-2.18,2.37-3.93,3.49-5.2,1.12-1.34,3.12-3.09,5.96-5.23l-1.82-2.41c-3.07,2.31-5.17,4.17-6.43,5.67-1.24,1.41-2.55,3.34-3.85,5.72l2.65,1.45Z" fill="#e26236"/>
            <path d="M124.94,460.03c-.2-.21-.3-.5-.27-.8.36-3.44.21-6.7-.42-9.69-.06-.29,0-.59.19-.82.18-.23.45-.38.75-.39l33.8-1.74c.55-.03,1.03.4,1.06.95,0,.02,0,.04,0,.05.18.21.28.5.24.79l-1.24,9.45c-.06.48-.46.85-.95.87l-32.36,1.62s-.03,0-.05,0c-.28,0-.54-.11-.73-.31ZM158.21,448.64l-31.77,1.63c.43,2.52.54,5.2.34,8l30.37-1.52,1.07-8.1Z" fill="#85241a"/>
          </g>
          <path d="M95.19,458.33c1.51-3,3.67-5.19,6.48-6.57-1.73,2.53-2.99,4.87-3.77,7l-2.71-.43Z" fill="#e26236"/>
          <g>
            <path d="M132.87,457.98c.43,1.06.83,2.28,1.19,3.65-2.03.35-6.31.49-12.85.44-5.82-.07-9.94-.22-12.38-.44-.64-2.67-1.65-5.18-3-7.55-1.93-3.27-4.24-5.62-6.93-7.04,1.71-1.52,3.62-3,5.75-4.44,2.47-1.65,4.79-2.91,6.97-3.78,3.22.58,6.41,2.08,9.56,4.53,1.16.88,3.04,2.62,5.62,5.21,2.6,2.76,4.62,5.9,6.08,9.41Z" fill="#e54728"/>
            <path d="M121.2,463.58c-5.83-.07-10.03-.22-12.5-.45l-1.08-.1-.25-1.05c-.61-2.51-1.56-4.92-2.84-7.13-1.78-3.01-3.91-5.19-6.33-6.48l-1.92-1.02,1.62-1.44c1.75-1.55,3.73-3.09,5.91-4.56,2.55-1.7,4.99-3.02,7.25-3.92l.4-.16.42.08c3.45.62,6.89,2.24,10.2,4.81,1.23.93,3.12,2.68,5.81,5.38,2.71,2.88,4.86,6.2,6.38,9.88.45,1.11.87,2.4,1.25,3.83l.43,1.6-1.63.28c-1.83.31-5.25.47-10.42.47-.85,0-1.76,0-2.71-.01ZM131.48,458.56c-1.37-3.33-3.32-6.34-5.75-8.92-2.52-2.53-4.36-4.24-5.47-5.08-2.8-2.17-5.65-3.57-8.48-4.15-1.95.82-4.06,1.98-6.27,3.46-1.44.98-2.8,1.98-4.05,3,2.16,1.56,4.06,3.72,5.69,6.48,1.24,2.16,2.21,4.47,2.88,6.88,2.47.17,6.23.29,11.2.35,4.94.05,8.59-.03,10.89-.22-.21-.65-.42-1.25-.64-1.79Z" fill="#85241a"/>
          </g>
          <path d="M132.87,457.98c.43,1.06.83,2.28,1.19,3.65-2.03.35-6.31.49-12.85.44-5.82-.07-9.94-.22-12.38-.44-.64-2.67-1.65-5.18-3-7.55-1.93-3.27-4.24-5.62-6.93-7.04,1.71-1.52,3.62-3,5.75-4.44,2.47-1.65,4.79-2.91,6.97-3.78,3.22.58,6.41,2.08,9.56,4.53,1.16.88,3.04,2.62,5.62,5.21,2.6,2.76,4.62,5.9,6.08,9.41Z" fill="#e54728"/>
        </g>
      </g>
      <g>
        <path d="M190.72,408.76l17.9-23.44-14.43-26.72s-27.47,6.29-30.43,11.79c-2.96,5.5-5.3,9.73-5.3,9.73" fill="#fac0a0"/>
        <path d="M190.72,410.27c.45,0,.9-.2,1.2-.59l17.9-23.44c.36-.47.41-1.11.13-1.63l-14.43-26.72c-.32-.6-1.01-.9-1.66-.75-4.7,1.08-28.3,6.74-31.42,12.54-2.95,5.49-5.29,9.71-5.29,9.71-.4.73-.14,1.65.59,2.05.73.4,1.65.14,2.05-.59,0,0,2.34-4.24,5.31-9.74,1-1.85,9.57-6.38,28.32-10.77l13.42,24.85-17.31,22.67c-.51.66-.38,1.61.28,2.12.27.21.6.31.92.31Z" fill="#e26236"/>
      </g>
      <path d="M157.55,441.38c-1.46.29-2.73.73-4.02,1.05-.64.18-1.28.31-1.92.42-.65.09-1.29.13-2.03.01.48.59,1.28.88,2.03.97.76.1,1.52,0,2.24-.18.71-.2,1.4-.48,2.02-.85.63-.37,1.21-.83,1.68-1.41Z" fill="#e26236"/>
    </g>
    <g>
      <g>
        <g>
          <path d="M316.72,465.84l-35.5-18.61,14.49-44.93,42.15,14.59c-15.07,20.9-22.65,41.21-21.13,48.95Z" fill="#fac0a0"/>
          <path d="M317.53,461.36c.1,0,.19,0,.29-.03.82-.16,1.35-.95,1.19-1.77-1.47-7.48,13.09-32.93,23.72-51.51.25-.44.27-.98.03-1.44-.23-.45-.67-.76-1.18-.82l-45.71-5c-.71-.08-1.38.35-1.6,1.03l-17.82,54.64c-.26.79.17,1.65.97,1.9.79.26,1.64-.17,1.9-.97l17.44-53.47,42.2,4.62c-14.01,24.55-24.43,43.85-22.91,51.59.14.72.77,1.22,1.48,1.22Z" fill="#e26236"/>
        </g>
        <g>
          <g>
            <g>
              <path d="M342.83,465.15c-.84-1.63-2.45-3.85-4.83-6.67-2.93.8-5.7,2.58-8.31,5.34-1.85,2.01-3.38,4.24-4.59,6.7,11.09,1.15,17.8,1.41,20.12.78-.72-2.51-1.51-4.56-2.39-6.16M302.46,461.67l-22.69-14.7-.73,12.13c3.45,1.24,5.43,2.11,9.93,3.16,2.51.62,6.36,1.52,11.53,2.71.66-1.26,1.32-2.36,1.97-3.3M326.17,447.69c-1.56-.13-3.42-.6-5.58-1.42-1.9-.79-2.34-1.95-1.31-3.49l-33.5-4.4,24.68,15.45c3.09-1.96,5.3-3.25,6.63-3.85,3.19-1.5,6.22-2.26,9.08-2.29Z" fill="#fac0a0"/>
              <path d="M276.44,464.84c1.55.45,5.17,1.57,10.85,3.35,3.97,1.27,7.38,2.23,10.22,2.9,7.77,1.9,16.14,3.38,25.1,4.46,5.86.7,13.01,1.31,21.46,1.82.88-1.64,1.26-3.66,1.15-6.05-2.32.63-9.03.37-20.12-.78-3.67-.57-7.24-1.31-10.7-2.23-3.46-.91-8.1-2.02-13.91-3.33-5.17-1.18-9.01-2.08-11.53-2.71-4.5-1.05-8.47-2.19-11.92-3.43l-.6,6M279.16,445.65l-.87,9.49,31.21,8.72c.42-3.55,1.3-6.77,2.63-9.66l-34.71-8.41" fill="#e54728"/>
            </g>
            <path d="M344.94,478.93l.46-.86c1-1.88,1.45-4.18,1.33-6.83l-1.51.07-.4-1.46c-1.46.4-6.05.58-19.57-.82l-.31,3c11.15,1.16,16.21,1.25,18.75,1.04-.07,1-.26,1.91-.57,2.72-7.94-.5-14.78-1.08-20.34-1.75-8.86-1.06-17.25-2.55-24.92-4.42-2.8-.66-6.2-1.62-10.12-2.87-4.52-1.42-7.76-2.42-9.68-3l.27-2.7c2.71.83,6.15,1.73,10.28,2.7,2.48.61,6.36,1.53,11.53,2.71l.67-2.94c-5.15-1.18-9.02-2.09-11.5-2.7-5.63-1.31-9.92-2.5-12.77-3.52l-.52,1.45-.49-.05-.73,7.25,1.2.35c1.54.45,5.18,1.57,10.82,3.34,3.98,1.27,7.46,2.26,10.32,2.93,7.78,1.9,16.29,3.41,25.27,4.48,5.86.7,13.11,1.31,21.55,1.83l.97.06Z" fill="#85241a"/>
            <path d="M343.76,471.72l2.9-.83c-.75-2.61-1.59-4.79-2.51-6.47-.88-1.71-2.52-3.98-5-6.92l-2.3,1.95c2.3,2.72,3.86,4.86,4.64,6.38.83,1.52,1.59,3.49,2.28,5.88Z" fill="#e26236"/>
            <path d="M308.91,465.55l-31.21-8.72c-.47-.13-.78-.58-.73-1.06l.87-9.49c.03-.3.18-.56.41-.72,0-.02,0-.03.01-.05.15-.54.71-.85,1.24-.7l32.58,9.14c.28.08.52.28.64.55.12.27.12.58,0,.84-1.28,2.78-2.14,5.93-2.55,9.36-.03.29-.2.55-.44.72-.17.11-.36.17-.56.17-.09,0-.18-.01-.27-.04ZM279.8,446.98l-.75,8.14,29.29,8.18c.41-2.77,1.12-5.36,2.09-7.72l-30.63-8.6Z" fill="#85241a"/>
          </g>
          <path d="M336.4,470.13c-.29-2.25-1-4.8-2.14-7.66,2.43,1.96,4.06,4.58,4.87,7.84l-2.74-.18Z" fill="#e26236"/>
          <g>
            <path d="M310.46,453.83c3.09-1.96,5.3-3.25,6.63-3.85,3.61-1.69,7.05-2.46,10.32-2.31,1.93,1.32,3.92,3.06,5.96,5.22,1.76,1.87,3.3,3.74,4.63,5.59-2.93.8-5.7,2.58-8.31,5.34-1.85,2.01-3.38,4.24-4.59,6.7-2.42-.32-6.48-1.09-12.17-2.3-6.39-1.39-10.54-2.47-12.44-3.26.66-1.26,1.32-2.36,1.97-3.3,2.19-3.11,4.86-5.72,8-7.84Z" fill="#e54728"/>
            <path d="M324.9,472.03c-2.45-.33-6.59-1.11-12.29-2.32-6.54-1.42-10.69-2.51-12.7-3.34l-1.53-.63.77-1.46c.69-1.31,1.38-2.48,2.07-3.47,2.28-3.24,5.11-6.01,8.42-8.25,3.17-2.02,5.4-3.31,6.81-3.94,3.82-1.78,7.52-2.6,11.02-2.45l.43.02.35.24c2.01,1.38,4.09,3.2,6.21,5.43,1.79,1.91,3.39,3.84,4.76,5.75l1.27,1.77-2.1.57c-2.65.72-5.21,2.37-7.59,4.91-1.74,1.89-3.2,4.03-4.35,6.35l-.48.97-1.07-.14ZM332.27,453.93c-1.84-1.94-3.64-3.54-5.36-4.76-2.88-.06-5.97.68-9.18,2.18h-.02c-1.26.58-3.43,1.84-6.41,3.73-2.98,2.01-5.54,4.52-7.6,7.45-.34.49-.68,1.02-1.02,1.61,2.2.69,5.74,1.56,10.57,2.61,4.87,1.04,8.56,1.75,11.01,2.13,1.19-2.2,2.64-4.24,4.34-6.09,2.18-2.32,4.52-4.01,6.96-5.05-.99-1.27-2.09-2.55-3.28-3.81Z" fill="#85241a"/>
          </g>
          <path d="M310.46,453.83c3.09-1.96,5.3-3.25,6.63-3.85,3.61-1.69,7.05-2.46,10.32-2.31,1.93,1.32,3.92,3.06,5.96,5.22,1.76,1.87,3.3,3.74,4.63,5.59-2.93.8-5.7,2.58-8.31,5.34-1.85,2.01-3.38,4.24-4.59,6.7-2.42-.32-6.48-1.09-12.17-2.3-6.39-1.39-10.54-2.47-12.44-3.26.66-1.26,1.32-2.36,1.97-3.3,2.19-3.11,4.86-5.72,8-7.84Z" fill="#e54728"/>
        </g>
      </g>
      <g>
        <path d="M293.83,406.85l8.59-20.87,31.67-9.67s9.91,26.39,6.96,31.89-5.57,9.49-5.57,9.49" fill="#fac0a0"/>
        <path d="M335.48,419.2c.49,0,.97-.24,1.26-.68.11-.16,2.68-4.11,5.63-9.6.92-1.71,1.68-5.55-2.25-19.14-2.1-7.26-4.6-13.93-4.62-14-.28-.75-1.1-1.14-1.85-.91l-31.66,9.67c-.43.13-.78.45-.96.87l-8.59,20.87c-.32.77.05,1.65.82,1.97.77.32,1.65-.05,1.97-.82l8.32-20.21,29.62-9.05c6.59,17.91,7.54,27.47,6.55,29.32-2.89,5.38-5.47,9.33-5.5,9.37-.46.7-.26,1.63.43,2.09.25.17.54.25.83.25Z" fill="#e26236"/>
      </g>
      <path d="M287.24,440.87c.32.68.77,1.26,1.29,1.78.52.52,1.11.95,1.76,1.32.65.34,1.36.63,2.13.72.75.1,1.59,0,2.2-.45-.75-.06-1.36-.26-1.96-.51-.6-.25-1.19-.54-1.76-.87-1.18-.63-2.31-1.36-3.65-1.99Z" fill="#e26236"/>
    </g>
    <g>
      <g>
        <path d="M130.24,233.81l25.46-23.54c-10.33-4.59-22.09-8.51-35.26-11.76-13.31-3.28-25.85-5.34-37.62-6.17-2.91.29-5.45,1.23-7.64,2.84-1.94,1.45-3.34,3.21-4.21,5.29-.8,2.03-.92,3.92-.35,5.64.62,1.85,1.92,3.15,3.89,3.88,2.69,1,6.15,2.75,10.36,5.24,7.55,4.49,11.46,6.82,11.71,6.98,10.88,6.05,22.1,9.91,33.66,11.58Z" fill="#fac0a0"/>
        <path d="M130.02,235.3c-11.69-1.69-23.18-5.65-34.25-11.8-.26-.16-4.19-2.51-11.68-6.96-4.11-2.44-7.52-4.16-10.12-5.13-2.41-.9-4.02-2.52-4.8-4.83-.67-2.06-.55-4.3.39-6.69.97-2.32,2.55-4.31,4.71-5.93,2.39-1.76,5.22-2.81,8.38-3.12h.13s.13,0,.13,0c11.81.83,24.55,2.92,37.88,6.21,13.2,3.25,25.14,7.24,35.51,11.84l2.1.93-27.67,25.59-.71-.1ZM120.07,199.97c-13.11-3.23-25.64-5.29-37.24-6.12-2.57.27-4.84,1.12-6.76,2.53-1.71,1.28-2.96,2.85-3.71,4.64-.67,1.71-.78,3.23-.33,4.61.48,1.41,1.45,2.38,2.99,2.95,2.77,1.03,6.33,2.83,10.61,5.36,10.06,5.99,11.56,6.89,11.68,6.96,10.45,5.81,21.35,9.61,32.43,11.3l23.23-21.48c-9.71-4.15-20.76-7.76-32.9-10.75Z" fill="#e26236"/>
      </g>
      <path d="M169.79,268.87c-.6-.1-1.19-.18-1.78-.24l-56.52-20.64c6.71-17.83,14.88-35.06,24.5-51.68,3.16,1.09,7.37,2.73,12.6,4.92,6.43,2.55,14.52,6.99,24.26,13.33,15.47,10.07,27.55,20.92,36.24,32.54-1.26,3.03-4.59,5.61-9.99,7.75-4.01,1.58-8.33,2.68-12.95,3.28-4.16.55-11.31,11.31-16.36,10.73Z" fill="#4791cd"/>
      <path d="M153.07,262.55c1.85-12.76,21.11-35.69,29.87-39.77l-.85-1.83c-9.33,4.35-29.05,27.76-31.01,41.31l1.99.29Z" fill="#7ab7dc"/>
      <path d="M132.17,254.81c5.36-15.86,19.8-30.45,29.35-40.11,1.96-1.98,3.66-3.7,5.03-5.18l-1.47-1.37c-1.35,1.46-3.04,3.16-4.99,5.13-9.69,9.79-24.32,24.58-29.83,40.88l1.91.64Z" fill="#7ab7dc"/>
      <path d="M207.71,247.81l1.18-1.63c-28.77-20.81-54.09-35.62-75.26-44.02l-.74,1.87c21.01,8.34,46.19,23.07,74.83,43.78Z" fill="#7ab7dc"/>
      <path d="M194.31,258.92l1.53-1.31c-9.68-11.32-52.4-33.34-70.08-40.04l-.71,1.88c9.13,3.46,24.3,10.76,37.75,18.15,16.18,8.89,27.37,16.47,31.52,21.32Z" fill="#7ab7dc"/>
      <path d="M178.2,266.54l1.25-1.58c-24.65-19.57-42.78-25.68-62.43-28.83l-.32,1.99c19.89,3.19,37.11,9.06,61.5,28.42Z" fill="#7ab7dc"/>
      <path d="M165.18,267.75c10.53-20.16,21.65-26.91,31.47-32.86l-1.04-1.72c-10.04,6.09-21.42,13-32.21,33.65l1.78.93Z" fill="#7ab7dc"/>
      <path d="M169.55,270.37c-.57-.09-1.14-.17-1.7-.23l-58.31-21.24.54-1.43c6.71-17.82,14.99-35.29,24.61-51.9l.62-1.08,1.18.41c3.18,1.1,7.45,2.77,12.67,4.94,6.49,2.57,14.75,7.1,24.53,13.47,15.55,10.12,27.87,21.19,36.63,32.9l.52.69-.33.8c-1.43,3.45-4.97,6.26-10.83,8.58-4.1,1.62-8.58,2.75-13.31,3.37-1.37.18-3.83,2.46-6,4.47-3.35,3.1-6.81,6.29-10.19,6.29-.2,0-.4-.01-.6-.03ZM172.03,215.84c-9.61-6.26-17.69-10.7-24.02-13.21-4.56-1.9-8.37-3.4-11.34-4.47-9.02,15.7-16.83,32.15-23.23,48.94l54.92,20.05c.56.06,1.11.14,1.61.22,2.13.24,5.57-2.93,8.33-5.49,2.87-2.65,5.34-4.94,7.66-5.24,4.48-.59,8.72-1.66,12.59-3.19,4.51-1.79,7.46-3.86,8.79-6.18-8.51-11.15-20.38-21.72-35.3-31.44Z" fill="#1e4078"/>
      <path d="M120,249.88c9.17-18.09,19.19-34.14,29.78-47.71l-2.38-1.86c-10.71,13.73-20.83,29.95-30.09,48.2l2.69,1.37Z" fill="#1e4078"/>
      <g id="Child_Hands_5_1_finger_ChildHand5_1_26_0_Layer0_0_FILL">
        <path d="M31.15,203.38c1.52.85,3.1,1.37,4.72,1.57l-.03.07c.52.1,1.03.17,1.51.2,2.22.2,4.43-.09,6.65-.88,1.85-.62,3.87-.74,6.07-.34.97.24,1.88.53,2.72.89.85.36.92,1.37.22,3.01-.23.55-1.62,1.73-4.16,3.54-1.39,1-2.62,1.8-3.68,2.41l-1.51,1.48-.66,1.75c.19.96,1.32,1.91,3.38,2.85,2.09,1.02,3.79.83,5.1-.57,1.3-1.35,2.13-2.27,2.49-2.74.9-1.15,2.66-2.44,5.27-3.86,2.56-1.45,4.19-2.02,4.89-1.72l.15.68c-.42.28-.83.55-1.23.8.64-.12,1.44-.2,2.39-.22,2.14-.03,3.61-.23,4.41-.6,1.89-.85,3.45-1.95,4.68-3.31,1.33-1.32,2.01-2.03,2.06-2.13,1.01-2.17,1.95-4.16,2.8-5.97-1.4.57-2.56.73-3.47.47.08-.2,1.43-1.16,4.05-2.88,2.47-1.66,4.2-3.64,5.17-5.93,1.08-2.54,1.23-5.25.45-8.12l-.14.12c-.11-.16-.56-.77-1.35-1.81-.22-.64-.28-1.4-.18-2.29l.03-.08c.11-.96.45-2.09.99-3.38.03-.07.06-.14.1-.22.33-.76.66-1.47,1-2.14.28-.33.63-.74,1.05-1.23l1.63-2.58c.04-.1.09-.2.13-.3.04-.09.08-.19.13-.3.04-.08.07-.16.1-.23.05-.07.11-.13.17-.19.42-.94.74-1.84.96-2.69.97-3.71-.14-6.25-3.31-7.6-.6-.25-1.07-.4-1.41-.42-.53,0-1.46.44-2.76,1.3-2.76,2.47-4.37,4.26-4.84,5.37-.87,2.05-1.17,3.45-.91,4.21.19.55.19,1.17,0,1.86.57,1.75,1.34,3.05,2.32,3.9l-.38.28c-.34-.03-.54-.05-.59-.07-.4-.17-.99-1.13-1.78-2.88-.86,1.83-1.98,2.71-3.34,2.65,0,.05-.01.07-.03.07-.27.07-.56.12-.87.16-.77.02-1.52-.09-2.24-.34-.13-.02-.29-.06-.48-.12-1.54-.69-2.86-1.46-3.97-2.31-.66-.52-1.28-1.07-1.85-1.67-1.79-1.88-3.6-3.74-5.41-5.57-3.87-3.83-6.4-5.99-7.58-6.5-1.9-.81-3.1-1.23-3.61-1.27-1.38-.06-2.92,1.08-4.64,3.42-.27,1.32.04,2.54.92,3.66.71.95,1.47,1.74,2.26,2.38,1.56,1.31,3.12,2.51,4.67,3.58,2.17,1.28,3.8,2.29,4.89,3.05,1.86,1.32,3.25,2.83,4.18,4.52l-.42.35c-.14,0-.26,0-.33-.05.23.84.07,1.92-.49,3.24-.45,1.05-1.62,1.17-3.51.36-.79-.34-1.58-.82-2.39-1.46-2.36-.88-4.82-1.87-7.4-2.97l-6.7-2.94c-.65-.28-1.82-.51-3.5-.69-1.25-.24-2.26.25-3.01,1.46-.17.31-.35.58-.53.84-.5,1.44-.3,2.85.59,4.23.78,1.22,1.77,2.08,2.97,2.59l14.18,5.32c.32.14.61.29.87.46.54.24,1.02.42,1.45.53,1.28.31,2.38.1,3.28-.64-1.07,1.55-2.31,2.02-3.7,1.43-.04-.02-.09-.04-.15-.06.13.32.19.67.17,1.05-.37.9-.57,1.64-.59,2.22-.21.44-.69,1.15-1.44,2.13h0l-.46-.37c0-.14,0-.28,0-.44-2.1.76-4.87,1.38-8.3,1.86-1,.4-2.77.62-5.32.66-.56-.06-1.45.09-2.67.46-1.6.44-2.56,1.03-2.88,1.78-.65,1.54,0,2.83,1.99,3.85M61.49,191.26c1.38-2.42,3.02-4.76,4.92-7.01,1.13-1.41,2.44-2.62,3.93-3.63.19-.04.31-.04.36-.02-2.29,2.74-4.4,5.7-6.34,8.89-2.26,3.52-4.1,7.28-5.5,11.28-.42,1.12-.83,2.24-1.25,3.36-.6.57-.83,0-.69-1.71l3.84-9.86c.24-.43.48-.86.72-1.28" fill="#fac0a0"/>
        <g>
          <path d="M32.36,205.93c.89.38,1.72.64,2.49.79l-.03.07c1,.31,1.91.46,2.72.45,2.91-.6,4.93-.98,6.05-1.14,2.58-.35,5.3-.37,8.16-.07l.1.4c-.54,1.26-1.5,2.35-2.9,3.28-.85.47-1.64.95-2.39,1.46-.26.19-.54.36-.84.53-.87.51-1.69,1.14-2.47,1.87-.08.11-.16.23-.23.34-.9,1.09-1.38,2.15-1.44,3.19.76,2.95,2.49,4.57,5.18,4.86,2.67.33,4.7-.07,6.09-1.21,1.42-1.12,2.39-2,2.9-2.66.61-.75,2.23-2.06,4.86-3.95l2.1-.17c.55.08,1.03.13,1.43.17.07.03.14.06.23.1.7.3,2.99-.03,6.86-.97,3.54-.97,6.37-3.95,8.49-8.95l2.22-5.42c2.37-1.55,4.15-3.73,5.35-6.57,1.06-2.5,1.08-5.17.05-8.02-.36-.97-.86-2-1.51-3.12,0-1.39.26-2.69.78-3.91.08-.19.29-.6.62-1.24.56-.92,1.45-2.4,2.68-4.43.12-.29.22-.57.28-.86.15-.2.28-.44.39-.72.56-1.33.89-2.31.99-2.94l.03-.07s.04-.08.06-.15c.68-1.69.6-3.49-.26-5.42-.79-1.75-1.83-2.9-3.13-3.45-.09-.04-.19-.08-.3-.13-.06-.02-.13-.06-.23-.1-1.79-.76-3.03-.9-3.71-.43-.62.11-1.73.76-3.3,1.95-2.25,1.69-3.79,3.52-4.62,5.46-.74,1.75-1.04,3.21-.9,4.39.15,1.18-.02,2.32-.48,3.42-.4.94-1.01,1.33-1.82,1.17-.22.02-.47,0-.77-.06-.66-.1-1.24-.26-1.74-.47l-.07-.03s-.07.03-.11.04l-1.45-.53c-.73-.31-1.62-.84-2.69-1.58l-5.9-6.49c-3.72-3.88-6.08-6.03-7.07-6.45-4.59-1.95-7.78-2.1-9.54-.43-.19.16-.47.4-.83.71l-.48.5-.13.3c-.09.12-.19.28-.3.49-.26.34-.42.57-.47.69-.34.8-.48,1.27-.42,1.41l-.05.33.13.32-.05.33.07.03c-.06,2.76,5.01,7.48,15.2,14.16.31.66.57,1.22.8,1.66.27.88.18,1.58-.27,2.09-.44.16-1.04.17-1.78.04-5.52-2.76-9.03-4.46-10.56-5.11-4.49-1.91-7.41-2.95-8.76-3.11-1.98-.19-3.55.32-4.72,1.53-.99,1.19-1.55,2.22-1.67,3.09-.06.89-.05,1.72,0,2.48.1.79.6,1.56,1.49,2.32.96,1.01,3.17,2.33,6.62,3.97l5.47,2.32c3.1,1.02,4.9,1.64,5.4,1.85.19.08.32.19.39.34.55.23.61.85.19,1.85h0s.1.05.15.06c-.08.2-.16.37-.22.52-3.39,1.25-7.79,2.03-13.2,2.35-4.41.25-7.1,1.52-8.07,3.82-1.12,2.65.5,4.93,4.87,6.85M29.16,199.53c.32-.75,1.28-1.34,2.88-1.78,1.22-.37,2.11-.52,2.67-.46,2.55-.04,4.32-.25,5.32-.66,3.44-.48,6.21-1.11,8.3-1.86,0,.16,0,.3,0,.44l.46.37h0c.75-.98,1.23-1.69,1.44-2.13.02-.58.22-1.32.59-2.22.01-.38-.05-.72-.17-1.05.06.03.11.05.15.06,1.4.59,2.63.12,3.7-1.43-.9.74-2,.95-3.28.64-.43-.11-.92-.29-1.45-.53-.25-.17-.54-.32-.87-.46l-14.18-5.32c-1.2-.51-2.19-1.37-2.97-2.59-.89-1.38-1.09-2.79-.59-4.23.18-.25.36-.53.53-.84.75-1.21,1.75-1.7,3.01-1.46,1.69.19,2.86.42,3.5.69l6.7,2.94c2.58,1.1,5.04,2.09,7.4,2.97.8.64,1.6,1.12,2.39,1.46,1.9.81,3.07.69,3.51-.36.56-1.32.73-2.4.49-3.24.08.04.19.06.33.05l.42-.35c-.93-1.69-2.32-3.2-4.18-4.52-1.09-.76-2.72-1.78-4.89-3.05-1.55-1.07-3.1-2.26-4.67-3.58-.79-.63-1.55-1.42-2.26-2.38-.88-1.12-1.19-2.34-.92-3.66,1.71-2.34,3.26-3.48,4.64-3.42.51.04,1.72.46,3.61,1.27,1.18.5,3.71,2.67,7.58,6.5,1.81,1.83,3.62,3.69,5.41,5.57.57.6,1.19,1.15,1.85,1.67,1.11.85,2.43,1.62,3.97,2.31.19.05.35.09.48.12.72.25,1.47.36,2.24.34.31-.04.59-.1.87-.16.02,0,.03-.02.03-.07,1.36.06,2.47-.82,3.34-2.65.79,1.75,1.38,2.71,1.78,2.88.05.02.24.05.59.07l.38-.28c-.98-.85-1.75-2.15-2.32-3.9.19-.69.19-1.31,0-1.86-.27-.76.04-2.17.91-4.21.47-1.11,2.08-2.89,4.84-5.37,1.31-.86,2.23-1.29,2.76-1.3.34.03.81.17,1.41.42,3.18,1.35,4.28,3.88,3.31,7.6-.22.85-.55,1.74-.96,2.69-.06.06-.12.13-.17.19-.03.07-.06.14-.1.23-.05.11-.09.21-.13.3-.04.09-.08.2-.13.3l-1.63,2.58c-.42.5-.77.91-1.05,1.23-.34.67-.67,1.38-1,2.14-.03.08-.07.15-.1.22-.55,1.29-.88,2.42-.99,3.38l-.03.08c-.1.88-.04,1.65.18,2.29.79,1.04,1.24,1.65,1.35,1.81l.14-.12c.78,2.87.63,5.58-.45,8.12-.98,2.3-2.7,4.27-5.17,5.93-2.62,1.72-3.97,2.68-4.05,2.88.91.26,2.07.1,3.47-.47-.85,1.81-1.79,3.8-2.8,5.97-.04.1-.73.81-2.06,2.13-1.23,1.36-2.79,2.47-4.68,3.31-.8.37-2.27.57-4.41.6-.96.02-1.75.1-2.39.22.39-.26.8-.53,1.23-.8l-.15-.68c-.7-.3-2.33.28-4.89,1.72-2.61,1.42-4.36,2.71-5.27,3.86-.36.48-1.19,1.39-2.49,2.74-1.31,1.4-3.01,1.59-5.1.57-2.07-.94-3.19-1.89-3.38-2.85l.66-1.75,1.51-1.48c1.06-.61,2.29-1.42,3.68-2.41,2.54-1.81,3.92-2.99,4.16-3.54.7-1.65.62-2.65-.22-3.01-.84-.36-1.74-.65-2.72-.89-2.19-.4-4.21-.28-6.07.34-2.22.79-4.43,1.08-6.65.88-.48-.03-.98-.1-1.51-.2l.03-.07c-1.63-.2-3.2-.72-4.72-1.57-1.98-1.02-2.64-2.31-1.99-3.85M56.93,202.41c-.14,1.71.09,2.28.69,1.71.42-1.12.83-2.24,1.25-3.36,1.41-4,3.24-7.76,5.5-11.28,1.94-3.18,4.06-6.14,6.34-8.89-.05-.02-.17-.01-.36.02-1.49,1.02-2.8,2.23-3.93,3.63-1.9,2.26-3.54,4.59-4.92,7.01-.24.43-.48.86-.72,1.28l-3.84,9.86Z" fill="#e26236"/>
          <path d="M46.74,222.21c-2.79-.3-4.61-1.99-5.4-5.04,0-.02,0-.05,0-.08.06-1.09.57-2.21,1.48-3.31.08-.12.16-.24.27-.39.79-.74,1.64-1.38,2.53-1.9.3-.16.57-.33.82-.51.75-.51,1.56-1,2.39-1.46,1.32-.88,2.25-1.91,2.77-3.09l-.04-.14c-2.77-.28-5.43-.25-7.92.08-1.12.15-3.15.54-6.09,1.14-.82,0-1.78-.15-2.8-.46-.06-.02-.11-.06-.14-.11-.74-.16-1.52-.42-2.34-.77,0,0,0,0,0,0-4.5-1.97-6.18-4.39-5-7.17,1.01-2.38,3.8-3.72,8.29-3.97,5.3-.31,9.68-1.08,13.02-2.29l.09-.21c-.08-.07-.1-.18-.06-.28.19-.46.28-.82.25-1.09-.02-.22-.12-.35-.31-.43-.06-.02-.1-.07-.13-.12-.04-.09-.13-.16-.26-.22-.5-.21-2.31-.83-5.4-1.85l-5.47-2.33c-3.52-1.67-5.71-2.98-6.68-4-.93-.8-1.47-1.63-1.58-2.49-.06-.78-.06-1.62,0-2.53.13-.92.71-2,1.73-3.23,1.22-1.26,2.88-1.81,4.93-1.61,1.38.16,4.27,1.19,8.82,3.12,1.52.65,5.07,2.36,10.54,5.1.65.11,1.17.11,1.56-.01.36-.44.42-1.03.19-1.77-.22-.44-.47-.97-.77-1.61-10.14-6.65-15.13-11.29-15.25-14.18-.06-.06-.09-.14-.07-.22l.04-.26-.1-.26s-.02-.09-.02-.13l.04-.28c-.03-.17.02-.51.45-1.52.04-.08.13-.25.48-.71.12-.22.22-.39.29-.47l.13-.3s.03-.05.05-.07l.5-.52.82-.7c1.84-1.73,5.14-1.61,9.81.38,1.03.44,3.37,2.57,7.16,6.52l5.86,6.45c1.04.73,1.93,1.26,2.63,1.55l1.36.5s0,0,.01,0c.06-.03.13-.03.2,0l.08.03c.48.2,1.04.36,1.69.46.27.05.5.07.7.06.02,0,.05,0,.07,0,.44.09,1.08.07,1.54-1.02.45-1.05.6-2.16.46-3.29-.15-1.22.16-2.74.91-4.52.84-1.98,2.42-3.85,4.7-5.56,1.58-1.19,2.68-1.85,3.36-1.99.77-.5,2.05-.36,3.9.43l.52.22c1.35.57,2.45,1.78,3.26,3.58.88,1.98.97,3.87.26,5.62l-.08.2c-.1.66-.43,1.63-1,2.97-.12.28-.25.52-.39.72-.06.28-.16.56-.3.88l-2.67,4.42c-.33.64-.53,1.04-.61,1.22-.49,1.16-.75,2.42-.76,3.75.63,1.1,1.13,2.14,1.49,3.1,1.04,2.9,1.02,5.66-.06,8.21-1.21,2.84-3.02,5.07-5.38,6.63l-2.19,5.35c-2.14,5.04-5.05,8.1-8.66,9.09-5.28,1.29-6.54,1.16-7.02.96l-.19-.08c-.41-.03-.88-.09-1.35-.16l-2.03.16c-2.56,1.84-4.16,3.13-4.75,3.85-.52.68-1.49,1.56-2.94,2.7-1.11.92-2.64,1.38-4.55,1.38-.54,0-1.12-.04-1.72-.11ZM64.16,213.89s.05,0,.08.02l.22.1c.45.19,1.97.17,6.7-.98,3.44-.95,6.24-3.91,8.32-8.8l2.22-5.42s.05-.09.1-.12c2.31-1.51,4.08-3.68,5.26-6.45,1.03-2.43,1.05-5.06.05-7.84-.35-.94-.85-1.98-1.49-3.08-.02-.04-.03-.08-.03-.13,0-1.42.27-2.77.8-4.01.08-.19.28-.59.63-1.27l2.66-4.4c.12-.28.21-.55.26-.81,0-.03.02-.07.04-.09.13-.18.25-.4.37-.67.55-1.3.88-2.27.97-2.88,0-.02,0-.04.02-.06l.09-.22c.65-1.61.57-3.37-.26-5.22-.76-1.68-1.77-2.8-3-3.33l-.52-.22c-1.7-.72-2.86-.87-3.47-.45-.03.02-.06.03-.1.04-.4.07-1.28.46-3.2,1.91-2.21,1.66-3.73,3.46-4.54,5.36-.72,1.7-1.02,3.13-.88,4.27.15,1.22-.02,2.42-.5,3.55-.55,1.3-1.42,1.44-2.07,1.33-.24.01-.51,0-.79-.07-.67-.11-1.27-.27-1.78-.48,0,0-.01,0-.02,0-.06.02-.11.02-.17,0l-1.47-.53c-.74-.32-1.66-.86-2.77-1.65l-5.9-6.49c-3.68-3.84-6.03-5.99-6.98-6.4-4.48-1.9-7.59-2.07-9.28-.47l-.81.69-.45.47-.13.3c-.08.11-.18.27-.3.5-.34.44-.42.59-.44.63-.42.99-.42,1.21-.42,1.22.02.04.02.09.01.13l-.04.26.1.26s.02.09.02.13l-.03.17s.05.1.05.16c-.06,2.65,5.02,7.35,15.08,13.94.04.03.07.06.09.1.31.66.57,1.21.81,1.7.3.97.19,1.75-.32,2.34-.03.03-.06.06-.1.07-.49.17-1.11.19-1.91.05-.02,0-.05-.01-.07-.02-5.48-2.74-9.03-4.46-10.54-5.1-4.45-1.89-7.37-2.93-8.68-3.09-1.89-.18-3.41.31-4.5,1.44-.96,1.15-1.5,2.14-1.61,2.95-.06.87-.05,1.69,0,2.43.1.72.57,1.44,1.42,2.17.93.98,3.13,2.29,6.54,3.91l5.45,2.32c3.08,1.02,4.91,1.64,5.42,1.86.21.09.37.22.47.38.31.16.49.44.53.8.03.31-.04.67-.2,1.11.02.02.04.04.05.07.03.07.04.15,0,.21l-.22.52c-.03.06-.08.11-.14.14-3.4,1.25-7.86,2.05-13.27,2.36-4.28.24-6.93,1.47-7.86,3.66-1.07,2.52.48,4.65,4.74,6.52.86.37,1.68.63,2.44.78.07.01.14.06.17.13,0,0,0,0,0,0,.9.26,1.73.37,2.42.39,2.9-.6,4.94-.99,6.07-1.14,2.58-.35,5.35-.37,8.22-.07.11.01.19.09.22.19l.1.4c.01.05,0,.11-.01.16-.55,1.3-1.56,2.44-3.01,3.4-.84.46-1.63.95-2.36,1.44-.26.19-.55.37-.86.54-.85.5-1.66,1.12-2.4,1.8-.08.11-.15.22-.24.36-.85,1.03-1.32,2.04-1.38,3,.74,2.84,2.37,4.36,4.96,4.63,2.59.32,4.58-.07,5.9-1.16,1.4-1.1,2.36-1.98,2.86-2.62.64-.78,2.24-2.08,4.91-3.99.04-.03.08-.04.13-.05l2.16-.16c.53.08,1.01.13,1.41.16ZM32.36,205.93h0,0ZM46.28,220.17c-2.16-.99-3.32-1.98-3.53-3.03,0-.05,0-.09.01-.14l.66-1.75s.03-.07.06-.09l1.51-1.48s.03-.03.05-.04c1.05-.61,2.28-1.41,3.66-2.4,3.1-2.21,3.92-3.08,4.07-3.43.33-.78.48-1.41.45-1.87-.03-.41-.2-.67-.54-.81-.82-.35-1.72-.65-2.66-.87-2.14-.39-4.14-.28-5.93.33-2.24.8-4.52,1.1-6.75.9-.49-.03-1.01-.1-1.54-.2-.06-.01-.12-.05-.16-.1-1.58-.22-3.13-.75-4.6-1.57-2.11-1.09-2.81-2.49-2.1-4.17h0c.35-.83,1.35-1.46,3.04-1.92,1.26-.38,2.16-.53,2.74-.47,2.51-.04,4.27-.25,5.29-.65,3.4-.48,6.18-1.1,8.25-1.85.08-.03.16-.02.23.03.07.05.11.13.1.21v.31s.15.13.15.13c.62-.82,1.03-1.44,1.23-1.83.03-.6.23-1.32.59-2.21,0-.32-.05-.62-.16-.9-.04-.09-.01-.2.06-.27.07-.07.18-.09.27-.05l.15.06c.9.38,1.72.28,2.47-.32-.67.19-1.41.2-2.21,0-.45-.11-.95-.3-1.53-.56-.24-.16-.52-.3-.82-.43l-14.19-5.33c-1.24-.53-2.28-1.43-3.08-2.68-.93-1.45-1.14-2.94-.61-4.45,0-.02.02-.04.03-.06.17-.24.35-.52.52-.82.81-1.3,1.91-1.83,3.25-1.58,1.73.19,2.9.43,3.58.71l6.7,2.94c2.57,1.09,5.05,2.09,7.39,2.97.02,0,.05.02.07.04.78.62,1.57,1.1,2.33,1.42,2.61,1.11,3.04.1,3.18-.23.54-1.26.7-2.3.48-3.07-.03-.1,0-.2.09-.27.08-.06.19-.07.28-.02,0,0,.03.02.11.02l.19-.16c-.91-1.58-2.25-3.01-4-4.25-1.07-.75-2.71-1.77-4.89-3.05-1.54-1.07-3.12-2.28-4.68-3.59-.81-.64-1.58-1.46-2.3-2.42-.92-1.17-1.25-2.47-.97-3.87,0-.04.02-.07.04-.1,1.78-2.44,3.36-3.59,4.86-3.52.54.04,1.75.47,3.69,1.29,1.22.52,3.73,2.66,7.66,6.55,1.82,1.84,3.64,3.72,5.41,5.58.56.59,1.18,1.14,1.82,1.65,1.09.83,2.41,1.6,3.89,2.27.18.05.33.09.49.12.69.24,1.4.35,2.13.32.25-.03.49-.08.72-.13.05-.07.11-.12.22-.11,1.26.05,2.27-.76,3.1-2.51.04-.09.13-.14.23-.14.1-.02.19.06.23.15,1.03,2.29,1.5,2.69,1.64,2.75.01,0,.09.02.43.05l.06-.04c-.9-.88-1.63-2.15-2.16-3.8-.02-.05-.02-.1,0-.14.17-.64.17-1.21,0-1.71-.29-.83,0-2.27.91-4.39.49-1.15,2.09-2.94,4.94-5.48,1.36-.89,2.31-1.33,2.92-1.34.37.03.86.17,1.49.44,3.29,1.4,4.45,4.06,3.46,7.89-.23.85-.55,1.77-.98,2.72-.01.03-.03.06-.06.08-.05.04-.09.09-.13.14l-.36.83-1.65,2.61c-.42.5-.77.91-1.02,1.18-.33.66-.67,1.37-.99,2.13l-.1.22c-.54,1.26-.87,2.38-.98,3.31,0,.02,0,.05-.02.07l-.02.04c-.09.81-.04,1.52.16,2.1.58.77.97,1.29,1.18,1.58.05-.02.1-.02.16,0,.08.02.15.09.17.17.8,2.91.64,5.7-.46,8.29-.99,2.33-2.76,4.37-5.27,6.05-2.27,1.49-3.25,2.19-3.66,2.51.78.09,1.74-.09,2.85-.55.1-.04.21-.02.28.06.07.08.09.19.05.28-.85,1.81-1.79,3.8-2.8,5.96-.03.08-.08.19-2.1,2.2-1.25,1.38-2.85,2.52-4.76,3.38-.84.38-2.32.59-4.51.62-.94.02-1.73.1-2.35.22-.12.02-.24-.04-.28-.15-.05-.11,0-.24.1-.3l1.08-.71-.08-.37c-.51-.11-1.71.14-4.55,1.75-2.56,1.4-4.31,2.68-5.19,3.79-.37.49-1.21,1.42-2.51,2.76-.81.86-1.76,1.29-2.85,1.29-.78,0-1.63-.22-2.54-.67ZM64.23,210.81c.08.03.13.1.15.18l.15.68c.02.1-.02.21-.11.26l-.3.2c.4-.04.84-.06,1.32-.07,2.09-.03,3.54-.23,4.31-.58,1.85-.83,3.4-1.92,4.6-3.26,1.64-1.63,1.96-2,2.01-2.06.91-1.95,1.76-3.75,2.54-5.41-1.19.41-2.22.49-3.05.26-.07-.02-.13-.07-.16-.13-.03-.07-.03-.14,0-.21.06-.14.16-.37,4.14-2.99,2.42-1.62,4.13-3.58,5.08-5.82,1.02-2.39,1.19-4.96.51-7.66,0,0,0,0-.01,0-.07-.01-.14-.05-.17-.11-.1-.15-.55-.76-1.34-1.8-.02-.02-.03-.05-.04-.07-.23-.67-.29-1.48-.19-2.4,0-.02,0-.05.02-.07l.02-.04c.12-.97.46-2.12,1.01-3.41l.1-.23c.33-.76.67-1.49,1.04-2.21.28-.33.63-.74,1.03-1.2l1.61-2.54.35-.82s.02-.04.03-.06c.05-.06.1-.12.16-.18.4-.91.72-1.79.93-2.6.94-3.61-.1-6-3.17-7.3-.57-.24-1.02-.38-1.31-.4-.33,0-1.06.23-2.6,1.24-2.72,2.44-4.33,4.21-4.78,5.28-.84,1.98-1.14,3.33-.9,4.03.2.58.21,1.23.03,1.93.55,1.66,1.3,2.92,2.22,3.72.06.05.09.12.09.2,0,.08-.04.15-.1.19l-.38.28s-.11.05-.17.05c-.51-.04-.61-.07-.67-.09-.3-.13-.76-.54-1.69-2.53-.84,1.54-1.9,2.32-3.17,2.33-.04.04-.09.06-.12.06h0c-.28.07-.58.13-.92.17-.81.03-1.59-.09-2.3-.34-.14-.03-.31-.07-.54-.13-1.55-.7-2.9-1.48-4.02-2.34-.67-.52-1.3-1.09-1.88-1.7-1.77-1.86-3.59-3.73-5.4-5.57-3.83-3.79-6.36-5.96-7.5-6.44-2.32-.99-3.2-1.23-3.53-1.25-1.28-.05-2.75,1.05-4.39,3.27-.24,1.24.05,2.35.88,3.41.7.93,1.44,1.71,2.22,2.33,1.55,1.3,3.12,2.5,4.63,3.55,2.17,1.28,3.82,2.31,4.91,3.07,1.88,1.33,3.31,2.88,4.25,4.6.06.1.03.24-.06.31l-.42.35s-.09.06-.15.06c0,0-.02,0-.03,0,.12.83-.08,1.85-.58,3.03-.51,1.2-1.8,1.36-3.84.5-.79-.34-1.61-.83-2.41-1.47-2.33-.88-4.81-1.87-7.38-2.96l-6.7-2.94c-.62-.26-1.78-.49-3.45-.68-1.15-.22-2.05.22-2.74,1.34-.17.3-.35.58-.52.83-.46,1.36-.27,2.66.57,3.98.75,1.17,1.71,2.01,2.84,2.49l14.19,5.33c.34.14.64.3.87.46.52.24.99.41,1.41.51,1.21.29,2.21.1,3.06-.59.1-.08.24-.07.33.01.09.09.11.23.04.33-1.06,1.53-2.3,2.08-3.68,1.64.04.21.05.42.05.64,0,.03,0,.06-.02.09-.36.87-.55,1.59-.57,2.14,0,.03,0,.07-.02.1-.22.45-.71,1.19-1.46,2.17-.04.05-.1.09-.17.1-.07.01-.14-.01-.19-.05l-.46-.37c-.06-.05-.09-.12-.09-.2v-.08c-2.06.7-4.75,1.29-7.95,1.74-1.03.42-2.8.64-5.44.67-.53-.06-1.39.09-2.57.45-1.51.41-2.43.97-2.71,1.64-.6,1.41.01,2.57,1.88,3.53,1.48.83,3.04,1.34,4.63,1.54.07,0,.14.05.18.11.44.08.87.13,1.29.16,2.17.2,4.37-.1,6.55-.87,1.88-.63,3.97-.75,6.2-.34.98.24,1.91.54,2.75.9.51.22.8.64.85,1.24.04.55-.12,1.24-.49,2.11-.16.38-.78,1.17-4.24,3.64-1.38.99-2.61,1.8-3.67,2.41l-1.45,1.42-.61,1.63c.21.85,1.3,1.73,3.23,2.61,2,.97,3.57.8,4.81-.52,1.29-1.34,2.12-2.25,2.47-2.72.92-1.17,2.72-2.5,5.34-3.92,2.61-1.48,3.88-1.84,4.57-1.84.24,0,.41.04.54.1ZM57.04,204.54c-.37-.18-.47-.8-.37-2.15,0-.02,0-.05.02-.07l3.84-9.86s0-.02.02-.03l.72-1.29c1.38-2.42,3.05-4.79,4.95-7.04,1.14-1.42,2.48-2.66,3.99-3.68.03-.02.06-.03.1-.04.3-.06.42-.04.51,0,.07.03.13.1.15.17.02.08,0,.16-.05.22-2.27,2.72-4.39,5.7-6.32,8.86-2.24,3.49-4.08,7.26-5.48,11.23l-1.25,3.36s-.03.07-.06.09c-.2.19-.38.29-.55.29-.07,0-.13-.01-.19-.04ZM58.63,200.68c1.4-4,3.26-7.81,5.52-11.32,1.73-2.83,3.62-5.53,5.63-8.02-1.18.89-2.24,1.92-3.17,3.08-1.88,2.23-3.53,4.58-4.9,6.97l-.71,1.27-3.82,9.81c-.11,1.4.07,1.61.06,1.61,0,0,.05,0,.17-.11l1.23-3.3Z" fill="#e26236"/>
        </g>
      </g>
      <path d="M72.74,194.96c3.37,2.03,4.55,6.26,2.63,9.46-1.92,3.2-6.21,4.14-9.58,2.12-3.37-2.03-4.55-6.26-2.63-9.46,1.92-3.2,6.21-4.14,9.58-2.12Z" fill="#fac0a0"/>
    </g>
    <g>
      <g>
        <path d="M405.93,234.18c.26-.16,4.16-2.49,11.71-6.98,4.21-2.49,7.67-4.24,10.36-5.24,1.97-.74,3.27-2.03,3.89-3.88.56-1.73.45-3.61-.35-5.64-.87-2.08-2.27-3.84-4.21-5.29-2.18-1.61-4.73-2.55-7.64-2.84-11.78.83-24.32,2.89-37.62,6.17-13.17,3.25-24.93,7.17-35.26,11.76l25.46,23.54c11.56-1.68,22.78-5.54,33.66-11.58Z" fill="#fac0a0"/>
        <path d="M344.1,221.77l2.1-.93c10.37-4.61,22.31-8.59,35.51-11.84,13.33-3.29,26.07-5.37,37.88-6.21h.13s.13,0,.13,0c3.17.31,5.99,1.36,8.39,3.13,2.15,1.61,3.73,3.6,4.71,5.95.93,2.36,1.05,4.6.38,6.68-.77,2.3-2.39,3.92-4.8,4.82-2.6.96-6,2.69-10.11,5.12-9.32,5.54-11.5,6.85-11.68,6.96l-.07.04c-10.99,6.11-22.49,10.07-34.17,11.76l-.71.1-27.67-25.59ZM416.87,225.9c4.27-2.53,7.84-4.33,10.6-5.36,1.54-.57,2.51-1.54,2.98-2.94.46-1.4.35-2.91-.31-4.59-.76-1.82-2.01-3.39-3.71-4.66-1.92-1.41-4.2-2.27-6.77-2.54-11.6.83-24.13,2.88-37.24,6.12-12.14,2.99-23.19,6.61-32.9,10.75l23.23,21.48c11.06-1.69,21.96-5.49,32.4-11.29.2-.13,1.38-.84,11.71-6.98Z" fill="#e26236"/>
      </g>
      <path d="M316.36,270.1c-4.63-.6-8.95-1.7-12.95-3.28-5.41-2.14-8.74-4.73-9.99-7.75,8.69-11.62,20.77-22.46,36.24-32.53,9.74-6.34,17.83-10.79,24.26-13.33,5.24-2.18,9.44-3.82,12.6-4.92,9.62,16.62,17.79,33.85,24.5,51.68l-56.52,20.64c-.59.06-1.18.14-1.78.24-5.05.58-12.2-10.18-16.36-10.73Z" fill="#4791cd"/>
      <path d="M349.44,274.51l1.99-.29c-1.96-13.54-21.68-36.96-31.01-41.31l-.85,1.83c8.76,4.08,28.02,27.01,29.87,39.77Z" fill="#7ab7dc"/>
      <path d="M370.33,266.77l1.91-.64c-5.51-16.3-20.15-31.09-29.83-40.88-1.95-1.97-3.63-3.67-4.99-5.13l-1.47,1.37c1.38,1.48,3.07,3.19,5.03,5.18,9.55,9.66,23.99,24.25,29.35,40.11Z" fill="#7ab7dc"/>
      <path d="M294.79,259.77c28.64-20.72,53.81-35.45,74.83-43.78l-.74-1.87c-21.17,8.4-46.49,23.21-75.26,44.02l1.18,1.63Z" fill="#7ab7dc"/>
      <path d="M308.2,270.88c4.15-4.85,15.35-12.42,31.52-21.32,13.45-7.4,28.62-14.69,37.75-18.15l-.71-1.88c-17.69,6.71-60.4,28.73-70.08,40.04l1.53,1.31Z" fill="#7ab7dc"/>
      <path d="M324.3,278.5c24.39-19.36,41.61-25.23,61.5-28.42l-.32-1.99c-19.65,3.16-37.78,9.27-62.43,28.83l1.25,1.58Z" fill="#7ab7dc"/>
      <path d="M337.32,279.71l1.78-.93c-10.79-20.66-22.17-27.56-32.21-33.65l-1.04,1.72c9.82,5.96,20.94,12.71,31.47,32.86Z" fill="#7ab7dc"/>
      <path d="M322.16,276.07c-2.17-2.01-4.64-4.29-6-4.47-4.73-.62-9.21-1.75-13.31-3.37h0c-5.85-2.32-9.4-5.13-10.83-8.58l-.33-.8.52-.69c8.76-11.7,21.08-22.77,36.63-32.9,9.78-6.37,18.04-10.9,24.5-13.46,5.25-2.19,9.52-3.85,12.69-4.95l1.18-.41.62,1.08c9.62,16.62,17.9,34.08,24.61,51.9l.54,1.43-57.96,21.16-.36.08c-.56.06-1.13.14-1.77.24-.19.02-.38.03-.58.03-3.33,0-6.79-3.2-10.15-6.3ZM389.07,259.06c-6.41-16.79-14.21-33.24-23.23-48.94-2.97,1.07-6.78,2.57-11.37,4.48-6.31,2.5-14.38,6.94-23.99,13.2-14.92,9.72-26.79,20.29-35.3,31.44,1.33,2.32,4.28,4.39,8.79,6.18h0c3.87,1.53,8.11,2.6,12.6,3.19,2.31.31,4.79,2.59,7.65,5.24,2.76,2.55,6.2,5.73,8.27,5.5.56-.09,1.12-.17,1.68-.23l54.92-20.05Z" fill="#1e4078"/>
      <path d="M382.5,261.84l2.69-1.37c-9.26-18.26-19.38-34.48-30.09-48.2l-2.38,1.86c10.59,13.57,20.61,29.63,29.78,47.71Z" fill="#1e4078"/>
      <g id="Child_Hands_5_1_finger_ChildHand5_1_26_0_Layer0_0_FILL1" data-name="Child_Hands_5_1_finger_ChildHand5_1_26_0_Layer0_0_FILL">
        <path d="M471.36,215.34c1.98-1.02,2.64-2.31,1.99-3.85-.32-.75-1.28-1.34-2.88-1.78-1.22-.37-2.11-.52-2.67-.46-2.55-.04-4.32-.25-5.32-.66-3.44-.48-6.21-1.11-8.3-1.86,0,.16,0,.3,0,.44l-.46.37h0c-.75-.98-1.23-1.69-1.44-2.13-.02-.58-.22-1.32-.59-2.22-.01-.38.05-.72.17-1.05-.06.03-.11.05-.15.06-1.4.59-2.63.12-3.7-1.43.9.74,2,.95,3.28.64.43-.11.92-.29,1.45-.53.25-.17.54-.32.87-.46l14.18-5.32c1.2-.51,2.19-1.37,2.97-2.59.89-1.38,1.09-2.79.59-4.23-.18-.25-.36-.53-.53-.84-.75-1.21-1.75-1.7-3.01-1.46-1.69.19-2.86.42-3.5.69l-6.71,2.94c-2.58,1.1-5.04,2.09-7.4,2.97-.8.64-1.6,1.12-2.39,1.46-1.9.81-3.07.69-3.51-.36-.56-1.32-.73-2.4-.49-3.24-.08.04-.19.06-.33.05l-.42-.35c.93-1.69,2.32-3.2,4.18-4.52,1.09-.76,2.72-1.78,4.89-3.05,1.55-1.07,3.1-2.26,4.67-3.58.79-.63,1.55-1.42,2.26-2.38.88-1.12,1.19-2.34.92-3.66-1.71-2.34-3.26-3.48-4.64-3.42-.51.04-1.72.46-3.61,1.27-1.18.5-3.71,2.67-7.58,6.5-1.81,1.83-3.62,3.69-5.41,5.57-.57.6-1.19,1.15-1.85,1.67-1.11.85-2.43,1.62-3.97,2.31-.19.05-.35.09-.48.12-.72.25-1.47.36-2.24.34-.31-.04-.59-.1-.87-.16-.02,0-.03-.02-.03-.07-1.36.06-2.47-.82-3.34-2.65-.79,1.75-1.38,2.71-1.78,2.88-.05.02-.24.05-.59.07l-.38-.28c.98-.85,1.75-2.15,2.32-3.9-.19-.69-.19-1.31,0-1.86.27-.76-.04-2.17-.91-4.21-.47-1.11-2.08-2.89-4.84-5.37-1.31-.86-2.23-1.29-2.76-1.3-.34.03-.81.17-1.41.42-3.18,1.35-4.28,3.88-3.31,7.6.22.85.55,1.74.96,2.68.06.06.12.13.17.19.03.07.06.14.1.23.05.11.09.21.13.3.04.1.08.2.13.3l1.63,2.58c.42.5.77.91,1.05,1.23.34.67.67,1.38,1,2.14.03.08.07.15.1.22.55,1.29.88,2.42.99,3.38l.03.08c.1.88.04,1.65-.18,2.29-.79,1.04-1.24,1.65-1.35,1.81l-.14-.12c-.78,2.87-.63,5.58.45,8.12.98,2.3,2.7,4.27,5.17,5.93,2.62,1.72,3.97,2.68,4.05,2.88-.91.26-2.07.1-3.47-.47.85,1.81,1.79,3.8,2.8,5.97.04.1.73.81,2.06,2.13,1.23,1.36,2.79,2.47,4.68,3.32.8.37,2.27.57,4.41.6.96.02,1.75.1,2.39.22-.39-.26-.8-.52-1.23-.8l.15-.68c.7-.3,2.33.28,4.89,1.72,2.61,1.42,4.36,2.71,5.27,3.86.36.48,1.19,1.39,2.49,2.74,1.31,1.4,3.01,1.59,5.1.57,2.07-.94,3.19-1.89,3.38-2.85l-.66-1.75-1.51-1.48c-1.06-.61-2.29-1.42-3.68-2.41-2.54-1.81-3.92-2.99-4.16-3.54-.7-1.65-.62-2.65.22-3.01.84-.36,1.75-.65,2.72-.89,2.19-.4,4.21-.28,6.06.34,2.22.79,4.43,1.08,6.65.88.48-.03.98-.1,1.51-.2l-.03-.07c1.63-.2,3.2-.72,4.72-1.57M441.01,203.22c.24.43.48.86.72,1.28l3.84,9.86c.14,1.71-.09,2.28-.69,1.71-.42-1.12-.83-2.24-1.25-3.36-1.4-4-3.24-7.76-5.5-11.28-1.94-3.18-4.06-6.15-6.34-8.89.05-.02.17-.01.36.02,1.49,1.02,2.8,2.23,3.93,3.63,1.9,2.26,3.54,4.59,4.92,7.01" fill="#fac0a0"/>
        <g>
          <path d="M470.14,217.89c4.37-1.92,5.99-4.2,4.87-6.85-.98-2.3-3.67-3.57-8.07-3.82-5.4-.31-9.8-1.09-13.2-2.34-.06-.15-.14-.33-.22-.52.06-.01.11-.03.15-.06h0c-.42-1-.36-1.61.19-1.85.07-.15.2-.26.39-.34.5-.21,2.3-.83,5.4-1.85l5.47-2.32c3.46-1.64,5.66-2.96,6.62-3.97.89-.76,1.39-1.53,1.49-2.32.06-.76.06-1.59,0-2.48-.12-.87-.67-1.9-1.67-3.09-1.17-1.21-2.74-1.72-4.72-1.53-1.35.16-4.26,1.19-8.76,3.1-1.52.65-5.04,2.35-10.56,5.11-.75.13-1.34.12-1.78-.04-.45-.51-.54-1.21-.27-2.09.22-.45.49-1,.8-1.67,10.19-6.68,15.25-11.4,15.2-14.16l.07-.03-.05-.33.13-.32-.05-.33c.06-.14-.08-.61-.42-1.41-.05-.11-.2-.34-.47-.69-.11-.21-.21-.37-.3-.49l-.13-.3-.48-.5c-.36-.31-.64-.55-.83-.71-1.76-1.67-4.94-1.52-9.54.43-.99.42-3.34,2.57-7.07,6.45l-5.9,6.49c-1.06.75-1.96,1.28-2.69,1.58l-1.45.53s-.08-.03-.11-.04l-.07.03c-.5.21-1.08.37-1.74.48-.29.06-.55.08-.77.06-.82.16-1.42-.23-1.82-1.17-.47-1.1-.63-2.24-.48-3.42.15-1.18-.15-2.65-.9-4.39-.83-1.95-2.37-3.77-4.62-5.46-1.58-1.19-2.68-1.84-3.3-1.95-.68-.48-1.92-.33-3.71.43-.09.04-.17.07-.23.1-.11.05-.21.09-.3.13-1.3.55-2.34,1.7-3.13,3.45-.86,1.93-.94,3.73-.26,5.42.03.07.05.12.06.15l.03.07c.09.63.42,1.61.99,2.94.12.28.25.52.39.72.06.28.15.57.28.86,1.23,2.03,2.12,3.51,2.68,4.43.33.64.54,1.05.62,1.24.52,1.22.78,2.53.78,3.91-.64,1.11-1.14,2.15-1.51,3.12-1.03,2.85-1.01,5.53.05,8.02,1.2,2.83,2.99,5.02,5.35,6.56l2.22,5.42c2.12,4.99,4.95,7.97,8.49,8.95,3.88.94,6.16,1.27,6.86.97.08-.03.16-.07.23-.1.4-.03.88-.09,1.43-.17l2.1.17c2.63,1.88,4.25,3.2,4.86,3.95.51.66,1.48,1.54,2.9,2.66,1.38,1.14,3.41,1.55,6.09,1.21,2.69-.28,4.42-1.9,5.18-4.86-.06-1.04-.54-2.1-1.44-3.19-.07-.11-.15-.23-.23-.34-.78-.73-1.6-1.35-2.47-1.87-.3-.16-.59-.34-.84-.53-.75-.51-1.54-.99-2.39-1.46-1.39-.93-2.36-2.02-2.9-3.28l.1-.4c2.86-.3,5.58-.28,8.16.07,1.13.16,3.15.54,6.05,1.14.82,0,1.72-.14,2.72-.45l-.03-.07c.77-.15,1.6-.42,2.49-.79M473.34,211.49c.65,1.54,0,2.83-1.99,3.85-1.52.85-3.1,1.37-4.72,1.57l.03.07c-.52.1-1.03.17-1.51.2-2.22.2-4.43-.09-6.65-.88-1.85-.62-3.87-.74-6.06-.34-.97.24-1.88.53-2.72.89-.85.36-.92,1.37-.22,3.01.23.55,1.62,1.73,4.16,3.54,1.39,1,2.62,1.8,3.68,2.41l1.51,1.48.66,1.75c-.19.96-1.32,1.91-3.38,2.85-2.09,1.02-3.79.83-5.1-.57-1.3-1.35-2.13-2.27-2.49-2.74-.9-1.15-2.66-2.44-5.27-3.86-2.56-1.45-4.19-2.02-4.89-1.72l-.15.68c.42.28.83.55,1.23.8-.64-.12-1.44-.2-2.39-.22-2.14-.03-3.61-.23-4.41-.6-1.89-.85-3.45-1.95-4.68-3.32-1.33-1.32-2.01-2.03-2.06-2.13-1.01-2.17-1.95-4.16-2.8-5.97,1.4.57,2.56.73,3.47.47-.08-.2-1.43-1.16-4.05-2.88-2.47-1.66-4.2-3.64-5.17-5.93-1.08-2.54-1.23-5.25-.45-8.12l.14.12c.11-.16.56-.77,1.35-1.81.22-.64.28-1.4.18-2.29l-.03-.08c-.11-.96-.45-2.09-.99-3.38-.03-.07-.06-.14-.1-.22-.33-.76-.66-1.47-1-2.14-.28-.33-.63-.74-1.05-1.23l-1.63-2.58c-.04-.1-.09-.2-.13-.3-.04-.09-.08-.19-.13-.3-.04-.08-.07-.16-.1-.23-.05-.07-.11-.13-.17-.19-.42-.94-.74-1.84-.96-2.68-.97-3.71.14-6.25,3.31-7.6.6-.25,1.07-.4,1.41-.42.53,0,1.46.44,2.76,1.3,2.76,2.47,4.37,4.26,4.84,5.37.87,2.05,1.17,3.45.91,4.21-.19.55-.19,1.17,0,1.86-.57,1.75-1.34,3.05-2.32,3.9l.38.28c.34-.03.54-.05.59-.07.4-.17.99-1.13,1.78-2.88.86,1.83,1.98,2.71,3.34,2.65,0,.05.01.07.03.07.27.07.56.12.87.16.77.02,1.52-.09,2.24-.34.13-.02.29-.06.48-.12,1.54-.69,2.86-1.46,3.97-2.31.66-.52,1.28-1.07,1.85-1.67,1.79-1.88,3.6-3.74,5.41-5.57,3.87-3.83,6.4-5.99,7.58-6.5,1.9-.81,3.1-1.23,3.61-1.27,1.38-.06,2.92,1.08,4.64,3.42.27,1.32-.04,2.54-.92,3.66-.71.95-1.47,1.74-2.26,2.38-1.56,1.31-3.12,2.51-4.67,3.58-2.17,1.28-3.8,2.29-4.89,3.05-1.86,1.32-3.25,2.83-4.18,4.52l.42.35c.14,0,.26,0,.33-.05-.23.84-.07,1.92.49,3.24.45,1.05,1.62,1.17,3.51.36.79-.34,1.58-.82,2.39-1.46,2.36-.88,4.82-1.87,7.4-2.97l6.71-2.94c.65-.28,1.82-.51,3.5-.69,1.25-.24,2.26.25,3.01,1.46.17.31.35.58.53.84.5,1.44.3,2.85-.59,4.23-.78,1.22-1.77,2.08-2.97,2.59l-14.18,5.32c-.32.14-.61.29-.87.46-.54.24-1.02.42-1.45.53-1.28.31-2.38.1-3.28-.64,1.07,1.55,2.31,2.02,3.7,1.43.04-.02.09-.04.15-.06-.13.32-.19.67-.17,1.05.37.9.57,1.64.59,2.22.21.44.69,1.15,1.44,2.13h0l.46-.37c0-.14,0-.28,0-.44,2.1.76,4.87,1.38,8.3,1.86,1,.4,2.77.62,5.32.66.56-.06,1.45.09,2.67.46,1.6.44,2.56,1.03,2.88,1.78M441.74,204.51c-.24-.43-.48-.86-.72-1.28-1.38-2.42-3.02-4.76-4.92-7.01-1.13-1.41-2.44-2.62-3.93-3.63-.19-.04-.31-.04-.36-.02,2.29,2.74,4.4,5.7,6.34,8.89,2.26,3.52,4.1,7.28,5.5,11.28.42,1.12.83,2.24,1.25,3.36.6.57.83,0,.69-1.71l-3.84-9.86Z" fill="#e26236"/>
          <path d="M449.5,232.9c-1.46-1.14-2.42-2.03-2.94-2.7-.59-.72-2.19-2.02-4.75-3.86l-1.98-.16c-.53.08-1,.13-1.41.16l-.19.08c-.48.21-1.74.33-7.03-.96-3.6-.99-6.51-4.05-8.65-9.09l-2.19-5.35c-2.36-1.56-4.17-3.79-5.38-6.63-1.08-2.55-1.1-5.31-.06-8.21.36-.95.86-1.99,1.49-3.09,0-1.32-.26-2.58-.76-3.75-.08-.18-.27-.58-.6-1.21l-2.69-4.46c-.12-.29-.22-.57-.28-.85-.14-.2-.27-.44-.39-.72-.57-1.34-.9-2.31-1-2.97l-.08-.2c-.71-1.74-.62-3.63.26-5.61.81-1.8,1.91-3.01,3.26-3.58l.53-.22c1.85-.79,3.13-.93,3.9-.43.68.14,1.78.8,3.36,1.99,2.28,1.71,3.86,3.59,4.7,5.56.76,1.78,1.06,3.3.91,4.52-.14,1.13.02,2.24.46,3.29.47,1.1,1.1,1.11,1.54,1.02.02,0,.04,0,.07,0,.2.02.43,0,.71-.06.64-.1,1.2-.25,1.68-.46l.07-.03c.06-.03.14-.03.2,0,0,0,0,0,0,0l1.35-.49c.71-.3,1.6-.83,2.6-1.52l5.91-6.49c3.78-3.94,6.12-6.07,7.15-6.51,4.67-1.99,7.98-2.12,9.8-.39l.85.73.48.5s.04.05.05.07l.1.25c.09.13.2.3.29.49.37.48.46.65.5.74.43,1.02.48,1.35.45,1.52l.04.28s0,.09-.02.13l-.1.26.04.26c.01.08-.02.16-.07.22-.12,2.89-5.11,7.53-15.25,14.18-.3.64-.55,1.17-.75,1.57-.24.77-.18,1.36.18,1.8.39.12.91.12,1.56.01,5.48-2.74,9.03-4.46,10.54-5.1,4.55-1.94,7.44-2.96,8.83-3.12,2.05-.2,3.7.34,4.93,1.62,1.02,1.22,1.6,2.3,1.73,3.24.06.89.05,1.74,0,2.53-.11.85-.64,1.68-1.56,2.45-.99,1.04-3.18,2.35-6.71,4.02l-5.48,2.33c-3.07,1.01-4.88,1.64-5.38,1.85-.13.06-.21.13-.26.22-.03.06-.07.1-.13.12-.15.06-.59.25-.05,1.52.04.1.02.21-.06.28l.09.21c3.34,1.21,7.72,1.99,13.02,2.29,4.49.25,7.28,1.59,8.29,3.97,1.18,2.79-.5,5.2-5,7.17,0,0,0,0,0,0-.82.35-1.61.61-2.34.77-.03.05-.08.09-.14.11-1.02.31-1.96.48-2.85.46-2.89-.6-4.92-.98-6.04-1.14-2.49-.34-5.16-.37-7.92-.08l-.03.14c.52,1.17,1.45,2.21,2.75,3.08.85.47,1.66.96,2.42,1.48.24.17.51.34.82.51.88.52,1.72,1.16,2.55,1.93.09.12.17.24.22.33.93,1.13,1.44,2.25,1.5,3.34,0,.03,0,.05,0,.08-.79,3.05-2.6,4.75-5.39,5.04-.61.08-1.18.11-1.73.11-1.91,0-3.44-.46-4.55-1.38ZM459.27,226.01c-.07-.11-.14-.22-.19-.29-.77-.71-1.58-1.33-2.42-1.83-.32-.17-.61-.36-.86-.54-.74-.5-1.53-.99-2.39-1.46-1.43-.95-2.44-2.09-2.99-3.39-.02-.05-.03-.11-.01-.16l.1-.4c.03-.1.11-.18.22-.19,2.87-.31,5.64-.28,8.22.07,1.13.16,3.17.54,6.02,1.14.76,0,1.57-.12,2.46-.39,0,0,0,0,0,0,.04-.07.1-.11.17-.13.75-.15,1.58-.41,2.44-.78,4.26-1.87,5.8-4,4.74-6.52-.93-2.19-3.57-3.42-7.86-3.66-5.41-.31-9.87-1.11-13.27-2.36-.07-.02-.12-.07-.14-.14l-.22-.52c-.03-.07-.03-.15,0-.22.01-.03.03-.05.05-.07-.44-1.19-.1-1.7.33-1.92.1-.16.26-.29.47-.38.51-.22,2.33-.84,5.4-1.85l5.46-2.32c3.41-1.62,5.62-2.93,6.57-3.93.84-.71,1.31-1.44,1.4-2.14.06-.75.06-1.57,0-2.42-.11-.82-.65-1.82-1.6-2.95-1.11-1.15-2.63-1.63-4.51-1.45-1.32.16-4.24,1.2-8.69,3.09-1.51.64-5.05,2.36-10.54,5.1-.02.01-.04.02-.07.02-.8.14-1.43.13-1.91-.05-.04-.01-.08-.04-.1-.07-.51-.58-.62-1.37-.31-2.37.22-.45.49-1,.79-1.66.02-.04.05-.08.09-.1,10.06-6.6,15.14-11.29,15.08-13.94,0-.06.02-.11.05-.16l-.03-.17s0-.09.02-.13l.1-.26-.04-.26s0-.07,0-.11c0-.03,0-.26-.42-1.24-.02-.04-.1-.19-.46-.67-.1-.2-.2-.35-.31-.51l-.11-.26-.43-.45-.84-.72c-1.68-1.58-4.79-1.42-9.27.48-.95.41-3.3,2.56-6.98,6.39l-5.95,6.53c-1.07.75-1.99,1.29-2.74,1.62l-1.45.53c-.05.02-.11.02-.17,0,0,0-.02,0-.02,0-.51.22-1.11.38-1.77.48-.3.06-.57.08-.8.07-.65.12-1.52-.03-2.07-1.32-.48-1.13-.65-2.33-.5-3.55.14-1.13-.16-2.57-.88-4.27-.81-1.9-2.33-3.7-4.54-5.36-1.92-1.45-2.8-1.84-3.2-1.91-.04,0-.07-.02-.1-.04-.6-.42-1.77-.27-3.47.45l-.52.22c-1.23.52-2.24,1.64-3,3.32-.82,1.85-.91,3.61-.26,5.22l.09.22s.01.04.02.06c.09.61.41,1.58.97,2.88.11.27.23.49.37.67.02.03.04.06.04.09.06.26.14.53.24.78l2.69,4.45c.35.67.54,1.07.63,1.26.53,1.25.8,2.6.8,4.01,0,.04-.01.09-.03.13-.63,1.1-1.13,2.13-1.49,3.07-1,2.78-.98,5.42.05,7.84,1.18,2.77,2.95,4.94,5.26,6.45.04.03.08.07.1.12l2.22,5.42c2.08,4.89,4.88,7.85,8.32,8.8,4.74,1.15,6.26,1.17,6.71.98l.22-.1s.05-.02.08-.02c.4-.03.88-.09,1.47-.17l2.1.17s.09.02.13.05c2.67,1.91,4.27,3.21,4.91,4,.49.63,1.45,1.51,2.86,2.62,1.32,1.09,3.31,1.48,5.9,1.16,2.59-.27,4.21-1.79,4.96-4.63-.07-.96-.53-1.98-1.4-3.03ZM450.84,231.51c-1.3-1.35-2.15-2.28-2.51-2.76-.88-1.12-2.63-2.4-5.19-3.8-2.84-1.6-4.04-1.86-4.55-1.75l-.08.37,1.08.71c.1.07.14.19.09.31-.04.11-.16.17-.28.15-.62-.12-1.41-.19-2.35-.22-2.19-.04-3.67-.24-4.51-.62-1.91-.86-3.52-1.99-4.75-3.37-2.03-2.02-2.08-2.13-2.11-2.2-1.01-2.17-1.95-4.16-2.8-5.97-.04-.09-.03-.2.04-.28.07-.08.18-.1.28-.06,1.11.45,2.07.64,2.85.55-.42-.33-1.41-1.03-3.66-2.51-2.5-1.68-4.27-3.71-5.27-6.04-1.1-2.59-1.25-5.37-.46-8.29.02-.08.09-.15.17-.17.05-.02.11-.02.16,0,.21-.28.59-.8,1.18-1.58.19-.59.25-1.29.16-2.1l-.02-.04s-.02-.05-.02-.07c-.11-.93-.44-2.05-.98-3.31l-.09-.22c-.32-.75-.66-1.47-.96-2.07-.28-.33-.63-.74-1.08-1.26l-1.64-2.62-.34-.79s-.08-.1-.13-.14c-.02-.02-.04-.05-.05-.08-.42-.95-.75-1.87-.98-2.72-1-3.84.17-6.49,3.46-7.89.63-.27,1.12-.41,1.51-.44.59,0,1.54.45,2.93,1.36,2.81,2.52,4.42,4.31,4.91,5.46.9,2.13,1.2,3.56.91,4.39-.17.5-.17,1.07,0,1.71.01.05.01.1,0,.14-.53,1.65-1.26,2.93-2.16,3.8l.06.04c.33-.03.41-.05.42-.05h0c.15-.07.62-.46,1.65-2.75.04-.09.13-.15.23-.15.13,0,.19.05.23.14.82,1.74,1.82,2.56,3.1,2.51.06,0,.16.04.21.11.23.05.48.1.71.13.74.03,1.47-.09,2.19-.33.13-.02.28-.06.42-.1,1.51-.68,2.83-1.45,3.92-2.28.65-.51,1.26-1.06,1.82-1.65,1.79-1.87,3.61-3.75,5.42-5.58,3.93-3.89,6.44-6.03,7.66-6.55,1.94-.82,3.15-1.25,3.7-1.29,1.49-.06,3.07,1.09,4.85,3.52.02.03.04.06.04.1.28,1.39-.04,2.69-.96,3.86-.72.96-1.5,1.78-2.3,2.42-1.56,1.31-3.14,2.52-4.7,3.6-2.16,1.27-3.8,2.3-4.87,3.04-1.75,1.24-3.1,2.67-4,4.26l.19.16c.08,0,.11-.02.11-.02.09-.05.2-.04.28.02.08.06.12.17.09.27-.22.78-.05,1.81.48,3.07.14.33.57,1.34,3.18.23.76-.32,1.55-.8,2.33-1.42.02-.02.04-.03.07-.04,2.33-.88,4.82-1.87,7.39-2.97l6.71-2.94c.68-.29,1.85-.52,3.56-.71,1.36-.26,2.46.27,3.27,1.58.17.3.34.57.52.81.01.02.02.04.03.06.52,1.51.32,3-.61,4.45-.81,1.25-1.84,2.16-3.09,2.69l-14.17,5.32c-.31.13-.59.28-.86.45-.55.25-1.05.43-1.5.55-.8.19-1.54.19-2.21,0,.75.6,1.57.7,2.47.32l.15-.06c.09-.04.2-.02.27.05.07.07.1.18.06.27-.11.28-.16.58-.16.9.36.89.56,1.62.59,2.21.2.39.61,1.01,1.23,1.83l.16-.13v-.31c0-.08.03-.16.1-.21.07-.05.15-.06.23-.03,2.07.75,4.85,1.37,8.31,1.86.96.39,2.72.6,5.2.64.6-.07,1.51.09,2.76.46,1.7.46,2.69,1.09,3.04,1.93h0c.71,1.68,0,3.08-2.1,4.17-1.48.82-3.03,1.35-4.61,1.57-.04.05-.09.09-.16.1-.53.1-1.05.17-1.53.2-2.24.2-4.52-.1-6.75-.9-1.81-.61-3.8-.72-5.93-.33-.95.23-1.85.53-2.68.88-.34.14-.51.4-.54.81-.03.46.12,1.09.45,1.87.15.35.97,1.22,4.07,3.43,1.37.99,2.6,1.79,3.66,2.4.02.01.04.02.05.04l1.51,1.48s.05.06.06.09l.66,1.75s.02.09.01.14c-.21,1.05-1.36,2.05-3.52,3.03-.92.45-1.77.67-2.55.67-1.09,0-2.04-.43-2.85-1.29ZM458.63,227.44l-1.45-1.42c-1.06-.61-2.3-1.42-3.67-2.41-3.46-2.47-4.08-3.26-4.24-3.64-.37-.87-.53-1.56-.49-2.11.04-.59.34-1.02.84-1.24.85-.36,1.78-.67,2.77-.91,2.22-.4,4.3-.29,6.19.35,2.17.77,4.37,1.07,6.55.87.41-.03.84-.08,1.28-.16.04-.06.11-.1.18-.11,1.59-.2,3.15-.71,4.64-1.54,1.86-.96,2.47-2.12,1.87-3.53h0c-.29-.67-1.2-1.22-2.72-1.64-1.18-.35-2.04-.5-2.6-.45-2.61-.04-4.37-.26-5.35-.66-3.25-.46-5.94-1.05-8.01-1.75v.08c0,.08-.03.15-.09.2l-.46.37c-.05.04-.12.06-.19.05-.07,0-.13-.04-.17-.1-.75-.99-1.25-1.72-1.46-2.17-.01-.03-.02-.07-.02-.1-.02-.55-.21-1.27-.57-2.14-.01-.03-.02-.06-.02-.09,0-.22,0-.43.05-.64-1.38.44-2.62-.11-3.68-1.64-.07-.1-.06-.24.04-.33.09-.08.23-.09.33-.01.84.69,1.85.88,3.06.59.42-.11.89-.28,1.38-.5.26-.17.57-.33.92-.48l14.17-5.32c1.14-.49,2.1-1.33,2.85-2.49.85-1.32,1.04-2.62.57-3.98-.18-.25-.35-.53-.52-.82-.7-1.13-1.6-1.57-2.77-1.34-1.66.18-2.81.41-3.43.67l-6.71,2.94c-2.56,1.09-5.04,2.09-7.37,2.96-.81.64-1.62,1.13-2.41,1.47-2.04.87-3.33.7-3.84-.5-.51-1.2-.7-2.2-.58-3.03,0,0-.02,0-.03,0-.05,0-.11-.02-.15-.06l-.42-.35c-.09-.08-.12-.21-.06-.31.95-1.72,2.38-3.27,4.26-4.6,1.08-.75,2.73-1.79,4.89-3.05,1.53-1.06,3.1-2.26,4.65-3.57.77-.62,1.52-1.4,2.22-2.34.83-1.05,1.12-2.16.88-3.4-1.64-2.23-3.12-3.32-4.38-3.27-.33.03-1.22.27-3.54,1.25-1.15.49-3.67,2.66-7.5,6.44-1.8,1.82-3.62,3.7-5.41,5.57-.58.6-1.21,1.17-1.88,1.7-1.12.85-2.47,1.64-4.05,2.35-.2.06-.36.09-.47.11-.75.26-1.52.38-2.36.35-.31-.04-.61-.1-.89-.17h0s-.08-.03-.12-.06c-1.27,0-2.33-.79-3.17-2.33-.94,1.99-1.4,2.41-1.69,2.53-.06.03-.15.05-.67.09-.06,0-.12-.01-.17-.05l-.38-.28c-.06-.05-.1-.12-.1-.19,0-.08.03-.15.09-.2.92-.81,1.67-2.06,2.22-3.72-.18-.71-.17-1.36.03-1.93.24-.7-.06-2.05-.9-4.03-.45-1.07-2.06-2.84-4.75-5.26-1.57-1.03-2.3-1.25-2.6-1.26-.31.03-.76.16-1.33.4-3.07,1.31-4.1,3.69-3.17,7.3.22.81.53,1.69.93,2.6.06.06.11.12.16.18.01.02.03.04.03.06l.33.79,1.6,2.55c.42.49.77.9,1.09,1.28.34.67.68,1.39,1.02,2.2l.08.18c.55,1.29.89,2.44,1.01,3.41l.02.04s.02.05.02.07c.1.92.04,1.72-.19,2.4,0,.03-.02.05-.04.07-.79,1.04-1.24,1.64-1.34,1.8-.04.06-.1.1-.17.11,0,0,0,0-.01,0-.67,2.69-.5,5.26.51,7.65.95,2.24,2.66,4.2,5.08,5.82,3.99,2.62,4.08,2.85,4.14,2.99.03.07.03.14,0,.21-.03.06-.09.11-.16.13-.83.24-1.85.15-3.05-.26.78,1.66,1.63,3.46,2.53,5.4.05.07.37.44,2.02,2.08,1.2,1.33,2.75,2.43,4.6,3.25.77.35,2.22.54,4.31.58.48.01.92.04,1.32.07l-.3-.19c-.09-.06-.13-.16-.11-.26l.15-.68c.02-.08.07-.14.15-.18.5-.21,1.57-.26,5.1,1.73,2.62,1.43,4.42,2.75,5.35,3.93.35.47,1.18,1.38,2.47,2.72,1.24,1.32,2.81,1.49,4.82.51,1.93-.88,3.01-1.76,3.22-2.61l-.61-1.63ZM444.71,216.26s-.05-.06-.06-.09l-1.25-3.36c-1.39-3.96-3.23-7.74-5.48-11.23-1.93-3.16-4.05-6.14-6.32-8.86-.05-.06-.07-.14-.05-.22.02-.08.07-.14.15-.17.09-.04.21-.05.51,0,.03,0,.07.02.1.04,1.5,1.02,2.84,2.26,3.98,3.68,1.9,2.26,3.57,4.63,4.95,7.05l.74,1.32,3.84,9.86s.01.05.02.07c.11,1.35,0,1.98-.37,2.15-.06.03-.13.04-.19.04-.17,0-.36-.1-.55-.29ZM445.23,216.05h0,0ZM441.52,204.63l-.72-1.28c-1.37-2.39-3.02-4.74-4.9-6.98-.93-1.16-1.99-2.19-3.17-3.08,2.01,2.49,3.9,5.18,5.62,8.01,2.26,3.52,4.12,7.33,5.53,11.32l1.23,3.3c.09.08.14.1.14.11.04-.05.19-.31.09-1.62l-3.81-9.79Z" fill="#e26236"/>
        </g>
      </g>
      <path d="M429.76,206.92c-3.37,2.03-4.55,6.26-2.63,9.46s6.21,4.14,9.58,2.12c3.37-2.03,4.55-6.26,2.63-9.46-1.92-3.2-6.21-4.14-9.58-2.12Z" fill="#fac0a0"/>
    </g>
    <g>
      <path d="M330.36,352.44c5.37,15.48,8.93,29.43,10.7,41.84l-82.34,16.72-6.94-40.8,78.59-17.75Z" fill="#2d1e21"/>
      <path d="M250.05,369.04l81.3-18.37.44,1.28c5.37,15.5,8.99,29.67,10.77,42.12l.2,1.41-85.26,17.31-7.45-43.75ZM329.38,354.21l-75.87,17.14,6.44,37.86,79.41-16.12c-1.76-11.57-5.11-24.63-9.98-38.87Z"/>
    </g>
    <g>
      <path d="M145.59,389.89l24.79-40.88,88.2,22.8-10.84,21.37-40.58,23.45-61.58-26.74Z" fill="#2d1e21"/>
      <path d="M143.4,390.58l26.27-43.32,91.09,23.55-11.48,22.97-42.02,24.54-63.87-27.73ZM256.4,372.8l-85.31-22.05-23.32,38.45,59.29,25.74,39.92-23.31,9.41-18.83Z"/>
    </g>
    <g>
      <path d="M268.72,375.05c-3.87,7.23-8.36,13.75-13.44,19.54-2.28-.37-4.94-.76-7.96-1.17,1.62-7.36,2.79-15.07,3.5-23.14,3.55.55,9.52,2.14,17.91,4.77Z" fill="#2d1e21"/>
      <path d="M256.41,395.58c5.14-5.86,9.73-12.53,13.64-19.83l.86-1.61-1.74-.54c-8.54-2.67-14.47-4.24-18.13-4.82l-1.59-.25-.14,1.61c-.7,7.97-1.87,15.69-3.47,22.95l2.95.65c1.52-6.89,2.65-14.17,3.37-21.69,3.27.65,8.08,1.96,14.35,3.88-3.6,6.47-7.76,12.4-12.37,17.65l2.27,1.99Z"/>
    </g>
    <path d="M253.8,393.2c2.67.49,6.16,1.6,10.45,3.31-8.51-1.11-17.03-2.31-25.56-3.6.58-.46,2.57-.64,5.98-.55,3.42.06,6.46.34,9.13.83Z"/>
    <g>
      <g>
        <path d="M150.66,360.36l184.85,28c.96-4.27,1.84-8.72,2.62-13.35-69.15-7.88-130.61-17.11-184.39-27.68l-3.08,13.03M276.01,310.4c-4.66-.58-8.86.53-12.59,3.34-3.85,2.89-6.13,6.76-6.84,11.61-.71,4.81.37,9.16,3.22,13.04,2.77,3.76,6.47,6.04,11.1,6.82.13.02.27.04.4.06,4.75.7,9.06-.4,12.94-3.29,3.85-2.89,6.13-6.75,6.83-11.56.71-4.85-.36-9.21-3.22-13.09-2.89-3.88-6.7-6.17-11.45-6.87-.13-.02-.27-.04-.4-.06M279.39,325.85c.72,1.09.98,2.31.78,3.68-.19,1.33-.79,2.41-1.8,3.25-1.04.83-2.19,1.15-3.45.97-1.23-.18-2.22-.82-2.97-1.91-.75-1.09-1.03-2.31-.84-3.63.2-1.36.82-2.46,1.86-3.29,1.03-.8,2.16-1.11,3.39-.93,1.26.18,2.27.81,3.03,1.87M300.18,306.82l12.12,38.35.04.06,11.01.19-6.18-40.38-.41.04-16.58,1.74Z" fill="#e74427"/>
        <path d="M184.79,215.46l-31.04,131.87c53.77,10.57,115.23,19.8,184.39,27.68,5.99-35.27-2.23-80.83-6.55-136.67-.06-.04-.12-.1-.18-.18-1.41-1.23-2.83-2.42-4.26-3.58-37.87-31.4-77.1-38.44-135.82-21.12-2.19.59-4.37,1.26-6.55,1.99M316.76,305.09l.41-.04,6.18,40.38-11.01-.19-.04-.06h-.36s-12.16-38.41-12.16-38.41l16.99-1.78v.1M276.41,310.45c4.75.7,8.56,2.99,11.45,6.87,2.85,3.88,3.93,8.24,3.22,13.09-.71,4.81-2.98,8.67-6.83,11.56-3.88,2.89-8.2,3.99-12.94,3.29-.13-.02-.27-.04-.4-.06-.13-.02-.27-.04-.4-.06-4.81-.71-8.65-3-11.5-6.88-2.85-3.88-3.93-8.22-3.22-13.04.71-4.85,2.99-8.72,6.84-11.61,3.85-2.89,8.18-3.99,12.99-3.28.13.02.27.04.4.06.13.02.27.04.4.06M272.97,324.9c-1.04.83-1.66,1.93-1.86,3.29-.19,1.33.09,2.54.84,3.63.75,1.09,1.75,1.73,2.97,1.91,1.26.19,2.41-.14,3.45-.97,1-.84,1.6-1.92,1.8-3.25.2-1.36-.06-2.59-.78-3.68-.76-1.06-1.77-1.68-3.03-1.87-1.23-.18-2.36.13-3.39.93Z" fill="#fff"/>
      </g>
      <path d="M339.62,375.26c4.39-25.84,1.2-57.24-2.49-93.61-1.41-13.86-2.86-28.19-4.04-43.43l-.06-.71-.64-.49c-1.11-.96-2.23-1.91-3.34-2.83.05-.09.09-.18.14-.27l-1.33-.71c-38.79-32.05-78.26-38.31-135.96-21.49-.09-.11-.19-.22-.29-.32l-.64.59s-.04.01-.06.02c-2.2.6-4.43,1.27-6.62,2.01l-.8.27-31.23,132.69,2.94.69,30.85-131.05c1.88-.62,3.78-1.19,5.67-1.7l2.02-.55-.02-.03c56.19-16.18,94.68-9.92,132.46,21.4,1.31,1.07,2.63,2.18,3.94,3.3,1.17,15.05,2.61,29.21,4,42.91,3.67,36.15,6.84,67.37,2.52,92.8l2.98.51Z"/>
      <path d="M148.82,361.61l3.46-14.62,1.47.35.29-1.48c53.49,10.52,115.48,19.82,184.27,27.66l-.17,1.5,1.49.25c-.78,4.64-1.67,9.16-2.64,13.43l-.31,1.37-187.86-28.46ZM154.88,349.09l-2.37,10.02,181.83,27.54c.73-3.32,1.41-6.78,2.03-10.33-67.62-7.74-128.67-16.9-181.49-27.24ZM271.09,346.75l-.4-.06.22-1.49-.25,1.49c-5.01-.85-9.07-3.34-12.07-7.41-3.09-4.19-4.26-8.95-3.5-14.15.77-5.23,3.27-9.47,7.43-12.6,4.04-3.04,8.65-4.27,13.69-3.63l-.19,1.5.22-1.49.4.06c5.13.75,9.32,3.26,12.45,7.47,3.09,4.19,4.26,8.97,3.49,14.2-.76,5.2-3.26,9.42-7.42,12.55-3.39,2.52-7.12,3.79-11.13,3.79-.96,0-1.93-.07-2.92-.22ZM264.33,314.94c-3.55,2.67-5.6,6.14-6.25,10.62-.65,4.45.31,8.34,2.95,11.92,2.55,3.46,5.86,5.5,10.12,6.22l.38.06c4.37.64,8.24-.34,11.81-3,3.55-2.67,5.59-6.13,6.25-10.57.66-4.48-.3-8.39-2.93-11.97-2.66-3.58-6.08-5.63-10.45-6.28l-.39-.06c-4.29-.53-8.04.47-11.48,3.05ZM312.32,346.74l-.79-.07-.59-.8-12.75-40.35,18.42-1.93,1.85-.18,6.67,43.57-12.8-.22ZM302.18,308.13l11.25,35.61,8.16.14-5.69-37.19-13.72,1.44ZM274.71,335.23c-1.65-.24-3-1.1-4-2.55-.98-1.41-1.34-3-1.09-4.71.26-1.74,1.06-3.17,2.43-4.26,1.36-1.05,2.89-1.47,4.53-1.23h0c1.68.25,3.03,1.08,4.07,2.53.93,1.4,1.27,3,1.02,4.73-.25,1.7-1.03,3.11-2.35,4.21-1.12.9-2.36,1.35-3.7,1.35-.3,0-.6-.02-.91-.07ZM276.14,325.47c-.82-.12-1.54.08-2.23.61-.74.59-1.16,1.35-1.31,2.33-.14.94.05,1.78.59,2.56.52.75,1.14,1.16,1.95,1.27.85.13,1.57-.08,2.26-.64.71-.6,1.13-1.35,1.27-2.31.14-.99-.03-1.85-.52-2.58-.52-.73-1.17-1.13-2.02-1.25h0Z" fill="#9a2820"/>
      <rect x="337.3" y="374.86" width="2.01" height=".35" transform="translate(-81.79 655.43) rotate(-81.67)" fill="#9a2820"/>
    </g>
    <g>
      <path d="M246.51,344.82l-22.34-4.7.09-10.67,14.47,3.24c.31-11.14,1.53-21.65,3.66-31.51l10.46.42c-3.2,16.01-5.31,30.42-6.34,43.22Z" fill="#e74427"/>
      <path d="M222.64,341.34l.12-13.77,14.52,3.25c.39-10.52,1.61-20.59,3.63-29.95l.27-1.24,13.5.54-.35,1.73c-3.17,15.88-5.3,30.36-6.32,43.05l-.14,1.71-25.23-5.31ZM243.6,302.75c-1.94,9.38-3.07,19.46-3.36,29.99l-.05,1.83-14.44-3.24-.06,7.56,19.46,4.1c1.04-11.92,3.01-25.34,5.88-39.95l-7.43-.3Z" fill="#9a2820"/>
    </g>
    <path d="M194.18,213.79c11.18-10.73,45.58-15,70.4-8.48,0,0,35.6,7.68,46.22,13.33,13.23,7.04,23.12,14.14,23.12,14.14-24.73,55.93-59.79,58.27-89.33,27.64l-50.42-46.64Z" fill="#fac0a0"/>
    <g>
      <path d="M201.64,217.73l5.75-2.11c26.13,40.02,49.57,61.77,70.31,65.26,20.94,3.52,39.08-11.63,54.41-45.42,1.22,1.13,2.44,2.29,3.66,3.49-15.89,36.94-35.36,53.75-58.4,50.43-23.3-3.39-48.58-27.12-75.84-71.21l.12-.44Z" fill="#e74427"/>
      <path d="M277.15,290.88c-23.65-3.44-49.53-27.63-76.91-71.91l2.57-1.59c26.89,43.48,52.05,67.21,74.78,70.51,22.18,3.19,41.28-13.48,56.8-49.54l2.77,1.19c-14.79,34.38-33.01,51.75-54.21,51.75-1.91,0-3.84-.14-5.79-.42ZM277.45,282.38c-21.08-3.54-45.08-25.72-71.32-65.92l2.53-1.65c25.77,39.47,49.08,61.2,69.3,64.6,20.09,3.37,37.85-11.62,52.79-44.56l2.75,1.25c-14.1,31.09-30.9,46.8-49.98,46.8-1.99,0-4.01-.17-6.05-.51Z" fill="#9a2820"/>
    </g>
    <path d="M193.19,212.22c-10.91,3.65-18.98,7.81-24.2,12.47l-44.83,132.64,105.66,15.97c9.37-75.67,14.38-118.15,15.04-127.45-4.63,2.68-9.38,5.15-14.26,7.42-9.77,4.47-15.33,5.6-16.67,3.4-1.66-2.79-2.93-6.82-3.82-12.11-1.7-10.15-1.26-22.28,1.32-36.38-2.75-.44-8.83.91-18.24,4.04M189.91,232.9l-.59.22c.11-.29.2-.56.27-.82.11.19.21.39.32.61Z" fill="#4791cd"/>
    <path d="M208.82,369.81c4.12-46.63,12.82-89.58,25.88-127.65l-1.9-.65c-13.11,38.23-21.85,81.33-25.98,128.13l2,.18Z" fill="#7ab7dc"/>
    <path d="M174.06,365.87c11.44-47.91,27.33-95.3,47.23-140.86l-1.84-.81c-19.94,45.67-35.87,93.17-47.34,141.2l1.96.47Z" fill="#7ab7dc"/>
    <path d="M243.95,265.66l.31-1.98c-33.07-5.32-53.58-21.42-60.97-47.83l-1.91.54c7.61,27.23,28.66,43.81,62.56,49.27Z" fill="#7ab7dc"/>
    <path d="M240.2,289.2l.63-1.91c-9.39-3.09-17.73-5.79-25.09-8.16-26.04-8.39-41.76-13.46-57.38-21.55l-.92,1.79c15.77,8.17,31.55,13.25,57.69,21.68,7.36,2.37,15.7,5.06,25.08,8.15Z" fill="#7ab7dc"/>
    <path d="M237.8,310.58l.48-1.95c-30.23-7.46-60.43-16.36-89.75-26.44l-.65,1.9c29.38,10.1,59.63,19.01,89.92,26.49Z" fill="#7ab7dc"/>
    <path d="M234.6,332.85l.37-1.98c-28.4-5.31-60.13-13.35-94.31-23.91l-.59,1.92c34.25,10.57,66.06,18.64,94.54,23.96Z" fill="#7ab7dc"/>
    <path d="M231.84,358.39l.31-1.99c-30.73-4.81-64.29-12.25-99.76-22.12l-.54,1.94c35.54,9.89,69.18,17.35,99.99,22.16Z" fill="#7ab7dc"/>
    <path d="M145.91,360.79l.67-2.11c10.98-34.7,40.13-126.89,63.33-147.92l-1.35-1.49c-23.6,21.4-52.88,113.96-63.9,148.81l-.67,2.11,1.92.61Z" fill="#7ab7dc"/>
    <path d="M231.13,375.03l.19-1.54c9.33-75.34,14.39-118.25,15.04-127.53l-3.01-.21c-.64,9.17-5.63,51.5-14.84,125.83l-102.35-15.47,44.13-130.55c5.06-4.4,12.92-8.4,23.38-11.9,11.37-3.78,15.81-4.25,17.52-3.98l.47-2.98c-3.02-.48-9.22.86-18.95,4.1-11.06,3.7-19.38,8-24.73,12.78l-.3.27-45.54,134.73,108.98,16.47Z" fill="#1e4078"/>
    <polygon points="174.22 218.17 180.21 220.58 182.35 225.81 174.58 239.18 164.29 247 162.92 246.3 154.38 261.4 157.56 249.2 163.09 233.12 166.64 222.07 174.22 218.17" fill="#4791cd"/>
    <path d="M153.52,260.79c2.25-11.96,23.71-38,29.41-40.65l-.85-1.83c-6.29,2.93-28.18,29.58-30.54,42.11l1.98.37Z" fill="#7ab7dc"/>
    <path d="M233.63,229.09c2.16,3.06,5.9,8.65,11.22,16.75-4.63,2.68-9.38,5.15-14.26,7.42-9.77,4.47-15.33,5.6-16.67,3.4-1.66-2.79-2.93-6.82-3.82-12.11-1.7-10.15-1.26-22.28,1.32-36.38,4.2.72,8.22,3.16,12.05,7.31,1.66,1.84,5.05,6.37,10.16,13.6Z" fill="#4791cd"/>
    <path d="M210.64,246.06c9.12-6.49,18.67-10.51,28.39-11.95l-.29-1.99c-10.04,1.49-19.88,5.62-29.27,12.3l1.17,1.64Z" fill="#7ab7dc"/>
    <path d="M228.98,254.65l1.32-1.52c-9.61-8.4-16.39-17.32-20.14-26.52l-1.86.76c3.87,9.5,10.83,18.68,20.68,27.28Z" fill="#7ab7dc"/>
    <path d="M212.63,257.44c-1.75-2.94-3.1-7.19-4.01-12.63-1.72-10.28-1.27-22.69,1.32-36.9l.27-1.47,1.47.25c4.52.77,8.86,3.39,12.91,7.79,1.72,1.9,5.08,6.4,10.27,13.74h0c2.17,3.07,5.95,8.72,11.25,16.8l.88,1.34-1.38.8c-4.65,2.69-9.48,5.2-14.39,7.48-6.8,3.11-11.53,4.63-14.6,4.63-1.96,0-3.25-.62-3.99-1.83ZM232.4,229.97h0c-5.05-7.14-8.43-11.67-10.03-13.44-3.13-3.39-6.39-5.58-9.73-6.52-2.29,13.22-2.64,24.75-1.04,34.31.85,5.07,2.07,8.97,3.62,11.57.05.09,1.46,2.08,14.74-3.99,4.33-2.01,8.61-4.22,12.75-6.56-4.82-7.33-8.29-12.5-10.31-15.37Z" fill="#1e4078"/>
    <path d="M326.13,253c7.41-2.68,10.96-7.8,10.65-15.38,9.9,28.41,15.76,60.69,17.57,96.84,1.03,20.97.73,39.88-.9,56.74l-57.09-8.38c6.81-42.98,12.23-86.17,16.26-129.56.84.77,2.56,1.16,5.17,1.17,2.84.04,5.62-.43,8.34-1.42Z" fill="#4791cd"/>
    <path d="M311.15,384.91c7.17-42.35,11.42-86.37,12.63-130.85l-2.01-.05c-1.21,44.38-5.45,88.31-12.6,130.57l1.98.34Z" fill="#7ab7dc"/>
    <path d="M339.15,390.24c3.11-47.47.48-94.97-7.82-141.17l-1.98.36c8.27,46.04,10.89,93.38,7.79,140.68l2.01.13Z" fill="#7ab7dc"/>
    <path d="M338.09,278.99c4.41,0,7.99-.41,10.77-1.23l-.57-1.93c-6.88,2.03-19.73,1.33-38.18-2.09l-.37,1.98c11.78,2.18,21.17,3.27,28.35,3.27Z" fill="#7ab7dc"/>
    <path d="M351.99,305.47l.1-2.01c-13.41-.69-28.3-2.43-44.27-5.18l-.34,1.98c16.05,2.77,31.02,4.52,44.51,5.21Z" fill="#7ab7dc"/>
    <rect x="329.18" y="302.82" width="2.01" height="48.9" transform="translate(-39.59 609.05) rotate(-82.05)" fill="#7ab7dc"/>
    <rect x="327.73" y="322.72" width="2.01" height="53.14" transform="translate(-59.6 630.83) rotate(-82.68)" fill="#7ab7dc"/>
    <path d="M354.48,377.51l.12-2.01c-19.63-1.17-38.17-4.11-55.1-8.75l-.53,1.94c17.07,4.67,35.74,7.64,55.51,8.81Z" fill="#7ab7dc"/>
    <path d="M354.8,392.92l.15-1.58c1.62-16.85,1.93-36.01.9-56.96-1.81-36.12-7.76-68.84-17.66-97.26l-2.85.99c9.81,28.14,15.69,60.58,17.49,96.42.98,20.15.73,38.62-.75,54.94l-54.01-7.93c6.68-42.33,12.07-85.43,16.03-128.15l-3.01-.28c-4,43.16-9.47,86.72-16.25,129.47l-.24,1.51,60.17,8.83Z" fill="#1e4078"/>
    <path d="M324.04,225.68c1.36.4,5.45,2.51,12.24,6.32l.5,5.62c.37,9.28-.55,18.42-2.75,27.42-2.3,9.43-4.81,12.89-7.52,10.39-1.91-1.77-4.5-5.73-7.77-11.87-3.21-6.1-5.25-9.54-6.12-10.31l11.42-27.57Z" fill="#4791cd"/>
    <polygon points="336.4 231.4 329.09 239.6 344.22 273.2 345.29 275.37 345.29 253.27 336.4 231.4" fill="#4791cd"/>
    <path d="M336.31,251.8c11.81-7.56,22.36-12.19,38.33-19.2l1.94-.85-.81-1.84-1.94.85c-16.06,7.05-26.66,11.7-38.6,19.35l1.08,1.7Z" fill="#7ab7dc"/>
    <path d="M321.68,267.9c6.8-8.78,12.17-18.32,15.96-28.36l-1.88-.71c-3.72,9.85-8.99,19.22-15.67,27.84l1.59,1.23Z" fill="#7ab7dc"/>
    <path d="M334.2,261.25l1.64-1.17c-6.37-8.96-11.28-13.39-18.78-16.93l-.86,1.82c7.15,3.37,11.86,7.63,18,16.27Z" fill="#7ab7dc"/>
    <path d="M325.47,276.54c-2.05-1.91-4.69-5.92-8.08-12.28-4.23-8.04-5.45-9.59-5.78-9.88l-.8-.71,12.35-29.82,1.3.39c.95.28,3.28,1.26,12.55,6.46l.7.39.57,6.48c.37,9.38-.57,18.74-2.79,27.84-1.87,7.66-3.83,11.42-6.35,12.19-.28.08-.6.14-.96.14-.77,0-1.71-.28-2.7-1.19ZM324.86,227.64l-10.49,25.34c.9,1.19,2.49,3.78,5.7,9.88,3.17,5.96,5.68,9.83,7.46,11.47.18.17.52.44.74.37.33-.1,2.11-1.06,4.3-10.01,2.16-8.82,3.07-17.91,2.71-26.93l-.43-4.82c-5.53-3.09-8.45-4.6-9.99-5.3Z" fill="#1e4078"/>
    <path d="M183.71,250.23l1.15-1.65c-12.67-8.78-41.1-24.19-58.78-30.89l-.71,1.88c17.55,6.65,45.77,21.95,58.34,30.66Z" fill="#7ab7dc"/>
    <path d="M189.85,234.96l1.05-1.72c-3.99-2.44-7.65-4.71-11.09-6.85-15.58-9.69-26.84-16.7-45.39-24.06l-.74,1.87c18.38,7.29,29.57,14.26,45.07,23.89,3.45,2.14,7.11,4.42,11.1,6.86Z" fill="#7ab7dc"/>
    <path d="M120,249.88c9.17-18.09,19.19-34.14,29.78-47.71l-2.38-1.86c-10.71,13.73-20.83,29.95-30.09,48.2l2.69,1.37Z" fill="#1e4078"/>
  </g>
  <g>
    <g id="Layer_12" data-name="Layer_1">
      <g>
        <path d="M169.42,148.19c1.07,6.69,2.39,13.1,3.97,19.22.48,1.86,1,3.7,1.55,5.53,5.52,18.85,13.58,34.72,24.19,47.62,1.09,1.32,2.21,2.61,3.34,3.87,1.46,1.59,2.95,3.13,4.47,4.62,15.33,14.97,32.69,23.59,52.09,25.86.98.12,1.96.21,2.95.28,1.11.08,2.22.15,3.32.21,19.97.91,38.93-3.59,56.89-13.48,8.25-4.61,15.16-9.83,20.74-15.65,5.44-5.71,9.98-12.09,13.62-19.15.21-.41.42-.83.63-1.24l.02-.07c.14-.34.27-.67.41-1.01,2.63-6.19,4.68-11.98,6.15-17.36,6.62-23.95.39-40.91-18.67-50.88-7.3-14.23-15.53-28.85-24.69-43.86-3.02-4.97-6.15-9.96-9.38-14.97-.2-.24-.43-.43-.69-.57-1.09-.48-2.18-.94-3.28-1.37-29.28-11.86-55.28-12.11-78-.75-15.06,7.47-28.65,20.13-40.76,37.99-6.69,9.87-12.93,21.3-18.72,34.31-.15.23-.19.52-.13.87M230.88,77.53c22.59-11.25,48.59-10.62,78.01,1.9.06.05.14.08.23.11,3.16,4.94,6.15,9.71,8.99,14.31,10.63,17.09,19.08,31.77,25.35,44.04.14.27.35.49.62.66,10.37,5.59,16.37,13.75,18,24.48.86,5.61.52,11.98-1.02,19.11-1.36,6.34-3.65,13.26-6.89,20.77-.86,1.7-1.75,3.36-2.69,4.98-.51.87-1.05,1.74-1.61,2.6-2.72,4.29-5.86,8.3-9.44,12.03-5.35,5.59-12.01,10.62-19.98,15.09-15.83,8.74-32.49,13.15-49.96,13.23-1.11,0-2.25-.02-3.41-.05-.63-.03-1.25-.05-1.88-.08-22.32-1.01-41.1-8.93-56.35-23.75-1.26-1.27-2.51-2.57-3.75-3.89-13.1-14.35-22.61-33.44-28.53-57.29-1.39-5.68-2.6-11.63-3.62-17.85,6.63-14.81,13.84-27.52,21.64-38.15,10.93-14.85,23.02-25.61,36.27-32.27Z" fill="#e16134"/>
        <path d="M172.96,147.94c6.63-14.81,13.84-27.52,21.64-38.15,10.93-14.85,23.02-25.61,36.27-32.27,22.59-11.25,48.59-10.62,78.01,1.9.06.05.14.08.23.11,3.16,4.94,6.15,9.71,8.99,14.31,10.63,17.09,19.08,31.77,25.35,44.04.14.27.35.49.62.66,10.37,5.59,16.37,13.75,18,24.48.86,5.61.52,11.98-1.02,19.11-1.36,6.34-3.65,13.26-6.89,20.77-.86,1.7-1.75,3.36-2.69,4.98-.51.87-1.05,1.74-1.61,2.6-2.72,4.29-5.86,8.3-9.44,12.03-5.35,5.59-12.01,10.62-19.98,15.09-15.83,8.74-32.49,13.15-49.96,13.23-1.11,0-2.25-.02-3.41-.05-.63-.03-1.25-.05-1.88-.08-22.32-1.01-41.1-8.93-56.35-23.75-1.26-1.27-2.51-2.57-3.75-3.89-13.1-14.35-22.61-33.44-28.53-57.29-1.39-5.68-2.6-11.63-3.62-17.85Z" fill="url(#linear-gradient)"/>
        <g clip-path="url(#clippath)">
          <g id="Layer_2">
            <path d="M247.92,194.26c3.29,6.09,8.22,10.1,14.86,12.13,6.52,1.95,12.84,1.31,18.93-1.98,6.09-3.29,10.15-8.25,12.22-14.84,1.92-6.58,1.19-12.93-2.1-19.02-3.29-6.09-8.16-10.13-14.72-12.13-6.64-1.89-13.05-1.27-19.14,2.02-6.09,3.29-10.04,8.19-12.01,14.8s-1.34,12.93,1.95,19.02Z" fill="url(#radial-gradient)"/>
            <path d="M308.42,162.43c3.29,6.09,8.22,10.1,14.86,12.13,6.52,1.95,12.84,1.31,18.93-1.98,6.09-3.29,10.15-8.25,12.22-14.84,1.92-6.58,1.19-12.93-2.1-19.02-3.29-6.09-8.16-10.13-14.72-12.13-6.67-1.94-13.08-1.33-19.17,1.96-6.09,3.29-10.04,8.19-11.98,14.86-1.92,6.58-1.34,12.93,1.95,19.02Z" fill="url(#radial-gradient1)"/>
          </g>
        </g>
      </g>
    </g>
    <g>
      <g>
        <path d="M252.8,132.02c4.5-1.86,8.77-2.01,12.82-.44.83.35,1.66.75,2.5,1.17,3.29,1.7,6.4,4.19,9.35,7.47,2.32,2.52,4.04,4.48,5.17,5.89,1.68,2.17,2.98,4.19,3.89,6.05-.73,2.7-2.16,5.52-4.31,8.47-2.53,3.5-6.03,6.26-10.48,8.28-7.52,3.38-12.84,4.73-15.96,4.04-7.57-10.86-11.04-20.05-10.42-27.57.65-7.05,3.13-11.5,7.44-13.37Z" fill="#fff"/>
        <g>
          <path d="M278.99,141.9c2.95.82,5.21,2.55,6.77,5.2,1.68,2.68,2.19,5.46,1.51,8.34-.64,2.85-2.27,5.01-4.9,6.48-2.54,1.45-5.29,1.75-8.25.9-2.98-.77-5.28-2.5-6.91-5.18-1.6-2.63-2.07-5.43-1.39-8.4.68-2.88,2.31-5.05,4.88-6.52,2.55-1.42,5.32-1.69,8.29-.82Z"/>
          <path d="M275.52,150.2c-.26,1.1-.08,2.13.54,3.09.51.96,1.27,1.65,2.28,2.07,1,.4,1.94.35,2.83-.16.76-.44,1.23-1.15,1.39-2.13.23-1.15.08-2.23-.46-3.24-.59-.91-1.36-1.58-2.32-2-1.08-.35-2.01-.33-2.79.09-.89.5-1.38,1.26-1.47,2.27M271.43,151.08c.15.38.45.65.9.81.44.13.9.07,1.39-.19.5-.23.87-.59,1.08-1.07.14-.44.13-.85-.02-1.23-.18-.34-.47-.59-.88-.77-.45-.06-.93.03-1.43.26-.49.26-.84.59-1.04,1-.18.46-.18.86,0,1.19Z" fill="#fff"/>
        </g>
        <path d="M254.78,175.26l.43.17c3.8,1.32,9.76.18,17.88-3.41,4.7-2.12,8.59-5.31,11.66-9.59,1.79-2.54,3.14-5.77,4.05-9.7l.15-.47-.19-.47c-2.5-5.3-5.5-9.84-8.98-13.63l-.04.02c-3.82-4.14-7.33-7.05-10.53-8.72-.58-.3-1.48-.73-2.72-1.28-5.28-2.12-10.41-2.14-15.37-.08l-.04.02c-5.25,2.03-8.26,7.51-9.05,16.44-.7,7.45,3.43,17.54,12.41,30.26l.35.44M268.11,132.75c3.29,1.7,6.4,4.19,9.35,7.47,2.32,2.52,4.04,4.48,5.17,5.89,1.68,2.17,2.98,4.19,3.89,6.05-.73,2.7-2.16,5.52-4.31,8.47-2.53,3.5-6.03,6.26-10.48,8.28-7.52,3.38-12.84,4.73-15.96,4.04-7.57-10.86-11.04-20.05-10.42-27.57.65-7.05,3.13-11.5,7.44-13.37,4.5-1.86,8.77-2.01,12.82-.44.83.35,1.66.75,2.5,1.17Z" fill="#e26236"/>
      </g>
      <path d="M298.07,110.78c.64-1.36,1.73-2.34,3.27-2.93,1.97-.63,3.6-.96,4.87-.99,1.73-.09,3.45.33,5.14,1.25,4.39,2.21,8.1,5.22,11.14,9.02,2.45,3.05,3.95,4.96,4.51,5.73,1.56,2.01,2.73,3.83,3.52,5.46-.61,2.14-1.87,4.17-3.8,6.1-1.81,1.79-4.04,3.37-6.68,4.74-5.33,2.72-9.67,3.77-13.02,3.16-5.62-9.1-8.82-17.43-9.62-24.99-.26-2.85-.04-5.03.67-6.55Z" fill="#fff"/>
      <g>
        <g>
          <path d="M307.36,108.87c2.71.83,4.83,2.48,6.34,4.94,1.53,2.49,2,5.08,1.42,7.76-.56,2.63-2,4.6-4.32,5.9-2.36,1.32-4.9,1.57-7.61.74-2.71-.73-4.83-2.34-6.36-4.83s-1.98-5.09-1.36-7.79c.59-2.68,2.02-4.66,4.3-5.94,2.32-1.3,4.85-1.56,7.59-.78Z"/>
          <path d="M304.32,116.57c-.25,1.03-.09,1.97.48,2.84.54.92,1.25,1.57,2.15,1.96.95.39,1.81.37,2.57-.08.7-.37,1.13-1.05,1.3-2.03.19-1.03.02-2.01-.52-2.92-.57-.87-1.25-1.52-2.06-1.95-1.02-.32-1.89-.28-2.64.11-.73.42-1.15,1.11-1.28,2.07M300.57,116.24c-.2.42-.22.79-.05,1.11.14.37.44.63.88.77.46.07.91-.02,1.37-.26.43-.19.72-.49.88-.88.11-.4.09-.78-.06-1.16-.17-.32-.43-.56-.78-.72-.4-.06-.82,0-1.24.2-.45.24-.79.56-1,.95Z" fill="#fff"/>
        </g>
        <path d="M299.93,103.9c-4.46,1.23-6.3,5.82-5.52,13.77.66,7.1,4.22,15.78,10.67,26.02l.33.51.54.17c4.52,1.39,9.7.59,15.53-2.39,6.13-3.14,9.86-7.56,11.19-13.26l.17-.43-.12-.22c-1.91-4.1-4.58-8.32-8.02-12.67-3.56-4.43-7.54-7.76-11.92-9.97-4.57-2.34-8.85-2.85-12.84-1.53M306.26,106.95c1.73-.09,3.45.33,5.14,1.25,4.39,2.21,8.1,5.22,11.14,9.02,2.45,3.05,3.95,4.96,4.51,5.73,1.53,2.03,2.69,3.85,3.47,5.48-.58,2.12-1.84,4.14-3.78,6.04-1.8,1.82-4.02,3.42-6.66,4.78-5.35,2.69-9.69,3.74-13.02,3.16-5.65-9.08-8.85-17.41-9.62-24.99-.26-2.85-.04-5.03.67-6.55.64-1.36,1.72-2.35,3.25-2.97,1.99-.6,3.62-.92,4.89-.95Z" fill="#e26236"/>
      </g>
    </g>
    <g id="Layer_13" data-name="Layer_1">
      <g>
        <path d="M312.83,147.41l-.02-.04c2.3.41,3.81,1.84,4.54,4.29.84,2.73.24,5.45-1.8,8.17-1.59,2.13-3.18,3.75-4.75,4.85-2.09,1.41-4.56,2.32-7.4,2.74l1.83-18.17c2.88-1.49,5.42-2.1,7.61-1.82Z" fill="#fac0a0"/>
        <path d="M305.23,149.23c-.65.34-1.34.73-2.06,1.15l-.14-.15c3.16-4.59,6.59-6.56,10.27-5.9,4.12.42,6.55,2.51,7.28,6.24l.07.02c.96,3.81.1,7.5-2.58,11.08-1.69,2.37-3.62,4.06-5.78,5.05-2.57,1.29-5.58,1.67-9.03,1.16-.21-.04-.42-.08-.63-.12l.13-.29c.18-.02.4-.04.65-.06,2.85-.41,5.31-1.32,7.4-2.74,1.57-1.1,3.16-2.72,4.75-4.85,2.04-2.71,2.64-5.43,1.8-8.17-.73-2.45-2.25-3.88-4.54-4.29l.02.04c-2.19-.28-4.72.33-7.61,1.82Z" fill="#e26236"/>
      </g>
    </g>
    <g mask="url(#mask)">
      <g id="Layer_21" data-name="Layer_2">
        <g mask="url(#mask-1)">
          <path d="M304.79,138.35c4.33-2.3,8.7-2.99,13.1-2.09,4.39,1.01,7.54,3.34,9.47,6.98,1.95,3.67,2.09,7.58.45,11.74-1.68,4.23-4.68,7.49-9.01,9.79-4.28,2.27-8.63,2.91-13.02,1.9-4.41-.94-7.58-3.25-9.53-6.92-1.93-3.64-2.06-7.57-.39-11.79,1.67-4.13,4.65-7.33,8.94-9.6Z" fill="url(#radial-gradient3)"/>
        </g>
      </g>
    </g>
    <g id="Layer_4">
      <path d="M305.23,149.23c-.65.34-1.34.73-2.06,1.15l-.14-.15c3.16-4.59,6.59-6.56,10.27-5.9,4.12.42,6.55,2.51,7.28,6.24l.07.02c.96,3.81.1,7.5-2.58,11.08-1.69,2.37-3.62,4.06-5.78,5.05-2.57,1.29-5.58,1.67-9.03,1.16-.21-.04-.42-.08-.63-.12l.13-.29c.18-.02.4-.04.65-.06,2.85-.41,5.31-1.32,7.4-2.74,1.57-1.1,3.16-2.72,4.75-4.85,2.04-2.71,2.64-5.43,1.8-8.17-.73-2.45-2.25-3.88-4.54-4.29l.02.04c-2.19-.28-4.72.33-7.61,1.82Z" fill="#e26236"/>
    </g>
    <g>
      <path d="M158.73,208.39l53.45.56-12.86-15.23s6.63-3.15,6.36-16.26c-.27-13.11-16.61-20.65-16.61-20.65,0,0,10.93-3.89,11.3-9.75.38-5.86-6.16-10.54-6.16-10.54,0,0,20.14.67,25.1-9.32,4.96-9.99-2.09-28.32-2.09-28.32,0,0,8.2,8.1,16.07,3.25,4.64-2.86,3.46-14.73,3.46-14.73,0,0,7.02,17.08,26.36,12.62,19.34-4.46,16.32-15.81,16.32-15.81,0,0,8.34,9.6,19.41,5.84,11.06-3.76,7.75-14.71,7.75-14.71l13.49,20.81,41.24-4.12-32.82-8.47,17.69-17.75-23.24,7.3,2.05-56.5-56.72,33.66-1.26-28.36-29.13,27.35-50.31-26.51-2.17,56.76-49.03-9.01,29.14,42.14-54.11-9.67,35.74,44.88-30.61,43.92,49.92-8.97-8.55,25.78" fill="#701612"/>
      <g clip-path="url(#clippath-1)">
        <path d="M117.74,166.27c11.2,8.96,20.76,12.42,28.67,10.4,4.31-1.01,9.03-4.4,14.13-10.17,11.57-18.77,26.19-25.24,43.86-19.41l5.96-8.67c-13.3-8.4-26.09-8.15-38.36.76-6.26,6.16-12.35,13.59-18.26,22.29-2.25,2.53-4.37,4.39-6.35,5.58-4.45,2.4-9.64,2.69-15.55.87-3.8-.8-9.25-3.63-16.35-8.47l2.25,6.81M141.32,150.58c-3.85,4.65-6.81,7.81-8.88,9.48-3.14,1.48-9.32-2.3-18.55-11.34l.27,5.65,3.6,2.29c10.53,9.24,20.13,9.47,28.79.68,15.37-31.78,54.74-28.22,71.31-24.58l5.96-8.67c-11.66-4.7-44.06-6.46-56.89-.15-8.74,6.03-17.28,14.91-25.61,26.64Z" fill="#7a221a"/>
      </g>
      <path d="M212.16,210.46l-53.45-.56s-.05,0-.07,0c-.35.2-.79.25-1.21.11-.79-.26-1.22-1.11-.95-1.9l7.75-23.38-47.43,8.52c-.59.1-1.2-.16-1.53-.67-.33-.51-.32-1.17.03-1.67l29.97-43-35.04-44c-.39-.49-.44-1.17-.12-1.71.32-.54.94-.82,1.56-.71l50.55,9.04-27.09-39.16c-.35-.5-.36-1.16-.03-1.67.33-.51.94-.77,1.54-.66l47.32,8.7,2.11-55.02c.02-.52.3-.99.75-1.25.45-.26,1-.27,1.45-.03l49.36,26.01,28.35-26.61c.43-.4,1.05-.52,1.6-.3.54.22.91.74.94,1.33l1.14,25.85,54.56-32.38c.47-.28,1.06-.28,1.54,0,.47.28.76.8.74,1.35l-1.97,54.37,21.21-6.66c.66-.21,1.38.06,1.74.65.36.59.27,1.35-.22,1.84l-15.84,15.89,30.27,7.81c.71.18,1.18.85,1.12,1.57-.06.73-.63,1.31-1.35,1.38l-40.26,3.89c-.55.05-1.06-.19-1.37-.63l-11.33-16.12c-.48,4.09-2.78,8.63-9.18,10.8-8.15,2.77-14.84-1.01-18.36-3.8-.2,1.3-.67,2.83-1.62,4.41-2.66,4.42-8.01,7.58-15.89,9.4-13.34,3.08-21.23-3.61-25.1-8.64-.22,3.88-1.17,8.64-4.26,10.55-4.9,3.02-10.16,1.65-13.96-.51,1.82,6.27,4.21,17.57.53,24.96-3.98,8.01-16.31,9.74-22.66,10.09,1.95,2.14,4.11,5.41,3.87,9.2-.3,4.72-5.76,8.1-9.33,9.82,4.91,2.92,14.43,9.93,14.65,20.46.2,10.03-3.48,14.7-5.66,16.57l11.8,13.98c.38.45.46,1.08.21,1.61-.25.53-.78.86-1.36.86h-.02ZM194.26,135.01c.19,0,19.23.51,23.7-8.49,4.61-9.27-2.08-26.93-2.15-27.11-.25-.66-.01-1.41.58-1.8.59-.39,1.38-.31,1.88.19.07.07,7.44,7.23,14.23,3.04,2.79-1.72,3.17-9.07,2.75-13.3-.07-.74.41-1.42,1.13-1.61.72-.18,1.47.19,1.76.88.27.65,6.8,15.84,24.63,11.73,6.91-1.59,11.73-4.34,13.94-7.95,1.94-3.15,1.28-5.9,1.26-6-.18-.68.13-1.39.75-1.72.62-.33,1.38-.19,1.84.34.08.09,7.79,8.8,17.79,5.4,9.52-3.24,6.91-12.46,6.79-12.85-.21-.71.12-1.47.78-1.79.66-.32,1.47-.12,1.89.49l13.96,19.86,30.89-2.99-24.55-6.33c-.52-.13-.93-.54-1.07-1.06-.14-.52,0-1.08.38-1.46l13.38-13.42-17.41,5.47c-.47.15-.97.06-1.36-.24-.39-.3-.61-.76-.59-1.25l1.95-53.75-54.35,32.26c-.46.27-1.02.28-1.48.03-.47-.25-.76-.73-.79-1.26l-1.11-25.09-26.74,25.11c-.47.44-1.16.53-1.73.23l-48.2-25.39-2.08,54.37c-.02.44-.22.84-.56,1.12-.34.27-.78.38-1.21.31l-45.45-8.36,27.07,39.14c.35.5.36,1.16.03,1.67-.33.51-.93.77-1.53.67l-50.18-8.97,33.26,41.76c.42.52.44,1.25.06,1.8l-28.53,40.93,46.34-8.32c.52-.09,1.05.09,1.4.5.35.4.46.96.29,1.46l-7.83,23.63,48.85.51-10.74-12.72c-.3-.35-.41-.82-.32-1.28.09-.45.39-.84.8-1.05.24-.12,5.76-3.05,5.52-14.88-.24-12-15.58-19.25-15.74-19.32-.55-.26-.9-.82-.87-1.43.03-.61.42-1.14,1-1.35,2.78-.99,10.05-4.45,10.31-8.43.32-4.94-5.47-9.18-5.53-9.22-.54-.39-.76-1.08-.55-1.71.21-.61.78-1.02,1.42-1.02.02,0,.03,0,.05,0Z" fill="#3f130e"/>
    </g>
    <g>
      <g id="Layer_14" data-name="Layer_1">
        <g>
          <path d="M189.51,195.7c3.64-1.43,7.41-1.79,11.31-1.1,5.19.96,10.72,4.32,16.6,10.1-.03.02-.05.05-.07.09-.6.92-.38,2.79.68,5.62,1.04,2.88,1.77,5.03,2.19,6.46l-2.9,7.04.16-.14c-1.73,1.95-3.59,3.59-5.59,4.91-3.25,2.03-7.04,3.04-11.37,3.03-4.16-.14-8.16-1.19-11.98-3.15-3.79-1.97-6.62-4.48-8.47-7.52-2.22-3.69-3.02-7.76-2.41-12.2.94-6.06,4.89-10.44,11.85-13.14Z" fill="#fac0a0"/>
          <path d="M200.82,194.59c-3.91-.69-7.68-.32-11.31,1.1-6.97,2.7-10.92,7.08-11.85,13.14-.61,4.44.19,8.51,2.41,12.2,1.85,3.04,4.67,5.54,8.47,7.52,3.82,1.96,7.82,3.01,11.98,3.15,4.33.02,8.12-.99,11.37-3.03,2-1.32,3.87-2.96,5.59-4.91l1.07,2.1c-1.25,2.13-2.94,3.89-5.07,5.27-3.74,2.36-8.08,3.52-13.04,3.47l-.05.02c-6.12-.22-10.9-1.2-14.34-2.93-4.27-2.23-7.46-5.08-9.57-8.56l-.02-.05c-2.54-4.25-3.46-8.95-2.74-14.1.48-3.57,2.04-6.76,4.67-9.55,2.54-2.75,5.9-4.91,10.07-6.49,4.12-1.6,8.43-2.01,12.92-1.23,5.89.98,11.27,5.21,16.14,12.69l.12.34c-.11.02-.2.02-.27.02.01-.05.04-.08.07-.09-5.88-5.77-11.41-9.14-16.6-10.1Z" fill="#e16134"/>
        </g>
      </g>
      <g mask="url(#mask-3)">
        <g id="Layer_22" data-name="Layer_2">
          <g mask="url(#mask-4)">
            <path d="M203.7,191.97c9.31.07,17.24,2.14,23.78,6.19,6.42,4.17,9.61,9.13,9.57,14.89-.05,5.8-3.32,10.7-9.8,14.69-6.61,4.07-14.57,6.06-23.88,5.99-9.21-.07-17.04-2.2-23.49-6.37-6.52-4.1-9.76-9.05-9.71-14.85.05-5.75,3.36-10.66,9.95-14.73,6.51-3.95,14.38-5.88,23.59-5.81Z" fill="url(#radial-gradient5)"/>
          </g>
        </g>
      </g>
      <g id="Layer_3">
        <path d="M200.09,208.97c-1.85-.09-3.35.27-4.5,1.08-1.25.79-1.54,1.74-.9,2.87.8,1.5,2.28,2.57,4.44,3.2,2.23.78,5.26.37,9.07-1.23,1.08,2.05,1.66,3.71,1.72,4.98.15,1.34-.39,2.47-1.6,3.4-1.18.91-2.61,1.48-4.29,1.72-1.75.32-3.51.25-5.26-.19l-.02.07c3.39,1.34,6.47,1.44,9.22.31,2.25-.91,3.6-2.1,4.05-3.55.64-1.82-.1-4.31-2.24-7.47,2.54-2.9,2.27-5.67-.83-8.3-2.78-2.38-7.41-4.12-13.89-5.22,5.63,2.27,9.69,4.43,12.19,6.49.78.64,1.3,1.35,1.55,2.14.34,1.05.14,1.94-.6,2.66-1.3-.98-2.57-1.7-3.79-2.15-1.19-.47-2.63-.73-4.31-.8M206.96,213.45c-2.4,1.45-4.83,1.67-7.29.67-2.46-.93-3.17-1.91-2.12-2.94.59-.57,1.83-.64,3.73-.23,2.02.43,3.91,1.26,5.69,2.5Z" fill="#e26236"/>
      </g>
    </g>
    <path d="M229.25,100.9c.72-1.23,1.41-1.53,2.08-.9,4.19,8.07,4.24,14.46.13,19.15-4.15,4.69-10.84,6.3-20.06,4.84-1.68-.14-2.08-.58-1.2-1.3,8.35-5.8,14.7-13.07,19.05-21.79Z"/>
    <path d="M277.91,72.04c8.09,3.55,16.68,4.89,25.78,4.02,1,0,.97.54-.08,1.62-5.54,6.36-11.09,9.11-16.65,8.26-5.53-.86-9.18-5.29-10.96-13.29.11-.85.75-1.05,1.92-.61Z"/>
    <g>
      <path d="M276.23,236.91c-11.97-2.49-35.23-21.96-26.08-41.2,8.43-17.73,24.71,6.32,34.62,8.94,9.9,2.62,35.94-10.22,34.51,9.36-1.56,21.24-31.41,26.65-43.04,22.89Z" fill="#2b1010"/>
      <g>
        <path d="M254.82,214.4c20.72,8.25,27.41,14.61,53,12.36.97-.09.65,3.87-.26,5.62-15.27,5.99-31.19,5.26-31.19,5.26,0,0-15.19-7.19-24.36-18.29.22-1.72,1.65-5.41,2.81-4.95Z" fill="#fff"/>
        <path d="M253.53,214.66c1.88-2.03,20.28,7.95,33.4,11.42,8.7,2.3,21.06-1.22,21.88,1.51.28.93.15,2.79-.63,4.55-.41.16-.82.32-1.24.46,1.08-1.78,1.27-3.91,1.01-4.75-.41-1.37-7.55,2.72-21.26-.91-16.7-4.42-31.38-12.9-32.51-11.68-.82.89-1.64,2.76-1.78,4.49-.27-.28-.53-.56-.79-.84.3-1.72,1.11-3.39,1.92-4.26Z" fill="#a4a3a3"/>
      </g>
      <g>
        <path d="M311.88,210.98c-2.47,2.66-51.06-7.88-52.63-13.1-.27-.9,1.48-5.66,2.36-7.36,12.86,4.75,15.48,12.72,21.84,13.98,13.98,2.76,15.78-4.37,30.83-.05-.21,1.66-1.57,5.65-2.4,6.54Z" fill="#fff"/>
        <path d="M312.2,211.27c-1.83,1.97-21.21-1.81-33.91-5.17-8.43-2.23-18.65-5.45-19.44-8.1-.27-.9,1.42-5.55,2.18-7.25.39-.16.79-.31,1.2-.45-1.05,1.72-2.79,6.63-2.55,7.44.4,1.33,5.56,4,18.84,7.51,16.18,4.28,31.96,6.6,33.06,5.42.8-.86,2.19-4.95,2.33-6.64.26.27.52.54.77.81-.29,1.67-1.68,5.57-2.46,6.41Z" fill="#a4a3a3"/>
      </g>
      <path d="M244.06,194.86c2.05-3.48,2.2-3.91,3.61-5.52,2.9-3.09,4.43-3.41,5.19-3.88-.32.07-2.92-.96-6.5,2.73-2.14,2.6-2.2,3.92-2.3,6.67Z" fill="#e16134"/>
      <path d="M326.03,216.87c.02-.08,1.23-2.27.83-5.51-.68-4.62-3.14-4.34-3.3-4.46.26.55.95.27,1.58,4.69.7,5.45.78,4.66.9,5.29Z" fill="#e16134"/>
      <path d="M320.14,214.09c-.51,6.92-3.87,12.64-9.98,17-10.96,7.82-26.86,8.6-34.15,6.67-7.29-1.93-20.72-10.48-26.38-22.7-3.16-6.82-3.25-13.45-.27-19.72,2.71-5.7,6.62-7.91,11.62-6.59,8.26,2.19,17.67,13.38,24,15.06,6.34,1.68,20.03-3.4,28.31-1.21,5,1.32,7.31,5.19,6.84,11.48ZM260.54,190.44c-4.19-1.11-7.24.69-9.6,5.65-2.75,5.78-2.66,11.91.27,18.23,5.19,11.2,17.99,19.82,25.24,21.74,7.25,1.92,22.64.76,32.69-6.4,5.67-4.05,8.79-9.33,9.26-15.71.4-5.48-1.36-8.55-5.55-9.66-7.8-2.07-21.5,3.01-28.31,1.21-6.82-1.81-16.2-12.99-24-15.06Z" fill="#e16134"/>
      <g>
        <path d="M257.83,206.91c4.85.23,7.51,1.44,11.94,3.31,5.53,2.34,13.19,10.12,18.56,15.66-7.69.57-20.08-6.75-23.97,3.29-2.83,7.33-8.8,8.47-12.6,8.51-3.68.04-9.51-.96-12.47-7.84-6.25-14.54,12.02-23.23,18.54-22.92Z" fill="#ee4237"/>
        <path d="M251.25,217.61c1.98-1.28,4.05-2.19,6.22-2.38,2.15-.2,4.32.16,6.44.81,2.14.63,4.23,1.54,6.4,2.36,1.08.42,2.19.82,3.35,1.13,1.14.26,2.43.53,3.56.08-1.18,0-2.2-.5-3.22-1-1.02-.51-2.01-1.09-3.04-1.63-2.03-1.11-4.17-2.15-6.48-2.86-2.3-.67-4.84-1.01-7.28-.43-1.21.28-2.37.77-3.38,1.45-1,.69-1.87,1.52-2.58,2.47Z" fill="#d72f27"/>
        <path d="M237.92,229.94c-2.17-5.06-1.73-10.04,1.29-14.4,4.48-6.46,13.62-10.13,18.22-9.92h0c4.82.22,7.57,1.39,11.72,3.15l.56.24c5.47,2.31,12.62,9.41,18.89,15.88.27.28.36.69.22,1.06-.14.36-.47.62-.86.64-2.5.18-5.32-.39-8.31-.99-6.39-1.3-12.41-2.52-14.8,3.65-2.29,5.92-6.97,9.08-13.53,9.15-.07,0-.13,0-.2,0-6.26,0-10.83-2.92-13.2-8.45ZM280.04,223.62c1.91.39,3.74.76,5.42.91-4.62-4.73-11.63-11.61-16.53-13.69l-.56-.24c-4.1-1.74-6.57-2.79-11.03-2.99h0c-4.03-.18-12.45,3.25-16.48,9.06-2.64,3.82-3.01,8.01-1.1,12.47,2.09,4.86,5.97,7.26,11.54,7.23,5.75-.06,9.68-2.7,11.68-7.86,1.81-4.68,5.25-5.98,9.15-5.98,2.55,0,5.3.56,7.91,1.09ZM257.37,206.62h0,0Z" fill="#d72f27"/>
      </g>
    </g>
  </g>
</svg>