<?xml version="1.0" encoding="UTF-8"?>
<svg id="Layer_1" data-name="Layer 1" xmlns="http://www.w3.org/2000/svg" xmlns:xlink="http://www.w3.org/1999/xlink" viewBox="0 0 500 500">
  <defs>
    <linearGradient id="linear-gradient" x1="-3676.04301" y1="406.12827" x2="-3705.9653" y2="119.45875" gradientTransform="translate(-3452.33513 100) rotate(-180) scale(1 -1)" gradientUnits="userSpaceOnUse">
      <stop offset=".07451" stop-color="#e94c32"/>
      <stop offset=".3647" stop-color="#e67639"/>
    </linearGradient>
    <filter id="luminosity-noclip" x="133.57523" y="289.5501" width="134.53152" height="68.41709" color-interpolation-filters="sRGB" filterUnits="userSpaceOnUse">
      <feFlood flood-color="#fff" result="bg"/>
      <feBlend in="SourceGraphic" in2="bg"/>
    </filter>
    <filter id="luminosity-noclip-2" x="133.57523" y="-4592" width="134.53152" height="32766" color-interpolation-filters="sRGB" filterUnits="userSpaceOnUse">
      <feFlood flood-color="#fff" result="bg"/>
      <feBlend in="SourceGraphic" in2="bg"/>
    </filter>
    <mask id="mask-1" x="133.57523" y="-4592" width="134.53152" height="32766" maskUnits="userSpaceOnUse"/>
    <radialGradient id="radial-gradient" cx="-11129.49934" cy="28968.79924" fx="-11129.49934" fy="28968.79924" r="391.26143" gradientTransform="translate(-4721.235 -5351.10239) rotate(-175.66091) scale(.37008 -.18256) skewX(-6.46289)" gradientUnits="userSpaceOnUse">
      <stop offset=".07451" stop-color="#fff"/>
      <stop offset=".3647" stop-color="#000"/>
    </radialGradient>
    <mask id="mask" x="133.57523" y="289.5501" width="134.53152" height="68.41709" maskUnits="userSpaceOnUse">
      <g style="filter: url(#luminosity-noclip);">
        <g style="mask: url(#mask-1);">
          <path d="M133.77719,313.63403c1.33362-8.96471,9.10345-15.7696,23.11854-20.14242,13.99339-4.22598,30.19363-5.11879,48.70436-2.36302,18.65777,2.77747,34.21181,8.24778,46.34681,16.51385,11.96626,8.39097,17.29318,16.99538,15.95956,25.96009-1.35557,9.1118-8.95665,15.79155-22.8247,20.18633-14.18408,4.49797-30.53137,5.36882-49.18914,2.59111-18.51073-2.75576-33.74922-8.32925-45.86203-16.74193-12.135-8.26607-17.60897-16.89244-16.2534-26.004Z" style="fill: url(#radial-gradient); mix-blend-mode: multiply;"/>
        </g>
      </g>
    </mask>
    <radialGradient id="radial-gradient-2" cx="-11129.49934" cy="28968.79924" fx="-11129.49934" fy="28968.79924" r="391.26143" gradientTransform="translate(-4721.235 -5351.10239) rotate(-175.66091) scale(.37008 -.18256) skewX(-6.46289)" gradientUnits="userSpaceOnUse">
      <stop offset=".07451" stop-color="#e94c32"/>
      <stop offset=".3647" stop-color="#e67639"/>
    </radialGradient>
    <filter id="luminosity-noclip-3" x="243.22759" y="286.21711" width="134.1923" height="69.17763" color-interpolation-filters="sRGB" filterUnits="userSpaceOnUse">
      <feFlood flood-color="#fff" result="bg"/>
      <feBlend in="SourceGraphic" in2="bg"/>
    </filter>
    <filter id="luminosity-noclip-4" x="243.22759" y="-4592" width="134.1923" height="32766" color-interpolation-filters="sRGB" filterUnits="userSpaceOnUse">
      <feFlood flood-color="#fff" result="bg"/>
      <feBlend in="SourceGraphic" in2="bg"/>
    </filter>
    <mask id="mask-3" x="243.22759" y="-4592" width="134.1923" height="32766" maskUnits="userSpaceOnUse"/>
    <radialGradient id="radial-gradient-3" cx="-16708.60642" cy="32442.05115" fx="-16708.60642" fy="32442.05115" r="391.23554" gradientTransform="translate(-4800.18434 -5192.74984) rotate(175.03352) scale(.36914 -.18305) skewX(7.41037)" xlink:href="#radial-gradient"/>
    <mask id="mask-2" x="243.22759" y="286.21711" width="134.1923" height="69.17763" maskUnits="userSpaceOnUse">
      <g style="filter: url(#luminosity-noclip-3);">
        <g style="mask: url(#mask-3);">
          <path d="M315.83099,353.3705c-18.44635,3.15777-34.66245,2.61745-48.79434-1.59608-14.25334-4.04205-21.9978-10.55494-23.55089-19.63479-1.52821-8.93373,3.7319-17.82355,15.6845-26.35137,11.97747-8.38145,27.09112-14.28499,45.53747-17.44276,18.59291-3.1829,34.93019-2.81382,49.18353,1.22798,13.98583,4.23842,21.73005,10.75131,23.25827,19.68504,1.55309,9.08009-3.58583,17.79842-15.39163,26.30112-12.07379,8.69955-27.33399,14.62797-45.9269,17.81087Z" style="fill: url(#radial-gradient-3); mix-blend-mode: multiply;"/>
        </g>
      </g>
    </mask>
    <radialGradient id="radial-gradient-4" cx="-16708.60642" cy="32442.05115" fx="-16708.60642" fy="32442.05115" r="391.23554" gradientTransform="translate(-4800.18434 -5192.74984) rotate(175.03352) scale(.36914 -.18305) skewX(7.41037)" xlink:href="#radial-gradient-2"/>
    <clipPath id="clippath">
      <path d="M390.33917,271.89727c-5.34692-7.57768-11.43661-10.84644-18.41758-9.9551-7.27798,1.04015-15.44699,5.64618-24.21026,13.66954l-1.33679,1.18871-.59426.44567-2.37633,1.9315s-.29701.14856-.74277.44567c-3.71312,12.62963-6.53521,26.15061-8.46602,40.86005h1.93106v2.22886s5.34692,0,5.34692,0v10.40053c4.60439,3.26876,10.69409,4.60603,18.26907,4.16036h0c18.26907-1.78294,30.00294-8.76639,35.20136-21.09866,4.60439-13.66929,2.97059-28.52754-4.60439-44.27713Z" style="fill: none;"/>
    </clipPath>
    <filter id="luminosity-noclip-5" x="308.05409" y="269.07418" width="109.91145" height="74.58785" color-interpolation-filters="sRGB" filterUnits="userSpaceOnUse">
      <feFlood flood-color="#fff" result="bg"/>
      <feBlend in="SourceGraphic" in2="bg"/>
    </filter>
    <filter id="luminosity-noclip-6" x="308.05409" y="-4592" width="109.91145" height="32766" color-interpolation-filters="sRGB" filterUnits="userSpaceOnUse">
      <feFlood flood-color="#fff" result="bg"/>
      <feBlend in="SourceGraphic" in2="bg"/>
    </filter>
    <mask id="mask-5" x="308.05409" y="-4592" width="109.91145" height="32766" maskUnits="userSpaceOnUse"/>
    <radialGradient id="radial-gradient-5" cx="-13464.92821" cy="21098.73684" fx="-13464.92821" fy="21098.73684" r="317.07788" gradientTransform="translate(-4658.89231 -5027.83944) rotate(-180) scale(.3732 -.25297)" xlink:href="#radial-gradient"/>
    <mask id="mask-4" x="308.05409" y="269.07418" width="109.91145" height="74.58785" maskUnits="userSpaceOnUse">
      <g style="filter: url(#luminosity-noclip-5);">
        <g style="mask: url(#mask-5);">
          <path d="M363.00982,269.07418c-15.29848,0-28.36889,3.56588-39.06322,10.69789-10.54534,7.42912-15.8925,16.19527-15.8925,26.44748,0,10.40077,5.34716,19.16692,15.8925,26.29892,10.84284,7.42912,23.76474,11.14356,39.06322,11.14356,15.14998,0,28.07213-3.71444,38.76597-11.14356,10.84284-7.28056,16.18976-16.04671,16.18976-26.29892,0-10.25221-5.34692-19.16716-16.18976-26.44748-10.69384-7.13201-23.61599-10.69789-38.76597-10.69789Z" style="fill: url(#radial-gradient-5); mix-blend-mode: multiply;"/>
        </g>
      </g>
    </mask>
    <radialGradient id="radial-gradient-6" cx="-13464.92821" cy="21098.73684" fx="-13464.92821" fy="21098.73684" r="317.07788" gradientTransform="translate(-4658.89231 -5027.83944) rotate(-180) scale(.3732 -.25297)" gradientUnits="userSpaceOnUse">
      <stop offset=".07451" stop-color="#e94c32"/>
      <stop offset=".3647" stop-color="#e67639"/>
    </radialGradient>
    <clipPath id="clippath-1">
      <path d="M250.94492,313.27325l-.89128-.29712h.74277c6.53521,1.04015,16.04101,1.33727,28.66615.89135,3.71312-.14856,5.79268.1488,6.23795,1.04015.14851,1.18871-1.18829,3.12021-4.01013,5.9433-4.15888,4.0118-9.06028,6.68609-14.70446,7.72624-5.79268,1.18871-11.43661.59423-16.63503-1.78294l-.44576-.44567,1.03978-13.0753Z" style="fill: none;"/>
    </clipPath>
    <filter id="luminosity-noclip-7" x="244.27292" y="297.35954" width="70.0096" height="38.43018" color-interpolation-filters="sRGB" filterUnits="userSpaceOnUse">
      <feFlood flood-color="#fff" result="bg"/>
      <feBlend in="SourceGraphic" in2="bg"/>
    </filter>
    <filter id="luminosity-noclip-8" x="244.27292" y="-4592" width="70.0096" height="32766" color-interpolation-filters="sRGB" filterUnits="userSpaceOnUse">
      <feFlood flood-color="#fff" result="bg"/>
      <feBlend in="SourceGraphic" in2="bg"/>
    </filter>
    <mask id="mask-7" x="244.27292" y="-4592" width="70.0096" height="32766" maskUnits="userSpaceOnUse"/>
    <radialGradient id="radial-gradient-7" cx="-51268.90696" cy="93115.43169" fx="-51268.90696" fy="93115.43169" r="391.25956" gradientTransform="translate(-4122.62302 -5768.35351) rotate(-170.87818) scale(.10126 -.05704) skewX(-.71263)" xlink:href="#radial-gradient"/>
    <mask id="mask-6" x="244.27292" y="297.35954" width="70.0096" height="38.43018" maskUnits="userSpaceOnUse">
      <g style="filter: url(#luminosity-noclip-7);">
        <g style="mask: url(#mask-7);">
          <path d="M256.434,299.572c7.26627-2.42059,15.6923-2.83797,25.2776-1.33556,9.74014,1.58608,17.77942,4.67458,24.11808,9.26548,6.26136,4.67458,9.04419,9.59944,8.34848,14.60772-.69571,5.09196-4.63805,8.84811-11.90432,11.35237-7.34357,2.50426-15.84666,3.00507-25.5868,1.41899-9.6626-1.58608-17.54727-4.67433-23.80888-9.34891-6.33866-4.67458-9.19879-9.51601-8.50308-14.60772.69571-5.09196,4.71535-8.84811,12.05892-11.35237Z" style="fill: url(#radial-gradient-7); mix-blend-mode: multiply;"/>
        </g>
      </g>
    </mask>
    <radialGradient id="radial-gradient-8" cx="-51268.90696" cy="93115.43169" fx="-51268.90696" fy="93115.43169" r="391.25956" gradientTransform="translate(-4122.62302 -5768.35351) rotate(-170.87818) scale(.10126 -.05704) skewX(-.71263)" xlink:href="#radial-gradient-6"/>
    <clipPath id="clippath-2">
      <path d="M114.224,272.64006c5.34716-7.57768,11.43686-10.84644,18.41782-9.95485,7.27773,1.03991,15.44699,5.64594,24.21026,13.66954l1.33679,1.18846.59402.44567,2.37657,1.93174s.29701.14856.74253.44567c3.71336,12.62939,6.53521,26.15036,8.46602,40.8598h-1.93081s0,2.22886,0,2.22886h-5.34716s0,10.40077,0,10.40077c-4.60415,3.26876-10.69384,4.60603-18.26907,4.16011h0c-18.26907-1.78294-30.0027-8.76614-35.20111-21.09841-4.60464-13.66954-2.97059-28.37898,4.60415-44.27737Z" style="fill: none;"/>
    </clipPath>
    <filter id="luminosity-noclip-9" x="86.59787" y="269.96553" width="109.91121" height="74.58809" color-interpolation-filters="sRGB" filterUnits="userSpaceOnUse">
      <feFlood flood-color="#fff" result="bg"/>
      <feBlend in="SourceGraphic" in2="bg"/>
    </filter>
    <filter id="luminosity-noclip-10" x="86.59787" y="-4592" width="109.91121" height="32766" color-interpolation-filters="sRGB" filterUnits="userSpaceOnUse">
      <feFlood flood-color="#fff" result="bg"/>
      <feBlend in="SourceGraphic" in2="bg"/>
    </filter>
    <mask id="mask-9" x="86.59787" y="-4592" width="109.91121" height="32766" maskUnits="userSpaceOnUse"/>
    <radialGradient id="radial-gradient-9" cx="-13384.04438" cy="21101.59713" fx="-13384.04438" fy="21101.59713" r="317.07868" gradientTransform="translate(-4856.57635 -5027.75521) rotate(-180) scale(.3732 -.25297)" xlink:href="#radial-gradient"/>
    <mask id="mask-8" x="86.59787" y="269.96553" width="109.91121" height="74.58809" maskUnits="userSpaceOnUse">
      <g style="filter: url(#luminosity-noclip-9);">
        <g style="mask: url(#mask-9);">
          <path d="M141.55335,269.96553c15.29872,0,28.36914,3.56612,39.06322,10.69813,10.54558,7.42888,15.8925,16.19527,15.8925,26.44748,0,10.40053-5.34692,19.16692-15.8925,26.29892-10.84259,7.42912-23.7645,11.14356-39.06322,11.14356-15.14973,0-28.07188-3.71444-38.76597-11.14356-10.84259-7.28056-16.18951-16.04695-16.18951-26.29892,0-10.25221,5.34692-19.16716,16.18951-26.44748,10.69409-7.13201,23.61599-10.69813,38.76597-10.69813Z" style="fill: url(#radial-gradient-9); mix-blend-mode: multiply;"/>
        </g>
      </g>
    </mask>
    <radialGradient id="radial-gradient-10" cx="-13384.04438" cy="21101.59713" fx="-13384.04438" fy="21101.59713" r="317.07868" gradientTransform="translate(-4856.57635 -5027.75521) rotate(-180) scale(.3732 -.25297)" xlink:href="#radial-gradient-6"/>
    <clipPath id="clippath-3">
      <path d="M209.62558,240.97719h0c4.52441.12099,8.77059,1.55437,12.63612,4.19987,4.07036,2.84358,7.35625,6.80635,9.75916,11.99149,1.98543,4.28794,3.47195,8.78517,4.35884,13.49463.76911,3.70615,1.12781,6.91661,1.27388,9.52772.05365,3.01507-.19459,6.03599-.74399,9.06131-1.06782,2.13006-5.50616,1.20359-7.83249.33932-2.1237-.76621-3.84992-1.74123-5.76586-2.10982-3.12519-.54764-6.04897-1.09894-10.0691-1.12797-6.43181.01293-13.02164,2.44182-17.90695,4.63896-2.99059,1.3602-9.4085,2.17763-11.75776.00756-1.13342-1.58828-1.77207-3.58808-2.11394-5.89427-.44478-2.40498-.40138-5.62228.03024-9.65115.7652-7.85528,2.55702-14.52161,5.27767-19.79774,2.52678-4.87046,5.87486-8.7498,10.14859-11.43921,3.9794-2.28179,8.1812-3.36171,12.70561-3.24071Z" style="fill: none;"/>
    </clipPath>
    <clipPath id="clippath-4">
      <path d="M306.94579,243.27655c4.36664,2.53671,7.84786,6.19431,10.54729,11.07282,2.90548,5.17611,4.9314,11.77536,5.97411,19.59844.57329,4.01131.6306,7.2269.37114,9.64432-.26019,2.31716-.82739,4.33746-1.90374,5.96501-2.27001,2.35253-8.71426,1.66244-11.75094.40908-4.85971-2.02517-11.53123-4.21915-18.05936-4.00326-4.11767.17368-6.92147.72596-10.0235,1.4846-1.80108.43397-3.49317,1.36873-5.68758,2.3118-2.19393.94379-6.59861,1.92686-7.83932-.06172-.65669-3.00458-1.11196-6.01282-1.16488-9.0274.05413-2.61501.29847-5.83645.93639-9.56724.82251-4.63896,2.04835-9.1845,3.87918-13.64026,2.21856-5.26686,5.36204-9.34379,9.32925-12.32983,3.76945-2.78065,7.96247-4.36307,12.47956-4.64409h0c4.61634-.38274,8.8535.54715,12.9124,2.78772Z" style="fill: none;"/>
    </clipPath>
  </defs>
  <g>
    <g>
      <g>
        <g id="Symbol_10_0_Layer0_0_FILL" data-name="Symbol 10 0 Layer0 0 FILL">
          <path d="M155.58942,114.1035c-4.7529-3.12021-10.39708-6.09186-17.3778-8.61783-4.01037-1.33702-8.91178-2.82285-14.70446-4.45723-3.86162-1.33727-5.49543-3.26901-5.05015-5.64618.29701-1.63438,2.22807-3.12021,5.64418-4.16036,3.86187-1.18871,8.16925-1.33727,12.92215-.29712,13.21892,2.82309,24.21026,13.37242,32.82478,31.64799-1.18829-12.18371-1.03978-22.28737.74253-30.16216,1.78231-8.02335,5.19866-14.70969,10.39708-20.20707,4.90141-5.9433,11.43661-10.54933,19.45736-14.11521,7.872-3.41757,14.55571-4.60628,20.05138-3.56612,2.22782.44592,2.07932,1.78294-.44576,4.16036-1.4853,1.33727-5.04991,4.16036-10.9911,8.46903-13.07066,9.50942-20.05138,16.34407-20.94266,20.80154,5.94119-6.24041,13.66468-11.73804,23.31898-16.49263,18.86309-9.36062,40.25127-12.9265,64.16452-10.40077,9.20855,1.04015,16.93228,2.67453,23.02197,5.20051,5.94094,2.52573,8.76303,4.90315,8.31751,7.28056-.29701,1.78294-4.01037,2.9714-10.84284,3.863-7.872.89159-17.97182.89159-30.0027-.14856,9.06028,2.67453,19.75437,4.90315,32.37951,6.68609,12.47639,1.78294,21.83344,2.37742,28.07188,2.0803,10.54558-.74303,19.01184-3.41757,25.54681-7.72624,6.38695-4.30892,10.39708-10.10365,12.03088-17.0871,1.6338-7.28032.44576-15.30367-3.2676-24.07006-4.01013-9.36062-10.69384-18.8698-20.19989-28.52778,24.80428,18.57268,39.06322,39.96846,42.62784,64.18732,1.6338,10.84644.74253,21.24722-2.52508,31.05351-3.2676,9.80654-8.61477,18.42412-16.18951,25.55613,5.19842,2.82309,10.24833,1.9315,14.85272-2.52597,4.7529-4.45747,7.12947-10.84644,7.27798-19.01836.14851-4.90315.74277-8.61783,2.07956-10.995,1.18829-2.37742,2.67358-2.97165,4.30738-2.22886,4.15888,1.93174,6.53521,9.9551,7.42624,23.77319.44576,10.25197-3.26736,17.82965-11.1396,22.8816-7.27798,4.75459-16.04125,5.94305-25.99257,3.863,40.25127,32.24222,42.33083,59.13562,6.53545,80.67995-11.13985,6.24041-9.06028,11.73779,6.53521,16.49238,23.02197,4.0118,23.02197,15.45248.14851,34.17396l-43.37036,58.39258c-.14851,5.7945.29701,12.9265,1.18829,21.54433.44576,4.30867.89128,8.02335,1.4853,11.14356.14851,12.03515,2.52483,20.35562,7.27798,24.96165,4.15888,4.0118,9.35729,4.60603,15.29848,1.63438,5.94119-2.82309,10.84284-8.17191,14.55595-15.89815,4.15888-8.46927,5.79268-17.82989,4.90165-27.9333,5.04991,12.33227,7.27773,24.36718,6.98072,36.25377-.29701,10.995-2.67358,18.72124-7.12947,23.62439-2.22807,2.37742-6.08969,5.64618-11.88237,9.80654-3.41611,2.37717-4.30738,4.16011-3.1191,5.34882.59426.44592,2.37657.29736,5.34716-.59423,1.33679-.44567,5.94094-1.9315,13.96169-4.60603-9.50604,15.74959-19.90288,25.85325-31.33949,30.31072-11.58536,4.60603-20.94266,2.08006-28.22063-7.42912-24.50727,10.69789-48.12326,16.19527-70.69972,16.34382-23.17048.1488-46.63797-5.34882-70.55122-16.34382-9.06004,8.91495-18.71459,11.44068-29.25993,7.57768-10.54558-3.86324-20.64565-13.81809-30.29995-30.0136,6.83222,2.67453,11.88213,4.60603,15.29848,5.64618,5.34692,1.78294,8.61477,2.37717,9.95132,1.9315-15.44699-5.05171-24.80428-15.89815-28.07188-32.24222-1.18829-6.09186-1.4853-12.48083-.74277-19.16692.59426-5.64618,1.78231-10.25221,3.41635-13.81809-.89128,8.17191,1.78231,16.7895,7.872,26.0018,5.49567,8.17191,10.39708,12.77794,15.00147,13.81785,2.52483.59448,5.04991-.14856,7.72349-2.37717,2.82209-2.37742,5.34692-5.9433,7.42624-10.69789,5.05015-11.73804,6.68396-27.48763,4.60439-47.24902l-30.89397-57.94691c-1.78231-4.90315-3.1191-8.02335-3.86187-9.65774-1.63356-3.26876-3.71312-5.64594-6.23795-7.13176-9.95132-4.90339-14.55595-9.50942-13.81343-13.81809.59426-3.56612,5.19866-7.28056,13.81343-10.995,8.46602-3.12045,13.36742-5.20051,14.70422-6.09186,1.03978-.59448,1.33679-1.33727.74277-2.0803-.44576-.74279-1.78231-1.63438-3.86162-2.97165-6.53545-4.01156-12.47664-8.76614-17.52655-14.26377-9.95132-10.54933-15.8925-21.69289-18.12057-33.13357-1.93081-10.25221-.74253-20.50443,3.71336-30.75639,4.45589-10.25221,10.69384-18.12701,18.71459-23.47607,3.56461-2.37717,10.84259-4.30892,21.53668-5.79474,8.76327-1.18846,15.8925-1.63438,21.38817-1.33702-.14851-.29736-.29701-.44592-.44576-.74303-1.4853-2.67429-4.45589-5.34882-8.46626-8.17191Z" style="fill: #161616;"/>
        </g>
        <g id="Symbol_10_0_Layer0_0_1_STROKES" data-name="Symbol 10 0 Layer0 0 1 STROKES">
          <path d="M182.32622,445.86411c-9.39997,8.67857-19.65049,11.04135-30.49918,7.00833-11.0128-4.18963-21.58252-14.60138-31.41679-30.9474l2.72113-3.22486c2.95328,1.15651,5.56687,2.14372,7.9015,3.0036-7.00364-6.12893-11.59877-14.54186-13.72296-25.16607-1.25754-6.44678-1.51651-13.12141-.77154-19.82701.60256-5.72205,1.81596-10.60543,3.60656-14.51283l4.24033,1.17017c-.82885,7.60183,1.62892,15.62567,7.50549,24.51598,6.39816,9.51406,10.95915,12.26153,13.66297,12.89284,1.16756.27345,3.0357.37347,5.77854-1.9132,2.62189-2.20837,4.91652-5.53397,6.81515-9.87338,4.79972-11.15503,6.30452-26.53286,4.4754-45.71197l-30.68475-57.55441-.69132-1.7927c-1.41848-3.79201-2.44314-6.53168-3.16055-7.84699-1.5643-2.86919-3.37148-4.97243-5.37326-6.25212-10.97427-5.42542-15.85446-10.70618-14.92173-16.11623.72229-4.51846,5.53078-8.55075,15.24313-12.7355,8.89203-3.27633,12.31594-4.8346,13.58445-5.48689-.49038-.38225-1.24242-.92428-2.37535-1.65414-6.72492-4.03595-12.78803-8.97008-18.01108-14.65578-10.0808-10.83669-16.36435-22.3525-18.67923-34.23982-2.02055-10.73082-.72253-21.51603,3.85967-32.05731,4.6378-10.67276,11.20642-18.89639,19.52198-24.44207,3.85675-2.57257,11.20495-4.58286,22.47282-6.14845,6.50692-.88232,12.1906-1.36264,16.9713-1.43582-1.68257-1.70927-3.69581-3.34829-6.01873-4.89778-4.52831-2.97165-10.03715-5.74961-16.32875-8.23802-3.50658-1.29946-7.78689-2.50378-12.7439-3.89812l-1.91521-.54349c-6.57081-2.27521-6.89928-6.09039-6.5135-8.1502.48307-2.66112,2.90963-4.64604,7.18068-5.89183,4.3086-1.32605,9.03492-1.44289,14.0385-.3481,11.64218,2.45865,21.33501,10.21123,29.43794,23.60243-.27336-8.06678.22288-14.80507,1.49334-20.41905,1.88424-8.48025,5.45031-15.41613,10.90185-21.20111,5.09697-6.15943,11.71777-10.96232,20.24061-14.68261,8.25314-3.5832,15.43601-4.83045,21.23284-3.73054,2.34316.31273,3.10325,1.63536,3.34783,2.39644.70473,2.19154-1.12415,4.2433-2.59653,5.62911-1.85863,1.67439-5.93241,4.81509-11.16277,8.60856-.79642.58569-1.56869,1.1609-2.31854,1.72537.77813-.40567,1.56943-.8067,2.37291-1.20212,19.08037-9.61944,41.08182-13.19093,65.41718-10.62568,9.9045,1.11943,17.63262,2.87163,23.64355,5.36443,4.94237,2.10177,10.50437,5.10805,9.64284,9.69677-.51648,3.10533-4.34567,4.81387-12.78901,5.71204-2.30464.26101-4.76924.44543-7.38795.55203,3.20981.57081,6.48863,1.09333,9.82915,1.56486,12.66635,1.81002,21.69201,2.48475,27.59759,2.06396,10.14103-.72474,18.36735-3.19583,24.45996-7.35131,5.96947-4.02741,9.60139-9.17474,11.10278-15.72739,1.53602-6.84587.48234-14.47795-3.13592-22.69206-3.92503-9.01496-10.57265-18.39071-19.75705-27.86549l2.9345-3.33585c25.06057,18.76417,39.69431,40.84688,43.49595,65.63851,1.67623,11.1277.82178,21.6219-2.6114,32.0822-2.94157,8.9591-7.74422,17.01002-14.29601,23.97541,3.27004.69425,6.34013-.38371,9.31852-3.26681,4.22399-3.9613,6.43596-9.82703,6.57447-17.46057.17118-5.63569.92249-9.45478,2.31341-11.92441.97101-1.94199,2.21124-3.16094,3.6863-3.62369.83787-.26272,2.15418-.39835,3.55315.37079,4.96261,2.30472,7.73105,10.45566,8.71353,25.69761.47795,11.00574-3.61387,19.36792-12.14695,24.84408-5.84535,3.81811-12.49517,5.56739-19.87288,5.24368,18.62558,16.3309,27.58443,31.59554,26.64584,45.43656-.84689,12.50449-9.69552,23.91223-26.36005,33.94076-5.62662,3.15241-5.88169,5.10318-5.82658,5.62545.08047.75377,1.17048,3.46221,11.7958,6.75146,11.13472,1.96248,17.25929,5.62837,18.72507,11.20747,1.78913,6.81098-3.92649,15.54176-17.47388,26.68678l-42.78342,57.60222c-.0912,5.34394.29969,12.07809,1.19243,20.55687.34871,3.38.79252,6.39751,1.18365,9.06009l.29067,1.99712.02243.28809c.1407,11.4114,2.36145,19.2801,6.59617,23.38484,3.50877,3.3839,7.56645,3.7764,12.79681,1.22554,5.47397-2.60086,10.01764-7.59744,13.51178-14.86849,3.96063-8.06458,5.53591-17.06564,4.68218-26.75411l4.28105-1.04088c5.04991,12.33251,7.45404,24.83286,7.14581,37.15903-.31115,11.50654-2.91256,19.94752-7.6796,25.03191-2.13004,2.43474-6.14041,5.75449-12.28692,10.16854-.75643.52666-1.3068.96551-1.70647,1.3219.51136-.10904,1.15537-.27077,1.95739-.51081l2.0642-.67839c2.31049-.75596,6.25941-2.0481,11.89822-3.92788l5.73733-1.91296-3.12593,5.17928c-9.87328,16.35919-20.48422,26.57628-32.42389,31.22963-11.93821,4.7463-21.92684,2.4645-29.71739-6.78122-24.23245,10.37467-47.77943,15.7069-70.02596,15.85351-23.09757,0-46.67577-5.35565-70.10375-15.92035ZM324.89859,441.85719c6.67371,8.72053,15.05658,10.91597,25.64288,6.70731,9.55359-3.72395,18.58437-11.83439,26.89701-24.143-2.58921.85451-4.57416,1.50388-5.96508,1.95955l-2.10541.69059c-3.87991,1.16456-6.00264,1.23554-7.32333.24247l-.14363-.11758c-.9103-.80963-1.37361-1.88637-1.30485-3.0319.11095-1.86807,1.53968-3.66077,4.60464-5.79376,5.8395-4.19353,9.60285-7.2891,11.55659-9.51991,4.05061-4.32184,6.24649-11.7778,6.52716-22.15613.19728-7.87309-.7179-15.61323-2.78258-23.41387-.75569,5.66838-2.38096,11.05794-4.86434,16.11477-3.93868,8.19509-9.18953,13.89689-15.58671,16.93586-6.92391,3.37732-12.9202,2.69454-17.82648-2.03712-5.17452-5.01536-7.77665-13.64661-7.95296-26.38625l-.26824-1.84051c-.39748-2.70624-.84787-5.77425-1.20682-9.24499-.95224-9.04497-1.34459-16.18673-1.20023-21.83462l.01804-.70596,43.7915-58.95949.37626-.39469c14.99879-12.29373,17.08957-18.90224,16.20195-22.28151-.95516-3.6354-6.25307-6.39239-15.32067-7.9731l-.27287-.06538c-9.82037-3.02239-14.60253-6.38434-15.04853-10.58128-.36919-3.46733,2.2744-6.73341,8.01953-9.95095,15.28312-9.19865,23.40945-19.42232,24.15198-30.38829.92907-13.70174-9.47873-29.39473-30.93348-46.64503l1.8818-3.91178c9.31438,2.0864,17.48558.8894,24.30292-3.56442,7.2175-4.63164,10.5268-11.47068,10.11909-20.86155-1.10147-17.08125-4.32006-21.04963-6.26965-21.96-.13412-.07343-.21532-.09148-.21459-.09514-.10729.03196-.52794.35249-1.08416,1.45972-1.06197,1.88686-1.64868,5.14879-1.79352,9.9429-.16192,8.85616-2.84672,15.78887-7.95661,20.58005-5.23841,5.07195-11.26518,6.07551-17.42096,2.90579l-2.77551-1.42777,2.25172-2.16202c7.29236-7.00321,12.54662-15.29416,15.61524-24.64307,3.21127-9.78239,4.00915-19.6043,2.44046-30.02092-2.52532-16.46652-10.13445-31.72605-22.69277-45.57414,1.75353,2.91652,3.25785,5.81182,4.50515,8.67759,4.00696,9.09692,5.15208,17.66206,3.40001,25.46709-1.74207,7.60964-6.1014,13.81273-12.94703,18.43047-6.74248,4.59896-15.70644,7.32691-26.64316,8.10824-6.226.4447-15.56208-.24174-28.54178-2.09689-11.72411-1.65536-22.71789-3.92545-32.67555-6.74854l.79642-4.36526c11.70095.99966,21.64763,1.0521,29.57815.15319,6.79759-.72328,8.5221-1.84563,8.88252-2.16129-.0673-.41347-.74984-2.06054-6.97463-4.70702-5.60175-2.32302-12.93532-3.97277-22.40332-5.04292-23.44749-2.47767-44.62156.94672-62.94624,10.18367-9.54701,4.70214-17.17369,10.08804-22.67034,16.00963l-3.81676-1.95297c.98979-4.95584,7.71496-11.79024,21.81881-22.16906,7.47793-5.42322,10.16347-7.74039,10.77261-8.28803.19947-.18808.37065-.35834.51574-.51227-4.83825-.61594-10.79163.58399-17.70383,3.58393-7.88931,3.44318-13.98339,7.8565-18.62997,13.49073l-.10022.11319c-4.91116,5.19441-8.13048,11.46117-9.8428,19.1674-1.67891,7.41985-1.9074,17.05368-.69839,29.45377l-4.23252,1.16651c-8.38823-17.7955-18.61607-27.74498-31.28535-30.42074-4.25788-.93135-8.22485-.84671-11.82214.25979-3.03082.88427-3.98794,1.93638-4.07792,2.43181-.22044,1.17456.98711,2.22739,3.46512,3.08923l1.7884.50422c5.04918,1.42045,9.40997,2.64721,13.1304,4.0257,6.62153,2.61916,12.40446,5.53934,17.18686,8.67906l.01366.00878c4.03817,2.69307,7.27408,5.67131,9.61822,8.8525l.2002.32785c.02609.05318.05657.09074.08267.13075.12168.18198.23995.36713.36187.61009l1.71378,3.42952-3.82724-.20686c-5.33034-.28955-12.38202.15514-20.9607,1.31897-12.99701,1.80563-18.37978,3.95545-20.60785,5.44127-7.59108,5.06244-13.61615,12.6367-17.90744,22.51057-4.2196,9.70799-5.4191,19.61747-3.56973,29.44133,2.18076,11.19967,7.92686,21.6802,17.57483,32.0517,5.01285,5.45737,10.58411,9.99096,17.09103,13.89689,3.49414,2.24837,4.20545,3.19729,4.43906,3.50929l.12827.19076c.58475.97575,1.20267,2.91432-1.22779,4.93925l-.19069.14222c-2.04591,1.36459-9.37802,4.19402-15.05731,6.28359-9.77184,4.21354-12.18914,7.38326-12.50029,9.32769-.53598,3.10947,3.94014,7.17152,12.60246,11.43946l.19654.10953c2.69504,1.68537,5.0543,4.36112,7.01315,7.95456.86811,1.59169,1.88399,4.30794,3.42147,8.41926l.5194,1.38654,31.03297,58.20792.04267.44104c1.99665,20.4249.43454,36.23938-4.77997,48.36016-2.18003,4.98413-4.88312,8.85616-8.04147,11.51581-3.17006,2.64306-6.41694,3.59637-9.65577,2.83602-5.13038-1.197-10.47681-6.02014-16.35411-14.75945-3.3571-5.07854-5.69758-9.93802-7.04217-14.64724-.06218.48544-.12022.97941-.17338,1.48021-.69619,6.26895-.45527,12.49083.71302,18.4834,3.10471,15.52712,12.0477,25.80885,26.58074,30.56149l.01097,4.23329c-1.2968.43177-3.76116.60204-11.38784-1.9415-2.55141-.88793-5.51323-1.93491-9.07492-3.26462,8.2307,12.22957,16.82352,20.10486,25.58509,23.43778,9.6348,3.58247,18.44123,1.26677,26.9214-7.07712l1.09587-1.07894,1.39678.64278c23.29338,10.70984,46.71698,16.14014,69.60629,16.14014,22.10387-.14587,45.59575-5.58178,69.82308-16.15819l1.59991-.69791,1.06026,1.3863ZM305.34393,73.2776h0ZM221.05975,56.93427h0Z"/>
        </g>
      </g>
      <g id="Symbol_10_0_Layer0_1_FILL" data-name="Symbol 10 0 Layer0 1 FILL">
        <path d="M230.44777,84.46141l.74277-.29712c11.73387-6.24041,23.61599-9.0635,35.34986-8.46903l-.14851,3.41732c-11.13985-.29712-23.02197,1.33727-35.94413,5.34882Z"/>
      </g>
    </g>
    <g>
      <g id="cvb_0_Layer2_0_FILL" data-name="cvb 0 Layer2 0 FILL">
        <path d="M154.02975,172.57048v.44567c1.4853,50.8149,2.67358,89.00042,3.41635,114.5563.74253,25.40757,1.18804,40.26557,1.03954,44.57449v.14856c1.18804,17.38422,2.22782,30.31072,3.1191,38.48263,1.4853,13.22386,2.52508,22.73304,3.41611,28.8249,1.33679,9.65774,2.67358,17.97845,4.30738,24.66454v.14856c3.2676,11.44092,8.02075,21.69289,14.11044,30.75639,6.2382,9.21206,13.66468,16.64118,22.1307,22.28737,15.744,10.54933,33.27054,14.85824,52.57915,13.07506,9.80305-.89135,18.86309-3.12021,27.03235-6.38897,8.46602-3.56588,16.33802-8.46903,23.31898-14.70944,7.57474-6.83489,13.96169-15.30392,19.16011-25.55613,5.05015-9.95485,8.61477-20.50418,10.39708-31.64774,5.79244-36.40258,8.61452-76.22247,8.46602-119.4597-.14851-40.86005-3.71312-80.38259-10.69384-118.41954-3.41635-18.12701-13.96193-32.53933-31.93375-43.23722-16.33826-9.65798-35.34986-14.70969-57.33205-15.0068-21.98219-.29712-41.29105,4.16036-58.07482,13.37242h0c-18.56608,10.25197-30.15145,24.51574-34.60733,42.93986v.1488M246.56316,119.52672c21.23967.29712,39.80575,5.05171,55.54975,14.41233,16.93228,10.10365,27.03235,23.77319,30.29995,40.86005,6.98072,37.88816,10.54558,77.11382,10.69409,117.82531.14851,39.22542-2.97059,78.89676-9.20879,118.86522-3.56461,21.24722-12.7734,38.48263-27.62637,51.85505-13.07041,11.73779-29.26017,18.42388-48.42028,20.20707-18.56608,1.63438-35.34986-2.52597-50.35133-12.48083-8.31751-5.49762-15.29848-12.18371-20.79415-19.90995-5.79268-7.8748-10.10006-17.23542-13.21892-27.9333v.14856c-3.41611-14.85824-6.2382-32.53958-8.46626-53.04376-.89103-8.17191-1.93057-20.94986-3.11885-38.33407,0-4.45747-.29701-19.46403-1.03978-44.72305-.74253-25.40733-1.78231-63.59284-3.41611-114.40775,4.30738-17.23542,15.29824-30.75639,32.82478-40.41437,16.18976-8.9147,34.90435-13.22362,56.29227-12.9265Z" style="fill: #6c2d15;"/>
        <path d="M157.29759,172.8676c4.30738-17.23566,15.29848-30.75639,32.82478-40.41437,16.18976-8.9147,35.05285-13.22362,56.29252-12.9265,21.23967.29712,39.80575,5.20026,55.54975,14.41233,16.93228,10.10365,27.0321,23.77319,30.29995,40.86005,6.98072,37.8884,10.54558,77.11382,10.69409,117.82531.14826,39.22542-2.97059,78.89676-9.20879,118.86522-3.56486,21.24722-12.7734,38.48263-27.62637,51.85505-13.07066,11.73779-29.11166,18.42412-48.42028,20.20707-18.56608,1.63438-35.35011-2.52597-50.35133-12.48083-8.31776-5.49762-15.29872-12.18371-20.79415-19.90995-5.64418-8.02335-10.10006-17.23542-13.21916-27.9333v.14856c-3.41611-14.85824-6.3867-32.53933-8.46602-53.04376-.89103-8.17191-1.93081-20.94986-3.1191-38.33407,0-4.45723-.29701-19.31547-1.03954-44.72305-.59451-25.40733-1.78255-63.59284-3.41635-114.40775Z" style="fill: url(#linear-gradient);"/>
      </g>
      <g>
        <g id="cvb_0_Layer1_0_FILL" data-name="cvb 0 Layer1 0 FILL">
          <g style="mask: url(#mask);">
            <path d="M133.77719,313.63403c1.33362-8.96471,9.10345-15.7696,23.11854-20.14242,13.99339-4.22598,30.19363-5.11879,48.70436-2.36302,18.65777,2.77747,34.21181,8.24778,46.34681,16.51385,11.96626,8.39097,17.29318,16.99538,15.95956,25.96009-1.35557,9.1118-8.95665,15.79155-22.8247,20.18633-14.18408,4.49797-30.53137,5.36882-49.18914,2.59111-18.51073-2.75576-33.74922-8.32925-45.86203-16.74193-12.135-8.26607-17.60897-16.89244-16.2534-26.004Z" style="fill: url(#radial-gradient-2);"/>
          </g>
        </g>
        <g id="cvb_0_Layer1_1_FILL" data-name="cvb 0 Layer1 1 FILL">
          <g style="mask: url(#mask-2);">
            <path d="M315.83099,353.3705c-18.44635,3.15777-34.66245,2.61745-48.79434-1.59608-14.25334-4.04205-21.9978-10.55494-23.55089-19.63479-1.52821-8.93373,3.7319-17.82355,15.6845-26.35137,11.97747-8.38145,27.09112-14.28499,45.53747-17.44276,18.59291-3.1829,34.93019-2.81382,49.18353,1.22798,13.98583,4.23842,21.73005,10.75131,23.25827,19.68504,1.55309,9.08009-3.58583,17.79842-15.39163,26.30112-12.07379,8.69955-27.33399,14.62797-45.9269,17.81087Z" style="fill: url(#radial-gradient-4);"/>
          </g>
        </g>
      </g>
    </g>
    <g>
      <g id="vnn_copy_0_Layer3_0_FILL" data-name="vnn copy 0 Layer3 0 FILL">
        <path d="M390.33917,271.89727c-5.34692-7.57768-11.43661-10.84644-18.41758-9.9551-7.27798,1.04015-15.44699,5.64618-24.21026,13.66954l-1.33679,1.18871-.59426.44567-2.37633,1.9315s-.29701.14856-.74277.44567c-3.71312,12.62963-6.53521,26.15061-8.46602,40.86005h1.93106v2.22886s5.34692,0,5.34692,0v10.40053c4.60439,3.26876,10.69409,4.60603,18.26907,4.16036h0c18.26907-1.78294,30.00294-8.76639,35.20136-21.09866,4.60439-13.66929,2.97059-28.52754-4.60439-44.27713Z" style="fill: #e67639;"/>
        <path d="M393.16126,269.96553c-6.2382-8.9147-13.51617-12.77794-21.68518-11.44068-7.72349,1.04015-15.744,6.24041-24.21026,15.74959-3.71312,3.86324-5.34692,5.64618-4.60439,5.49762.44576-.29712.74277-.44567.74277-.44567l2.37633-1.93174c.44576-.29712.89103-.74279,1.33679-1.18846l-.74253.74279,1.33679-1.18871c8.91154-8.02335,16.93228-12.62939,24.21026-13.66929,6.98072-.89159,13.07041,2.37717,18.41758,9.95485,7.72349,15.89815,9.20855,30.60784,4.60439,44.27737-5.19866,12.18371-16.93253,19.31547-35.20136,21.09866h0c-7.57499.59423-13.66468-.89159-18.26907-4.16036v3.12021c.44552.44567.74253.74303,1.18829,1.04015,4.15888,3.26876,9.95132,4.60603,17.3778,4.01156,10.10006-1.03991,18.56608-3.41732,25.10129-7.28032,6.83246-4.0118,11.58536-9.36062,14.40721-15.89839h0c4.7529-13.81809,2.67383-29.8648-6.23795-47.99181l-.14875-.29736h0Z" style="fill: #6c2d15;"/>
      </g>
      <g style="clip-path: url(#clippath);">
        <g id="vnn_copy_0_Layer2_0_FILL" data-name="vnn copy 0 Layer2 0 FILL">
          <g style="mask: url(#mask-4);">
            <path d="M363.00982,269.07418c-15.29848,0-28.36889,3.56588-39.06322,10.69789-10.54534,7.42912-15.8925,16.19527-15.8925,26.44748,0,10.40077,5.34716,19.16692,15.8925,26.29892,10.84284,7.42912,23.76474,11.14356,39.06322,11.14356,15.14998,0,28.07213-3.71444,38.76597-11.14356,10.84284-7.28056,16.18976-16.04671,16.18976-26.29892,0-10.25221-5.34692-19.16716-16.18976-26.44748-10.69384-7.13201-23.61599-10.69789-38.76597-10.69789Z" style="fill: url(#radial-gradient-6);"/>
          </g>
        </g>
      </g>
    </g>
    <g>
      <g id="Symbol_15_0_Layer2_0_FILL" data-name="Symbol 15 0 Layer2 0 FILL">
        <path d="M250.35065,326.94668c5.19866,2.37742,10.84259,2.97165,16.63527,1.78294,5.64418-1.18871,10.54534-3.71444,14.70422-7.72624,2.82209-2.82309,4.15888-4.75459,4.01037-5.9433-.59426-.89135-2.67358-1.18846-6.2382-1.04015-12.6249.44592-22.13094.1488-28.66615-.89135l28.5174-2.52597c5.79268-.29712,9.06028.89159,9.65455,3.26876,1.03954,2.22886-.59426,5.34907-4.90165,9.50918-4.7529,4.60628-10.10006,7.28056-16.18976,8.0236-6.23771.74279-12.03039-.74303-17.52606-4.45747Z" style="fill: #6f311e;"/>
        <path d="M250.94492,313.42571l-.89128-.29712h.74277c6.53521,1.04015,16.04101,1.33727,28.66615.89135,3.71312-.14856,5.79268.1488,6.23795,1.04015.14851,1.18871-1.18829,3.12021-4.01013,5.9433-4.15888,4.0118-9.06028,6.68609-14.70446,7.72624-5.79268,1.18871-11.43661.59448-16.63503-1.78294l-.44576-.44567,1.03978-13.0753Z" style="fill: #e67639;"/>
      </g>
      <g style="clip-path: url(#clippath-1);">
        <g id="Symbol_15_0_Layer1_0_FILL" data-name="Symbol 15 0 Layer1 0 FILL">
          <g style="mask: url(#mask-6);">
            <path d="M256.434,299.572c7.26627-2.42059,15.6923-2.83797,25.2776-1.33556,9.74014,1.58608,17.77942,4.67458,24.11808,9.26548,6.26136,4.67458,9.04419,9.59944,8.34848,14.60772-.69571,5.09196-4.63805,8.84811-11.90432,11.35237-7.34357,2.50426-15.84666,3.00507-25.5868,1.41899-9.6626-1.58608-17.54727-4.67433-23.80888-9.34891-6.33866-4.67458-9.19879-9.51601-8.50308-14.60772.69571-5.09196,4.71535-8.84811,12.05892-11.35237Z" style="fill: url(#radial-gradient-8);"/>
          </g>
        </g>
      </g>
    </g>
    <g>
      <g id="vnn_copy_0_Layer3_0_FILL-2" data-name="vnn copy 0 Layer3 0 FILL">
        <path d="M114.224,272.64006c5.34716-7.57768,11.43686-10.84644,18.41782-9.95485,7.27773,1.03991,15.44699,5.64594,24.21026,13.66954l1.33679,1.18846.59402.44567,2.37657,1.93174s.29701.14856.74253.44567c3.71336,12.62939,6.53521,26.15036,8.46602,40.8598h-1.93081s0,2.22886,0,2.22886h-5.34716s0,10.40077,0,10.40077c-4.60415,3.26876-10.69384,4.60603-18.26907,4.16011h0c-18.26907-1.78294-30.0027-8.76614-35.20111-21.09841-4.60464-13.66954-2.97059-28.37898,4.60415-44.27737Z" style="fill: #e67639;"/>
        <path d="M111.40191,270.70856c6.2382-8.91495,13.51617-12.77794,21.68518-11.44092,7.72349,1.04015,15.74424,6.24066,24.2105,15.74984,3.71312,3.863,5.34692,5.64594,4.60415,5.49738-.44552-.29712-.74253-.44567-.74253-.44567l-2.37657-1.9315c-.44552-.29712-.89103-.74279-1.33679-1.18871l.74277.74303-1.33679-1.18871c-8.91178-8.02335-16.93228-12.62939-24.21026-13.66954-6.98072-.89159-13.07066,2.37742-18.41758,9.9551-7.72349,15.89815-9.20879,30.60784-4.60439,44.27713,5.19842,12.18371,16.93228,19.31572,35.20111,21.09866h0c7.57499.59448,13.66468-.89135,18.26932-4.16011v3.12021c-.44576.44567-.74277.74279-1.18829,1.03991-4.15888,3.26901-9.95156,4.60603-17.3778,4.0118-10.10006-1.04015-18.56608-3.41732-25.10153-7.28056-6.83222-4.01156-11.58536-9.36062-14.40721-15.89815h0c-4.7529-13.81809-2.67358-29.86505,6.2382-47.99181l.14851-.29736h0Z" style="fill: #6c2d15;"/>
      </g>
      <g style="clip-path: url(#clippath-2);">
        <g id="vnn_copy_0_Layer2_0_FILL-2" data-name="vnn copy 0 Layer2 0 FILL">
          <g style="mask: url(#mask-8);">
            <path d="M141.55335,269.96553c15.29872,0,28.36914,3.56612,39.06322,10.69813,10.54558,7.42888,15.8925,16.19527,15.8925,26.44748,0,10.40053-5.34692,19.16692-15.8925,26.29892-10.84259,7.42912-23.7645,11.14356-39.06322,11.14356-15.14973,0-28.07188-3.71444-38.76597-11.14356-10.84259-7.28056-16.18951-16.04695-16.18951-26.29892,0-10.25221,5.34692-19.16716,16.18951-26.44748,10.69409-7.13201,23.61599-10.69813,38.76597-10.69813Z" style="fill: url(#radial-gradient-10);"/>
          </g>
        </g>
      </g>
    </g>
    <g>
      <g id="cvvxgbb_0_Layer6_0_FILL" data-name="cvvxgbb 0 Layer6 0 FILL">
        <path d="M179.50242,129.1103c15.00147-8.02335,30.15145-14.26401,45.44968-18.42412,20.05162-5.49762,39.06322-7.28056,57.3323-5.49762,32.37927,5.34907,52.72766,21.84145,61.19368,49.47763,4.90165,50.66634,7.27798,85.88021,7.27798,105.6416-3.71312,6.09186-5.64418,8.32071-6.08969,6.68633,4.15888,17.23542,5.34716,31.94486,3.71336,44.42569-.59426,4.75483-1.6338,8.17216-2.82209,10.54933-1.33679,2.22886-2.37657,2.67453-3.41635,1.33727-2.52483-5.20026-3.41611-13.66954-2.67358-25.70469.14851-3.12021.44576-7.72624,1.03954-13.66954.29701-4.90315.29701-8.61759,0-11.14356-.44552-4.16011-3.56461-17.38397-9.35729-39.52278-6.83222-26.15036-11.28811-44.12857-13.36767-53.78655-5.19842,2.52597-14.70422,5.20051-28.66615,8.17216-14.2587,2.67429-22.57621,4.30892-24.95279,4.90315-7.27798,1.63438-5.19842,4.16011,6.3867,7.57768l24.21026,6.83465c-8.0205,2.0803-15.8925,2.82309-23.7645,2.37742-8.46602-.44567-17.22929-2.37742-26.14107-5.79474-6.68371-3.26876-8.0205-6.68609-3.86162-10.10341,4.30738-3.56612,13.81318-6.68633,28.66615-9.0635,11.28811-1.9315,12.47639-6.68633,3.56461-14.26401-8.91178-7.57768-25.54681-16.19527-49.90557-25.70444,8.31751,3.41732,16.63503,8.9147,25.10129,16.49238,8.46602,7.72624,11.88237,12.77819,9.95132,15.30392-1.03954,1.33727-4.45565,1.63463-10.24833.89159-6.08969-.74279-13.21916-2.52597-21.68518-5.20026-21.23967-6.83489-40.69703-16.49263-58.66909-28.97345,12.62514,20.65274,20.34839,38.77975,23.02197,54.6779,1.03978,5.9433,1.18853,10.84644.44576,14.56113-.59402,3.41732-1.6338,5.05171-3.1191,5.20026-1.33679.14856-2.67358-.74279-4.15888-2.67453-1.6338-1.9315-3.1191-4.60603-4.60439-8.17191,2.67358,12.03515,2.97059,24.07031.59426,35.9569-2.67358,13.66954-8.02075,23.32727-16.33826,29.27057,1.78231,31.94486.89128,49.47763-2.52483,52.44928-4.30738-.74303-6.53545-5.9433-6.53545-15.30392-.14826-7.28056,1.18853-21.39577,3.56486-42.19731-5.79268,1.48582-7.72349-4.30867-5.49543-17.38397-4.15888-15.30392-6.83246-29.56769-8.02075-43.08866-3.86162-43.38578,7.72374-68.94191,34.90435-77.11382Z" style="fill: #161616;"/>
      </g>
      <g id="cvvxgbb_0_Layer6_0_1_STROKES" data-name="cvvxgbb 0 Layer6 0 1 STROKES">
        <path d="M161.89687,326.42515l.79861-.69449c2.77746-2.41571,5.65686-10.65447,3.35344-53.05474,8.219-6.31481,13.53446-16.11769,16.23438-29.91871,1.65941-8.30047,2.06469-16.83585,1.21779-25.48954,1.09855,1.12089,2.84428,2.41157,5.01138,2.16617,3.91186-.39176,4.78143-5.39029,5.06796-7.03297.78764-3.93715.64035-9.11205-.44674-15.32734-2.34048-13.91884-8.37726-29.39644-18.39344-47.09997,15.92908,10.06462,33.09912,18.08871,51.16336,23.90077,9.13295,2.88603,16.15098,4.56554,22.09802,5.29101,6.96146.89379,10.63776.3742,12.27668-1.73464,3.57339-4.67458-3.15543-11.8822-10.2076-18.31899-.74838-.66961-1.49334-1.32165-2.23587-1.95736,10.7631,5.18075,18.82847,10.03584,24.09443,14.51429,5.2645,4.4765,5.21012,6.51801,5.06796,7.03663-.13778.50129-1.08928,2.22374-7.56499,3.33219-14.94855,2.39205-24.95254,5.60374-29.71081,9.5426-2.34024,1.9232-3.39831,4.02424-3.13958,6.23919.32944,2.8148,2.76405,5.2954,7.44331,7.58427l.18118.0783c9.0815,3.48245,18.10569,5.48128,26.82142,5.93964,8.28898.47104,16.28608-.33078,24.4407-2.44548l.0456-4.30306-24.2105-6.83489c-4.38054-1.29214-6.6903-2.26277-7.89638-2.89383.36748-.11319.82519-.23589,1.39312-.36371,2.36267-.59033,10.71457-2.23081,24.875-4.88754,12.32618-2.62257,21.08921-4.99877,26.6634-7.23178,2.32073,10.34857,6.62055,27.55154,12.80462,51.22008,7.13581,27.27345,8.99444,36.36916,9.29682,39.19639.2836,2.40645.27994,6.02233-.0078,10.77131-.6106,6.09283-.90371,10.8201-1.04076,13.69808-.7674,12.42057.17923,21.19184,2.89451,26.7846l.24507.39469c1.10221,1.41703,2.30561,1.65707,3.13885,1.60633,1.88351-.11392,3.09886-1.75123,3.94673-3.16607l.08267-.14953c1.44311-2.88895,2.46655-6.68023,3.03936-11.26894,1.69355-12.93138.46429-27.72937-3.75799-45.22605l-4.33128,1.046c4.03451,16.72071,5.26962,31.39453,3.66971,43.6141-.50697,4.0562-1.36995,7.33618-2.56726,9.76434-.01536.02464-.03048.04928-.04511.07343-1.88546-4.94657-2.51362-12.7477-1.86668-23.2297.13631-2.85553.4243-7.50035,1.03271-13.58416.31481-5.17002.31115-8.94471-.00439-11.62607-.46112-4.30965-3.62972-17.71744-9.41411-39.82697-6.73175-25.76519-11.22178-43.82999-13.34523-53.69166l-.59768-2.7765-2.55336,1.24115c-4.93823,2.39937-14.14799,5.01536-28.15674,7.99652-14.39526,2.70039-22.59987,4.31306-25.03009,4.92169-1.70452.38176-5.82097,1.30604-5.92168,4.36331-.0951,2.85846,3.10252,4.82436,12.21889,7.51377l15.288,4.31599c-4.65682.62912-9.31999.80255-14.0863.53325-8.22778-.43299-16.76183-2.32155-25.37538-5.61447-4.34347-2.14104-4.83874-3.64345-4.88677-4.05498-.09413-.80158.92907-1.77367,1.54772-2.28155,2.85013-2.35937,9.94741-5.75912,27.60393-8.5849,6.60202-1.12943,10.23613-3.2712,11.13472-6.55119.91225-3.32999-1.20682-7.1281-6.47863-11.61143-9.16612-7.79332-26.16936-16.56898-50.53885-26.08304l-1.65648,4.13816c8.06537,3.31414,16.06759,8.57758,24.46289,16.09135,10.92136,9.96924,9.6821,12.26982,9.66674,12.29007-.00293-.01683-.51623.41567-3.12641.41567-1.20316,0-2.84452-.0966-5.06869-.38152-5.68148-.69303-12.44518-2.31814-21.29819-5.11489-20.73587-6.67243-40.27687-16.32285-58.06897-28.67878l-3.17153,2.99336c12.6844,20.74983,20.1182,38.37652,22.72618,53.88559.99418,5.68277,1.14732,10.30563.4582,13.75394-.51989,2.98458-1.20462,3.43293-1.21121,3.43733-.31237-.00512-1.04051-.4347-2.11687-1.83344-1.50627-1.78611-2.89671-4.26867-4.31299-7.67062l-4.23179,1.34068c2.65017,11.93221,2.84647,23.71952.58451,35.03652-2.5797,13.188-7.63229,22.30908-15.44894,27.89379l-.99735.71327.06828,1.22457c2.03347,36.46478.13631,46.76261-1.13342,49.6601-2.99181-1.89564-3.47463-8.54489-3.47463-12.63865-.13363-6.5607.89493-18.69904,3.54998-41.94386l-4.42687-.50641c-2.67895,23.4568-3.71605,35.76834-3.57827,42.49589-.00073,10.60665,2.82038,16.49482,8.3836,17.45398l1.04222.18003Z"/>
      </g>
    </g>
    <g id="cvvxgbb_0_Layer6_0_MEMBER_0_FILL" data-name="cvvxgbb 0 Layer6 0 MEMBER 0 FILL">
      <path d="M317.93152,181.18807l-1.6338-3.12021c1.6338-.89135,2.22782-2.52597,1.6338-4.75459h0c-.89128-2.97165-3.41635-6.38897-7.42648-10.40077-9.35754-9.21206-23.31898-19.16692-41.73656-30.01336,19.75437,8.76614,34.45859,17.97821,44.26164,27.48763,4.60439,4.45723,7.42648,8.46903,8.31751,11.88635h0c1.03954,4.30892-.00024,7.28056-3.41611,8.91495Z"/>
    </g>
    <g id="cvvxgbb_0_Layer6_0_MEMBER_1_FILL" data-name="cvvxgbb 0 Layer6 0 MEMBER 1 FILL">
      <path d="M149.20272,192.92611l1.18829,2.37717c14.40721,26.29892,16.33826,49.92355,5.64418,70.87341l-3.1191-1.48582c10.09958-19.90995,8.76279-43.83145-3.71336-71.76476Z"/>
    </g>
    <g id="cvvxgbb_0_Layer6_0_MEMBER_2_FILL" data-name="cvvxgbb 0 Layer6 0 MEMBER 2 FILL">
      <path d="M171.63042,175.69069l.29701.59423,9.06028,29.8648-3.41635.74303-5.94094-31.20207Z"/>
    </g>
    <g id="cvvxgbb_0_Layer5_0_FILL" data-name="cvvxgbb 0 Layer5 0 FILL">
      <path d="M376.45186,258.97052l.29701.14856c-29.70593-7.72624-43.81612-31.49918-42.18232-71.6162.44576,38.33407,14.40745,62.25558,41.88531,71.46764Z"/>
    </g>
    <g id="cvvxgbb_0_Layer4_0_FILL" data-name="cvvxgbb 0 Layer4 0 FILL">
      <path d="M176.97759,126.28721c4.60439-16.49263,15.8925-28.97345,34.01307-37.29392-20.05138,6.83465-31.48799,18.8698-34.16158,36.40233l.14851.89159M270.84755,104.74288h-.14826c36.3894,16.49263,63.86726,15.45248,82.28484-3.12021l.74277-1.48582c-19.90288,16.64118-47.08373,17.08686-81.69082,1.48582h0c-38.02344-13.96665-66.39234-10.25221-85.40418,11.44068l.59402.59448c19.30885-19.31572,47.08373-22.28737,83.62163-8.91495Z"/>
    </g>
    <g>
      <g id="cvvxgbb_0_Layer3_0_FILL" data-name="cvvxgbb 0 Layer3 0 FILL">
        <path d="M182.91878,209.79c2.52483-6.9832,7.12923-13.81809,13.81318-20.20707,10.10006-9.50918,18.41758-11.14356,24.80428-4.60603,4.45589,3.86324,7.57474,9.21206,9.20855,15.89815-19.16011-5.7945-35.20111-2.82285-47.82601,8.91495Z" style="fill: #161616;"/>
      </g>
      <g id="cvvxgbb_0_Layer3_0_1_STROKES" data-name="cvvxgbb 0 Layer3 0 1 STROKES">
        <path d="M180.82336,209.03185c2.68626-7.42766,7.52085-14.51356,14.38233-21.07207,13.87025-13.06042,22.79787-9.73848,27.85851-4.60701,4.80118,4.18914,8.11317,9.90533,9.84524,16.9927l.92663,3.79274-3.73555-1.12943c-18.33345-5.54348-33.6968-2.71405-45.66549,8.41341l-3.61168-2.39035ZM227.44768,197.65898c-1.64136-4.48357-4.11157-8.17216-7.37064-10.9972l-.13412-.12685c-1.98153-2.02859-8.01246-8.20118-21.67177,4.65897-3.72263,3.55929-6.79686,7.27105-9.1966,11.09941,7.07753-4.34575,14.98928-6.52363,23.68476-6.52363,4.67267,0,9.57237.62985,14.68837,1.8893Z"/>
      </g>
    </g>
    <g>
      <g id="cvvxgbb_0_Layer2_0_FILL" data-name="cvvxgbb 0 Layer2 0 FILL">
        <path d="M273.81814,200.87506c1.6338-6.68609,4.7529-12.03491,9.20879-15.89815,6.38695-6.53753,13.66468-5.79474,21.68518,2.08006,8.0205,7.8748,13.81318,15.74984,17.08079,23.47607-12.62465-12.18371-28.51716-15.45248-47.97476-9.65798Z" style="fill: #161616;"/>
      </g>
      <g id="cvvxgbb_0_Layer2_0_1_STROKES" data-name="cvvxgbb 0 Layer2 0 1 STROKES">
        <path d="M274.45898,203.00951l-3.72921,1.11943.92468-3.78347c1.73329-7.09176,5.04845-12.81161,9.85378-17.0005,7.386-7.34277,15.75814-6.68853,24.91353,1.97321,8.29313,8.14215,14.03826,16.05086,17.56386,24.17861l-3.5712,2.50963c-12.17231-11.46727-27.63442-14.49331-45.95543-8.99691ZM284.60221,186.55299l-.11607.1088c-3.26224,2.82724-5.73367,6.51997-7.37503,11.0094,14.31113-3.47221,26.97894-1.93638,37.82129,4.57725-3.03229-4.5387-6.87977-9.08326-11.60243-13.72052-4.49637-4.25379-8.10585-5.75547-11.06133-5.75547-3.24176,0-5.69685,1.81002-7.66643,3.78055Z"/>
      </g>
    </g>
    <g id="vnn_copy_0_Layer0_0_FILL" data-name="vnn copy 0 Layer0 0 FILL">
      <path d="M372.44173,295.52639c-2.22782.29712-5.34716,1.18846-9.35729,2.97165,1.33679.74279,3.26785.74279,5.64418-.14856,2.37633-1.04015,3.71312-1.93174,4.30738-2.82309q.14851-.14856.29701-.14856c-.14851-.14856-.44552,0-.89128.14856ZM375.56083,293.892c.74277.29712.89128,1.18871.59426,2.67453l-.29701.14856c-.29701,1.33727-2.07932,2.67453-5.49543,4.01156-3.2676,1.33727-6.3867,1.18871-9.06028-.14856-3.71312,3.56588-5.79244,6.83489-6.2382,9.80654-.29701,2.67429.74277,4.90315,3.1191,6.38897,2.37633,1.63438,6.23844,1.63438,11.73387,0,5.64418-1.48582,9.06028-6.38897,10.39708-14.70969,1.78206,3.86324,1.33679,7.8748-1.33679,11.8866-2.67358,4.01156-6.38695,6.24041-11.13985,6.53753-4.7529.29712-8.61477-.44567-11.58536-2.37717-3.11885-1.93174-4.45565-4.60603-4.01013-8.0236.29701-3.41732,2.67334-6.9832,6.98072-10.69789h0l.29701-.14856c-2.67358-2.37717-3.86187-5.05171-3.41611-7.8748.29701-2.22861,1.4853-4.45747,3.56461-6.68609,3.2676-3.86324,9.80281-6.24041,19.60586-7.13201-8.31776,2.0803-14.11019,4.75459-17.08079,8.02335-1.78231,1.93174-2.82209,3.86324-3.1191,5.64618-.44552,2.52597.14851,4.60603,2.07932,6.24041,4.90165-2.37717,8.61477-3.71444,11.1396-4.0118h0c1.4853-.14856,2.67358,0,3.2676.44592" style="fill: #6f311e;"/>
    </g>
    <g id="vnn_copy_0_Layer0_0_FILL-2" data-name="vnn copy 0 Layer0 0 FILL">
      <path d="M127.89705,295.18732c-.74253.44567-.89103,1.18871-.59402,2.67453l.29701.14856c.29701,1.33727,2.22782,2.67453,5.49543,4.0118,3.2676,1.33727,6.3867,1.18871,9.06028-.14856,3.71312,3.56588,5.79244,6.83465,6.2382,9.80629.29701,2.67453-.74277,4.90315-3.1191,6.38897-2.37657,1.63438-6.23844,1.63438-11.73387,0-5.64418-1.48582-9.06028-6.38897-10.39708-14.70944-1.78231,3.863-1.33679,7.8748,1.33679,11.8866,2.67358,4.01156,6.38695,6.24017,11.1396,6.53753,4.75314.29712,8.61477-.44592,11.58536-2.37742,3.1191-1.9315,4.45589-4.60603,4.01037-8.02335-.29701-3.41732-2.67358-6.98345-6.98097-10.69789h0l-.29701-.14856c2.67358-2.37742,3.86211-5.05171,3.41635-7.8748-.29725-2.22886-1.4853-4.45747-3.56461-6.68633-3.2676-3.863-9.80305-6.24041-19.60586-7.13176,8.31751,2.08006,14.11019,4.75459,17.08079,8.02335,1.78231,1.9315,2.82209,3.863,3.1191,5.64618.44552,2.52573-.14851,4.60603-2.07932,6.24041-4.90165-2.37742-8.61477-3.71468-11.13985-4.0118h0c-1.4853-.14856-2.67334,0-3.2676.44567M131.01614,296.8217c2.22807.29736,5.34716,1.18871,9.35754,2.97165-1.33679.74303-3.26785.74303-5.64418-.14856-2.37657-1.03991-3.71336-1.9315-4.30738-2.82309q-.14851-.14856-.29701-.14856c.14875,0,.44576,0,.89103.14856Z" style="fill: #6f311e;"/>
    </g>
  </g>
  <g>
    <g id="Layer_4" data-name="Layer 4">
      <g>
        <path d="M195.03134,239.72726c-4.57294,2.79504-8.31434,7.18445-11.42418,13.17068-2.62579,4.97267-4.31153,11.93904-5.15964,20.80081-.84104,9.26402.17484,15.57957,2.95133,19.14935l.10461.1993c4.52831,6.05258,11.22714,4.1245,14.30625,2.05883,3.97063-2.7843,12.86558-5.55544,17.68822-5.64033,4.01842-.07147,11.68753,1.70268,14.84638,4.16036,2.24197,1.76952,7.72057,4.68873,10.99792-3.21046l.09535-.30346c1.48066-7.16396,1.55553-14.30329.12729-21.21428-.99369-5.00926-2.58336-9.70604-4.67292-14.19327-2.82428-6.2831-6.42255-10.84401-10.89843-13.88127-4.37639-3.13948-9.22903-4.7624-14.356-4.87339-5.3301-.20662-10.13128,1.0843-14.60619,3.77713M186.97231,255.6537c2.52508-4.97096,5.87486-8.7498,10.14835-11.43921,3.87943-2.28057,8.08098-3.36,12.60539-3.239l.10047-.00171c4.42394.1227,8.67037,1.55559,12.53565,4.20134,4.07036,2.84334,7.35625,6.80659,9.75965,11.99173,1.98665,4.38844,3.3727,8.88738,4.35884,13.49463.76862,3.70615,1.12659,6.91661,1.27339,9.52772.05365,3.01507-.19459,6.03526-.74399,9.06131-1.16829,2.13177-5.79829,1.71147-7.83249.33981-3.45903-2.3518-8.50162-3.36805-15.83495-3.239-6.028.10684-13.83074,2.1547-17.90695,4.64018-2.78258,1.7583-9.40606,2.27765-11.75776.00707-1.13415-1.58877-1.77182-3.58808-2.11394-5.89427-.34432-2.40669-.40089-5.62276.02975-9.65188.76569-7.85455,2.45875-14.41867,5.37862-19.79871Z" style="fill: #522515;"/>
        <path d="M209.62558,240.97719h0c4.52441.12099,8.77059,1.55437,12.63612,4.19987,4.07036,2.84358,7.35625,6.80635,9.75916,11.99149,1.98543,4.28794,3.47195,8.78517,4.35884,13.49463.76911,3.70615,1.12781,6.91661,1.27388,9.52772.05365,3.01507-.19459,6.03599-.74399,9.06131-1.06782,2.13006-5.79853,1.71147-7.83249.33932-3.45878-2.35132-11.61389-3.21217-15.83495-3.23778-5.22621-.00878-13.33182,1.94443-17.90695,4.63896-2.78502,1.65829-9.4085,2.17763-11.75776.00756-1.13342-1.58828-1.77207-3.58808-2.11394-5.89427-.44478-2.40498-.40138-5.62228.03024-9.65115.7652-7.85528,2.55702-14.52161,5.27767-19.79774,2.52678-4.87046,5.87486-8.7498,10.14859-11.43921,3.9794-2.28179,8.1812-3.36171,12.70561-3.24071Z" style="fill: #fff;"/>
      </g>
      <g style="clip-path: url(#clippath-3);">
        <g>
          <path d="M213.78909,245.65567c-2.53434,3.40074-3.86723,7.51352-3.99964,12.43789-.23288,4.92413.84519,9.15254,3.03277,12.685,2.2883,3.53319,5.19037,5.36126,8.60623,5.48396,3.41538.12294,6.34013-1.56754,8.87471-4.96803,2.53361-3.40122,3.86699-7.51377,4.10011-12.5384.13217-4.92413-.8447-9.15254-3.13275-12.68573-2.2883-3.53319-5.0899-5.46054-8.50577-5.48274-3.4166.0783-6.44132,1.66683-8.97567,5.06805Z"/>
          <path d="M218.58296,265.6893c1.2056.00805,2.3139-.48714,3.2259-1.68732.91249-1.20017,1.32484-2.80602,1.33557-4.51455.11266-1.8088-.2797-3.31902-1.07514-4.63116-.79495-1.31165-1.89643-1.92174-3.1013-2.03029-1.20609-.00805-2.31512.58789-3.22761,1.78855-.912,1.20017-1.42433,2.70429-1.43555,4.51358-.01219,1.80904.37968,3.42001,1.17561,4.63164.79495,1.3119,1.89643,1.92223,3.10252,1.92955Z" style="fill: #fff;"/>
          <path d="M224.282,254.56891c.49672.80768,1.09757,1.21383,1.90106,1.21896.70351.00463,1.40921-.39298,2.01689-1.09284.50648-.70035.81422-1.60291.82105-2.70868.00756-1.10553-.18777-2.01151-.68571-2.71869-.49672-.80719-1.09709-1.21261-1.90106-1.21847-.70278-.00463-1.40873.29248-2.01689,1.09284-.50648.70035-.81422,1.60291-.82105,2.70893.09291,1.1065.28823,2.01175.68571,2.71795Z" style="fill: #fff;"/>
        </g>
      </g>
    </g>
    <g id="Layer_4-2" data-name="Layer 4">
      <g>
        <path d="M308.77321,238.61953c-4.56733-2.5328-9.51141-3.65175-14.72787-3.15704-5.1199.29175-9.81232,2.08372-14.17555,5.37761-4.36518,3.19388-7.90053,7.88089-10.50096,14.2606-1.92959,4.55798-3.35271,9.30793-4.16815,14.34915-1.18365,6.95735-.85665,14.08935.87713,21.19672l.10632.29931c3.55242,7.67818,8.92592,4.66775,11.104,2.81968,3.06984-2.56769,10.67165-4.61213,14.69007-4.6836,4.8224-.08513,13.80953,2.36961,17.87647,5.01219,3.14982,1.95467,9.91279,3.64492,14.22529-2.56378l.09656-.20296c2.64847-3.66614,3.44098-10.0134,2.27269-19.2418-1.16097-8.8264-3.09227-15.72861-5.89168-20.60542-3.22054-5.97477-7.21555-10.22709-11.78434-12.86064M323.66665,273.84389c.57329,4.01131.73033,7.22568.37114,9.64432-.26043,2.31692-.82763,4.33746-1.90399,5.96501-2.2722,2.25179-8.90983,1.96736-11.75094.40908-4.26227-2.33692-12.13232-4.10791-18.05985-4.00326-7.33162.23003-12.3374,1.32409-15.71059,3.7964-1.98422,1.44289-6.69712,2.02859-7.83981-.0622-.75594-3.00263-1.11123-6.01233-1.16439-9.0274.05438-2.61477.29872-5.83596.9359-9.56675.72082-4.738,2.04713-9.285,3.87918-13.64075,2.21856-5.26637,5.36277-9.3433,9.32925-12.32934,3.8704-2.7826,7.96295-4.36307,12.48005-4.64409h0c4.41712-.27955,8.65427.65107,12.71195,2.79089,4.36566,2.53646,7.84908,6.29506,10.54656,11.07306,2.90573,5.17611,4.93164,11.77512,6.17553,19.59503Z" style="fill: #522515;"/>
        <path d="M306.94579,243.27655c4.36664,2.53671,7.84786,6.19431,10.54729,11.07282,2.90548,5.17611,4.9314,11.77536,5.97411,19.59844.57329,4.01131.6306,7.2269.37114,9.64432-.26019,2.31716-.82739,4.33746-1.90374,5.96501-2.27001,2.35253-8.90763,2.06786-11.75094.40908-4.6678-2.5311-12.83778-4.19573-18.05936-4.00326-4.21765.17539-12.33789,1.32409-15.71108,3.7964-1.98446,1.44314-6.59861,1.92686-7.83932-.06172-.65669-3.00458-1.11196-6.01282-1.16488-9.0274.05413-2.61501.29847-5.83645.93639-9.56724.82251-4.63896,2.04835-9.1845,3.87918-13.64026,2.21856-5.26686,5.36204-9.34379,9.32925-12.32983,3.76945-2.78065,7.96247-4.36307,12.47956-4.64409h0c4.61634-.38274,8.8535.54715,12.9124,2.78772Z" style="fill: #fff;"/>
      </g>
      <g style="clip-path: url(#clippath-4);">
        <g>
          <path d="M307.7205,238.60417c3.41782.04074,6.26283,1.79953,8.73596,5.27442,2.37267,3.4766,3.45366,7.78015,3.43879,12.60621-.11363,4.92827-1.34533,9.17206-3.69629,12.63207-2.45095,3.46099-5.43641,5.12245-8.85228,5.18294-3.41708-.04001-6.36256-1.79709-8.73572-5.27442-2.37291-3.4766-3.45391-7.78039-3.33856-12.60743.0139-4.92632,1.24681-9.07033,3.69824-12.53132,2.34853-3.56003,5.33229-5.32248,8.74986-5.28247Z"/>
          <path d="M300.99777,261.94608c-.82641-1.29238-1.25681-2.89286-1.28656-4.6014.06852-1.81099.44308-3.32536,1.32606-4.54773.88274-1.22188,1.97739-1.84417,3.18274-1.86588,1.2056-.02098,2.32317.66278,3.15007,1.95492.8269,1.29263,1.2551,2.79284,1.18658,4.60359.03194,1.80929-.44356,3.32585-1.32655,4.54724-.88225,1.22237-1.97861,1.74464-3.18396,1.76562-1.10733-.08099-2.22319-.66424-3.04838-1.85637Z" style="fill: #fff;"/>
          <path d="M308.92269,249.74187c-.02-1.10528.26555-2.01493.75545-2.72771.59061-.71401,1.18609-1.1265,1.8896-1.13919.70302-.01244,1.41336.37713,1.93032,1.17236.51453.69449.73131,1.59535.75082,2.70088.01951,1.10577-.26604,2.0159-.85665,2.72991-.58988.71401-1.18536,1.1265-1.98934,1.14065-.70302.01268-1.31289-.37859-1.93032-1.17212-.31408-.69791-.53038-1.59901-.54988-2.70478Z" style="fill: #fff;"/>
        </g>
      </g>
    </g>
    <g>
      <g>
        <path d="M186.56922,376.00865c1.47042-4.9373,2.83526-9.55992,5.5659-14.0774,5.3557-8.82469,14.70275-15.23269,25.2042-14.81238,2.94036.10514,5.8812.73523,8.71621,1.78587.10534,0,14.59717,6.30311,24.04859,16.80877,3.36051,3.78177,14.91271,17.4391,14.70251,20.69567,0,.31492-.94492.31492-1.26022.20979-1.36532-.63009-9.87158-7.14347-13.7571-8.61442-6.82612-2.52085-14.17725-3.78177-21.42329-3.67663-7.14142.10514-14.59741,1.26091-21.52814,3.15167-3.46585.94526-6.82637,1.9959-10.18688,3.36171-3.36075,1.47046-9.76672,5.98794-10.18639,5.46298-2.20588-2.31131-.73545-7.45888.10461-10.29563Z" style="fill: #522515;"/>
        <path d="M235.40185,356.36337c-3.88528-2.41571-8.08586-4.30721-12.60173-5.3576-6.72127-1.68073-13.02213.21003-18.27298,3.99228,1.46993.41982,2.8355,1.0504,4.30568,1.47046,3.57022,1.15553,7.35113,1.89076,11.02694,2.52158,3.25565.52495,6.51107.94526,9.76672,1.26067,3.78018.41982,7.66619,1.15553,11.34151.52495-1.78523-1.57559-3.67581-3.04654-5.56614-4.41234Z" style="fill: #fff;"/>
        <path d="M205.57741,375.4837c7.14093-1.89149,14.70226-2.837,22.05315-3.15167,6.51107-.31541,13.65249.84037,19.8485,3.04654,3.04521,1.0504,6.09067,2.31131,8.92641,3.78152,1.99519,1.05064,3.36002,2.73161,5.04064,4.20207-.1051-.20954-.2102-.41982-.3153-.63009-.94492-1.26067-1.78499-2.62648-2.62506-3.88666-.84055-1.05113-1.68062-2.10152-2.52044-3.15216-2.83526-3.15167-5.8812-6.09283-8.82155-9.03423-1.68013-1.68122-3.36027-3.25681-5.04064-4.83289-4.83093,3.57222-13.23209,1.26091-18.69313.52569-6.40597-.9455-15.12242-2.10104-20.89779-5.67301-1.26047,1.0504-2.52069,2.31131-3.57095,3.57198-4.30568,6.19797-6.19577,14.18229-8.19096,21.53604,1.05027-.84037,2.10029-1.57608,3.25541-2.20617,3.67532-1.99614,7.6657-3.04654,11.55171-4.09693Z" style="fill: #2b1010;"/>
        <path d="M218.80901,387.24954c2.41559-1.26067,5.77634-.31541,8.2963.10514,3.36051.52495,5.7761,2.20617,8.40164,4.20207.31481.21027.52477,1.05064-.1051.9455-2.73064-.52569-5.4608-.9455-8.19144-.73523-2.62579.20954-5.04064.52495-7.45623-.63058-1.26022-.63033-2.83526-2.9414-.94517-3.8869Z" style="fill: #522515;"/>
      </g>
      <path d="M235.40185,356.36337c-3.88528-2.41571-8.08586-4.30721-12.60173-5.3576-6.72127-1.68073-16.17244.94526-20.26865,5.56788,1.99519,1.9959,3.78091,2.62648,5.2506,3.04654,3.99135,1.26067,8.08683,2.10079,12.18231,2.73161,2.73064.41982,5.5659.73523,8.40164,1.0504,3.88528.42006,10.08129,1.68073,13.8622-1.68122-1.89082-1.57535-4.93603-3.9918-6.82637-5.3576Z" style="fill: #fff;"/>
      <g>
        <path d="M202.53147,356.57365c1.99519,1.9959,3.78091,2.62648,5.2506,3.04654,3.99135,1.26067,8.08683,2.10079,12.18231,2.73161,2.73064.41982,5.5659.73523,8.40164,1.0504,3.88528.42006,10.08129,1.68073,13.8622-1.68122" style="fill: #fff;"/>
        <path d="M202.53147,356.57365c1.05027,1.36581,2.52069,2.52134,4.20058,3.25657,1.68062.73523,3.25614,1.26091,4.93628,1.78587,3.36027.94599,6.72053,1.68122,10.18614,2.10152l5.14574.63009c.84055.10514,1.68062.10514,2.52069.21027.83982.10489,1.67989.10489,2.62506.21027,1.78548.10441,3.57071,0,5.35643-.31541,1.78499-.42055,3.46488-1.26067,4.62025-2.52158-1.46993.9455-3.15056,1.36605-4.72534,1.47094-1.68062.10514-3.36075,0-5.04138-.21003l-5.1455-.73523-5.04064-.73596c-1.68062-.20954-3.36075-.41982-5.04113-.73498-1.68013-.31541-3.36075-.63033-5.04089-.9455-1.68038-.31541-3.36051-.73523-5.04089-1.15553-1.67965-.52569-3.15007-1.26091-4.51539-2.31131Z" style="fill: #a4a3a3;"/>
      </g>
    </g>
  </g>
</svg>