<?xml version="1.0" encoding="UTF-8"?>
<svg id="Layer_1" data-name="Layer 1" xmlns="http://www.w3.org/2000/svg" xmlns:xlink="http://www.w3.org/1999/xlink" viewBox="0 0 500 500">
  <defs>
    <linearGradient id="linear-gradient" x1="-1130.16258" y1="-5469.99722" x2="-1130.16258" y2="-5381.26509" gradientTransform="translate(-2596.8753 -4313.4886) rotate(160.09913)" gradientUnits="userSpaceOnUse">
      <stop offset=".00784" stop-color="#f26e4b"/>
      <stop offset=".99216" stop-color="#f9a971"/>
    </linearGradient>
    <radialGradient id="radial-gradient" cx="4386.35721" cy="-14699.61595" fx="4386.35721" fy="-14699.61595" r="120.69964" gradientTransform="translate(-163.88897 -6306.7495) rotate(160.09261) scale(.4332) skewX(-.01304)" gradientUnits="userSpaceOnUse">
      <stop offset=".00784" stop-color="#f26e4b"/>
      <stop offset=".99216" stop-color="#f9a971"/>
    </radialGradient>
    <mask id="mask" x="300.75285" y="175.96776" width="181.29365" height="153.86317" maskUnits="userSpaceOnUse">
      <g id="Mask_Mask_4" data-name="Mask Mask 4">
        <g id="Mask_Symbol_4_0_2_MASK_0_FILL" data-name="Mask Symbol 4 0 2 MASK 0 FILL">
          <path d="M311.17826,232.937c11.04097-18.36277,27.58256-31.53442,49.62447-39.5151,22.09458-7.99956,43.26068-8.48027,63.4983-1.44241,19.15098,6.65979,32.09918,19.30502,38.84472,37.93583,3.40116,9.39413,4.85522,18.24664,4.36201,26.55768-.57995,9.05468-3.52042,17.98456-8.82099,26.78951-5.52049,9.18146-12.59866,17.17576-21.23453,23.98278-8.63587,6.80716-18.49054,12.21534-29.56402,16.22456-22.04205,7.98053-43.18189,8.45187-63.41951,1.41387-20.23776-7.038-33.60576-19.53118-40.10427-37.47968-6.49851-17.9485-4.22714-36.10414,6.81383-54.46705Z" style="fill: #fff;"/>
        </g>
      </g>
    </mask>
    <radialGradient id="radial-gradient-2" cx="3936.3191" cy="-14678.48095" fx="3936.3191" fy="-14678.48095" r="120.69936" gradientTransform="translate(-145.14109 -6314.55227) rotate(160.09261) scale(.4332) skewX(-.01304)" xlink:href="#radial-gradient"/>
    <mask id="mask-1" x="377.77674" y="129.63076" width="2335.19996" height="3304.59307" maskUnits="userSpaceOnUse"/>
    <mask id="mask-2" x="271.88033" y="183.55828" width="2255.97995" height="3161.64061" maskUnits="userSpaceOnUse"/>
    <radialGradient id="radial-gradient-3" cx="4096.13186" cy="-14637.5001" fx="4096.13186" fy="-14637.5001" r="120.69936" gradientTransform="translate(-152.54254 -6313.83696) rotate(160.09261) scale(.4332) skewX(-.01304)" xlink:href="#radial-gradient"/>
  </defs>
  <g>
    <g id="robert_5_0_Layer8_0_FILL" data-name="robert 5 0 Layer8 0 FILL">
      <path d="M116.12808,64.36077c2.57293,3.52941,7.63719,7.24222,15.19278,11.13942h0c12.14946,6.48616,25.02248,11.02254,38.61872,13.6088l1.57303.27273,9.49494-3.43906,1.15233-1.47048c4.73287-6.289,7.63148-14.57143,8.69584-24.84731h0c1.37359-11.54281-.01511-18.48308-4.16644-20.82079-3.26291-2.41027-6.54966-2.76462-9.86092-1.06272-1.98904.85918-3.92033,2.89259-5.79387,6.1009-1.72983,2.86908-3.00203,9.43887-3.81691,19.70971-6.57719-9.41636-13.91622-15.53574-22.01676-18.35813-14.61393-4.76612-24.47821-3.51094-29.5925,3.76655h0c-4.17349,4.71809-3.9999,9.85133.51976,15.40038M169.13712,70.01898c3.38546-9.65249,5.4346-15.23983,6.14709-16.7617,1.8319-3.47232,3.70544-4.50212,5.62061-3.08908,1.36318,1.05096,1.58277,5.53596.65809,13.4543-1.02709,8.79835-3.52883,15.46252-7.5049,19.99218-1.97527,1.13661-11.00485-1.7019-27.08874-8.51587-16.71512-7.00677-24.07664-13.18795-22.08425-18.54421,2.22978-5.86344,8.25398-7.06219,18.07192-3.59625,9.35594,3.35241,18.08266,9.03917,26.18018,17.06063Z" style="fill: #120b0b;"/>
      <path d="M124.88502,56.55461c2.22978-5.86344,8.25398-7.06219,18.07192-3.59625,9.35594,3.35241,18.08266,9.03917,26.18018,17.06063,3.38546-9.65249,5.4346-15.23983,6.14709-16.7617,1.8319-3.47232,3.70544-4.50212,5.62061-3.08908,1.36318,1.05096,1.58277,5.53596.65809,13.4543-1.02709,8.79835-3.52883,15.46252-7.5049,19.99218-1.97527,1.13661-11.00485-1.7019-27.08874-8.51587-16.71512-7.00677-24.07664-13.18795-22.08425-18.54421Z" style="fill: #251214;"/>
    </g>
    <g>
      <g>
        <g>
          <g id="f6y7dxe_0_Layer0_0_MEMBER_0_FILL" data-name="f6y7dxe 0 Layer0 0 MEMBER 0 FILL">
            <path d="M399.06825,179.91317c4.38032-11.55759,11.96983-19.29187,22.76819-23.20318,10.79836-3.91097,21.64037-2.85228,32.52637,3.17607,10.76176,6.07336,18.43454,15.44237,23.01833,28.10668,4.5388,12.54037,4.6177,24.58969.23738,36.14728-4.50489,11.6026-12.15617,19.35972-22.95453,23.27069-10.79836,3.91097-21.57826,2.82978-32.34036-3.24358-10.76176-6.07303-18.41204-15.37989-22.95084-27.92027-4.58379-12.66465-4.68519-24.77577-.30453-36.33369Z" style="fill: #f9a971;"/>
          </g>
          <g id="f6y7dxe_0_Layer0_0_MEMBER_0_1_STROKES" data-name="f6y7dxe 0 Layer0 0 MEMBER 0 1 STROKES">
            <path d="M420.10762,248.09691c-11.67637-6.59229-20.07976-16.79092-24.97514-30.31575-4.94003-13.64944-5.03304-26.92674-.28204-39.46879,4.84937-12.78691,13.4099-21.48248,25.45024-25.84319,12.02623-4.35601,24.22136-3.19051,36.24658,3.46896l.03123.01679c11.67637,6.59229,20.10192,16.85171,25.04195,30.50116,4.89537,13.52483,4.96655,26.74133.20246,39.3163-4.97629,12.81714-13.5949,21.52446-25.62416,25.88148-12.04034,4.36072-24.18375,3.16398-36.09113-3.55696ZM423.37153,160.95348c-9.58862,3.47299-16.15809,10.19762-20.08715,20.55847-4.02206,10.61276-3.91361,21.47307.32972,33.19726,4.19834,11.59991,11.04347,19.9512,20.9252,25.52847,9.64704,5.44661,18.99996,6.40454,28.58858,2.93155,9.60541-3.47903,16.24035-10.23692,20.27383-20.62901,4.02206-10.6131,3.93577-21.41261-.26256-33.01252-4.24165-11.71848-11.1039-20.1262-20.97624-25.70346-9.77362-5.40731-19.1947-6.34677-28.79138-2.87076Z" style="fill: #be6e35;"/>
          </g>
        </g>
        <g id="f6y7dxe_0_Layer0_0_MEMBER_1_FILL" data-name="f6y7dxe 0 Layer0 0 MEMBER 1 FILL">
          <path d="M442.27714,189.33155c-1.41019.37047-3.10947,1.68813-5.0975,3.95296-1.37796,1.62263-2.34427,3.02593-2.89861,4.20957-.75546-.14745-1.41455-.61096-1.97729-1.3902-1.06772-2.56242-1.41993-4.89275-1.05596-6.99065.73834-3.7783,3.98882-5.65788,9.7518-5.63873-3.09872-1.96724-5.76499-2.5463-7.99913-1.73717-2.48227.89915-4.05329,3.15323-4.71238,6.76258-.62485,3.31613-.25686,6.2722,1.10431,8.86888l.06749.18641c.84309,1.94172,2.07029,3.39305,3.6816,4.35433-.77258,4.07152-.18601,8.21291,1.75904,12.42349l.06749.18641c1.91081,4.50414,4.85005,7.58246,8.81772,9.23499,2.82877,1.2226,5.39465,1.13594,7.69729-.25997,2.50577-1.60987,4.10567-4.36609,4.79901-8.26867.61679-3.35509.57616-6.57046-.12188-9.6461-1.95412,10.11734-5.38323,14.80017-10.28801,14.04847-3.60807-.65933-6.27232-2.78376-7.99276-6.37397-1.42731-3.55561-1.68216-6.97452-.76385-10.25606,5.43527.27811,8.98459-1.35829,10.64727-4.90988,1.02944-2.19833.99855-4.22368-.09301-6.07538-.93308-2.18993-2.7304-3.0837-5.39263-2.68132M440.16824,197.46855c1.70532-1.88159,3.01512-2.91778,3.92872-3.10822l.18635-.06751c-.96094,1.61188-2.33252,2.67057-4.11507,3.17573Z" style="fill: #bb6c32;"/>
        </g>
      </g>
      <g>
        <g>
          <g id="Symbol_4_0_Layer4_0_FILL" data-name="Symbol 4 0 Layer4 0 FILL">
            <path d="M100.13216,229.62223c26.11202-43.44358,65.23304-74.60575,117.36239-93.48684,52.25392-18.92577,102.31197-20.06305,150.17415-3.41253,45.29228,15.75608,75.91489,45.67281,91.86817,89.75052,8.04379,22.2251,11.48264,43.16883,10.31621,62.83151-1.37158,21.42202-8.32583,42.5488-20.86175,63.38-13.05601,21.72196-29.79597,40.63529-50.21989,56.73968-20.42392,16.10472-43.73033,28.89969-69.91923,38.38491-52.12969,18.88076-102.12562,19.99588-149.9878,3.34502-47.86252-16.65086-79.47797-46.20786-94.84703-88.67134-15.36906-42.46348-9.99724-85.41701,16.11478-128.86093Z" style="fill: url(#linear-gradient);"/>
          </g>
          <g id="Symbol_4_0_Layer4_0_1_STROKES" data-name="Symbol 4 0 Layer4 0 1 STROKES">
            <path d="M177.38404,451.41344c-48.98731-17.03913-81.82694-47.78951-97.60865-91.39431-15.78204-43.60446-10.23395-88.25888,16.49351-132.72118h0c26.53407-44.15161,66.8054-76.25021,119.69054-95.40471,53.00635-19.1985,104.5488-20.35392,153.19128-3.43067,46.42681,16.15141,78.2642,47.26521,94.6271,92.4745,8.21671,22.70272,11.77509,44.44953,10.57542,64.65567-1.40952,22.04977-8.64514,44.06092-21.49801,65.41677-13.2719,22.0884-30.53162,41.58818-51.29163,57.95757-20.70058,16.32573-44.6493,29.47639-71.17598,39.08387-52.88783,19.15551-104.36682,20.28809-153.0036,3.36248ZM103.99709,231.94651h0c-25.2565,42.02079-30.55277,84.07518-15.74041,125.00067,14.81237,40.92583,45.79458,69.84063,92.08943,85.94602,46.63095,16.22429,96.07893,15.10582,146.97067-3.32654,25.61845-9.27865,48.71971-21.95707,68.66215-37.68628,19.90215-15.69293,36.4383-34.37149,49.14713-55.52212,12.10178-20.10907,18.90628-40.74882,20.2228-61.32174,1.1258-18.95163-2.25563-39.48491-10.05264-61.02751-15.39289-42.53032-45.3732-71.80821-89.10755-87.02621-46.63666-16.22228-96.14809-15.08062-147.15836,3.39473-50.88905,18.43169-89.59105,49.24017-115.03322,91.56897Z" style="fill: #be6e35;"/>
          </g>
        </g>
        <g id="Symbol_3_0_Layer0_0_FILL" data-name="Symbol 3 0 Layer0 0 FILL">
          <path d="M190.15768,386.59521c-16.6389-8.15514-28.0883-20.87924-34.34753-38.17297-6.36331-17.58191-5.71127-34.68923,1.95647-51.32195,7.47132-16.72442,19.70707-28.16546,36.70624-34.32245,16.9995-6.157,33.79252-5.22997,50.37971,2.78074,16.24673,7.97108,27.55175,20.74757,33.9154,38.32949,6.25889,17.29373,5.75089,34.34865-1.52435,51.16543-7.66774,16.63238-20.00119,28.02741-37.0007,34.18441-16.99917,6.157-33.69447,5.27598-50.08525-2.64269Z" style="fill: url(#radial-gradient);"/>
        </g>
        <g style="mask: url(#mask);">
          <g id="Symbol_3_0_Layer0_0_FILL-2" data-name="Symbol 3 0 Layer0 0 FILL">
            <path d="M389.09452,303.79839c-16.63923-8.1548-28.0883-20.87924-34.34753-38.17297-6.36331-17.58191-5.71127-34.68923,1.95647-51.32162,7.47132-16.72475,19.70673-28.16546,36.70624-34.32245,16.9995-6.157,33.79252-5.23031,50.37971,2.78074,16.24673,7.97108,27.55175,20.74724,33.91507,38.32915,6.25923,17.29373,5.75122,34.34899-1.52401,51.16543-7.66774,16.63272-20.00119,28.02741-37.0007,34.18441-16.99917,6.157-33.69447,5.27632-50.08525-2.64269Z" style="fill: url(#radial-gradient-2);"/>
          </g>
        </g>
        <g id="Symbol_4_0_Layer0_0_1_STROKES" data-name="Symbol 4 0 Layer0 0 1 STROKES">
          <path d="M177.38404,451.41344c-48.98731-17.03913-81.82694-47.78951-97.60865-91.39431-15.78204-43.60446-10.23395-88.25888,16.49351-132.72118h0c26.53407-44.15161,66.8054-76.25021,119.69054-95.40471,53.00635-19.1985,104.5488-20.35392,153.19128-3.43067,46.42681,16.15141,78.2642,47.26521,94.6271,92.4745,8.21671,22.70272,11.77509,44.44953,10.57542,64.65567-1.40952,22.04977-8.64514,44.06092-21.49801,65.41677-13.2719,22.0884-30.53162,41.58818-51.29163,57.95757-20.70058,16.32573-44.6493,29.47639-71.17598,39.08387-52.88783,19.15551-104.36682,20.28809-153.0036,3.36248ZM103.99709,231.94651h0c-25.2565,42.02079-30.55277,84.07518-15.74041,125.00067,14.81237,40.92583,45.79458,69.84063,92.08943,85.94602,46.63095,16.22429,96.07893,15.10582,146.97067-3.32654,25.61845-9.27865,48.71971-21.95707,68.66215-37.68628,19.90215-15.69293,36.4383-34.37149,49.14713-55.52212,12.10178-20.10907,18.90628-40.74882,20.2228-61.32174,1.1258-18.95163-2.25563-39.48491-10.05264-61.02751-15.39289-42.53032-45.3732-71.80821-89.10755-87.02621-46.63666-16.22228-96.14809-15.08062-147.15836,3.39473-50.88905,18.43169-89.59105,49.24017-115.03322,91.56897Z" style="fill: #be6e35;"/>
        </g>
      </g>
      <g>
        <g>
          <g id="hyjcfx_0_Layer2_0_FILL" data-name="hyjcfx 0 Layer2 0 FILL">
            <path d="M22.36757,326.04129c4.50455-11.60293,12.15617-19.35972,22.9542-23.27069,10.79836-3.91097,21.57859-2.83012,32.34036,3.24325,10.76176,6.07336,18.43454,15.44237,23.01833,28.10701,4.5388,12.54037,4.6177,24.58935.23738,36.14695-4.38065,11.55793-11.97016,19.29221-22.76852,23.20318-10.79803,3.91097-21.64037,2.85262-32.52637-3.17573-10.76176-6.07336-18.41204-15.38023-22.95084-27.9206-4.58379-12.66465-4.68519-24.77577-.30453-36.33336Z" style="fill: #f9a971;"/>
          </g>
          <g id="hyjcfx_0_Layer2_0_1_STROKES" data-name="hyjcfx 0 Layer2 0 1 STROKES">
            <path d="M43.40794,394.2247c-11.67805-6.5886-20.08144-16.78722-24.97782-30.31508-4.94003-13.64911-5.03404-26.92909-.26626-39.50238,4.97596-12.81747,13.59826-21.52278,25.62214-25.87745,12.04034-4.36105,24.18106-3.16331,36.09012,3.55393,11.67805,6.5886,20.10461,16.85071,25.04497,30.49981,4.89605,13.52786,4.96723,26.74435.21254,39.28473-4.84602,12.78892-13.40923,21.48516-25.44923,25.84621-12.02657,4.35568-24.21968,3.18648-36.27646-3.48978ZM26.58471,327.6394c-4.02475,10.61411-3.9163,21.47408.32703,33.19827,4.19834,11.59991,11.04347,19.95154,20.897,25.51067,9.78,5.41739,19.20242,6.35953,28.80481,2.8815,9.58862-3.47299,16.16044-10.19863,20.08581-20.56116,4.02475-10.61377,3.93846-21.41328-.25988-33.0132-4.24333-11.72419-11.11028-20.13627-20.99504-25.71253-9.64906-5.44292-18.99895-6.40185-28.58757-2.92886-9.60239,3.47803-16.23767,10.23591-20.27215,20.62531Z" style="fill: #be6e35;"/>
          </g>
        </g>
        <g id="hyjcfx_0_Layer2_0_MEMBER_0_FILL" data-name="hyjcfx 0 Layer2 0 MEMBER 0 FILL">
          <path d="M42.21465,311.05841c19.5271-11.98785,41.09696-8.63545,64.70925,10.05756l22.72924,29.05386c-28.23469,29.04512-51.47361,42.0265-69.71677,38.94381l-17.72172-78.05522Z" style="fill: #f9a971;"/>
        </g>
        <g id="hyjcfx_0_Layer1_0_FILL" data-name="hyjcfx 0 Layer1 0 FILL">
          <path d="M73.1005,338.21153c-.75109-3.23888-3.27936-5.76402-7.58514-7.57508-4.39543-2.05927-9.12024-2.31421-14.1751-.76446-4.55794,1.37005-8.02365,3.81928-10.39713,7.34701,7.75537-5.33678,14.84527-6.50026,21.26936-3.49012,6.25486,2.93054,7.93064,6.39648,5.02666,10.39747-4.31854-.68318-8.2711-.93677-11.85768-.7611-6.75582.34025-10.02343,2.36627-9.80317,6.0784.22059,3.71213,2.99296,5.16548,8.3171,4.36072,4.48944-.78361,9.05409-2.7176,13.69362-5.80231,4.97126,1.7103,8.31038,4.92466,10.01806,9.64308,1.27992,4.31134.02787,8.41612-3.75547,12.31433l.18601-.06751c-2.40538,2.27558-5.48564,3.46157-9.24144,3.55796-3.58658.17533-7.38604-.62507-11.39836-2.40187-4.01266-1.77713-6.97003-3.93583-8.87245-6.47709-2.02631-2.49592-3.51574-6.02936-4.46795-10.59966-2.34763,9.41704,1.75871,16.49635,12.31935,21.23829,5.02699,2.25207,9.93177,3.00343,14.71466,2.25408,4.11708-.64858,7.58179-2.32462,10.39377-5.02844,3.59095-3.26676,5.27713-7.52872,5.05889-12.78657-.32938-6.34072-4.02206-11.11255-11.07738-14.31516,1.80806-2.76126,2.37516-5.07345,1.70129-6.9359l-.06749-.18608M54.70121,346.13961c3.4966-.42388,6.98682-.28382,10.47066.42052-3.00236,1.7899-6.10008,3.12233-9.29282,3.99797-4.23057,1.11075-6.76757.69561-7.61066-1.24611h0c.03626-1.83894,2.18042-2.89628,6.43282-3.17238Z" style="fill: #be6e35;"/>
        </g>
      </g>
      <g>
        <g id="hjbfhb_0_Layer4_0_FILL" data-name="hjbfhb 0 Layer4 0 FILL">
          <path d="M85.09718,153.75392c-2.57293,4.92768-4.97092,9.93933-7.19365,15.03427l.18635-.06751c-15.09306,34.08969-23.28291,76.23845-24.56987,126.44596l-.00302,2.31857,1.73957,1.89772c12.46138,12.93872,21.88279,22.09579,28.26356,27.47086,12.46037,10.44986,24.28481,14.8042,35.47299,13.063,13.84672-1.58804,28.42641-7.85184,43.73872-18.79108,10.64996-7.55593,20.30136-17.93291,28.95389-31.13127,5.05251,9.71865,11.62198,13.51845,19.70908,11.39939,8.78078-1.47619,16.87628-8.20015,24.28649-20.17188,11.46484-18.32555,17.37656-48.34405,17.73549-90.05449,7.25744,22.79072,11.76065,40.47004,13.51029,53.03729l1.20706,7.98921,7.24468-3.25601c4.03146-1.78688,9.08532-6.63663,15.16089-14.54926,10.71241,6.10997,19.97836,5.1413,27.79787-2.90569.07689.01176.13867-.01075.18635-.06751,12.71421-11.919,14.55249-32.24605,5.51485-60.98183,14.9648,20.20681,26.88326,42.08192,35.75537,65.62535l3.27097,7.87334,6.24983-5.42344c9.74676-8.20955,17.68412-22.74068,23.81139-43.59338.56978,13.78648-1.0009,28.25883-4.71238,43.41704l11.24459-8.49639c14.85971-10.65206,19.36862-33.49115,13.52708-68.51828,6.72593,12.81411,15.3103,27.61092,25.75309,44.39042l.6967-14.36655c1.22754-21.36458-2.75994-40.91575-11.96311-58.65385-8.75258-16.69755-21.61788-30.71612-38.59623-42.05573-39.54945-26.14414-82.22885-39.33578-128.03786-39.57425-31.51808-.04266-57.11303,4.10142-76.78518,12.43289-33.78379,14.43372-60.99239,35.45336-81.62616,63.0589l-.06749-.18608c-4.01602,5.30487-7.77921,10.81093-11.28924,16.51751l-.11886.25359h0c-1.20739,2.09622-2.40572,4.21562-3.59531,6.35819-.9549,1.56318-1.79161,3.13005-2.51014,4.70096l.05137-.44M88.85903,173.45724c2.07701-4.74832,4.31652-9.4214,6.71855-14.01958l.18635-.06751-.06749-.18608c.54796-1.13561,1.18691-2.27995,1.91618-3.43268l.11886-.25359c1.24936-2.17314,2.5098-4.3147,3.78132-6.42536l-.18601.06718c3.30522-5.32838,6.84782-10.47371,10.62813-15.43565l.18601-.06718c19.37635-25.9285,44.94779-45.65299,76.715-59.17346,18.45804-7.72656,42.47391-11.57976,72.04728-11.55961,43.52115.26904,84.07552,12.82553,121.66313,37.67016,15.22367,10.14052,26.77716,22.66813,34.66079,37.58249,7.24368,13.80764,12.4822,30.0269,15.71556,48.65776-4.37192-10.91573-10.25577-21.35383-17.65155-31.31466-6.41771-7.64662-9.58694-11.55457-9.5077-11.72352l-.30487.3211,2.42989,16.60451c2.62933,25.79079.01947,45.34398-7.82958,58.6599,1.84063-14.55027-1.46996-30.4847-9.93109-47.80329,1.03548,9.45533-1.04757,19.40876-6.25016,29.85963-3.96968,8.03859-9.35359,15.46554-16.15238,22.28153-10.49853-24.17051-30.17639-49.83569-59.03357-76.99552,16.77857,35.08658,17.26207,60.47129,1.45048,76.15415h0l-.11886.25359c-5.20159,4.98343-11.61392,5.6908-19.23734,2.12242l-4.05732-1.90107-2.86336,3.14383c-2.39867,2.70853-4.6177,4.91693-6.65744,6.6242-2.92111-15.06685-13.16849-38.53034-30.74113-70.39013l-.15411,13.53793c.00571,3.11931-.04331,6.08612-.14773,8.90113-1.12144,39.27499-7.97462,69.21321-20.56023,89.81367-5.26236,8.48967-10.83496,13.45732-16.71747,14.90261-3.89481.61466-7.11239-1.099-9.65241-5.14096,9.365-13.2521,14.51791-28.88155,15.45938-46.88802.38209-8.70128-.40996-15.15553-2.37516-19.36308l-.06749-.18608c-2.48496-5.13021-5.6233-7.01281-9.4147-5.64847-2.50443-.02452-5.06191,2.02535-7.67177,6.14927l-.11886.25359c-4.76846,8.02347-8.2439,17.42741-10.426,28.21248-2.27041,11.12532-1.84164,22.97747,1.28697,35.55647-8.80496,11.06015-18.83309,20.59072-30.08372,28.59135-13.47504,9.59841-26.27755,15.14814-38.40719,16.64918-8.20596.93811-17.11668-2.15433-26.73217-9.27697-9.68297-6.97385-20.09151-15.56227-31.22631-25.76594,5.41647-47.36127,15.21024-87.21195,29.38131-119.55171h0M202.91788,229.68067c.09133,2.22385.09334,4.75101.00638,7.58146-.61981,11.36748-3.15446,21.62455-7.60462,30.77188-.56173-6.35449-.25988-12.50275.90521-18.44445,1.48305-7.35776,3.71384-13.99406,6.69303-19.90888Z" style="fill: #120b0b;"/>
          <path d="M195.31964,268.03401c4.45016-9.14732,6.98481-19.40439,7.60462-30.77188.08696-2.83045.08495-5.3576-.00638-7.58146-2.97919,5.91483-5.20998,12.55112-6.69303,19.90888-1.16509,5.9417-1.46693,12.08996-.90521,18.44445M59.47773,293.00895c11.13479,10.20366,21.54334,18.79209,31.22631,25.76594,9.61548,7.12265,18.5262,10.21508,26.73217,9.27697,12.12965-1.50104,24.93216-7.05077,38.40719-16.64918,11.25063-8.00063,21.27876-17.5312,30.08372-28.59135-3.12861-12.579-3.55737-24.43116-1.28697-35.55647,2.1821-10.78507,5.65755-20.18901,10.426-28.21248l.11886-.25359c2.60986-4.12392,5.16734-6.17379,7.67177-6.14927,3.7914-1.36434,6.92974.51826,9.4147,5.64847l.06749.18608c1.9652,4.20755,2.75726,10.6618,2.37516,19.36308-.94147,18.00646-6.09437,33.63592-15.45938,46.88802,2.54002,4.04197,5.7576,5.75562,9.65241,5.14096,5.88251-1.44529,11.45511-6.41293,16.71747-14.90261,12.58561-20.60046,19.4388-50.53868,20.56023-89.81367.10442-2.815.15344-5.78182.14773-8.90113l.15411-13.53793c17.57265,31.85979,27.82003,55.32328,30.74113,70.39013,2.03974-1.70727,4.25877-3.91568,6.65744-6.6242l2.86336-3.14383,4.05732,1.90107c7.62342,3.56838,14.03575,2.86102,19.23734-2.12242l.11886-.25359h0c15.81159-15.68286,15.32809-41.06757-1.45048-76.15415,28.85719,27.15984,48.53504,52.82501,59.03357,76.99552,6.79879-6.81599,12.1827-14.24294,16.15238-22.28153,5.20259-10.45087,7.28565-20.4043,6.25016-29.85963,8.46114,17.31859,11.77173,33.25301,9.93109,47.80329,7.84905-13.31592,10.45891-32.8691,7.82958-58.6599l-2.42989-16.60451.30487-.3211c-.07924.16895,3.08999,4.0769,9.5077,11.72352,7.39577,9.96082,13.27962,20.39893,17.65155,31.31466-3.23336-18.63086-8.47188-34.85012-15.71556-48.65776-7.88363-14.91436-19.43712-27.44197-34.66079-37.58249-37.58761-24.84462-78.14198-37.40112-121.66313-37.67016-29.57336-.02015-53.58923,3.83305-72.04728,11.55961-31.76721,13.52047-57.33866,33.24495-76.715,59.17346l-.18601.06718c-3.78032,4.96194-7.32291,10.10727-10.62813,15.43565l.18601-.06718c-1.27152,2.11066-2.53196,4.25223-3.78132,6.42536l-.11886.25359c-.72927,1.15274-1.36822,2.29708-1.91618,3.43268l.06749.18608-.18635.06751c-2.40202,4.59818-4.64154,9.27126-6.71855,14.01958h0c-14.17107,32.33976-23.96484,72.19044-29.38131,119.55171Z" style="fill: #251214;"/>
        </g>
        <g id="hjbfhb_0_Layer4_1_FILL" data-name="hjbfhb 0 Layer4 1 FILL">
          <path d="M284.69748,226.39309c8.09986-9.81505,15.3019-26.95898,21.60646-51.43178,1.63045,27.77785-2.54136,47.4758-12.51577,59.09352l-9.09069-7.66173Z" style="fill: #120b0b;"/>
        </g>
        <g id="hjbfhb_0_Layer3_0_FILL" data-name="hjbfhb 0 Layer3 0 FILL">
          <path d="M83.41503,171.21592c31.21758,15.65733,56.43513,27.73016,75.65165,36.21815,20.43466,8.74931,39.60116,8.75905,57.49982.02922,9.44592-4.54478,21.30361-11.92907,35.57271-22.15289.09435-2.84288.14337-5.81003.14773-8.90113l2.18915,7.21199c12.13569-8.74897,26.03916-19.40238,41.7104-31.95954,34.93276-28.38176,64.81099-47.06771,89.6347-56.05885-7.8749-5.8547-16.71512-11.0793-26.52064-15.67345-21.18139,9.35691-47.05569,27.85712-77.62323,55.49995-32.15938,29.06225-55.40066,47.66188-69.72348,55.79855-14.36749,8.01273-30.9577,8.33383-49.76997.9633-18.18104-7.17807-42.11868-19.01209-71.81292-35.50239-2.51014,4.70096-4.82889,9.54333-6.95593,14.5271M340.24957,81.98467c2.07768-1.46913,4.18894-3.00612,6.33343-4.61128.78266-.6422,1.60124-1.28977,2.45541-1.94272-.33811-.1582-.67622-.31673-1.01433-.47527l1.20068.40776c-2.491-1.06373-4.30578-1.81106-5.444-2.24132-2.56688-.99622-5.15962-1.95314-7.77787-2.87076-6.52347-2.23158-13.19166-4.16994-20.00422-5.81541l2.14752.69695c-47.15239,40.39077-85.75734,65.60822-115.81521,75.65234-32.04388,10.76357-63.72413,7.21065-95.04009-10.65811-3.92033,5.07143-7.60428,10.40821-11.05186,16.01034,17.82782,9.69346,33.46146,16.03855,46.90023,19.0356,16.84371,3.87067,34.12693,3.71986,51.85033-.45243,34.35491-8.14741,82.77513-35.72609,145.25997-82.73569Z" style="fill: #44252a;"/>
        </g>
        <g style="mask: url(#mask-1);">
          <g>
            <g id="hjbfhb_0_Layer2_0_FILL" data-name="hjbfhb 0 Layer2 0 FILL">
              <path d="M388.20878,179.00126c-2.30096-13.32566-5.77809-26.8122-10.43205-40.45963,9.56243,11.08635,15.61718,24.13088,18.16493,39.13358l-7.73288,1.32605Z" style="fill: #120b0b;"/>
            </g>
            <g id="hjbfhb_0_Layer2_1_FILL" data-name="hjbfhb 0 Layer2 1 FILL">
              <path d="M408.36745,159.06047c-3.54696-10.41224-8.18011-20.10974-13.89876-29.09248l.93073-.33722c8.89863,7.69666,15.61382,16.35932,20.14557,25.98762l-7.17753,3.44209Z" style="fill: #120b0b;"/>
            </g>
          </g>
        </g>
        <g id="hjbfhb_0_Layer0_0_FILL" data-name="hjbfhb 0 Layer0 0 FILL">
          <path d="M85.09718,153.75392c-2.57293,4.92768-4.97092,9.93933-7.19365,15.03427l.18635-.06751c-15.09306,34.08969-23.28291,76.23845-24.56987,126.44596l-.00302,2.31857,1.73957,1.89772c12.46138,12.93872,21.88279,22.09579,28.26356,27.47086,12.46037,10.44986,24.28481,14.8042,35.47299,13.063,13.84672-1.58804,28.42641-7.85184,43.73872-18.79108,10.64996-7.55593,20.30136-17.93291,28.95389-31.13127,5.05251,9.71865,11.62198,13.51845,19.70908,11.39939,8.78078-1.47619,16.87628-8.20015,24.28649-20.17188,11.46484-18.32555,17.37656-48.34405,17.73549-90.05449,7.25744,22.79072,11.76065,40.47004,13.51029,53.03729l1.20706,7.98921,7.24468-3.25601c4.03146-1.78688,9.08532-6.63663,15.16089-14.54926,10.71241,6.10997,19.97836,5.1413,27.79787-2.90569.07689.01176.13867-.01075.18635-.06751,12.71421-11.919,14.55249-32.24605,5.51485-60.98183,14.9648,20.20681,26.88326,42.08192,35.75537,65.62535l3.27097,7.87334,6.24983-5.42344c9.74676-8.20955,17.68412-22.74068,23.81139-43.59338.56978,13.78648-1.0009,28.25883-4.71238,43.41704l11.24459-8.49639c14.85971-10.65206,19.36862-33.49115,13.52708-68.51828,6.72593,12.81411,15.3103,27.61092,25.75309,44.39042l.6967-14.36655c1.22754-21.36458-2.75994-40.91575-11.96311-58.65385-8.75258-16.69755-21.61788-30.71612-38.59623-42.05573-39.54945-26.14414-82.22885-39.33578-128.03786-39.57425-31.51808-.04266-57.11303,4.10142-76.78518,12.43289-33.78379,14.43372-60.99239,35.45336-81.62616,63.0589l-.06749-.18608c-4.01602,5.30487-7.77921,10.81093-11.28924,16.51751l-.11886.25359h0c-1.20739,2.09622-2.40572,4.21562-3.59531,6.35819-.9549,1.56318-1.79161,3.13005-2.51014,4.70096l.05137-.44M88.85903,173.45724c2.07701-4.74832,4.31652-9.4214,6.71855-14.01958l.18635-.06751-.06749-.18608c.54796-1.13561,1.18691-2.27995,1.91618-3.43268l.11886-.25359c1.24936-2.17314,2.5098-4.3147,3.78132-6.42536l-.18601.06718c3.30522-5.32838,6.84782-10.47371,10.62813-15.43565l.18601-.06718c19.37635-25.9285,44.94779-45.65299,76.715-59.17346,18.45804-7.72656,42.47391-11.57976,72.04728-11.55961,43.52115.26904,84.07552,12.82553,121.66313,37.67016,15.22367,10.14052,26.77716,22.66813,34.66079,37.58249,7.24368,13.80764,12.4822,30.0269,15.71556,48.65776-4.37192-10.91573-10.25577-21.35383-17.65155-31.31466-6.41771-7.64662-9.58694-11.55457-9.5077-11.72352l-.30487.3211,2.42989,16.60451c2.62933,25.79079.01947,45.34398-7.82958,58.6599,1.84063-14.55027-1.46996-30.4847-9.93109-47.80329,1.03548,9.45533-1.04757,19.40876-6.25016,29.85963-3.96968,8.03859-9.35359,15.46554-16.15238,22.28153-10.49853-24.17051-30.17639-49.83569-59.03357-76.99552,16.77857,35.08658,17.26207,60.47129,1.45048,76.15415h0l-.11886.25359c-5.20159,4.98343-11.61392,5.6908-19.23734,2.12242l-4.05732-1.90107-2.86336,3.14383c-2.39867,2.70853-4.6177,4.91693-6.65744,6.6242-2.92111-15.06685-13.16849-38.53034-30.74113-70.39013l-.15411,13.53793c.00571,3.11931-.04331,6.08612-.14773,8.90113-1.12144,39.27499-7.97462,69.21321-20.56023,89.81367-5.26236,8.48967-10.83496,13.45732-16.71747,14.90261-3.89481.61466-7.11239-1.099-9.65241-5.14096,9.365-13.2521,14.51791-28.88155,15.45938-46.88802.38209-8.70128-.40996-15.15553-2.37516-19.36308l-.06749-.18608c-2.48496-5.13021-5.6233-7.01281-9.4147-5.64847-2.50443-.02452-5.06191,2.02535-7.67177,6.14927l-.11886.25359c-4.76846,8.02347-8.2439,17.42741-10.426,28.21248-2.27041,11.12532-1.84164,22.97747,1.28697,35.55647-8.80496,11.06015-18.83309,20.59072-30.08372,28.59135-13.47504,9.59841-26.27755,15.14814-38.40719,16.64918-8.20596.93811-17.11668-2.15433-26.73217-9.27697-9.68297-6.97385-20.09151-15.56227-31.22631-25.76594,5.41647-47.36127,15.21024-87.21195,29.38131-119.55171h0M202.91788,229.68067c.09133,2.22385.09334,4.75101.00638,7.58146-.61981,11.36748-3.15446,21.62455-7.60462,30.77188-.56173-6.35449-.25988-12.50275.90521-18.44445,1.48305-7.35776,3.71384-13.99406,6.69303-19.90888Z" style="fill: #120b0b;"/>
          <path d="M195.31964,268.03401c-.56173-6.35449-.25988-12.50275.90521-18.44445,1.48305-7.35776,3.71384-13.99406,6.69303-19.90888.09133,2.22385.09334,4.75101.00638,7.58146-.61981,11.36748-3.15446,21.62455-7.60462,30.77188Z" style="fill: #251214;"/>
        </g>
        <g id="hjbfhb_0_Layer0_1_FILL" data-name="hjbfhb 0 Layer0 1 FILL">
          <path d="M306.30394,174.96131c1.63045,27.77785-2.54136,47.4758-12.51577,59.09352l-9.09069-7.66173c8.09986-9.81505,15.3019-26.95898,21.60646-51.43178Z" style="fill: #120b0b;"/>
        </g>
      </g>
      <g>
        <g id="FL_7yuj_0_Layer2_0_FILL" data-name="FL 7yuj 0 Layer2 0 FILL">
          <path d="M361.06196,224.43492l-.18601.06718c5.91608,4.2351,9.17295,9.93698,9.77094,17.10564h0c.70241,8.19041-1.68484,17.69208-7.16141,28.50469-11.09887,21.61582-26.88762,33.65405-47.36627,36.1147-20.70058,2.32798-40.30894-.26031-58.8254-7.76451l4.54853-10.7058,20.1684-26.89583c3.40662-4.53269,5.48161-8.3036,6.22397-11.31274l1.48943-.53942-2.65149-3.25299c18.37713-12.79463,34.2055-20.84464,47.48479-24.15002h0c10.73591-2.72297,19.57075-1.77982,26.50452,2.82911Z" style="fill: #f9a971;"/>
          <path d="M360.87594,224.50209l.18601-.06718c-6.93377-4.60893-15.76861-5.55208-26.50452-2.82911h0c-13.27929,3.30538-29.10766,11.35539-47.48479,24.15002l-1.01433-.47527c15.92004-20.03316,31.1108-31.78455,45.57197-35.25418l.18601-.06751c14.63643-3.63555,26.66199-2.02233,36.07669,4.83934h0c8.88856,6.41327,13.76547,15.03931,14.63072,25.87846,1.0788,10.01691-1.7342,21.63899-8.43932,34.8659-13.20274,25.66618-32.09022,39.8097-56.6621,42.4309-24.13842,2.71995-44.71209-3.31076-61.72066-18.09178l-.94382-2.60743c1.30174.68116,2.14718,1.07716,2.53599,1.18834,18.51647,7.50421,38.12482,10.09249,58.8254,7.76451,20.47864-2.46065,36.2674-14.49888,47.36627-36.1147,5.47657-10.81261,7.86382-20.31429,7.16141-28.50469h0c-.59799-7.16866-3.85485-12.87054-9.77094-17.10564Z" style="fill: #be6e35;"/>
        </g>
        <g style="mask: url(#mask-2);">
          <g id="Symbol_3_0_Layer0_0_FILL-3" data-name="Symbol 3 0 Layer0 0 FILL">
            <path d="M310.55667,311.38891c-16.6389-8.1548-28.0883-20.87924-34.34719-38.17297-6.36365-17.58191-5.71161-34.68923,1.95613-51.32162,7.47166-16.72475,19.70707-28.16546,36.70624-34.32245,16.9995-6.157,33.79285-5.23031,50.37971,2.78074,16.24673,7.97108,27.55175,20.74757,33.9154,38.32915,6.25889,17.29373,5.75089,34.34899-1.52435,51.16543-7.66774,16.63272-20.00119,28.02741-37.0007,34.18441-16.99917,6.157-33.69447,5.27632-50.08525-2.64269Z" style="fill: url(#radial-gradient-3);"/>
          </g>
        </g>
      </g>
    </g>
  </g>
  <g>
    <path d="M199.66471,338.59208c9.04133-20.37004,39.10994-.25863,95.78212,1.84162,43.20956,1.60046,67.33019-13.05527,75.85714,3.68157,12.48152,24.4943-24.37816,73.55209-94.74093,67.71989-57.9343-4.8034-86.10083-52.51163-76.89833-73.24308Z" style="fill: #2b1010;"/>
    <g>
      <g>
        <path d="M233.02712,392.02032c-1.0882-3.73699.35053-7.48708,4.15939-10.84351,4.14663-3.65167,19.05435-8.06445,31.34919-8.06445,7.41793,0,12.64806,1.58904,15.12798,4.59449.32804.39634.93576.48434,1.36889.11554,1.97124-1.70358,5.28687-2.6034,9.58728-2.6034,11.63105,0,28.42607,6.63428,34.5567,13.65112,1.74393,1.99882,2.5145,3.86429,2.28787,5.54603-1.26984,9.39688-16.96526,14.78639-43.06183,14.78639-9.57049,0-20.07271-.78663-28.81622-2.15903-14.33928-2.25039-24.5175-8.00634-26.55925-15.02319Z" style="fill: #ee4237;"/>
        <path d="M259.45273,407.9c-14.67739-2.30379-25.1222-8.29486-27.25931-15.63751-1.18624-4.08429.34214-8.14305,4.42061-11.73594,4.25911-3.75109,19.44753-8.28076,31.92099-8.28076,7.6852,0,13.14566,1.6972,15.92977,4.91962,2.13241-1.84028,5.64244-2.81332,10.15572-2.81332,11.83418,0,28.94516,6.77837,35.20942,13.94871,1.91584,2.19665,2.75491,4.29287,2.49301,6.2319-1.33498,9.87417-17.34265,15.53675-43.92037,15.53675-9.61212,0-20.16471-.79066-28.94986-2.16944ZM285.59564,378.48004c-.37739.32379-.86022.47728-1.34539.43631-.48584-.04165-.94281-.28147-1.25574-.65765-2.30835-2.79989-7.30915-4.27943-14.45948-4.27943-12.11085,0-26.73955,4.29388-30.77706,7.84815-3.53655,3.11729-4.88597,6.55837-3.89918,9.95142,1.94606,6.6897,11.85634,12.21054,25.86154,14.40819l-.13397.85649.13397-.85649c8.70154,1.36602,19.15508,2.14895,28.68226,2.14895,25.61442,0,40.99792-5.11577,42.20396-14.03537.19205-1.42144-.50935-3.0565-2.08104-4.86017-5.99935-6.86436-22.47574-13.35488-33.905-13.35488-4.09022,0-7.21111.8266-9.02488,2.39448Z" style="fill: #be2227;"/>
      </g>
      <g>
        <path d="M236.55259,380.45635c6.72123-5.92356,39.53065-13.44691,47.85177-3.36148,10.56199-9.12482,49.60276,5.66594,48.01059,17.45025-2.40034,17.77001-48.49106,17.29004-72.97632,13.44792-24.48593-3.84245-34.52682-17.27929-22.88604-27.53669Z" style="fill: #ee4237;"/>
        <path d="M259.30433,408.84853c-15.04773-2.36123-25.78902-8.61261-28.03155-16.31599-1.28092-4.40404.39082-8.92363,4.70836-12.72645h0c5.16633-4.55418,23.28056-9.412,36.23382-8.38085,5.67669.45075,9.80619,1.96086,12.29249,4.49137,7.25106-5.12988,24.61755-1.7422,36.8627,4.89375,8.15862,4.4205,12.4963,9.46842,11.90368,13.85064-.43649,3.23653-2.23717,6.05455-5.34932,8.37346-7.98906,5.9558-23.95745,7.95899-39.66898,7.95899-10.61537,0-21.11759-.91561-28.9512-2.14492ZM284.97146,377.75152l-.67253.57906-.56374-.68284c-2.05921-2.49726-6.09034-4.05171-11.65791-4.49507-13.12988-1.03283-30.53901,4.06548-34.95223,7.95361h0c-3.83874,3.38297-5.28687,7.1653-4.1886,10.94159,2.05317,7.05077,12.25892,12.83192,26.63513,15.08768,19.14501,3.00712,54.35577,4.17363,67.31911-5.49095,2.72301-2.03005,4.29302-4.45879,4.66739-7.21569.48181-3.57509-3.63359-8.09602-11.0119-12.09399-7.8289-4.24047-18.1055-7.19251-25.96966-7.19251-4.07679,0-7.50355.79301-9.60507,2.60911Z" style="fill: #be2227;"/>
      </g>
      <g>
        <path d="M283.07879,382.38329c-.05506-1.83726-.10946-3.67048-.15646-5.26087.59127.27676,1.18725.5458,1.73688.8659.36631-.19279.75781-.36342,1.16844-.52095-.25484,1.54168-.54561,3.31009-.83604,5.08285-.31192,1.70291-1.29469,7.17504-2.04243,8.93438-.19105.51759-.30218.81417-.30218.81417,0,0,.05036-.30834.14068-.84641.39485-1.82785.31158-7.36817.2911-9.06906Z" style="fill: #ee4237;"/>
        <path d="M282.647,394.03325c.70946,0,1.36755-.43731,1.62541-1.13023l.30252-.8182c.67555-1.58333,1.47029-5.66325,2.08675-9.03111l.87432-5.30386c.10241-.61264-.13363-1.23335-.61377-1.62565-.48215-.39399-1.13722-.49643-1.71573-.27441-.16989.06516-.33509.132-.49927.20119-.27465-.13603-.55535-.26736-.83604-.39869l-.21388-.10009c-.5446-.25392-1.18255-.20824-1.68484.12125-.5033.3305-.79877.89747-.78232,1.49903l.15714,5.42344c.05842,4.59046-.0282,7.44711-.25316,8.49068l-.15546.93139c-.14572.88168.40258,1.7281,1.26346,1.95683.14941.03963.29782.05844.44488.05844Z" style="fill: #be2227;"/>
      </g>
    </g>
    <path d="M223.22831,385.34272c4.36857-6.68903,113.76607-1.83759,119.10632,8.91389.92468,1.85943,1.22989.87698-.04633,4.89711-24.05851,13.91009-63.35782,13.57488-63.35782,13.57488,0,0-36.37081-6.48582-58.01589-22.68794-.16452-3.69064.85686-2.46669,2.31372-4.69794Z" style="fill: #fff;"/>
    <path d="M222.4329,384.82278c3.23471-4.9522,46.71791-3.94624,75.53884-1.35695,19.13158,1.71869,42.50514,4.91189,45.21438,10.36757.92065,1.85069,1.31148.61499.30353,4.59113-.7934.49005-1.60325.96196-2.43191,1.4117,1.62911-4.12997,1.25742-3.48273.42541-5.15574-1.35647-2.73103-13.54353-6.61245-43.68131-9.31997-36.71362-3.29799-71.83877-2.46569-73.77677.5018-1.41086,2.16004-.72893,2.92282-.39183,6.62454-.67118-.48131-1.32457-.97707-1.96856-1.48291.01242-3.73262-.61175-4.06783.76822-6.18118Z" style="fill: #a4a3a3;"/>
    <path d="M348.24501,348.99055c-4.48105,7.94958-113.95779,3.98352-119.13453-8.59648-.89547-2.17549-1.13386-5.40664.20851-10.16302,27.81197,6.51739,63.61031,9.61554,63.61031,9.61554,0,0,31.69301-1.29515,57.7916-2.55469.10644,4.34594-.98042,9.04622-2.47589,11.69866Z" style="fill: #fff;"/>
    <path d="M349.06191,349.2831c-3.3257,5.97394-46.86028,5.5326-75.68187,2.94398-19.13091-1.71869-42.48634-5.12518-45.10358-11.59622-.8901-2.19598-1.21176-5.19202-.13296-9.96082.8028-.59921,1.62205.55689,2.46112.0047-1.70465,4.96328-1.4122,6.92952-.60806,8.91389,1.31013,3.23922,13.44918,7.66442,43.58729,10.3716,36.71329,3.29799,71.90861,1.6888,73.90168-1.89167,1.45082-2.60508,2.57662-7.67685,2.30365-12.09399.66447.56327,1.31013,1.14434,1.94606,1.73683-.07756,4.46047-1.25473,9.02305-2.67332,11.5717Z" style="fill: #a4a3a3;"/>
    <path d="M387.14845,349.87861c.03828-.2116,3.24948-7.06252-1.95479-14.45623-5.59107-8.69389-12.7367-6.64637-12.92943-6.67626.45764.29893,5.72705,2.2205,9.73165,8.8007,4.01065,5.34484,5.0881,12.139,5.15257,12.33179Z" style="fill: #c5763f;"/>
    <path d="M203.58269,315.77751c-4.75066-1.16718-8.74654,1.03048-11.73916,4.82859-6.15179,7.25666-2.03,12.27033-2.02161,12.46278.08125-.19347.21959-4.78997,5.02128-10.06528,4.46224-6.03138,8.47356-7.04607,8.73948-7.2261Z" style="fill: #c5763f;"/>
    <path d="M299.28791,424.32246c-14.29865,2.12309-18.35094.98648-32.64791-.96095.87465.44672,4.94104,4.65763,16.16682,5.8453,9.64839.67814,15.44158-4.32041,16.48109-4.88435Z" style="fill: #c5763f;"/>
    <path d="M276.40322,413.74967c-31.48618-2.61045-58.71259-18.3897-72.82691-42.20956-7.38872-12.46849-9.50837-25.07671-5.66728-33.72727,3.12592-7.04439,8.6213-10.18452,17.81271-10.18452,16.06441,0,42.02635,9.4869,79.79593,10.88516,26.99104,1.00461,46.45602-4.41781,59.67487-4.41781,6.1266,0,13.69227,1.03955,17.82245,9.14732,4.59823,9.02204,3.11451,20.92156-4.06638,32.64608-11.35404,18.53648-38.59589,38.34427-81.01306,38.34427-3.77729,0-7.65599-.1629-11.53233-.48367ZM295.37531,342.35358c-37.78839-1.40095-64.41848-10.88382-79.65357-10.88382-7.66673,0-11.81135,2.28901-14.30201,7.90189-3.28742,7.40378-1.19463,18.97951,5.45979,30.20928,5.05251,8.5236,25.0161,36.62322,69.84301,40.33905,3.76957.31304,7.54116.47124,11.21302.47124,40.83037,0,66.92829-18.85926,77.73874-36.50936,6.46639-10.55869,7.89572-21.09084,3.91966-28.89431-2.55211-5.00728-6.72325-7.04909-14.4014-7.04909-12.71152,0-32.48406,5.42579-59.81724,4.41513Z" style="fill: #c5763f;"/>
  </g>
</svg>