<?xml version="1.0" encoding="UTF-8"?>
<svg id="Layer_1" data-name="Layer 1" xmlns="http://www.w3.org/2000/svg" xmlns:xlink="http://www.w3.org/1999/xlink" viewBox="0 0 500 500">
  <defs>
    <radialGradient id="radial-gradient" cx="-5276.95086" cy="2467.86845" fx="-5276.95086" fy="2467.86845" r="44.58261" gradientTransform="translate(-3620.96683 -1290.60328) rotate(179.48) scale(.76 -.67)" gradientUnits="userSpaceOnUse">
      <stop offset="0" stop-color="#f29477"/>
      <stop offset=".97" stop-color="#fabfa0"/>
    </radialGradient>
    <linearGradient id="linear-gradient" x1="-4228.91547" y1="992.1764" x2="-4232.15533" y2="947.94402" gradientTransform="translate(-3975.39519 -470.2135) rotate(179.48) scale(1 -1)" gradientUnits="userSpaceOnUse">
      <stop offset="0" stop-color="#f29477"/>
      <stop offset=".97" stop-color="#fabfa0"/>
    </linearGradient>
    <radialGradient id="radial-gradient-2" cx="-5079.46441" cy="2471.06149" fx="-5079.46441" fy="2471.06149" r="44.58261" gradientTransform="translate(-3776.79194 -1286.97582) rotate(179.48) scale(.76 -.67)" xlink:href="#radial-gradient"/>
    <radialGradient id="radial-gradient-3" cx="-3824.51375" cy="-6952.57006" fx="-3824.51375" fy="-6952.57006" r="32.451" gradientTransform="translate(-3457.77279 -6744.22574) rotate(-180) scale(1 1.0218)" gradientUnits="userSpaceOnUse">
      <stop offset="0" stop-color="#f39476"/>
      <stop offset=".96863" stop-color="#fabfa1"/>
    </radialGradient>
    <radialGradient id="radial-gradient-4" cx="-3810.65212" cy="-6774.9878" fx="-3810.65212" fy="-6774.9878" r="38.8812" gradientTransform="translate(-4447.54716 -6893.04588) rotate(-180) scale(1.22638 1.07088)" xlink:href="#radial-gradient-3"/>
  </defs>
  <g>
    <g>
      <g id="Layer3_40_FILL" data-name="Layer3 40 FILL">
        <path d="M382.41007,301.0914c2.84816-4.35182,6.28015-7.66006,10.33126-9.92441,4.11309-2.39715,8.64188-3.61781,13.63065-3.67082,10.28709-.09729,18.74315,3.37011,25.35942,10.39323,7.01427,7.54507,10.5701,16.77952,10.66738,27.72116.09729,10.8179-3.29048,19.99042-10.1633,27.51779-6.93474,7.73084-15.32008,11.6404-25.15605,11.72883-6.03245.05302-11.54317-1.10566-16.54068-3.485-6.37743-2.89243-11.54317-7.56278-15.46158-14.01104-.99952-1.68948-1.25607-4.24568-.76068-7.66006.73412-5.70529,1.08806-9.84483,1.07025-12.39228-.05312-5.57259.398-10.23408,1.3445-13.97563,1.07025-4.00695,2.97201-8.08462,5.69643-12.24187l-.0176.00011Z" style="fill: #fabfa0;"/>
      </g>
      <g id="Layer3_40_1_STROKES" data-name="Layer3 40 1 STROKES">
        <path d="M407.09724,366.29011c-6.21828.06198-11.99418-1.16753-17.17762-3.62655-6.59867-2.98972-12.01189-7.89005-16.07185-14.56819-1.18535-2.01676-1.50366-4.8295-.94651-8.60646.71641-5.59904,1.07025-9.70327,1.05254-12.18-.05302-5.66102.41581-10.49937,1.38877-14.33821,1.11452-4.15725,3.087-8.41189,5.88215-12.67528,2.9543-4.52879,6.60742-8.02275,10.82665-10.38438,4.2811-2.49433,9.10185-3.79467,14.32061-3.84769,10.65853-.09729,19.53936,3.54698,26.41218,10.82665,7.24425,7.77506,10.95935,17.43417,11.06549,28.68526.09729,11.13621-3.44084,20.7246-10.54353,28.49955-7.18233,7.99614-15.99227,12.10043-26.19094,12.1976l-.01792.01771ZM406.38957,288.9291c-4.70576.03542-9.04884,1.2118-12.92298,3.47625-3.83883,2.15831-7.15593,5.33375-9.85368,9.46454-2.61818,4.0158-4.46692,7.98734-5.50186,11.83502-.91109,3.58239-1.35336,8.1642-1.29149,13.58638.02656,2.64474-.32727,6.76668-1.0791,12.59571-.45112,3.087-.25655,5.35145.57497,6.74897,3.7504,6.1563,8.73917,10.68509,14.81589,13.43597,4.80305,2.2909,10.16325,3.40553,15.93926,3.36126,9.36715-.07958,17.47828-3.87419,24.10346-11.26006,6.59856-7.2354,9.89784-16.16039,9.80067-26.55362-.09718-10.39323-3.55583-19.5305-10.29584-26.7659-6.289-6.67814-14.47976-10.02169-24.29803-9.93326l.00875.00875Z" style="fill: #dd5d30;"/>
      </g>
    </g>
    <g id="Layer3_40_MEMBER_0_FILL" data-name="Layer3 40 MEMBER 0 FILL">
      <path d="M370.53963,343.72584l2.52974-19.05271c4.55535-13.59523,10.28709-22.54678,17.16877-26.86319l13.63054,59.23698c-7.6511,6.20057-18.76086,1.76021-33.31145-13.32097l-.0176-.00011Z" style="fill: #fabfa0;"/>
    </g>
    <g id="Layer3_40_MEMBER_1_FILL" data-name="Layer3 40 MEMBER 1 FILL">
      <path d="M385.52364,349.7937c-5.85559-6.29785-8.8276-13.9225-8.91603-22.87395-.08843-8.95144,2.74202-16.68223,8.49147-23.19247,5.69643-6.35098,12.64883-9.57068,20.83948-9.6414,8.15535-.07083,15.18743,3.01628,21.09603,9.26112,5.81143,6.39514,8.75687,14.08176,8.83645,23.02436s-2.72432,16.62911-8.42075,23.03321c-5.79372,6.44826-12.76372,9.72098-20.91917,9.79171-8.19962.07969-15.21388-3.06044-21.01645-9.41131l.00896.00875Z" style="fill: url(#radial-gradient);"/>
    </g>
    <g id="Layer3_40_MEMBER_2_FILL" data-name="Layer3 40 MEMBER 2 FILL">
      <path d="M424.21289,325.07986c-1.24711-.64569-2.75973-.7961-4.52005-.45112-2.81275.47768-5.51946,2.28216-8.11118,5.38676-.99067-.31842-1.78677-1.52137-2.39715-3.6177-.61924-2.35288-.46883-4.71462.42456-7.07624,2.29976-6.58096,9.04873-10.03951,20.25566-10.40209-8.92488-1.03494-15.32888.76954-19.22083,5.38687-2.66245,3.10471-3.90081,6.8198-3.7328,11.14506.16812,3.40542,1.16764,5.78486,3.00743,7.14697-1.14993,3.485-1.37992,6.59856-.69881,9.34955.53955,2.2909,1.6098,4.08653,3.202,5.37791,2.63588,2.14049,6.9348,2.22903,12.88756.27415-5.69643,1.16753-9.82712.32727-12.40988-2.5386-2.37944-2.73317-2.77744-6.52784-1.18524-11.39276,1.24722.84037,2.69786,1.38877,4.34308,1.63636,2.49444.44227,4.84721.05312,7.06739-1.14108,2.41475-1.26482,3.64426-2.88347,3.68842-4.85606.11499-1.90176-.75194-3.29928-2.59161-4.20152M422.1077,332.08538c-2.74202,1.00838-5.86444.80495-9.34059-.60153,2.0079-3.03388,4.51108-4.59962,7.52736-4.69691,2.55631-.15041,4.1308.48643,4.73222,1.91947.61027,1.37107-.37154,2.49433-2.91899,3.36126v.01771Z" style="fill: #dd5d30;"/>
    </g>
    <g id="Layer3_41_FILL" data-name="Layer3 41 FILL">
      <path d="M177.61458,50.22971c-16.90337,15.96571-30.79056,34.68241-41.66137,56.11467-11.23349,21.91869-18.08861,46.429-20.55659,73.52217-4.16621-6.76668-7.5008-13.23254-10.01284-19.37124-3.97153-9.63244-6.05016-14.55945-6.22713-14.78932l-1.79562-2.92785-2.5386,2.37944c-5.28062,4.62608-10.64093,12.21542-16.10727,22.75895-8.03161,15.2493-11.69347,30.28632-10.99465,45.11991v.19457c1.92832,18.7344,7.19124,35.01853,15.78005,48.80839l-.10619-.00005c3.45854,5.66987,9.22565,12.42764,17.28371,20.29113,5.28068,4.99767,13.35644,12.10037,24.17418,21.30831,17.77024,15.04593,32.46228,26.83668,44.06732,35.38128,14.38248,10.61437,28.16348,19.44202,41.33404,26.45628l-.10619-.00005c6.21822,3.65306,17.56676,4.98877,34.05443,4.0158,16.65567-1.01723,33.42634-4.28995,50.33866-9.79171,19.72497-6.29785,35.90306-14.53288,48.53419-24.72269,14.36477-11.53431,23.09508-24.72269,26.18208-39.55629l23.97076-1.89291.76954-1.4772c13.53336-24.76685,20.00808-51.07289,19.42426-78.91779-.61924-30.65786-6.61627-51.70962-17.97361-63.13779h-.10625c-1.30023-1.30023-2.58287-1.64521-3.83883-1.04379-.9464.15041-1.79562.91109-2.52974,2.28205-.68996,1.16764-1.29138,3.27272-1.81322,6.30671-.08843.38925-.76068,6.88157-1.98134,19.47738-2.98972-18.84044-7.5008-35.22207-13.51565-49.12686-5.891-13.6395-13.00266-24.43073-21.33487-32.33838-3.24627-3.0517-6.24473-5.37791-9.01342-6.99667l-.09729-.09729c-2.97201-1.80437-5.36905-2.57401-7.19124-2.2909-2.48558-.23884-3.7504,2.19362-3.76811,7.30623-.04427,2.62703.52195,6.87282,1.68948,12.76382,1.98134,8.8276,2.98972,15.24941,3.03388,19.23854-8.98675-27.66814-20.4769-47.64966-34.47013-59.94465-6.54555-5.71414-12.94069-9.88024-19.18552-12.49842-6.58982-2.804-10.84435-3.32584-12.79028-1.55678-3.44969,1.71605-2.49433,13.1087,2.86587,34.17816h0c.91984,3.44969,4.70576,13.25025,11.37505,29.38419-11.88804-23.47547-19.5128-43.28887-22.85635-59.45812-3.34355-16.18695.40685-29.38408,11.24235-39.61816l3.89196-4.06882-5.31604-1.03483c-12.35687-2.64474-26.88964-.45997-43.58084,6.58971-16.92993,7.09384-33.10803,18.01788-48.56075,32.78065M228.48405,22.92425c12.93183-5.46645,24.44844-7.80151,34.54085-6.99667-9.24341,11.13621-11.897,25.99637-7.95192,44.60681,3.19314,15.24055,15.10785,39.3439,35.75266,72.31923l.07958-1.86635c-6.61627-21.61787-11.21589-37.23871-13.79876-46.86241-4.4314-17.36334-6.18286-26.6156-5.27188-27.77428.95536-.22999,3.35241.46883,7.19124,2.09633,5.73174,2.44131,11.59618,6.289,17.60218,11.5342,16.00124,14.12593,29.40179,36.74343,40.23729,67.8523,1.91062-12.52498,2.36174-22.95363,1.38867-31.26813-.69871-5.42218-1.02598-9.51756-.99067-12.27729-.02656-.52195-.09729-.91098-.20342-1.17649.61913.24769,1.37107.64569,2.2732,1.15868h.10625v.10625c2.51204,1.45064,5.14792,3.48511,7.92536,6.12088,20.42378,19.55696,32.77179,50.53323,37.02644,92.94643,5.42218-21.69745,8.2969-33.29374,8.63303-34.7798v-.10625c.10614-.72527.22999-1.37992.38029-1.97249,8.91603,11.18048,13.64825,30.08289,14.17905,56.68964.65454,29.47262-4.42265,54.48717-15.24044,75.0525l-27.89802,1.43294-.47768,2.26445c-2.51204,14.4532-10.68509,27.24348-24.51927,38.37094-12.15344,9.76525-27.72126,17.6729-46.66784,23.72317-16.41694,5.3426-32.71003,8.50918-48.87031,9.491-14.89552.88448-25.156-.19457-30.79936-3.25507l-.00005-.10619c-27.92458-14.88661-57.64484-35.69084-89.14301-62.39482-16.24002-13.67486-28.05734-26.64211-35.452-38.90169h0c-8.10228-13.10875-13.06453-28.56153-14.87781-46.36708-.57497-13.7898,2.87472-27.78303,10.33126-41.97978,3.9981-7.7485,7.94307-13.78105,11.83502-18.09757.90224,2.29987,2.2732,5.68758,4.12183,10.18981,3.85654,9.39371,8.64188,16.9918,14.36477,22.76781l4.26339,4.58192.72527-6.29785c2.71557-26.56248,10.03055-51.46203,21.92755-74.71627,10.5701-20.83074,24.0593-39.00777,40.49383-54.54008,14.89546-14.22321,30.4986-24.74915,46.80054-31.58666M337.59076,139.69114v-.19457c-.07072-.05302-.1327-.11499-.19457-.19457.05302.12385.11499.25644.19457.38914Z"/>
      <path d="M181.68351,54.51091c-16.42579,15.52355-29.92363,33.70945-40.49383,54.54008-11.89689,23.25434-19.21198,48.15379-21.92755,74.71627l-.72527,6.29785-4.26339-4.58192c-5.71403-5.78486-10.50823-13.3741-14.36477-22.76781-1.85749-4.49338-3.2197-7.89005-4.12183-10.18981-3.8831,4.30766-7.82807,10.34022-11.83502,18.09757-7.46539,14.1879-10.90622,28.17228-10.33131,41.97984,1.81322,17.7879,6.76668,33.24947,14.87781,46.36708h0c7.39466,12.25958,19.21198,25.22683,35.452,38.90169,31.49817,26.70398,61.20947,47.49925,89.14301,62.39482l.00005.10619c5.64336,3.0605,15.90384,4.13954,30.79931,3.25512,16.16028-.98182,32.45337-4.1484,48.87031-9.491,18.96439-6.05016,34.5144-13.95792,46.66784-23.72317,13.83407-11.12736,22.00712-23.91763,24.51927-38.37094l.47768-2.26445,27.89802-1.43294c10.80894-20.55648,15.88613-45.57103,15.24044-75.0525-.5307-26.60664-5.26291-45.50905-14.17905-56.68964-.15041.59267-.27415,1.24722-.38029,1.97249v.10625c-.33613,1.48606-3.21085,13.08213-8.63303,34.7798-4.2635-42.42205-16.60266-73.40718-37.02644-92.94643-2.76858-2.62714-5.41332-4.67024-7.92536-6.12088v-.10625h-.10625c-.89338-.52195-1.65407-.91098-2.2732-1.15868.10614.26529.17686.65454.20342,1.17649-.03531,2.75973.29196,6.85511.99067,12.27729.98182,8.32346.52184,18.74326-1.38867,31.26813-10.8355-31.10887-24.2449-53.73523-40.23729-67.8523-6.006-5.24521-11.87033-9.093-17.60218-11.5342-3.83883-1.62751-6.23588-2.32632-7.19124-2.09633-.91995,1.14993.84026,10.41094,5.27188,27.77428,2.58287,9.6237,7.18238,25.24443,13.79876,46.86241l-.07958,1.86635c-20.64502-32.97532-32.55962-57.07878-35.75266-72.31923-3.95383-18.6017-1.29149-33.47061,7.95192-44.60681-10.08367-.7961-21.60017,1.53907-34.54085,6.99667-16.31069,6.84626-31.91382,17.37219-46.80054,31.58666M337.59076,139.69114c-.07958-.1327-.14156-.26529-.19457-.38914.06187.07958.1327.1327.19457.19457v.19457Z" style="fill: #251b1b;"/>
    </g>
    <g id="Layer3_41_MEMBER_0_FILL" data-name="Layer3 41 MEMBER 0 FILL">
      <path d="M114.8926,186.20857l2.86587-6.19171c2.19362,3.94497,5.97058,10.18096,11.31307,18.70784-5.65216-3.37001-10.37553-7.54507-14.1702-12.52487l-.00875.00875Z"/>
    </g>
    <g id="Layer3_42_FILL" data-name="Layer3 42 FILL">
      <path d="M172.54635,162.62695c-17.48719,30.43662-29.51678,64.56198-36.12425,102.3755-5.85564,33.61211-7.90771,73.96438-6.16521,121.06564.68991,18.00897,4.59077,33.28489,11.72888,45.80102,7.19129,12.58691,18.26552,23.43115,33.23187,32.52421,13.57752,8.32346,28.70297,14.78047,45.40291,19.34468,17.15101,4.69685,34.83276,7.0939,53.05418,7.18244,37.41563.24764,69.00224-7.84578,94.74205-24.26261,29.18951-18.61056,44.4211-44.19111,45.69488-76.70657.70761-15.86848-.55731-35.70855-3.79462-59.53775-2.11404-16.16028-5.72289-37.6014-10.80894-64.28762-2.61818-13.86938-10.80008-48.62262-24.54572-104.27721l-.51299-2.15831-201.01842,1.45054-.86682,1.48595M176.80974,167.0143l196.61337.56611c13.62179,55.1239,21.87442,90.26638,24.74915,105.4537,7.83693,41.39596,11.00362,79.53702,9.4999,114.44051-1.27373,30.55167-15.60313,54.54018-42.98816,71.96539-24.90836,15.88619-55.38044,23.69661-91.40736,23.44006-35.74386-.25649-66.58743-8.29685-92.53078-24.12122-28.15457-17.11564-43.50126-39.94543-46.0398-68.48919-7.30623-86.29485,6.72236-160.7015,42.10369-223.23787v-.01749Z" style="fill: #dd5d30;"/>
      <path d="M180.76362,458.74131c-28.15457-17.11564-43.50126-39.94543-46.0398-68.48919-7.30623-86.29485,6.72241-160.70156,42.10363-223.23782l196.61337.56611c13.62179,55.1239,21.87442,90.26638,24.74915,105.4537,7.83693,41.39596,11.00362,79.53702,9.4999,114.44051-1.27373,30.55167-15.60313,54.54018-42.98816,71.96539-24.90836,15.88619-55.38044,23.69661-91.40736,23.44006-35.74386-.25649-66.58743-8.29685-92.53078-24.12122l.00005-.01755Z" style="fill: url(#linear-gradient);"/>
    </g>
    <g id="Layer3_43_FILL" data-name="Layer3 43 FILL">
      <path d="M298.65382,278.95168c.04416,4.97991-.12385,14.68319-.52184,29.10993-.20342,20.58304,6.66939,37.39798,20.6096,50.43595-6.16515-.46883-12.63987-2.30861-19.4154-5.52832-10.46396-4.9445-15.95697-7.55393-16.48766-7.81922l4.35193-18.52213,4.36068-17.92945,7.1027-29.74677Z" style="fill: #fabfa0;"/>
    </g>
    <g id="Layer3_45_FILL" data-name="Layer3 45 FILL">
      <path d="M317.79507,352.20845c-4.37838-6.25369-7.83704-14.80703-10.35782-25.66024-2.79515-12.02959-2.60047-23.24549.57486-33.62101-1.08806,10.49937.5307,22.37856,4.84721,35.64662,3.77696,11.56087,9.40256,21.99827,16.90337,31.30355-16.13383-1.02598-29.61407-6.47482-40.45842-16.34611,5.59029,2.83045,15.09014,5.73174,28.48184,8.68615l.00896-.00896Z" style="fill: #dd5d30;"/>
    </g>
    <g>
      <g id="Layer3_46_FILL" data-name="Layer3 46 FILL">
        <path d="M112.67242,290.37975c4.67035,2.51214,8.64183,6.1475,11.89695,10.90628,3.12242,4.69691,5.32489,9.25215,6.60742,13.70137,1.21186,4.18387,1.84864,9.42027,1.91056,15.70922.02656,2.87472.49539,7.53622,1.40643,13.94912.62804,3.79462.35378,6.68705-.80495,8.65948-4.19261,7.37701-9.87139,12.73726-17.05377,16.0807-5.60789,2.74202-11.7643,4.13954-18.44249,4.20147-11.13621.09729-20.68033-4.10423-28.62345-12.61347-7.88114-8.44726-11.87033-18.76971-11.97658-30.95857-.11499-12.25073,3.69733-22.67932,11.41932-31.26813,7.27082-7.99619,16.73536-12.0473,28.39346-12.15339,5.57253-.05307,10.65858,1.21175,15.27586,3.79467l-.00875-.00875Z" style="fill: #fabfa0;"/>
      </g>
      <g id="Layer3_46_1_STROKES" data-name="Layer3 46 1 STROKES">
        <path d="M98.20151,375.01168c-11.49884.10619-21.48517-4.28995-29.6849-13.07339-8.09342-8.67724-12.25078-19.41546-12.36577-31.91388-.11505-12.5692,3.84763-23.41355,11.7819-32.23235,7.51846-8.27925,17.41641-12.51607,29.44606-12.62227,5.80252-.05307,11.17168,1.28258,15.98347,3.97159,4.8295,2.60047,9.00451,6.42165,12.38348,11.33969,3.20205,4.81185,5.4841,9.55292,6.80199,14.10822,1.24722,4.28995,1.91062,9.69453,1.96363,16.09841.02651,2.80395.49533,7.43002,1.38877,13.75449.68105,4.14845.35378,7.28847-.99067,9.58828-4.31651,7.58923-10.26053,13.19723-17.6817,16.65573-5.75836,2.80395-12.16224,4.2723-19.03517,4.33417l.00891-.00869ZM97.41432,288.01807c-11.19819.10614-20.39727,4.03346-27.35852,11.68467-7.43893,8.27034-11.15392,18.46015-11.03892,30.28632.10609,11.76425,4.0069,21.85677,11.59618,29.99446,7.61585,8.16425,16.89451,12.25958,27.5708,12.16224,6.43935-.05307,12.4365-1.41528,17.83217-4.05111,6.89047-3.2109,12.41884-8.42075,16.44345-15.50579.99952-1.68948,1.20295-4.2811.63684-7.71308-.91995-6.47482-1.39757-11.23355-1.42414-14.1614-.06192-6.12979-.68111-11.29547-1.85749-15.32002-1.23836-4.2811-3.40542-8.76573-6.43055-13.31223-3.09591-4.52885-6.93469-8.04921-11.38385-10.4286-4.38729-2.45897-9.29637-3.67077-14.58595-3.61775v-.01771Z" style="fill: #dd5d30;"/>
      </g>
    </g>
    <g id="Layer3_46_MEMBER_0_FILL" data-name="Layer3 46 MEMBER 0 FILL">
      <path d="M135.1041,327.81303l8.09348,22.63511c-19.80471,15.50579-38.49479,21.19332-56.07046,17.06257l27.58846-69.67449c8.19071,4.75872,14.984,14.75402,20.38842,29.9767l.00011.00011Z" style="fill: #fabfa0;"/>
    </g>
    <g id="Layer3_46_MEMBER_1_FILL" data-name="Layer3 46 MEMBER 1 FILL">
      <path d="M79.17531,356.92302c-5.85559-6.29785-8.8276-13.9225-8.91603-22.87395-.08843-8.95144,2.74202-16.68223,8.49142-23.19242,5.69638-6.35092,12.64878-9.57063,20.83948-9.6414,8.19071-.07078,15.18743,3.01628,21.09609,9.26106,5.81137,6.39519,8.75687,14.08176,8.83645,23.02436.08843,8.95144-2.72437,16.62916-8.42075,23.03321-5.79366,6.44821-12.76377,9.72104-20.91917,9.79171-8.19956.07963-15.21388-3.06044-21.0164-9.41136l.00891.0088Z" style="fill: url(#radial-gradient-2);"/>
    </g>
    <g id="Layer3_46_MEMBER_2_FILL" data-name="Layer3 46 MEMBER 2 FILL">
      <path d="M106.00308,335.17244c-3.51161-4.0246-7.13817-6.35978-10.87086-6.9789-2.43246-.43341-4.46692-.22113-6.09437.64574-2.34397,1.26487-3.47625,3.17543-3.38777,5.74054.15916,2.61818,1.88405,4.76763,5.16574,6.43941,3.03399,1.4772,6.1387,1.91062,9.35835,1.29143,2.1582-.47768,4.08653-1.25607,5.77596-2.30867,2.22018,6.46597,1.75141,11.55197-1.43288,15.24935-3.24627,3.82998-8.66833,4.98877-16.28418,3.49391,7.95187,2.55625,13.64835,2.36174,17.10679-.5484,2.07863-1.7249,3.46734-4.12189,4.1573-7.21775.81375-3.67962.45117-7.86344-1.09681-12.578,2.34408-1.79557,3.62655-4.95335,3.84769-9.4734.07958-5.70529-1.67172-10.60546-5.24526-14.69209-5.43098-5.97938-14.064-8.22612-25.91673-6.74006,15.01051.25649,24.13002,4.72347,27.34972,13.40951,1.20289,3.13122,1.43294,6.24473.68111,9.33184-.69881,2.8216-1.73365,4.47578-3.10466,4.94455M88.09134,333.76596c.76948-1.97254,2.84816-2.84816,6.27129-2.60943,3.99815.08849,7.33279,2.06103,9.97748,5.90866-4.50228,2.00785-8.59766,2.37054-12.27723,1.09686-3.35241-1.14108-4.67915-2.60938-3.98039-4.38724l.00885-.00885Z" style="fill: #dd5d30;"/>
    </g>
    <g>
      <g id="Layer3_47_FILL" data-name="Layer3 47 FILL">
        <path d="M246.15695,214.24825c-5.23646,8.10233-11.04778,14.0551-17.43406,17.85862-5.92642,3.66197-10.9682,4.58192-15.10774,2.79515-4.2811-1.92832-6.34201-6.43055-6.21828-13.5068-10.7028,18.91127-21.05176,33.91287-31.047,45.00492-11.55191,12.75497-24.0857,21.98062-37.59255,27.66814,1.35336,12.18,1.44184,22.10446.2742,29.78213-1.10566,7.73964-2.71552,11.33083-4.81185,10.75587-2.10524-.63689-3.61775-5.10381-4.5465-13.42722-.92875-8.37653-4.72336-21.77714-11.38396-40.20192l2.31747-25.77523,2.63594-23.81155,9.01342-78.43136c71.92998-10.49052,148.28271-13.60408,229.06695-9.36715,12.295,11.74648,21.16676,29.00379,26.62446,51.76274l13.18838,44.99606c-23.97961-6.46586-42.53715-15.70042-55.69001-27.70356-6.60742-6.04141-10.91508-11.18048-12.92298-15.41741-4.21923,19.23854-10.95935,34.57627-20.22046,45.99559-6.0237,7.52736-14.1879,14.11707-24.49271,19.78694,2.2733-17.06263.35383-32.9046-5.74059-47.52581-4.82961-11.62274-12.53373-22.79437-23.11279-33.51487-2.57401,12.21531-6.8374,22.97123-12.78142,32.2588l-.01792.01792Z" style="fill: #251b1b;"/>
      </g>
      <g id="Layer3_47_1_STROKES" data-name="Layer3 47 1 STROKES">
        <path d="M134.66189,336.10999c-.2742.0088-.54835-.03536-.83146-.10619-2.83931-.85797-4.5553-5.36911-5.59019-14.64777-.91109-8.23503-4.71456-21.64449-11.30433-39.87471l2.68895-.97302c6.66049,18.44239,10.51703,32.08189,11.44583,40.5292,1.22951,10.97705,3.16663,12.10037,3.54698,12.21542,0,0,.02656.00885.09734-.04422.398-.25655,1.76026-1.70714,2.88358-9.55297,1.14988-7.53616,1.06145-17.42526-.28311-29.41949l-.12385-1.0615.98176-.41576c13.2591-5.58144,25.73982-14.77172,37.09727-27.31431,9.87139-10.9682,20.25577-26.02293,30.86128-44.74837l2.6713.72538c-.12385,6.51013,1.63636,10.49937,5.36916,12.18,3.65312,1.58324,8.2969.67214,13.78095-2.70661,6.19171-3.67957,11.89689-9.52641,16.98294-17.4075,5.82903-9.10175,10.04825-19.7958,12.58685-31.78112l.5484-2.60058,1.8752,1.8752c10.64978,10.80894,18.53098,22.24596,23.40464,33.98359,5.82903,13.98437,7.89891,29.25138,6.18297,45.43833,8.9603-5.24531,16.22237-11.30433,21.61798-18.04444,9.093-11.19808,15.78885-26.47405,19.9461-45.40291l2.6889-.30071c1.91062,4.05111,6.14744,9.08415,12.59571,14.96619,12.92298,11.79075,31.46281,21.0076,55.1063,27.38503l-.74298,2.75973c-24.0946-6.49253-43.02347-15.92155-56.28268-28.03083-5.20104-4.75878-8.9603-8.90717-11.3839-12.58696-4.28995,17.73477-10.90622,32.18808-19.68955,43.00587-6.11214,7.6335-14.49747,14.40893-24.91716,20.14078l-2.47673,1.36221.37154-2.79515c2.22018-16.72639.32727-32.47119-5.64331-46.79169-4.44911-10.71165-11.4989-21.19332-20.97218-31.16199-2.64474,11.27776-6.81084,21.4056-12.39228,30.13602-5.33364,8.27034-11.35734,14.41778-17.90289,18.30974-6.29785,3.89196-11.83491,4.86492-16.40808,2.87472-3.7328-1.68063-5.99714-5.02407-6.77543-9.97753-9.88899,17.00065-19.58352,30.83472-28.85349,41.13067-11.35734,12.54269-23.84696,21.83021-37.11492,27.61507,1.24716,11.7731,1.30029,21.55606.15041,29.10993-1.22946,8.60652-2.85702,10.67634-4.13954,11.5166-.51299.33613-1.0615.51299-1.62756.51304l-.02672-.0264Z"/>
      </g>
    </g>
    <g id="Layer3_47_MEMBER_0_FILL" data-name="Layer3 47 MEMBER 0 FILL">
      <path d="M101.18238,270.92893l23.06857-14.36471,10.1721,59.47582c-5.52832-16.9918-16.61146-32.02002-33.24067-45.11111Z" style="fill: #251b1b;"/>
    </g>
    <g id="Layer3_47_MEMBER_1_1_STROKES" data-name="Layer3 47 MEMBER 1 1 STROKES">
      <path d="M206.51224,224.54409l-.43341-2.94556c-1.08796-7.29738.42456-15.86843,4.49338-25.47441,4.07778-9.73869,7.43008-14.09947,10.84435-14.13478h.10625c.97307.01771,1.80448.44227,2.35288,1.22066.97296,1.3621,1.63636,4.28995-1.86635,14.92203-3.37001,10.07482-7.89891,18.23016-13.46264,24.23616l-2.02561,2.18476-.00885-.00885ZM221.50509,184.8375c-.78714.00885-3.51156.9288-8.30565,12.39228h0c-3.24627,7.68663-4.78523,14.62132-4.59077,20.67147,4.30766-5.40447,7.88994-12.34801,10.67624-20.67147,3.60885-10.93278,2.29976-12.33041,2.23789-12.39228h-.01771Z"/>
    </g>
    <g id="Layer3_47_MEMBER_2_1_STROKES" data-name="Layer3 47 MEMBER 2 1 STROKES">
      <path d="M332.55794,199.9365l-1.24722-1.91947c-2.43246-3.74155-3.8831-7.15582-4.32526-10.16325-.60142-3.52041-.19457-6.84626,1.2118-9.86254,1.83989-4.40494,4.10413-4.63493,5.69632-4.0158,3.09586,1.0791,3.62655,5.66102,3.75925,9.03102.18572,5.29833-1.12337,10.34011-3.90081,14.97515l-1.18535,1.96363-.00875-.00875ZM332.69065,176.61143c-.76954.00875-1.62751,1.91062-1.88405,2.5386-1.17639,2.5386-1.51251,5.29833-1.00838,8.26148.30956,2.07863,1.19409,4.3962,2.62714,6.96125,1.70708-3.54698,2.49444-7.32394,2.35277-11.26891-.21228-5.46634-1.46835-6.31556-1.84875-6.43055l-.07969-.02656s-.11499-.02645-.16801-.02656l.00896-.00875Z"/>
    </g>
    <g id="Layer3_44_FILL" data-name="Layer3 44 FILL">
      <path d="M340.67725,331.9367c6.63019-7.25897,14.60366-10.88851,23.92031-10.88846,9.43094-.00005,17.5187,3.62949,24.26317,10.88846,6.63029,7.37326,9.94533,16.20414,9.94533,26.49233,0,10.2883-3.31504,19.09055-9.94533,26.40667-6.74447,7.31611-14.83223,10.97422-24.26317,10.97422-9.31665,0-17.29012-3.65811-23.92031-10.97422-6.74458-7.31611-10.11687-16.11837-10.11687-26.40667,0-10.28819,3.37229-19.11907,10.11687-26.49233Z" style="fill: url(#radial-gradient-3);"/>
    </g>
    <g id="Layer3_90_FILL" data-name="Layer3 90 FILL">
      <path d="M196.42283,394.35973c-8.13112-8.90225-12.19701-19.62695-12.19688-32.17423-.00013-12.54728,4.06575-23.34205,12.19688-32.38453,8.06117-8.83217,17.83942-13.2482,29.33525-13.2482,11.42588,0,21.23929,4.41602,29.44049,13.2482,8.06104,9.04248,12.09163,19.83726,12.09163,32.38453,0,12.54728-4.03059,23.27198-12.09163,32.17423-8.2012,8.97233-18.01462,13.45856-29.44049,13.45856-11.49583,0-21.27407-4.48623-29.33525-13.45856Z" style="fill: url(#radial-gradient-4);"/>
    </g>
    <g>
      <g id="Symbol_5_0_Layer0_0_FILL" data-name="Symbol 5 0 Layer0 0 FILL">
        <path d="M243.50336,246.51591c-10.23408-1.35336-19.59237,3.42313-28.08384,14.3205-10.95049,13.46264-15.48803,33.49717-13.60408,60.09506v.10625c.32727,6.87271,5.81143,11.96772,16.45225,15.28461,9.52641,2.92785,20.80418,3.57354,33.83329,1.95478,9.16372-1.13212,15.86843-3.06044,20.09651-5.78486,4.95335-3.18429,7.82807-7.81037,8.62417-13.84282,2.3883-18.50442-.48643-35.01853-8.61532-49.56913-7.80162-13.88709-17.36334-21.39685-28.71183-22.53782M277.26593,294.57241c1.70719,7.38581,1.99905,15.28471.90224,23.68775-.53966,4.85606-2.804,8.51803-6.78439,10.97705-3.58228,2.32632-10.15439,4.03351-19.70737,5.0949h-.10625c-5.96184.77839-12.11803.90224-18.47786.36269-5.89975-.46883-11.21589-1.43294-15.95697-2.90129-4.34297-1.33565-7.46549-2.81285-9.37611-4.44036-1.91947-1.61865-3.01628-3.70624-3.30814-6.26255-.83151-12.24187.01771-22.99779,2.55631-32.25891,2.28205-8.47376,6.11214-16.07196,11.49004-22.81208,7.50966-9.5087,15.70042-13.7722,24.55458-12.80798,10.10138,1.14982,18.69013,7.98723,25.74867,20.51232,4.1308,7.3681,6.94354,14.32061,8.4472,20.86605l.01803-.0176Z" style="fill: #de5f32;"/>
        <path d="M243.06984,253.21176c10.10138,1.14982,18.69013,7.98723,25.74867,20.51232,4.1308,7.3681,6.94354,14.32061,8.4472,20.86605,1.70719,7.38581,1.99905,15.28471.90224,23.68775-.53966,4.85606-2.804,8.51803-6.78439,10.97705-3.58228,2.32632-10.15439,4.03351-19.70737,5.0949h-.10625c-5.96184.77839-12.11803.90224-18.47786.36269-5.89975-.46883-11.21589-1.43294-15.95697-2.90129-4.34297-1.33565-7.46549-2.81285-9.37611-4.44036-1.91947-1.61865-3.01628-3.70624-3.30814-6.26255-.83151-12.24187.01771-22.99779,2.55631-32.25891,2.28205-8.47376,6.11214-16.07196,11.49004-22.81208,7.50966-9.5087,15.70042-13.7722,24.55458-12.80798l.01803-.0176Z" style="fill: #fff;"/>
      </g>
      <g id="Symbol_5_0_Layer0_1_MEMBER_0_FILL" data-name="Symbol 5 0 Layer0 1 MEMBER 0 FILL">
        <path d="M219.22304,278.98699c-.12385-6.15641,1.49491-11.57847,4.86492-16.25757,3.37001-4.48452,7.43882-6.85511,12.22427-7.09395,4.97991-.23873,9.32299,1.71594,13.02912,5.88204,3.58239,4.36068,5.43103,9.6237,5.55488,15.7801.5131,6.1563-.84911,11.44577-4.07767,15.85968-3.22856,4.74992-7.27967,7.24425-12.11803,7.48309-5.04178.24769-9.42027-1.84864-13.13526-6.27129-3.70624-4.09538-5.82017-9.21685-6.33327-15.37315l-.00896-.00896Z"/>
      </g>
      <g id="Symbol_5_0_Layer0_1_MEMBER_1_FILL" data-name="Symbol 5 0 Layer0 1 MEMBER 1 FILL">
        <path d="M234.04768,277.07637c1.29138-1.52137,2.86598-2.31747,4.69691-2.39704,1.76906-.08854,3.31699.55715,4.63493,1.92822,1.45064,1.43294,2.2909,3.15773,2.50318,5.19219.14145,1.96363-.45997,3.67957-1.82218,5.13032-.96411,1.51262-2.37059,2.31747-4.20152,2.39704-1.76906.08854-3.44084-.55726-5.03303-1.91947-1.19409-1.30034-1.92832-2.97201-2.21133-4.98866-.08843-2.03436.38914-3.80352,1.42419-5.31604l.00885-.02656Z" style="fill: #fff;"/>
      </g>
      <g id="Symbol_5_0_Layer0_1_MEMBER_2_FILL" data-name="Symbol 5 0 Layer0 1 MEMBER 2 FILL">
        <path d="M230.368,272.98985c-.00885-.91109.31842-1.80437.96422-2.66245.58371-.65454,1.43294-1.09692,2.5386-1.30034,1.11452-.14145,2.0255.07958,2.75098.6634.78725.6458,1.19409,1.42408,1.20295,2.35288.07958.78725-.18572,1.51251-.76954,2.16716-.52184.78725-1.36221,1.29138-2.5386,1.49491-1.11452.21228-2.0255-.07958-2.75973-.86693-.78725-.52184-1.25596-1.13222-1.39752-1.85749l.00864.00885Z" style="fill: #fff;"/>
      </g>
    </g>
    <g>
      <g id="Symbol_6_0_Layer0_0_FILL" data-name="Symbol 6 0 Layer0 0 FILL">
        <path d="M327.3745,259.90771c-10.23397,13.40066-14.44445,33.19646-12.63101,59.38739.25655,6.8197,5.31604,11.87918,15.18743,15.18743,8.93384,2.86587,19.43311,3.52927,31.48052,1.97249,8.5799-1.06139,14.81589-2.98097,18.72544-5.77601,4.62608-3.05159,7.30623-7.57163,8.04035-13.54211,2.18476-18.37172-.45112-34.70012-7.91661-48.97645-7.27082-13.76335-16.18695-21.21102-26.74819-22.36096-9.51756-1.29138-18.22131,3.41427-26.11136,14.09936M384.69212,292.81221c1.63636,7.45664,1.97249,15.34669.99952,23.67879-.67225,4.79409-2.77744,8.35002-6.289,10.67624v.10625h-.10625c-3.52041,2.38819-9.13716,4.07767-16.86806,5.06834h-.10625c-13.55107,1.76906-24.29803,1.40648-32.24995-1.0791-7.82807-2.68005-11.98543-6.572-12.49842-11.68472-1.5922-23.05092,2.76858-41.44023,13.06443-55.16817,6.92584-9.24341,14.42664-13.40066,22.49366-12.49842,9.31413,1.15879,17.21293,7.90765,23.67879,20.22921,3.80352,7.30623,6.4217,14.1879,7.86349,20.67147l.01803.00011Z" style="fill: #de5f32;"/>
        <path d="M353.15859,251.90278c9.31413,1.15879,17.21293,7.90765,23.67879,20.22921,3.80352,7.30623,6.4217,14.1879,7.86349,20.67147,1.63636,7.45664,1.97249,15.34669.99952,23.67879-.67225,4.79409-2.77744,8.35002-6.289,10.67624v.10625h-.10625c-3.52041,2.38819-9.13716,4.07767-16.86806,5.06834h-.10625c-13.55107,1.76906-24.29803,1.40648-32.24995-1.0791-7.82807-2.68005-11.98543-6.572-12.49842-11.68472-1.5922-23.05092,2.76858-41.44023,13.06443-55.16817,6.92584-9.24341,14.42664-13.40066,22.49366-12.49842l.01803.00011Z" style="fill: #fff;"/>
      </g>
      <g>
        <g id="Symbol_6_0_Layer0_1_MEMBER_0_FILL" data-name="Symbol 6 0 Layer0 1 MEMBER 0 FILL">
          <path d="M358.84617,260.31456c3.31699,4.1661,5.03303,9.15487,5.15677,14.99286.44227,5.76716-.84922,10.75592-3.89196,14.984-2.98086,4.48452-6.72252,6.84626-11.24235,7.0851-4.64379.23884-8.65959-1.72479-12.0473-5.891-3.44084-3.90081-5.38676-8.76573-5.83799-14.59475-.11499-5.82903,1.40637-10.99476,4.58181-15.47928,3.04284-4.2811,6.75783-6.54555,11.14506-6.79324,4.59066-.23884,8.63292,1.66292,12.14459,5.68747l-.00864.00885Z"/>
        </g>
        <g id="Symbol_6_0_Layer0_1_MEMBER_1_FILL" data-name="Symbol 6 0 Layer0 1 MEMBER 1 FILL">
          <path d="M352.17677,284.55061c-.97296,1.25607-2.30861,1.95489-4.0157,2.10519-1.63636.07958-3.18429-.49528-4.63493-1.73365-1.12326-1.22951-1.79562-2.83931-2.0079-4.80294-.15041-1.90176.30071-3.60885,1.33565-5.12147,1.22951-1.38867,2.6713-2.1582,4.29881-2.29976,1.70719-.07958,3.14887.56611,4.34308,1.91947,1.25596,1.36221,1.99019,2.96326,2.21133,4.79409.08843,2.03436-.42456,3.73269-1.53022,5.12147l-.00011.0176Z" style="fill: #fff;"/>
        </g>
        <g id="Symbol_6_0_Layer0_1_MEMBER_2_FILL" data-name="Symbol 6 0 Layer0 1 MEMBER 2 FILL">
          <path d="M340.34175,268.7352c.52195-.6634,1.30023-1.08796,2.34403-1.30034,1.04379-.14156,1.90176.04416,2.56516.56611.65454.65454.99952,1.37096.99952,2.14946.1327.78725-.05312,1.50366-.57497,2.16716-.52184.78725-1.3268,1.25596-2.44131,1.39763-.98182.20353-1.80448-.01771-2.46787-.6634-.72538-.65454-1.15868-1.26493-1.29149-1.85749-.00885-.91109.27426-1.7425.85797-2.46787l.00896.00875Z" style="fill: #fff;"/>
        </g>
      </g>
    </g>
  </g>
  <g>
    <path d="M328.02904,427.47313c8.12004.60153,27.53549,3.98919,26.04064-14.22321-1.77792-21.64444-42.42216-22.85624-64.59729-21.29071-32.79835,2.33517-54.49597,21.92749-44.95179,29.73791,8.37648,6.85511,13.65721-8.72146,42.79354-7.04088,15.2405.87562,31.0382,12.10923,40.72377,12.82575l-.00885-.00885Z" style="fill: #2b1010;"/>
    <g>
      <path d="M330.66504,408.33187c-26.70403-3.90081-36.52219-10.69394-65.50833,3.11351-1.09676.53075-2.04332-10.41094-1.55673-13.40946,19.34468-8.7126,34.65585-5.94402,34.65585-5.94402,0,0,15.39074-3.7504,34.03672,2.79504.30082,2.65359-.1327,13.66606-1.62751,13.44493Z" style="fill: #fff;"/>
      <path d="M332.07141,407.42089c-1.53022,3.81238-26.11136-3.62666-42.45747-3.485-10.8531.09729-24.05919,10.4198-25.89023,6.66054-.61913-1.27367-1.11446-9.00451-.76948-11.94996.4157-.4157.84917-.81375,1.28263-1.19409-.68111,3.10471-.16806,11.26011.39805,12.40994.91989,1.87515,7.8812-7.15582,24.97028-7.31508,20.81303-.18572,40.58227,6.51013,41.5021,4.22808.67214-1.66292.97296-9.67682.57497-12.33927.40696.30071.80495.61038,1.18524.93755.20342,2.69786-.15916,10.4198-.81381,12.0473h.01771Z" style="fill: #a4a3a3;"/>
    </g>
    <path d="M327.79906,428.81763c-11.01247-1.86635-25.5717-11.95002-40.56461-12.80804-23.57271-1.3533-30.94091,8.73911-38.20288,8.80109-1.89296.01765-3.64432-.6546-5.36905-2.06092-2.68901-2.19362-3.60005-5.28068-2.58281-8.66839,2.81285-9.376,20.50336-20.57419,45.21725-23.08628,4.44921-.45112,9.42027-.71641,14.36477-.76079,15.88624-.14156,53.02756,1.79562,54.76132,22.91822.93755,11.41047-5.8733,16.55849-17.15106,16.65567-3.89196.03531-7.6335-.50413-10.4551-.99067l-.01782.00011ZM286.56236,393.6841c-23.2808,2.37059-40.38764,12.84345-42.89973,21.17561-.69871,2.34403-.1327,4.28995,1.70714,5.79366,1.23836,1.00838,2.36174,1.4595,3.62655,1.45064,6.0325-.05307,14.40904-10.18096,38.38859-8.79224,15.54126.89338,30.33059,11.04778,40.86527,12.8434,2.72442.45997,6.30671.98182,9.98638.94651,5.57259-.05312,9.58828-1.37981,11.93231-3.95383,2.03446-2.22903,2.89243-5.52832,2.54745-9.78285-1.59209-19.38895-40.22843-20.53877-52.03689-20.44149-4.87377.04427-9.74754.30082-14.11718.74298l.00011.0176Z" style="fill: #e26236;"/>
    <path d="M245.55543,422.55508c.46877-.57502.38925-1.43294-.18582-1.90176-1.83984-1.50371-2.40595-3.44974-1.70714-5.79366,2.50318-8.34117,19.61883-18.80513,42.89978-21.17566,20.58293-2.09633,64.45574-.87578,66.14522,19.68966.06187.75183.72538,1.29138,1.45064,1.23836.75183-.06187,1.30023-.71652,1.23836-1.46835-1.8752-22.85624-46.34942-24.48385-69.12608-22.15743-24.72269,2.52089-42.39549,13.71908-45.2172,23.08623-1.02609,3.39657-.10614,6.47472,2.58281,8.66839.58377.47763,1.43299.3892,1.90171-.18577h.01771Z" style="fill: #e26236;"/>
    <path d="M308.05628,427.49083c-7.90776-4.08653-8.0315-4.06882-13.08213-6.30671.11499.1327.59267,3.0517,5.43103,5.44874,5.19219,2.46777,7.51851.86682,7.65121.85808l-.00011-.00011Z" style="fill: #e26236;"/>
    <path d="M274.83342,420.18466c-.13265.00891-3.51156-.84026-8.65073,1.78677-5.68758,2.98086-6.40399,5.50175-6.67819,5.79366,5.82023-2.29981,7.87229-3.0605,15.32893-7.58043Z" style="fill: #e26236;"/>
    <path d="M361.03093,410.76444c.34498,1.7249,1.4595,5.49301.22999,9.00446-.5307,2.6889-3.74155,6.14744-4.99762,7.61579.1327-.07958,6.20942-1.13222,7.58043-6.85517,1.53027-4.89143-.96416-7.7573-2.83051-9.76531l.01771.00022Z" style="fill: #e26236;"/>
    <path d="M235.42754,415.01007c-.24769.44227-3.59119,3.99804-1.04374,8.84536,2.69775,5.61675,7.56273,4.37844,7.69537,4.40494-.1327-.11499-3.84769-2.11404-5.27182-5.59024-1.40643-2.43251-1.37987-5.64326-1.39757-7.66001l.01776-.00005Z" style="fill: #e26236;"/>
  </g>
  <g>
    <g id="Layer3_87_FILL" data-name="Layer3 87 FILL">
      <path d="M250.72105,258.47478c-7.04094-3.39657-11.85273-9.44683-14.44445-18.15944-2.83056-9.60599-1.94592-18.52202,2.66245-26.75705,6.8197,9.22559,15.63855,16.23997,26.48279,21.05187,10.70291,4.65264,18.89356,6.93469,24.58999,6.86397-5.36905,8.78344-12.63112,14.45331-21.77714,17.01847-7.19124,2.16716-13.02912,2.16706-17.5226-.00885l.00896-.00896Z" style="fill: #110f0e;"/>
    </g>
    <g id="Layer3_87_1_STROKES" data-name="Layer3 87 1 STROKES">
      <path d="M238.40835,247.93114c-1.22055-2.21133-2.22903-4.65264-3.02513-7.34154-2.89243-9.80952-1.97249-19.06168,2.74202-27.49117l.71652-1.28253.87568,1.1942c6.67825,9.04873,15.46168,16.02769,26.1025,20.7422,10.51708,4.57306,18.65483,6.85511,24.19189,6.78439l1.72479-.02656-.90224,1.46824c-5.4753,8.94259-12.97599,14.81589-22.31669,17.43406-7.38592,2.22018-13.5068,2.20247-18.2036-.07072-5.06834-2.45017-9.05758-6.28025-11.897-11.40161l-.00875-.00896ZM239.08071,215.32735c-3.84769,7.61579-4.48463,15.9304-1.88405,24.72269,2.49444,8.40304,7.18238,14.31175,13.94021,17.56687,4.25454,2.06092,9.91555,2.04332,16.83264-.04427h0c8.37648-2.36163,15.21388-7.46539,20.33535-15.20503-5.70529-.34498-13.51565-2.65359-23.2632-6.89938-10.46407-4.64379-19.20323-11.41932-25.96095-20.15838v.01749Z" style="fill: #090b0c;"/>
    </g>
  </g>
  <g>
    <g id="Layer3_88_FILL" data-name="Layer3 88 FILL">
      <path d="M338.45769,253.79547c-6.35972,3.95383-13.71022,4.68806-22.04243,2.22903-9.25215-2.61818-15.97467-7.94307-20.16723-15.99227,10.94164-.62809,21.11374-4.05996,30.52505-10.28709,9.28757-6.38628,15.382-11.87929,18.29214-16.48766,4.2811,8.95144,5.12147,17.71717,2.521,26.31478-1.98134,7.09395-5.02418,11.83502-9.11945,14.23207l-.00907-.00885Z" style="fill: #110f0e;"/>
    </g>
    <g id="Layer3_88_1_STROKES" data-name="Layer3 88 1 STROKES">
      <path d="M347.90442,241.73057c-2.06092,6.27129-5.06834,10.60551-8.97801,12.88756-6.54555,4.06882-14.23217,4.85606-22.79426,2.30861-9.45558-2.68015-16.44339-8.21722-20.74231-16.4611l-.68111-1.30023,1.46835-.08843c10.72051-.61924,20.83074-4.02466,30.05633-10.13669,9.12831-6.28015,15.18732-11.73774,18.00903-16.20455l.91984-1.46835.74308,1.55678c4.36964,9.12831,5.23646,18.2036,2.58276,26.99589-.17686.65454-.37143,1.29138-.57497,1.90176l-.00875.00875ZM297.79585,240.8726c4.08653,7.05864,10.42854,11.84388,18.87585,14.22321,8.04035,2.37944,15.18743,1.67178,21.28175-2.12289,3.87425-2.26434,6.79313-6.86397,8.70375-13.67492h0c2.37944-7.84578,1.78677-15.95697-1.76021-24.12116-3.24616,4.39609-9.14602,9.55286-17.57562,15.34658-9.08415,6.0237-18.9997,9.49985-29.50793,10.34907l-.0176.00011Z" style="fill: #090b0c;"/>
    </g>
  </g>
</svg>