<?xml version="1.0" encoding="UTF-8"?>
<svg id="Layer_1" xmlns="http://www.w3.org/2000/svg" xmlns:xlink="http://www.w3.org/1999/xlink" version="1.1" viewBox="0 0 500 500">
  <!-- Generator: Adobe Illustrator 29.5.1, SVG Export Plug-In . SVG Version: 2.1.0 Build 141)  -->
  <defs>
    <linearGradient id="linear-gradient" x1="-2433.84" y1="995.16" x2="-2432.9" y2="1067.89" gradientTransform="translate(2795.7 52.61) rotate(14.86)" gradientUnits="userSpaceOnUse">
      <stop offset="0" stop-color="#f7a66f"/>
      <stop offset="1" stop-color="#f5885d"/>
    </linearGradient>
    <clipPath id="clippath">
      <path d="M40.88,302.04c-2.97,14.7-4.54,26.39-4.46,34.8l-.05.16c-.33,19.07,3.21,37.24,10.77,54.53,4.18,9.62,10.47,19.01,18.89,28.18,7.5,8.21,17.31,16.75,29.47,25.99,54.12,32.93,106.36,41.52,156.66,25.39,17.98-5.82,33.92-13.43,47.52-22.94,14.82-10.17,27.49-22.35,37.9-36.74,42.62-71.29,52.35-143.05,29.18-215.28-77.49-88.28-170.36-107.66-278.14-58.02l-35.35,113.32c-5.88,22.23-9.98,38.99-12.38,50.61Z" fill="none"/>
    </clipPath>
    <radialGradient id="radial-gradient" cx="-2687.79" cy="910.68" fx="-2687.79" fy="910.68" r="157.65" gradientTransform="translate(3074.62 155.92) rotate(14.86)" gradientUnits="userSpaceOnUse">
      <stop offset=".07" stop-color="#f47e58"/>
      <stop offset=".45" stop-color="#f7a66f" stop-opacity="0"/>
    </radialGradient>
    <radialGradient id="radial-gradient1" cx="-2754.36" cy="910.01" fx="-2754.36" fy="910.01" r="157.65" gradientTransform="translate(2974.61 128.31) rotate(14.86)" xlink:href="#radial-gradient"/>
    <radialGradient id="radial-gradient2" cx="-2646.66" cy="350.53" fx="-2646.66" fy="350.53" r="125.71" gradientTransform="translate(2159.57 -475.36) rotate(-20) scale(.74 .55) skewX(-5.58)" gradientUnits="userSpaceOnUse">
      <stop offset=".1" stop-color="#f49369"/>
      <stop offset=".45" stop-color="#fba880" stop-opacity="0"/>
    </radialGradient>
    <clipPath id="clippath-1">
      <path d="M107.46,195.22c-6.65,2.65-12.49,7.39-17.48,14.05-2.55,3.23-4.47,5.95-5.81,7.8-1.91,2.72-3.5,5.52-4.66,8.61-5.09,10.88-7.9,20.83-8.75,29.78.4,2.99,3.01,6.57,7.89,10.59,4.76,3.81,11.21,7.05,19.45,9.91,8.28,2.71,16.34,4.33,24.02,4.84,8.04.43,13.91-.56,17.76-2.93,3.63-3.45,6.66-11.65,8.83-24.32l.04-.16c1-5.68,1.55-10.97,1.66-15.86-.02-4.42-.35-8.92-1.32-13.6-1.24-8.14-4.17-15.03-8.78-20.67l.16.04c-4.15-4.84-9.24-8.06-15.11-9.61h0c-5.91-1.4-11.81-.93-17.9,1.54Z" fill="none"/>
    </clipPath>
    <clipPath id="clippath-2">
      <path d="M281.4,259.18c-1.86-8.99-5.34-16.36-10.51-22.49-4.86-5.37-10.7-8.95-17.41-10.56l.04-.16c-6.71-1.61-13.44-1.19-20.41,1.38-7.21,2.84-13.61,7.77-19.05,14.82-4.67,6.07-8.58,12.5-11.79,19.46-2.51,5.62-4.45,10.37-5.59,14.65-1.26,4.76-2.09,9.81-2.4,14.82.82,3.95,3.87,7.82,9.23,11.96,5.47,4.34,12.83,7.99,22.18,11.15,9.35,3.16,18.41,4.88,27.04,5.64,8.67.6,15.06-.42,19.47-2.99,2.26-2.12,4.01-4.88,5.46-8.4,1.49-3.68,2.83-8.76,3.72-15.32,1.98-13.23,2.06-24.42,0-33.97Z" fill="none"/>
    </clipPath>
    <clipPath id="clippath-3">
      <path d="M125.66,280.65c-3.01,1.51-5.06,3.81-6.04,7.12-.98,3.31-.67,6.31,1.09,9.05,2.58,4.01,6.14,6.44,10.96,7.52,5.49,1.11,11.9.26,19.33-2.85.16.05,31.89,8.46,31.89,8.46l-29.71-55.78c-.08-.15-1.11,21.62-13.09,28.66,1.25,1.22,3.35,4.71,3.18,4.62-6.74-5.62-13.66-8.02-17.62-6.8Z" fill="none"/>
    </clipPath>
    <radialGradient id="radial-gradient3" cx="-2796.51" cy="51.83" fx="-2796.51" fy="51.83" r="59.89" gradientTransform="translate(2824.56 1053.44) rotate(16.58) scale(1 .75)" xlink:href="#radial-gradient2"/>
  </defs>
  <g id="Layer_13">
    <g id="Layer_11" data-name="Layer_1">
      <g>
        <g>
          <path d="M311.51,454.41l.9,1.72.59.98.51,1.29c14.53-3.56,27.78-11.24,39.74-23.05h-.68c-13.46,9.1-27.21,15.49-41.07,19.06Z"/>
          <path d="M400.28,427.07c17.04-15.57,28.5-29.32,34.22-41.31-9.71-21.67-22.61-35.14-38.47-40.01-15.66-4.98-33.97-1.27-54.68,10.85-74.33,36.93-113.98,64.12-118.95,81.57-4.89,17.15,25.12,23.13,89.85,17.9l-.9-1.72c14.01-3.53,27.77-9.92,41.22-19.03h.68c-11.96,11.83-25.21,19.51-39.74,23.06l-.78-1.53c-8.67,12.85,2.21,14.09,32.64,3.72,19.6-6.66,38-17.75,54.92-33.51Z" fill="#33060d"/>
        </g>
        <path d="M316.32,470.21c-4.54,0-6.52-1.27-7.69-2.8-2-2.62-1-6.02.29-8.6-74.29,5.62-83.64-5.77-86.74-9.56-2.71-3.3-3.43-7.26-2.15-11.75,5.23-18.36,44.59-45.52,120.31-83.02,21.33-12.47,40.32-16.2,56.44-11.07,16.38,5.02,29.82,18.99,39.93,41.5l.47,1.04-.5,1.03c-5.82,12.11-17.2,25.87-34.78,42.05-17.17,15.81-35.88,27.27-55.62,34.07-15.56,5.3-24.57,7.1-29.97,7.1ZM312.31,456.7l2.58,1.74c-2.56,3.8-2.65,5.57-2.34,5.98.31.41,3.84,3.68,32.15-5.97,19.08-6.58,37.22-17.69,53.88-33.04,16.37-15.07,27.52-28.37,33.17-39.54-9.44-20.54-21.7-33.24-36.43-37.76-14.78-4.69-32.45-1.1-52.55,10.67l-.15.08c-73.43,36.36-113.08,63.27-117.84,79.99-.84,2.93-.45,5.24,1.22,7.28,5.07,6.18,24.11,12.5,86.06,7.5l.25,3.07Z"/>
      </g>
    </g>
  </g>
  <g id="Layer_18">
    <g id="Layer_12" data-name="Layer_1">
      <g>
        <path d="M372.24,193.96c-.06-.36-.33-.61-.44-.82-79.76-91-174.93-110.73-285.62-59.37-.41.22-.61.33-.7.65-.25.27-.34.58-.59.85l-34.78,114.86c-1.1,4.3-3.82,14.11-7.97,29.31-2.68,9.65-4.46,16.83-5.24,21.22-3.11,15.17-4.73,27.02-4.58,35.79h0c-.27,20.63,3.3,39.83,10.92,57.49,8.64,20.01,25.2,39.28,49.73,57.65q.16.05.11.2c55.71,33.92,109.31,42.56,160.78,25.92,35.55-11.41,64.68-32.93,87.64-64.32l.05-.16c44-73.62,54.3-146.75,30.7-219.28M37.08,336.5c-.04-8.57,1.49-20.1,4.46-34.8,2.4-11.61,6.5-28.38,12.22-50.65l35.35-113.32c107.94-49.6,200.66-30.26,278.46,58.11,23.17,72.23,13.29,143.95-29.18,215.28-10.57,14.34-23.08,26.56-37.9,36.74-13.75,9.46-29.54,17.12-47.52,22.94-50.3,16.13-102.54,7.54-156.66-25.39-12.16-9.24-22.12-17.83-29.47-25.99-8.42-9.16-14.72-18.56-18.89-28.18-7.72-17.34-11.41-35.55-10.88-54.74h0Z" fill="#aa602f"/>
        <path d="M41.54,301.7c-2.97,14.7-4.54,26.39-4.46,34.8l-.05.16c-.33,19.07,3.21,37.24,10.77,54.53,4.18,9.62,10.47,19.01,18.89,28.18,7.5,8.21,17.31,16.75,29.47,25.99,54.12,32.93,106.36,41.52,156.66,25.39,17.98-5.82,33.92-13.43,47.52-22.94,14.82-10.17,27.49-22.35,37.9-36.74,42.62-71.29,52.35-143.05,29.18-215.28-77.49-88.28-170.36-107.66-278.14-58.02l-35.35,113.32c-5.88,22.23-9.98,38.99-12.38,50.61Z" fill="url(#linear-gradient)"/>
      </g>
    </g>
    <g clip-path="url(#clippath)">
      <g id="Layer_2">
        <path d="M300.86,356.91c4.42-16.66,2.29-32.34-6.29-47.36-8.51-14.66-21.08-24.27-37.74-28.69-16.66-4.42-32.5-2.34-47.47,6.09-14.7,8.67-24.2,21.44-28.62,38.1-4.42,16.66-2.45,32.3,6.02,47.11,8.83,14.74,21.51,24.56,38.17,28.98,16.66,4.42,32.18,2.25,47.04-6.38,14.86-8.63,24.47-21.19,28.89-37.85Z" fill="url(#radial-gradient)"/>
        <path d="M136.77,311.52c4.42-16.66,2.29-32.34-6.29-47.36-8.51-14.66-21.08-24.27-37.74-28.69-16.66-4.42-32.5-2.34-47.47,6.09-14.7,8.67-24.2,21.44-28.62,38.1-4.42,16.66-2.45,32.3,6.02,47.11,8.79,14.9,21.47,24.72,38.13,29.14,16.66,4.42,32.18,2.25,47.08-6.53,14.7-8.67,24.47-21.19,28.89-37.85Z" fill="url(#radial-gradient1)"/>
      </g>
    </g>
  </g>
  <g id="Layer_11">
    <g id="Layer_4">
      <g>
        <g>
          <path d="M327.88,321.15c-.14.47-.44.9-.62,1.53l.68.03,2.03.09c.65-12.65,2.16-24.7,4.2-36.25-5.21,10.1-8.22,22.05-8.94,36.05l2.03.09c.14-.47.44-.9.62-1.53Z"/>
          <path d="M316.7,191.52c24.4,13.03,40.7,20.41,48.71,22.26-27.27,21.05-43.9,44.89-50.11,71.13-2.63,11.21-2.07,22.67,1.5,34.34,3.44,10.95,6.91,11.97,10.34,3.23l-2.03-.09c.82-13.79,3.84-25.74,9.05-35.84-2.04,11.55-3.39,23.65-4.2,36.25l-2.03-.09c-7.82,20.11-.56,37.84,21.74,53.32,13.14,1.31,20.46-.29,21.9-5.17l.37-1.26,9.07,2.34-.19.63c18.16,4,35,10.17,50.6,18.2,8.69-11.47,16.53-28.15,23.36-50.1l.76-2-.76,2c-6.23,21.1-8.94,34.33-8.24,39.5.89,6.25,2.5,7.76,5.15,4.6,3.94-4.66,8.09-12.33,12.34-23.23,5.24-13.69,9.23-28.94,11.91-46.12,3.39-26.56.91-51.77-7.18-75.38-7.69-22.64-20.04-41.69-36.68-57.22-3.11-2.8-10.82-10.9-23.49-24.23-13.05-13.78-22.37-23.38-28.16-28.69-29-38.01-60.59-66.68-94.4-86.08-36.3-20.82-73.07-29.63-110.15-26.37-39.88,3.46-72.77,19.76-98.87,49.02-27.65,31.03-43.72,72.68-48.4,125.04,40.11-16.4,77.97-26.95,113.85-31.93,38.72-5.34,75.9-4.29,111.89,3.09,14.61,5,35.41,14.57,62.34,28.86Z" fill="#33060d"/>
        </g>
        <path d="M433.38,392.25l-3.92-2.98c8.48-11.19,16.26-27.77,23.12-49.3.01-.04.03-.09.04-.13l.56-1.89,4.72,1.39-.56,1.89c-6.15,20.83-8.95,33.76-8.32,38.43.25,1.73.52,2.8.74,3.45.03-.03.05-.06.08-.1,3.87-4.58,7.88-12.16,11.93-22.54,5.29-13.82,9.14-28.74,11.77-45.61,3.3-25.86.93-50.85-7.07-74.21-7.46-21.96-19.58-40.87-36.03-56.22-3.08-2.57-10.22-10.06-23.64-24.17-14.43-15.24-22.81-23.78-28.04-28.57l-.3-.32c-28.54-37.41-60.05-66.15-93.67-85.44-35.72-20.49-72.28-29.25-108.71-26.05-39.01,3.38-71.73,19.6-97.25,48.21-26.38,29.61-42.32,69.83-47.4,119.6,38.48-15.43,75.7-25.71,110.67-30.56,38.68-5.33,76.61-4.28,112.73,3.12l.3.08c14.55,4.98,35.05,14.52,62.66,29.17,29.79,15.91,42.61,20.77,48.11,22.04l5.07,1.17-4.12,3.18c-26.55,20.49-43.11,43.96-49.22,69.75-2.49,10.63-2,21.76,1.46,33.05,1.7,5.4,2.97,6.88,3.42,7.26.35-.29,1.24-1.26,2.46-4.21l.59.25c.02-.06.04-.11.07-.17l.45.17-.95-.56c.19-.32.26-.57.38-.97l4.72,1.39c-.13.43-.28.93-.57,1.54l.56.22c-7.34,18.88-.7,35.25,20.32,50.04,11.07,1.04,17.68-.19,18.66-3.48l4.72,1.39c-2.41,8.16-15.14,7.86-24.5,6.92l-.63-.06-.52-.36c-19.86-13.79-28.31-29.61-25.22-47.13-.23.03-.47.04-.71.03-3.22-.14-5.59-3.37-7.93-10.81-3.72-12.16-4.24-24.14-1.55-35.64,6.08-25.67,21.96-49.05,47.25-69.55-9.27-3.15-24.23-10.23-44.61-21.11-27.28-14.47-47.49-23.9-61.79-28.81-35.52-7.26-72.84-8.28-110.91-3.03-35.71,4.96-73.81,15.65-113.25,31.77l-3.74,1.53.36-4.03c4.71-52.7,21.2-95.25,49.02-126.46,26.39-29.58,60.2-46.35,100.5-49.84,37.45-3.28,74.98,5.69,111.59,26.69,34.13,19.58,66.09,48.7,95,86.55,5.33,4.9,13.76,13.49,28.12,28.66,11.74,12.35,20.22,21.27,23.33,23.87,17.15,15.99,29.7,35.59,37.42,58.32,8.25,24.07,10.7,49.81,7.29,76.49-2.69,17.28-6.63,32.53-12.06,46.69-4.25,10.91-8.54,18.96-12.76,23.94-1.71,2.04-3.47,2.83-5.22,2.33-2.82-.8-3.7-4.4-4.24-8.17-.16-1.22-.23-2.99.13-6.03-3.48,6.95-7.11,12.94-10.89,17.92Z" fill="#170000"/>
      </g>
    </g>
    <g id="Layer_21" data-name="Layer_2">
      <path d="M215.5,95.98c7.86-4.03,23.98-14.19,48.46-30.29,15.84-10.41,27.7-15.41,35.42-15.06l-25.5-15.93c-9.49,1.22-21.12,6.63-34.79,15.91-20.79,14.36-33.38,22.74-37.91,25.1-36.08,19.47-79.2,19.42-129.21-.13l-15.55,18.29c56.84,26.46,109.83,27.09,159.09,2.11Z" fill="#40151e"/>
      <path d="M218.7,126.21c7.46-3.8,26.62-15.19,57.4-34.54,19.97-12.54,36.03-19.32,48.24-20.5l-14.55-13.03c-9.18,1.3-24.12,7.7-44.87,19.35-29.3,16.35-49.24,26.85-60.02,31.64-56.87,25.51-109.37,26.87-157.66,4.04l-8.62,20.98c34.71,11.92,68.61,16.67,102.1,14,26.51-1.97,52.42-9.37,78-21.94Z" fill="#40151e"/>
      <path d="M334.54,252.75c-2.83,1.55-6.61,6.66-10.92,15.64-4.21,8.59-6.13,14-5.76,16.23,23.63-17.01,50.33-19.15,80.21-6.84,7.63,3.17,17.92,8.15,30.66,14.86,10.07,4.91,17.34,6.71,22.02,5.47,6.02-1.73,12.19-7.65,18.01-17.71l6.79-14.67-6.24-22.1-6.86,20.38c-5.8,13.67-11.66,21.17-17.7,22.04-2.79.5-7.27-1.8-13.47-6.7-10.64-8.25-17.46-13.54-20.98-15.79-22.4-14.06-47.81-17.7-75.77-10.81Z" fill="#40151e"/>
      <path d="M366.18,277.76c-12.97-1.06-29.01,1.82-48.23,8.95-3,1.07-4.91,6.34-5.52,15.69-.33,6.37-.25,11.82.4,16.41,15.68-13,29.55-19.85,41.47-20.59,8.97-.51,19,2.66,29.93,9.47.16.04,4.89,3.34,14.12,9.52,6.03,4.15,11.32,7.25,15.83,9.46,13.32,6.76,27.34,9.63,42.2,8.65,6.74-.42,13.1-5.87,19.22-16.13.65-1.19,1.31-2.37,1.96-3.56l-2.1-34.35-2.2,6.38c-1.86,5.11-3.8,9.86-5.93,14.05-6.8,13.48-13.34,19.56-19.7,18.55-11.08-1.75-21.3-6.16-30.83-13.1-9.95-8.58-17.35-14.62-22.47-18.36-8.67-6.38-18.21-10.1-28.15-11.03Z" fill="#40151e"/>
    </g>
    <g id="Layer_10">
      <path d="M433.38,392.25l-3.92-2.98c8.48-11.19,16.26-27.77,23.12-49.3.01-.04.03-.09.04-.13l.6-2.05,4.72,1.39-.6,2.05c-6.15,20.83-8.95,33.76-8.32,38.43.25,1.73.52,2.8.74,3.45.03-.03.05-.06.08-.1,3.87-4.58,7.88-12.16,11.93-22.54,5.29-13.82,9.14-28.74,11.77-45.61,3.3-25.86.93-50.85-7.07-74.21-7.46-21.96-19.58-40.87-36.03-56.22-3.08-2.57-10.22-10.06-23.64-24.17-14.43-15.24-22.81-23.78-28.04-28.57l-.3-.32c-28.54-37.41-60.05-66.15-93.67-85.44-35.72-20.49-72.28-29.25-108.71-26.05-39.01,3.38-71.73,19.6-97.25,48.21-26.38,29.61-42.32,69.83-47.4,119.6,38.48-15.43,75.7-25.71,110.67-30.56,38.68-5.33,76.61-4.28,112.73,3.12l.3.08c14.55,4.98,35.05,14.52,62.66,29.17,29.79,15.91,42.61,20.77,48.11,22.04l5.07,1.17-4.12,3.18c-26.55,20.49-43.11,43.96-49.22,69.75-2.49,10.63-2,21.76,1.46,33.05,1.7,5.4,2.97,6.88,3.42,7.26.35-.29,1.22-1.24,2.42-4.11.09-.28.22-.56.35-.85.07-.16.16-.32.22-.52l4.72,1.39c-.14.47-.32.87-.49,1.23-.05.1-.1.19-.13.29l.6.24c-7.34,18.88-.7,35.25,20.32,50.04,11.07,1.04,17.68-.19,18.66-3.48l4.72,1.39c-2.41,8.16-15.14,7.86-24.5,6.92l-.63-.06-.52-.36c-19.86-13.79-28.31-29.61-25.22-47.13-.23.03-.47.04-.71.03-3.22-.14-5.59-3.37-7.93-10.81-3.72-12.16-4.24-24.14-1.55-35.64,6.08-25.67,21.96-49.05,47.25-69.55-9.27-3.15-24.23-10.23-44.61-21.11-27.28-14.47-47.49-23.9-61.79-28.81-35.52-7.26-72.84-8.28-110.91-3.03-35.71,4.96-73.81,15.65-113.25,31.77l-3.74,1.53.36-4.03c4.71-52.7,21.2-95.25,49.02-126.46,26.39-29.58,60.2-46.35,100.5-49.84,37.45-3.28,74.98,5.69,111.59,26.69,34.13,19.58,66.09,48.7,95,86.55,5.33,4.9,13.76,13.49,28.12,28.66,11.74,12.35,20.22,21.27,23.33,23.87,17.15,15.99,29.7,35.59,37.42,58.32,8.25,24.07,10.7,49.81,7.29,76.49-2.69,17.28-6.63,32.53-12.06,46.69-4.25,10.91-8.54,18.96-12.76,23.94-1.71,2.04-3.47,2.83-5.22,2.33-2.82-.8-3.7-4.4-4.24-8.17-.16-1.22-.23-2.99.13-6.03-3.47,6.95-7.11,12.94-10.89,17.92Z" fill="#170000"/>
    </g>
    <g id="Layer_3">
      <path d="M446.38,291.44c2.11-14.1,2.11-29.16-.1-44.88-2.05-15.67-12.16-37.66-30.42-65.65,14.96,27.01,24.09,47.68,26.98,62.23,3.05,14.59,4.28,30.71,3.54,48.29M409.01,175.13c-39.6-20.08-69.93-30.41-90.88-30.78-21.1-.41-40.88,1.62-59.16,6.15,23.21-3.24,44.64-3.93,64.29-2.07,19.6,2.02,48.16,10.8,85.75,26.7M327.92,116.43l.16.05c23.29,10.99,45.91,25.37,67.99,43.36l.3-.43c-20.57-19.6-42.56-34.99-66.32-46.12-15.63-7.36-31.08-12.43-46.3-15.39,14.99,5.46,29.75,11.7,44.17,18.52Z" fill="#170000"/>
    </g>
    <g id="Layer_5">
      <g>
        <path d="M370.43,211.84l-2.12-20.65c-30.6-15.2-67.41-25.05-110.53-29.74l.72-1.84c-.36.06-.52.02-.88.08-18.09,2.7-32.75,5.39-43.73,7.8-11.7,2.53-20.7,5.18-27.2,8.06-5.12,2.25-8.05,4.64-8.74,7,.06.36.76.91,1.93,1.6,2.27,1.01,5.94,1.92,10.69,2.64,18.9,2.67,38.39,4.49,58.42,5.62l.2-.11.16.05c50.25,6.63,90.63,13.07,121.08,19.5Z" fill="#33060d"/>
        <path d="M365.47,217.05l8.36-4.55c-1.94-.4-3.08-.57-3.4-.66-30.45-6.43-70.83-12.88-121.24-19.55l-.16-.05h0c-20.04-1.13-39.48-3.1-58.42-5.62-4.91-.77-8.42-1.63-10.69-2.64-1.17-.69-1.7-1.19-1.93-1.6.7-2.36,3.63-4.75,8.74-7,6.5-2.87,15.5-5.52,27-7.95,11.19-2.52,25.64-5.09,43.73-7.8l-.18-.57c-36.28,2.29-61.33,6.54-74.94,12.62-7.11,3.21-10.88,6.71-11.48,10.47l-.05.16c-.79,2.68.74,5.01,4.49,6.81,2.69,1.31,6.68,2.31,12.15,2.9,10.34,1.51,30.75,3.09,61,5.01,50.72,6.77,89.65,13.47,117,20.01Z" fill="#170000"/>
      </g>
    </g>
    <g id="Layer_6">
      <g>
        <path d="M375.62,130.52l-.27,2.66,34.8,34.59c2.13,6.11,4.81,6.9,8.12,2.06-5.49-23.7-17.93-48.26-37.09-73.78-3.32-4.4-6.24-7.84-8.68-10.61-2.48-2.62-5.23-5.48-8.61-8.53h0c-5.3-4.65-8.87-7.07-10.9-7.16-.41.22-.55.69-.62,1.53.18,2.28,1.08,5.62,2.84,10.08,2.97,7.9,5.6,14.66,7.65,19.89,4.02,9.57,8.15,19.35,12.75,29.27Z" fill="#33060d"/>
        <path d="M375.35,133.18l.27-2.66c-4.6-9.92-8.78-19.54-12.48-29.02-2.05-5.23-4.67-11.99-7.65-19.89-1.76-4.46-2.66-7.8-2.84-10.08.03-.68.21-1.31.62-1.53,2.03.09,5.59,2.51,10.9,7.16h0c3.22,3.01,6.17,5.76,8.61,8.53,2.43,2.77,5.36,6.2,8.68,10.61,19.06,25.31,31.28,49.98,36.78,73.69l2.99.88c-4.8-26.07-16.86-51.88-36.13-77.6-6.91-9.06-13.72-16.72-20.36-22.62h0c-6.76-6.1-11.58-8.9-14.47-8.38-3.43.01-5.12,2.25-4.97,6.41.04,2.75.96,6.62,3.01,11.84,4.39,11.22,13.35,28.42,26.92,51.43l.15,1.24Z" fill="#170000"/>
      </g>
    </g>
    <g id="Layer_7">
      <g>
        <path d="M449.11,158.73h0c-10.65,3.02-22.37,7.94-34.93,14.5l.36-.06c-.55.69,4.04,4.28,13.84,11.11,18.97-5.69,32.66-10.89,40.86-15.49,3.31-1.93,5.65-3.47,6.94-4.97.5-.54.69-1.17.62-1.53-4.79-6.38-13.87-7.52-27.71-3.56Z" fill="#33060d"/>
        <path d="M480.09,166.86c2.35-2.73,2.57-5.23.83-7.46-5.59-8.33-16.51-10.18-33.01-5.3h0c-11.78,3.37-23,9.47-33.18,18.44l-.55.69c12.55-6.56,24.28-11.49,34.93-14.5h0c13.68-4,22.91-2.82,27.55,3.52.06.36-.12.99-.62,1.53-1.3,1.5-3.64,3.03-6.94,4.97-8.41,4.71-21.89,9.79-40.86,15.49l-.16-.05.69.55c20.1-3.14,34.45-7.11,42.86-11.82,4.24-2.17,7.03-4.09,8.47-6.06Z" fill="#170000"/>
      </g>
    </g>
    <path d="M325.08,322.57l4.85.27c.66-12.73,2.15-24.74,4.18-36.26-5.2,10-8.24,22.1-9.04,35.99Z" fill="#170000"/>
  </g>
  <g id="Layer_101" data-name="Layer_10">
    <g>
      <path d="M97.13,176c12.1-11.06,23.23-17.79,33.61-19.79,11.5-2.38,20.37,1.33,26.48,10.93,1.39-11.01,2.13-18.29,1.98-21.55-.18-7.01-2.29-12.5-6.18-16.41-5.15-4.93-12.53-4-22.38,3.06-11.3,8.04-22.5,22.73-33.52,43.76Z" fill="#1a0206"/>
      <path d="M98.79,177.82l-3.84-2.96c11.18-21.34,22.72-36.4,34.3-44.77,10.82-7.76,19.41-8.71,25.53-2.85,4.42,4.46,6.74,10.54,6.93,18.13.11,3.41-.49,9.97-2,21.93l-.86,6.77-3.66-5.76c-5.6-8.8-13.42-12.02-23.9-9.84-9.84,2.04-20.47,8.37-32.49,19.35ZM145.53,128.38c-2.98,0-7.27,1.31-13.41,5.71-8.8,6.36-17.65,16.96-26.4,31.59,8.69-6.46,16.8-10.42,24.56-12.03,10.36-2.15,18.84.24,25.27,7.09.92-7.83,1.31-12.73,1.24-15.22-.16-6.31-2-11.27-5.47-14.76-.79-.76-2.48-2.38-5.79-2.38Z" fill="#090000"/>
    </g>
  </g>
  <g id="Layer_9">
    <g>
      <path d="M293.45,181.2c-2.52-7.8-5.1-13.41-7.72-16.99-5.31-7.52-11.75-10.76-18.81-9.75-8.82,1.23-15.83,9.73-20.71,25.59,10.17-1.21,20.18.77,30.02,5.92,10.12,5.4,17.41,13.11,21.66,22.73.16-8.28-1.14-17.46-4.43-27.5Z" fill="#1a0206"/>
      <path d="M295.41,209.78c-4-9.31-10.9-16.55-20.52-21.51-9.62-5.22-18.93-7.11-28.52-5.83l-3.85.52,1.18-3.7c5.41-16.98,12.85-25.9,22.72-27.28,8.21-1.1,15.31,2.49,21.12,10.7,2.99,3.71,5.7,9.52,8.26,17.77,3.26,9.99,4.72,19.56,4.34,28.47l-4.72.87ZM251.99,177.14c8.44,0,16.89,2.27,25.2,6.78,7.32,3.78,13.23,8.78,17.67,14.92-.6-5.43-1.85-11.07-3.75-16.88v-.03c-2.4-7.7-4.84-13-7.45-16.21l-.1-.13c-4.75-6.73-10.13-9.58-16.47-8.73-7.05.98-12.92,7.82-17.49,20.35.8-.04,1.6-.06,2.4-.06Z" fill="#090000"/>
    </g>
  </g>
  <g id="Layer_8">
    <g id="Layer_13" data-name="Layer_1">
      <g>
        <path d="M400.3,390.53c2.4-6.53,2.62-12.61.89-18.48-1.75-6.34-5.81-11.79-12.26-16.06l.14.04c-9.57-5.98-19.99-7.48-31.6-4.45-4.07,1-8.16,3.1-12.21,6.16-5.26,3.96-10.84,11.13-16.56,21.41h0l-1.29,28.91-.14-.04c.6.65,1.19,1.3,1.79,1.95l.1.19.14.04.14.04h0c3.29,3.8,7.26,6.87,11.78,9.15,6.81,3.59,15.9,3.75,27.02.74,7.64-2.94,14.38-7.09,20.25-12.6h0c5.52-4.83,9.43-10.6,11.79-16.99Z" fill="#f7a66f"/>
        <path d="M394.61,351.69c-5.32-3.3-11.36-5.25-18.08-5.97-6.57-.68-13.15-.26-19.82,1.55-6.3,1.6-11.37,4.36-15.44,8.04-1.48,1.29-3.18,3.31-5.01,5.76-3.7,5.05-6.13,10.63-7.35,16.88l-.05,1.24c5.9-10.38,11.48-17.55,16.56-21.41,4.05-3.05,8.14-5.16,12.21-6.16,11.6-3.03,22.02-1.53,31.6,4.45l-.14-.04c6.45,4.27,10.51,9.72,12.26,16.06,1.73,5.87,1.32,12.04-.89,18.48-2.32,6.24-6.27,12.16-11.82,17.61h0c-5.88,5.51-12.62,9.66-20.25,12.6-11.13,3.01-20.17,2.7-27.02-.74-4.48-2.43-8.46-5.49-11.78-9.15l-.1-.19-.14-.04-.1-.19c-.6-.65-1.19-1.3-1.79-1.95l.14.04c-.14-.04-.1-.19-.25-.23l-1.78,2.31c2.7,4.73,7.14,8.88,13.17,11.92,9.73,4.92,20.03,5.76,30.62,2.43l.14.04.19-.1c10.47-3.99,18.67-8.82,24.59-14.47,6.15-5.9,10.61-12.46,13.14-19.42,2.7-7.55,3.03-14.54,1.04-21.11-1.97-7.2-6.62-13.29-13.82-18.25h0Z" fill="#aa602f"/>
        <g id="Layer_22" data-name="Layer_2">
          <path d="M386.03,354.35c-8.59-3.42-18.25-3.24-29.02.43-10.77,3.67-19.5,9.75-26.04,18.32-6.37,8.65-8.74,17.16-7.23,25.55,1.55,8.52,6.68,14.47,15.27,17.89,8.75,3.5,18.54,3.28,29.3-.39,10.77-3.67,19.22-9.78,25.63-18.31,6.53-8.57,9.03-17.12,7.48-25.64-1.39-8.44-6.52-14.39-15.39-17.85Z" fill="url(#radial-gradient2)"/>
        </g>
      </g>
    </g>
    <g id="Layer_31" data-name="Layer_3">
      <path d="M359.35,374.14c4.54-3.62,9.65-6.91,15.27-9.71-10.72,3.28-18.69,7.87-23.71,13.66-4.25,4.86-5.22,8.71-3.11,11.65-2.2,2.99-3.6,6.05-4.26,8.83-.79,3.24-.25,5.88,1.48,7.88,1.62,1.8,3.96,2.82,6.98,3.22,3.63.58,7.78-.02,12.19-1.52-6.19.82-11.04-.12-14.7-2.85-4.33-3.26-3.72-7.55,1.36-12.99,4.09.71,7.79.48,10.86-.93,3.06-1.41,5.79-3.91,7.58-7.19.8-1.58,1.2-2.95,1.41-4.21.19-1.76-.5-2.79-1.87-3.2-5.78-1.71-11.69,1.51-17.88,9.6-.71-3.19,2.11-7.15,8.41-12.23M367.37,381.13c-.16,1.11-.83,2.24-1.73,3.62-1.39,1.9-3.45,3.28-6.18,4.13-2.78,1-5.13,1.13-7.26.5,5.73-7.07,10.11-10.74,13.23-10.64,1.81.04,2.39.87,1.94,2.39Z" fill="#aa602f"/>
    </g>
  </g>
  <g id="Layer_41" data-name="Layer_4">
    <g>
      <path d="M127.45,185.91c-7.02-1.69-13.96-1.16-21.05,1.89-7.01,2.73-13.74,8.25-20.03,16.6l.04-.16c-4.42,5.79-8.38,12.38-11.59,19.35-4.44,9.69-7.06,20.21-8.06,31.66v.68c.67,5.11,3.67,9.81,8.83,14.06,5,4.21,12.03,7.78,20.91,10.81,8.72,2.99,17.14,4.55,25.33,5.02,8.71.44,15.34-.86,19.93-4.06l.4-.23c5-4.11,8.75-13.13,11.14-27.28,2.31-13.82,2.82-24.73,1.47-33.07-1.8-10.5-4.95-18.47-9.57-24.11-4.94-5.72-10.74-9.47-17.76-11.16M89.97,209.43c5.03-6.82,10.88-11.55,17.48-14.05,6.09-2.46,12.15-2.89,17.86-1.38h0c5.87,1.56,10.96,4.78,15.11,9.61l-.16-.04c4.62,5.64,7.55,12.53,8.78,20.67.81,4.63,1.3,9.18,1.32,13.6-.11,4.9-.66,10.18-1.66,15.86l.04-.16c-2.17,12.67-5.2,20.87-8.83,24.32-3.86,2.37-9.88,3.32-17.76,2.93-7.68-.51-15.74-2.14-24.02-4.84-8.24-2.87-14.69-6.1-19.45-9.91-4.88-4.01-7.54-7.43-7.89-10.59.69-8.99,3.65-18.9,8.75-29.78,1.32-3.05,2.95-6.01,4.66-8.61,1.34-1.85,3.21-4.41,5.76-7.64Z" fill="#aa602f"/>
      <path d="M107.49,195.23c-6.65,2.65-12.49,7.39-17.48,14.05-2.55,3.23-4.47,5.95-5.81,7.8-1.91,2.72-3.5,5.52-4.66,8.61-5.09,10.88-7.9,20.83-8.75,29.78.4,2.99,3.01,6.57,7.89,10.59,4.76,3.81,11.21,7.05,19.45,9.91,8.28,2.71,16.34,4.33,24.02,4.84,8.04.43,13.91-.56,17.76-2.93,3.63-3.45,6.66-11.65,8.83-24.32l.04-.16c1-5.68,1.55-10.97,1.66-15.86-.02-4.42-.35-8.92-1.32-13.6-1.24-8.14-4.17-15.03-8.78-20.67l.16.04c-4.15-4.84-9.24-8.06-15.11-9.61h0c-5.91-1.4-11.81-.93-17.9,1.54Z" fill="#fff"/>
    </g>
    <g>
      <path d="M287.32,256.17c-2.19-10.94-6.01-19.6-11.66-25.85-5.49-6.21-12.2-10.37-20.01-12.27-7.78-2.06-15.59-1.42-23.2,1.66-7.73,2.88-15.02,8.59-21.75,17.33-4.87,6.18-9.07,13.05-12.4,20.49-4.81,10.44-7.44,21.64-8.09,33.69l.03.52c.92,5.51,4.31,10.65,10.21,15.28,5.75,4.58,13.74,8.4,23.72,11.73,9.83,3.29,19.36,5.13,28.35,5.82,9.71.54,17.17-.71,22.28-3.94l.24-.28c5.4-4.34,9.52-14.12,11.8-29.14,2.07-14.23,2.28-25.89.46-35.03M271.07,236.74c5.21,5.97,8.65,13.5,10.51,22.49,2.05,9.55,1.97,20.73-.08,33.61-1.05,6.52-2.24,11.64-3.72,15.32-1.44,3.52-3.2,6.29-5.46,8.4-4.42,2.57-10.8,3.59-19.47,2.99s-17.68-2.48-27.04-5.64c-9.35-3.16-16.71-6.81-22.18-11.15-5.36-4.14-8.41-8-9.23-11.96.31-5.01,1.1-9.9,2.4-14.82,1.25-4.08,3.08-9.03,5.59-14.65,3.21-6.96,7.12-13.4,11.79-19.46,5.6-7.01,12-11.93,19.05-14.82,6.81-2.61,13.54-3.03,20.41-1.38l-.04.16c6.78,1.97,12.62,5.56,17.48,10.92Z" fill="#aa602f"/>
      <path d="M281.58,259.23c-1.86-8.99-5.34-16.36-10.51-22.49-4.86-5.37-10.7-8.95-17.41-10.56l.04-.16c-6.71-1.61-13.44-1.19-20.41,1.38-7.21,2.84-13.61,7.77-19.05,14.82-4.67,6.07-8.58,12.5-11.79,19.46-2.51,5.62-4.45,10.37-5.59,14.65-1.26,4.76-2.09,9.81-2.4,14.82.82,3.95,3.87,7.82,9.23,11.96,5.47,4.34,12.83,7.99,22.18,11.15,9.35,3.16,18.41,4.88,27.04,5.64,8.67.6,15.06-.42,19.47-2.99,2.26-2.12,4.01-4.88,5.46-8.4,1.49-3.68,2.83-8.76,3.72-15.32,1.98-13.23,2.06-24.42,0-33.97Z" fill="#fff"/>
    </g>
    <g clip-path="url(#clippath-1)">
      <g>
        <path d="M112.73,208.49c-.74-5.64-3.22-9.57-7.28-11.72-4.22-2.22-8.91-1.93-13.87.78-5.1,2.64-9.23,7.03-12.3,13.02-3.07,5.99-4.31,11.95-3.43,17.67.74,5.64,3.07,9.5,7.43,11.79,4.07,2.15,8.76,1.86,13.87-.78,5.17-2.79,9.3-7.18,12.37-13.17,2.78-5.77,4.02-11.73,3.21-17.59Z"/>
        <path d="M85.51,225.6c1.48.71,3.17.62,5.06-.29,1.9-.91,3.34-2.4,4.42-4.61,1.22-2.15,1.7-4.28,1.45-6.41-.32-1.98-1.29-3.36-2.7-4.22-1.48-.71-3.09-.77-4.99.14-1.82,1.13-3.34,2.76-4.56,4.91-1.07,2.22-1.48,4.21-1.23,6.33.1,2.05,1.08,3.44,2.55,4.15Z" fill="#fff"/>
        <path d="M99.02,215.36c.16,1.17.69,1.97,1.72,2.47.89.43,1.77.49,3.08.03,1.02-.6,1.89-1.64,2.68-2.9.79-1.26.92-2.66.75-3.83-.31-1.24-.76-2.19-1.65-2.62s-1.99-.41-3.01.19c-1.02.6-2.03,1.57-2.68,2.9-.79,1.26-.99,2.44-.9,3.76Z" fill="#fff"/>
      </g>
    </g>
    <g clip-path="url(#clippath-2)">
      <g>
        <path d="M236.95,227.89c-5.02-2.44-10.66-1.92-16.69,1.48-6.04,3.4-10.81,8.81-14.2,15.93-3.6,7.2-4.79,14.23-3.86,20.95,1.08,6.79,4.21,11.44,9.23,13.88,5.02,2.44,10.44,2,16.63-1.33,6.04-3.4,10.81-8.81,14.42-16.01,3.46-7.27,4.64-14.29,3.56-21.08-1.08-6.79-4.06-11.37-9.08-13.82Z"/>
        <path d="M212.19,249.68c-1.21,2.69-1.69,5.36-1.37,7.84.39,2.34,1.63,3.98,3.43,4.79,1.8.81,3.78.8,5.94-.39,2.16-1.19,3.83-3.31,5.2-5.94,1.36-2.63,1.78-5.14,1.46-7.63-.32-2.49-1.56-4.13-3.36-4.93-1.8-.81-3.85-.65-6,.54-2.37,1.27-3.98,3.25-5.28,5.72Z" fill="#fff"/>
        <path d="M237.72,241.38c-1.05-.47-2.3-.5-3.52.21-1.37.64-2.49,1.94-3.24,3.58-.74,1.65-1.05,3.13-.77,4.51.28,1.38.9,2.39,1.88,3.01,1.05.47,2.3.5,3.59-.36,1.37-.64,2.43-1.79,3.17-3.43.74-1.65,1.05-3.13.77-4.51-.21-1.53-.84-2.54-1.88-3.01Z" fill="#fff"/>
      </g>
    </g>
  </g>
  <g id="Layer_19">
    <g id="Layer_23" data-name="Layer_2">
      <g>
        <path d="M125.86,280.71c-3.01,1.51-5.06,3.81-6.04,7.12-.98,3.31-.67,6.31,1.09,9.05,2.58,4.01,6.14,6.44,10.96,7.52,5.49,1.11,11.9.26,19.33-2.85l.16.05-8.4-14.46c-.11-.2-.43-.3-1.01-.64-6.72-5.07-12.14-7.01-16.09-5.78Z" fill="#f7a66f"/>
        <path d="M123.31,276.02c-4.35,1.97-7.24,5.39-8.68,10.27-1.35,4.57-.73,8.86,1.8,13.03,2.66,4.89,7.6,7.89,14.54,8.74,7.25.94,13.94-.85,20.18-5.16.25-.27.5-.54.55-.69.45-.38.34-.58-.33-.61l-.16-.05c-7.42,3.11-13.88,4.12-19.33,2.85-4.82-1.08-8.54-3.55-10.96-7.52-1.6-2.7-2.07-5.75-1.09-9.05.98-3.31,3.07-5.77,6.04-7.12,3.96-1.23,9.37.71,16.09,5.78.58.34.9.44,1.01.64.16.05.47.14.69.55l-1.09-1.52c-.06-.36-.33-.61-.71-1.07-2.94-3.95-6.05-6.75-9.01-8.31-3.39-1.86-6.41-2.06-9.53-.76h0Z" fill="#aa602f"/>
      </g>
    </g>
    <g clip-path="url(#clippath-3)">
      <g id="Layer_32" data-name="Layer_3">
        <path d="M162.35,301.51c1.63-5.51.4-11.1-3.59-16.58-4.03-5.31-9.62-9.18-17.04-11.31-7.42-2.14-14.23-2.07-20.75.1-6.25,2.42-10.37,6.42-12,11.93-1.63,5.51-.56,11.06,3.47,16.38,4.14,5.51,9.74,9.38,17.12,11.67,7.42,2.14,14.23,2.07,20.47-.34,6.56-2.34,10.64-6.18,12.31-11.85Z" fill="url(#radial-gradient3)"/>
      </g>
    </g>
  </g>
  <g>
    <path d="M86.4,351.63s6.72,47.27,26.44,65.28c14.1,12.87,34.91,17.97,59.7,18.89,28.34-1.03,41.16-6.02,55.23-18.93,19.68-18.05,26.31-65.34,26.31-65.34,0,0-29.31,25.2-83.84,25.2s-83.84-25.11-83.84-25.11Z" fill="#2b0909"/>
    <g>
      <path d="M170.23,402.51c32.47.09,55.92-12.4,65.32-18.41,2.78-1.78,4.2-5.05,3.59-8.29l-2.53-13.54c-14.05,6.86-36.41,14.47-66.39,14.47s-53.1-8.1-67.3-15.1c.02,4.49-.13,10.41-.25,14.43-.09,2.9,1.39,5.61,3.87,7.13,9.46,5.78,34.58,19.23,63.68,19.32Z" fill="#fff"/>
      <path d="M170.58,404.16h-.35c-29.51-.08-54.96-13.71-64.53-19.56-2.97-1.82-4.75-5.1-4.65-8.58.12-4.1.26-9.93.25-14.37v-2.65s2.37,1.17,2.37,1.17c13.82,6.81,36.58,14.93,66.57,14.93s52.29-7.78,65.67-14.31l1.94-.95,2.93,15.66c.73,3.91-.97,7.83-4.32,9.97-8.79,5.62-32.77,18.67-65.86,18.67ZM170.24,400.87h.34c32.22,0,55.54-12.68,64.09-18.15,2.23-1.42,3.35-4.01,2.86-6.6l-2.14-11.45c-13.85,6.47-35.9,13.71-65.17,13.71s-51.37-7.43-65.66-14.13c-.03,3.99-.14,8.5-.24,11.87-.07,2.3,1.11,4.48,3.08,5.68,9.34,5.71,34.15,18.99,62.83,19.07h0Z" fill="#a4a4a4"/>
    </g>
    <g>
      <path d="M170.92,423.41c-38.31.86-68.99-21.16-69.78-22.66h0c3.24,6.31,7.09,12.01,11.63,16.16,14.1,12.87,34.91,17.97,59.7,18.89,28.34-1.03,41.16-6.02,55.23-18.93,4.09-3.75,7.62-8.77,10.64-14.37.23-.43-22.58,19.89-67.42,20.9Z" fill="#fff"/>
      <path d="M172.53,437.45c-27.89-1.03-47.76-7.35-60.86-19.32-4.31-3.94-8.34-9.53-11.98-16.62l1.51-.78,1.28-.92c.2.23,29.17,22.86,68.41,21.97h0c37.78-.85,60.13-15.74,66.07-20.29.43-.33,1.43-1.1,2.45-.23l1.01.86-.63,1.17c-3.36,6.22-7.06,11.2-10.98,14.8-14.88,13.64-28.56,18.35-56.28,19.36ZM106.44,406.67c2.37,3.65,4.86,6.67,7.44,9.03,12.51,11.42,31.69,17.46,58.65,18.46,27.02-.99,39.68-5.31,54.06-18.5,2.19-2.01,4.32-4.51,6.36-7.46-10.86,6.74-31.38,16.16-62,16.85-28.28.61-53.02-11.17-64.52-18.39Z" fill="#a4a4a4"/>
    </g>
    <path d="M76.34,351.92c-.46-2.74.24-5.61,1.79-7.9,1.59-2.36,4.13-3.89,6.9-4.42,1.57-.3,3.2-.23,4.74.18,1.24.33,1.78-1.6.53-1.93-3.27-.87-6.83-.39-9.76,1.29-2.89,1.65-4.98,4.47-5.86,7.67-.51,1.85-.58,3.76-.26,5.64.09.53.75.83,1.23.7.56-.15.79-.7.7-1.23h0Z" fill="#c57640"/>
    <path d="M247.98,340.39c2.92-2.12,6.79-2.41,10.12-1.09,3.31,1.32,5.61,4.35,6.51,7.73.51,1.93.59,3.98.17,5.94-.26,1.25,1.66,1.79,1.93.53.85-4.04.03-8.46-2.46-11.8-2.52-3.38-6.51-5.33-10.73-5.19-2.33.08-4.65.78-6.55,2.16-.44.32-.65.87-.36,1.37.25.43.93.68,1.37.36h0Z" fill="#c57640"/>
    <path d="M172.67,438.01h-.09c-27.97-1.05-48.01-7.44-61.27-19.54-20.14-18.39-26.94-64.79-27.22-66.75l-.89-6.22,4.88,3.97c.3.25,30.78,24.56,82.28,24.56s81.95-24.36,82.24-24.6l4.94-4.23-.9,6.44c-.28,1.97-6.98,48.38-27.08,66.81-15.05,13.8-28.85,18.56-56.81,19.57h-.09ZM89.98,356.85c2.49,13.04,9.84,44.46,24.65,57.99,12.34,11.27,31.33,17.24,58.04,18.25,26.85-.98,39.37-5.26,53.57-18.28,14.73-13.51,22.01-44.78,24.51-57.9-10.66,7.17-37.89,22.04-80.37,22.04s-69.57-15.02-80.39-22.09Z" fill="#c57640"/>
  </g>
</svg>