<?xml version="1.0" encoding="UTF-8"?>
<svg id="Layer_2" data-name="Layer 2" xmlns="http://www.w3.org/2000/svg" xmlns:xlink="http://www.w3.org/1999/xlink" viewBox="0 0 327.40255225 106.76043849">
  <defs>
    <clipPath id="clippath">
      <path d="M319.37552425,42.38556654c0,15.3056806-.25091154,24.84035742-.3763673,28.60406892-.25091154,3.8891288-.75269615,7.77829607-2.13274805,12.16924795-2.13279615,7.276473-4.64187298,12.29470371-7.52739403,15.05476907-2.88548259,2.88552112-7.27643435,4.51640764-13.17293222,5.01826918-8.15462471.62727884-15.55655329-2.00733075-22.45669727-7.6528403-4.89277482-4.1400788-7.52734588-7.90375184-9.91104387-13.80021139-1.12910188-2.88548266-2.00725378-6.90010569-2.63457106-12.04379218-.62727882-5.14372494-1.25455765-10.78927296-1.75638071-17.18755558-.37636729-6.39824416-.87819035-14.93127475-1.25455765-25.59505348-.37636729-7.90375184-.25091153-12.16928641.37636729-13.04747678.12545576-.25091154.50182306-.62727884,1.38001341-1.00364614,1.88187493-.75273461,5.77100364-1.38001345,11.91837457-1.88183652,6.14733247-.50182307,9.53468537-.50182307,10.16196421,0,.50181425.3763673,1.12909308,5.39459802,1.7563719,14.80381907.62727882,9.40925951,1.3800223,19.32230354,2.25820377,29.73517074.87822881,10.53832296,1.75638071,16.93660559,2.88549157,19.32026518,2.50914478,5.64554802,5.52008313,5.14372494,8.02919842-1.25455768,1.12914034-2.76002689,1.63092494-8.15466337,1.75641917-16.30932675.1254173-8.53103068.25091153-16.06037666-.12549422-23.21139389-.25091153-7.02556146-.5017846-11.54200757-.75269613-13.42384408-.62727882-4.26553457-.75273459-6.90010569-.12545576-7.90375184.62724036-1.12910191,2.50911529-2.13274805,5.52006299-2.88548266,2.88551171-.62727884,5.89645006-.87819038,9.53466724-1.00364614,3.63825564-.12549423,5.52014029.12545577,5.89646913.75273461.3763673.62727884.62727884,11.54196911.75273461,32.74607071Z" style="fill: none;"/>
    </clipPath>
    <clipPath id="clippath-1">
      <path d="M254.43096492,43.10845636v.00596126c-.08365,1.70261399-.17526116,3.42315024-.2927173,5.16760846l-1.25459611,19.69663248c-.5017846,7.52738453-1.12910188,13.92566716-1.12910188,19.32030364v1.37997499c0,4.64190187-.37636729,5.77104224-.75273459,8.40561337-.50182306,2.88548266-.25091153,3.1363942-1.38000543,4.26553457-1.0036541,1.37997499-1.25460409,1.25451922-3.38735209,1.37997499-2.132748.37640576-3.01089989,0-6.52369977-.12545577-.37636729-.12545577-.75277305-.12545577-1.12910188-.12545577l-8.28015739-.62724038-.25091153-13.29838832c-.1254173-9.03289221-.75273459-13.80021139-1.37997495-14.6783633-1.38001341-1.50550767-5.52009211-1.63096344-8.15466317-.25095-.87819035.50182307-1.50550764,1.38001345-1.75641917,2.63460959-.12545576,1.37997499-.25090433,4.26549611-.25090433,8.90739798,0,5.52005379.37636009,10.66377873.75272739,12.67107102.37640575,1.12914037.50186152,2.13274805.62727882,3.1363942.37640575,2.00733075.37640575,1.63092498-.1254173,2.50915382-.50186152.3763673-4.3909831.3763673-11.54200727,0l-10.78923423-.6273173.12545576-7.15101723c.87819035-50.8097783,1.75638071-76.65578177,2.63457106-77.28306061.62727882-.3763673,4.265496-.87819038,10.91472845-1.50546921,4.14004024-.37640576,5.14368635-.37640576,7.52734588-.37640576,2.50911529.12545577,2.76002682-.12545577,3.7637114,1.0036846,1.12910188,1.12910191.87815189,1.38001345.87815189,3.8891288.12549422,2.50915382-.1254173,3.51279996-.75269613,7.6528403-.87819035,6.65119407-1.38005187,13.30034977-1.38005187,19.82408816v9.78558836l3.7637114.25091154c3.13639412.25091154,5.01826905,0,5.77100364-.75273461,1.25455765-1.38001345,2.00729224-6.02191532,2.38365953-14.05108446l.37637487-7.78029598,1.00363854-20.82577285,8.78198045-1.75638075,4.6418633-.87819038c2.63457106-.50182307,4.26553446-.87819038,4.76735752-.75273461.23895054,0,.50579249.08365.78657918.24295036-.09757243.91007352-.15933882,2.0311758-.15933882,3.39526691,0,2.00733075.12546385,4.39099034.25091153,7.40192877.2728336,7.72452931.61139494,14.39760699.92003458,19.91969914Z" style="fill: none;"/>
    </clipPath>
    <clipPath id="clippath-2">
      <path d="M147.62780329,71.24054699c3.13639412,15.43109791,10.91468999,16.56023828,27.85129515,3.1363942,3.38730565-2.66845418,5.51413084-4.24557395,6.51973841-4.73151313,1.68073034.87422902,5.03615284,2.92736535,8.1685856,5.63558694-3.40122808-3.28373357-7.39792247-5.93030415-7.66280119-5.79684875-.11349478,0-.28275622.05376676-.50578442.16126181-.38832828-.20306758-.6870453-.34248425-.87419054-.41217335l1.25455765-.25091154c1.1291082.50182307,3.76367294,2.25820382,6.64915553,4.76731918l1.25459611,1.63092498c-.0358445-.03184469-.07168901-.06168947-.10757197-.09161117,1.0952638,1.05745136,2.12878664,2.18055355,2.95521015,3.29773293-.04776703,2.74410455-.09557252,5.57382055-.14137811,8.49318626-.69100666.92799578-1.55527458,1.96948633-2.5808043,3.10454951-2.38365953,2.63457113-4.01462293,4.01462303-4.89281328,4.01462303s-1.75638071.50178461-2.63456476,1.50543076c-1.00365242,1.25459614-3.38731195,2.63460959-7.27647911,4.26553457-3.76367294,1.63096344-7.52738434,2.76002689-11.16560152,3.51279996-2.88552105.50182307-5.39463634.62724038-7.27647281.62724038-2.132748-.12541731-5.26918058-.37632884-9.40922081-1.00360768-.37636189,0-.87819035,0-1.25459611-.12545577-3.76367294-.37640576-5.52005365-.75277307-9.40922081-2.63460959-2.13274291-1.00364614-3.88912871-2.13274805-5.26913711-3.5127615-2.88552606-2.88548266-6.39828747-8.15470183-8.53103547-15.68204791-1.12910188-4.26553457-.87819035-11.79288064,1.00364612-22.5821536.50182306-2.88548266,2.132748-7.276473,4.89277482-13.30034977,2.76006528-6.14737109,4.76735752-9.66013259,6.02191517-10.66377873,1.00365124-.87822884,1.50546918-1.63096344,1.50546918-2.25824228,0-.50182307,1.12914034-2.00729229,3.38734411-4.39095188,2.38365953-2.38365959,4.89277482-4.5164461,7.52738434-6.52373839,1.88183647-1.50546921,4.76732459-3.01093843,8.90739776-4.64190187,3.88912871-1.63092498,7.40192858-2.50911536,10.5383227-3.1363942,10.66377846-2.00729229,26.5967375,7.52738453,26.22037021,15.68204791-.12545576,2.13274805-.87819035,4.1400788-2.132748,6.14737109-1.3800454,2.13274805-2.00729224,3.38930564-2.00729224,3.76367304,0,.62927875-1.00364612,2.13474796-3.01097681,4.51844601l-3.01093835,3.63821727-2.25820377-2.25820382c-1.38001341-1.38001345-3.76367294-2.38369805-7.02556128-3.26188843-3.13643258-.75469606-5.77100364-1.12910191-7.90375164-.75469606-9.28376505,1.3819749-20.32391081,19.94954392-18.31661857,30.11149958Z" style="fill: none;"/>
    </clipPath>
    <clipPath id="clippath-3">
      <path d="M119.96765319,53.31621761c-.01792225-.57551199-.03984432-1.16694632-.06372313-1.77234155-.50182777-12.42215939-1.50547389-20.95319007-3.38731036-26.09687655-1.75641917-5.14372494-4.89281328-8.6565249-9.28376505-10.53836142-4.89281328-2.13274805-9.6601708-2.25820382-14.42748986-.50182307-3.13643258,1.12910191-6.02191517,3.01097689-8.78194199,5.77100378-2.88548259,2.88548266-5.14372481,5.39463648-6.77464976,7.77829607-1.63092494,2.13274805-2.38365953,3.63821727-2.38365953,4.39095188,0,.75277307-.75273459,2.76006535-2.132748,5.89645955-3.01097681,7.02556146-4.26553446,18.82044201-3.13643258,35.50613606.37636729,5.52005379.75273459,9.40922105,1.12910535,11.54196911.37636383,1.88187498,1.00368111,3.51279996,2.00732723,4.76735764,1.38001341,2.13278651,2.132748,3.5127615,2.132748,4.26553457,0,1.00364614,1.38001341,2.76002689,4.01458447,5.26914225,2.50911529,2.50915382,4.76735752,4.1400788,6.64919399,4.76731918,3.63821718,1.38005191,7.65284011,1.50550767,12.04379187.37640576,4.39099023-1.12910191,8.02921175-3.1363942,10.91472845-6.27282685,1.38001341-1.38001345,3.13639412-4.26549611,5.26914212-8.65648644,2.13278646-4.5164461,3.26188834-7.276473,3.26188834-8.40557491,0-.62131758.42613423-2.52107635,1.21075197-5.70127622v-.00199991c-.2230282-1.38997453-.33456153-3.00301572-.33456153-4.83504683,0-4.39099034.62727882-9.66017105,1.75638071-16.18387098.07768873-.40825045.18322234-.86426794.31663927-1.3640911ZM101.58730679,75.8824104c-.75273459,5.64554802-1.50546918,9.15834798-2.132748,10.28744989-1.63092494,3.01093843-6.39828246,2.25816536-9.40922081-1.63096344-1.12910188-1.38001345-1.75641917-3.1363942-2.0073307-5.14368648-.37636729-2.00733075-.50181917-6.52373839-.62727882-14.05112292-.12545576-7.6528403-.25091153-12.54561525.12545966-14.67840176.25090764-2.13274805,1.00364223-5.01823072,2.25823833-8.40753636,2.38365953-6.52173848,5.89642094-11.91837487,7.77825741-11.91837487.62731728,0,1.12910188.3763673,1.75642336,1.25455768.62727884.87819038,1.38000922,4.89281341,2.13274381,11.79488055.87819035,7.02556146,1.25455765,12.92202101,1.25455765,17.81479596,0,4.1400788-.37636729,9.03289221-1.12910188,14.67840176Z" style="fill: none;"/>
    </clipPath>
    <clipPath id="clippath-4">
      <path d="M66.58499459,83.61490089c-.20510595,3.63625582-.68704196,5.48224783-2.13278646,7.69864589-2.25820377,3.7637115-8.530992,8.78194221-13.17289376,10.03653835-2.00729224.62724038-4.39099023,1.50543076-7.02556128,2.50911536-3.38730565,1.38001345-7.65284011,1.75638075-13.04747645,1.63092498-5.26914212-.12545577-9.53463812-1.00364614-12.79652432-2.50911536-7.52738649-3.51279996-13.04744014-10.16199412-13.54930166-17.31297289-.7527328-9.03289221.25091153-3.88916726,11.16563998-13.80021139,3.38730565-3.01093843,5.39463634-4.39099034,6.02187671-4.26549611.75277305.25087308,2.0073307,2.75998843,3.63825564,7.52734607,1.88183647,5.64554802,3.01093835,7.77829607,5.64550941,9.53467682,4.39099023,3.01097689,8.0292074,2.88552112,10.91472845.12545577,5.8964594-5.64550956,1.50546918-13.54926139-11.54196882-19.94754402-5.8964594-2.88548266-10.0365381-5.64554802-12.67110916-8.28011914-2.63457106-2.63457113-4.51640753-5.89645955-5.64554787-9.78558836-.87819035-3.26188843-1.38001341-5.39463648-1.38001341-6.27482676.12545576-1.127102.75273459-3.1363942,1.88183647-6.14733263,1.12910188-2.88552112,3.0109789-6.14737109,5.64554787-9.78562682,2.76002682-3.63821727,4.64190175-5.52005379,5.77100364-5.52005379,1.00364612,0,4.6418633-3.1363942,8.28011893-4.1400788,2.50911529-.62727884,6.14737093-.75273461,10.78923423-.3763673,4.64190175.3763673,7.77829587,1.00364614,9.40922081,2.00729229,5.64554787,3.38734419,8.4055747,6.77464993,8.4055747,9.91108258,0,2.38365959-1.75638071,7.02556146-5.14368635,14.17654023-1.38005187,2.88748257-4.1400787,1.63096344-6.52373529-2.50911536-1.88183652-3.38530583-2.88548552-4.14004034-5.89646233-4.39099034-5.01823059-.50178461-8.40557213,3.13643266-8.90739776,9.78758826-.62727882,7.02556146.75273459,9.91108258,6.2728267,12.42019794,3.13639412,1.50546921,5.26914212,2.25820382,6.398244,2.25820382,1.6309634,0,4.39099023,1.25455768,8.0292074,3.38730573,3.88916717,2.25824228,6.52373823,4.39099034,8.0292074,6.27282685.57355053.78061794,1.08333476,1.49950795,1.50746908,2.16063139.37640575,5.75508144.75077648,9.63628753,1.12714043,11.63958.1194945.68504541.2927173,1.34616885.50182306,1.9614867Z" style="fill: none;"/>
    </clipPath>
  </defs>
  <g id="Layer_1-2" data-name="Layer 1">
    <g>
      <g>
        <g>
          <g>
            <path d="M67.46318494,72.11873737c-.33656143-1.23463552-1.27447645-2.66845418-2.63457106-4.39299024-.16130027-.20510595-.32860026-.41217335-.50186152-.62524047-1.25455765-1.38005191-3.01093835-2.88552112-5.14368635-4.5164461-2.00729224-1.75638075-4.1400787-3.63825573-7.02556128-5.52009225-3.88912581-2.38365959-6.77464976-3.5127615-8.53103046-3.5127615-.87819035,0-2.88548259-.87819038-6.02191517-2.13278651l-.62727882-.25091154c-1.1290993-1.63092498-1.38001341-4.14004034-1.00364612-7.52934598.50182566-5.89445964,3.38730565-9.03285375,7.52738434-8.65648644l1.75638071.3763673c.62727882,1.12910191,1.25459611,1.88183652,2.132748,2.51111527l1.38005187,1.37801354c3.01093835,4.89481332,6.39824708,5.89845946,8.4055747,1.88187498,3.63821718-7.15101723,5.26914212-12.04383064,5.26914212-14.67840176,0-3.13643266-2.25820377-6.27282685-6.90010552-9.66017105l-.50182306-.50178461c-1.50546918-1.50550767-3.38730565-2.88552112-5.52005072-4.26553457-1.88183652-1.12910191-5.14372775-1.75638075-9.91104681-2.13274805-1.8818723-.12545577-3.26188834-.25091154-4.76735752-.25091154-2.50911529,0-4.64190175.25091154-6.2728267.62727884-2.38365953.62727884-4.6418633,2.13274805-6.2728267,3.1363942v.12545577c-1.12910188.62727884-1.75638071.87819038-1.75638071.87819038-1.38001341,0-3.51276141,2.00729229-6.52373823,5.89645955-2.63457106,3.63825573-4.6418633,7.02556146-5.77096518,10.03649989-1.12910188,3.01097689-1.75638071,5.14372494-1.88183647,6.27282685,0,1.13110182.50182306,3.38730573,1.38001341,6.64919416,1.12910188,3.89112871,3.26184988,7.02752291,5.8964594,10.16395557l.75273459.87819038c.87819242,1.12910191,1.75638071,2.25820382,2.76002894,3.1363942,2.88548047,2.88552112,7.15101494,5.52009225,13.04743588,8.53103068,3.51279987,1.88183652,6.2728293,3.7637115,8.65652469,5.64554802.87819035,1.50546921,1.25455765,2.88548266,1.25455765,4.01458457,0,1.63092498-.75277305,3.26188843-2.25824222,4.76735764-1.25455765,1.25455768-2.63456849,1.88183652-4.265496,1.88183652-1.25455765,0-2.50911529-.25091154-3.7637114-.87819038-.87819035-1.38001345-1.88183647-3.5127615-2.88548259-6.64919416-1.88183647-5.39459802-3.01093835-8.02920761-4.51640753-8.40557491h-.37640575l-2.76002682-2.88548266c-.12545576-.12549423-.37636729-.3763673-.75273459-.50182307-1.3800113-.3763673-3.26184782,1.12910191-6.90010552,4.51640764-4.14004024,3.88916726-6.64919399,5.39463648-8.28011893,6.27282685-3.13639412,1.88183652-3.76367294,2.76006535-3.13639412,8.28011914.50182306,4.51640764,2.88548259,9.03285375,6.52373823,12.67107102l.50182306.50182307c2.63457106,3.88916726,6.2728267,6.90014415,10.66377846,8.90739798,3.13639412,1.50550767,7.90375164,2.50915382,13.29834952,2.63460959,5.39463634.12545577,10.0365381-.50182307,13.54929951-1.75638075l6.90010552-2.38369805c5.14372481-1.75638075,11.29105729-6.6491557,13.9256668-10.53832296,1.2386353-1.857953,1.80814755-3.476917,2.09290368-6.06372109.17726107-1.60704147.24295036-3.58645042.29075585-6.23098263,0-3.88916726-.12545576-6.27282685-.50182306-7.6528403ZM64.45220813,91.31354678c-2.25820377,3.7637115-8.530992,8.78194221-13.17289376,10.03653835-2.00729224.62724038-4.39099023,1.50543076-7.02556128,2.50911536-3.38730565,1.38001345-7.65284011,1.75638075-13.04747645,1.63092498-5.26914212-.12545577-9.53463812-1.00364614-12.79652432-2.50911536-7.52738649-3.51279996-13.04744014-10.16199412-13.54930166-17.31297289-.7527328-9.03289221.25091153-3.88916726,11.16563998-13.80021139,3.38730565-3.01093843,5.39463634-4.39099034,6.02187671-4.26549611.75277305.25087308,2.0073307,2.75998843,3.63825564,7.52734607,1.88183647,5.64554802,3.01093835,7.77829607,5.64550941,9.53467682,4.39099023,3.01097689,8.0292074,2.88552112,10.91472845.12545577,5.8964594-5.64550956,1.50546918-13.54926139-11.54196882-19.94754402-5.8964594-2.88548266-10.0365381-5.64554802-12.67110916-8.28011914-2.63457106-2.63457113-4.51640753-5.89645955-5.64554787-9.78558836-.87819035-3.26188843-1.38001341-5.39463648-1.38001341-6.27482676.12545576-1.127102.75273459-3.1363942,1.88183647-6.14733263,1.12910188-2.88552112,3.0109789-6.14737109,5.64554787-9.78562682,2.76002682-3.63821727,4.64190175-5.52005379,5.77100364-5.52005379,1.00364612,0,4.6418633-3.1363942,8.28011893-4.1400788,2.50911529-.62727884,6.14737093-.75273461,10.78923423-.3763673,4.64190175.3763673,7.77829587,1.00364614,9.40922081,2.00729229,5.64554787,3.38734419,8.4055747,6.77464993,8.4055747,9.91108258,0,2.38365959-1.75638071,7.02556146-5.14368635,14.17654023-1.38005187,2.88748257-4.1400787,1.63096344-6.52373529-2.50911536-1.88183652-3.38530583-2.88548552-4.14004034-5.89646233-4.39099034-5.01823059-.50178461-8.40557213,3.13643266-8.90739776,9.78758826-.62727882,7.02556146.75273459,9.91108258,6.2728267,12.42019794,3.13639412,1.50546921,5.26914212,2.25820382,6.398244,2.25820382,1.6309634,0,4.39099023,1.25455768,8.0292074,3.38730573,3.88916717,2.25824228,6.52373823,4.39099034,8.0292074,6.27282685.57355053.78061794,1.08333476,1.49950795,1.50746908,2.16063139.59743404.92999568,1.03352936,1.74841958,1.2525962,2.48127048.37636729,1.00364614.50182306,3.38730573.50182306,7.276473-.02788333,1.48358561-.06372784,2.74610446-.12545576,3.84332322-.20510595,3.63625582-.68704196,5.48224783-2.13278646,7.69864589Z" style="fill: #231f20;"/>
            <path d="M66.58499459,83.61490089c-.20510595,3.63625582-.68704196,5.48224783-2.13278646,7.69864589-2.25820377,3.7637115-8.530992,8.78194221-13.17289376,10.03653835-2.00729224.62724038-4.39099023,1.50543076-7.02556128,2.50911536-3.38730565,1.38001345-7.65284011,1.75638075-13.04747645,1.63092498-5.26914212-.12545577-9.53463812-1.00364614-12.79652432-2.50911536-7.52738649-3.51279996-13.04744014-10.16199412-13.54930166-17.31297289-.7527328-9.03289221.25091153-3.88916726,11.16563998-13.80021139,3.38730565-3.01093843,5.39463634-4.39099034,6.02187671-4.26549611.75277305.25087308,2.0073307,2.75998843,3.63825564,7.52734607,1.88183647,5.64554802,3.01093835,7.77829607,5.64550941,9.53467682,4.39099023,3.01097689,8.0292074,2.88552112,10.91472845.12545577,5.8964594-5.64550956,1.50546918-13.54926139-11.54196882-19.94754402-5.8964594-2.88548266-10.0365381-5.64554802-12.67110916-8.28011914-2.63457106-2.63457113-4.51640753-5.89645955-5.64554787-9.78558836-.87819035-3.26188843-1.38001341-5.39463648-1.38001341-6.27482676.12545576-1.127102.75273459-3.1363942,1.88183647-6.14733263,1.12910188-2.88552112,3.0109789-6.14737109,5.64554787-9.78562682,2.76002682-3.63821727,4.64190175-5.52005379,5.77100364-5.52005379,1.00364612,0,4.6418633-3.1363942,8.28011893-4.1400788,2.50911529-.62727884,6.14737093-.75273461,10.78923423-.3763673,4.64190175.3763673,7.77829587,1.00364614,9.40922081,2.00729229,5.64554787,3.38734419,8.4055747,6.77464993,8.4055747,9.91108258,0,2.38365959-1.75638071,7.02556146-5.14368635,14.17654023-1.38005187,2.88748257-4.1400787,1.63096344-6.52373529-2.50911536-1.88183652-3.38530583-2.88548552-4.14004034-5.89646233-4.39099034-5.01823059-.50178461-8.40557213,3.13643266-8.90739776,9.78758826-.62727882,7.02556146.75273459,9.91108258,6.2728267,12.42019794,3.13639412,1.50546921,5.26914212,2.25820382,6.398244,2.25820382,1.6309634,0,4.39099023,1.25455768,8.0292074,3.38730573,3.88916717,2.25824228,6.52373823,4.39099034,8.0292074,6.27282685.57355053.78061794,1.08333476,1.49950795,1.50746908,2.16063139.37640575,5.75508144.75077648,9.63628753,1.12714043,11.63958.1194945.68504541.2927173,1.34616885.50182306,1.9614867Z" style="fill: #ee2929;"/>
            <path d="M101.46185102,43.38921268c-.75273459-6.90206714-1.50546497-10.91669018-2.13274381-11.79488055-.62732147-.87819038-1.12910607-1.25455768-1.75642336-1.25455768-1.88183647,0-5.39459788,5.39663639-7.77825741,11.91837487-1.25459611,3.38930564-2.0073307,6.2747883-2.25823833,8.40753636-.37637119,2.13278651-.25091542,7.02556146-.12545966,14.67840176.12545966,7.52738453.25091153,12.04379218.62727882,14.05112292.25091153,2.00729229.87822881,3.76367304,2.0073307,5.14368648,3.01093835,3.8891288,7.77829587,4.64190187,9.40922081,1.63096344.62727882-1.12910191,1.38001341-4.64190187,2.132748-10.28744989.75273459-5.64550956,1.12910188-10.53832296,1.12910188-14.67840176,0-4.89277495-.37636729-10.7892345-1.25455765-17.81479596ZM96.94544349,71.9932816c-.87822881,5.39459802-1.38005187,8.90739798-2.0073307,10.03649989-.37636729.87819038-1.25455765,1.38001345-2.50911529,1.38001345-.50182306,0-1.12910188-.12541731-1.75638071-.25091154-.62727882-1.12910191-1.25459217-2.50911536-1.38005187-3.88916726-.37632883-2.38365959-.5017846-7.40189031-.62727882-13.9256287,0-1.88183652-.12545576-3.26184997-.12545576-4.64190187v-3.38730573c0-2.38365959.12545576-5.14372494.25094999-6.52373839.37632883-2.00729229,1.00364612-4.76731918,2.25820377-8.15662482,1.63092494-4.1400788,3.38730565-7.77829607,4.89277482-9.66017105l.87823294,6.77664983c.87814777,7.02556146,1.25455768,12.79652679,1.25455768,17.68934019,0,3.88916726-.25091569,9.03285375-1.12910604,14.552946ZM101.46185102,43.38921268c-.75273459-6.90206714-1.50546497-10.91669018-2.13274381-11.79488055-.62732147-.87819038-1.12910607-1.25455768-1.75642336-1.25455768-1.88183647,0-5.39459788,5.39663639-7.77825741,11.91837487-1.25459611,3.38930564-2.0073307,6.2747883-2.25823833,8.40753636-.37637119,2.13278651-.25091542,7.02556146-.12545966,14.67840176.12545966,7.52738453.25091153,12.04379218.62727882,14.05112292.25091153,2.00729229.87822881,3.76367304,2.0073307,5.14368648,3.01093835,3.8891288,7.77829587,4.64190187,9.40922081,1.63096344.62727882-1.12910191,1.38001341-4.64190187,2.132748-10.28744989.75273459-5.64550956,1.12910188-10.53832296,1.12910188-14.67840176,0-4.89277495-.37636729-10.7892345-1.25455765-17.81479596ZM96.94544349,71.9932816c-.87822881,5.39459802-1.38005187,8.90739798-2.0073307,10.03649989-.37636729.87819038-1.25455765,1.38001345-2.50911529,1.38001345-.50182306,0-1.12910188-.12541731-1.75638071-.25091154-.62727882-1.12910191-1.25459217-2.50911536-1.38005187-3.88916726-.37632883-2.38365959-.5017846-7.40189031-.62727882-13.9256287,0-1.88183652-.12545576-3.26184997-.12545576-4.64190187v-3.38730573c0-2.38365959.12545576-5.14372494.25094999-6.52373839.37632883-2.00729229,1.00364612-4.76731918,2.25820377-8.15662482,1.63092494-4.1400788,3.38730565-7.77829607,4.89277482-9.66017105l.87823294,6.77664983c.87814777,7.02556146,1.25455768,12.79652679,1.25455768,17.68934019,0,3.88916726-.25091569,9.03285375-1.12910604,14.552946ZM121.15848775,51.5419146c-.01792699-.59343424-.0398106-1.1769074-.06173267-1.75641921v-.00196145c-.42813414-11.20148477-1.53535242-19.94158275-3.32557772-24.71290175-1.50546918-4.1400788-3.88916717-7.276473-7.15101705-9.66017105l-1.50546918-1.50546921c-1.38001341-1.38001345-3.13639412-2.63457113-5.26918058-3.5127615-2.76002682-1.25455768-5.52005365-1.88187498-8.28011893-1.88187498-2.50911529,0-4.6418633.50186153-6.7746113,1.25459614-2.88552105,1.12910191-6.27282293,3.1363942-9.15834774,6.02187686-3.01093835,3.01097689-5.26914212,5.52009225-6.90006706,7.90375184-1.6309634,2.38369805-2.50915375,4.01462303-2.50915375,4.89281341,0,.50182307-.62727882,2.38365959-2.00728883,5.52009225-2.38366293,5.64750946-3.63825904,13.80217284-3.63825904,24.46595157,0,2.86359905.08365,5.89249819.25094999,9.15630961.03780595.74081208.07965018,1.49554659.12545576,2.26024219,0,.00992262.00196145.01792225.00196145.02784487.37640575,5.75508144.75077648,9.63628753,1.12714043,11.63958.1194945.68504541.2927173,1.34616885.50182306,1.9614867.30467829.90411226.68500694,1.7185748,1.08925756,2.38765941.17726107.29471721.3584835.56158955.54167078.79457884,1.12909848,1.88179806,2.00728883,3.1363942,2.00728883,3.76367304,0,1.12910191,1.12910537,2.76002689,3.38730565,5.01826918l.12549422.12541731.50182306.6273173c.87819035,1.38001345,2.132748,2.63460959,3.76367294,4.14004034,2.50911529,2.38365959,5.52009211,4.64190187,7.15101705,5.14372494,2.00729224.75273461,4.26549994,1.12910191,6.77464976,1.12910191,2.00729224,0,4.01458447-.25091154,6.02191517-.75273461,4.39095177-1.12914037,8.530992-3.63825573,11.41651305-6.64919416,1.63092494-1.75638075,3.38730565-4.76731918,5.52005365-9.03285375,2.13278646-4.39095188,3.38734411-7.40192877,3.38734411-8.90739798,0-.29275576.21506703-1.27247993.61731774-2.93728797v-.00196145c.28675603-1.18290713.66912305-2.71425977,1.13906296-4.58809665.62727882-2.38369805,1.00364612-5.64558648,1.12910662-8.53106914.12545102-1.63092498.12545102-3.88916726.12545102-6.77464993,0-1.50546921,0-4.89477486-.12545102-7.02752291ZM119.90393007,65.21863167c-.12546047,2.88548266-.50182777,5.64554802-1.12910659,8.28011914-.19914468.79054056-.38036711,1.52539138-.54562874,2.20047571v.00199991c-.78461774,3.18019987-1.21075197,5.07995865-1.21075197,5.70127622,0,1.12910191-1.12910188,3.8891288-3.26188834,8.40557491-2.132748,4.39099034-3.88912871,7.276473-5.26914212,8.65648644-2.8855167,3.13643266-6.52373823,5.14372494-10.91472845,6.27282685-4.39095177,1.12910191-8.4055747,1.00364614-12.04379187-.37640576-1.88183647-.62724038-4.1400787-2.25816536-6.64919399-4.76731918-2.63457106-2.50911536-4.01458447-4.26549611-4.01458447-5.26914225,0-.75277307-.75273459-2.13274805-2.132748-4.26553457-1.00364612-1.25455768-1.6309634-2.88548266-2.00732723-4.76735764-.37637076-2.13274805-.75273806-6.02191532-1.12910535-11.54196911-1.12910188-16.68569405.12545576-28.4805746,3.13643258-35.50613606,1.38001341-3.1363942,2.132748-5.14368648,2.132748-5.89645955,0-.75273461.75273459-2.25820382,2.38365953-4.39095188,1.63092494-2.38365959,3.88916717-4.89281341,6.77464976-7.77829607,2.76002682-2.76002689,5.64550941-4.64190187,8.78194199-5.77100378,4.76731906-1.75638075,9.53467658-1.63092498,14.42748986.50182307,4.39095177,1.88183652,7.52734588,5.39463648,9.28376505,10.53836142,1.88183647,5.14368648,2.88548259,13.67471716,3.38731036,26.09687655.02387881.60539523.04580087,1.19682957.06372313,1.77234155.16330018,5.27314207.0498054,9.30168754-.06372313,11.90241407ZM99.32910721,31.59433213c-.62732147-.87819038-1.12910607-1.25455768-1.75642336-1.25455768-1.88183647,0-5.39459788,5.39663639-7.77825741,11.91837487-1.25459611,3.38930564-2.0073307,6.2747883-2.25823833,8.40753636-.37637119,2.13278651-.25091542,7.02556146-.12545966,14.67840176.12545966,7.52738453.25091153,12.04379218.62727882,14.05112292.25091153,2.00729229.87822881,3.76367304,2.0073307,5.14368648,3.01093835,3.8891288,7.77829587,4.64190187,9.40922081,1.63096344.62727882-1.12910191,1.38001341-4.64190187,2.132748-10.28744989.75273459-5.64550956,1.12910188-10.53832296,1.12910188-14.67840176,0-4.89277495-.37636729-10.7892345-1.25455765-17.81479596-.75273459-6.90206714-1.50546497-10.91669018-2.13274381-11.79488055ZM96.94544349,71.9932816c-.87822881,5.39459802-1.38005187,8.90739798-2.0073307,10.03649989-.37636729.87819038-1.25455765,1.38001345-2.50911529,1.38001345-.50182306,0-1.12910188-.12541731-1.75638071-.25091154-.62727882-1.12910191-1.25459217-2.50911536-1.38005187-3.88916726-.37632883-2.38365959-.5017846-7.40189031-.62727882-13.9256287,0-1.88183652-.12545576-3.26184997-.12545576-4.64190187v-3.38730573c0-2.38365959.12545576-5.14372494.25094999-6.52373839.37632883-2.00729229,1.00364612-4.76731918,2.25820377-8.15662482,1.63092494-4.1400788,3.38730565-7.77829607,4.89277482-9.66017105l.87823294,6.77664983c.87814777,7.02556146,1.25455768,12.79652679,1.25455768,17.68934019,0,3.88916726-.25091569,9.03285375-1.12910604,14.552946ZM101.46185102,43.38921268c-.75273459-6.90206714-1.50546497-10.91669018-2.13274381-11.79488055-.62732147-.87819038-1.12910607-1.25455768-1.75642336-1.25455768-1.88183647,0-5.39459788,5.39663639-7.77825741,11.91837487-1.25459611,3.38930564-2.0073307,6.2747883-2.25823833,8.40753636-.37637119,2.13278651-.25091542,7.02556146-.12545966,14.67840176.12545966,7.52738453.25091153,12.04379218.62727882,14.05112292.25091153,2.00729229.87822881,3.76367304,2.0073307,5.14368648,3.01093835,3.8891288,7.77829587,4.64190187,9.40922081,1.63096344.62727882-1.12910191,1.38001341-4.64190187,2.132748-10.28744989.75273459-5.64550956,1.12910188-10.53832296,1.12910188-14.67840176,0-4.89277495-.37636729-10.7892345-1.25455765-17.81479596ZM96.94544349,71.9932816c-.87822881,5.39459802-1.38005187,8.90739798-2.0073307,10.03649989-.37636729.87819038-1.25455765,1.38001345-2.50911529,1.38001345-.50182306,0-1.12910188-.12541731-1.75638071-.25091154-.62727882-1.12910191-1.25459217-2.50911536-1.38005187-3.88916726-.37632883-2.38365959-.5017846-7.40189031-.62727882-13.9256287,0-1.88183652-.12545576-3.26184997-.12545576-4.64190187v-3.38730573c0-2.38365959.12545576-5.14372494.25094999-6.52373839.37632883-2.00729229,1.00364612-4.76731918,2.25820377-8.15662482,1.63092494-4.1400788,3.38730565-7.77829607,4.89277482-9.66017105l.87823294,6.77664983c.87814777,7.02556146,1.25455768,12.79652679,1.25455768,17.68934019,0,3.88916726-.25091569,9.03285375-1.12910604,14.552946ZM101.46185102,43.38921268c-.75273459-6.90206714-1.50546497-10.91669018-2.13274381-11.79488055-.62732147-.87819038-1.12910607-1.25455768-1.75642336-1.25455768-1.88183647,0-5.39459788,5.39663639-7.77825741,11.91837487-1.25459611,3.38930564-2.0073307,6.2747883-2.25823833,8.40753636-.37637119,2.13278651-.25091542,7.02556146-.12545966,14.67840176.12545966,7.52738453.25091153,12.04379218.62727882,14.05112292.25091153,2.00729229.87822881,3.76367304,2.0073307,5.14368648,3.01093835,3.8891288,7.77829587,4.64190187,9.40922081,1.63096344.62727882-1.12910191,1.38001341-4.64190187,2.132748-10.28744989.75273459-5.64550956,1.12910188-10.53832296,1.12910188-14.67840176,0-4.89277495-.37636729-10.7892345-1.25455765-17.81479596ZM96.94544349,71.9932816c-.87822881,5.39459802-1.38005187,8.90739798-2.0073307,10.03649989-.37636729.87819038-1.25455765,1.38001345-2.50911529,1.38001345-.50182306,0-1.12910188-.12541731-1.75638071-.25091154-.62727882-1.12910191-1.25459217-2.50911536-1.38005187-3.88916726-.37632883-2.38365959-.5017846-7.40189031-.62727882-13.9256287,0-1.88183652-.12545576-3.26184997-.12545576-4.64190187v-3.38730573c0-2.38365959.12545576-5.14372494.25094999-6.52373839.37632883-2.00729229,1.00364612-4.76731918,2.25820377-8.15662482,1.63092494-4.1400788,3.38730565-7.77829607,4.89277482-9.66017105l.87823294,6.77664983c.87814777,7.02556146,1.25455768,12.79652679,1.25455768,17.68934019,0,3.88916726-.25091569,9.03285375-1.12910604,14.552946Z" style="fill: #231f20;"/>
            <path d="M119.96765319,53.31621761c-.01792225-.57551199-.03984432-1.16694632-.06372313-1.77234155-.50182777-12.42215939-1.50547389-20.95319007-3.38731036-26.09687655-1.75641917-5.14372494-4.89281328-8.6565249-9.28376505-10.53836142-4.89281328-2.13274805-9.6601708-2.25820382-14.42748986-.50182307-3.13643258,1.12910191-6.02191517,3.01097689-8.78194199,5.77100378-2.88548259,2.88548266-5.14372481,5.39463648-6.77464976,7.77829607-1.63092494,2.13274805-2.38365953,3.63821727-2.38365953,4.39095188,0,.75277307-.75273459,2.76006535-2.132748,5.89645955-3.01097681,7.02556146-4.26553446,18.82044201-3.13643258,35.50613606.37636729,5.52005379.75273459,9.40922105,1.12910535,11.54196911.37636383,1.88187498,1.00368111,3.51279996,2.00732723,4.76735764,1.38001341,2.13278651,2.132748,3.5127615,2.132748,4.26553457,0,1.00364614,1.38001341,2.76002689,4.01458447,5.26914225,2.50911529,2.50915382,4.76735752,4.1400788,6.64919399,4.76731918,3.63821718,1.38005191,7.65284011,1.50550767,12.04379187.37640576,4.39099023-1.12910191,8.02921175-3.1363942,10.91472845-6.27282685,1.38001341-1.38001345,3.13639412-4.26549611,5.26914212-8.65648644,2.13278646-4.5164461,3.26188834-7.276473,3.26188834-8.40557491,0-.62131758.42613423-2.52107635,1.21075197-5.70127622v-.00199991c-.2230282-1.38997453-.33456153-3.00301572-.33456153-4.83504683,0-4.39099034.62727882-9.66017105,1.75638071-16.18387098.07768873-.40825045.18322234-.86426794.31663927-1.3640911ZM101.58730679,75.8824104c-.75273459,5.64554802-1.50546918,9.15834798-2.132748,10.28744989-1.63092494,3.01093843-6.39828246,2.25816536-9.40922081-1.63096344-1.12910188-1.38001345-1.75641917-3.1363942-2.0073307-5.14368648-.37636729-2.00733075-.50181917-6.52373839-.62727882-14.05112292-.12545576-7.6528403-.25091153-12.54561525.12545966-14.67840176.25090764-2.13274805,1.00364223-5.01823072,2.25823833-8.40753636,2.38365953-6.52173848,5.89642094-11.91837487,7.77825741-11.91837487.62731728,0,1.12910188.3763673,1.75642336,1.25455768.62727884.87819038,1.38000922,4.89281341,2.13274381,11.79488055.87819035,7.02556146,1.25455765,12.92202101,1.25455765,17.81479596,0,4.1400788-.37636729,9.03289221-1.12910188,14.67840176Z" style="fill: #ee2929;"/>
            <path d="M182.50462127,69.48416624c-.11349478,0-.28275622.05376676-.50578442.16126181,1.68073034.87422902,5.03615284,2.92736535,8.1685856,5.63558694-3.40122808-3.28373357-7.39792247-5.93030415-7.66280119-5.79684875ZM182.50462127,69.48416624c-.11349478,0-.28275622.05376676-.50578442.16126181,1.68073034.87422902,5.03615284,2.92736535,8.1685856,5.63558694-3.40122808-3.28373357-7.39792247-5.93030415-7.66280119-5.79684875ZM193.41934972,78.39156422c-.08961126-.12545577-.18318388-.25291144-.2787564-.37836721-.56758926-.75273461-1.22671277-1.50346931-1.97944736-2.25624237l-3.7637114-3.76367304c-2.88548259-2.88548266-6.02187671-5.26918071-7.90371318-6.27282685l-.75277305-.87819038c-.62727882,0-3.13639412,1.75638075-7.52738434,5.14372494-7.65284011,6.02191532-13.42380529,9.03281529-17.56384552,9.03281529-.87822881,0-1.6309634,0-2.0073307-.12541731-1.1290964-1.88183652-2.00729224-4.5164461-2.76002682-7.90375184-1.88183647-9.28376528,8.65648623-26.59677663,17.31297245-28.60406892h-.12544989c1.88183652-.3763673,4.51644011-.12741722,7.4019227.75077316,3.01093835.88019028,5.14368635,1.50746912,6.52373823,2.88748257l3.13639412,3.1363942,3.88912871-4.51640764c2.25820377-2.63460959,3.38734411-4.51844601,3.38734411-5.39663639l1.88183647-3.01093843c1.14306278-1.8719139,1.85595305-3.74178943,2.13674782-5.68535388,0-.00199991,0-.00599972.00199991-.00799963.05972802-.40025082.09757243-.80050164.11945604-1.20675219.00996108-.2907174.00199991-.58147325-.02388352-.87222911-.30867151-3.59441159-3.18819943-7.1589784-7.25258289-10.29337269l-.87819676-.87819038c-5.64554787-5.64554802-15.43113598-9.66017105-23.20943185-8.28011914-3.13639412.62727884-6.64915553,1.38001345-10.7892287,3.26184997v-.12545577c-3.63822271,1.38001345-6.64916106,3.01093843-9.03285905,4.89281341v-.12545577c-2.63457106,2.00729229-5.14372481,4.14004034-7.65284011,6.6491557-2.38365953,2.50915382-3.63821718,4.1400788-3.63821718,5.01826918,0,.3763673-.37636729.87819038-1.25455765,1.63092498v.12545577c-1.50550764,1.25455768-3.51279987,4.89281341-6.14737093,10.78927296-1.54331359,3.42315024-2.72818214,6.3086329-3.57252789,8.65448654v.00196145c-.48986207,1.35812984-.86426792,2.53503724-1.12910188,3.53072221-.13341694.49982316-.23895054.95584065-.31663927,1.3640911-1.12910188,6.52369993-1.75638071,11.79288064-1.75638071,16.18387098,0,1.83203112.11153333,3.44507231.33456153,4.83504683v.00199991c.10953342.70292921.24891162,1.3481303.41817306,1.93756472.07965018.27683342.15930504.55162847.24295036.82446208v.00196145c2.1666358,7.11517272,5.76104256,12.45404254,8.53899163,15.23199169l.62727882.6273173c.87819035,1.25455768,1.88187989,2.38365959,2.88552105,3.38730573,1.5054742,1.50546921,3.26184988,2.63457113,5.64550941,3.76367304,4.1400787,1.88187498,6.02191517,2.38369805,9.66013234,2.76006535.37640575.12541731,1.00368458.12541731,1.38005187.12541731,3.88912871.6273173,7.40192858,1.0036846,9.53467658,1.0036846,2.38365953.12545577,4.6418633,0,7.52738434-.62727884,3.51276141-.75273461,7.27647281-1.75638075,11.41651305-3.63821727,3.88916717-1.75641921,6.52373823-3.26188843,7.65284011-4.64190187.62727882-.62727884,1.25455765-1.0036846,1.75638071-1.0036846,1.12910828,0,3.13643258-1.50543076,5.77100364-4.39095188.61931765-.67904569,1.17486901-1.32224687,1.6707308-1.9276421,1.62300223-1.97740905,2.61668727-3.57052807,3.09658826-4.72155205.62727882-1.63092498-.62724036-3.63821727-2.63457106-6.02187686ZM194.79936313,84.03707378c-.28475613.78661766-.89611261,1.81614723-1.81014746,3.04282158-.69100666.92799578-1.55527458,1.96948633-2.5808043,3.10454951-2.38365953,2.63457113-4.01462293,4.01462303-4.89281328,4.01462303s-1.75638071.50178461-2.63456476,1.50543076c-1.00365242,1.25459614-3.38731195,2.63460959-7.27647911,4.26553457-3.76367294,1.63096344-7.52738434,2.76002689-11.16560152,3.51279996-2.88552105.50182307-5.39463634.62724038-7.27647281.62724038-2.132748-.12541731-5.26918058-.37632884-9.40922081-1.00360768-.37636189,0-.87819035,0-1.25459611-.12545577-3.76367294-.37640576-5.52005365-.75277307-9.40922081-2.63460959-2.13274291-1.00364614-3.88912871-2.13274805-5.26913711-3.5127615-2.88552606-2.88548266-6.39828747-8.15470183-8.53103547-15.68204791-1.12910188-4.26553457-.87819035-11.79288064,1.00364612-22.5821536.50182306-2.88548266,2.132748-7.276473,4.89277482-13.30034977,2.76006528-6.14737109,4.76735752-9.66013259,6.02191517-10.66377873,1.00365124-.87822884,1.50546918-1.63096344,1.50546918-2.25824228,0-.50182307,1.12914034-2.00729229,3.38734411-4.39095188,2.38365953-2.38365959,4.89277482-4.5164461,7.52738434-6.52373839,1.88183647-1.50546921,4.76732459-3.01093843,8.90739776-4.64190187,3.88912871-1.63092498,7.40192858-2.50911536,10.5383227-3.1363942,10.66377846-2.00729229,26.5967375,7.52738453,26.22037021,15.68204791-.12545576,2.13274805-.87819035,4.1400788-2.132748,6.14737109-1.3800454,2.13274805-2.00729224,3.38930564-2.00729224,3.76367304,0,.62927875-1.00364612,2.13474796-3.01097681,4.51844601l-3.01093835,3.63821727-2.25820377-2.25820382c-1.38001341-1.38001345-3.76367294-2.38369805-7.02556128-3.26188843-3.13643258-.75469606-5.77100364-1.12910191-7.90375164-.75469606-9.28376505,1.3819749-20.32391081,19.94954392-18.31661857,30.11149958,3.13639412,15.43109791,10.91468999,16.56023828,27.85129515,3.1363942,3.38730565-2.66845418,5.51413084-4.24557395,6.51973841-4.73151313-.38832828-.20306758-.6870453-.34248425-.87419054-.41217335l1.25455765-.25091154c1.1291082.50182307,3.76367294,2.25820382,6.64915553,4.76731918l1.25459611,1.63092498c-.0358445-.03184469-.07168901-.06168947-.10757197-.09161117,1.0952638,1.05745136,2.12878664,2.18055355,2.95521015,3.29773293,1.45374738,1.96348661,2.27016475,3.90905097,1.66876935,5.45036469ZM182.50462127,69.48416624c-.11349478,0-.28275622.05376676-.50578442.16126181,1.68073034.87422902,5.03615284,2.92736535,8.1685856,5.63558694-3.40122808-3.28373357-7.39792247-5.93030415-7.66280119-5.79684875ZM182.50462127,69.48416624c-.11349478,0-.28275622.05376676-.50578442.16126181,1.68073034.87422902,5.03615284,2.92736535,8.1685856,5.63558694-3.40122808-3.28373357-7.39792247-5.93030415-7.66280119-5.79684875ZM182.50462127,69.48416624c-.11349478,0-.28275622.05376676-.50578442.16126181,1.68073034.87422902,5.03615284,2.92736535,8.1685856,5.63558694-3.40122808-3.28373357-7.39792247-5.93030415-7.66280119-5.79684875Z" style="fill: #231f20;"/>
            <path d="M147.62780329,71.24054699c3.13639412,15.43109791,10.91468999,16.56023828,27.85129515,3.1363942,3.38730565-2.66845418,5.51413084-4.24557395,6.51973841-4.73151313,1.68073034.87422902,5.03615284,2.92736535,8.1685856,5.63558694-3.40122808-3.28373357-7.39792247-5.93030415-7.66280119-5.79684875-.11349478,0-.28275622.05376676-.50578442.16126181-.38832828-.20306758-.6870453-.34248425-.87419054-.41217335l1.25455765-.25091154c1.1291082.50182307,3.76367294,2.25820382,6.64915553,4.76731918l1.25459611,1.63092498c-.0358445-.03184469-.07168901-.06168947-.10757197-.09161117,1.0952638,1.05745136,2.12878664,2.18055355,2.95521015,3.29773293-.04776703,2.74410455-.09557252,5.57382055-.14137811,8.49318626-.69100666.92799578-1.55527458,1.96948633-2.5808043,3.10454951-2.38365953,2.63457113-4.01462293,4.01462303-4.89281328,4.01462303s-1.75638071.50178461-2.63456476,1.50543076c-1.00365242,1.25459614-3.38731195,2.63460959-7.27647911,4.26553457-3.76367294,1.63096344-7.52738434,2.76002689-11.16560152,3.51279996-2.88552105.50182307-5.39463634.62724038-7.27647281.62724038-2.132748-.12541731-5.26918058-.37632884-9.40922081-1.00360768-.37636189,0-.87819035,0-1.25459611-.12545577-3.76367294-.37640576-5.52005365-.75277307-9.40922081-2.63460959-2.13274291-1.00364614-3.88912871-2.13274805-5.26913711-3.5127615-2.88552606-2.88548266-6.39828747-8.15470183-8.53103547-15.68204791-1.12910188-4.26553457-.87819035-11.79288064,1.00364612-22.5821536.50182306-2.88548266,2.132748-7.276473,4.89277482-13.30034977,2.76006528-6.14737109,4.76735752-9.66013259,6.02191517-10.66377873,1.00365124-.87822884,1.50546918-1.63096344,1.50546918-2.25824228,0-.50182307,1.12914034-2.00729229,3.38734411-4.39095188,2.38365953-2.38365959,4.89277482-4.5164461,7.52738434-6.52373839,1.88183647-1.50546921,4.76732459-3.01093843,8.90739776-4.64190187,3.88912871-1.63092498,7.40192858-2.50911536,10.5383227-3.1363942,10.66377846-2.00729229,26.5967375,7.52738453,26.22037021,15.68204791-.12545576,2.13274805-.87819035,4.1400788-2.132748,6.14737109-1.3800454,2.13274805-2.00729224,3.38930564-2.00729224,3.76367304,0,.62927875-1.00364612,2.13474796-3.01097681,4.51844601l-3.01093835,3.63821727-2.25820377-2.25820382c-1.38001341-1.38001345-3.76367294-2.38369805-7.02556128-3.26188843-3.13643258-.75469606-5.77100364-1.12910191-7.90375164-.75469606-9.28376505,1.3819749-20.32391081,19.94954392-18.31661857,30.11149958Z" style="fill: #ee2929;"/>
            <path d="M255.39276681,12.52497849c-.55955117-.55958965-1.21667478-1.01756858-1.79618657-1.37605209h-.00199991c-.07168901-.04580559-.14137811-.08761135-.20909768-.12941712l-2.00730032-2.00729229c-.75273459-.75273461-1.50546918-1.25459614-2.25820377-1.50550767-.62727882,0-2.25820377.12545577-3.63825564.50186153l-1.50546918.25091154-4.6418633.87819038-9.53471504,1.88183652-1.00360766,21.578469-.37640575,7.78029598c-.37636729,7.77829607-1.00364612,12.29474217-2.132748,13.42384408-.50182306.50182307-1.75638071.75273461-3.76367294.75273461l-.12545576-5.64554802c-.12545576-6.39828262.25091153-13.04943823,1.38001341-19.69863239,0-.25091154,0-.50182307.12545576-.75273461,0-.3763673.12545576-.62727884.12545576-1.00364614.12545576-.3763673.25091153-.75273461.25091153-1.38001345.25091153-1.63096344.25091153-2.76006535.25091153-4.64190187v-1.12910191c0-1.88183652-.37636729-2.63457113-1.25459611-3.63825573-.62724036-.50178461-1.12906342-1.00364614-1.75634225-1.12910191l-2.63460952-2.76002689c-.87819035-.87819038-1.25451919-.87819038-2.76002682-.87819038h-1.25455765c-2.50915375,0-3.51276141,0-7.65284011.3763673-6.64919399.62727884-10.41286693,1.12910191-11.29105729,1.63092498-.47597809.37240595-.95387918,5.22137522-1.40193548,14.55890726-.0338446.66912307-.06572774,1.36209119-.09557252,2.0789813-.00199991.00199991-.00199991.00599972-.00199991.00799963-.47597809,10.67970108-.91603477,26.49716583-1.28640234,47.46231689-.00399982.19118351-.00799963.38232857-.00999954.57351208-.04776703,2.74410455-.09557252,5.57382055-.14137811,8.49318626-.00996108.67908415-.02192207,1.3640911-.03188315,2.05509778-.01392244.92599587-.02784487,1.86195282-.04180577,2.80587094l-.1254173,8.02916915,3.38730565,3.38734419v.75269615c3.88912871.12549423,8.15466317.50182307,12.04379187.6273173,2.88552105.12541731,5.39459788.25091154,7.40192858.25091154,2.88548979,0,4.64190175-.25091154,5.14372481-.75273461.62724036-1.38005191.62724036-1.88187498.50182306-3.01097689,0-.3763673-.12549422-.25091154-.12549422-.3763673-.1254173-1.12910191-.1254173-2.13274805-.50182306-2.76002689-.1254173-.12545577-.1254173-.3763673-.1254173-.50182307-.50182306-2.00729229-.75273459-7.02556146-.75273459-12.42015948,0-3.88916726.1254173-7.276473.25091153-8.78198067.1254173-.62727884.50182306-1.25455768,1.12906342-1.63092498h-.1254173c1.38001341-.62727884,2.63457106-.87815192,3.76367294-.87815192.37636729,2.38365959.50182306,6.02187686.62727882,10.91465181l.25091153,14.17661715,3.38735157,3.38726727v.75277307l9.53466911.62727884c.1254173,0,.37632883,0,.75273459.12545577,1.50546918,0,2.25820377,0,3.13639412.12545577,1.38001341.12541731,2.63460952.12541731,3.88916717,0,2.38365953-.3763673,3.13639412-.50182307,4.265496-1.88183652.62727882-.87822884,1.12910188-2.00733075,1.38001341-3.1363942,0-.25095.12549422-.75277307.25091153-1.63096344,0-.3763673,0-.62727884.12549422-.75273461,0-.3763673.1254173-.50182307.1254173-.87822884.2509196-1.63088652.50182306-3.63821727.50182306-7.02556146v-1.37997499c0-3.38734419.25091153-7.02556146.62727882-11.4165518,0-.62727884.12549422-1.25455768.12549422-1.88183652l.37636729-6.02191532.96180189-15.10453601v-.00199991l.2927173-4.59009656.75277305-13.42580553c0-.87819038.12545576-2.13278651.12545576-3.01097689.25091153-4.39095188.37636729-8.02920761.37636729-10.91469027,0-4.39099034-.62727882-7.40192877-1.25459611-8.40557491ZM255.01643797,31.84524366c-.26087261,3.72586708-.40028927,7.45173417-.58547306,11.2632127v.00596126c-.08365,1.70261399-.17526116,3.42315024-.2927173,5.16760846l-1.25459611,19.69663248c-.5017846,7.52738453-1.12910188,13.92566716-1.12910188,19.32030364v1.37997499c0,4.64190187-.37636729,5.77104224-.75273459,8.40561337-.50182306,2.88548266-.25091153,3.1363942-1.38000543,4.26553457-1.0036541,1.37997499-1.25460409,1.25451922-3.38735209,1.37997499-2.132748.37640576-3.01089989,0-6.52369977-.12545577-.37636729-.12545577-.75277305-.12545577-1.12910188-.12545577l-8.28015739-.62724038-.25091153-13.29838832c-.1254173-9.03289221-.75273459-13.80021139-1.37997495-14.6783633-1.38001341-1.50550767-5.52009211-1.63096344-8.15466317-.25095-.87819035.50182307-1.50550764,1.38001345-1.75641917,2.63460959-.12545576,1.37997499-.25090433,4.26549611-.25090433,8.90739798,0,5.52005379.37636009,10.66377873.75272739,12.67107102.37640575,1.12914037.50186152,2.13274805.62727882,3.1363942.37640575,2.00733075.37640575,1.63092498-.1254173,2.50915382-.50186152.3763673-4.3909831.3763673-11.54200727,0l-10.78923423-.6273173.12545576-7.15101723c.87819035-50.8097783,1.75638071-76.65578177,2.63457106-77.28306061.62727882-.3763673,4.265496-.87819038,10.91472845-1.50546921,4.14004024-.37640576,5.14368635-.37640576,7.52734588-.37640576,2.50911529.12545577,2.76002682-.12545577,3.7637114,1.0036846,1.12910188,1.12910191.87815189,1.38001345.87815189,3.8891288.12549422,2.50915382-.1254173,3.51279996-.75269613,7.6528403-.87819035,6.65119407-1.38005187,13.30034977-1.38005187,19.82408816v9.78558836l3.7637114.25091154c3.13639412.25091154,5.01826905,0,5.77100364-.75273461,1.25455765-1.38001345,2.00729224-6.02191532,2.38365953-14.05108446l.37637487-7.78029598,1.00363854-20.82577285,8.78198045-1.75638075,4.6418633-.87819038c2.63457106-.50182307,4.26553446-.87819038,4.76735752-.75273461.23895054,0,.50579249.08365.78657918.24295036.31264755.17126135.64120126.43213397.96976306.76069578.12549422.12545577.12549422.25091154.12549422.25091154,1.00364612,1.12910191,1.12906342,7.40192877.50182306,18.4420748Z" style="fill: #231f20;"/>
            <path d="M254.43096492,43.10845636v.00596126c-.08365,1.70261399-.17526116,3.42315024-.2927173,5.16760846l-1.25459611,19.69663248c-.5017846,7.52738453-1.12910188,13.92566716-1.12910188,19.32030364v1.37997499c0,4.64190187-.37636729,5.77104224-.75273459,8.40561337-.50182306,2.88548266-.25091153,3.1363942-1.38000543,4.26553457-1.0036541,1.37997499-1.25460409,1.25451922-3.38735209,1.37997499-2.132748.37640576-3.01089989,0-6.52369977-.12545577-.37636729-.12545577-.75277305-.12545577-1.12910188-.12545577l-8.28015739-.62724038-.25091153-13.29838832c-.1254173-9.03289221-.75273459-13.80021139-1.37997495-14.6783633-1.38001341-1.50550767-5.52009211-1.63096344-8.15466317-.25095-.87819035.50182307-1.50550764,1.38001345-1.75641917,2.63460959-.12545576,1.37997499-.25090433,4.26549611-.25090433,8.90739798,0,5.52005379.37636009,10.66377873.75272739,12.67107102.37640575,1.12914037.50186152,2.13274805.62727882,3.1363942.37640575,2.00733075.37640575,1.63092498-.1254173,2.50915382-.50186152.3763673-4.3909831.3763673-11.54200727,0l-10.78923423-.6273173.12545576-7.15101723c.87819035-50.8097783,1.75638071-76.65578177,2.63457106-77.28306061.62727882-.3763673,4.265496-.87819038,10.91472845-1.50546921,4.14004024-.37640576,5.14368635-.37640576,7.52734588-.37640576,2.50911529.12545577,2.76002682-.12545577,3.7637114,1.0036846,1.12910188,1.12910191.87815189,1.38001345.87815189,3.8891288.12549422,2.50915382-.1254173,3.51279996-.75269613,7.6528403-.87819035,6.65119407-1.38005187,13.30034977-1.38005187,19.82408816v9.78558836l3.7637114.25091154c3.13639412.25091154,5.01826905,0,5.77100364-.75273461,1.25455765-1.38001345,2.00729224-6.02191532,2.38365953-14.05108446l.37637487-7.78029598,1.00363854-20.82577285,8.78198045-1.75638075,4.6418633-.87819038c2.63457106-.50182307,4.26553446-.87819038,4.76735752-.75273461.23895054,0,.50579249.08365.78657918.24295036-.09757243.91007352-.15933882,2.0311758-.15933882,3.39526691,0,2.00733075.12546385,4.39099034.25091153,7.40192877.2728336,7.72452931.61139494,14.39760699.92003458,19.91969914Z" style="fill: #ee2929;"/>
            <path d="M319.75189155,9.01221699c-.25091154-.50186153-.75273461-.87819038-1.63092498-1.12910191l-2.76003654-2.76006535c-.62731728-.62727884-2.76006528-1.00364614-6.39828246-.87819038-3.88915778.12545577-6.90006706.25091154-9.78558811,1.00364614-3.26188834.75273461-5.26918058,2.00729229-6.02186762,3.38730573-.8782379,1.38005191-.62732637,4.39099034,0,8.40561337.37631975,1.88183652.50177551,6.90010569.75268704,13.29834986.25091153,4.1400788.25091153,8.53303059.25091153,13.174894,0,3.38734419-.12545576,6.52373839-.12545576,10.03653835-.12545576,7.90371338-.62724036,13.29838832-1.75638071,16.05837675v.12549423c-.87819035,2.25820382-1.75638071,3.63821727-2.50911529,4.1400788-1.00364612-2.88552112-1.63092494-8.78198067-2.50915375-18.44211326-.87815189-10.53832296-1.63092494-20.07499969-2.25820377-29.60971497-.62727882-9.66009413-1.38001341-14.92927484-2.25820377-15.68200945l-1.00364612-.3763673-3.01097681-3.13643266c-.87819035-.62727884-4.39095177-.75273461-10.78923423-.25091154-6.14733247.50186153-10.1619554,1.12910191-12.16924764,2.00733075-.62731728.37632884-1.25455765.75273461-1.75638071,1.25455768-.14537792.34248425-.29275576.8343847-.41621161,1.50943057h-.00199991c-.06568928.36044496-.12545576.77265677-.17522271,1.24263515-.09757243.91007352-.15933882,2.0311758-.15933882,3.39526691,0,2.00733075.12546385,4.39099034.25091153,7.40192877.2728336,7.72452931.61139494,14.39760699.92003458,19.91969914v.00596126c.11749459,2.09890346.23099748,4.03254529.33456153,5.7948873.1055336,1.35413002.21702847,2.67441545.33452307,3.96281772v.00199991c.43213396,4.80120224.9280039,9.1682706,1.42185764,13.22269949.62727882,5.39463648,1.50546918,9.53467682,2.63457106,12.29474217,1.88187493,4.64190187,3.88916717,8.02920761,7.27648123,11.41651334l.62727884.62727884c1.50546075,2.13274805,3.38733568,4.01462303,5.77099521,6.02191532,7.15097859,6.02187686,14.92927446,8.65648644,23.46035255,8.02920761,5.89641178-.50182307,10.91468083-2.50915382,13.92561918-5.39463648,2.88553064-2.88548266,5.77100364-8.40557491,7.90376136-15.55659214,1.12910191-3.8891288,1.75638075-8.65648644,2.13274805-12.54561525.25091154-3.7637115.37640576-13.29838832.37640576-28.60406892-.12549423-21.70592467-.50182307-32.49515917-.87822884-33.37334955ZM318.99915694,70.98963546c-.25091154,3.8891288-.75269615,7.77829607-2.13274805,12.16924795-2.13279615,7.276473-4.64187298,12.29470371-7.52739403,15.05476907-2.88548259,2.88552112-7.27643435,4.51640764-13.17293222,5.01826918-8.15462471.62727884-15.55655329-2.00733075-22.45669727-7.6528403-4.89277482-4.1400788-7.52734588-7.90375184-9.91104387-13.80021139-1.12910188-2.88548266-2.00725378-6.90010569-2.63457106-12.04379218-.62727882-5.14372494-1.25455765-10.78927296-1.75638071-17.18755558-.37636729-6.39824416-.87819035-14.93127475-1.25455765-25.59505348-.37636729-7.90375184-.25091153-12.16928641.37636729-13.04747678.12545576-.25091154.50182306-.62727884,1.38001341-1.00364614,1.88187493-.75273461,5.77100364-1.38001345,11.91837457-1.88183652,6.14733247-.50182307,9.53468537-.50182307,10.16196421,0,.50181425.3763673,1.12909308,5.39459802,1.7563719,14.80381907.62727882,9.40925951,1.3800223,19.32230354,2.25820377,29.73517074.87822881,10.53832296,1.75638071,16.93660559,2.88549157,19.32026518,2.50914478,5.64554802,5.52008313,5.14372494,8.02919842-1.25455768,1.12914034-2.76002689,1.63092494-8.15466337,1.75641917-16.30932675.1254173-8.53103068.25091153-16.06037666-.12549422-23.21139389-.25091153-7.02556146-.5017846-11.54200757-.75269613-13.42384408-.62727882-4.26553457-.75273459-6.90010569-.12545576-7.90375184.62724036-1.12910191,2.50911529-2.13274805,5.52006299-2.88548266,2.88551171-.62727884,5.89645006-.87819038,9.53466724-1.00364614,3.63825564-.12549423,5.52014029.12545577,5.89646913.75273461.3763673.62727884.62727884,11.54196911.75273461,32.74607071,0,15.3056806-.25091154,24.84035742-.3763673,28.60406892Z" style="fill: #231f20;"/>
            <path d="M319.37552425,42.38556654c0,15.3056806-.25091154,24.84035742-.3763673,28.60406892-.25091154,3.8891288-.75269615,7.77829607-2.13274805,12.16924795-2.13279615,7.276473-4.64187298,12.29470371-7.52739403,15.05476907-2.88548259,2.88552112-7.27643435,4.51640764-13.17293222,5.01826918-8.15462471.62727884-15.55655329-2.00733075-22.45669727-7.6528403-4.89277482-4.1400788-7.52734588-7.90375184-9.91104387-13.80021139-1.12910188-2.88548266-2.00725378-6.90010569-2.63457106-12.04379218-.62727882-5.14372494-1.25455765-10.78927296-1.75638071-17.18755558-.37636729-6.39824416-.87819035-14.93127475-1.25455765-25.59505348-.37636729-7.90375184-.25091153-12.16928641.37636729-13.04747678.12545576-.25091154.50182306-.62727884,1.38001341-1.00364614,1.88187493-.75273461,5.77100364-1.38001345,11.91837457-1.88183652,6.14733247-.50182307,9.53468537-.50182307,10.16196421,0,.50181425.3763673,1.12909308,5.39459802,1.7563719,14.80381907.62727882,9.40925951,1.3800223,19.32230354,2.25820377,29.73517074.87822881,10.53832296,1.75638071,16.93660559,2.88549157,19.32026518,2.50914478,5.64554802,5.52008313,5.14372494,8.02919842-1.25455768,1.12914034-2.76002689,1.63092494-8.15466337,1.75641917-16.30932675.1254173-8.53103068.25091153-16.06037666-.12549422-23.21139389-.25091153-7.02556146-.5017846-11.54200757-.75269613-13.42384408-.62727882-4.26553457-.75273459-6.90010569-.12545576-7.90375184.62724036-1.12910191,2.50911529-2.13274805,5.52006299-2.88548266,2.88551171-.62727884,5.89645006-.87819038,9.53466724-1.00364614,3.63825564-.12549423,5.52014029.12545577,5.89646913.75273461.3763673.62727884.62727884,11.54196911.75273461,32.74607071Z" style="fill: #ee2929;"/>
          </g>
          <g style="clip-path: url(#clippath);">
            <g>
              <path d="M153.25108296,74.38432547c-1.51723787,0-3.033745-.00311524-4.5539058-.00953802-31.73873163-.13457073-63.19636081-1.74111222-90.97169791-4.64590169-28.8889397-3.02128411-53.10482524-7.28812631-71.97511064-12.68214743l6.56765928-22.9762124c17.29185804,4.94273419,40.76893142,9.05481428,67.89306773,11.89152995,26.99756521,2.82352397,57.63054003,4.38529829,88.58730765,4.51636918,32.43123822.13741676,64.1943918-1.22525133,94.40000167-4.05000602,32.17928827-3.00932312,60.9781552-7.54496065,85.59645528-13.48084146l5.60112698,23.23066223c-25.72505698,6.20283007-55.65979471,10.92745891-88.9726462,14.04285407-29.55787046,2.76418055-60.54505975,4.16323158-92.17225804,4.16323158Z" style="fill: #fed10e;"/>
              <path d="M153.25107358,76.69189019c-1.52073834,0-3.04034994-.00300467-4.56409295-.00957738-31.81306495-.13483454-63.35026368-1.74571297-91.20148411-4.65836446-29.02229037-3.03527956-53.37100514-7.3278255-72.36934252-12.75839002l-2.21876062-.63417305,7.83599023-27.41385323,2.21876062.63417305c17.1653012,4.90681306,40.50613715,8.9924124,67.49896107,11.81529938,26.92183861,2.8155631,57.47519587,4.37310865,88.35718886,4.50381177,32.35315429.14084388,64.04340337-1.22196152,94.17535574-4.03996592,32.06883744-2.99903573,60.75779728-7.51636851,85.27026654-13.4265534l2.24336136-.54084051,6.68276052,27.71713706-2.24336136.5410283c-25.83114358,6.22830426-55.87558495,10.97136284-89.29840158,14.09715807-29.61176896,2.76899072-60.69507481,4.17311033-92.38720181,4.17311033ZM-11.39354681,55.45113042c18.40923436,5.06380705,41.72603296,9.09269324,69.35903928,11.98280971,27.70098696,2.89687697,59.07893821,4.49911697,90.7413941,4.63320035,33.13436835.1427218,65.61822576-1.25557626,96.50172109-4.14362701,32.23935243-3.01499804,61.2915017-7.53927912,86.40152461-13.45359542l-4.51939849-18.74425501c-24.22552332,5.70004581-52.3612484,10.07165212-83.67741613,13.0004537-30.28030792,2.8317132-62.11741023,4.19771107-94.62455383,4.05987185-31.03297763-.13145429-61.74577017-1.69745047-88.81765446-4.52897588-26.11226797-2.73068119-48.88315568-6.6442632-66.06498256-11.34638315l-5.2996736,18.54050086Z" style="fill: #b2782b;"/>
            </g>
            <path d="M66.58499459,83.61490089c-.20510595,3.63625582-.68704196,5.48224783-2.13278646,7.69864589-2.25820377,3.7637115-8.530992,8.78194221-13.17289376,10.03653835-2.00729224.62724038-4.39099023,1.50543076-7.02556128,2.50911536-3.38730565,1.38001345-7.65284011,1.75638075-13.04747645,1.63092498-5.26914212-.12545577-9.53463812-1.00364614-12.79652432-2.50911536-7.52738649-3.51279996-13.04744014-10.16199412-13.54930166-17.31297289-.7527328-9.03289221.25091153-3.88916726,11.16563998-13.80021139,3.38730565-3.01093843,5.39463634-4.39099034,6.02187671-4.26549611.75277305.25087308,2.0073307,2.75998843,3.63825564,7.52734607,1.88183647,5.64554802,3.01093835,7.77829607,5.64550941,9.53467682,4.39099023,3.01097689,8.0292074,2.88552112,10.91472845.12545577,5.8964594-5.64550956,1.50546918-13.54926139-11.54196882-19.94754402-5.8964594-2.88548266-10.0365381-5.64554802-12.67110916-8.28011914-2.63457106-2.63457113-4.51640753-5.89645955-5.64554787-9.78558836-.87819035-3.26188843-1.38001341-5.39463648-1.38001341-6.27482676.12545576-1.127102.75273459-3.1363942,1.88183647-6.14733263,1.12910188-2.88552112,3.0109789-6.14737109,5.64554787-9.78562682,2.76002682-3.63821727,4.64190175-5.52005379,5.77100364-5.52005379,1.00364612,0,4.6418633-3.1363942,8.28011893-4.1400788,2.50911529-.62727884,6.14737093-.75273461,10.78923423-.3763673,4.64190175.3763673,7.77829587,1.00364614,9.40922081,2.00729229,5.64554787,3.38734419,8.4055747,6.77464993,8.4055747,9.91108258,0,2.38365959-1.75638071,7.02556146-5.14368635,14.17654023-1.38005187,2.88748257-4.1400787,1.63096344-6.52373529-2.50911536-1.88183652-3.38530583-2.88548552-4.14004034-5.89646233-4.39099034-5.01823059-.50178461-8.40557213,3.13643266-8.90739776,9.78758826-.62727882,7.02556146.75273459,9.91108258,6.2728267,12.42019794,3.13639412,1.50546921,5.26914212,2.25820382,6.398244,2.25820382,1.6309634,0,4.39099023,1.25455768,8.0292074,3.38730573,3.88916717,2.25824228,6.52373823,4.39099034,8.0292074,6.27282685.57355053.78061794,1.08333476,1.49950795,1.50746908,2.16063139.37640575,5.75508144.75077648,9.63628753,1.12714043,11.63958.1194945.68504541.2927173,1.34616885.50182306,1.9614867Z" style="fill: #ee2929;"/>
            <path d="M119.96765319,53.31621761c-.01792225-.57551199-.03984432-1.16694632-.06372313-1.77234155-.50182777-12.42215939-1.50547389-20.95319007-3.38731036-26.09687655-1.75641917-5.14372494-4.89281328-8.6565249-9.28376505-10.53836142-4.89281328-2.13274805-9.6601708-2.25820382-14.42748986-.50182307-3.13643258,1.12910191-6.02191517,3.01097689-8.78194199,5.77100378-2.88548259,2.88548266-5.14372481,5.39463648-6.77464976,7.77829607-1.63092494,2.13274805-2.38365953,3.63821727-2.38365953,4.39095188,0,.75277307-.75273459,2.76006535-2.132748,5.89645955-3.01097681,7.02556146-4.26553446,18.82044201-3.13643258,35.50613606.37636729,5.52005379.75273459,9.40922105,1.12910535,11.54196911.37636383,1.88187498,1.00368111,3.51279996,2.00732723,4.76735764,1.38001341,2.13278651,2.132748,3.5127615,2.132748,4.26553457,0,1.00364614,1.38001341,2.76002689,4.01458447,5.26914225,2.50911529,2.50915382,4.76735752,4.1400788,6.64919399,4.76731918,3.63821718,1.38005191,7.65284011,1.50550767,12.04379187.37640576,4.39099023-1.12910191,8.02921175-3.1363942,10.91472845-6.27282685,1.38001341-1.38001345,3.13639412-4.26549611,5.26914212-8.65648644,2.13278646-4.5164461,3.26188834-7.276473,3.26188834-8.40557491,0-.62131758.42613423-2.52107635,1.21075197-5.70127622v-.00199991c-.2230282-1.38997453-.33456153-3.00301572-.33456153-4.83504683,0-4.39099034.62727882-9.66017105,1.75638071-16.18387098.07768873-.40825045.18322234-.86426794.31663927-1.3640911ZM101.58730679,75.8824104c-.75273459,5.64554802-1.50546918,9.15834798-2.132748,10.28744989-1.63092494,3.01093843-6.39828246,2.25816536-9.40922081-1.63096344-1.12910188-1.38001345-1.75641917-3.1363942-2.0073307-5.14368648-.37636729-2.00733075-.50181917-6.52373839-.62727882-14.05112292-.12545576-7.6528403-.25091153-12.54561525.12545966-14.67840176.25090764-2.13274805,1.00364223-5.01823072,2.25823833-8.40753636,2.38365953-6.52173848,5.89642094-11.91837487,7.77825741-11.91837487.62731728,0,1.12910188.3763673,1.75642336,1.25455768.62727884.87819038,1.38000922,4.89281341,2.13274381,11.79488055.87819035,7.02556146,1.25455765,12.92202101,1.25455765,17.81479596,0,4.1400788-.37636729,9.03289221-1.12910188,14.67840176Z" style="fill: #ee2929;"/>
            <path d="M147.62780329,71.24054699c3.13639412,15.43109791,10.91468999,16.56023828,27.85129515,3.1363942,3.38730565-2.66845418,5.51413084-4.24557395,6.51973841-4.73151313,1.68073034.87422902,5.03615284,2.92736535,8.1685856,5.63558694-3.40122808-3.28373357-7.39792247-5.93030415-7.66280119-5.79684875-.11349478,0-.28275622.05376676-.50578442.16126181-.38832828-.20306758-.6870453-.34248425-.87419054-.41217335l1.25455765-.25091154c1.1291082.50182307,3.76367294,2.25820382,6.64915553,4.76731918l1.25459611,1.63092498c-.0358445-.03184469-.07168901-.06168947-.10757197-.09161117,1.0952638,1.05745136,2.12878664,2.18055355,2.95521015,3.29773293-.04776703,2.74410455-.09557252,5.57382055-.14137811,8.49318626-.69100666.92799578-1.55527458,1.96948633-2.5808043,3.10454951-2.38365953,2.63457113-4.01462293,4.01462303-4.89281328,4.01462303s-1.75638071.50178461-2.63456476,1.50543076c-1.00365242,1.25459614-3.38731195,2.63460959-7.27647911,4.26553457-3.76367294,1.63096344-7.52738434,2.76002689-11.16560152,3.51279996-2.88552105.50182307-5.39463634.62724038-7.27647281.62724038-2.132748-.12541731-5.26918058-.37632884-9.40922081-1.00360768-.37636189,0-.87819035,0-1.25459611-.12545577-3.76367294-.37640576-5.52005365-.75277307-9.40922081-2.63460959-2.13274291-1.00364614-3.88912871-2.13274805-5.26913711-3.5127615-2.88552606-2.88548266-6.39828747-8.15470183-8.53103547-15.68204791-1.12910188-4.26553457-.87819035-11.79288064,1.00364612-22.5821536.50182306-2.88548266,2.132748-7.276473,4.89277482-13.30034977,2.76006528-6.14737109,4.76735752-9.66013259,6.02191517-10.66377873,1.00365124-.87822884,1.50546918-1.63096344,1.50546918-2.25824228,0-.50182307,1.12914034-2.00729229,3.38734411-4.39095188,2.38365953-2.38365959,4.89277482-4.5164461,7.52738434-6.52373839,1.88183647-1.50546921,4.76732459-3.01093843,8.90739776-4.64190187,3.88912871-1.63092498,7.40192858-2.50911536,10.5383227-3.1363942,10.66377846-2.00729229,26.5967375,7.52738453,26.22037021,15.68204791-.12545576,2.13274805-.87819035,4.1400788-2.132748,6.14737109-1.3800454,2.13274805-2.00729224,3.38930564-2.00729224,3.76367304,0,.62927875-1.00364612,2.13474796-3.01097681,4.51844601l-3.01093835,3.63821727-2.25820377-2.25820382c-1.38001341-1.38001345-3.76367294-2.38369805-7.02556128-3.26188843-3.13643258-.75469606-5.77100364-1.12910191-7.90375164-.75469606-9.28376505,1.3819749-20.32391081,19.94954392-18.31661857,30.11149958Z" style="fill: #ee2929;"/>
            <path d="M254.43096492,43.10845636v.00596126c-.08365,1.70261399-.17526116,3.42315024-.2927173,5.16760846l-1.25459611,19.69663248c-.5017846,7.52738453-1.12910188,13.92566716-1.12910188,19.32030364v1.37997499c0,4.64190187-.37636729,5.77104224-.75273459,8.40561337-.50182306,2.88548266-.25091153,3.1363942-1.38000543,4.26553457-1.0036541,1.37997499-1.25460409,1.25451922-3.38735209,1.37997499-2.132748.37640576-3.01089989,0-6.52369977-.12545577-.37636729-.12545577-.75277305-.12545577-1.12910188-.12545577l-8.28015739-.62724038-.25091153-13.29838832c-.1254173-9.03289221-.75273459-13.80021139-1.37997495-14.6783633-1.38001341-1.50550767-5.52009211-1.63096344-8.15466317-.25095-.87819035.50182307-1.50550764,1.38001345-1.75641917,2.63460959-.12545576,1.37997499-.25090433,4.26549611-.25090433,8.90739798,0,5.52005379.37636009,10.66377873.75272739,12.67107102.37640575,1.12914037.50186152,2.13274805.62727882,3.1363942.37640575,2.00733075.37640575,1.63092498-.1254173,2.50915382-.50186152.3763673-4.3909831.3763673-11.54200727,0l-10.78923423-.6273173.12545576-7.15101723c.87819035-50.8097783,1.75638071-76.65578177,2.63457106-77.28306061.62727882-.3763673,4.265496-.87819038,10.91472845-1.50546921,4.14004024-.37640576,5.14368635-.37640576,7.52734588-.37640576,2.50911529.12545577,2.76002682-.12545577,3.7637114,1.0036846,1.12910188,1.12910191.87815189,1.38001345.87815189,3.8891288.12549422,2.50915382-.1254173,3.51279996-.75269613,7.6528403-.87819035,6.65119407-1.38005187,13.30034977-1.38005187,19.82408816v9.78558836l3.7637114.25091154c3.13639412.25091154,5.01826905,0,5.77100364-.75273461,1.25455765-1.38001345,2.00729224-6.02191532,2.38365953-14.05108446l.37637487-7.78029598,1.00363854-20.82577285,8.78198045-1.75638075,4.6418633-.87819038c2.63457106-.50182307,4.26553446-.87819038,4.76735752-.75273461.23895054,0,.50579249.08365.78657918.24295036-.09757243.91007352-.15933882,2.0311758-.15933882,3.39526691,0,2.00733075.12546385,4.39099034.25091153,7.40192877.2728336,7.72452931.61139494,14.39760699.92003458,19.91969914Z" style="fill: #ee2929;"/>
          </g>
          <g style="clip-path: url(#clippath-1);">
            <g>
              <path d="M153.25108296,74.38432547c-1.51723787,0-3.033745-.00311524-4.5539058-.00953802-31.73873163-.13457073-63.19636081-1.74111222-90.97169791-4.64590169-28.8889397-3.02128411-53.10482524-7.28812631-71.97511064-12.68214743l6.56765928-22.9762124c17.29185804,4.94273419,40.76893142,9.05481428,67.89306773,11.89152995,26.99756521,2.82352397,57.63054003,4.38529829,88.58730765,4.51636918,32.43123822.13741676,64.1943918-1.22525133,94.40000167-4.05000602,32.17928827-3.00932312,60.9781552-7.54496065,85.59645528-13.48084146l5.60112698,23.23066223c-25.72505698,6.20283007-55.65979471,10.92745891-88.9726462,14.04285407-29.55787046,2.76418055-60.54505975,4.16323158-92.17225804,4.16323158Z" style="fill: #fed10e;"/>
              <path d="M153.25107358,76.69189019c-1.52073834,0-3.04034994-.00300467-4.56409295-.00957738-31.81306495-.13483454-63.35026368-1.74571297-91.20148411-4.65836446-29.02229037-3.03527956-53.37100514-7.3278255-72.36934252-12.75839002l-2.21876062-.63417305,7.83599023-27.41385323,2.21876062.63417305c17.1653012,4.90681306,40.50613715,8.9924124,67.49896107,11.81529938,26.92183861,2.8155631,57.47519587,4.37310865,88.35718886,4.50381177,32.35315429.14084388,64.04340337-1.22196152,94.17535574-4.03996592,32.06883744-2.99903573,60.75779728-7.51636851,85.27026654-13.4265534l2.24336136-.54084051,6.68276052,27.71713706-2.24336136.5410283c-25.83114358,6.22830426-55.87558495,10.97136284-89.29840158,14.09715807-29.61176896,2.76899072-60.69507481,4.17311033-92.38720181,4.17311033ZM-11.39354681,55.45113042c18.40923436,5.06380705,41.72603296,9.09269324,69.35903928,11.98280971,27.70098696,2.89687697,59.07893821,4.49911697,90.7413941,4.63320035,33.13436835.1427218,65.61822576-1.25557626,96.50172109-4.14362701,32.23935243-3.01499804,61.2915017-7.53927912,86.40152461-13.45359542l-4.51939849-18.74425501c-24.22552332,5.70004581-52.3612484,10.07165212-83.67741613,13.0004537-30.28030792,2.8317132-62.11741023,4.19771107-94.62455383,4.05987185-31.03297763-.13145429-61.74577017-1.69745047-88.81765446-4.52897588-26.11226797-2.73068119-48.88315568-6.6442632-66.06498256-11.34638315l-5.2996736,18.54050086Z" style="fill: #b2782b;"/>
            </g>
          </g>
          <g style="clip-path: url(#clippath-2);">
            <g>
              <path d="M153.25108296,74.38432547c-1.51723787,0-3.033745-.00311524-4.5539058-.00953802-31.73873163-.13457073-63.19636081-1.74111222-90.97169791-4.64590169-28.8889397-3.02128411-53.10482524-7.28812631-71.97511064-12.68214743l6.56765928-22.9762124c17.29185804,4.94273419,40.76893142,9.05481428,67.89306773,11.89152995,26.99756521,2.82352397,57.63054003,4.38529829,88.58730765,4.51636918,32.43123822.13741676,64.1943918-1.22525133,94.40000167-4.05000602,32.17928827-3.00932312,60.9781552-7.54496065,85.59645528-13.48084146l5.60112698,23.23066223c-25.72505698,6.20283007-55.65979471,10.92745891-88.9726462,14.04285407-29.55787046,2.76418055-60.54505975,4.16323158-92.17225804,4.16323158Z" style="fill: #fed10e;"/>
              <path d="M153.25107358,76.69189019c-1.52073834,0-3.04034994-.00300467-4.56409295-.00957738-31.81306495-.13483454-63.35026368-1.74571297-91.20148411-4.65836446-29.02229037-3.03527956-53.37100514-7.3278255-72.36934252-12.75839002l-2.21876062-.63417305,7.83599023-27.41385323,2.21876062.63417305c17.1653012,4.90681306,40.50613715,8.9924124,67.49896107,11.81529938,26.92183861,2.8155631,57.47519587,4.37310865,88.35718886,4.50381177,32.35315429.14084388,64.04340337-1.22196152,94.17535574-4.03996592,32.06883744-2.99903573,60.75779728-7.51636851,85.27026654-13.4265534l2.24336136-.54084051,6.68276052,27.71713706-2.24336136.5410283c-25.83114358,6.22830426-55.87558495,10.97136284-89.29840158,14.09715807-29.61176896,2.76899072-60.69507481,4.17311033-92.38720181,4.17311033ZM-11.39354681,55.45113042c18.40923436,5.06380705,41.72603296,9.09269324,69.35903928,11.98280971,27.70098696,2.89687697,59.07893821,4.49911697,90.7413941,4.63320035,33.13436835.1427218,65.61822576-1.25557626,96.50172109-4.14362701,32.23935243-3.01499804,61.2915017-7.53927912,86.40152461-13.45359542l-4.51939849-18.74425501c-24.22552332,5.70004581-52.3612484,10.07165212-83.67741613,13.0004537-30.28030792,2.8317132-62.11741023,4.19771107-94.62455383,4.05987185-31.03297763-.13145429-61.74577017-1.69745047-88.81765446-4.52897588-26.11226797-2.73068119-48.88315568-6.6442632-66.06498256-11.34638315l-5.2996736,18.54050086Z" style="fill: #b2782b;"/>
            </g>
          </g>
          <g style="clip-path: url(#clippath-3);">
            <g>
              <path d="M153.25108296,74.38432547c-1.51723787,0-3.033745-.00311524-4.5539058-.00953802-31.73873163-.13457073-63.19636081-1.74111222-90.97169791-4.64590169-28.8889397-3.02128411-53.10482524-7.28812631-71.97511064-12.68214743l6.56765928-22.9762124c17.29185804,4.94273419,40.76893142,9.05481428,67.89306773,11.89152995,26.99756521,2.82352397,57.63054003,4.38529829,88.58730765,4.51636918,32.43123822.13741676,64.1943918-1.22525133,94.40000167-4.05000602,32.17928827-3.00932312,60.9781552-7.54496065,85.59645528-13.48084146l5.60112698,23.23066223c-25.72505698,6.20283007-55.65979471,10.92745891-88.9726462,14.04285407-29.55787046,2.76418055-60.54505975,4.16323158-92.17225804,4.16323158Z" style="fill: #fed10e;"/>
              <path d="M153.25107358,76.69189019c-1.52073834,0-3.04034994-.00300467-4.56409295-.00957738-31.81306495-.13483454-63.35026368-1.74571297-91.20148411-4.65836446-29.02229037-3.03527956-53.37100514-7.3278255-72.36934252-12.75839002l-2.21876062-.63417305,7.83599023-27.41385323,2.21876062.63417305c17.1653012,4.90681306,40.50613715,8.9924124,67.49896107,11.81529938,26.92183861,2.8155631,57.47519587,4.37310865,88.35718886,4.50381177,32.35315429.14084388,64.04340337-1.22196152,94.17535574-4.03996592,32.06883744-2.99903573,60.75779728-7.51636851,85.27026654-13.4265534l2.24336136-.54084051,6.68276052,27.71713706-2.24336136.5410283c-25.83114358,6.22830426-55.87558495,10.97136284-89.29840158,14.09715807-29.61176896,2.76899072-60.69507481,4.17311033-92.38720181,4.17311033ZM-11.39354681,55.45113042c18.40923436,5.06380705,41.72603296,9.09269324,69.35903928,11.98280971,27.70098696,2.89687697,59.07893821,4.49911697,90.7413941,4.63320035,33.13436835.1427218,65.61822576-1.25557626,96.50172109-4.14362701,32.23935243-3.01499804,61.2915017-7.53927912,86.40152461-13.45359542l-4.51939849-18.74425501c-24.22552332,5.70004581-52.3612484,10.07165212-83.67741613,13.0004537-30.28030792,2.8317132-62.11741023,4.19771107-94.62455383,4.05987185-31.03297763-.13145429-61.74577017-1.69745047-88.81765446-4.52897588-26.11226797-2.73068119-48.88315568-6.6442632-66.06498256-11.34638315l-5.2996736,18.54050086Z" style="fill: #b2782b;"/>
            </g>
          </g>
          <g style="clip-path: url(#clippath-4);">
            <g>
              <path d="M153.25108296,74.38432547c-1.51723787,0-3.033745-.00311524-4.5539058-.00953802-31.73873163-.13457073-63.19636081-1.74111222-90.97169791-4.64590169-28.8889397-3.02128411-53.10482524-7.28812631-71.97511064-12.68214743l6.56765928-22.9762124c17.29185804,4.94273419,40.76893142,9.05481428,67.89306773,11.89152995,26.99756521,2.82352397,57.63054003,4.38529829,88.58730765,4.51636918,32.43123822.13741676,64.1943918-1.22525133,94.40000167-4.05000602,32.17928827-3.00932312,60.9781552-7.54496065,85.59645528-13.48084146l5.60112698,23.23066223c-25.72505698,6.20283007-55.65979471,10.92745891-88.9726462,14.04285407-29.55787046,2.76418055-60.54505975,4.16323158-92.17225804,4.16323158Z" style="fill: #fed10e;"/>
              <path d="M153.25107358,76.69189019c-1.52073834,0-3.04034994-.00300467-4.56409295-.00957738-31.81306495-.13483454-63.35026368-1.74571297-91.20148411-4.65836446-29.02229037-3.03527956-53.37100514-7.3278255-72.36934252-12.75839002l-2.21876062-.63417305,7.83599023-27.41385323,2.21876062.63417305c17.1653012,4.90681306,40.50613715,8.9924124,67.49896107,11.81529938,26.92183861,2.8155631,57.47519587,4.37310865,88.35718886,4.50381177,32.35315429.14084388,64.04340337-1.22196152,94.17535574-4.03996592,32.06883744-2.99903573,60.75779728-7.51636851,85.27026654-13.4265534l2.24336136-.54084051,6.68276052,27.71713706-2.24336136.5410283c-25.83114358,6.22830426-55.87558495,10.97136284-89.29840158,14.09715807-29.61176896,2.76899072-60.69507481,4.17311033-92.38720181,4.17311033ZM-11.39354681,55.45113042c18.40923436,5.06380705,41.72603296,9.09269324,69.35903928,11.98280971,27.70098696,2.89687697,59.07893821,4.49911697,90.7413941,4.63320035,33.13436835.1427218,65.61822576-1.25557626,96.50172109-4.14362701,32.23935243-3.01499804,61.2915017-7.53927912,86.40152461-13.45359542l-4.51939849-18.74425501c-24.22552332,5.70004581-52.3612484,10.07165212-83.67741613,13.0004537-30.28030792,2.8317132-62.11741023,4.19771107-94.62455383,4.05987185-31.03297763-.13145429-61.74577017-1.69745047-88.81765446-4.52897588-26.11226797-2.73068119-48.88315568-6.6442632-66.06498256-11.34638315l-5.2996736,18.54050086Z" style="fill: #b2782b;"/>
            </g>
          </g>
        </g>
        <g id="Layer_6" data-name="Layer 6">
          <g>
            <path d="M26.26308105,11.06366109l-.02130671.45124847-7.09894252,5.02623035c-.53955209.97603203-1.03649076,1.04949019-1.49916177.16556931,1.59869566-3.84932294,4.45425654-7.68830021,8.53314575-11.54004612.70627519-.66454636,1.31640096-1.17483058,1.82203153-1.58565783.50978423-.38340544,1.07387607-.80284769,1.75488078-1.23959683h0c1.06537405-.66158495,1.76299579-.98876221,2.1262483-.95841745.06676616.04615172.07918866.12834025.07072751.26964144-.09222652.3777134-.33909978.91834237-.76984919,1.62619443-.73608151,1.25709602-1.38012879,2.33258502-1.88198789,3.1629699-.96595797,1.51516108-1.95702774,3.062013-3.03578578,4.62186433Z" style="fill: #231f20;"/>
            <path d="M26.24177434,11.51490956l.02130671-.45124847c1.07875805-1.55985133,2.07398147-3.0793199,2.98147817-4.58582753.50186152-.83038488,1.1459088-1.90583541,1.88199031-3.1629699.43071095-.70785206.67758669-1.24844258.76981073-1.62619443.01265326-.11391784-.00396136-.22348972-.07072751-.26964144-.36321405-.03034476-1.06083579.2968325-2.12620984.95841745h0c-.6517777.43240319-1.2492502.82880803-1.75488078,1.23963529-.50563058.4107888-1.11575634.92107302-1.82203153,1.58561937-4.05385189,3.8200166-6.87595279,7.68206973-8.4746869,11.53139267l-.55539752.08207315c1.53646775-4.26022712,4.35876094-8.31834815,8.4627667-12.20182337,1.46693016-1.36509106,2.87928824-2.4980774,4.21622671-3.33988484h0c1.3620527-.87345982,2.29354829-1.23517396,2.79444832-1.08514239.60954887.07795795.85134543.49036206.71704644,1.18240715-.07976808.45990192-.34340979,1.08706538-.84523285,1.91745027-1.07483515,1.78330259-3.11916414,4.46610227-6.13725601,8.02101567l-.05865115.20472135Z" style="fill: #1b0c0d;"/>
          </g>
        </g>
        <g id="Layer_7" data-name="Layer 7">
          <g>
            <path d="M10.31735337,12.34783279h0c2.6284195,1.15763906,5.46517156,2.84406149,8.45553394,4.98127088l-.09057275-.02949864c.1157639.19806781-1.19271434.95372536-3.95493337,2.35762233-4.67136194-2.14432444-8.00309322-3.97212499-9.946773-5.4474802-.78123328-.61543323-1.32659279-1.09387276-1.60661837-1.52581443-.1094565-.15587745-.13464765-.32444661-.10511055-.41501937,1.46039433-1.4676248,3.83443892-1.43501092,7.2484741.07891945Z" style="fill: #231f20;"/>
            <path d="M2.06361784,13.32382636c-.50524598-.78592539-.47336283-1.43681853.05345908-1.94637201,1.73453556-1.93937233,4.60782825-2.02452226,8.67471616-.17745338h0c2.90644316,1.28832536,5.57036112,3.2590424,7.86533033,5.93107334l.1157639.19802935c-2.99032184-2.13724785-5.82707798-3.82367028-8.45553394-4.98127088h0c-3.37188328-1.52023777-5.78807977-1.54654425-7.20639912-.08518839-.02949864.0905343-.00430749.25906501.10514901.41501937.27998711.43194167.82538509.91034274,1.60665683,1.52577597,1.99210063,1.51123818,5.27541106,3.30315576,9.94673454,5.4474802l.04211345-.0063074-.19802935.11576391c-5.05288284-1.5272759-8.59960423-3.06439751-10.59174332-4.57563569-1.01079963-.71031348-1.65934671-1.30251701-1.95821757-1.8609144Z" style="fill: #1b0c0d;"/>
          </g>
        </g>
      </g>
      <path d="M327.40255225,3.2663638c0,1.97902252-1.29682944,3.26639031-3.2950668,3.26639031-2.00791104,0-3.30487299-1.28736779-3.30487299-3.26639031,0-1.97904902,1.29696195-3.2663638,3.30487299-3.2663638,1.99823736,0,3.2950668,1.28731478,3.2950668,3.2663638ZM326.61484981,3.2663638c0-1.52748703-.98955102-2.52660571-2.50736437-2.52660571-1.52761955,0-2.50752339.99911868-2.50752339,2.52660571,0,1.52751353.97990384,2.52665872,2.50752339,2.52665872,1.51781335,0,2.50736437-.99914518,2.50736437-2.52665872ZM324.8855407,3.70825212l.87431498,1.30663563h-1.00871285l-.70143443-1.22969676h-.4130263v1.22969676h-.85499413V1.48908385h1.60426688c.74940527,0,1.2874473.46112966,1.2874473,1.1528374,0,.53798902-.29789628.91261215-.78786145,1.06633087ZM323.63668211,3.17991028h.59568655c.36505546,0,.5763922-.15371872.5763922-.49958584,0-.34581412-.21133674-.49953284-.5763922-.49953284h-.59568655v.99911868Z" style="fill: #231f20;"/>
    </g>
  </g>
</svg>