<?xml version="1.0" encoding="UTF-8"?>
<svg id="Illustration" xmlns="http://www.w3.org/2000/svg" xmlns:xlink="http://www.w3.org/1999/xlink" version="1.1" viewBox="0 0 100 100">
  <!-- Generator: Adobe Illustrator 29.3.1, SVG Export Plug-In . SVG Version: 2.1.0 Build 151)  -->
  <defs>
    <style>
      .st0 {
        fill: none;
      }

      .st1 {
        fill: #fff;
      }

      .st2 {
        opacity: .3;
      }

      .st3 {
        clip-path: url(#clippath);
      }
    </style>
    <clipPath id="clippath">
      <circle class="st0" cx="50" cy="50" r="50"/>
    </clipPath>
  </defs>
  <g class="st3">
    <g>
      <g class="st2">
        <rect class="st1" x="-26.1" y="3.8" width="103.2" height="41.2" transform="translate(-9.8 25.2) rotate(-45)"/>
      </g>
      <g class="st2">
        <rect class="st1" x="3.3" y="44.1" width="103.2" height="20" transform="translate(-22.1 54.7) rotate(-45)"/>
      </g>
      <path class="st1" d="M54.6,17.6l8.6,17.4,19.2,2.8c4.2.6,5.9,5.8,2.9,8.8l-13.9,13.5,3.3,19.1c.7,4.2-3.7,7.4-7.5,5.4l-17.2-9-17.2,9c-3.8,2-8.2-1.2-7.5-5.4l3.3-19.1-13.9-13.5c-3.1-3-1.4-8.2,2.9-8.8l19.2-2.8,8.6-17.4c1.9-3.8,7.4-3.8,9.2,0Z"/>
    </g>
  </g>
</svg>